<svg width="288" height="197" viewBox="0 0 288 197" fill="none" xmlns="http://www.w3.org/2000/svg">
<path d="M34.5677 119.494C23.6994 122.211 1.96289 123.569 1.96289 107.267" stroke="#3D3D3D" stroke-width="2"/>
<path d="M34.5677 80.7732C24.3787 78.7354 3.59313 78.3278 1.96289 93" stroke="#3D3D3D" stroke-width="2"/>
<path d="M101.815 158.211C99.7771 163.645 92.0335 173.698 77.3613 170.438" stroke="#3D3D3D" stroke-width="2"/>
<path d="M79.3993 139.867C75.3237 148.018 61.0591 161.06 36.6055 148.018" stroke="#3D3D3D" stroke-width="2"/>
<path d="M95.7049 33.9023C92.3085 29.8267 83.0705 22.4907 73.2891 25.7511" stroke="#3D3D3D" stroke-width="2"/>
<path d="M75.3263 50.209C71.2507 40.6993 57.3937 26.9781 34.5703 48.1712" stroke="#3D3D3D" stroke-width="2"/>
<path d="M48.8288 70.5679C54.9422 69.2094 66.7615 71.383 65.1312 90.9459C63.0934 103.173 36.602 72.6057 48.8288 70.5679Z" fill="#909090"/>
<path d="M105.887 52.2277C101.812 54.2655 101.812 56.3033 101.812 58.3411C103.442 66.4923 118.858 63.5159 120.152 58.3411C122.19 50.1899 111.355 49.4937 105.887 52.2277Z" fill="#3D3D3D"/>
<path d="M116.076 31.8497C112.001 33.8875 112.001 35.9253 112.001 37.9631C113.631 46.1143 131.085 39.0622 132.379 33.8875C134.416 25.7363 121.544 29.1157 116.076 31.8497Z" fill="#3D3D3D"/>
<path d="M83.4714 48.1521C80.2494 51.3741 79.3958 52.2277 79.3958 54.2655C81.0261 62.4167 96.4423 53.3268 97.736 48.1521C99.7738 40.0009 87.547 44.0765 83.4714 48.1521Z" fill="#3D3D3D"/>
<path d="M150.719 19.6229C147.497 22.8449 148.681 23.6985 148.681 25.7363C150.311 33.8875 167.765 28.8733 169.059 23.6985C171.097 15.5473 154.794 15.5473 150.719 19.6229Z" fill="#3D3D3D"/>
<path d="M132.379 50.1899C129.157 53.4119 130.341 54.2655 130.341 56.3033C131.971 64.4545 149.425 59.4402 150.719 54.2655C152.757 46.1143 136.454 46.1143 132.379 50.1899Z" fill="#3D3D3D"/>
<path d="M146.643 70.5679C143.421 73.7899 144.605 74.6435 144.605 76.6813C146.236 84.8325 171.841 79.8182 173.135 74.6435C175.172 66.4923 150.719 66.4923 146.643 70.5679Z" fill="#3D3D3D"/>
<path d="M164.983 42.0387C161.761 45.2607 162.946 46.1143 162.946 48.1521C164.576 56.3033 189.437 54.2655 191.475 46.1143C193.513 37.9631 169.059 37.9631 164.983 42.0387Z" fill="#3D3D3D"/>
<path d="M181.286 13.5096C178.064 16.7316 179.248 17.5851 179.248 19.6229C180.878 27.7741 203.702 21.6607 203.702 15.5473C203.702 3.15189 185.361 9.43396 181.286 13.5096Z" fill="#3D3D3D"/>
<path d="M189.437 66.4923C186.215 69.7143 186.858 71.9353 187.399 74.6435C189.029 82.7947 212.597 73.7048 213.891 68.5301C215.928 60.3789 193.513 62.4167 189.437 66.4923Z" fill="#3D3D3D"/>
<path d="M222.042 31.8497C218.82 35.0717 220.004 40.0009 220.004 40.0009C222.042 52.2277 245.202 39.0622 246.495 33.8875C248.533 25.7363 226.117 27.7741 222.042 31.8497Z" fill="#3D3D3D"/>
<path d="M228.155 56.3033C224.933 59.5253 226.117 62.4167 226.117 62.4167C228.155 74.6435 243.164 61.478 244.458 56.3033C246.495 48.1521 232.231 52.2277 228.155 56.3033Z" fill="#3D3D3D"/>
<path d="M199.626 40.0009C196.404 43.2229 197.588 48.1521 197.588 48.1521C199.626 60.3789 210.559 49.2513 211.853 44.0765C213.891 35.9253 203.702 35.9253 199.626 40.0009Z" fill="#3D3D3D"/>
<path d="M213.891 7.39621C210.669 10.6183 211.853 15.5473 211.853 15.5473C213.891 27.7741 224.824 16.6465 226.117 11.4718C228.155 3.32059 217.966 3.32062 213.891 7.39621Z" fill="#3D3D3D"/>
<path d="M236.306 7.39621C230.657 13.0452 238.344 17.5851 238.344 17.5851C244.458 21.6607 251.315 18.6843 252.609 13.5096C254.647 5.35835 240.382 3.32062 236.306 7.39621Z" fill="#3D3D3D"/>
<path d="M248.533 42.0387C242.884 47.6877 250.571 52.2277 250.571 52.2277C256.684 56.3033 267.618 47.2134 268.911 42.0387C270.949 33.8875 252.609 37.9631 248.533 42.0387Z" fill="#3D3D3D"/>
<path d="M260.76 21.6607C255.111 27.3097 259.452 31.4578 259.452 31.4578C265.565 35.5334 276.498 26.4435 277.792 21.2688C279.83 13.1176 264.836 17.5851 260.76 21.6607Z" fill="#3D3D3D"/>
<path d="M146.643 176.537C142.568 174.499 142.568 172.461 142.568 170.423C144.198 162.272 159.614 165.249 160.908 170.423C162.946 178.575 152.111 179.271 146.643 176.537Z" fill="#3D3D3D"/>
<path d="M89.5852 124.369C85.5096 122.331 85.5096 120.294 85.5096 118.256C87.1399 110.105 104.594 117.157 105.888 122.331C107.925 130.483 95.0532 127.103 89.5852 124.369Z" fill="#3D3D3D"/>
<path d="M86.8177 139.931C83.5956 136.709 82.7421 135.855 82.7421 133.817C84.3723 125.666 99.7886 134.756 101.082 139.931C103.12 148.082 90.8933 144.006 86.8177 139.931Z" fill="#3D3D3D"/>
<path d="M112.912 122.388C109.69 119.166 110.874 118.313 110.874 116.275C112.505 108.124 129.959 113.138 131.252 118.313C133.29 126.464 116.988 126.464 112.912 122.388Z" fill="#3D3D3D"/>
<path d="M110.874 141.97C107.652 138.748 108.837 137.895 108.837 135.857C110.467 127.706 127.921 132.72 129.215 137.895C131.253 146.046 114.95 146.046 110.874 141.97Z" fill="#3D3D3D"/>
<path d="M170.367 170.498C166.614 167.914 169.059 162.347 169.059 162.347C170.689 154.195 195.565 161.247 196.859 166.422C198.897 174.573 179.248 176.611 170.367 170.498Z" fill="#3D3D3D"/>
<path d="M201.664 156.233C198.442 153.011 199.626 152.158 199.626 150.12C201.256 141.969 228.155 144.006 228.155 152.158C228.155 160.309 205.739 160.309 201.664 156.233Z" fill="#3D3D3D"/>
<path d="M199.626 131.7C196.404 128.478 197.588 127.625 197.588 125.587C199.218 117.436 222.042 123.549 222.042 129.662C222.042 142.058 203.702 135.776 199.626 131.7Z" fill="#3D3D3D"/>
<path d="M164.983 124.426C161.761 121.204 162.404 118.983 162.946 116.275C164.576 108.124 188.143 117.214 189.437 122.388C191.475 130.539 169.059 128.502 164.983 124.426Z" fill="#3D3D3D"/>
<path d="M242.42 178.575C239.198 175.353 240.382 170.423 240.382 170.423C242.42 158.197 265.58 171.362 266.873 176.537C268.911 184.688 246.495 182.65 242.42 178.575Z" fill="#3D3D3D"/>
<path d="M140.53 130.54C137.308 127.317 138.492 124.426 138.492 124.426C140.53 112.199 155.539 125.365 156.832 130.54C158.87 138.691 144.605 134.615 140.53 130.54Z" fill="#3D3D3D"/>
<path d="M170.367 148.082C167.145 144.86 168.33 139.931 168.33 139.931C170.367 127.704 181.301 138.832 182.594 144.006C184.632 152.158 174.443 152.158 170.367 148.082Z" fill="#3D3D3D"/>
<path d="M221.312 184.76C218.09 181.538 219.275 176.609 219.275 176.609C221.312 164.382 232.246 175.51 233.539 180.684C235.577 188.836 225.388 188.836 221.312 184.76Z" fill="#3D3D3D"/>
<path d="M236.306 148.084C230.657 142.435 238.344 137.895 238.344 137.895C244.458 133.819 251.315 136.795 252.609 141.97C254.647 150.121 240.382 152.159 236.306 148.084Z" fill="#3D3D3D"/>
<path d="M258.722 160.309C253.073 154.66 260.76 150.12 260.76 150.12C266.873 146.044 277.807 155.134 279.1 160.309C281.138 168.46 262.798 164.384 258.722 160.309Z" fill="#3D3D3D"/>
<path d="M192.783 188.369C187.134 182.72 191.475 178.572 191.475 178.572C197.588 174.497 208.521 183.587 209.815 188.761C211.853 196.913 196.859 192.445 192.783 188.369Z" fill="#3D3D3D"/>
<path d="M112.001 76.6813C111.321 73.9642 112.001 72.6057 116.076 70.5679C121.544 67.8339 134.416 68.5301 132.379 76.6813C131.085 81.856 113.631 84.8325 112.001 76.6813Z" fill="#3D3D3D"/>
<path d="M77.358 74.6435C76.6788 71.9264 77.358 68.5301 81.4336 66.4923C86.9016 63.7583 99.7738 62.4167 97.736 70.5679C96.4423 75.7426 78.9883 82.7947 77.358 74.6435Z" fill="#3D3D3D"/>
<path d="M113.309 154.195C112.63 156.913 113.309 160.309 117.385 162.347C122.853 165.081 135.725 166.422 133.687 158.271C132.393 153.096 114.939 146.044 113.309 154.195Z" fill="#3D3D3D"/>
<path d="M134.416 148.082C133.737 150.799 134.416 152.158 138.492 154.195C143.96 156.929 158.87 160.309 156.832 152.158C155.539 146.983 136.047 139.931 134.416 148.082Z" fill="#3D3D3D"/>
<path d="M48.8288 127.626C54.9422 128.985 66.7615 126.811 65.1312 107.248C63.0934 95.0215 36.602 125.589 48.8288 127.626Z" fill="#909090"/>
<path fill-rule="evenodd" clip-rule="evenodd" d="M140.53 178.575C161.587 191.481 217.152 210.364 270.949 182.65C306.533 164.319 282.206 140.281 236.312 124.426C234.97 123.962 233.609 123.506 232.231 123.056C225.788 120.956 218.962 119.015 211.853 117.271C206.563 115.973 201.115 114.784 195.55 113.718C188.902 112.444 182.086 111.346 175.172 110.449C168.451 109.577 161.638 108.895 154.794 108.425C149.368 108.053 143.924 107.814 138.492 107.721C130.275 107.579 122.087 107.77 114.038 108.333C107.12 108.816 100.304 109.575 93.6604 110.633C92.2946 110.851 90.936 111.081 89.5852 111.324C86.901 111.93 84.5383 112.612 82.4763 113.362C71.7281 117.271 69.1488 123.04 71.7807 129.664C78.1502 145.696 115.043 166.74 140.53 178.575ZM117.385 162.347C113.309 160.309 112.63 156.913 113.309 154.195C114.939 146.044 132.393 153.096 133.687 158.271C135.725 166.422 122.853 165.081 117.385 162.347ZM138.492 154.195C134.416 152.158 133.737 150.799 134.416 148.082C136.047 139.931 155.539 146.983 156.832 152.158C158.87 160.309 143.96 156.929 138.492 154.195ZM146.643 176.537C142.568 174.499 142.568 172.461 142.568 170.423C144.198 162.272 159.614 165.249 160.908 170.423C162.946 178.575 152.111 179.271 146.643 176.537ZM89.5852 124.369C85.5096 122.331 85.5096 120.294 85.5096 118.256C87.1399 110.105 104.594 117.157 105.888 122.331C107.925 130.483 95.0532 127.103 89.5852 124.369ZM86.8177 139.931C83.5956 136.709 82.7421 135.855 82.7421 133.817C84.3723 125.666 99.7886 134.756 101.082 139.931C103.12 148.082 90.8933 144.006 86.8177 139.931ZM112.912 122.388C109.69 119.166 110.874 118.313 110.874 116.275C112.505 108.124 129.959 113.138 131.252 118.313C133.29 126.464 116.988 126.464 112.912 122.388ZM110.874 141.97C107.652 138.748 108.837 137.895 108.837 135.857C110.467 127.706 127.921 132.72 129.215 137.895C131.253 146.046 114.95 146.046 110.874 141.97ZM170.367 170.498C166.614 167.914 169.059 162.347 169.059 162.347C170.689 154.195 195.565 161.247 196.859 166.422C198.897 174.573 179.248 176.611 170.367 170.498ZM201.664 156.233C198.442 153.011 199.626 152.158 199.626 150.12C201.256 141.969 228.155 144.006 228.155 152.158C228.155 160.309 205.739 160.309 201.664 156.233ZM199.626 131.7C196.404 128.478 197.588 127.625 197.588 125.587C199.218 117.436 222.042 123.549 222.042 129.662C222.042 142.058 203.702 135.776 199.626 131.7ZM164.983 124.426C161.761 121.204 162.404 118.983 162.946 116.275C164.576 108.124 188.143 117.214 189.437 122.388C191.475 130.539 169.059 128.502 164.983 124.426ZM242.42 178.575C239.198 175.353 240.382 170.423 240.382 170.423C242.42 158.197 265.58 171.362 266.873 176.537C268.911 184.688 246.495 182.65 242.42 178.575ZM140.53 130.54C137.308 127.317 138.492 124.426 138.492 124.426C140.53 112.199 155.539 125.365 156.832 130.54C158.87 138.691 144.605 134.615 140.53 130.54ZM170.367 148.082C167.145 144.86 168.33 139.931 168.33 139.931C170.367 127.704 181.301 138.832 182.594 144.006C184.632 152.158 174.443 152.158 170.367 148.082ZM221.312 184.76C218.09 181.538 219.275 176.609 219.275 176.609C221.312 164.382 232.246 175.51 233.539 180.684C235.577 188.836 225.388 188.836 221.312 184.76ZM236.306 148.084C230.657 142.435 238.344 137.895 238.344 137.895C244.458 133.819 251.315 136.795 252.609 141.97C254.647 150.121 240.382 152.159 236.306 148.084ZM258.722 160.309C253.073 154.66 260.76 150.12 260.76 150.12C266.873 146.044 277.807 155.134 279.1 160.309C281.138 168.46 262.798 164.384 258.722 160.309ZM192.783 188.369C187.134 182.72 191.475 178.572 191.475 178.572C197.588 174.497 208.521 183.587 209.815 188.761C211.853 196.913 196.859 192.445 192.783 188.369Z" fill="#547629"/>
<path fill-rule="evenodd" clip-rule="evenodd" d="M285.218 25.7363C283.18 -23.1709 99.778 5.35831 67.1732 60.3789C66.5252 61.8044 66.0532 63.1621 65.7388 64.4545C62.7544 76.7201 73.962 83.0979 83.61 85.6881C85.7333 86.2581 87.7809 86.6447 89.5852 86.8703C90.9115 87.0419 92.2705 87.2087 93.6604 87.3699C99.8929 88.0927 106.745 88.704 114.038 89.1426C121.766 89.6073 129.989 89.8783 138.492 89.8829C143.833 89.8858 149.285 89.7836 154.794 89.5583C161.533 89.2828 168.357 88.8233 175.172 88.1468C182.008 87.4683 188.833 86.5715 195.55 85.4234C201.075 84.479 206.528 83.3646 211.853 82.0617C218.911 80.3346 225.746 78.2764 232.231 75.8438C233.607 75.3275 234.968 74.7944 236.312 74.2439C260.361 64.3925 278.974 49.009 285.218 25.7363ZM81.4336 66.4923C77.358 68.5301 76.6788 71.9264 77.358 74.6435C78.9883 82.7947 96.4423 75.7426 97.736 70.5679C99.7738 62.4167 86.9016 63.7583 81.4336 66.4923ZM116.076 70.5679C112.001 72.6057 111.321 73.9642 112.001 76.6813C113.631 84.8325 131.085 81.856 132.379 76.6813C134.416 68.5301 121.544 67.8339 116.076 70.5679ZM105.887 52.2277C101.812 54.2655 101.812 56.3033 101.812 58.3411C103.442 66.4923 118.858 63.5159 120.152 58.3411C122.19 50.1899 111.355 49.4937 105.887 52.2277ZM116.076 31.8497C112.001 33.8875 112.001 35.9253 112.001 37.9631C113.631 46.1143 131.085 39.0622 132.379 33.8875C134.416 25.7363 121.544 29.1157 116.076 31.8497ZM83.4714 48.1521C80.2494 51.3741 79.3958 52.2277 79.3958 54.2655C81.0261 62.4167 96.4423 53.3268 97.736 48.1521C99.7738 40.0009 87.547 44.0765 83.4714 48.1521ZM150.719 19.6229C147.497 22.8449 148.681 23.6985 148.681 25.7363C150.311 33.8875 167.765 28.8733 169.059 23.6985C171.097 15.5473 154.794 15.5473 150.719 19.6229ZM132.379 50.1899C129.157 53.4119 130.341 54.2655 130.341 56.3033C131.971 64.4545 149.425 59.4402 150.719 54.2655C152.757 46.1143 136.454 46.1143 132.379 50.1899ZM146.643 70.5679C143.421 73.7899 144.605 74.6435 144.605 76.6813C146.236 84.8325 171.841 79.8182 173.135 74.6435C175.172 66.4923 150.719 66.4923 146.643 70.5679ZM164.983 42.0387C161.761 45.2607 162.946 46.1143 162.946 48.1521C164.576 56.3033 189.437 54.2655 191.475 46.1143C193.513 37.9631 169.059 37.9631 164.983 42.0387ZM181.286 13.5096C178.064 16.7316 179.248 17.5851 179.248 19.6229C180.878 27.7741 203.702 21.6607 203.702 15.5473C203.702 3.15189 185.361 9.43396 181.286 13.5096ZM189.437 66.4923C186.215 69.7143 186.858 71.9353 187.399 74.6435C189.029 82.7947 212.597 73.7048 213.891 68.5301C215.928 60.3789 193.513 62.4167 189.437 66.4923ZM222.042 31.8497C218.82 35.0717 220.004 40.0009 220.004 40.0009C222.042 52.2277 245.202 39.0622 246.495 33.8875C248.533 25.7363 226.117 27.7741 222.042 31.8497ZM228.155 56.3033C224.933 59.5253 226.117 62.4167 226.117 62.4167C228.155 74.6435 243.164 61.478 244.458 56.3033C246.495 48.1521 232.231 52.2277 228.155 56.3033ZM199.626 40.0009C196.404 43.2229 197.588 48.1521 197.588 48.1521C199.626 60.3789 210.559 49.2513 211.853 44.0765C213.891 35.9253 203.702 35.9253 199.626 40.0009ZM213.891 7.39621C210.669 10.6183 211.853 15.5473 211.853 15.5473C213.891 27.7741 224.824 16.6465 226.117 11.4718C228.155 3.32059 217.966 3.32062 213.891 7.39621ZM236.306 7.39621C230.657 13.0452 238.344 17.5851 238.344 17.5851C244.458 21.6607 251.315 18.6843 252.609 13.5096C254.647 5.35835 240.382 3.32062 236.306 7.39621ZM248.533 42.0387C242.884 47.6877 250.571 52.2277 250.571 52.2277C256.684 56.3033 267.618 47.2134 268.911 42.0387C270.949 33.8875 252.609 37.9631 248.533 42.0387ZM260.76 21.6607C255.111 27.3097 259.452 31.4578 259.452 31.4578C265.565 35.5334 276.498 26.4435 277.792 21.2688C279.83 13.1176 264.836 17.5851 260.76 21.6607Z" fill="#547629"/>
<path d="M82.4763 113.362C84.5383 112.612 86.901 111.93 89.5852 111.324C90.936 111.081 92.2946 110.851 93.6604 110.633C91.6226 105.757 88.7697 94.2777 93.6604 87.3699C92.2705 87.2087 90.9115 87.0419 89.5852 86.8703C87.7809 86.6447 85.7333 86.2581 83.61 85.6881C72.305 94.5238 78.1438 107.819 82.4763 113.362Z" fill="#3D3D3D"/>
<path d="M93.6604 87.3699C88.7697 94.2777 91.6226 105.757 93.6604 110.633C100.304 109.575 107.12 108.816 114.038 108.333V89.1426C106.745 88.704 99.8929 88.0927 93.6604 87.3699Z" fill="#DFDFDF"/>
<path d="M114.038 89.1426V108.333C122.087 107.77 130.275 107.579 138.492 107.721V89.8829C129.989 89.8783 121.766 89.6073 114.038 89.1426Z" fill="#3D3D3D"/>
<path d="M154.794 89.5583V108.425C161.638 108.895 168.451 109.577 175.172 110.449V88.1468C168.357 88.8233 161.533 89.2828 154.794 89.5583Z" fill="#3D3D3D"/>
<path d="M195.55 85.4234V113.718C201.115 114.784 206.563 115.973 211.853 117.271V82.0617C206.528 83.3646 201.075 84.479 195.55 85.4234Z" fill="#3D3D3D"/>
<path d="M232.231 123.056C233.609 123.506 234.97 123.962 236.312 124.426C240.093 123.862 244.718 122.9 249.487 121.51V75.137C244.518 74.276 239.824 74.0778 236.312 74.2439C234.968 74.7944 233.607 75.3275 232.231 75.8438V123.056Z" fill="#3D3D3D"/>
<path d="M266.873 114.122C274.366 109.427 279.278 103.121 277.068 95.0215C275.434 89.0363 271.637 84.671 266.873 81.5312V114.122Z" fill="#3D3D3D"/>
<path d="M138.492 89.8829V107.721C143.924 107.814 149.368 108.053 154.794 108.425V89.5583C149.285 89.7836 143.833 89.8858 138.492 89.8829Z" fill="#DFDFDF"/>
<path d="M175.172 88.1468V110.449C182.086 111.346 188.902 112.444 195.55 113.718V85.4234C188.833 86.5715 182.008 87.4683 175.172 88.1468Z" fill="#DFDFDF"/>
<path d="M211.853 82.0617V117.271C218.962 119.015 225.788 120.956 232.231 123.056V75.8438C225.746 78.2764 218.911 80.3346 211.853 82.0617Z" fill="#DFDFDF"/>
<path d="M249.487 75.137V121.51C255.524 119.75 261.792 117.307 266.873 114.122V81.5312C261.706 78.1255 255.402 76.1618 249.487 75.137Z" fill="#DFDFDF"/>
<path fill-rule="evenodd" clip-rule="evenodd" d="M82.4763 113.362C78.1438 107.819 72.305 94.5238 83.61 85.6881C73.962 83.0979 62.7544 76.7201 65.7388 64.4545C58.7445 61.0582 43.1262 57.526 36.6073 70.5679C30.0885 83.6098 39.3235 92.3044 44.7559 95.0215C44.7568 95.7008 44.7585 97.8744 44.7585 101.135C44.7585 105.211 30.4939 111.324 36.6073 127.626C41.4981 140.668 62.094 134.419 71.7807 129.664C69.1488 123.04 71.7281 117.271 82.4763 113.362ZM48.8288 127.626C54.9422 128.985 66.7615 126.811 65.1312 107.248C63.0934 95.0215 36.602 125.589 48.8288 127.626ZM48.8288 70.5679C54.9422 69.2094 66.7615 71.383 65.1312 90.9459C63.0934 103.173 36.602 72.6057 48.8288 70.5679Z" fill="#DFDFDF"/>
</svg>
