<svg width="262" height="297" viewBox="0 0 262 297" fill="none" xmlns="http://www.w3.org/2000/svg">
<path d="M62.3273 123.428C75.5433 132.679 79.5081 128.714 91.4026 126.071C100.918 123.956 110.786 130.917 115.191 135.322V163.076C111.667 167.041 100.389 177.878 88.7594 173.649C77.1293 169.42 66.7326 172.768 62.3273 176.292" stroke="#DFDFDF" stroke-width="2"/>
<path d="M197.164 108.889C201.129 110.651 206.679 116.29 197.164 124.748C185.27 135.321 177.338 135.321 178.66 143.25M168.087 104.924C171.612 105.364 176.81 109.153 169.409 120.783C166.237 127.127 170.73 139.285 173.374 141.929" stroke="#DFDFDF" stroke-width="2"/>
<path d="M179.957 152.5C179.076 158.667 181.278 175.232 197.137 176.289C208.767 177.346 203.745 187.302 199.78 192.148" stroke="#DFDFDF" stroke-width="2"/>
<path d="M203.741 155.146C212.552 165.719 236.253 182.371 260.57 164.398" stroke="#DFDFDF" stroke-width="2"/>
<path d="M203.741 144.282C211.671 135.471 234.138 121.022 260.57 133.709" stroke="#DFDFDF" stroke-width="2"/>
<path d="M171.67 155.146C169.908 160.433 167.706 171.006 172.992 174.971C179.157 179.595 174.313 185.984 171.67 189.508" stroke="#DFDFDF" stroke-width="2"/>
<path fill-rule="evenodd" clip-rule="evenodd" d="M83.4772 296.558C83.4772 296.558 109.909 287.307 123.125 250.302C127.501 238.049 134.745 223.165 142.608 208.595C140.96 207.519 138.192 204.309 140.306 200.08C142.421 195.851 146.834 196.556 148.776 197.437C153.961 188.263 159.163 179.537 163.775 172.051C159.29 163.373 165.467 162.742 169.116 163.512C170.661 161.082 172.082 158.883 173.346 156.958C163.317 158.673 151.933 160.372 140.306 161.752C131.791 166.293 123.087 169.967 114.394 172.98C113.791 176.981 110.599 183.321 102.656 176.672C98.4335 177.874 94.2353 178.939 90.0852 179.893C91.4068 182.657 92.4641 188.45 86.1204 189.507C79.7767 190.564 79.9529 184.851 80.834 181.862C77.2533 182.566 73.7236 183.198 70.2612 183.773C69.3801 185.684 66.5606 189.507 62.3315 189.507C58.1025 189.507 57.0453 187.021 57.0453 185.778C29.1616 189.677 7.73872 191.02 2.85942 200.081C-4.1535 213.105 9.63947 218.456 18.6013 219.73C19.1217 219.746 19.6063 219.809 20.0403 219.905C19.5783 219.859 19.0972 219.801 18.6013 219.73C14.3673 219.603 7.76579 222.583 6.82422 235.764C5.76694 250.566 20.4808 251.624 27.9699 250.302C24.8861 253.826 20.5689 263.254 27.9699 272.769C35.3708 282.285 46.6963 274.397 51.4338 269.263C48.4459 273.268 40.2122 279.676 49.1155 287.307C60.0341 296.666 69.3801 288.629 74.226 282.021C74.226 299.201 83.4772 296.558 83.4772 296.558ZM152.201 167.04C148.236 166.599 140.835 167.304 142.949 173.648C145.593 181.578 157.487 167.04 152.201 167.04ZM150.879 181.577C147.355 180.696 140.042 180.785 138.985 188.186C137.663 197.437 157.487 184.221 150.879 181.577ZM136.341 173.648C131.495 172.767 122.068 173.119 123.125 181.577C124.447 192.15 145.593 174.969 136.341 173.648ZM123.125 192.15C125.24 190.036 129.293 190.388 131.055 190.829C131.936 190.829 132.641 192.15 128.412 197.437C122.068 204.838 120.482 202.283 120.482 200.08C120.482 198.318 121.011 194.265 123.125 192.15ZM132.376 210.653C127.971 209.772 119.689 210.653 121.804 221.226C124.447 223.869 138.528 212.71 132.376 210.653ZM115.196 208.01C112.993 207.128 107.795 207.481 104.623 215.939C100.658 226.512 120.482 210.653 115.196 208.01ZM111.231 186.864C107.707 185.102 95.3716 189.507 98.0148 194.794C101.98 198.758 119.16 192.15 111.231 186.864ZM47.7939 211.974C44.2696 210.212 35.8995 215.939 38.5427 221.226C42.5075 225.19 55.7235 217.261 47.7939 211.974ZM101.98 234.442C106.209 228.098 110.79 228.274 112.552 229.155C118.896 231.27 109.909 239.728 104.623 243.693C101.98 243.252 97.7505 240.785 101.98 234.442ZM72.7695 197.41L72.9044 197.437C79.0554 199.494 64.9747 208.01 62.3315 205.366C60.2384 194.9 68.3326 196.521 72.7695 197.41ZM95.3716 264.838C90.9663 263.957 82.6842 264.839 84.7988 275.411C87.442 278.055 101.523 266.896 95.3716 264.838ZM95.3716 223.869C93.1689 222.988 87.9706 223.34 84.7988 231.798C80.834 242.371 100.658 226.512 95.3716 223.869ZM72.9044 218.582C70.7017 217.701 65.5034 215.411 62.3315 223.869C58.3667 234.442 78.1908 221.226 72.9044 218.582ZM75.5476 239.728C73.3449 238.847 66.825 237.878 63.6532 246.336C59.6883 256.909 80.834 245.014 75.5476 239.728ZM114.394 250.302C112.192 249.421 104.811 249.253 103.821 258.232C102.656 268.805 119.681 252.945 114.394 250.302ZM74.226 259.552C72.0233 258.671 64.9307 258.539 63.6532 267.482C62.3315 276.733 80.834 263.517 74.226 259.552ZM54.4019 233.12C52.1993 232.239 43.8291 232.016 43.8291 241.05C43.8291 251.622 59.6883 235.763 54.4019 233.12ZM45.1507 251.622C42.948 250.741 37.5515 251.622 34.5779 259.552C30.6131 270.125 53.0803 256.91 45.1507 251.622ZM90.0852 248.979C87.8825 248.098 83.8076 247.658 80.834 255.587C76.8692 266.16 98.0148 254.267 90.0852 248.979ZM88.7636 284.663C86.5609 283.781 84.0058 280.169 80.834 288.627C76.8692 299.2 94.05 287.306 88.7636 284.663ZM63.6532 275.411C61.4505 274.53 54.3578 274.398 53.0803 283.341C51.7587 292.592 70.2612 279.376 63.6532 275.411ZM34.5779 229.155C32.3752 228.274 21.3178 225.499 20.0403 234.442C18.7187 243.693 41.1859 233.12 34.5779 229.155ZM95.3716 202.723C91.8473 200.961 83.4772 206.688 86.1204 211.974C90.0852 215.939 103.301 208.01 95.3716 202.723ZM46.4723 194.794C42.948 193.031 33.2563 196.115 35.8995 201.402C39.8643 205.366 54.4019 200.08 46.4723 194.794ZM21.3619 205.366C17.8376 203.604 8.14583 206.688 10.789 211.974C14.7538 215.939 29.2915 210.653 21.3619 205.366ZM25.3267 194.794C21.8024 193.031 16.0754 192.15 18.7187 197.437C22.6835 201.402 33.2563 200.08 25.3267 194.794Z" fill="#547629"/>
<path fill-rule="evenodd" clip-rule="evenodd" d="M79.5124 1.84079C76.8692 2.72161 72.1114 6.59781 74.226 15.0561C71.1422 11.091 64.4322 6.60626 55.7235 12.4121C48.1586 17.4553 51.4192 23.7015 54.0302 25.4128C54.1585 25.4846 54.2825 25.5564 54.4019 25.6281C54.2804 25.5673 54.156 25.4953 54.0302 25.4128C49.4211 22.8364 39.1351 20.3353 31.9347 29.5929C25.1925 38.2615 29.6376 43.2018 33.4799 45.0121C33.8657 45.1577 34.2327 45.3057 34.5779 45.4537C34.225 45.336 33.8553 45.189 33.4799 45.0121C26.9721 42.5554 15.105 40.7574 12.1106 50.7385C8.9388 61.3114 16.0755 68.3599 20.0403 70.5626C14.7538 71.0031 6.03488 73.7742 6.82422 82.457C8.14583 96.9946 123.125 120.783 140.306 136.101C145.229 136.591 150.103 137.153 154.844 137.762C153.963 135.186 153.786 130.299 160.13 131.357C166.257 132.378 165.48 136.768 164.229 139.052C167.371 139.511 170.419 139.985 173.346 140.465C170.186 135.737 166.044 129.279 161.452 121.753C160.13 123.633 156.43 126.07 152.201 120.784C147.971 115.497 152.201 111.853 154.844 110.691C152.893 107.354 150.909 103.897 148.928 100.36C142.356 108.29 129.743 90.3869 141.365 86.4221C139.063 82.0281 136.826 77.5986 134.711 73.2061C128.139 81.1357 116.517 62.6333 128.139 58.6685C126.223 54.0943 124.527 49.6587 123.125 45.4537C121.363 46.3343 117.31 47.0384 115.196 42.8092C113.081 38.5801 116.708 35.4818 118.786 34.4613C117.141 30.9096 115.388 27.6924 113.569 24.786C109.419 31.0107 94.05 13.3258 101.98 10.6826C91.5796 1.22667 81.8015 -0.449188 79.5124 1.84079ZM17.3971 75.849C20.9213 75.4085 27.4412 75.849 25.3267 81.1354C22.6835 87.7434 13.4323 75.849 17.3971 75.849ZM51.7587 59.9901C55.283 59.5495 61.8029 59.9901 59.6883 65.2765C57.0451 71.8845 47.7939 59.9901 51.7587 59.9901ZM42.5075 73.2061C46.0318 72.7655 52.5517 73.2061 50.4371 78.4925C47.7939 85.1005 38.5427 73.2061 42.5075 73.2061ZM84.7988 93.0301C88.3231 92.5896 94.843 93.0301 92.7284 98.3165C90.0852 104.925 80.834 93.0301 84.7988 93.0301ZM99.3364 103.603C102.861 103.162 109.381 103.603 107.266 108.889C104.623 115.497 95.3716 103.603 99.3364 103.603ZM21.3619 56.0253C28.4104 53.382 43.8291 59.9901 38.5427 67.9197C34.3929 74.1444 13.4322 58.6685 21.3619 56.0253ZM58.3667 41.4876C65.4153 38.8444 80.834 45.4524 75.5476 53.382C71.3978 59.6068 50.4371 44.1308 58.3667 41.4876ZM78.1908 20.342C85.2393 17.6988 96.6932 26.95 91.4068 34.8796C87.257 41.1043 70.2612 22.9852 78.1908 20.342ZM83.4772 53.382C90.5257 50.7388 101.98 59.9901 96.6932 67.9197C92.5434 74.1444 75.5476 56.0253 83.4772 53.382ZM99.3364 40.166C106.385 37.5228 116.517 46.774 111.231 54.7037C107.081 60.9284 91.4068 42.8092 99.3364 40.166ZM71.5828 71.8845C78.6313 69.2413 87.442 75.8493 82.1556 83.7789C78.0058 90.0036 63.6532 74.5277 71.5828 71.8845ZM109.909 66.5981C115.196 63.9549 121.804 70.5629 120.482 78.4925C119.252 85.8719 101.98 69.2413 109.909 66.5981ZM116.517 91.7085C121.804 89.0653 129.843 104.925 121.804 104.925C119.16 104.925 108.588 94.3517 116.517 91.7085ZM98.0148 78.4925C103.301 75.8493 110.019 87.7437 101.98 87.7437C99.3364 87.7437 90.0852 81.1357 98.0148 78.4925ZM133.698 106.246C136.341 105.365 145.702 115.497 137.663 115.497C135.02 115.497 125.768 108.889 133.698 106.246ZM119.16 114.176C124.447 114.176 131.82 123.427 124.447 123.427C121.804 123.427 110.802 114.176 119.16 114.176ZM35.8995 32.2364C42.948 29.5932 51.7587 36.2012 46.4723 44.1308C42.3225 50.3556 27.9699 34.8796 35.8995 32.2364ZM58.3667 15.0561C65.4153 12.4129 74.226 19.0209 68.9396 26.9505C64.7897 33.1752 50.4371 17.6993 58.3667 15.0561ZM80.834 5.80435C84.3583 5.36382 90.8782 5.80435 88.7636 11.0908C86.1204 17.6988 76.8692 5.80435 80.834 5.80435ZM137.663 123.427C142.949 120.784 152.31 132.678 144.271 132.678C141.628 132.678 129.733 126.07 137.663 123.427ZM57.0451 79.8141C64.0937 77.1709 75.5476 86.4221 70.2612 94.3517C66.1113 100.576 49.1155 82.4573 57.0451 79.8141Z" fill="#547629"/>
<path d="M197.135 152.502C199.778 153.824 203.479 157.26 197.135 160.432C193.17 160.432 190.527 153.824 197.135 152.502Z" fill="#3D3D3D"/>
<path d="M197.135 139.286C199.778 140.608 203.479 144.044 197.135 147.216C193.17 147.216 190.527 140.608 197.135 139.286Z" fill="#3D3D3D"/>
<path d="M183.434 155.147C181.956 150.508 182.884 146.055 185.039 142.527C181.443 141.844 177.518 141.148 173.346 140.465C170.419 139.985 167.371 139.511 164.229 139.052C161.179 138.606 158.042 138.173 154.844 137.762C150.103 137.153 145.229 136.591 140.306 136.101C101.983 132.29 60.738 132.876 57.0453 149.862C53.2009 167.546 98.3426 166.731 140.306 161.752C151.933 160.372 163.317 158.673 173.346 156.958C176.895 156.352 180.274 155.743 183.434 155.147Z" fill="#DFDFDF"/>
<path fill-rule="evenodd" clip-rule="evenodd" d="M183.611 155.67C183.801 156.203 184.153 156.691 184.571 157.072C205.11 175.803 207.248 152.4 205.068 141.936C201.483 131.186 190.004 134.4 185.039 142.527C182.884 146.055 181.956 150.508 183.434 155.147C183.49 155.321 183.549 155.495 183.611 155.67ZM197.135 139.286C199.778 140.608 203.479 144.044 197.135 147.216C193.17 147.216 190.527 140.608 197.135 139.286ZM197.135 152.502C199.778 153.824 203.479 157.26 197.135 160.432C193.17 160.432 190.527 153.824 197.135 152.502Z" fill="#DFDFDF"/>
<path d="M86.1204 189.507C92.4641 188.45 91.4068 182.657 90.0852 179.893C86.971 180.609 83.884 181.262 80.834 181.862C79.9529 184.851 79.7767 190.564 86.1204 189.507Z" fill="#DFDFDF"/>
<path d="M111.231 186.864C107.707 185.102 95.3716 189.507 98.0148 194.794C101.98 198.758 119.16 192.15 111.231 186.864Z" fill="#DFDFDF"/>
<path d="M102.656 176.672C106.554 175.564 110.473 174.339 114.394 172.98C113.791 176.981 110.599 183.321 102.656 176.672Z" fill="#DFDFDF"/>
<path d="M131.055 190.829C129.293 190.388 125.24 190.036 123.125 192.15C121.011 194.265 120.482 198.318 120.482 200.08C120.482 202.283 122.068 204.838 128.412 197.437C132.641 192.15 131.936 190.829 131.055 190.829Z" fill="#DFDFDF"/>
<path d="M136.341 173.648C131.495 172.767 122.068 173.119 123.125 181.577C124.447 192.15 145.593 174.969 136.341 173.648Z" fill="#DFDFDF"/>
<path d="M132.376 210.653C127.971 209.772 119.689 210.653 121.804 221.226C124.447 223.869 138.528 212.71 132.376 210.653Z" fill="#DFDFDF"/>
<path d="M112.552 229.155C110.79 228.274 106.209 228.098 101.98 234.442C97.7505 240.785 101.98 243.252 104.623 243.693C109.909 239.728 118.896 231.27 112.552 229.155Z" fill="#DFDFDF"/>
<path d="M114.394 250.302C112.192 249.421 104.811 249.253 103.821 258.232C102.656 268.805 119.681 252.945 114.394 250.302Z" fill="#DFDFDF"/>
<path d="M95.3716 264.838C90.9663 263.957 82.6842 264.839 84.7988 275.411C87.442 278.055 101.523 266.896 95.3716 264.838Z" fill="#DFDFDF"/>
<path d="M95.3716 223.869C93.1689 222.988 87.9706 223.34 84.7988 231.798C80.834 242.371 100.658 226.512 95.3716 223.869Z" fill="#DFDFDF"/>
<path d="M115.196 208.01C112.993 207.128 107.795 207.481 104.623 215.939C100.658 226.512 120.482 210.653 115.196 208.01Z" fill="#DFDFDF"/>
<path d="M95.3716 202.723C91.8473 200.961 83.4772 206.688 86.1204 211.974C90.0852 215.939 103.301 208.01 95.3716 202.723Z" fill="#DFDFDF"/>
<path d="M62.3315 205.366C64.9747 208.01 79.0554 199.494 72.9044 197.437L72.7695 197.41C68.3326 196.521 60.2384 194.9 62.3315 205.366Z" fill="#DFDFDF"/>
<path d="M62.3315 189.507C66.5606 189.507 69.3801 185.684 70.2612 183.773C65.7287 184.526 61.3114 185.182 57.0453 185.778C57.0453 187.021 58.1025 189.507 62.3315 189.507Z" fill="#DFDFDF"/>
<path d="M46.4723 194.794C42.948 193.031 33.2563 196.115 35.8995 201.402C39.8643 205.366 54.4019 200.08 46.4723 194.794Z" fill="#DFDFDF"/>
<path d="M54.4019 233.12C52.1993 232.239 43.8291 232.016 43.8291 241.05C43.8291 251.622 59.6883 235.763 54.4019 233.12Z" fill="#DFDFDF"/>
<path d="M34.5779 229.155C32.3752 228.274 21.3178 225.499 20.0403 234.442C18.7187 243.693 41.1859 233.12 34.5779 229.155Z" fill="#DFDFDF"/>
<path d="M47.7939 211.974C44.2696 210.212 35.8995 215.939 38.5427 221.226C42.5075 225.19 55.7235 217.261 47.7939 211.974Z" fill="#DFDFDF"/>
<path d="M21.3619 205.366C17.8376 203.604 8.14583 206.688 10.789 211.974C14.7538 215.939 29.2915 210.653 21.3619 205.366Z" fill="#DFDFDF"/>
<path d="M25.3267 194.794C21.8024 193.031 16.0754 192.15 18.7187 197.437C22.6835 201.402 33.2563 200.08 25.3267 194.794Z" fill="#DFDFDF"/>
<path d="M90.0852 248.979C87.8825 248.098 83.8076 247.658 80.834 255.587C76.8692 266.16 98.0148 254.267 90.0852 248.979Z" fill="#DFDFDF"/>
<path d="M74.226 259.552C72.0233 258.671 64.9307 258.539 63.6532 267.482C62.3315 276.733 80.834 263.517 74.226 259.552Z" fill="#DFDFDF"/>
<path d="M63.6532 275.411C61.4505 274.53 54.3578 274.398 53.0803 283.341C51.7587 292.592 70.2612 279.376 63.6532 275.411Z" fill="#DFDFDF"/>
<path d="M88.7636 284.663C86.5609 283.781 84.0058 280.169 80.834 288.627C76.8692 299.2 94.05 287.306 88.7636 284.663Z" fill="#DFDFDF"/>
<path d="M45.1507 251.622C42.948 250.741 37.5515 251.622 34.5779 259.552C30.6131 270.125 53.0803 256.91 45.1507 251.622Z" fill="#DFDFDF"/>
<path d="M75.5476 239.728C73.3449 238.847 66.825 237.878 63.6532 246.336C59.6883 256.909 80.834 245.014 75.5476 239.728Z" fill="#DFDFDF"/>
<path d="M72.9044 218.582C70.7017 217.701 65.5034 215.411 62.3315 223.869C58.3667 234.442 78.1908 221.226 72.9044 218.582Z" fill="#DFDFDF"/>
<path d="M148.776 197.437C146.834 196.556 142.421 195.851 140.306 200.08C138.192 204.309 140.96 207.519 142.608 208.595C144.636 204.838 146.705 201.102 148.776 197.437Z" fill="#DFDFDF"/>
<path d="M150.879 181.577C147.355 180.696 140.042 180.785 138.985 188.186C137.663 197.437 157.487 184.221 150.879 181.577Z" fill="#DFDFDF"/>
<path d="M152.201 167.04C148.236 166.599 140.835 167.304 142.949 173.648C145.593 181.578 157.487 167.04 152.201 167.04Z" fill="#DFDFDF"/>
<path d="M168.555 164.397C168.744 164.098 168.931 163.803 169.116 163.512C165.467 162.742 159.29 163.373 163.775 172.051C165.456 169.322 167.059 166.758 168.555 164.397Z" fill="#DFDFDF"/>
<path d="M17.3971 75.849C20.9213 75.4085 27.4412 75.849 25.3267 81.1354C22.6835 87.7434 13.4323 75.849 17.3971 75.849Z" fill="#DFDFDF"/>
<path d="M21.3619 56.0253C28.4104 53.382 43.8291 59.9901 38.5427 67.9197C34.3929 74.1444 13.4322 58.6685 21.3619 56.0253Z" fill="#DFDFDF"/>
<path d="M35.8995 32.2364C42.948 29.5932 51.7587 36.2012 46.4723 44.1308C42.3225 50.3556 27.9699 34.8796 35.8995 32.2364Z" fill="#DFDFDF"/>
<path d="M58.3667 41.4876C65.4153 38.8444 80.834 45.4524 75.5476 53.382C71.3978 59.6068 50.4371 44.1308 58.3667 41.4876Z" fill="#DFDFDF"/>
<path d="M58.3667 15.0561C65.4153 12.4129 74.226 19.0209 68.9396 26.9505C64.7897 33.1752 50.4371 17.6993 58.3667 15.0561Z" fill="#DFDFDF"/>
<path d="M80.834 5.80435C84.3583 5.36382 90.8782 5.80435 88.7636 11.0908C86.1204 17.6988 76.8692 5.80435 80.834 5.80435Z" fill="#DFDFDF"/>
<path d="M113.569 24.786C109.419 31.0107 94.05 13.3258 101.98 10.6826C105.876 14.225 109.859 18.8593 113.569 24.786Z" fill="#DFDFDF"/>
<path d="M123.125 45.4537C121.8 41.4772 120.341 37.8197 118.786 34.4613C116.708 35.4818 113.081 38.5801 115.196 42.8092C117.31 47.0384 121.363 46.3343 123.125 45.4537Z" fill="#DFDFDF"/>
<path d="M99.3364 40.166C106.385 37.5228 116.517 46.774 111.231 54.7037C107.081 60.9284 91.4068 42.8092 99.3364 40.166Z" fill="#DFDFDF"/>
<path d="M83.4772 53.382C90.5257 50.7388 101.98 59.9901 96.6932 67.9197C92.5434 74.1444 75.5476 56.0253 83.4772 53.382Z" fill="#DFDFDF"/>
<path d="M78.1908 20.342C85.2393 17.6988 96.6932 26.95 91.4068 34.8796C87.257 41.1043 70.2612 22.9852 78.1908 20.342Z" fill="#DFDFDF"/>
<path d="M71.5828 71.8845C78.6313 69.2413 87.442 75.8493 82.1556 83.7789C78.0058 90.0036 63.6532 74.5277 71.5828 71.8845Z" fill="#DFDFDF"/>
<path d="M57.0451 79.8141C64.0937 77.1709 75.5476 86.4221 70.2612 94.3517C66.1113 100.576 49.1155 82.4573 57.0451 79.8141Z" fill="#DFDFDF"/>
<path d="M42.5075 73.2061C46.0318 72.7655 52.5517 73.2061 50.4371 78.4925C47.7939 85.1005 38.5427 73.2061 42.5075 73.2061Z" fill="#DFDFDF"/>
<path d="M51.7587 59.9901C55.283 59.5495 61.8029 59.9901 59.6883 65.2765C57.0451 71.8845 47.7939 59.9901 51.7587 59.9901Z" fill="#DFDFDF"/>
<path d="M84.7988 93.0301C88.3231 92.5896 94.843 93.0301 92.7284 98.3165C90.0852 104.925 80.834 93.0301 84.7988 93.0301Z" fill="#DFDFDF"/>
<path d="M98.0148 78.4925C103.301 75.8493 110.019 87.7437 101.98 87.7437C99.3364 87.7437 90.0852 81.1357 98.0148 78.4925Z" fill="#DFDFDF"/>
<path d="M109.909 66.5981C115.196 63.9549 121.804 70.5629 120.482 78.4925C119.252 85.8719 101.98 69.2413 109.909 66.5981Z" fill="#DFDFDF"/>
<path d="M134.711 73.2061C128.139 81.1357 116.517 62.6333 128.139 58.6685C130.121 63.4001 132.339 68.2799 134.711 73.2061Z" fill="#DFDFDF"/>
<path d="M148.928 100.36C142.356 108.29 129.743 90.3869 141.365 86.4221C143.836 91.1387 146.38 95.8145 148.928 100.36Z" fill="#DFDFDF"/>
<path d="M116.517 91.7085C121.804 89.0653 129.843 104.925 121.804 104.925C119.16 104.925 108.588 94.3517 116.517 91.7085Z" fill="#DFDFDF"/>
<path d="M133.698 106.246C136.341 105.365 145.702 115.497 137.663 115.497C135.02 115.497 125.768 108.889 133.698 106.246Z" fill="#DFDFDF"/>
<path d="M154.844 110.691C152.201 111.853 147.971 115.497 152.201 120.784C156.43 126.07 160.13 123.633 161.452 121.753C159.328 118.272 157.107 114.563 154.844 110.691Z" fill="#DFDFDF"/>
<path d="M160.13 131.357C153.786 130.299 153.963 135.186 154.844 137.762C158.042 138.173 161.179 138.606 164.229 139.052C165.48 136.768 166.257 132.378 160.13 131.357Z" fill="#DFDFDF"/>
<path d="M137.663 123.427C142.949 120.784 152.31 132.678 144.271 132.678C141.628 132.678 129.733 126.07 137.663 123.427Z" fill="#DFDFDF"/>
<path d="M119.16 114.176C124.447 114.176 131.82 123.427 124.447 123.427C121.804 123.427 110.802 114.176 119.16 114.176Z" fill="#DFDFDF"/>
<path d="M99.3364 103.603C102.861 103.162 109.381 103.603 107.266 108.889C104.623 115.497 95.3716 103.603 99.3364 103.603Z" fill="#DFDFDF"/>
</svg>
