<svg width="72" height="115" viewBox="0 0 72 115" fill="none" xmlns="http://www.w3.org/2000/svg">
<path d="M48.6936 101.823C43.1468 97.6328 31.8248 87.8799 30.9104 82.3938C29.9961 76.9078 42.3849 93.0611 48.6936 101.823C48.5019 99.2689 48.2512 96.5906 47.934 93.823C47.5535 90.5033 47.0775 87.0548 46.4933 83.5368C45.6843 78.6654 44.6678 73.6606 43.4102 68.6788C43.2177 67.9161 43.0195 67.154 42.8156 66.393C31.6087 62.5832 10.5665 54.0494 16.0525 50.3921C21.5385 46.7347 36.1804 59.5354 42.8156 66.393C40.333 57.1293 36.9953 48.029 32.5851 40.1058C25.5503 38.5819 11.2522 33.7055 10.3379 26.3908C9.42355 19.0761 24.7884 32.4863 32.5851 40.1058C31.6906 38.4989 30.752 36.9403 29.7675 35.4387C29.4777 33.1322 29.243 29.816 29.315 26.3908C24.8942 23.724 16.2811 16.7902 17.1954 10.3899C18.1097 3.98954 25.6561 18.3903 29.315 26.3908C29.243 29.816 29.4777 33.1322 29.7675 35.4387C30.752 36.9403 31.6906 38.4989 32.5851 40.1058C36.9953 48.029 40.333 57.1293 42.8156 66.393C43.0195 67.154 43.2177 67.9161 43.4102 68.6788C44.6678 73.6606 45.6843 78.6654 46.4933 83.5368C47.0775 87.0548 47.5535 90.5033 47.934 93.823C50.2599 79.3461 56.0547 51.535 60.6264 56.1067C65.198 60.6784 54.0696 83.1558 47.934 93.823C48.2512 96.5906 48.5019 99.2689 48.6936 101.823Z" fill="#547629"/>
<path d="M49.1972 114.396C49.1972 110.758 49.0443 106.498 48.6936 101.823M13.7666 19.5332C20.113 23.2182 25.3936 28.7672 29.7675 35.4387M48.6936 101.823C43.1468 97.6328 31.8248 87.8799 30.9104 82.3938C29.9961 76.9078 42.3849 93.0611 48.6936 101.823ZM48.6936 101.823C48.5019 99.2689 48.2512 96.5906 47.934 93.823M47.934 93.823C54.0696 83.1558 65.198 60.6784 60.6264 56.1067C56.0547 51.535 50.2599 79.3461 47.934 93.823ZM47.934 93.823C47.5535 90.5032 47.0775 87.0548 46.4933 83.5368M46.4933 83.5368C43.2039 79.3461 35.2535 72.3361 29.7675 73.2505M46.4933 83.5368C45.6843 78.6654 44.6678 73.6606 43.4102 68.6788M42.8156 66.393C36.1804 59.5354 21.5385 46.7347 16.0525 50.3921C10.5665 54.0494 31.6087 62.5832 42.8156 66.393ZM42.8156 66.393C43.0195 67.154 43.2177 67.9161 43.4102 68.6788M42.8156 66.393C40.333 57.1293 36.9953 48.029 32.5851 40.1058M43.4102 68.6788C45.7202 57.2496 51.9402 34.3912 58.3405 34.3912M29.7675 35.4387C30.752 36.9403 31.6906 38.4989 32.5851 40.1058M29.7675 35.4387C29.4777 33.1322 29.243 29.816 29.315 26.3908M33.1963 12.6757C30.3636 14.9419 29.4323 20.8111 29.315 26.3908M32.5851 40.1058C25.5503 38.5819 11.2522 33.7055 10.3379 26.3908C9.42355 19.0761 24.7884 32.4863 32.5851 40.1058ZM29.315 26.3908C24.8942 23.724 16.2811 16.7902 17.1954 10.3899C18.1097 3.98954 25.6561 18.3903 29.315 26.3908Z" stroke="#547629" stroke-width="0.502892"/>
<path d="M36.2956 47.4443C36.2956 39.0629 37.9988 21.363 43.4848 19.5343C48.9708 17.7056 40.8673 37.539 36.2956 47.4443Z" fill="#547629"/>
<path d="M47.7872 51.5356C46.6443 44.6781 45.542 28.2206 49.1994 26.3919C52.8567 24.5632 49.6921 43.1542 47.7872 51.5356Z" fill="#547629"/>
<path d="M43.3305 68.3443C45.9973 62.2487 54.7956 42.141 58.4529 42.141C62.1102 42.141 49.0451 62.2487 43.3305 68.3443Z" fill="#547629"/>
<path d="M42.5908 65.8262C38.0191 60.1114 23.3694 38.2773 16.0547 40.1064M43.3305 68.3443C45.9973 62.2487 54.7956 42.141 58.4529 42.141C62.1103 42.141 49.0451 62.2487 43.3305 68.3443ZM47.7872 51.5356C46.6443 44.6781 45.542 28.2206 49.1994 26.3919C52.8567 24.5632 49.6921 43.1542 47.7872 51.5356ZM36.2956 47.4443C36.2956 39.0629 37.9988 21.363 43.4848 19.5343C48.9708 17.7056 40.8673 37.539 36.2956 47.4443Z" stroke="#547629" stroke-width="0.502892"/>
<path d="M30.8952 0.959108C29.0239 3.6732 29.9488 12.7559 30.6452 16.958C37.5554 13.6372 44.555 4.60149 42.2873 3.42298C40.762 2.6303 36.9041 6.32611 35.7142 7.52316C35.5952 7.65148 35.4766 7.77313 35.3592 7.88693C35.3592 7.88693 35.4888 7.74985 35.7142 7.52316C37.5544 5.53736 39.4559 1.95163 37.7519 1.06628C35.9377 0.123727 35.0556 2.92934 34.27 4.44104C33.9248 2.14952 32.7665 -1.75499 30.8952 0.959108Z" fill="#3D3D3D"/>
<path d="M1.68146 17.1453C3.79263 19.6773 12.7897 21.228 17.0243 21.6868C15.6832 14.1382 8.86165 4.96741 7.11694 6.83485C5.94342 8.09093 8.46616 12.8003 9.29928 14.2682C9.39092 14.4173 9.47619 14.5642 9.55424 14.7079C9.55424 14.7079 9.45706 14.5462 9.29928 14.2682C7.88124 11.9619 4.93864 9.16648 3.62782 10.5698C2.2323 12.0638 4.69753 13.6676 5.94239 14.8308C3.64243 14.5473 -0.429707 14.6133 1.68146 17.1453Z" fill="#3D3D3D"/>
<path d="M4.95454 46.3688C8.15801 47.1472 16.3112 43.039 19.9873 40.8876C14.4172 35.6194 3.47733 32.3092 3.1866 34.8482C2.99105 36.556 7.8211 38.8393 9.36421 39.5231C9.52654 39.5884 9.68255 39.6557 9.83079 39.7248C9.83079 39.7248 9.65644 39.6526 9.36421 39.5231C6.85208 38.5136 2.82368 38.0184 2.60543 39.9262C2.37308 41.9574 5.30869 41.7791 7.00129 41.973C4.98426 43.1139 1.75106 45.5904 4.95454 46.3688Z" fill="#3D3D3D"/>
<path d="M16.9192 76.4877C19.9562 77.7701 28.663 75.0236 32.6368 73.49C27.9843 67.3962 17.7175 62.3732 17.0231 64.8327C16.556 66.487 20.957 69.5158 22.3704 70.4384C22.5201 70.5288 22.6633 70.6204 22.7985 70.7123C22.7985 70.7123 22.638 70.6131 22.3704 70.4384C20.0528 69.0388 16.1561 67.9035 15.6345 69.7516C15.0792 71.7191 18.0054 72.0143 19.6449 72.4773C17.4709 73.2797 13.8822 75.2053 16.9192 76.4877Z" fill="#3D3D3D"/>
<path d="M71.0343 35.828C68.3327 37.7174 59.244 36.8531 55.0374 36.1848C58.3121 29.2525 67.3008 22.1928 68.4945 24.4526C69.2973 25.9726 65.6273 29.8551 64.4382 31.053C64.3107 31.1727 64.1898 31.2922 64.0768 31.4104C64.0768 31.4104 64.213 31.2798 64.4382 31.053C66.4117 29.1995 69.9847 27.2741 70.8814 28.9722C71.836 30.78 69.0363 31.6808 67.5299 32.4766C69.8237 32.8065 73.7358 33.9386 71.0343 35.828Z" fill="#3D3D3D"/>
</svg>
