<svg width="392" height="741" viewBox="0 0 392 741" fill="none" xmlns="http://www.w3.org/2000/svg">
<path d="M9.69549 2.894C7.97864 0.40272 6.11871 1.85596 5.40335 2.894C3.68649 5.38527 0.611478 7.07573 2.26875 8.61481C4.41482 10.6078 3.16294 13.1744 2.26875 14.0048M9.69549 2.89793C10.4109 3.93596 12.2708 5.3892 13.9876 2.89793C14.703 1.85989 16.5629 0.406651 18.2798 2.89793M18.2798 2.90184C18.9952 3.93988 20.8551 5.39312 22.5719 2.90184C23.2873 1.86381 25.1472 0.410569 26.8641 2.90184M26.8641 2.90577C27.5795 3.94381 29.4394 5.39705 31.1562 2.90577C31.8716 1.86774 33.7315 0.414499 35.4484 2.90577M35.4484 2.9097C36.1637 3.94774 38.0237 5.40098 39.7405 2.9097C40.4559 1.87167 42.3158 0.418429 44.0327 2.9097M44.0327 2.91362C44.748 3.95165 46.608 5.4049 48.3248 2.91362C49.0402 1.87559 50.9001 0.422347 52.617 2.91362M52.617 2.91755C53.3323 3.95558 55.1923 5.40883 56.9091 2.91755C57.6245 1.87952 59.4844 0.426277 61.2013 2.91755M61.2013 2.92147C61.9166 3.9595 63.7765 5.41275 65.4934 2.92147C66.2087 1.88344 68.0687 0.430196 69.7855 2.92147M69.7855 2.9254C70.5009 3.96343 72.3608 5.41668 74.0777 2.9254M74.0777 2.95987C74.793 1.92184 76.653 0.468596 78.3698 2.95987M78.3698 2.9638C79.0852 4.00183 80.9451 5.45508 82.662 2.9638C83.3774 1.92577 85.2373 0.472526 86.9542 2.9638M86.9542 2.96772C87.6695 4.00575 89.5295 5.45899 91.2463 2.96772C91.9617 1.92969 93.8216 0.476444 95.5385 2.96772M95.5385 2.97165C96.2538 4.00968 98.1137 5.46292 99.8306 2.97165C100.546 1.93362 102.406 0.480374 104.123 2.97165M104.123 2.97558C104.838 4.01361 106.698 5.46685 108.415 2.97558C109.13 1.93755 110.99 0.484304 112.707 2.97558M112.707 2.9795C113.422 4.01753 115.282 5.47077 116.999 2.9795C117.715 1.94147 119.574 0.488222 121.291 2.9795M121.291 2.98343C122.007 4.02146 123.867 5.4747 125.583 2.98343C126.299 1.9454 128.159 0.492152 129.876 2.98343M129.876 2.98735C130.591 4.02538 132.451 5.47862 134.168 2.98735C134.883 1.94931 136.743 0.496071 138.46 2.98735M138.46 2.99128C139.175 4.02931 141.035 5.48255 142.752 2.99128M142.752 2.87556C143.467 1.83753 145.327 0.384287 147.044 2.87556M147.044 2.87948C147.76 3.91751 149.619 5.37076 151.336 2.87948C152.052 1.84145 153.912 0.388205 155.628 2.87948M155.628 2.88341C156.344 3.92144 158.204 5.37469 159.921 2.88341C160.636 1.84538 162.496 0.392135 164.213 2.88341M164.213 2.88733C164.928 3.92536 166.788 5.3786 168.505 2.88733C169.22 1.8493 171.08 0.396053 172.797 2.88733M172.797 2.89126C173.512 3.92929 175.372 5.38253 177.089 2.89126C177.805 1.85323 179.664 0.399983 181.381 2.89126M181.381 2.89519C182.097 3.93322 183.957 5.38646 185.673 2.89519C186.389 1.85716 188.249 0.403914 189.966 2.89519M189.966 2.89911C190.681 3.93714 192.541 5.39038 194.258 2.89911C194.973 1.86108 196.833 0.407832 198.55 2.89911M198.55 2.90304C199.265 3.94107 201.125 5.39431 202.842 2.90304C203.557 1.86501 205.417 0.411762 207.134 2.90304M207.134 2.90696C207.85 3.94499 209.709 5.39823 211.426 2.90696M211.426 2.94144C212.142 1.90341 214.002 0.450162 215.718 2.94144M215.718 2.94536C216.434 3.98339 218.294 5.43663 220.011 2.94536C220.726 1.90732 222.586 0.45408 224.303 2.94536M224.303 2.94929C225.018 3.98732 226.878 5.44056 228.595 2.94929C229.31 1.91125 231.17 0.45801 232.887 2.94929M232.887 2.9532C233.602 3.99124 235.462 5.44448 237.179 2.9532C237.895 1.91517 239.754 0.461929 241.471 2.9532M241.471 2.95713C242.187 3.99517 244.047 5.44841 245.763 2.95713C246.479 1.9191 248.339 0.465858 250.056 2.95713M250.056 2.96106C250.771 3.9991 252.631 5.45234 254.348 2.96106C255.063 1.92303 256.923 0.469789 258.64 2.96106M258.64 2.96498C259.355 4.00301 261.215 5.45626 262.932 2.96498C263.647 1.92695 265.507 0.473707 267.224 2.96498M267.224 2.96891C267.94 4.00694 269.799 5.46019 271.516 2.96891C272.232 1.93088 274.092 0.477637 275.808 2.96891M275.808 2.97283C276.524 4.01086 278.384 5.46411 280.101 2.97283M280.101 3.09115C280.816 2.05312 282.676 0.599879 284.393 3.09115M284.393 3.09507C285.108 4.1331 286.968 5.58635 288.685 3.09507C289.4 2.05704 291.26 0.603797 292.977 3.09507M292.977 3.099C293.692 4.13703 295.552 5.59028 297.269 3.099C297.985 2.06097 299.844 0.607727 301.561 3.099M301.561 3.10292C302.277 4.14095 304.137 5.5942 305.854 3.10292C306.569 2.06489 308.429 0.611646 310.146 3.10292M310.146 3.10685C310.861 4.14488 312.721 5.59813 314.438 3.10685C315.153 2.06882 317.013 0.615576 318.73 3.10685M318.73 3.11077C319.445 4.1488 321.305 5.60204 323.022 3.11077C323.737 2.07274 325.597 0.619494 327.314 3.11077M327.314 3.1147C328.03 4.15273 329.889 5.60597 331.606 3.1147C332.322 2.07667 334.182 0.623424 335.899 3.1147M335.899 3.11862C336.614 4.15665 338.474 5.60989 340.191 3.11862C340.906 2.08059 342.766 0.627342 344.483 3.11862M344.483 3.12255C345.198 4.16058 347.058 5.61382 348.775 3.12255M348.775 3.15703C349.49 2.119 351.35 0.665754 353.067 3.15703M353.067 3.16095C353.782 4.19898 355.642 5.65222 357.359 3.16095C358.075 2.12292 359.934 0.669672 361.651 3.16095M361.651 3.16488C362.367 4.20291 364.227 5.65615 365.943 3.16488C366.659 2.12685 368.519 0.673602 370.236 3.16488M370.236 3.1688C370.951 4.20683 372.811 5.66007 374.528 3.1688C375.243 2.13076 377.103 0.677521 378.82 3.1688M378.82 3.17273C379.535 4.21076 381.395 5.664 383.112 3.17273M389.725 203.784C388.831 202.954 387.579 200.795 389.725 198.802C390.62 197.971 391.872 195.812 389.725 193.819M389.722 193.819C388.828 192.989 387.576 190.83 389.722 188.837C390.616 188.006 391.868 185.847 389.722 183.854M389.719 183.854C388.825 183.024 387.573 180.865 389.719 178.872C390.613 178.041 391.865 175.882 389.719 173.889M389.715 173.889C388.821 173.059 387.569 170.9 389.715 168.906M389.815 168.906C390.709 168.076 391.961 165.917 389.815 163.924M389.812 163.924C388.917 163.094 387.666 160.934 389.812 158.941C390.706 158.111 391.958 155.952 389.812 153.959M389.808 153.959C388.914 153.128 387.662 150.969 389.808 148.976C390.702 148.146 391.954 145.987 389.808 143.994M389.805 143.994C388.911 143.163 387.659 141.004 389.805 139.011C390.699 138.181 391.951 136.022 389.805 134.029M389.801 134.029C388.907 133.198 387.655 131.039 389.801 129.046C390.696 128.216 391.948 126.057 389.801 124.064M389.798 124.064C388.904 123.233 387.652 121.074 389.798 119.081C390.692 118.251 391.944 116.091 389.798 114.098M389.795 114.098C388.901 113.268 387.649 111.109 389.795 109.116C390.689 108.285 391.941 106.126 389.795 104.133M389.791 104.133C388.897 103.303 387.645 101.144 389.791 99.1508C390.686 98.3204 391.937 96.1613 389.791 94.1683M389.788 94.1683C388.894 93.3379 387.642 91.1788 389.788 89.1857M389.758 89.1857C390.652 88.3553 391.904 86.1962 389.758 84.2032M389.755 84.2032C388.861 83.3728 387.609 81.2136 389.755 79.2206C390.649 78.3902 391.901 76.2311 389.755 74.2381M389.752 74.2381C388.857 73.4076 387.605 71.2485 389.752 69.2555C390.646 68.4251 391.898 66.266 389.752 64.273M389.748 64.273C388.854 63.4425 387.602 61.2834 389.748 59.2904C390.642 58.46 391.894 56.3009 389.748 54.3079M389.745 54.3079C388.851 53.4774 387.599 51.3183 389.745 49.3253C390.639 48.4949 391.891 46.3358 389.745 44.3428M389.741 44.3428C388.847 43.5123 387.595 41.3532 389.741 39.3602C390.636 38.5298 391.887 36.3707 389.741 34.3777M389.738 34.3777C388.844 33.5472 387.592 31.3881 389.738 29.3951C390.632 28.5647 391.884 26.4056 389.738 24.4126M389.735 24.4126C388.84 23.5821 387.589 21.423 389.735 19.43C390.629 18.5996 391.881 16.4405 389.735 14.4474M389.731 14.4474C388.837 13.617 387.585 11.4579 389.731 9.46489C391.389 7.92581 388.791 5.81781 387.074 3.32654C385.357 0.835261 383.827 2.15266 383.112 3.19069M389.636 313.401C388.742 312.57 387.49 310.411 389.636 308.418C390.53 307.588 391.782 305.429 389.636 303.436M389.633 303.436C388.738 302.605 387.486 300.446 389.633 298.453C390.527 297.622 391.779 295.463 389.633 293.47M389.629 293.47C388.735 292.64 387.483 290.481 389.629 288.488C390.523 287.657 391.775 285.498 389.629 283.505M389.626 283.505C388.732 282.675 387.48 280.516 389.626 278.523M389.725 278.523C390.62 277.692 391.872 275.533 389.725 273.54M389.722 273.54C388.828 272.71 387.576 270.551 389.722 268.558C390.616 267.727 391.868 265.568 389.722 263.575M389.719 263.575C388.825 262.745 387.573 260.586 389.719 258.592C390.613 257.762 391.865 255.603 389.719 253.61M389.715 253.61C388.821 252.78 387.569 250.62 389.715 248.627C390.61 247.797 391.861 245.638 389.715 243.645M389.712 243.645C388.818 242.814 387.566 240.655 389.712 238.662C390.606 237.832 391.858 235.673 389.712 233.68M389.709 233.68C388.814 232.849 387.563 230.69 389.709 228.697C390.603 227.867 391.855 225.708 389.709 223.715M389.705 223.715C388.811 222.884 387.559 220.725 389.705 218.732C390.599 217.902 391.851 215.743 389.705 213.75M389.702 213.75C388.808 212.919 387.556 210.76 389.702 208.767C390.596 207.937 391.848 205.777 389.702 203.784M389.546 472.842C388.652 472.012 387.4 469.853 389.546 467.86C390.441 467.029 391.692 464.87 389.546 462.877M389.543 462.877C388.649 462.047 387.397 459.888 389.543 457.895C390.437 457.064 391.689 454.905 389.543 452.912M389.54 452.912C388.645 452.082 387.394 449.922 389.54 447.929C390.434 447.099 391.686 444.94 389.54 442.947M389.536 442.947C388.642 442.116 387.39 439.957 389.536 437.964M389.636 437.964C390.53 437.134 391.782 434.975 389.636 432.982M389.633 432.982C388.738 432.151 387.486 429.992 389.633 427.999C390.527 427.169 391.779 425.01 389.633 423.017M389.629 423.017C388.735 422.186 387.483 420.027 389.629 418.034C390.523 417.204 391.775 415.045 389.629 413.052M389.626 413.052C388.732 412.221 387.48 410.062 389.626 408.069C390.52 407.239 391.772 405.08 389.626 403.087M389.622 403.087C388.728 402.256 387.476 400.097 389.622 398.104C390.517 397.274 391.768 395.114 389.622 393.121M389.619 393.121C388.725 392.291 387.473 390.132 389.619 388.139C390.513 387.308 391.765 385.149 389.619 383.156M389.616 383.156C388.721 382.326 387.47 380.167 389.616 378.174C390.51 377.343 391.762 375.184 389.616 373.191M389.612 373.191C388.718 372.361 387.466 370.202 389.612 368.209C390.506 367.378 391.758 365.219 389.612 363.226M389.609 363.226C388.715 362.396 387.463 360.237 389.609 358.244M389.579 358.244C390.473 357.413 391.725 355.254 389.579 353.261M389.576 353.261C388.682 352.431 387.43 350.272 389.576 348.278C390.47 347.448 391.722 345.289 389.576 343.296M389.572 343.296C388.678 342.466 387.426 340.306 389.572 338.313C390.467 337.483 391.718 335.324 389.572 333.331M389.569 333.331C388.675 332.5 387.423 330.341 389.569 328.348C390.463 327.518 391.715 325.359 389.569 323.366M389.566 323.366C388.671 322.535 387.42 320.376 389.566 318.383C390.46 317.553 391.712 315.394 389.566 313.401M389.457 582.458C388.563 581.628 387.311 579.469 389.457 577.476C390.351 576.646 391.603 574.486 389.457 572.493M389.453 572.493C388.559 571.663 387.307 569.504 389.453 567.511C390.348 566.68 391.6 564.521 389.453 562.528M389.45 562.528C388.556 561.698 387.304 559.539 389.45 557.546C390.344 556.715 391.596 554.556 389.45 552.563M389.447 552.563C388.552 551.733 387.301 549.574 389.447 547.581M389.546 547.581C390.441 546.75 391.692 544.591 389.546 542.598M389.543 542.598C388.649 541.768 387.397 539.608 389.543 537.615C390.437 536.785 391.689 534.626 389.543 532.633M389.54 532.633C388.645 531.802 387.394 529.643 389.54 527.65C390.434 526.82 391.686 524.661 389.54 522.668M389.536 522.668C388.642 521.837 387.39 519.678 389.536 517.685C390.43 516.855 391.682 514.696 389.536 512.703M389.533 512.703C388.639 511.872 387.387 509.713 389.533 507.72C390.427 506.89 391.679 504.731 389.533 502.738M389.529 502.738C388.635 501.907 387.383 499.748 389.529 497.755C390.424 496.925 391.676 494.765 389.529 492.772M389.526 492.772C388.632 491.942 387.38 489.783 389.526 487.79C390.42 486.96 391.672 484.8 389.526 482.807M389.523 482.807C388.629 481.977 387.377 479.818 389.523 477.825C390.417 476.994 391.669 474.835 389.523 472.842M389.367 662.179C391.513 664.172 390.261 666.332 389.367 667.162C387.221 669.155 388.473 671.314 389.367 672.144C391.513 674.138 390.261 676.297 389.367 677.127M389.364 662.179C388.47 661.349 387.218 659.19 389.364 657.197C390.258 656.366 391.51 654.207 389.364 652.214M389.361 652.214C388.466 651.384 387.214 649.225 389.361 647.232C390.255 646.401 391.507 644.242 389.361 642.249M389.357 642.249C388.463 641.419 387.211 639.26 389.357 637.267M389.457 637.267C390.351 636.436 391.603 634.277 389.457 632.284M389.453 632.284C388.559 631.454 387.307 629.294 389.453 627.301C390.348 626.471 391.6 624.312 389.453 622.319M389.45 622.319C388.556 621.488 387.304 619.329 389.45 617.336C390.344 616.506 391.596 614.347 389.45 612.354M389.447 612.354C388.552 611.523 387.301 609.364 389.447 607.371C390.341 606.541 391.593 604.382 389.447 602.389M389.443 602.389C388.549 601.558 387.297 599.399 389.443 597.406C390.337 596.576 391.589 594.417 389.443 592.424M389.44 592.424C388.546 591.593 387.294 589.434 389.44 587.441C390.334 586.611 391.586 584.452 389.44 582.458M389.278 702.04C391.424 704.033 390.172 706.192 389.278 707.022C387.132 709.015 388.384 711.175 389.278 712.005C390.172 712.835 391.424 714.995 389.278 716.988M389.274 702.04C388.38 701.209 387.128 699.05 389.274 697.057C390.169 696.227 391.42 694.068 389.274 692.075M389.271 692.075C388.377 691.244 387.125 689.085 389.271 687.092C390.165 686.262 391.417 684.103 389.271 682.11M389.268 682.11C388.373 681.279 387.122 679.12 389.268 677.127M378.36 738.227C379.075 737.189 380.935 735.736 382.652 738.227M389.274 716.988C388.38 717.818 387.128 719.977 389.274 721.97C390.169 722.801 391.42 724.96 389.274 726.953M389.271 726.953C388.377 727.783 387.125 729.942 389.271 731.935C390.928 733.474 388.331 735.582 386.614 738.074C384.897 740.565 383.367 739.247 382.652 738.209M9.34745 737.799C10.0628 736.761 11.9227 735.308 13.6396 737.799M13.6396 737.803C14.355 738.841 16.2149 740.294 17.9318 737.803C18.6471 736.765 20.507 735.311 22.2239 737.803M22.2239 737.807C22.9393 738.845 24.7992 740.298 26.5161 737.807C27.2314 736.769 29.0913 735.315 30.8082 737.807M30.8082 737.811C31.5236 738.849 33.3835 740.302 35.1003 737.811C35.8157 736.773 37.6756 735.319 39.3925 737.811M39.3925 737.815C40.1078 738.853 41.9678 740.306 43.6846 737.815C44.4 736.776 46.2599 735.323 47.9768 737.815M47.9768 737.818C48.6921 738.856 50.5521 740.31 52.2689 737.818C52.9843 736.78 54.8442 735.327 56.5611 737.818M56.5611 737.822C57.2764 738.86 59.1364 740.314 60.8532 737.822C61.5686 736.784 63.4285 735.331 65.1454 737.822M65.1454 737.826C65.8607 738.864 67.7206 740.318 69.4375 737.826C70.1529 736.788 72.0128 735.335 73.7296 737.826M73.7296 737.83C74.445 738.868 76.3049 740.321 78.0218 737.83M78.0218 737.865C78.7371 736.827 80.5971 735.373 82.314 737.865M82.314 737.869C83.0293 738.907 84.8893 740.36 86.6061 737.869C87.3215 736.831 89.1814 735.377 90.8983 737.869M90.8983 737.873C91.6136 738.911 93.4736 740.364 95.1904 737.873C95.9058 736.834 97.7657 735.381 99.4826 737.873M99.4826 737.876C100.198 738.914 102.058 740.368 103.775 737.876C104.49 736.838 106.35 735.385 108.067 737.876M108.067 737.88C108.782 738.918 110.642 740.372 112.359 737.88C113.074 736.842 114.934 735.389 116.651 737.88M116.651 737.884C117.366 738.922 119.226 740.376 120.943 737.884C121.659 736.846 123.519 735.393 125.235 737.884M125.235 737.888C125.951 738.926 127.811 740.38 129.528 737.888C130.243 736.85 132.103 735.397 133.82 737.888M133.82 737.892C134.535 738.93 136.395 740.383 138.112 737.892C138.827 736.854 140.687 735.401 142.404 737.892M142.404 737.896C143.119 738.934 144.979 740.387 146.696 737.896M146.696 737.78C147.412 736.742 149.271 735.289 150.988 737.78M150.988 737.784C151.704 738.822 153.564 740.276 155.28 737.784C155.996 736.746 157.856 735.293 159.573 737.784M159.573 737.788C160.288 738.826 162.148 740.279 163.865 737.788C164.58 736.75 166.44 735.297 168.157 737.788M168.157 737.792C168.872 738.83 170.732 740.283 172.449 737.792C173.164 736.754 175.024 735.301 176.741 737.792M176.741 737.796C177.456 738.834 179.316 740.287 181.033 737.796C181.749 736.758 183.609 735.305 185.325 737.796M185.325 737.8C186.041 738.838 187.901 740.291 189.618 737.8C190.333 736.762 192.193 735.309 193.91 737.8M193.91 737.804C194.625 738.842 196.485 740.295 198.202 737.804C198.917 736.766 200.777 735.313 202.494 737.804M202.494 737.808C203.209 738.846 205.069 740.299 206.786 737.808C207.502 736.77 209.361 735.317 211.078 737.808M211.078 737.812C211.794 738.85 213.654 740.303 215.37 737.812M215.37 737.846C216.086 736.808 217.946 735.355 219.663 737.846M219.663 737.85C220.378 738.888 222.238 740.341 223.955 737.85C224.67 736.812 226.53 735.359 228.247 737.85M228.247 737.854C228.962 738.892 230.822 740.345 232.539 737.854C233.254 736.816 235.114 735.363 236.831 737.854M236.831 737.858C237.547 738.896 239.406 740.349 241.123 737.858C241.839 736.82 243.699 735.367 245.415 737.858M245.415 737.862C246.131 738.9 247.991 740.353 249.708 737.862C250.423 736.824 252.283 735.371 254 737.862M254 737.866C254.715 738.904 256.575 740.357 258.292 737.866C259.007 736.828 260.867 735.375 262.584 737.866M262.584 737.87C263.299 738.908 265.159 740.361 266.876 737.87C267.592 736.832 269.451 735.379 271.168 737.87M271.168 737.874C271.884 738.912 273.744 740.365 275.46 737.874C276.176 736.836 278.036 735.382 279.753 737.874M279.753 737.878C280.468 738.916 282.328 740.369 284.045 737.878M284.045 737.996C284.76 736.958 286.62 735.505 288.337 737.996M288.337 738C289.052 739.038 290.912 740.491 292.629 738C293.344 736.962 295.204 735.509 296.921 738M296.921 738.004C297.637 739.042 299.496 740.495 301.213 738.004C301.929 736.966 303.789 735.512 305.505 738.004M305.505 738.008C306.221 739.046 308.081 740.499 309.798 738.008C310.513 736.97 312.373 735.516 314.09 738.008M314.09 738.012C314.805 739.05 316.665 740.503 318.382 738.012C319.097 736.974 320.957 735.52 322.674 738.012M322.674 738.016C323.389 739.054 325.249 740.507 326.966 738.016C327.682 736.978 329.541 735.524 331.258 738.016M331.258 738.019C331.974 739.057 333.834 740.511 335.551 738.019C336.266 736.981 338.126 735.528 339.843 738.019M339.843 738.023C340.558 739.061 342.418 740.515 344.135 738.023C344.85 736.985 346.71 735.532 348.427 738.023M348.427 738.027C349.142 739.065 351.002 740.519 352.719 738.027M352.719 738.062C353.434 737.024 355.294 735.571 357.011 738.062M357.011 738.066C357.726 739.104 359.586 740.557 361.303 738.066C362.019 737.028 363.879 735.574 365.595 738.066M365.595 738.07C366.311 739.108 368.171 740.561 369.888 738.07C370.603 737.032 372.463 735.578 374.18 738.07M374.18 738.074C374.895 739.112 376.755 740.565 378.472 738.074M2.27451 203.342C3.16871 202.511 4.42058 200.352 2.27451 198.359C1.38031 197.529 0.128439 195.37 2.27451 193.377M2.27786 193.377C3.17205 192.546 4.42393 190.387 2.27786 188.394C1.38366 187.564 0.131784 185.405 2.27786 183.411M2.28124 183.411C3.17544 182.581 4.42731 180.422 2.28124 178.429C1.38705 177.599 0.13517 175.439 2.28124 173.446M2.28463 173.446C3.17882 172.616 4.4307 170.457 2.28463 168.464M2.18496 168.464C1.29076 167.633 0.0388851 165.474 2.18496 163.481M2.18834 163.481C3.08254 162.651 4.33442 160.492 2.18834 158.499C1.29415 157.668 0.0422706 155.509 2.18834 153.516M2.19173 153.516C3.08592 152.686 4.3378 150.527 2.19173 148.534C1.29753 147.703 0.0456561 145.544 2.19173 143.551M2.19511 143.551C3.08931 142.721 4.34119 140.562 2.19511 138.569C1.30092 137.738 0.0490415 135.579 2.19511 133.586M2.1985 133.586C3.0927 132.756 4.34457 130.596 2.1985 128.603C1.3043 127.773 0.052427 125.614 2.1985 123.621M2.20184 123.621C3.09604 122.79 4.34792 120.631 2.20184 118.638C1.30765 117.808 0.0557722 115.649 2.20184 113.656M2.20523 113.656C3.09943 112.825 4.3513 110.666 2.20523 108.673C1.31103 107.843 0.0591577 105.684 2.20523 103.691M2.20862 103.691C3.10281 102.86 4.35469 100.701 2.20862 98.7081C1.31442 97.8777 0.0625432 95.7186 2.20862 93.7256M2.212 93.7256C3.1062 92.8952 4.35807 90.736 2.212 88.743M2.2417 88.743C1.34751 87.9126 0.0956322 85.7535 2.2417 83.7605M2.24509 83.7605C3.13929 82.93 4.39116 80.7709 2.24509 78.7779C1.35089 77.9475 0.0990176 75.7884 2.24509 73.7954M2.24848 73.7954C3.14267 72.965 4.39455 70.8058 2.24848 68.8128C1.35428 67.9824 0.102403 65.8233 2.24848 63.8303M2.25186 63.8303C3.14606 62.9998 4.39793 60.8407 2.25186 58.8477C1.35766 58.0173 0.105789 55.8582 2.25186 53.8652M2.25525 53.8652C3.14944 53.0347 4.40132 50.8756 2.25525 48.8826C1.36105 48.0522 0.109174 45.8931 2.25525 43.9001M2.25859 43.9001C3.15279 43.0696 4.40466 40.9105 2.25859 38.9175C1.3644 38.0871 0.112519 35.928 2.25859 33.935M2.26198 33.935C3.15617 33.1045 4.40805 30.9454 2.26198 28.9524C1.36778 28.122 0.115905 25.9629 2.26198 23.9699M2.26536 23.9699C3.15956 23.1394 4.41143 20.9804 2.26536 18.9874C1.37117 18.1569 0.11929 15.9978 2.26536 14.0048M2.36407 312.958C3.25826 312.128 4.51014 309.968 2.36407 307.975C1.46987 307.145 0.217993 304.986 2.36407 302.993M2.36741 302.993C3.26161 302.162 4.51348 300.003 2.36741 298.01C1.47321 297.18 0.221338 295.021 2.36741 293.028M2.3708 293.028C3.26499 292.197 4.51687 290.038 2.3708 288.045C1.4766 287.215 0.224724 285.056 2.3708 283.063M2.37418 283.063C3.26838 282.232 4.52025 280.073 2.37418 278.08M2.27451 278.08C1.38031 277.25 0.128439 275.091 2.27451 273.097M2.2779 273.097C3.17209 272.267 4.42397 270.108 2.2779 268.115C1.3837 267.285 0.131825 265.125 2.2779 263.132M2.28128 263.132C3.17548 262.302 4.42735 260.143 2.28128 258.15C1.38709 257.319 0.13521 255.16 2.28128 253.167M2.28467 253.167C3.17886 252.337 4.43074 250.178 2.28467 248.185C1.39047 247.354 0.138596 245.195 2.28467 243.202M2.28805 243.202C3.18225 242.372 4.43413 240.213 2.28805 238.22C1.39386 237.389 0.141981 235.23 2.28805 233.237M2.2914 233.237C3.18559 232.407 4.43747 230.248 2.2914 228.255C1.3972 227.424 0.145326 225.265 2.2914 223.272M2.29478 223.272C3.18898 222.442 4.44086 220.282 2.29478 218.289C1.40059 217.459 0.148712 215.3 2.29478 213.307M2.29817 213.307C3.19237 212.476 4.44424 210.317 2.29817 208.324C1.40397 207.494 0.152097 205.335 2.29817 203.342M2.45362 472.4C3.34782 471.569 4.59969 469.41 2.45362 467.417C1.55942 466.587 0.307547 464.428 2.45362 462.434M2.45696 462.434C3.35116 461.604 4.60304 459.445 2.45696 457.452C1.56277 456.622 0.310892 454.462 2.45696 452.469M2.46035 452.469C3.35455 451.639 4.60642 449.48 2.46035 447.487C1.56615 446.656 0.314278 444.497 2.46035 442.504M2.46374 442.504C3.35793 441.674 4.60981 439.515 2.46374 437.522M2.36407 437.522C1.46987 436.691 0.217993 434.532 2.36407 432.539M2.36745 432.539C3.26165 431.709 4.51352 429.55 2.36745 427.557C1.47325 426.726 0.221379 424.567 2.36745 422.574M2.37084 422.574C3.26503 421.744 4.51691 419.584 2.37084 417.591C1.47664 416.761 0.224764 414.602 2.37084 412.609M2.37422 412.609C3.26842 411.779 4.52029 409.619 2.37422 407.626C1.48003 406.796 0.22815 404.637 2.37422 402.644M2.37761 402.644C3.2718 401.813 4.52368 399.654 2.37761 397.661C1.48341 396.831 0.231535 394.672 2.37761 392.679M2.38095 392.679C3.27515 391.848 4.52702 389.689 2.38095 387.696C1.48676 386.866 0.23488 384.707 2.38095 382.714M2.38434 382.714C3.27853 381.883 4.53041 379.724 2.38434 377.731C1.49014 376.901 0.238266 374.742 2.38434 372.749M2.38772 372.749C3.28192 371.918 4.5338 369.759 2.38772 367.766C1.49353 366.936 0.241651 364.777 2.38772 362.784M2.39111 362.784C3.28531 361.953 4.53718 359.794 2.39111 357.801M2.42081 357.801C1.52662 356.97 0.27474 354.811 2.42081 352.818M2.4242 352.818C3.31839 351.988 4.57027 349.829 2.4242 347.836C1.53 347.005 0.278126 344.846 2.4242 342.853M2.42758 342.853C3.32178 342.023 4.57366 339.864 2.42758 337.871C1.53339 337.04 0.281511 334.881 2.42758 332.888M2.43097 332.888C3.32517 332.058 4.57704 329.899 2.43097 327.906C1.53677 327.075 0.284897 324.916 2.43097 322.923M2.43435 322.923C3.32855 322.093 4.58043 319.934 2.43435 317.941C1.54016 317.11 0.288282 314.951 2.43435 312.958M2.54317 582.016C3.43737 581.185 4.68925 579.026 2.54317 577.033C1.64898 576.203 0.397101 574.044 2.54317 572.051M2.54652 572.051C3.44072 571.22 4.69259 569.061 2.54652 567.068C1.65232 566.238 0.400447 564.079 2.54652 562.086M2.5499 562.086C3.4441 561.255 4.69598 559.096 2.5499 557.103C1.65571 556.273 0.403832 554.113 2.5499 552.12M2.55329 552.12C3.44749 551.29 4.69936 549.131 2.55329 547.138M2.45362 547.138C1.55942 546.307 0.307547 544.148 2.45362 542.155M2.457 542.155C3.3512 541.325 4.60308 539.166 2.457 537.173C1.56281 536.342 0.310933 534.183 2.457 532.19M2.46039 532.19C3.35459 531.36 4.60646 529.201 2.46039 527.208C1.56619 526.377 0.314318 524.218 2.46039 522.225M2.46378 522.225C3.35797 521.395 4.60985 519.236 2.46378 517.243C1.56958 516.412 0.317704 514.253 2.46378 512.26M2.46716 512.26C3.36136 511.43 4.61323 509.27 2.46716 507.277C1.57296 506.447 0.321089 504.288 2.46716 502.295M2.47051 502.295C3.3647 501.464 4.61658 499.305 2.47051 497.312C1.57631 496.482 0.324434 494.323 2.47051 492.33M2.47389 492.33C3.36809 491.499 4.61996 489.34 2.47389 487.347C1.5797 486.517 0.32782 484.358 2.47389 482.365M2.47728 482.365C3.37147 481.534 4.62335 479.375 2.47728 477.382C1.58308 476.552 0.331205 474.393 2.47728 472.4M2.63273 661.737C0.486655 663.73 1.73853 665.889 2.63273 666.719C4.7788 668.712 3.52692 670.871 2.63273 671.702C0.486655 673.695 1.73853 675.854 2.63273 676.684M2.63607 661.737C3.53027 660.906 4.78214 658.747 2.63607 656.754C1.74188 655.924 0.49 653.765 2.63607 651.772M2.63946 651.772C3.53365 650.941 4.78553 648.782 2.63946 646.789C1.74526 645.959 0.493386 643.799 2.63946 641.806M2.64284 641.806C3.53704 640.976 4.78892 638.817 2.64284 636.824M2.54317 636.824C1.64898 635.993 0.397101 633.834 2.54317 631.841M2.54656 631.841C3.44076 631.011 4.69263 628.852 2.54656 626.859C1.65236 626.028 0.400487 623.869 2.54656 621.876M2.54994 621.876C3.44414 621.046 4.69602 618.887 2.54994 616.894C1.65575 616.063 0.403872 613.904 2.54994 611.911M2.55333 611.911C3.44753 611.081 4.6994 608.922 2.55333 606.929C1.65913 606.098 0.407258 603.939 2.55333 601.946M2.55672 601.946C3.45091 601.116 4.70279 598.957 2.55672 596.963C1.66252 596.133 0.410643 593.974 2.55672 591.981M2.56006 591.981C3.45426 591.151 4.70613 588.991 2.56006 586.998C1.66586 586.168 0.413988 584.009 2.56006 582.016M2.72228 701.597C0.576209 703.59 1.82809 705.749 2.72228 706.58C4.86835 708.573 3.61648 710.732 2.72228 711.562C1.82808 712.393 0.576209 714.552 2.72228 716.545M2.72563 701.597C3.61982 700.767 4.8717 698.608 2.72563 696.615C1.83143 695.784 0.579555 693.625 2.72563 691.632M2.72901 691.632C3.62321 690.802 4.87508 688.643 2.72901 686.649C1.83482 685.819 0.58294 683.66 2.72901 681.667M2.7324 681.667C3.62659 680.837 4.87847 678.677 2.7324 676.684M2.72567 716.545C3.61986 717.375 4.87174 719.534 2.72567 721.527C1.83147 722.358 0.579595 724.517 2.72567 726.51M2.72905 726.51C3.62325 727.34 4.87512 729.5 2.72905 731.493C1.07178 733.032 3.66939 735.14 5.38625 737.631C7.10311 740.122 8.63287 738.805 9.34823 737.767M5.40332 550.394C6.11868 549.356 7.97861 547.903 9.69546 550.394M9.69546 550.398C10.4108 551.436 12.2708 552.889 13.9876 550.398C14.703 549.36 16.5629 547.907 18.2798 550.398M18.2798 550.402C18.9951 551.44 20.8551 552.893 22.5719 550.402C23.2873 549.364 25.1472 547.911 26.8641 550.402M26.8641 550.406C27.5794 551.444 29.4394 552.897 31.1562 550.406C31.8716 549.368 33.7315 547.915 35.4484 550.406M35.4484 550.41C36.1637 551.448 38.0236 552.901 39.7405 550.41C40.4559 549.372 42.3158 547.918 44.0326 550.41M44.0326 550.414C44.748 551.452 46.6079 552.905 48.3248 550.414C49.0401 549.376 50.9001 547.922 52.6169 550.414M52.6169 550.418C53.3323 551.456 55.1922 552.909 56.9091 550.418C57.6244 549.38 59.4844 547.926 61.2012 550.418M61.2012 550.421C61.9166 551.46 63.7765 552.913 65.4934 550.421C66.2087 549.383 68.0687 547.93 69.7855 550.421M69.7855 550.425C70.5009 551.463 72.3608 552.917 74.0777 550.425M74.0777 550.46C74.793 549.422 76.6529 547.969 78.3698 550.46M78.3698 550.464C79.0852 551.502 80.9451 552.955 82.662 550.464C83.3773 549.426 85.2373 547.973 86.9541 550.464M86.9541 550.468C87.6695 551.506 89.5294 552.959 91.2463 550.468C91.9616 549.43 93.8216 547.976 95.5384 550.468M95.5384 550.472C96.2538 551.51 98.1137 552.963 99.8306 550.472C100.546 549.434 102.406 547.98 104.123 550.472M104.123 550.476C104.838 551.514 106.698 552.967 108.415 550.476C109.13 549.438 110.99 547.984 112.707 550.476M112.707 550.48C113.422 551.518 115.282 552.971 116.999 550.48C117.715 549.442 119.574 547.988 121.291 550.48M121.291 550.483C122.007 551.521 123.867 552.975 125.583 550.483C126.299 549.445 128.159 547.992 129.876 550.483M129.876 550.487C130.591 551.525 132.451 552.979 134.168 550.487C134.883 549.449 136.743 547.996 138.46 550.487M138.46 550.491C139.175 551.529 141.035 552.983 142.752 550.491M142.752 550.376C143.467 549.338 145.327 547.884 147.044 550.376M147.044 550.38C147.76 551.418 149.619 552.871 151.336 550.38C152.052 549.341 153.912 547.888 155.628 550.38M155.628 550.383C156.344 551.421 158.204 552.875 159.921 550.383C160.636 549.345 162.496 547.892 164.213 550.383M164.213 550.387C164.928 551.425 166.788 552.879 168.505 550.387C169.22 549.349 171.08 547.896 172.797 550.387M172.797 550.391C173.512 551.429 175.372 552.883 177.089 550.391C177.804 549.353 179.664 547.9 181.381 550.391M181.381 550.395C182.097 551.433 183.957 552.886 185.673 550.395C186.389 549.357 188.249 547.904 189.966 550.395M189.966 550.399C190.681 551.437 192.541 552.89 194.258 550.399C194.973 549.361 196.833 547.908 198.55 550.399M198.55 550.403C199.265 551.441 201.125 552.894 202.842 550.403C203.557 549.365 205.417 547.912 207.134 550.403M207.134 550.407C207.85 551.445 209.709 552.898 211.426 550.407M211.426 550.441C212.142 549.403 214.002 547.95 215.718 550.441M215.718 550.445C216.434 551.483 218.294 552.937 220.011 550.445C220.726 549.407 222.586 547.954 224.303 550.445M224.303 550.449C225.018 551.487 226.878 552.941 228.595 550.449C229.31 549.411 231.17 547.958 232.887 550.449M232.887 550.453C233.602 551.491 235.462 552.944 237.179 550.453C237.895 549.415 239.754 547.962 241.471 550.453M241.471 550.457C242.187 551.495 244.047 552.948 245.763 550.457C246.479 549.419 248.339 547.966 250.056 550.457M250.056 550.461C250.771 551.499 252.631 552.952 254.348 550.461C255.063 549.423 256.923 547.97 258.64 550.461M258.64 550.465C259.355 551.503 261.215 552.956 262.932 550.465C263.647 549.427 265.507 547.974 267.224 550.465M267.224 550.469C267.94 551.507 269.799 552.96 271.516 550.469C272.232 549.431 274.092 547.978 275.808 550.469M275.808 550.473C276.524 551.511 278.384 552.964 280.101 550.473M280.101 550.591C280.816 549.553 282.676 548.1 284.393 550.591M284.393 550.595C285.108 551.633 286.968 553.086 288.685 550.595C289.4 549.557 291.26 548.104 292.977 550.595M292.977 550.599C293.692 551.637 295.552 553.09 297.269 550.599C297.985 549.561 299.844 548.108 301.561 550.599M301.561 550.603C302.277 551.641 304.137 553.094 305.853 550.603C306.569 549.565 308.429 548.112 310.146 550.603M310.146 550.607C310.861 551.645 312.721 553.098 314.438 550.607C315.153 549.569 317.013 548.116 318.73 550.607M318.73 550.611C319.445 551.649 321.305 553.102 323.022 550.611C323.737 549.573 325.597 548.12 327.314 550.611M327.314 550.615C328.03 551.653 329.889 553.106 331.606 550.615C332.322 549.577 334.182 548.123 335.899 550.615M335.899 550.619C336.614 551.657 338.474 553.11 340.191 550.619C340.906 549.581 342.766 548.127 344.483 550.619M344.483 550.623C345.198 551.661 347.058 553.114 348.775 550.623M348.775 550.657C349.49 549.619 351.35 548.166 353.067 550.657M353.067 550.661C353.782 551.699 355.642 553.152 357.359 550.661C358.075 549.623 359.934 548.17 361.651 550.661M361.651 550.665C362.367 551.703 364.227 553.156 365.943 550.665C366.659 549.627 368.519 548.174 370.236 550.665M370.236 550.669C370.951 551.707 372.811 553.16 374.528 550.669C375.243 549.631 377.103 548.178 378.82 550.669M378.82 550.673C379.535 551.711 381.395 553.164 383.112 550.673M383.112 550.691C383.827 549.653 385.357 548.335 387.074 550.827" stroke="#3D3D3D" stroke-width="2"/>
</svg>
