<svg width="524" height="988" viewBox="0 0 524 988" fill="none" xmlns="http://www.w3.org/2000/svg">
<path d="M13.594 3.85866C11.3048 0.536961 8.82494 2.47462 7.87113 3.85866C5.58199 7.18036 1.48197 9.43431 3.69166 11.4864C6.55309 14.1438 4.88393 17.5658 3.69166 18.6731M13.594 3.8639C14.5478 5.24794 17.0277 7.1856 19.3169 3.8639C20.2707 2.47986 22.7506 0.542201 25.0397 3.8639M25.0397 3.86913C25.9935 5.25317 28.4735 7.19083 30.7626 3.86913C31.7164 2.48508 34.1963 0.547425 36.4855 3.86913M36.4855 3.87437C37.4393 5.25841 39.9192 7.19607 42.2083 3.87437C43.1621 2.49032 45.642 0.552665 47.9312 3.87437M47.9312 3.87961C48.885 5.26365 51.3649 7.20131 53.654 3.87961C54.6078 2.49556 57.0878 0.557905 59.3769 3.87961M59.3769 3.88483C60.3307 5.26887 62.8106 7.20653 65.0998 3.88483C66.0536 2.50079 68.5335 0.56313 70.8226 3.88483M70.8226 3.89007C71.7764 5.27411 74.2563 7.21177 76.5455 3.89007C77.4993 2.50603 79.9792 0.56837 82.2683 3.89007M82.2683 3.89529C83.2221 5.27934 85.702 7.217 87.9912 3.89529C88.945 2.51125 91.4249 0.573594 93.7141 3.89529M93.7141 3.90053C94.6679 5.28458 97.1478 7.22224 99.4369 3.90053M99.4369 3.94649C100.391 2.56245 102.871 0.624794 105.16 3.94649M105.16 3.95173C106.114 5.33578 108.594 7.27344 110.883 3.95173C111.836 2.56769 114.316 0.630034 116.606 3.95173M116.606 3.95696C117.559 5.341 120.039 7.27866 122.328 3.95696C123.282 2.57292 125.762 0.635259 128.051 3.95696M128.051 3.9622C129.005 5.34624 131.485 7.2839 133.774 3.9622C134.728 2.57816 137.208 0.640499 139.497 3.9622M139.497 3.96744C140.451 5.35148 142.931 7.28914 145.22 3.96744C146.174 2.5834 148.654 0.645739 150.943 3.96744M150.943 3.97266C151.897 5.35671 154.376 7.29436 156.666 3.97266C157.619 2.58862 160.099 0.650963 162.388 3.97266M162.388 3.9779C163.342 5.36195 165.822 7.2996 168.111 3.9779C169.065 2.59386 171.545 0.656203 173.834 3.9779M173.834 3.98313C174.788 5.36717 177.268 7.30483 179.557 3.98313C180.511 2.59909 182.991 0.661428 185.28 3.98313M185.28 3.98837C186.234 5.37241 188.714 7.31007 191.003 3.98837M191.003 3.83408C191.957 2.45004 194.436 0.512382 196.726 3.83408M196.726 3.83931C197.679 5.22335 200.159 7.16101 202.448 3.83931C203.402 2.45527 205.882 0.517607 208.171 3.83931M208.171 3.84455C209.125 5.22859 211.605 7.16625 213.894 3.84455C214.848 2.46051 217.328 0.522847 219.617 3.84455M219.617 3.84977C220.571 5.23381 223.051 7.17147 225.34 3.84977C226.294 2.46573 228.774 0.528071 231.063 3.84977M231.063 3.85501C232.017 5.23905 234.496 7.17671 236.786 3.85501C237.739 2.47097 240.219 0.533311 242.508 3.85501M242.508 3.86025C243.462 5.24429 245.942 7.18195 248.231 3.86025C249.185 2.47621 251.665 0.538551 253.954 3.86025M253.954 3.86548C254.908 5.24952 257.388 7.18718 259.677 3.86548C260.631 2.48143 263.111 0.543776 265.4 3.86548M265.4 3.87072C266.354 5.25476 268.834 7.19242 271.123 3.87072C272.077 2.48667 274.556 0.549016 276.846 3.87072M276.846 3.87594C277.799 5.25998 280.279 7.19764 282.568 3.87594M282.568 3.92192C283.522 2.53787 286.002 0.600216 288.291 3.92192M288.291 3.92714C289.245 5.31118 291.725 7.24884 294.014 3.92714C294.968 2.5431 297.448 0.60544 299.737 3.92714M299.737 3.93238C300.691 5.31642 303.171 7.25408 305.46 3.93238C306.414 2.54834 308.894 0.61068 311.183 3.93238M311.183 3.93761C312.137 5.32165 314.616 7.25931 316.906 3.93761C317.859 2.55356 320.339 0.615905 322.628 3.93761M322.628 3.94285C323.582 5.32689 326.062 7.26455 328.351 3.94285C329.305 2.5588 331.785 0.621145 334.074 3.94285M334.074 3.94809C335.028 5.33213 337.508 7.26979 339.797 3.94809C340.751 2.56404 343.231 0.626385 345.52 3.94809M345.52 3.95331C346.474 5.33735 348.954 7.27501 351.243 3.95331C352.197 2.56927 354.676 0.631609 356.966 3.95331M356.966 3.95855C357.919 5.34259 360.399 7.28025 362.688 3.95855C363.642 2.57451 366.122 0.636849 368.411 3.95855M368.411 3.96377C369.365 5.34782 371.845 7.28547 374.134 3.96377M374.134 4.12154C375.088 2.7375 377.568 0.799838 379.857 4.12154M379.857 4.12676C380.811 5.51081 383.291 7.44846 385.58 4.12676C386.534 2.74272 389.014 0.805063 391.303 4.12676M391.303 4.132C392.257 5.51605 394.736 7.4537 397.026 4.132C397.979 2.74796 400.459 0.810303 402.748 4.132M402.748 4.13723C403.702 5.52127 406.182 7.45893 408.471 4.13723C409.425 2.75319 411.905 0.815528 414.194 4.13723M414.194 4.14247C415.148 5.52651 417.628 7.46417 419.917 4.14247C420.871 2.75843 423.351 0.820768 425.64 4.14247M425.64 4.14769C426.594 5.53173 429.074 7.46939 431.363 4.14769C432.317 2.76365 434.796 0.825992 437.086 4.14769M437.086 4.15293C438.039 5.53697 440.519 7.47463 442.808 4.15293C443.762 2.76889 446.242 0.831232 448.531 4.15293M448.531 4.15816C449.485 5.5422 451.965 7.47986 454.254 4.15816C455.208 2.77412 457.688 0.836456 459.977 4.15816M459.977 4.1634C460.931 5.54744 463.411 7.4851 465.7 4.1634M465.7 4.20937C466.654 2.82533 469.134 0.887672 471.423 4.20937M471.423 4.2146C472.377 5.59864 474.856 7.5363 477.146 4.2146C478.099 2.83055 480.579 0.892896 482.868 4.2146M482.868 4.21984C483.822 5.60388 486.302 7.54154 488.591 4.21984C489.545 2.83579 492.025 0.898136 494.314 4.21984M494.314 4.22506C495.268 5.6091 497.748 7.54676 500.037 4.22506C500.991 2.84102 503.471 0.903361 505.76 4.22506M505.76 4.2303C506.714 5.61434 509.194 7.552 511.483 4.2303M520.301 271.713C519.108 270.605 517.439 267.727 520.301 265.069C521.493 263.962 523.162 261.083 520.301 258.426M520.296 258.426C519.104 257.319 517.435 254.44 520.296 251.782C521.488 250.675 523.158 247.796 520.296 245.139M520.292 245.139C519.099 244.032 517.43 241.153 520.292 238.495C521.484 237.388 523.153 234.509 520.292 231.852M520.287 231.852C519.095 230.745 517.426 227.866 520.287 225.209M520.42 225.209C521.612 224.101 523.281 221.223 520.42 218.565M520.416 218.565C519.223 217.458 517.554 214.579 520.416 211.922C521.608 210.815 523.277 207.936 520.416 205.278M520.411 205.278C519.219 204.171 517.55 201.292 520.411 198.635C521.603 197.528 523.272 194.649 520.411 191.992M520.406 191.992C519.214 190.884 517.545 188.006 520.406 185.348C521.599 184.241 523.268 181.362 520.406 178.705M520.402 178.705C519.21 177.598 517.541 174.719 520.402 172.061C521.594 170.954 523.263 168.075 520.402 165.418M520.398 165.418C519.205 164.311 517.536 161.432 520.398 158.775C521.59 157.667 523.259 154.789 520.398 152.131M520.393 152.131C519.201 151.024 517.532 148.145 520.393 145.488C521.585 144.381 523.254 141.502 520.393 138.844M520.388 138.844C519.196 137.737 517.527 134.858 520.388 132.201C521.581 131.094 523.25 128.215 520.388 125.558M520.384 125.558C519.192 124.45 517.523 121.572 520.384 118.914M520.344 118.914C521.537 117.807 523.206 114.928 520.344 112.271M520.34 112.271C519.148 111.164 517.478 108.285 520.34 105.627C521.532 104.52 523.201 101.641 520.34 98.9841M520.335 98.9841C519.143 97.8769 517.474 94.9981 520.335 92.3407C521.528 91.2335 523.197 88.3547 520.335 85.6973M520.331 85.6973C519.139 84.5901 517.469 81.7113 520.331 79.0539C521.523 77.9467 523.192 75.0679 520.331 72.4105M520.326 72.4105C519.134 71.3033 517.465 68.4245 520.326 65.7671C521.519 64.6599 523.188 61.7811 520.326 59.1237M520.322 59.1237C519.13 58.0165 517.46 55.1377 520.322 52.4803C521.514 51.3731 523.183 48.4943 520.322 45.8369M520.317 45.8369C519.125 44.7297 517.456 41.8509 520.317 39.1935C521.51 38.0863 523.179 35.2074 520.317 32.5501M520.313 32.5501C519.121 31.4429 517.451 28.564 520.313 25.9067C521.505 24.7995 523.174 21.9206 520.313 19.2633M520.308 19.2633C519.116 18.156 517.447 15.2772 520.308 12.6199C522.518 10.5678 519.055 7.75708 516.765 4.43538C514.476 1.11368 512.437 2.87021 511.483 4.25426M520.181 417.868C518.989 416.76 517.32 413.881 520.181 411.224C521.374 410.117 523.043 407.238 520.181 404.581M520.177 404.581C518.984 403.473 517.315 400.595 520.177 397.937C521.369 396.83 523.038 393.951 520.177 391.294M520.172 391.294C518.98 390.187 517.311 387.308 520.172 384.65C521.365 383.543 523.034 380.664 520.172 378.007M520.168 378.007C518.975 376.9 517.306 374.021 520.168 371.364M520.301 371.364C521.493 370.256 523.162 367.378 520.301 364.72M520.296 364.72C519.104 363.613 517.435 360.734 520.296 358.077C521.488 356.97 523.158 354.091 520.296 351.433M520.292 351.433C519.099 350.326 517.43 347.447 520.292 344.79C521.484 343.683 523.153 340.804 520.292 338.147M520.287 338.147C519.095 337.039 517.426 334.161 520.287 331.503C521.479 330.396 523.149 327.517 520.287 324.86M520.283 324.86C519.09 323.753 517.421 320.874 520.283 318.216C521.475 317.109 523.144 314.23 520.283 311.573M520.278 311.573C519.086 310.466 517.417 307.587 520.278 304.93C521.47 303.822 523.14 300.944 520.278 298.286M520.274 298.286C519.081 297.179 517.412 294.3 520.274 291.643C521.466 290.536 523.135 287.657 520.274 284.999M520.269 284.999C519.077 283.892 517.408 281.013 520.269 278.356C521.461 277.249 523.131 274.37 520.269 271.713M520.062 630.456C518.87 629.349 517.2 626.47 520.062 623.813C521.254 622.706 522.923 619.827 520.062 617.17M520.057 617.17C518.865 616.062 517.196 613.184 520.057 610.526C521.25 609.419 522.919 606.54 520.057 603.883M520.053 603.883C518.861 602.775 517.191 599.897 520.053 597.239C521.245 596.132 522.914 593.253 520.053 590.596M520.048 590.596C518.856 589.489 517.187 586.61 520.048 583.953M520.181 583.953C521.374 582.845 523.043 579.967 520.181 577.309M520.177 577.309C518.984 576.202 517.315 573.323 520.177 570.666C521.369 569.558 523.038 566.68 520.177 564.022M520.172 564.022C518.98 562.915 517.311 560.036 520.172 557.379C521.365 556.272 523.034 553.393 520.172 550.736M520.168 550.736C518.975 549.628 517.306 546.749 520.168 544.092C521.36 542.985 523.029 540.106 520.168 537.449M520.163 537.449C518.971 536.341 517.302 533.463 520.163 530.805C521.355 529.698 523.025 526.819 520.163 524.162M520.159 524.162C518.966 523.055 517.297 520.176 520.159 517.519C521.351 516.411 523.02 513.533 520.159 510.875M520.154 510.875C518.962 509.768 517.293 506.889 520.154 504.232C521.346 503.124 523.016 500.246 520.154 497.588M520.15 497.588C518.957 496.481 517.288 493.602 520.15 490.945C521.342 489.838 523.011 486.959 520.15 484.302M520.145 484.302C518.953 483.194 517.284 480.315 520.145 477.658M520.106 477.658C521.298 476.551 522.967 473.672 520.106 471.015M520.101 471.015C518.909 469.908 517.24 467.029 520.101 464.371C521.293 463.264 522.963 460.385 520.101 457.728M520.097 457.728C518.904 456.621 517.235 453.742 520.097 451.085C521.289 449.977 522.958 447.098 520.097 444.441M520.092 444.441C518.9 443.334 517.231 440.455 520.092 437.798C521.284 436.69 522.953 433.812 520.092 431.154M520.088 431.154C518.895 430.047 517.226 427.168 520.088 424.511C521.28 423.404 522.949 420.525 520.088 417.868M519.942 776.611C518.75 775.504 517.081 772.625 519.942 769.968C521.135 768.861 522.804 765.982 519.942 763.324M519.938 763.324C518.746 762.217 517.076 759.338 519.938 756.681C521.13 755.574 522.799 752.695 519.938 750.038M519.933 750.038C518.741 748.93 517.072 746.052 519.933 743.394C521.126 742.287 522.795 739.408 519.933 736.751M519.929 736.751C518.737 735.644 517.067 732.765 519.929 730.107M520.062 730.107C521.254 729 522.923 726.121 520.062 723.464M520.057 723.464C518.865 722.357 517.196 719.478 520.057 716.821C521.25 715.713 522.919 712.835 520.057 710.177M520.053 710.177C518.861 709.07 517.191 706.191 520.053 703.534C521.245 702.427 522.914 699.548 520.053 696.89M520.048 696.89C518.856 695.783 517.187 692.904 520.048 690.247C521.241 689.14 522.91 686.261 520.048 683.604M520.044 683.604C518.852 682.496 517.182 679.618 520.044 676.96C521.236 675.853 522.905 672.974 520.044 670.317M520.039 670.317C518.847 669.21 517.178 666.331 520.039 663.673C521.232 662.566 522.901 659.687 520.039 657.03M520.035 657.03C518.843 655.923 517.173 653.044 520.035 650.387C521.227 649.279 522.896 646.401 520.035 643.743M520.03 643.743C518.838 642.636 517.169 639.757 520.03 637.1C521.223 635.993 522.892 633.114 520.03 630.456M519.823 882.906C522.684 885.563 521.015 888.442 519.823 889.549C516.962 892.207 518.631 895.085 519.823 896.193C522.684 898.85 521.015 901.729 519.823 902.836M519.819 882.906C518.626 881.799 516.957 878.92 519.819 876.262C521.011 875.155 522.68 872.276 519.819 869.619M519.814 869.619C518.622 868.512 516.953 865.633 519.814 862.976C521.006 861.868 522.675 858.99 519.814 856.332M519.81 856.332C518.617 855.225 516.948 852.346 519.81 849.689M519.942 849.689C521.135 848.582 522.804 845.703 519.942 843.045M519.938 843.045C518.746 841.938 517.076 839.059 519.938 836.402C521.13 835.295 522.799 832.416 519.938 829.759M519.933 829.759C518.741 828.651 517.072 825.773 519.933 823.115C521.126 822.008 522.795 819.129 519.933 816.472M519.929 816.472C518.737 815.365 517.067 812.486 519.929 809.828C521.121 808.721 522.79 805.842 519.929 803.185M519.924 803.185C518.732 802.078 517.063 799.199 519.924 796.542C521.117 795.434 522.786 792.556 519.924 789.898M519.92 789.898C518.728 788.791 517.058 785.912 519.92 783.255C521.112 782.148 522.781 779.269 519.92 776.611M519.704 936.053C522.565 938.711 520.896 941.589 519.704 942.697C516.842 945.354 518.511 948.233 519.704 949.34C520.896 950.447 522.565 953.326 519.704 955.983M519.699 936.053C518.507 934.946 516.838 932.067 519.699 929.41C520.891 928.303 522.561 925.424 519.699 922.766M519.695 922.766C518.502 921.659 516.833 918.78 519.695 916.123C520.887 915.016 522.556 912.137 519.695 909.48M519.69 909.48C518.498 908.372 516.829 905.493 519.69 902.836M505.146 984.303C506.1 982.919 508.58 980.982 510.869 984.303M519.699 955.983C518.507 957.091 516.838 959.97 519.699 962.627C520.891 963.734 522.561 966.613 519.699 969.27M519.695 969.27C518.502 970.378 516.833 973.256 519.695 975.914C521.904 977.966 518.441 980.777 516.152 984.098C513.863 987.42 511.823 985.663 510.869 984.279M13.1299 983.732C14.0837 982.348 16.5637 980.41 18.8528 983.732M18.8528 983.737C19.8066 985.121 22.2865 987.059 24.5757 983.737C25.5295 982.353 28.0094 980.415 30.2985 983.737M30.2985 983.742C31.2524 985.126 33.7323 987.064 36.0214 983.742C36.9752 982.358 39.4551 980.421 41.7443 983.742M41.7443 983.747C42.6981 985.132 45.178 987.069 47.4671 983.747C48.4209 982.363 50.9008 980.426 53.19 983.747M53.19 983.753C54.1438 985.137 56.6237 987.074 58.9128 983.753C59.8667 982.369 62.3466 980.431 64.6357 983.753M64.6357 983.758C65.5895 985.142 68.0694 987.08 70.3586 983.758C71.3124 982.374 73.7923 980.436 76.0814 983.758M76.0814 983.763C77.0352 985.147 79.5151 987.085 81.8043 983.763C82.7581 982.379 85.238 980.441 87.5271 983.763M87.5271 983.768C88.4809 985.152 90.9609 987.09 93.25 983.768C94.2038 982.384 96.6837 980.447 98.9729 983.768M98.9729 983.774C99.9267 985.158 102.407 987.095 104.696 983.774M104.696 983.82C105.65 982.436 108.129 980.498 110.419 983.82M110.419 983.825C111.372 985.209 113.852 987.147 116.142 983.825C117.095 982.441 119.575 980.503 121.864 983.825M121.864 983.83C122.818 985.214 125.298 987.152 127.587 983.83C128.541 982.446 131.021 980.508 133.31 983.83M133.31 983.835C134.264 985.219 136.744 987.157 139.033 983.835C139.987 982.451 142.467 980.514 144.756 983.835M144.756 983.841C145.71 985.225 148.19 987.162 150.479 983.841C151.432 982.456 153.912 980.519 156.202 983.841M156.202 983.846C157.155 985.23 159.635 987.167 161.924 983.846C162.878 982.462 165.358 980.524 167.647 983.846M167.647 983.851C168.601 985.235 171.081 987.173 173.37 983.851C174.324 982.467 176.804 980.529 179.093 983.851M179.093 983.856C180.047 985.24 182.527 987.178 184.816 983.856C185.77 982.472 188.25 980.535 190.539 983.856M190.539 983.861C191.492 985.245 193.972 987.183 196.262 983.861M196.262 983.707C197.215 982.323 199.695 980.386 201.984 983.707M201.984 983.712C202.938 985.096 205.418 987.034 207.707 983.712C208.661 982.328 211.141 980.391 213.43 983.712M213.43 983.718C214.384 985.102 216.864 987.039 219.153 983.718C220.107 982.334 222.587 980.396 224.876 983.718M224.876 983.723C225.83 985.107 228.309 987.045 230.599 983.723C231.552 982.339 234.032 980.401 236.321 983.723M236.321 983.728C237.275 985.112 239.755 987.05 242.044 983.728C242.998 982.344 245.478 980.406 247.767 983.728M247.767 983.733C248.721 985.117 251.201 987.055 253.49 983.733C254.444 982.349 256.924 980.412 259.213 983.733M259.213 983.739C260.167 985.123 262.647 987.06 264.936 983.739C265.89 982.355 268.37 980.417 270.659 983.739M270.659 983.744C271.612 985.128 274.092 987.066 276.382 983.744C277.335 982.36 279.815 980.422 282.104 983.744M282.104 983.749C283.058 985.133 285.538 987.071 287.827 983.749M287.827 983.795C288.781 982.411 291.261 980.473 293.55 983.795M293.55 983.8C294.504 985.184 296.984 987.122 299.273 983.8C300.227 982.416 302.707 980.479 304.996 983.8M304.996 983.805C305.95 985.19 308.43 987.127 310.719 983.805C311.672 982.421 314.152 980.484 316.442 983.805M316.442 983.811C317.395 985.195 319.875 987.132 322.164 983.811C323.118 982.427 325.598 980.489 327.887 983.811M327.887 983.816C328.841 985.2 331.321 987.138 333.61 983.816C334.564 982.432 337.044 980.494 339.333 983.816M339.333 983.821C340.287 985.205 342.767 987.143 345.056 983.821C346.01 982.437 348.49 980.5 350.779 983.821M350.779 983.826C351.733 985.21 354.212 987.148 356.502 983.826C357.455 982.442 359.935 980.505 362.224 983.826M362.224 983.832C363.178 985.216 365.658 987.153 367.947 983.832C368.901 982.448 371.381 980.51 373.67 983.832M373.67 983.837C374.624 985.221 377.104 987.159 379.393 983.837M379.393 983.995C380.347 982.611 382.827 980.673 385.116 983.995M385.116 984C386.07 985.384 388.55 987.322 390.839 984C391.793 982.616 394.272 980.678 396.562 984M396.562 984.005C397.515 985.389 399.995 987.327 402.284 984.005C403.238 982.621 405.718 980.683 408.007 984.005M408.007 984.01C408.961 985.394 411.441 987.332 413.73 984.01C414.684 982.626 417.164 980.689 419.453 984.01M419.453 984.016C420.407 985.4 422.887 987.337 425.176 984.016C426.13 982.632 428.61 980.694 430.899 984.016M430.899 984.021C431.853 985.405 434.332 987.343 436.622 984.021C437.575 982.637 440.055 980.699 442.344 984.021M442.344 984.026C443.298 985.41 445.778 987.348 448.067 984.026C449.021 982.642 451.501 980.704 453.79 984.026M453.79 984.031C454.744 985.415 457.224 987.353 459.513 984.031C460.467 982.647 462.947 980.71 465.236 984.031M465.236 984.036C466.19 985.421 468.67 987.358 470.959 984.036M470.959 984.082C471.912 982.698 474.392 980.761 476.682 984.082M476.682 984.088C477.635 985.472 480.115 987.409 482.404 984.088C483.358 982.704 485.838 980.766 488.127 984.088M488.127 984.093C489.081 985.477 491.561 987.415 493.85 984.093C494.804 982.709 497.284 980.771 499.573 984.093M499.573 984.098C500.527 985.482 503.007 987.42 505.296 984.098M3.69935 271.122C4.89161 270.015 6.56078 267.136 3.69935 264.479C2.50709 263.372 0.837919 260.493 3.69935 257.836M3.70381 257.836C4.89607 256.728 6.56524 253.85 3.70381 251.192C2.51155 250.085 0.842379 247.206 3.70381 244.549M3.70832 244.549C4.90058 243.441 6.56975 240.563 3.70832 237.905C2.51606 236.798 0.846893 233.919 3.70832 231.262M3.71284 231.262C4.9051 230.155 6.57427 227.276 3.71284 224.618M3.57994 224.618C2.38768 223.511 0.718513 220.632 3.57994 217.975M3.58446 217.975C4.77672 216.868 6.44589 213.989 3.58446 211.332C2.3922 210.224 0.723027 207.346 3.58446 204.688M3.58897 204.688C4.78123 203.581 6.4504 200.702 3.58897 198.045C2.39671 196.938 0.727541 194.059 3.58897 191.401M3.59348 191.401C4.78575 190.294 6.45491 187.415 3.59348 184.758C2.40122 183.651 0.732055 180.772 3.59348 178.115M3.598 178.115C4.79026 177.007 6.45943 174.129 3.598 171.471C2.40574 170.364 0.736569 167.485 3.598 164.828M3.60246 164.828C4.79472 163.721 6.46389 160.842 3.60246 158.184C2.4102 157.077 0.74103 154.198 3.60246 151.541M3.60697 151.541C4.79924 150.434 6.4684 147.555 3.60697 144.898C2.41471 143.79 0.745544 140.912 3.60697 138.254M3.61149 138.254C4.80375 137.147 6.47292 134.268 3.61149 131.611C2.41923 130.504 0.750058 127.625 3.61149 124.967M3.616 124.967C4.80826 123.86 6.47743 120.981 3.616 118.324M3.65561 118.324C2.46334 117.217 0.794176 114.338 3.65561 111.681M3.66012 111.681C4.85238 110.573 6.52155 107.695 3.66012 105.037C2.46786 103.93 0.79869 101.051 3.66012 98.3938M3.66463 98.3938C4.8569 97.2866 6.52606 94.4078 3.66463 91.7504C2.47237 90.6432 0.803204 87.7644 3.66463 85.107M3.66915 85.107C4.86141 83.9998 6.53058 81.121 3.66915 78.4636C2.47689 77.3564 0.807718 74.4776 3.66915 71.8202M3.67366 71.8202C4.86592 70.713 6.53509 67.8342 3.67366 65.1768C2.4814 64.0696 0.812232 61.1908 3.67366 58.5334M3.67812 58.5334C4.87038 57.4262 6.53955 54.5474 3.67812 51.89C2.48586 50.7828 0.816692 47.904 3.67812 45.2466M3.68264 45.2466C4.8749 44.1394 6.54407 41.2606 3.68264 38.6032C2.49037 37.496 0.821206 34.6172 3.68264 31.9598M3.68715 31.9598C4.87941 30.8526 6.54858 27.9738 3.68715 25.3165C2.49489 24.2092 0.82572 21.3304 3.68715 18.6731M3.81875 417.277C5.01102 416.17 6.68018 413.291 3.81875 410.634C2.62649 409.527 0.957324 406.648 3.81875 403.99M3.82321 403.99C5.01548 402.883 6.68464 400.004 3.82321 397.347C2.63095 396.24 0.961785 393.361 3.82321 390.704M3.82773 390.704C5.01999 389.596 6.68916 386.718 3.82773 384.06C2.63547 382.953 0.966299 380.074 3.82773 377.417M3.83224 377.417C5.0245 376.31 6.69367 373.431 3.83224 370.773M3.69935 370.773C2.50709 369.666 0.837919 366.787 3.69935 364.13M3.70386 364.13C4.89612 363.023 6.56529 360.144 3.70386 357.487C2.5116 356.379 0.842433 353.501 3.70386 350.843M3.70838 350.843C4.90064 349.736 6.56981 346.857 3.70838 344.2C2.51611 343.093 0.846947 340.214 3.70838 337.556M3.71289 337.556C4.90515 336.449 6.57432 333.57 3.71289 330.913C2.52063 329.806 0.851461 326.927 3.71289 324.27M3.7174 324.27C4.90967 323.162 6.57883 320.284 3.7174 317.626C2.52514 316.519 0.855975 313.64 3.7174 310.983M3.72186 310.983C4.91413 309.876 6.58329 306.997 3.72186 304.339C2.5296 303.232 0.860435 300.353 3.72186 297.696M3.72638 297.696C4.91864 296.589 6.58781 293.71 3.72638 291.053C2.53412 289.945 0.864949 287.067 3.72638 284.409M3.73089 284.409C4.92315 283.302 6.59232 280.423 3.73089 277.766C2.53863 276.659 0.869463 273.78 3.73089 271.122M3.93816 629.866C5.13042 628.759 6.79959 625.88 3.93816 623.223C2.7459 622.116 1.07673 619.237 3.93816 616.579M3.94262 616.579C5.13488 615.472 6.80405 612.593 3.94262 609.936C2.75036 608.829 1.08119 605.95 3.94262 603.292M3.94713 603.292C5.1394 602.185 6.80856 599.306 3.94713 596.649C2.75487 595.542 1.0857 592.663 3.94713 590.006M3.95165 590.006C5.14391 588.898 6.81308 586.02 3.95165 583.362M3.81875 583.362C2.62649 582.255 0.957324 579.376 3.81875 576.719M3.82327 576.719C5.01553 575.612 6.6847 572.733 3.82327 570.076C2.63101 568.968 0.961838 566.089 3.82327 563.432M3.82778 563.432C5.02004 562.325 6.68921 559.446 3.82778 556.789C2.63552 555.681 0.966352 552.803 3.82778 550.145M3.8323 550.145C5.02456 549.038 6.69373 546.159 3.8323 543.502C2.64003 542.395 0.970866 539.516 3.8323 536.859M3.83681 536.859C5.02907 535.751 6.69824 532.872 3.83681 530.215C2.64455 529.108 0.97538 526.229 3.83681 523.572M3.84127 523.572C5.03353 522.465 6.7027 519.586 3.84127 516.928C2.64901 515.821 0.97984 512.942 3.84127 510.285M3.84578 510.285C5.03805 509.178 6.70721 506.299 3.84578 503.642C2.65352 502.534 0.984354 499.656 3.84578 496.998M3.8503 496.998C5.04256 495.891 6.71173 493.012 3.8503 490.355C2.65804 489.247 0.988868 486.369 3.8503 483.711M3.85481 483.711C5.04707 482.604 6.71624 479.725 3.85481 477.068M3.89442 477.068C2.70215 475.961 1.03299 473.082 3.89442 470.425M3.89893 470.425C5.09119 469.317 6.76036 466.438 3.89893 463.781C2.70667 462.674 1.0375 459.795 3.89893 457.138M3.90344 457.138C5.09571 456.031 6.76487 453.152 3.90344 450.494C2.71118 449.387 1.04201 446.508 3.90344 443.851M3.90796 443.851C5.10022 442.744 6.76939 439.865 3.90796 437.208C2.7157 436.1 1.04653 433.221 3.90796 430.564M3.91247 430.564C5.10473 429.457 6.7739 426.578 3.91247 423.921C2.72021 422.813 1.05104 419.935 3.91247 417.277M4.05756 776.021C5.24983 774.914 6.91899 772.035 4.05756 769.378C2.8653 768.271 1.19614 765.392 4.05756 762.734M4.06203 762.734C5.25429 761.627 6.92345 758.748 4.06203 756.091C2.86976 754.984 1.2006 752.105 4.06203 749.447M4.06654 749.447C5.2588 748.34 6.92797 745.461 4.06654 742.804C2.87428 741.697 1.20511 738.818 4.06654 736.161M4.07105 736.161C5.26331 735.053 6.93248 732.175 4.07105 729.517M3.93816 729.517C2.7459 728.41 1.07673 725.531 3.93816 722.874M3.94267 722.874C5.13494 721.767 6.8041 718.888 3.94267 716.23C2.75041 715.123 1.08124 712.244 3.94267 709.587M3.94719 709.587C5.13945 708.48 6.80862 705.601 3.94719 702.944C2.75493 701.836 1.08576 698.958 3.94719 696.3M3.9517 696.3C5.14396 695.193 6.81313 692.314 3.9517 689.657C2.75944 688.55 1.09027 685.671 3.9517 683.013M3.95622 683.013C5.14848 681.906 6.81764 679.027 3.95622 676.37C2.76395 675.263 1.09479 672.384 3.95622 669.727M3.96068 669.727C5.15294 668.619 6.82211 665.74 3.96068 663.083C2.76841 661.976 1.09925 659.097 3.96068 656.44M3.96519 656.44C5.15745 655.333 6.82662 652.454 3.96519 649.796C2.77293 648.689 1.10376 645.81 3.96519 643.153M3.9697 643.153C5.16197 642.046 6.83113 639.167 3.9697 636.51C2.77744 635.402 1.10827 632.524 3.9697 629.866M4.17697 882.316C1.31554 884.973 2.98471 887.852 4.17697 888.959C7.0384 891.616 5.36923 894.495 4.17697 895.602C1.31554 898.26 2.98471 901.139 4.17697 902.246M4.18143 882.316C5.37369 881.208 7.04286 878.329 4.18143 875.672C2.98917 874.565 1.32 871.686 4.18143 869.029M4.18594 869.029C5.37821 867.922 7.04737 865.043 4.18594 862.385C2.99368 861.278 1.32451 858.399 4.18594 855.742M4.19046 855.742C5.38272 854.635 7.05189 851.756 4.19046 849.098M4.05756 849.098C2.8653 847.991 1.19614 845.113 4.05756 842.455M4.06208 842.455C5.25434 841.348 6.92351 838.469 4.06208 835.812C2.86982 834.705 1.20065 831.826 4.06208 829.168M4.06659 829.168C5.25885 828.061 6.92802 825.182 4.06659 822.525C2.87433 821.418 1.20516 818.539 4.06659 815.882M4.07111 815.882C5.26337 814.774 6.93254 811.896 4.07111 809.238C2.87884 808.131 1.20968 805.252 4.07111 802.595M4.07562 802.595C5.26788 801.488 6.93705 798.609 4.07562 795.951C2.88336 794.844 1.21419 791.965 4.07562 789.308M4.08008 789.308C5.27234 788.201 6.94151 785.322 4.08008 782.665C2.88782 781.557 1.21865 778.678 4.08008 776.021M4.29638 935.463C1.43495 938.12 3.10411 940.999 4.29638 942.106C7.1578 944.764 5.48864 947.643 4.29638 948.75C3.10411 949.857 1.43495 952.736 4.29638 955.393M4.30084 935.463C5.4931 934.356 7.16227 931.477 4.30084 928.82C3.10857 927.712 1.43941 924.833 4.30084 922.176M4.30535 922.176C5.49761 921.069 7.16678 918.19 4.30535 915.533C3.11309 914.425 1.44392 911.547 4.30535 908.889M4.30986 908.889C5.50213 907.782 7.17129 904.903 4.30986 902.246M4.30089 955.393C5.49315 956.5 7.16232 959.379 4.30089 962.037C3.10863 963.144 1.43946 966.023 4.30089 968.68M4.3054 968.68C5.49767 969.787 7.16683 972.666 4.3054 975.323C2.09571 977.376 5.55919 980.186 7.84834 983.508C10.1375 986.83 12.1772 985.073 13.131 983.689M7.87109 733.859C8.8249 732.475 11.3048 730.537 13.594 733.859M13.594 733.864C14.5478 735.248 17.0277 737.186 19.3168 733.864C20.2706 732.48 22.7506 730.542 25.0397 733.864M25.0397 733.869C25.9935 735.253 28.4734 737.191 30.7626 733.869C31.7164 732.485 34.1963 730.547 36.4854 733.869M36.4854 733.874C37.4392 735.258 39.9191 737.196 42.2083 733.874C43.1621 732.49 45.642 730.553 47.9311 733.874M47.9311 733.88C48.8849 735.264 51.3649 737.201 53.654 733.88C54.6078 732.496 57.0877 730.558 59.3769 733.88M59.3769 733.885C60.3307 735.269 62.8106 737.207 65.0997 733.885C66.0535 732.501 68.5334 730.563 70.8226 733.885M70.8226 733.89C71.7764 735.274 74.2563 737.212 76.5454 733.89C77.4993 732.506 79.9791 730.568 82.2683 733.89M82.2683 733.895C83.2221 735.279 85.702 737.217 87.9911 733.895C88.945 732.511 91.4249 730.574 93.714 733.895M93.714 733.901C94.6678 735.285 97.1477 737.222 99.4369 733.901M99.4369 733.947C100.391 732.563 102.871 730.625 105.16 733.947M105.16 733.952C106.114 735.336 108.593 737.274 110.883 733.952C111.836 732.568 114.316 730.63 116.606 733.952M116.606 733.957C117.559 735.341 120.039 737.279 122.328 733.957C123.282 732.573 125.762 730.635 128.051 733.957M128.051 733.962C129.005 735.346 131.485 737.284 133.774 733.962C134.728 732.578 137.208 730.641 139.497 733.962M139.497 733.967C140.451 735.352 142.931 737.289 145.22 733.967C146.174 732.583 148.654 730.646 150.943 733.967M150.943 733.973C151.896 735.357 154.376 737.294 156.666 733.973C157.619 732.589 160.099 730.651 162.388 733.973M162.388 733.978C163.342 735.362 165.822 737.3 168.111 733.978C169.065 732.594 171.545 730.656 173.834 733.978M173.834 733.983C174.788 735.367 177.268 737.305 179.557 733.983C180.511 732.599 182.991 730.661 185.28 733.983M185.28 733.988C186.234 735.372 188.714 737.31 191.003 733.988M191.003 733.834C191.956 732.45 194.436 730.512 196.726 733.834M196.726 733.839C197.679 735.223 200.159 737.161 202.448 733.839C203.402 732.455 205.882 730.518 208.171 733.839M208.171 733.845C209.125 735.229 211.605 737.166 213.894 733.845C214.848 732.461 217.328 730.523 219.617 733.845M219.617 733.85C220.571 735.234 223.051 737.172 225.34 733.85C226.294 732.466 228.774 730.528 231.063 733.85M231.063 733.855C232.016 735.239 234.496 737.177 236.786 733.855C237.739 732.471 240.219 730.533 242.508 733.855M242.508 733.86C243.462 735.244 245.942 737.182 248.231 733.86C249.185 732.476 251.665 730.539 253.954 733.86M253.954 733.866C254.908 735.25 257.388 737.187 259.677 733.866C260.631 732.481 263.111 730.544 265.4 733.866M265.4 733.871C266.354 735.255 268.834 737.192 271.123 733.871C272.076 732.487 274.556 730.549 276.846 733.871M276.846 733.876C277.799 735.26 280.279 737.198 282.568 733.876M282.568 733.922C283.522 732.538 286.002 730.6 288.291 733.922M288.291 733.927C289.245 735.311 291.725 737.249 294.014 733.927C294.968 732.543 297.448 730.606 299.737 733.927M299.737 733.932C300.691 735.317 303.171 737.254 305.46 733.932C306.414 732.548 308.894 730.611 311.183 733.932M311.183 733.938C312.137 735.322 314.616 737.259 316.906 733.938C317.859 732.554 320.339 730.616 322.628 733.938M322.628 733.943C323.582 735.327 326.062 737.265 328.351 733.943C329.305 732.559 331.785 730.621 334.074 733.943M334.074 733.948C335.028 735.332 337.508 737.27 339.797 733.948C340.751 732.564 343.231 730.626 345.52 733.948M345.52 733.953C346.474 735.337 348.954 737.275 351.243 733.953C352.197 732.569 354.676 730.632 356.966 733.953M356.966 733.959C357.919 735.343 360.399 737.28 362.688 733.959C363.642 732.575 366.122 730.637 368.411 733.959M368.411 733.964C369.365 735.348 371.845 737.286 374.134 733.964M374.134 734.122C375.088 732.738 377.568 730.8 379.857 734.122M379.857 734.127C380.811 735.511 383.291 737.448 385.58 734.127C386.534 732.743 389.014 730.805 391.303 734.127M391.303 734.132C392.257 735.516 394.736 737.454 397.026 734.132C397.979 732.748 400.459 730.81 402.748 734.132M402.748 734.137C403.702 735.521 406.182 737.459 408.471 734.137C409.425 732.753 411.905 730.816 414.194 734.137M414.194 734.143C415.148 735.527 417.628 737.464 419.917 734.143C420.871 732.759 423.351 730.821 425.64 734.143M425.64 734.148C426.594 735.532 429.074 737.469 431.363 734.148C432.317 732.764 434.796 730.826 437.086 734.148M437.086 734.153C438.039 735.537 440.519 737.475 442.808 734.153C443.762 732.769 446.242 730.831 448.531 734.153M448.531 734.158C449.485 735.542 451.965 737.48 454.254 734.158C455.208 732.774 457.688 730.837 459.977 734.158M459.977 734.163C460.931 735.548 463.411 737.485 465.7 734.163M465.7 734.209C466.654 732.825 469.134 730.888 471.423 734.209M471.423 734.215C472.376 735.599 474.856 737.536 477.146 734.215C478.099 732.831 480.579 730.893 482.868 734.215M482.868 734.22C483.822 735.604 486.302 737.542 488.591 734.22C489.545 732.836 492.025 730.898 494.314 734.22M494.314 734.225C495.268 735.609 497.748 737.547 500.037 734.225C500.991 732.841 503.471 730.903 505.76 734.225M505.76 734.23C506.714 735.614 509.194 737.552 511.483 734.23M511.483 734.254C512.437 732.87 514.476 731.114 516.765 734.435" stroke="#3D3D3D" stroke-width="3"/>
</svg>
