<svg width="394" height="580" viewBox="0 0 394 580" fill="none" xmlns="http://www.w3.org/2000/svg">
<path d="M310.31 24.7599C238.635 58.7204 204.906 24.7253 197.001 3.5C189.095 24.7253 155.365 58.6858 83.6895 24.7253C-4.14867 -16.893 11.1032 127.314 16.0541 182.146C17.8109 201.603 17.4595 250.421 2 290.042C17.4595 329.662 17.8109 378.481 16.0541 397.937C11.1032 452.769 -4.14867 596.976 83.6895 555.358C155.365 521.398 189.094 555.393 196.999 576.618C204.905 555.393 238.635 521.432 310.31 555.393C398.149 597.011 382.897 452.804 377.946 397.972C376.189 378.515 376.54 329.697 392 290.076C376.54 250.456 376.189 201.637 377.946 182.181C382.897 127.349 398.149 -16.8584 310.31 24.7599Z" stroke="#3D3D3D" stroke-width="2"/>
<path d="M304.209 38.6426C236.393 70.8185 204.48 38.6099 197.001 18.5C189.521 38.6099 157.607 70.7857 89.7909 38.6099C6.68241 -0.821278 21.1131 135.808 25.7974 187.758C27.4595 206.192 27.1271 252.445 12.5 289.984C27.1271 327.522 27.4595 373.775 25.7974 392.209C21.1131 444.16 6.68241 580.789 89.7909 541.357C157.607 509.182 189.519 541.39 196.999 561.5C204.479 541.39 236.393 509.214 304.209 541.39C387.318 580.821 372.887 444.192 368.203 392.242C366.54 373.808 366.873 327.555 381.5 290.016C366.873 252.478 366.54 206.225 368.203 187.791C372.887 135.84 387.318 -0.788546 304.209 38.6426Z" stroke="#3D3D3D"/>
</svg>
