<svg width="524" height="774" viewBox="0 0 524 774" fill="none" xmlns="http://www.w3.org/2000/svg">
<path d="M413.081 33.3465C317.513 78.6272 272.542 33.3004 262.001 5C251.46 33.3004 206.487 78.5811 110.919 33.3004C-6.19823 -22.1906 14.1376 170.086 20.7388 243.195C23.0812 269.137 22.6127 334.228 2 387.056C22.6127 439.883 23.0812 504.974 20.7388 530.916C14.1376 604.026 -6.19823 796.302 110.919 740.811C206.487 695.53 251.458 740.857 261.999 769.157C272.539 740.857 317.513 695.576 413.081 740.857C530.198 796.348 509.862 604.072 503.261 530.962C500.919 505.02 501.387 439.929 522 387.102C501.387 334.274 500.919 269.183 503.261 243.241C509.862 170.132 530.198 -22.1445 413.081 33.3465Z" stroke="#3D3D3D" stroke-width="3"/>
<path d="M404.946 51.8568C314.524 94.758 271.974 51.8132 262.001 25C252.028 51.8132 209.476 94.7143 119.054 51.8132C8.24321 -0.761703 27.4841 181.41 33.7298 250.678C35.946 275.257 35.5028 336.927 16 386.978C35.5028 437.029 35.946 498.7 33.7298 523.279C27.4841 592.546 8.24321 774.718 119.054 722.143C209.476 679.242 252.026 722.187 261.999 749C271.972 722.187 314.524 679.286 404.946 722.187C515.757 774.762 496.516 592.59 490.27 523.322C488.054 498.743 488.497 437.073 508 387.022C488.497 336.971 488.054 275.3 490.27 250.721C496.516 181.454 515.757 -0.71806 404.946 51.8568Z" stroke="#3D3D3D"/>
</svg>
