<svg width="205" height="282" viewBox="0 0 205 282" fill="none" xmlns="http://www.w3.org/2000/svg">
<path d="M168.086 134.378C173.173 126.313 183.854 101.791 185.887 68.2235C193.514 46.608 215.913 22.4494 194.786 4.64839C173.659 -13.1526 142.374 42.7963 136.016 68.2236C133.768 75.3432 133.214 83.8805 133.539 92.3849C134.095 106.968 137.233 121.454 138.84 128.529C142.202 128.716 146.012 129.326 150.285 130.527C152.535 131.277 154.658 131.895 156.641 132.4C161.272 133.581 165.141 134.153 168.086 134.378Z" fill="#3D3D3D"/>
<path d="M138.84 154.141C127.967 154.744 121.781 150.918 119.769 148.328C114.793 148.538 109.207 148.734 103.238 148.899C95.6087 152.099 79.3335 164.349 75.2647 187.745C72.7217 238.605 87.9797 279.293 104.509 276.75C121.039 274.207 123.582 242.419 123.582 223.347C123.582 208.089 131.871 190.711 136.016 183.93C136.258 174.889 137.149 164.986 138.84 154.141Z" fill="#547629"/>
<path d="M119.769 134.342C121.781 131.752 127.967 127.926 138.84 128.529C137.233 121.454 134.095 106.968 133.539 92.3849C129.797 84.332 121.805 59.3258 119.769 23.7238C117.224 -20.7788 79.0792 5.92468 76.5362 46.6127C73.9932 87.3008 77.8077 108.916 94.3372 124.172C98.1517 127.693 101.966 131.719 103.238 133.585C109.22 133.815 114.809 134.075 119.769 134.342Z" fill="#547629"/>
<path d="M173.659 148.328C173.847 145.349 175.291 142.398 176.987 140.701C175.461 139.175 173.812 136.876 173.166 134.405C172.066 134.521 170.348 134.551 168.086 134.378C165.141 134.153 161.272 133.581 156.641 132.4C154.658 131.895 152.535 131.277 150.285 130.527C146.012 129.326 142.202 128.716 138.84 128.529C127.967 127.926 121.781 131.752 119.769 134.342C114.809 134.075 109.22 133.815 103.238 133.585C61.6833 131.986 1.13718 131.811 0.247986 140.701C-0.643509 149.615 60.9061 150.065 103.238 148.899C109.207 148.734 114.793 148.538 119.769 148.328C121.781 150.918 127.967 154.744 138.84 154.141C142.202 153.954 146.012 153.344 150.285 152.143C157.79 149.641 163.88 148.613 168.086 148.291C170.721 148.09 172.617 148.165 173.659 148.328Z" fill="#DFDFDF"/>
<path fill-rule="evenodd" clip-rule="evenodd" d="M198.602 140.701C195.212 134.344 186.904 122.138 180.801 124.172C175.172 126.048 173.112 128.898 172.901 131.799C172.87 132.222 172.879 132.647 172.922 133.07C172.967 133.518 173.05 133.964 173.166 134.405C173.812 136.876 175.461 139.175 176.987 140.701C175.291 142.398 173.847 145.349 173.659 148.328C173.424 152.051 175.151 155.816 180.801 157.229C188.939 159.263 196.059 147.058 198.602 140.701ZM185.887 134.342C185.887 132.307 184.192 131.799 183.344 131.799C182.497 131.799 180.801 132.307 180.801 134.342C180.801 136.376 182.497 136.885 183.344 136.885C184.192 136.885 185.887 136.376 185.887 134.342ZM185.887 148.328C185.887 146.294 184.192 145.785 183.344 145.785C182.497 145.785 180.801 146.294 180.801 148.328C180.801 150.363 182.497 150.871 183.344 150.871C184.192 150.871 185.887 150.363 185.887 148.328Z" fill="#DFDFDF"/>
<path d="M168.086 148.291C163.88 148.613 157.79 149.641 150.285 152.143C146.012 153.344 142.202 153.954 138.84 154.141C137.149 164.986 136.258 174.889 136.016 183.93C134.261 249.699 166.924 269.889 176.985 275.478C188.428 281.836 193.514 284.379 198.602 275.478C216.403 236.062 187.159 225.89 185.887 206.817C185.887 180.37 174.02 156.78 168.086 148.291Z" fill="#3D3D3D"/>
<path d="M183.344 131.799C184.192 131.799 185.887 132.307 185.887 134.342C185.887 136.376 184.192 136.885 183.344 136.885C182.497 136.885 180.801 136.376 180.801 134.342C180.801 132.307 182.497 131.799 183.344 131.799Z" fill="#3D3D3D"/>
<path d="M183.344 145.785C184.192 145.785 185.887 146.294 185.887 148.328C185.887 150.363 184.192 150.871 183.344 150.871C182.497 150.871 180.801 150.363 180.801 148.328C180.801 146.294 182.497 145.785 183.344 145.785Z" fill="#3D3D3D"/>
<path d="M124.851 163.451C125.43 159.771 115.318 159.668 112.699 159.771C110.585 159.859 108.298 159.944 105.881 160.022C103.425 160.1 100.96 160.559 98.905 161.906C93.6588 165.345 86.443 172.716 84.3408 184.726C82.7203 216.926 92.4428 242.685 102.976 241.075C113.508 239.465 115.129 219.341 115.129 207.266C115.129 200.189 117.964 192.391 120.518 187.04C122.034 183.865 123.069 180.457 123.309 176.947C123.598 172.726 124.101 168.233 124.851 163.451Z" fill="#3D3D3D"/>
<path d="M163.544 162.617C162.017 159.209 158.365 157.359 154.782 158.415C153.945 158.662 153.06 158.953 152.13 159.297C148.991 160.275 146.249 162.704 145.909 165.974C145.528 169.638 145.31 173.083 145.232 176.322C144.383 211.546 160.174 222.36 165.037 225.353C170.569 228.758 173.028 230.12 175.488 225.353C184.093 204.242 169.956 198.794 169.341 188.58C169.341 178.273 166.304 168.777 163.544 162.617Z" fill="#547629"/>
<path d="M124.851 117.953C125.43 121.633 115.318 121.736 112.699 121.633C110.585 121.545 108.298 121.46 105.881 121.383C103.425 121.304 100.96 120.845 98.905 119.498C93.6588 116.059 86.443 108.689 84.3408 96.6786C82.7203 64.4788 92.4428 38.7189 102.976 40.3289C113.508 41.9389 115.129 62.0638 115.129 74.1387C115.129 81.2158 117.964 89.0129 120.518 94.3648C122.034 97.5395 123.069 100.947 123.309 104.457C123.598 108.678 124.101 113.171 124.851 117.953Z" fill="#3D3D3D"/>
<path d="M163.544 118.787C162.017 122.196 158.365 124.046 154.782 122.989C153.945 122.742 153.06 122.451 152.13 122.107C148.991 121.13 146.249 118.7 145.909 115.43C145.528 111.766 145.31 108.321 145.232 105.083C144.383 69.8579 160.174 59.0447 165.037 56.0513C170.569 52.6463 173.028 51.2844 175.488 56.0513C184.093 77.162 169.956 82.6099 169.341 92.8247C169.341 103.131 166.304 112.627 163.544 118.787Z" fill="#547629"/>
<path d="M168.082 136.891C167.658 130.533 170.117 117.818 183.34 117.818C192.495 117.818 193.088 111.885 192.241 108.918" stroke="#DFDFDF" stroke-width="2"/>
<path d="M131.213 130.533C131.637 125.447 129.687 114.513 118.498 111.461" stroke="#DFDFDF" stroke-width="2"/>
<path d="M131.209 153.418C131.209 158.504 128.666 169.185 118.494 171.219" stroke="#DFDFDF" stroke-width="2"/>
<path d="M168.082 145.789C168.082 150.875 170.116 161.301 178.254 162.319C186.391 163.336 191.816 167.828 193.512 169.948" stroke="#DFDFDF" stroke-width="2"/>
</svg>
