<svg width="390" height="258" viewBox="0 0 390 258" fill="none" xmlns="http://www.w3.org/2000/svg">
<path d="M8.19466 7.99052C6.73783 9.67867 2.12454 10.7036 0 11.0051C4.73469 11.7286 6.67713 12.3616 8.19466 13.8689C10.0157 15.6776 10.825 19.9482 11.2297 22.3096C11.3815 20.2497 12.1706 15.6776 14.113 13.8689C16.0555 12.0602 20.3855 11.206 22.3077 11.0051C20.3349 11.1558 15.4872 9.35542 14.113 7.99052C12.292 6.18179 11.5332 2.36335 11.078 0.00195312C10.7745 1.96141 10.0157 5.88033 8.19466 7.99052Z" fill="#3D3D3D"/>
<path d="M60.5033 7.99052C59.0464 9.67867 54.4331 10.7036 52.3086 11.0051C57.0433 11.7286 58.9857 12.3616 60.5033 13.8689C62.3243 15.6776 63.1336 19.9482 63.5383 22.3096C63.6901 20.2497 64.4792 15.6776 66.4216 13.8689C68.3641 12.0602 72.6941 11.206 74.6163 11.0051C72.6435 11.1558 67.7958 9.35542 66.4216 7.99052C64.6006 6.18179 63.8418 2.36335 63.3866 0.00195312C63.0831 1.96141 62.3243 5.88033 60.5033 7.99052Z" fill="#3D3D3D"/>
<path d="M112.812 7.99052C111.355 9.67867 106.742 10.7036 104.617 11.0051C109.352 11.7286 111.294 12.3616 112.812 13.8689C114.633 15.6776 115.442 19.9482 115.847 22.3096C115.999 20.2497 116.788 15.6776 118.73 13.8689C120.673 12.0602 125.003 11.206 126.925 11.0051C124.952 11.1558 120.104 9.35542 118.73 7.99052C116.909 6.18179 116.15 2.36335 115.695 0.00195312C115.392 1.96141 114.633 5.88033 112.812 7.99052Z" fill="#3D3D3D"/>
<path d="M165.117 7.99052C163.66 9.67867 159.046 10.7036 156.922 11.0051C161.657 11.7286 163.599 12.3616 165.117 13.8689C166.938 15.6776 167.747 19.9482 168.152 22.3096C168.303 20.2497 169.092 15.6776 171.035 13.8689C172.977 12.0602 177.307 11.206 179.23 11.0051C177.257 11.1558 172.409 9.35542 171.035 7.99052C169.214 6.18179 168.455 2.36335 168 0.00195312C167.696 1.96141 166.938 5.88033 165.117 7.99052Z" fill="#3D3D3D"/>
<path d="M217.425 7.99052C215.968 9.67867 211.355 10.7036 209.23 11.0051C213.965 11.7286 215.908 12.3616 217.425 13.8689C219.246 15.6776 220.056 19.9482 220.46 22.3096C220.612 20.2497 221.401 15.6776 223.344 13.8689C225.286 12.0602 229.616 11.206 231.538 11.0051C229.565 11.1558 224.718 9.35542 223.344 7.99052C221.522 6.18179 220.764 2.36335 220.308 0.00195312C220.005 1.96141 219.246 5.88033 217.425 7.99052Z" fill="#3D3D3D"/>
<path d="M269.73 7.99052C268.273 9.67867 263.66 10.7036 261.535 11.0051C266.27 11.7286 268.212 12.3616 269.73 13.8689C271.551 15.6776 272.36 19.9482 272.765 22.3096C272.917 20.2497 273.706 15.6776 275.648 13.8689C277.591 12.0602 281.921 11.206 283.843 11.0051C281.87 11.1558 277.022 9.35542 275.648 7.99052C273.827 6.18179 273.068 2.36335 272.613 0.00195312C272.31 1.96141 271.551 5.88033 269.73 7.99052Z" fill="#3D3D3D"/>
<path d="M322.04 7.99052C320.584 9.67867 315.97 10.7036 313.846 11.0051C318.58 11.7286 320.523 12.3616 322.04 13.8689C323.861 15.6776 324.671 19.9482 325.075 22.3096C325.227 20.2497 326.016 15.6776 327.959 13.8689C329.901 12.0602 334.231 11.206 336.153 11.0051C334.181 11.1558 329.333 9.35542 327.959 7.99052C326.138 6.18179 325.379 2.36335 324.924 0.00195312C324.62 1.96141 323.861 5.88033 322.04 7.99052Z" fill="#3D3D3D"/>
<path d="M380.472 8.19662C378.784 6.73979 377.759 2.1265 377.458 0.00195313C376.734 4.73665 376.101 6.67909 374.594 8.19662C372.785 10.0177 368.515 10.827 366.153 11.2317C368.213 11.3834 372.785 12.1725 374.594 14.115C376.403 16.0574 377.257 20.3874 377.458 22.3096C377.307 20.3369 379.107 15.4892 380.472 14.115C382.281 12.2939 386.1 11.5352 388.461 11.0799C386.501 10.7764 382.583 10.0177 380.472 8.19662Z" fill="#3D3D3D"/>
<path d="M382.011 60.5052C380.323 59.0484 379.298 54.4351 378.997 52.3105C378.273 57.0452 377.64 58.9877 376.133 60.5052C374.324 62.3262 370.054 63.1356 367.692 63.5403C369.752 63.692 374.324 64.4811 376.133 66.4236C377.942 68.366 378.796 72.696 378.997 74.6182C378.846 72.6455 380.647 67.7978 382.011 66.4236C383.82 64.6025 387.639 63.8438 390 63.3885C388.041 63.085 384.122 62.3262 382.011 60.5052Z" fill="#3D3D3D"/>
<path d="M382.011 112.81C380.323 111.353 379.298 106.74 378.997 104.615C378.273 109.35 377.64 111.292 376.133 112.81C374.324 114.631 370.054 115.44 367.692 115.845C369.752 115.997 374.324 116.786 376.133 118.728C377.942 120.671 378.796 125.001 378.997 126.923C378.846 124.95 380.647 120.102 382.011 118.728C383.82 116.907 387.639 116.148 390 115.693C388.041 115.39 384.122 114.631 382.011 112.81Z" fill="#3D3D3D"/>
<path d="M382.011 165.118C380.323 163.662 379.298 159.048 378.997 156.924C378.273 161.659 377.64 163.601 376.133 165.118C374.324 166.94 370.054 167.749 367.692 168.154C369.752 168.305 374.324 169.094 376.133 171.037C377.942 172.979 378.796 177.309 378.997 179.232C378.846 177.259 380.647 172.411 382.011 171.037C383.82 169.216 387.639 168.457 390 168.002C388.041 167.698 384.122 166.94 382.011 165.118Z" fill="#3D3D3D"/>
<path d="M382.011 217.427C380.323 215.97 379.298 211.357 378.997 209.232C378.273 213.967 377.64 215.91 376.133 217.427C374.324 219.248 370.054 220.057 367.692 220.462C369.752 220.614 374.324 221.403 376.133 223.345C377.942 225.288 378.796 229.618 378.997 231.54C378.846 229.567 380.647 224.72 382.011 223.345C383.82 221.524 387.639 220.766 390 220.31C388.041 220.007 384.122 219.248 382.011 217.427Z" fill="#3D3D3D"/>
<path d="M380.472 243.622C378.784 242.166 377.759 237.552 377.458 235.428C376.734 240.162 376.101 242.105 374.594 243.622C372.785 245.443 368.515 246.253 366.153 246.657C368.213 246.809 372.785 247.598 374.594 249.541C376.403 251.483 377.257 255.813 377.458 257.735C377.307 255.763 379.107 250.915 380.472 249.541C382.281 247.72 386.1 246.961 388.461 246.506C386.501 246.202 382.583 245.443 380.472 243.622Z" fill="#3D3D3D"/>
<path d="M328.168 243.622C326.48 242.166 325.455 237.552 325.153 235.428C324.43 240.162 323.797 242.105 322.289 243.622C320.481 245.443 316.21 246.253 313.849 246.657C315.909 246.809 320.481 247.598 322.289 249.541C324.098 251.483 324.952 255.813 325.153 257.735C325.002 255.763 326.803 250.915 328.168 249.541C329.976 247.72 333.795 246.961 336.156 246.506C334.197 246.202 330.278 245.443 328.168 243.622Z" fill="#3D3D3D"/>
<path d="M275.857 243.622C274.169 242.166 273.144 237.552 272.843 235.428C272.119 240.162 271.486 242.105 269.979 243.622C268.17 245.443 263.899 246.253 261.538 246.657C263.598 246.809 268.17 247.598 269.979 249.541C271.787 251.483 272.642 255.813 272.843 257.735C272.692 255.763 274.492 250.915 275.857 249.541C277.666 247.72 281.484 246.961 283.846 246.506C281.886 246.202 277.967 245.443 275.857 243.622Z" fill="#3D3D3D"/>
<path d="M223.55 243.622C221.862 242.166 220.837 237.552 220.536 235.428C219.812 240.162 219.179 242.105 217.672 243.622C215.863 245.443 211.593 246.253 209.231 246.657C211.291 246.809 215.863 247.598 217.672 249.541C219.481 251.483 220.335 255.813 220.536 257.735C220.385 255.763 222.186 250.915 223.55 249.541C225.359 247.72 229.178 246.961 231.539 246.506C229.58 246.202 225.661 245.443 223.55 243.622Z" fill="#3D3D3D"/>
<path d="M171.242 243.622C169.554 242.166 168.529 237.552 168.227 235.428C167.504 240.162 166.871 242.105 165.364 243.622C163.555 245.443 159.284 246.253 156.923 246.657C158.983 246.809 163.555 247.598 165.364 249.541C167.172 251.483 168.026 255.813 168.227 257.735C168.077 255.763 169.877 250.915 171.242 249.541C173.051 247.72 176.869 246.961 179.23 246.506C177.271 246.202 173.352 245.443 171.242 243.622Z" fill="#3D3D3D"/>
<path d="M118.933 243.622C117.245 242.166 116.22 237.552 115.919 235.428C115.195 240.162 114.562 242.105 113.055 243.622C111.246 245.443 106.976 246.253 104.614 246.657C106.674 246.809 111.246 247.598 113.055 249.541C114.864 251.483 115.718 255.813 115.919 257.735C115.768 255.763 117.568 250.915 118.933 249.541C120.742 247.72 124.56 246.961 126.922 246.506C124.962 246.202 121.043 245.443 118.933 243.622Z" fill="#3D3D3D"/>
<path d="M66.6286 243.622C64.9405 242.166 63.9155 237.552 63.6141 235.428C62.8906 240.162 62.2575 242.105 60.7502 243.622C58.9415 245.443 54.6709 246.253 52.3095 246.657C54.3694 246.809 58.9415 247.598 60.7502 249.541C62.559 251.483 63.4131 255.813 63.6141 257.735C63.4633 255.763 65.2637 250.915 66.6286 249.541C68.4374 247.72 72.2558 246.961 74.6172 246.506C72.6577 246.202 68.7388 245.443 66.6286 243.622Z" fill="#3D3D3D"/>
<path d="M14.1139 249.748C15.5708 248.06 20.1841 247.035 22.3086 246.733C17.5739 246.01 15.6315 245.377 14.1139 243.869C12.2929 242.061 11.4835 237.79 11.0789 235.429C10.9271 237.489 10.138 242.061 8.19556 243.869C6.25312 245.678 1.92311 246.532 0.000900269 246.733C1.97369 246.582 6.82138 248.383 8.19556 249.748C10.0166 251.556 10.7754 255.375 11.2306 257.736C11.5341 255.777 12.2929 251.858 14.1139 249.748Z" fill="#3D3D3D"/>
<path d="M14.1139 223.554C15.5708 221.866 20.1841 220.841 22.3086 220.54C17.5739 219.816 15.6315 219.183 14.1139 217.676C12.2929 215.867 11.4835 211.597 11.0789 209.235C10.9271 211.295 10.138 215.867 8.19556 217.676C6.25312 219.485 1.92311 220.339 0.000900269 220.54C1.97369 220.389 6.82138 222.19 8.19556 223.554C10.0166 225.363 10.7754 229.182 11.2306 231.543C11.5341 229.584 12.2929 225.665 14.1139 223.554Z" fill="#3D3D3D"/>
<path d="M14.1139 197.4C15.5708 195.712 20.1841 194.687 22.3086 194.386C17.5739 193.662 15.6315 193.029 14.1139 191.522C12.2929 189.713 11.4835 185.442 11.0789 183.081C10.9271 185.141 10.138 189.713 8.19556 191.522C6.25312 193.33 1.92311 194.185 0.000900269 194.386C1.97369 194.235 6.82138 196.035 8.19556 197.4C10.0166 199.209 10.7754 203.027 11.2306 205.389C11.5341 203.429 12.2929 199.51 14.1139 197.4Z" fill="#3D3D3D"/>
<path d="M14.1139 171.244C15.5708 169.556 20.1841 168.531 22.3086 168.229C17.5739 167.506 15.6315 166.873 14.1139 165.365C12.2929 163.557 11.4835 159.286 11.0789 156.925C10.9271 158.985 10.138 163.557 8.19556 165.365C6.25312 167.174 1.92311 168.028 0.000900269 168.229C1.97369 168.079 6.82138 169.879 8.19556 171.244C10.0166 173.053 10.7754 176.871 11.2306 179.232C11.5341 177.273 12.2929 173.354 14.1139 171.244Z" fill="#3D3D3D"/>
<path d="M14.1139 145.088C15.5708 143.399 20.1841 142.375 22.3086 142.073C17.5739 141.35 15.6315 140.717 14.1139 139.209C12.2929 137.4 11.4835 133.13 11.0789 130.768C10.9271 132.828 10.138 137.4 8.19556 139.209C6.25312 141.018 1.92311 141.872 0.000900269 142.073C1.97369 141.922 6.82138 143.723 8.19556 145.088C10.0166 146.896 10.7754 150.715 11.2306 153.076C11.5341 151.117 12.2929 147.198 14.1139 145.088Z" fill="#3D3D3D"/>
<path d="M14.1139 118.937C15.5708 117.249 20.1841 116.224 22.3086 115.923C17.5739 115.199 15.6315 114.566 14.1139 113.059C12.2929 111.25 11.4835 106.979 11.0789 104.618C10.9271 106.678 10.138 111.25 8.19556 113.059C6.25312 114.868 1.92311 115.722 0.000900269 115.923C1.97369 115.772 6.82138 117.572 8.19556 118.937C10.0166 120.746 10.7754 124.564 11.2306 126.926C11.5341 124.966 12.2929 121.047 14.1139 118.937Z" fill="#3D3D3D"/>
<path d="M14.1139 92.7849C15.5708 91.0967 20.1841 90.0718 22.3086 89.7703C17.5739 89.0468 15.6315 88.4138 14.1139 86.9065C12.2929 85.0978 11.4835 80.8271 11.0789 78.4657C10.9271 80.5257 10.138 85.0978 8.19556 86.9065C6.25312 88.7152 1.92311 89.5693 0.000900269 89.7703C1.97369 89.6196 6.82138 91.42 8.19556 92.7849C10.0166 94.5936 10.7754 98.412 11.2306 100.773C11.5341 98.814 12.2929 94.8951 14.1139 92.7849Z" fill="#3D3D3D"/>
<path d="M14.1139 66.6286C15.5708 64.9405 20.1841 63.9155 22.3086 63.6141C17.5739 62.8906 15.6315 62.2575 14.1139 60.7502C12.2929 58.9415 11.4835 54.6709 11.0789 52.3095C10.9271 54.3694 10.138 58.9415 8.19556 60.7502C6.25312 62.559 1.92311 63.4131 0.000900269 63.6141C1.97369 63.4633 6.82138 65.2637 8.19556 66.6286C10.0166 68.4374 10.7754 72.2558 11.2306 74.6172C11.5341 72.6577 12.2929 68.7388 14.1139 66.6286Z" fill="#3D3D3D"/>
<path d="M14.1139 40.4743C15.5708 38.7862 20.1841 37.7612 22.3086 37.4598C17.5739 36.7363 15.6315 36.1032 14.1139 34.5959C12.2929 32.7872 11.4835 28.5166 11.0789 26.1552C10.9271 28.2151 10.138 32.7872 8.19556 34.5959C6.25312 36.4047 1.92311 37.2588 0.000900269 37.4598C1.97369 37.309 6.82138 39.1094 8.19556 40.4743C10.0166 42.2831 10.7754 46.1015 11.2306 48.4629C11.5341 46.5034 12.2929 42.5845 14.1139 40.4743Z" fill="#3D3D3D"/>
<path d="M34.347 7.99052C32.8902 9.67867 28.2769 10.7036 26.1523 11.0051C30.887 11.7286 32.8295 12.3616 34.347 13.8689C36.168 15.6776 36.9774 19.9482 37.3821 22.3096C37.5338 20.2497 38.3229 15.6776 40.2654 13.8689C42.2078 12.0602 46.5378 11.206 48.46 11.0051C46.4872 11.1558 41.6396 9.35542 40.2654 7.99052C38.4443 6.18179 37.6856 2.36335 37.2303 0.00195312C36.9268 1.96141 36.168 5.88033 34.347 7.99052Z" fill="#3D3D3D"/>
<path d="M86.6556 7.99052C85.1988 9.67867 80.5855 10.7036 78.4609 11.0051C83.1956 11.7286 85.1381 12.3616 86.6556 13.8689C88.4766 15.6776 89.286 19.9482 89.6907 22.3096C89.8424 20.2497 90.6315 15.6776 92.574 13.8689C94.5164 12.0602 98.8464 11.206 100.769 11.0051C98.7958 11.1558 93.9482 9.35542 92.574 7.99052C90.7529 6.18179 89.9942 2.36335 89.5389 0.00195312C89.2354 1.96141 88.4766 5.88033 86.6556 7.99052Z" fill="#3D3D3D"/>
<path d="M138.964 7.99052C137.507 9.67867 132.894 10.7036 130.77 11.0051C135.504 11.7286 137.447 12.3616 138.964 13.8689C140.785 15.6776 141.595 19.9482 141.999 22.3096C142.151 20.2497 142.94 15.6776 144.883 13.8689C146.825 12.0602 151.155 11.206 153.077 11.0051C151.104 11.1558 146.257 9.35542 144.883 7.99052C143.062 6.18179 142.303 2.36335 141.848 0.00195312C141.544 1.96141 140.785 5.88033 138.964 7.99052Z" fill="#3D3D3D"/>
<path d="M191.273 7.99052C189.816 9.67867 185.203 10.7036 183.078 11.0051C187.813 11.7286 189.755 12.3616 191.273 13.8689C193.094 15.6776 193.903 19.9482 194.308 22.3096C194.46 20.2497 195.249 15.6776 197.191 13.8689C199.134 12.0602 203.464 11.206 205.386 11.0051C203.413 11.1558 198.565 9.35542 197.191 7.99052C195.37 6.18179 194.611 2.36335 194.156 0.00195312C193.853 1.96141 193.094 5.88033 191.273 7.99052Z" fill="#3D3D3D"/>
<path d="M243.579 7.99052C242.123 9.67867 237.509 10.7036 235.385 11.0051C240.119 11.7286 242.062 12.3616 243.579 13.8689C245.4 15.6776 246.21 19.9482 246.614 22.3096C246.766 20.2497 247.555 15.6776 249.498 13.8689C251.44 12.0602 255.77 11.206 257.692 11.0051C255.72 11.1558 250.872 9.35542 249.498 7.99052C247.677 6.18179 246.918 2.36335 246.463 0.00195312C246.159 1.96141 245.4 5.88033 243.579 7.99052Z" fill="#3D3D3D"/>
<path d="M295.886 7.99052C294.429 9.67867 289.816 10.7036 287.691 11.0051C292.426 11.7286 294.369 12.3616 295.886 13.8689C297.707 15.6776 298.516 19.9482 298.921 22.3096C299.073 20.2497 299.862 15.6776 301.804 13.8689C303.747 12.0602 308.077 11.206 309.999 11.0051C308.026 11.1558 303.179 9.35542 301.804 7.99052C299.983 6.18179 299.225 2.36335 298.769 0.00195312C298.466 1.96141 297.707 5.88033 295.886 7.99052Z" fill="#3D3D3D"/>
<path d="M348.195 7.99052C346.738 9.67867 342.125 10.7036 340 11.0051C344.735 11.7286 346.677 12.3616 348.195 13.8689C350.016 15.6776 350.825 19.9482 351.23 22.3096C351.381 20.2497 352.171 15.6776 354.113 13.8689C356.055 12.0602 360.385 11.206 362.308 11.0051C360.335 11.1558 355.487 9.35542 354.113 7.99052C352.292 6.18179 351.533 2.36335 351.078 0.00195312C350.774 1.96141 350.016 5.88033 348.195 7.99052Z" fill="#3D3D3D"/>
<path d="M382.011 34.349C380.323 32.8921 379.298 28.2788 378.997 26.1543C378.273 30.889 377.64 32.8314 376.133 34.349C374.324 36.17 370.054 36.9793 367.692 37.384C369.752 37.5358 374.324 38.3249 376.133 40.2673C377.942 42.2098 378.796 46.5398 378.997 48.462C378.846 46.4892 380.647 41.6415 382.011 40.2673C383.82 38.4463 387.639 37.6875 390 37.2323C388.041 36.9288 384.122 36.17 382.011 34.349Z" fill="#3D3D3D"/>
<path d="M382.011 86.6556C380.323 85.1988 379.298 80.5855 378.997 78.4609C378.273 83.1956 377.64 85.1381 376.133 86.6556C374.324 88.4766 370.054 89.286 367.692 89.6907C369.752 89.8424 374.324 90.6315 376.133 92.574C377.942 94.5164 378.796 98.8464 378.997 100.769C378.846 98.7958 380.647 93.9482 382.011 92.574C383.82 90.7529 387.639 89.9942 390 89.5389C388.041 89.2354 384.122 88.4766 382.011 86.6556Z" fill="#3D3D3D"/>
<path d="M382.011 138.966C380.323 137.509 379.298 132.896 378.997 130.771C378.273 135.506 377.64 137.449 376.133 138.966C374.324 140.787 370.054 141.597 367.692 142.001C369.752 142.153 374.324 142.942 376.133 144.885C377.942 146.827 378.796 151.157 378.997 153.079C378.846 151.106 380.647 146.259 382.011 144.885C383.82 143.063 387.639 142.305 390 141.849C388.041 141.546 384.122 140.787 382.011 138.966Z" fill="#3D3D3D"/>
<path d="M382.011 191.273C380.323 189.816 379.298 185.203 378.997 183.078C378.273 187.813 377.64 189.755 376.133 191.273C374.324 193.094 370.054 193.903 367.692 194.308C369.752 194.46 374.324 195.249 376.133 197.191C377.942 199.134 378.796 203.464 378.997 205.386C378.846 203.413 380.647 198.565 382.011 197.191C383.82 195.37 387.639 194.611 390 194.156C388.041 193.853 384.122 193.094 382.011 191.273Z" fill="#3D3D3D"/>
<path d="M354.32 243.622C352.632 242.166 351.607 237.552 351.305 235.428C350.582 240.162 349.949 242.105 348.442 243.622C346.633 245.443 342.362 246.253 340.001 246.657C342.061 246.809 346.633 247.598 348.442 249.541C350.25 251.483 351.105 255.813 351.305 257.735C351.155 255.763 352.955 250.915 354.32 249.541C356.129 247.72 359.947 246.961 362.309 246.506C360.349 246.202 356.43 245.443 354.32 243.622Z" fill="#3D3D3D"/>
<path d="M302.011 243.622C300.323 242.166 299.298 237.552 298.997 235.428C298.273 240.162 297.64 242.105 296.133 243.622C294.324 245.443 290.054 246.253 287.692 246.657C289.752 246.809 294.324 247.598 296.133 249.541C297.942 251.483 298.796 255.813 298.997 257.735C298.846 255.763 300.647 250.915 302.011 249.541C303.82 247.72 307.639 246.961 310 246.506C308.041 246.202 304.122 245.443 302.011 243.622Z" fill="#3D3D3D"/>
<path d="M249.703 243.622C248.015 242.166 246.99 237.552 246.688 235.428C245.965 240.162 245.332 242.105 243.824 243.622C242.016 245.443 237.745 246.253 235.384 246.657C237.444 246.809 242.016 247.598 243.824 249.541C245.633 251.483 246.487 255.813 246.688 257.735C246.538 255.763 248.338 250.915 249.703 249.541C251.512 247.72 255.33 246.961 257.691 246.506C255.732 246.202 251.813 245.443 249.703 243.622Z" fill="#3D3D3D"/>
<path d="M197.396 243.622C195.708 242.166 194.683 237.552 194.382 235.428C193.658 240.162 193.025 242.105 191.518 243.622C189.709 245.443 185.438 246.253 183.077 246.657C185.137 246.809 189.709 247.598 191.518 249.541C193.327 251.483 194.181 255.813 194.382 257.735C194.231 255.763 196.031 250.915 197.396 249.541C199.205 247.72 203.023 246.961 205.385 246.506C203.425 246.202 199.506 245.443 197.396 243.622Z" fill="#3D3D3D"/>
<path d="M145.088 243.622C143.399 242.166 142.375 237.552 142.073 235.428C141.35 240.162 140.717 242.105 139.209 243.622C137.4 245.443 133.13 246.253 130.768 246.657C132.828 246.809 137.4 247.598 139.209 249.541C141.018 251.483 141.872 255.813 142.073 257.735C141.922 255.763 143.723 250.915 145.088 249.541C146.896 247.72 150.715 246.961 153.076 246.506C151.117 246.202 147.198 245.443 145.088 243.622Z" fill="#3D3D3D"/>
<path d="M92.781 243.622C91.0928 242.166 90.0679 237.552 89.7664 235.428C89.0429 240.162 88.4099 242.105 86.9026 243.622C85.0939 245.443 80.8232 246.253 78.4618 246.657C80.5218 246.809 85.0939 247.598 86.9026 249.541C88.7113 251.483 89.5654 255.813 89.7664 257.735C89.6157 255.763 91.4161 250.915 92.781 249.541C94.5897 247.72 98.4081 246.961 100.77 246.506C98.8101 246.202 94.8912 245.443 92.781 243.622Z" fill="#3D3D3D"/>
<path d="M40.4724 243.622C38.7842 242.166 37.7593 237.552 37.4578 235.428C36.7343 240.162 36.1013 242.105 34.594 243.622C32.7853 245.443 28.5146 246.253 26.1532 246.657C28.2132 246.809 32.7853 247.598 34.594 249.541C36.4027 251.483 37.2568 255.813 37.4578 257.735C37.3071 255.763 39.1075 250.915 40.4724 249.541C42.2811 247.72 46.0995 246.961 48.4609 246.506C46.5015 246.202 42.5826 245.443 40.4724 243.622Z" fill="#3D3D3D"/>
<path d="M35.6991 40.7014C35.6991 40.8005 35.6991 40.9174 35.6991 41.0519C35.6991 41.1793 35.7026 41.3138 35.7097 41.4554C35.7239 41.59 35.7416 41.7209 35.7628 41.8484C35.7911 41.9688 35.8265 42.075 35.869 42.167V42.2307L35.8478 42.252H34.361C34.3539 42.252 34.3397 42.2484 34.3185 42.2413C34.3043 42.2343 34.2937 42.2307 34.2866 42.2307V42.167C34.3291 42.082 34.361 41.9758 34.3822 41.8484C34.4105 41.7209 34.4318 41.59 34.4459 41.4554C34.4672 41.3138 34.4813 41.1793 34.4884 41.0519C34.4955 40.9174 34.499 40.8005 34.499 40.7014V34.6904C34.499 34.6055 34.4955 34.4922 34.4884 34.3506C34.4813 34.209 34.4672 34.0638 34.4459 33.9152C34.4318 33.7665 34.4105 33.6249 34.3822 33.4904C34.3539 33.3558 34.3185 33.2532 34.276 33.1824L34.361 33.1399H35.8265L35.8903 33.1824C35.8478 33.239 35.8124 33.3346 35.7841 33.4691C35.7628 33.6036 35.7451 33.7488 35.731 33.9045C35.7168 34.0603 35.7062 34.2125 35.6991 34.3612C35.6991 34.5028 35.6991 34.6125 35.6991 34.6904V37.0056H40.5419V34.6904C40.5419 34.5913 40.5383 34.4745 40.5312 34.34C40.5312 34.2054 40.5206 34.0709 40.4994 33.9364C40.4852 33.7948 40.464 33.6603 40.4357 33.5328C40.4073 33.4054 40.3719 33.2992 40.3295 33.2142V33.1611C40.3365 33.1611 40.3472 33.1576 40.3613 33.1505C40.3826 33.1434 40.3967 33.1399 40.4038 33.1399H41.8588L41.9437 33.1824C41.9012 33.2461 41.8658 33.3452 41.8375 33.4797C41.8092 33.6072 41.788 33.7488 41.7738 33.9045C41.7596 34.0603 41.749 34.209 41.7419 34.3506C41.7419 34.4922 41.7419 34.6055 41.7419 34.6904V40.7014C41.7419 40.8076 41.7419 40.928 41.7419 41.0625C41.749 41.1899 41.7561 41.3209 41.7632 41.4554C41.7773 41.5829 41.795 41.7103 41.8163 41.8378C41.8446 41.9652 41.88 42.075 41.9225 42.167V42.2307L41.9012 42.252H40.4038C40.3967 42.252 40.3826 42.2484 40.3613 42.2413C40.3472 42.2343 40.3365 42.2307 40.3295 42.2307V42.167C40.3719 42.075 40.4073 41.9688 40.4357 41.8484C40.464 41.7209 40.4852 41.59 40.4994 41.4554C40.5206 41.3138 40.5312 41.1793 40.5312 41.0519C40.5383 40.9174 40.5419 40.8005 40.5419 40.7014V37.6959H35.6991V40.7014ZM48.337 35.5188C48.337 35.3064 48.3158 35.094 48.2733 34.8816C48.2308 34.6692 48.1565 34.4745 48.0503 34.2975C47.9512 34.1205 47.8167 33.9789 47.6467 33.8727C47.4768 33.7594 47.2679 33.7028 47.0201 33.7028C46.921 33.7028 46.8184 33.7205 46.7122 33.7559C46.613 33.7842 46.5139 33.8196 46.4148 33.8621C46.3157 33.8975 46.2201 33.9329 46.1281 33.9683C46.036 33.9966 45.9475 34.0107 45.8625 34.0107C45.7988 34.0107 45.767 33.9789 45.767 33.9152C45.767 33.8798 45.774 33.8337 45.7882 33.7771C45.8094 33.7205 45.8342 33.6638 45.8625 33.6072C45.8909 33.5435 45.9192 33.4833 45.9475 33.4266C45.9758 33.37 45.9971 33.324 46.0112 33.2886L46.0962 33.2461C46.1882 33.2886 46.2874 33.3098 46.3936 33.3098C46.4998 33.3098 46.6024 33.2992 46.7015 33.278C46.8077 33.2496 46.9104 33.2213 47.0095 33.193C47.1086 33.1576 47.2078 33.1257 47.3069 33.0974C47.4131 33.0691 47.5193 33.0549 47.6255 33.0549C47.9866 33.0549 48.291 33.1293 48.5388 33.278C48.7866 33.4266 48.9849 33.6213 49.1335 33.8621C49.2893 34.0957 49.399 34.3647 49.4628 34.6692C49.5336 34.9736 49.569 35.2816 49.569 35.5931V40.1492C49.569 40.4253 49.5902 40.6342 49.6327 40.7758C49.6823 40.9103 49.7495 41.0236 49.8345 41.1156C49.9265 41.2006 50.0363 41.2855 50.1637 41.3705C50.2911 41.4484 50.4398 41.5687 50.6097 41.7316C50.5814 41.7599 50.5283 41.8165 50.4504 41.9015C50.3796 41.9794 50.2982 42.0608 50.2062 42.1458C50.1212 42.2307 50.0398 42.3051 49.9619 42.3688C49.8911 42.4396 49.8416 42.475 49.8132 42.475C49.7 42.475 49.5796 42.436 49.4521 42.3582C49.3318 42.2874 49.215 42.1989 49.1017 42.0927C48.9884 41.9794 48.8857 41.8625 48.7937 41.7422C48.7087 41.6218 48.645 41.5121 48.6025 41.413C48.199 41.6962 47.7671 41.944 47.3069 42.1564C46.8467 42.3688 46.3617 42.475 45.8519 42.475C45.5192 42.475 45.2076 42.4219 44.9174 42.3157C44.6271 42.2166 44.3722 42.0714 44.1527 41.8802C43.9332 41.682 43.7598 41.4448 43.6323 41.1687C43.5049 40.8926 43.4412 40.5846 43.4412 40.2448C43.4412 39.8199 43.512 39.4589 43.6536 39.1615C43.7952 38.8571 43.9863 38.6022 44.2271 38.3969C44.4749 38.1915 44.7616 38.0287 45.0873 37.9083C45.42 37.788 45.774 37.6924 46.1493 37.6216C46.5458 37.5437 46.921 37.4446 47.275 37.3242C47.6361 37.1968 47.9901 37.0304 48.337 36.8251V35.5188ZM48.422 40.8713C48.3724 40.6235 48.337 40.3722 48.3158 40.1173C48.3016 39.8624 48.2946 39.6075 48.2946 39.3527C48.2946 39.0411 48.3016 38.7367 48.3158 38.4393C48.33 38.1349 48.337 37.8269 48.337 37.5154C48.0892 37.6216 47.8308 37.7136 47.5618 37.7915C47.2927 37.8694 47.0272 37.9508 46.7653 38.0358C46.5104 38.1136 46.2626 38.2057 46.0219 38.3119C45.7882 38.4181 45.5793 38.5526 45.3953 38.7155C45.2183 38.8783 45.0767 39.0836 44.9705 39.3314C44.8643 39.5721 44.8112 39.8695 44.8112 40.2235C44.8112 40.443 44.8466 40.6483 44.9174 40.8395C44.9952 41.0306 45.1014 41.197 45.236 41.3386C45.3705 41.4802 45.5298 41.5935 45.7139 41.6785C45.8979 41.7563 46.1033 41.7953 46.3298 41.7953C46.7051 41.7953 47.0803 41.7068 47.4556 41.5298C47.8308 41.3457 48.153 41.1262 48.422 40.8713ZM51.8735 33.2461L51.8948 33.1824L51.9266 33.1611H53.3179C53.3533 33.1611 53.3781 33.2001 53.3922 33.278C53.4064 33.3488 53.4135 33.4337 53.4135 33.5328C53.4135 33.6249 53.4099 33.7169 53.4028 33.809C53.3958 33.901 53.3922 33.9612 53.3922 33.9895C53.7604 33.6921 54.1675 33.4514 54.6135 33.2673C55.0596 33.0833 55.5233 32.9912 56.0048 32.9912C56.5995 32.9912 57.1447 33.1187 57.6403 33.3735C58.1429 33.6213 58.5748 33.9541 58.9359 34.3718C59.297 34.7896 59.5767 35.2675 59.7749 35.8055C59.9802 36.3436 60.0829 36.8959 60.0829 37.4623C60.0829 37.8375 60.0404 38.2198 59.9554 38.6093C59.8705 38.9987 59.743 39.3774 59.5731 39.7456C59.4103 40.1138 59.2085 40.4607 58.9678 40.7864C58.7341 41.1121 58.4651 41.3953 58.1606 41.636C57.8633 41.8767 57.5305 42.0679 57.1624 42.2095C56.8013 42.3511 56.4154 42.4219 56.0048 42.4219C55.5516 42.4219 55.1056 42.3652 54.6666 42.252C54.2277 42.1458 53.8135 41.9723 53.4241 41.7316V44.6946C53.4241 45.0132 53.4878 45.3141 53.6152 45.5973V45.6504L53.5621 45.7035H51.9266L51.8735 45.5973C52.0364 45.3141 52.1178 45.0132 52.1178 44.6946L52.0541 34.1488C52.0541 33.993 52.0435 33.8408 52.0222 33.6921C52.001 33.5364 51.9514 33.3877 51.8735 33.2461ZM53.4135 40.8713C53.7533 41.1899 54.1427 41.4271 54.5817 41.5829C55.0206 41.7386 55.4702 41.8165 55.9304 41.8165C56.3906 41.8165 56.7942 41.6891 57.1411 41.4342C57.488 41.1722 57.7748 40.8466 58.0013 40.4572C58.235 40.0677 58.4084 39.6465 58.5217 39.1934C58.6421 38.7402 58.7023 38.319 58.7023 37.9296C58.7023 37.6393 58.6775 37.3348 58.6279 37.0162C58.5854 36.6906 58.5146 36.3719 58.4155 36.0604C58.3235 35.7418 58.2031 35.4409 58.0544 35.1577C57.9058 34.8745 57.7217 34.6267 57.5022 34.4143C57.2898 34.1948 57.042 34.0214 56.7588 33.8939C56.4827 33.7665 56.1676 33.7028 55.8136 33.7028C55.3676 33.7028 54.9357 33.7948 54.5179 33.9789C54.1073 34.163 53.7321 34.3931 53.3922 34.6692L53.4135 40.8713ZM68.8657 42.1882V42.252H67.347L67.3364 42.1882C67.4072 42.0042 67.4639 41.8165 67.5063 41.6254C67.5488 41.4271 67.5701 41.2253 67.5701 41.02V34.9559L61.8671 42.7617L61.8352 42.783L61.7821 42.7086V34.17C61.7821 33.993 61.7609 33.8231 61.7184 33.6603C61.683 33.4904 61.6653 33.3169 61.6653 33.1399C61.6794 33.1399 61.6865 33.1399 61.6865 33.1399C61.6936 33.1328 61.7042 33.1293 61.7184 33.1293H63.1309C63.1663 33.1293 63.191 33.1328 63.2052 33.1399V33.2142C63.1273 33.3983 63.0636 33.5859 63.014 33.7771C62.9716 33.9683 62.9503 34.163 62.9503 34.3612V40.3297L67.5913 33.8302C67.7188 33.6603 67.7825 33.4656 67.7825 33.2461L67.8462 33.1824H68.9507L69.0038 33.2142L68.6533 33.7983L68.6746 41.02C68.6746 41.2183 68.6852 41.4165 68.7064 41.6147C68.7347 41.813 68.7878 42.0042 68.8657 42.1882ZM75.2378 33.6603C74.7068 33.6603 74.2324 33.7806 73.8147 34.0214C73.397 34.255 73.043 34.563 72.7527 34.9453C72.4695 35.3206 72.25 35.7489 72.0942 36.2303C71.9456 36.7047 71.8712 37.1862 71.8712 37.6747C71.8712 38.2906 71.9668 38.8606 72.158 39.3845C72.3491 39.9014 72.6217 40.351 72.9757 40.7333C73.3368 41.1085 73.7687 41.4023 74.2714 41.6147C74.7811 41.8271 75.3511 41.9333 75.9812 41.9333C76.321 41.9333 76.6538 41.8802 76.9795 41.774C77.3123 41.6678 77.6132 41.5085 77.8822 41.2961C77.7406 41.5156 77.5671 41.7032 77.3618 41.859C77.1636 42.0077 76.9441 42.1281 76.7034 42.2201C76.4626 42.3121 76.2148 42.3759 75.96 42.4113C75.7051 42.4537 75.4537 42.475 75.2059 42.475C74.5333 42.475 73.9067 42.3582 73.3262 42.1245C72.7527 41.8909 72.2535 41.5687 71.8287 41.1581C71.4039 40.7404 71.0676 40.2483 70.8198 39.6819C70.5791 39.1084 70.4587 38.4854 70.4587 37.8127C70.4587 37.126 70.572 36.4888 70.7986 35.9011C71.0251 35.3135 71.3438 34.8037 71.7544 34.3718C72.1721 33.9399 72.6677 33.6036 73.2412 33.3629C73.8218 33.1151 74.459 32.9912 75.1528 32.9912C75.3652 32.9912 75.5741 33.0125 75.7794 33.0549C75.9918 33.0903 76.2007 33.1328 76.406 33.1824C76.6184 33.2319 76.8273 33.2815 77.0326 33.3311C77.2379 33.3806 77.4468 33.416 77.6592 33.4373L77.7229 33.501C77.7583 33.6638 77.7831 33.8337 77.7972 34.0107C77.8185 34.1807 77.8291 34.3506 77.8291 34.5205L77.776 34.563H77.7229C77.3689 34.2798 76.9795 34.0603 76.5547 33.9045C76.1299 33.7417 75.6909 33.6603 75.2378 33.6603ZM86.3995 33.2461L86.4314 33.1824L86.4739 33.1611H87.6102L87.6633 33.193C87.6138 33.3842 87.5253 33.5576 87.3978 33.7134C87.2775 33.8621 87.1748 34.0249 87.0898 34.2019L82.5126 43.2715C82.3851 43.5193 82.2365 43.7812 82.0665 44.0574C81.9037 44.3335 81.7196 44.6061 81.5143 44.8751C81.309 45.1442 81.0895 45.399 80.8558 45.6398C80.6222 45.8876 80.3708 46.1035 80.1018 46.2876C79.8398 46.4788 79.5637 46.6274 79.2734 46.7336C78.9832 46.8469 78.6823 46.9036 78.3707 46.9036C78.0875 46.9036 77.8114 46.8646 77.5424 46.7867C77.2662 46.7159 77.0114 46.5991 76.7777 46.4363L76.7565 46.3726C76.891 46.231 77.0397 46.1106 77.2025 46.0115C77.3654 45.9124 77.5247 45.8097 77.6804 45.7035H77.7229C78.1265 45.9371 78.5654 46.054 79.0398 46.054C79.2947 46.054 79.5425 45.9761 79.7832 45.8203C80.031 45.6716 80.2646 45.4734 80.4841 45.2256C80.7107 44.9849 80.9231 44.7123 81.1213 44.4078C81.3267 44.1034 81.5143 43.7954 81.6842 43.4839C81.8541 43.1724 82.0063 42.875 82.1409 42.5918C82.2754 42.3086 82.3922 42.0679 82.4913 41.8696L78.6681 33.2673V33.193L78.7212 33.1611H80.4841L80.516 33.1824H80.5372C80.5443 33.1895 80.5479 33.2178 80.5479 33.2673C80.5479 33.3169 80.5479 33.37 80.5479 33.4266C80.5479 33.4833 80.5443 33.5399 80.5372 33.5966C80.5372 33.6461 80.5372 33.678 80.5372 33.6921C80.5372 33.7913 80.5443 33.8939 80.5585 34.0001C80.5797 34.0992 80.6116 34.1984 80.6541 34.2975L83.3409 40.1492L86.2615 34.2869C86.3748 34.0674 86.4314 33.8267 86.4314 33.5647C86.4314 33.4585 86.4208 33.3523 86.3995 33.2461ZM95.9258 42.1882V42.252H94.4071L94.3965 42.1882C94.4673 42.0042 94.5239 41.8165 94.5664 41.6254C94.6089 41.4271 94.6301 41.2253 94.6301 41.02V34.9559L88.9271 42.7617L88.8953 42.783L88.8422 42.7086V34.17C88.8422 33.993 88.8209 33.8231 88.7784 33.6603C88.743 33.4904 88.7253 33.3169 88.7253 33.1399C88.7395 33.1399 88.7466 33.1399 88.7466 33.1399C88.7537 33.1328 88.7643 33.1293 88.7784 33.1293H90.1909C90.2263 33.1293 90.2511 33.1328 90.2653 33.1399V33.2142C90.1874 33.3983 90.1237 33.5859 90.0741 33.7771C90.0316 33.9683 90.0104 34.163 90.0104 34.3612V40.3297L94.6514 33.8302C94.7788 33.6603 94.8425 33.4656 94.8425 33.2461L94.9062 33.1824H96.0107L96.0638 33.2142L95.7134 33.7983L95.7346 41.02C95.7346 41.2183 95.7452 41.4165 95.7665 41.6147C95.7948 41.813 95.8479 42.0042 95.9258 42.1882ZM93.4832 30.4849C93.6743 30.499 93.8619 30.5309 94.046 30.5804C94.2372 30.63 94.4248 30.6796 94.6089 30.7291L94.6301 30.7716C94.5947 30.9203 94.4991 31.0796 94.3434 31.2495C94.1947 31.4194 94.0212 31.5752 93.823 31.7168C93.6248 31.8584 93.4194 31.9752 93.207 32.0673C93.0017 32.1593 92.8212 32.2053 92.6654 32.2053C92.5026 32.2053 92.3149 32.1593 92.1025 32.0673C91.8972 31.9752 91.6954 31.8584 91.4972 31.7168C91.299 31.5681 91.1219 31.4088 90.9662 31.2389C90.8175 31.069 90.7219 30.9061 90.6794 30.7504L90.7007 30.7079C90.8706 30.6725 91.0582 30.6265 91.2635 30.5698C91.4689 30.5061 91.653 30.4742 91.8158 30.4742L91.837 30.4849C91.837 30.499 91.8335 30.5167 91.8264 30.538C91.8264 30.5592 91.8264 30.5769 91.8264 30.5911C91.8264 30.7114 91.8406 30.8389 91.8689 30.9734C91.9043 31.1079 91.9539 31.2318 92.0176 31.3451C92.0884 31.4513 92.1733 31.5433 92.2725 31.6212C92.3787 31.692 92.5026 31.7274 92.6442 31.7274C92.7928 31.7274 92.9203 31.6885 93.0265 31.6106C93.1327 31.5256 93.2177 31.423 93.2814 31.3026C93.3451 31.1752 93.3911 31.0406 93.4194 30.899C93.4478 30.7504 93.4619 30.6158 93.4619 30.4955L93.4832 30.4849ZM111.527 41.0944L112.61 40.8713L112.674 40.8926L112.695 40.9669C112.667 41.066 112.61 41.2147 112.525 41.413C112.447 41.6041 112.348 41.8201 112.228 42.0608C112.114 42.3015 111.99 42.5493 111.856 42.8042C111.721 43.0591 111.583 43.2963 111.442 43.5157C111.307 43.7352 111.18 43.9193 111.059 44.068C110.939 44.2167 110.836 44.3052 110.751 44.3335C110.667 44.291 110.589 44.2379 110.518 44.1742C110.447 44.1176 110.38 44.0538 110.316 43.983C110.486 43.6998 110.642 43.4237 110.783 43.1547C110.932 42.8856 111.024 42.5847 111.059 42.252C110.224 42.252 109.389 42.2555 108.553 42.2626C107.725 42.2767 106.893 42.2838 106.057 42.2838C105.852 42.2838 105.636 42.2874 105.41 42.2944C105.183 42.3015 104.974 42.2803 104.783 42.2307V42.167C104.825 42.0679 104.861 41.9546 104.889 41.8271C104.917 41.6926 104.939 41.5581 104.953 41.4236C104.967 41.282 104.978 41.1439 104.985 41.0094C104.992 40.8678 104.995 40.7439 104.995 40.6377V34.786C104.995 34.6798 104.992 34.5594 104.985 34.4249C104.978 34.2833 104.967 34.1417 104.953 34.0001C104.939 33.8585 104.917 33.724 104.889 33.5966C104.861 33.462 104.825 33.3452 104.783 33.2461V33.2036L104.836 33.1611H106.302L106.333 33.1824H106.344V33.2461C106.302 33.3452 106.27 33.462 106.249 33.5966C106.227 33.7311 106.21 33.8691 106.195 34.0107C106.188 34.1453 106.181 34.2833 106.174 34.4249C106.174 34.5594 106.174 34.6798 106.174 34.786V41.5298H110.348V34.786C110.348 34.6798 110.344 34.5594 110.337 34.4249C110.337 34.2833 110.33 34.1417 110.316 34.0001C110.302 33.8585 110.281 33.724 110.252 33.5966C110.231 33.462 110.196 33.3452 110.146 33.2461V33.1824C110.153 33.1824 110.164 33.1788 110.178 33.1718C110.192 33.1647 110.203 33.1611 110.21 33.1611H111.675L111.707 33.1824V33.2461C111.665 33.3452 111.633 33.462 111.612 33.5966C111.59 33.7311 111.573 33.8691 111.559 34.0107C111.544 34.1453 111.534 34.2833 111.527 34.4249C111.527 34.5594 111.527 34.6798 111.527 34.786V41.0944ZM114.214 33.3523C114.504 33.3523 114.791 33.3381 115.074 33.3098C115.364 33.2744 115.654 33.2355 115.945 33.193C116.235 33.1505 116.522 33.1151 116.805 33.0868C117.095 33.0514 117.385 33.0337 117.676 33.0337C117.987 33.0337 118.299 33.0726 118.61 33.1505C118.929 33.2213 119.212 33.3381 119.46 33.501C119.715 33.6567 119.92 33.8621 120.076 34.1169C120.239 34.3647 120.32 34.6692 120.32 35.0303C120.32 35.3701 120.239 35.6639 120.076 35.9117C119.92 36.1525 119.718 36.3578 119.471 36.5277C119.23 36.6906 118.957 36.818 118.653 36.91C118.355 37.0021 118.065 37.0693 117.782 37.1118C118.164 37.1472 118.554 37.218 118.95 37.3242C119.347 37.4304 119.708 37.5862 120.033 37.7915C120.366 37.9968 120.635 38.2588 120.841 38.5774C121.053 38.8889 121.159 39.2712 121.159 39.7244C121.159 40.1067 121.032 40.4536 120.777 40.7651C120.529 41.0767 120.221 41.3422 119.853 41.5616C119.485 41.7811 119.092 41.951 118.674 42.0714C118.263 42.1918 117.895 42.252 117.57 42.252H114.214L114.182 42.2307L114.161 42.167C114.245 41.9333 114.302 41.6926 114.33 41.4448C114.359 41.197 114.373 40.9492 114.373 40.7014V34.9028C114.373 34.655 114.359 34.4072 114.33 34.1594C114.302 33.9116 114.245 33.6709 114.161 33.4373V33.4266L114.214 33.3523ZM115.531 41.7422C115.715 41.7917 115.899 41.8236 116.083 41.8378C116.267 41.8448 116.451 41.8484 116.635 41.8484C116.939 41.8484 117.269 41.8059 117.623 41.7209C117.977 41.636 118.306 41.5085 118.61 41.3386C118.915 41.1687 119.166 40.9528 119.364 40.6908C119.57 40.4218 119.672 40.1067 119.672 39.7456C119.672 39.2925 119.577 38.9208 119.386 38.6305C119.194 38.3331 118.947 38.0995 118.642 37.9296C118.338 37.7596 117.994 37.6428 117.612 37.5791C117.237 37.5154 116.862 37.4835 116.486 37.4835C116.323 37.4835 116.161 37.4977 115.998 37.526C115.842 37.5472 115.686 37.5897 115.531 37.6534V41.7422ZM115.531 36.9525C115.686 36.9879 115.842 37.0092 115.998 37.0162C116.154 37.0233 116.309 37.0269 116.465 37.0269C116.748 37.0269 117.042 36.9985 117.347 36.9419C117.658 36.8853 117.938 36.7897 118.186 36.6552C118.44 36.5206 118.649 36.3401 118.812 36.1135C118.975 35.8799 119.056 35.5861 119.056 35.2321C119.056 34.9347 118.993 34.6798 118.865 34.4674C118.738 34.2479 118.571 34.0674 118.366 33.9258C118.168 33.7842 117.938 33.6815 117.676 33.6178C117.421 33.547 117.162 33.5116 116.901 33.5116C116.433 33.5116 115.977 33.6036 115.531 33.7877V36.9525ZM123.835 36.156C123.736 36.4604 123.662 36.772 123.612 37.0906C123.563 37.4092 123.538 37.7278 123.538 38.0464C123.538 38.6978 123.63 39.2677 123.814 39.7562C123.998 40.2377 124.264 40.6412 124.611 40.9669C124.965 41.2855 125.393 41.5262 125.896 41.6891C126.398 41.8448 126.965 41.9227 127.595 41.9227C128.02 41.9227 128.434 41.859 128.838 41.7316C129.248 41.597 129.634 41.4165 129.995 41.1899C129.514 41.6572 128.99 41.9935 128.423 42.1989C127.864 42.3971 127.252 42.4962 126.586 42.4962C125.928 42.4962 125.329 42.3865 124.791 42.167C124.253 41.9404 123.797 41.6289 123.421 41.2324C123.046 40.8359 122.756 40.3651 122.55 39.8199C122.345 39.2677 122.242 38.6659 122.242 38.0145C122.242 37.3844 122.363 36.7684 122.604 36.1666C122.844 35.5648 123.173 35.0303 123.591 34.563C124.009 34.0886 124.501 33.7098 125.067 33.4266C125.634 33.1364 126.246 32.9912 126.905 32.9912C127.358 32.9912 127.793 33.0656 128.211 33.2142C128.636 33.3629 129.011 33.5753 129.337 33.8514C129.662 34.1276 129.921 34.4603 130.112 34.8497C130.31 35.2391 130.409 35.6746 130.409 36.156H123.835ZM129.007 35.6144C128.979 35.3029 128.915 35.0197 128.816 34.7648C128.717 34.5028 128.579 34.2798 128.402 34.0957C128.232 33.9116 128.02 33.77 127.765 33.6709C127.517 33.5647 127.23 33.5116 126.905 33.5116C126.572 33.5116 126.257 33.5682 125.959 33.6815C125.669 33.7877 125.4 33.9364 125.152 34.1276C124.912 34.3187 124.696 34.5417 124.505 34.7966C124.313 35.0515 124.154 35.3241 124.027 35.6144H129.007ZM138.831 33.1293L138.905 33.1611C138.934 33.3027 138.973 33.4585 139.022 33.6284C139.079 33.7913 139.104 33.9435 139.097 34.0851L139.022 34.0957C138.81 34.0178 138.59 33.9541 138.364 33.9045C138.137 33.855 137.911 33.8302 137.684 33.8302H135.762V40.6802C135.762 40.7793 135.762 40.8961 135.762 41.0306C135.762 41.1652 135.765 41.3032 135.772 41.4448C135.787 41.5793 135.808 41.7139 135.836 41.8484C135.865 41.9758 135.903 42.082 135.953 42.167V42.2307L135.932 42.252H134.413C134.406 42.252 134.395 42.2484 134.381 42.2413C134.367 42.2343 134.356 42.2307 134.349 42.2307V42.167C134.392 42.082 134.427 41.9758 134.456 41.8484C134.491 41.7209 134.516 41.5864 134.53 41.4448C134.544 41.3032 134.555 41.1652 134.562 41.0306C134.569 40.8961 134.572 40.7793 134.572 40.6802V33.8302H132.671C132.445 33.8302 132.218 33.855 131.992 33.9045C131.772 33.9541 131.556 34.0178 131.344 34.0957L131.27 34.0851L131.259 34.0107L131.461 33.1611L131.546 33.1293H138.831ZM143.716 33.4054C143.164 33.4054 142.672 33.5399 142.24 33.809C141.808 34.0709 141.447 34.4108 141.157 34.8285C140.867 35.2462 140.644 35.7135 140.488 36.2303C140.332 36.7401 140.254 37.2393 140.254 37.7278C140.254 38.2163 140.332 38.719 140.488 39.2358C140.644 39.7456 140.863 40.2129 141.146 40.6377C141.437 41.0554 141.798 41.3953 142.229 41.6572C142.661 41.9192 143.157 42.0502 143.716 42.0502C144.269 42.0502 144.757 41.9192 145.182 41.6572C145.614 41.3882 145.975 41.0448 146.265 40.6271C146.562 40.2094 146.789 39.7456 146.945 39.2358C147.108 38.719 147.189 38.2163 147.189 37.7278C147.189 37.2393 147.108 36.7401 146.945 36.2303C146.789 35.7135 146.562 35.2462 146.265 34.8285C145.975 34.4108 145.614 34.0709 145.182 33.809C144.757 33.5399 144.269 33.4054 143.716 33.4054ZM143.716 32.9912C144.368 32.9912 144.98 33.1151 145.554 33.3629C146.134 33.6107 146.64 33.9506 147.072 34.3824C147.511 34.8073 147.855 35.3099 148.102 35.8905C148.357 36.464 148.485 37.0764 148.485 37.7278C148.485 38.3792 148.357 38.9951 148.102 39.5757C147.855 40.1492 147.515 40.6519 147.083 41.0837C146.651 41.5156 146.145 41.8555 145.564 42.1033C144.984 42.3511 144.368 42.475 143.716 42.475C143.065 42.475 142.449 42.3511 141.868 42.1033C141.288 41.8555 140.778 41.5156 140.339 41.0837C139.907 40.6519 139.564 40.1492 139.309 39.5757C139.061 39.0022 138.937 38.3862 138.937 37.7278C138.937 37.0693 139.061 36.4534 139.309 35.8799C139.564 35.3064 139.907 34.8073 140.339 34.3824C140.778 33.9506 141.288 33.6107 141.868 33.3629C142.449 33.1151 143.065 32.9912 143.716 32.9912ZM151.278 37.0481C151.342 37.0764 151.423 37.0906 151.522 37.0906C151.862 37.0906 152.156 37.0764 152.404 37.0481C152.651 37.0198 152.864 36.9561 153.041 36.8569C153.225 36.7507 153.377 36.595 153.497 36.3896C153.618 36.1843 153.724 35.9011 153.816 35.54C153.894 35.2214 153.982 34.9099 154.082 34.6055C154.181 34.2939 154.312 34.0178 154.474 33.7771C154.644 33.5364 154.857 33.3417 155.112 33.193C155.374 33.0443 155.703 32.97 156.099 32.97C156.312 32.97 156.521 32.9948 156.726 33.0443C156.931 33.0868 157.14 33.108 157.353 33.108C157.353 33.1222 157.353 33.1328 157.353 33.1399C157.36 33.1399 157.363 33.147 157.363 33.1611C157.363 33.3098 157.349 33.4585 157.321 33.6072C157.292 33.7488 157.268 33.8939 157.246 34.0426L157.193 34.0957C157.137 34.0815 157.08 34.0461 157.023 33.9895C156.974 33.9258 156.914 33.8585 156.843 33.7877C156.779 33.7169 156.698 33.6567 156.599 33.6072C156.506 33.5505 156.393 33.5222 156.259 33.5222C156.032 33.5222 155.852 33.5966 155.717 33.7452C155.583 33.8868 155.473 34.0603 155.388 34.2656C155.31 34.4639 155.246 34.6763 155.197 34.9028C155.147 35.1294 155.101 35.3206 155.059 35.4763C154.995 35.7029 154.896 35.9047 154.761 36.0817C154.634 36.2516 154.485 36.4073 154.315 36.549C154.145 36.6835 153.961 36.8074 153.763 36.9207C153.565 37.0339 153.37 37.1366 153.179 37.2286L158.128 42.1458L158.149 42.2095L158.075 42.252H155.972L155.898 42.1882C155.898 41.99 155.862 41.7953 155.791 41.6041C155.728 41.413 155.625 41.2466 155.483 41.105L151.915 37.6322C151.809 37.6322 151.703 37.6357 151.596 37.6428C151.49 37.6428 151.384 37.6357 151.278 37.6216V40.6696C151.278 40.7828 151.278 40.9067 151.278 41.0413C151.285 41.1687 151.292 41.2997 151.299 41.4342C151.313 41.5687 151.331 41.6997 151.352 41.8271C151.38 41.9546 151.419 42.0679 151.469 42.167V42.2307L151.448 42.252H149.918C149.911 42.252 149.901 42.2484 149.887 42.2413C149.872 42.2343 149.862 42.2307 149.855 42.2307V42.167C149.897 42.082 149.933 41.9758 149.961 41.8484C149.989 41.7139 150.007 41.5793 150.014 41.4448C150.028 41.3032 150.035 41.1652 150.035 41.0306C150.042 40.889 150.046 40.7687 150.046 40.6696V34.7117C150.046 34.6125 150.042 34.4957 150.035 34.3612C150.035 34.2267 150.028 34.0886 150.014 33.947C150.007 33.8054 149.989 33.6709 149.961 33.5435C149.933 33.4089 149.897 33.2992 149.855 33.2142V33.1399C149.869 33.1399 149.88 33.1399 149.887 33.1399C149.894 33.1328 149.904 33.1293 149.918 33.1293H151.416C151.43 33.1293 151.437 33.1328 151.437 33.1399C151.444 33.1399 151.455 33.1399 151.469 33.1399V33.2142C151.419 33.3134 151.38 33.4266 151.352 33.5541C151.331 33.6815 151.313 33.8125 151.299 33.947C151.292 34.0815 151.285 34.2161 151.278 34.3506C151.278 34.478 151.278 34.5984 151.278 34.7117V37.0481ZM172.539 42.1882V42.252H171.021L171.01 42.1882C171.081 42.0042 171.137 41.8165 171.18 41.6254C171.222 41.4271 171.244 41.2253 171.244 41.02V34.9559L165.541 42.7617L165.509 42.783L165.456 42.7086V34.17C165.456 33.993 165.434 33.8231 165.392 33.6603C165.357 33.4904 165.339 33.3169 165.339 33.1399C165.353 33.1399 165.36 33.1399 165.36 33.1399C165.367 33.1328 165.378 33.1293 165.392 33.1293H166.804C166.84 33.1293 166.865 33.1328 166.879 33.1399V33.2142C166.801 33.3983 166.737 33.5859 166.688 33.7771C166.645 33.9683 166.624 34.163 166.624 34.3612V40.3297L171.265 33.8302C171.392 33.6603 171.456 33.4656 171.456 33.2461L171.52 33.1824H172.624L172.677 33.2142L172.327 33.7983L172.348 41.02C172.348 41.2183 172.359 41.4165 172.38 41.6147C172.408 41.813 172.461 42.0042 172.539 42.1882ZM187.397 33.1611L187.429 33.1824V33.2461C187.386 33.3452 187.351 33.462 187.323 33.5966C187.301 33.724 187.284 33.8585 187.269 34.0001C187.262 34.1417 187.255 34.2833 187.248 34.4249C187.248 34.5594 187.248 34.6798 187.248 34.786V40.6377C187.248 40.7439 187.248 40.8678 187.248 41.0094C187.255 41.1439 187.266 41.282 187.28 41.4236C187.294 41.5581 187.312 41.6926 187.333 41.8271C187.354 41.9617 187.386 42.075 187.429 42.167V42.2307L187.397 42.252H185.931C185.924 42.252 185.914 42.2484 185.899 42.2413C185.885 42.2343 185.875 42.2307 185.868 42.2307V42.167C185.917 42.082 185.953 41.9758 185.974 41.8484C186.002 41.7139 186.023 41.5758 186.037 41.4342C186.052 41.2855 186.059 41.1439 186.059 41.0094C186.066 40.8678 186.069 40.7439 186.069 40.6377V33.8833H181.896V40.6377C181.896 40.7439 181.896 40.8678 181.896 41.0094C181.896 41.1439 181.899 41.282 181.906 41.4236C181.92 41.5581 181.938 41.6926 181.959 41.8271C181.988 41.9546 182.023 42.0679 182.066 42.167V42.2307L182.055 42.252H180.557L180.504 42.2307V42.167C180.547 42.082 180.582 41.9723 180.611 41.8378C180.639 41.7032 180.66 41.5652 180.674 41.4236C180.688 41.282 180.699 41.1404 180.706 40.9988C180.713 40.8572 180.717 40.7368 180.717 40.6377V34.786C180.717 34.6798 180.713 34.5594 180.706 34.4249C180.699 34.2833 180.688 34.1417 180.674 34.0001C180.66 33.8585 180.639 33.724 180.611 33.5966C180.582 33.462 180.547 33.3452 180.504 33.2461V33.2036L180.557 33.1611H187.397ZM194.056 33.4054C193.503 33.4054 193.011 33.5399 192.579 33.809C192.148 34.0709 191.786 34.4108 191.496 34.8285C191.206 35.2462 190.983 35.7135 190.827 36.2303C190.671 36.7401 190.594 37.2393 190.594 37.7278C190.594 38.2163 190.671 38.719 190.827 39.2358C190.983 39.7456 191.202 40.2129 191.486 40.6377C191.776 41.0554 192.137 41.3953 192.569 41.6572C193.001 41.9192 193.496 42.0502 194.056 42.0502C194.608 42.0502 195.096 41.9192 195.521 41.6572C195.953 41.3882 196.314 41.0448 196.604 40.6271C196.902 40.2094 197.128 39.7456 197.284 39.2358C197.447 38.719 197.528 38.2163 197.528 37.7278C197.528 37.2393 197.447 36.7401 197.284 36.2303C197.128 35.7135 196.902 35.2462 196.604 34.8285C196.314 34.4108 195.953 34.0709 195.521 33.809C195.096 33.5399 194.608 33.4054 194.056 33.4054ZM194.056 32.9912C194.707 32.9912 195.319 33.1151 195.893 33.3629C196.474 33.6107 196.98 33.9506 197.412 34.3824C197.851 34.8073 198.194 35.3099 198.442 35.8905C198.697 36.464 198.824 37.0764 198.824 37.7278C198.824 38.3792 198.697 38.9951 198.442 39.5757C198.194 40.1492 197.854 40.6519 197.422 41.0837C196.99 41.5156 196.484 41.8555 195.904 42.1033C195.323 42.3511 194.707 42.475 194.056 42.475C193.404 42.475 192.788 42.3511 192.208 42.1033C191.627 41.8555 191.117 41.5156 190.678 41.0837C190.247 40.6519 189.903 40.1492 189.648 39.5757C189.401 39.0022 189.277 38.3862 189.277 37.7278C189.277 37.0693 189.401 36.4534 189.648 35.8799C189.903 35.3064 190.247 34.8073 190.678 34.3824C191.117 33.9506 191.627 33.6107 192.208 33.3629C192.788 33.1151 193.404 32.9912 194.056 32.9912ZM201.065 41.7634C201.511 41.7634 201.872 41.6608 202.148 41.4554C202.431 41.243 202.647 40.9775 202.796 40.6589C202.952 40.3403 203.058 39.9899 203.115 39.6075C203.171 39.2252 203.2 38.8571 203.2 38.5031V34.7329C203.2 34.5063 203.182 34.2515 203.146 33.9683C203.118 33.678 203.058 33.4302 202.966 33.2249V33.1611L203.03 33.1293H208.552C208.566 33.1293 208.573 33.1328 208.573 33.1399C208.58 33.1399 208.591 33.1399 208.605 33.1399V33.2142C208.52 33.4408 208.467 33.6921 208.446 33.9683C208.425 34.2373 208.414 34.4922 208.414 34.7329V40.6589C208.414 40.928 208.428 41.1864 208.457 41.4342C208.492 41.6749 208.542 41.9263 208.605 42.1882V42.2307L208.595 42.252H207.023C207.002 42.252 206.977 42.2449 206.948 42.2307V42.1882C207.033 41.9617 207.09 41.7103 207.118 41.4342C207.154 41.1581 207.172 40.8997 207.172 40.6589V33.8302H204.474C204.467 34.4745 204.46 35.1188 204.453 35.7631C204.453 36.4073 204.453 37.0516 204.453 37.6959C204.453 38.3544 204.4 38.9633 204.293 39.5226C204.187 40.0819 203.996 40.5669 203.72 40.9775C203.444 41.3882 203.065 41.7103 202.584 41.944C202.102 42.1705 201.486 42.2838 200.736 42.2838C200.53 42.2838 200.382 42.2697 200.29 42.2413C200.198 42.213 200.134 42.167 200.099 42.1033C200.063 42.0325 200.042 41.9404 200.035 41.8271C200.035 41.7139 200.021 41.5758 199.992 41.413L200.024 41.3492H200.12C200.24 41.4767 200.382 41.5793 200.545 41.6572C200.714 41.728 200.888 41.7634 201.065 41.7634ZM212.896 29.7627H212.981V29.8158H212.896V29.7627ZM217.282 33.2461L217.314 33.1824L217.356 33.1611H218.493L218.546 33.193C218.496 33.3842 218.408 33.5576 218.28 33.7134C218.16 33.8621 218.057 34.0249 217.972 34.2019L213.395 43.2715C213.267 43.5193 213.119 43.7812 212.949 44.0574C212.786 44.3335 212.602 44.6061 212.397 44.8751C212.191 45.1442 211.972 45.399 211.738 45.6398C211.505 45.8876 211.253 46.1035 210.984 46.2876C210.722 46.4788 210.446 46.6274 210.156 46.7336C209.865 46.8469 209.565 46.9036 209.253 46.9036C208.97 46.9036 208.694 46.8646 208.425 46.7867C208.149 46.7159 207.894 46.5991 207.66 46.4363L207.639 46.3726C207.773 46.231 207.922 46.1106 208.085 46.0115C208.248 45.9124 208.407 45.8097 208.563 45.7035H208.605C209.009 45.9371 209.448 46.054 209.922 46.054C210.177 46.054 210.425 45.9761 210.666 45.8203C210.913 45.6716 211.147 45.4734 211.366 45.2256C211.593 44.9849 211.805 44.7123 212.004 44.4078C212.209 44.1034 212.397 43.7954 212.567 43.4839C212.736 43.1724 212.889 42.875 213.023 42.5918C213.158 42.3086 213.275 42.0679 213.374 41.8696L209.55 33.2673V33.193L209.604 33.1611H211.366L211.398 33.1824H211.42C211.427 33.1895 211.43 33.2178 211.43 33.2673C211.43 33.3169 211.43 33.37 211.43 33.4266C211.43 33.4833 211.427 33.5399 211.42 33.5966C211.42 33.6461 211.42 33.678 211.42 33.6921C211.42 33.7913 211.427 33.8939 211.441 34.0001C211.462 34.0992 211.494 34.1984 211.536 34.2975L214.223 40.1492L217.144 34.2869C217.257 34.0674 217.314 33.8267 217.314 33.5647C217.314 33.4585 217.303 33.3523 217.282 33.2461ZM222.783 40.1385C222.365 40.1385 221.969 40.0748 221.594 39.9474C221.225 39.8129 220.896 39.6252 220.606 39.3845C220.323 39.1367 220.096 38.8394 219.926 38.4924C219.763 38.1455 219.682 37.7526 219.682 37.3136C219.682 37.0092 219.686 36.7047 219.693 36.4003C219.707 36.0958 219.714 35.7914 219.714 35.4869C219.714 35.1542 219.7 34.8108 219.671 34.4568C219.643 34.0957 219.565 33.7629 219.438 33.4585L219.459 33.416L219.512 33.3735L220.925 33.0762C220.953 33.0903 220.974 33.1116 220.988 33.1399V37.3136C220.988 37.611 221.031 37.8906 221.116 38.1526C221.208 38.4075 221.339 38.634 221.509 38.8323C221.679 39.0234 221.884 39.1757 222.125 39.2889C222.365 39.4022 222.641 39.4589 222.953 39.4589C223.357 39.4589 223.742 39.3774 224.111 39.2146C224.486 39.0518 224.829 38.8394 225.141 38.5774V34.9559C225.141 34.701 225.127 34.4497 225.098 34.2019C225.07 33.947 225.006 33.6992 224.907 33.4585C224.914 33.4302 224.932 33.4019 224.96 33.3735L226.394 33.0762L226.415 33.0974C226.443 33.2319 226.461 33.3665 226.468 33.501C226.475 33.6284 226.479 33.7629 226.479 33.9045C226.479 35.1931 226.475 36.4746 226.468 37.749C226.461 39.0234 226.458 40.3085 226.458 41.6041C226.458 41.7032 226.475 41.8024 226.511 41.9015C226.546 41.9935 226.589 42.082 226.638 42.167V42.2307L226.596 42.252H224.992L224.96 42.2307V42.167C224.996 42.0891 225.035 41.9971 225.077 41.8909C225.12 41.7776 225.141 41.682 225.141 41.6041V39.3633C224.801 39.6182 224.429 39.8129 224.026 39.9474C223.622 40.0748 223.208 40.1385 222.783 40.1385ZM235.495 42.1882V42.252H233.977L233.966 42.1882C234.037 42.0042 234.094 41.8165 234.136 41.6254C234.178 41.4271 234.2 41.2253 234.2 41.02V34.9559L228.497 42.7617L228.465 42.783L228.412 42.7086V34.17C228.412 33.993 228.391 33.8231 228.348 33.6603C228.313 33.4904 228.295 33.3169 228.295 33.1399C228.309 33.1399 228.316 33.1399 228.316 33.1399C228.323 33.1328 228.334 33.1293 228.348 33.1293H229.76C229.796 33.1293 229.821 33.1328 229.835 33.1399V33.2142C229.757 33.3983 229.693 33.5859 229.644 33.7771C229.601 33.9683 229.58 34.163 229.58 34.3612V40.3297L234.221 33.8302C234.348 33.6603 234.412 33.4656 234.412 33.2461L234.476 33.1824H235.58L235.633 33.2142L235.283 33.7983L235.304 41.02C235.304 41.2183 235.315 41.4165 235.336 41.6147C235.364 41.813 235.417 42.0042 235.495 42.1882ZM244.522 36.156C244.423 36.4604 244.349 36.772 244.299 37.0906C244.25 37.4092 244.225 37.7278 244.225 38.0464C244.225 38.6978 244.317 39.2677 244.501 39.7562C244.685 40.2377 244.951 40.6412 245.298 40.9669C245.652 41.2855 246.08 41.5262 246.583 41.6891C247.085 41.8448 247.652 41.9227 248.282 41.9227C248.707 41.9227 249.121 41.859 249.525 41.7316C249.935 41.597 250.321 41.4165 250.682 41.1899C250.201 41.6572 249.677 41.9935 249.11 42.1989C248.551 42.3971 247.939 42.4962 247.273 42.4962C246.615 42.4962 246.016 42.3865 245.478 42.167C244.94 41.9404 244.484 41.6289 244.108 41.2324C243.733 40.8359 243.443 40.3651 243.237 39.8199C243.032 39.2677 242.929 38.6659 242.929 38.0145C242.929 37.3844 243.05 36.7684 243.291 36.1666C243.531 35.5648 243.86 35.0303 244.278 34.563C244.696 34.0886 245.188 33.7098 245.754 33.4266C246.321 33.1364 246.933 32.9912 247.592 32.9912C248.045 32.9912 248.48 33.0656 248.898 33.2142C249.323 33.3629 249.698 33.5753 250.024 33.8514C250.349 34.1276 250.608 34.4603 250.799 34.8497C250.997 35.2391 251.096 35.6746 251.096 36.156H244.522ZM249.694 35.6144C249.666 35.3029 249.602 35.0197 249.503 34.7648C249.404 34.5028 249.266 34.2798 249.089 34.0957C248.919 33.9116 248.707 33.77 248.452 33.6709C248.204 33.5647 247.917 33.5116 247.592 33.5116C247.259 33.5116 246.944 33.5682 246.646 33.6815C246.356 33.7877 246.087 33.9364 245.839 34.1276C245.599 34.3187 245.383 34.5417 245.192 34.7966C245 35.0515 244.841 35.3241 244.714 35.6144H249.694ZM252.721 34.7117C252.721 34.6125 252.718 34.4957 252.711 34.3612C252.711 34.2196 252.7 34.0815 252.679 33.947C252.665 33.8054 252.643 33.6709 252.615 33.5435C252.587 33.4089 252.551 33.2992 252.509 33.2142V33.1399C252.523 33.1399 252.53 33.1399 252.53 33.1399C252.537 33.1328 252.548 33.1293 252.562 33.1293H257.851L257.893 33.1611L258.318 33.9576L258.297 34.0107L258.254 34.0426C257.985 33.9222 257.702 33.8373 257.405 33.7877C257.114 33.7311 256.821 33.7028 256.523 33.7028H253.826V40.6696C253.826 40.7758 253.826 40.8961 253.826 41.0306C253.826 41.1652 253.829 41.2997 253.836 41.4342C253.85 41.5687 253.868 41.6997 253.889 41.8271C253.918 41.9546 253.953 42.0679 253.996 42.167V42.2307L253.985 42.252H252.583L252.53 42.2307V42.167C252.573 42.075 252.608 41.9652 252.636 41.8378C252.665 41.7103 252.682 41.5758 252.689 41.4342C252.703 41.2926 252.711 41.1545 252.711 41.02C252.718 40.8855 252.721 40.7687 252.721 40.6696V34.7117ZM263.193 33.4054C262.64 33.4054 262.148 33.5399 261.716 33.809C261.285 34.0709 260.923 34.4108 260.633 34.8285C260.343 35.2462 260.12 35.7135 259.964 36.2303C259.808 36.7401 259.73 37.2393 259.73 37.7278C259.73 38.2163 259.808 38.719 259.964 39.2358C260.12 39.7456 260.339 40.2129 260.623 40.6377C260.913 41.0554 261.274 41.3953 261.706 41.6572C262.138 41.9192 262.633 42.0502 263.193 42.0502C263.745 42.0502 264.233 41.9192 264.658 41.6572C265.09 41.3882 265.451 41.0448 265.741 40.6271C266.039 40.2094 266.265 39.7456 266.421 39.2358C266.584 38.719 266.665 38.2163 266.665 37.7278C266.665 37.2393 266.584 36.7401 266.421 36.2303C266.265 35.7135 266.039 35.2462 265.741 34.8285C265.451 34.4108 265.09 34.0709 264.658 33.809C264.233 33.5399 263.745 33.4054 263.193 33.4054ZM263.193 32.9912C263.844 32.9912 264.456 33.1151 265.03 33.3629C265.61 33.6107 266.117 33.9506 266.549 34.3824C266.988 34.8073 267.331 35.3099 267.579 35.8905C267.834 36.464 267.961 37.0764 267.961 37.7278C267.961 38.3792 267.834 38.9951 267.579 39.5757C267.331 40.1492 266.991 40.6519 266.559 41.0837C266.127 41.5156 265.621 41.8555 265.041 42.1033C264.46 42.3511 263.844 42.475 263.193 42.475C262.541 42.475 261.925 42.3511 261.345 42.1033C260.764 41.8555 260.254 41.5156 259.815 41.0837C259.384 40.6519 259.04 40.1492 258.785 39.5757C258.537 39.0022 258.414 38.3862 258.414 37.7278C258.414 37.0693 258.537 36.4534 258.785 35.8799C259.04 35.3064 259.384 34.8073 259.815 34.3824C260.254 33.9506 260.764 33.6107 261.345 33.3629C261.925 33.1151 262.541 32.9912 263.193 32.9912ZM275.639 33.3523C275.93 33.3523 276.216 33.3381 276.5 33.3098C276.79 33.2744 277.08 33.2355 277.37 33.193C277.661 33.1505 277.948 33.1151 278.231 33.0868C278.521 33.0514 278.811 33.0337 279.102 33.0337C279.413 33.0337 279.725 33.0726 280.036 33.1505C280.355 33.2213 280.638 33.3381 280.886 33.501C281.141 33.6567 281.346 33.8621 281.502 34.1169C281.665 34.3647 281.746 34.6692 281.746 35.0303C281.746 35.3701 281.665 35.6639 281.502 35.9117C281.346 36.1525 281.144 36.3578 280.896 36.5277C280.656 36.6906 280.383 36.818 280.079 36.91C279.781 37.0021 279.491 37.0693 279.208 37.1118C279.59 37.1472 279.979 37.218 280.376 37.3242C280.772 37.4304 281.134 37.5862 281.459 37.7915C281.792 37.9968 282.061 38.2588 282.266 38.5774C282.479 38.8889 282.585 39.2712 282.585 39.7244C282.585 40.1067 282.458 40.4536 282.203 40.7651C281.955 41.0767 281.647 41.3422 281.279 41.5616C280.911 41.7811 280.518 41.951 280.1 42.0714C279.689 42.1918 279.321 42.252 278.995 42.252H275.639L275.608 42.2307L275.586 42.167C275.671 41.9333 275.728 41.6926 275.756 41.4448C275.785 41.197 275.799 40.9492 275.799 40.7014V34.9028C275.799 34.655 275.785 34.4072 275.756 34.1594C275.728 33.9116 275.671 33.6709 275.586 33.4373V33.4266L275.639 33.3523ZM276.956 41.7422C277.14 41.7917 277.324 41.8236 277.509 41.8378C277.693 41.8448 277.877 41.8484 278.061 41.8484C278.365 41.8484 278.694 41.8059 279.048 41.7209C279.402 41.636 279.732 41.5085 280.036 41.3386C280.341 41.1687 280.592 40.9528 280.79 40.6908C280.995 40.4218 281.098 40.1067 281.098 39.7456C281.098 39.2925 281.003 38.9208 280.811 38.6305C280.62 38.3331 280.372 38.0995 280.068 37.9296C279.764 37.7596 279.42 37.6428 279.038 37.5791C278.663 37.5154 278.287 37.4835 277.912 37.4835C277.749 37.4835 277.586 37.4977 277.424 37.526C277.268 37.5472 277.112 37.5897 276.956 37.6534V41.7422ZM276.956 36.9525C277.112 36.9879 277.268 37.0092 277.424 37.0162C277.579 37.0233 277.735 37.0269 277.891 37.0269C278.174 37.0269 278.468 36.9985 278.772 36.9419C279.084 36.8853 279.364 36.7897 279.611 36.6552C279.866 36.5206 280.075 36.3401 280.238 36.1135C280.401 35.8799 280.482 35.5861 280.482 35.2321C280.482 34.9347 280.418 34.6798 280.291 34.4674C280.164 34.2479 279.997 34.0674 279.792 33.9258C279.594 33.7842 279.364 33.6815 279.102 33.6178C278.847 33.547 278.588 33.5116 278.326 33.5116C277.859 33.5116 277.402 33.6036 276.956 33.7877V36.9525ZM297.124 33.1611L297.156 33.1824V33.2461C297.113 33.3452 297.078 33.462 297.05 33.5966C297.028 33.724 297.011 33.8585 296.996 34.0001C296.989 34.1417 296.982 34.2833 296.975 34.4249C296.975 34.5594 296.975 34.6798 296.975 34.786V40.6377C296.975 40.7439 296.975 40.8678 296.975 41.0094C296.982 41.1439 296.993 41.282 297.007 41.4236C297.021 41.5581 297.039 41.6926 297.06 41.8271C297.081 41.9617 297.113 42.075 297.156 42.167V42.2307L297.124 42.252H295.658C295.651 42.252 295.641 42.2484 295.626 42.2413C295.612 42.2343 295.602 42.2307 295.595 42.2307V42.167C295.644 42.082 295.68 41.9758 295.701 41.8484C295.729 41.7139 295.75 41.5758 295.765 41.4342C295.779 41.2855 295.786 41.1439 295.786 41.0094C295.793 40.8678 295.796 40.7439 295.796 40.6377V33.8833H291.623V40.6377C291.623 40.7439 291.623 40.8678 291.623 41.0094C291.623 41.1439 291.626 41.282 291.633 41.4236C291.647 41.5581 291.665 41.6926 291.686 41.8271C291.715 41.9546 291.75 42.0679 291.793 42.167V42.2307L291.782 42.252H290.285L290.231 42.2307V42.167C290.274 42.082 290.309 41.9723 290.338 41.8378C290.366 41.7032 290.387 41.5652 290.401 41.4236C290.416 41.282 290.426 41.1404 290.433 40.9988C290.44 40.8572 290.444 40.7368 290.444 40.6377V34.786C290.444 34.6798 290.44 34.5594 290.433 34.4249C290.426 34.2833 290.416 34.1417 290.401 34.0001C290.387 33.8585 290.366 33.724 290.338 33.5966C290.309 33.462 290.274 33.3452 290.231 33.2461V33.2036L290.285 33.1611H297.124ZM303.783 33.4054C303.23 33.4054 302.738 33.5399 302.307 33.809C301.875 34.0709 301.514 34.4108 301.223 34.8285C300.933 35.2462 300.71 35.7135 300.554 36.2303C300.398 36.7401 300.321 37.2393 300.321 37.7278C300.321 38.2163 300.398 38.719 300.554 39.2358C300.71 39.7456 300.929 40.2129 301.213 40.6377C301.503 41.0554 301.864 41.3953 302.296 41.6572C302.728 41.9192 303.223 42.0502 303.783 42.0502C304.335 42.0502 304.823 41.9192 305.248 41.6572C305.68 41.3882 306.041 41.0448 306.332 40.6271C306.629 40.2094 306.855 39.7456 307.011 39.2358C307.174 38.719 307.255 38.2163 307.255 37.7278C307.255 37.2393 307.174 36.7401 307.011 36.2303C306.855 35.7135 306.629 35.2462 306.332 34.8285C306.041 34.4108 305.68 34.0709 305.248 33.809C304.823 33.5399 304.335 33.4054 303.783 33.4054ZM303.783 32.9912C304.434 32.9912 305.047 33.1151 305.62 33.3629C306.201 33.6107 306.707 33.9506 307.139 34.3824C307.578 34.8073 307.921 35.3099 308.169 35.8905C308.424 36.464 308.551 37.0764 308.551 37.7278C308.551 38.3792 308.424 38.9951 308.169 39.5757C307.921 40.1492 307.581 40.6519 307.149 41.0837C306.717 41.5156 306.211 41.8555 305.631 42.1033C305.05 42.3511 304.434 42.475 303.783 42.475C303.131 42.475 302.515 42.3511 301.935 42.1033C301.354 41.8555 300.844 41.5156 300.406 41.0837C299.974 40.6519 299.63 40.1492 299.375 39.5757C299.128 39.0022 299.004 38.3862 299.004 37.7278C299.004 37.0693 299.128 36.4534 299.375 35.8799C299.63 35.3064 299.974 34.8073 300.406 34.3824C300.844 33.9506 301.354 33.6107 301.935 33.3629C302.515 33.1151 303.131 32.9912 303.783 32.9912ZM311.408 42.252C311.429 42.4219 311.461 42.5812 311.504 42.7299C311.553 42.8785 311.613 43.0201 311.684 43.1547C311.755 43.2963 311.833 43.4343 311.918 43.5688C312.003 43.7034 312.088 43.8414 312.173 43.983C312.109 44.0538 312.042 44.1176 311.971 44.1742C311.9 44.2379 311.822 44.291 311.737 44.3335C311.652 44.3052 311.55 44.2167 311.429 44.068C311.309 43.9193 311.178 43.7352 311.036 43.5157C310.902 43.2963 310.764 43.0591 310.622 42.8042C310.488 42.5493 310.364 42.3015 310.25 42.0608C310.137 41.8201 310.038 41.6041 309.953 41.413C309.868 41.2147 309.815 41.066 309.794 40.9669L309.815 40.8926L309.879 40.8713L311.397 41.2537C311.567 41.0767 311.705 40.8784 311.812 40.6589C311.918 40.4395 311.996 40.2094 312.045 39.9686C312.102 39.7279 312.137 39.4836 312.151 39.2358C312.173 38.981 312.183 38.7367 312.183 38.5031V34.7542C312.183 34.6479 312.18 34.5311 312.173 34.4037C312.166 34.2692 312.151 34.1346 312.13 34.0001C312.116 33.8585 312.095 33.724 312.066 33.5966C312.045 33.462 312.017 33.3452 311.981 33.2461V33.1824L312.013 33.1399H318.322L318.354 33.1611H318.364V33.2249C318.279 33.4302 318.23 33.6815 318.215 33.9789C318.201 34.2692 318.194 34.5276 318.194 34.7542L318.237 41.1475L319.532 40.8713L319.596 40.8926L319.617 40.9669C319.589 41.066 319.532 41.2147 319.447 41.413C319.37 41.6112 319.274 41.8307 319.161 42.0714C319.047 42.3051 318.92 42.5493 318.778 42.8042C318.644 43.0662 318.509 43.3033 318.375 43.5157C318.24 43.7352 318.109 43.9193 317.982 44.068C317.861 44.2167 317.759 44.3052 317.674 44.3335C317.589 44.291 317.511 44.2379 317.44 44.1742C317.369 44.1176 317.306 44.0538 317.249 43.983C317.334 43.8344 317.415 43.6927 317.493 43.5582C317.578 43.4308 317.653 43.2998 317.716 43.1653C317.787 43.0308 317.844 42.8892 317.886 42.7405C317.936 42.5989 317.968 42.436 317.982 42.252H311.408ZM313.458 33.7665C313.458 34.4249 313.454 35.0798 313.447 35.7312C313.447 36.3826 313.447 37.0375 313.447 37.6959C313.447 38.0287 313.433 38.3721 313.405 38.7261C313.376 39.073 313.32 39.4164 313.235 39.7562C313.15 40.0961 313.026 40.4182 312.863 40.7227C312.707 41.0271 312.498 41.2961 312.236 41.5298H316.962V33.7665H313.458ZM325.246 35.5188C325.246 35.3064 325.225 35.094 325.182 34.8816C325.14 34.6692 325.065 34.4745 324.959 34.2975C324.86 34.1205 324.726 33.9789 324.556 33.8727C324.386 33.7594 324.177 33.7028 323.929 33.7028C323.83 33.7028 323.727 33.7205 323.621 33.7559C323.522 33.7842 323.423 33.8196 323.324 33.8621C323.225 33.8975 323.129 33.9329 323.037 33.9683C322.945 33.9966 322.856 34.0107 322.771 34.0107C322.708 34.0107 322.676 33.9789 322.676 33.9152C322.676 33.8798 322.683 33.8337 322.697 33.7771C322.718 33.7205 322.743 33.6638 322.771 33.6072C322.8 33.5435 322.828 33.4833 322.856 33.4266C322.885 33.37 322.906 33.324 322.92 33.2886L323.005 33.2461C323.097 33.2886 323.196 33.3098 323.302 33.3098C323.409 33.3098 323.511 33.2992 323.61 33.278C323.717 33.2496 323.819 33.2213 323.918 33.193C324.018 33.1576 324.117 33.1257 324.216 33.0974C324.322 33.0691 324.428 33.0549 324.534 33.0549C324.896 33.0549 325.2 33.1293 325.448 33.278C325.696 33.4266 325.894 33.6213 326.042 33.8621C326.198 34.0957 326.308 34.3647 326.372 34.6692C326.443 34.9736 326.478 35.2816 326.478 35.5931V40.1492C326.478 40.4253 326.499 40.6342 326.542 40.7758C326.591 40.9103 326.658 41.0236 326.743 41.1156C326.835 41.2006 326.945 41.2855 327.073 41.3705C327.2 41.4484 327.349 41.5687 327.519 41.7316C327.49 41.7599 327.437 41.8165 327.359 41.9015C327.289 41.9794 327.207 42.0608 327.115 42.1458C327.03 42.2307 326.949 42.3051 326.871 42.3688C326.8 42.4396 326.75 42.475 326.722 42.475C326.609 42.475 326.489 42.436 326.361 42.3582C326.241 42.2874 326.124 42.1989 326.011 42.0927C325.897 41.9794 325.795 41.8625 325.703 41.7422C325.618 41.6218 325.554 41.5121 325.511 41.413C325.108 41.6962 324.676 41.944 324.216 42.1564C323.756 42.3688 323.271 42.475 322.761 42.475C322.428 42.475 322.117 42.4219 321.826 42.3157C321.536 42.2166 321.281 42.0714 321.062 41.8802C320.842 41.682 320.669 41.4448 320.541 41.1687C320.414 40.8926 320.35 40.5846 320.35 40.2448C320.35 39.8199 320.421 39.4589 320.562 39.1615C320.704 38.8571 320.895 38.6022 321.136 38.3969C321.384 38.1915 321.671 38.0287 321.996 37.9083C322.329 37.788 322.683 37.6924 323.058 37.6216C323.455 37.5437 323.83 37.4446 324.184 37.3242C324.545 37.1968 324.899 37.0304 325.246 36.8251V35.5188ZM325.331 40.8713C325.281 40.6235 325.246 40.3722 325.225 40.1173C325.211 39.8624 325.203 39.6075 325.203 39.3527C325.203 39.0411 325.211 38.7367 325.225 38.4393C325.239 38.1349 325.246 37.8269 325.246 37.5154C324.998 37.6216 324.74 37.7136 324.471 37.7915C324.202 37.8694 323.936 37.9508 323.674 38.0358C323.419 38.1136 323.172 38.2057 322.931 38.3119C322.697 38.4181 322.488 38.5526 322.304 38.7155C322.127 38.8783 321.986 39.0836 321.879 39.3314C321.773 39.5721 321.72 39.8695 321.72 40.2235C321.72 40.443 321.755 40.6483 321.826 40.8395C321.904 41.0306 322.01 41.197 322.145 41.3386C322.279 41.4802 322.439 41.5935 322.623 41.6785C322.807 41.7563 323.012 41.7953 323.239 41.7953C323.614 41.7953 323.989 41.7068 324.365 41.5298C324.74 41.3457 325.062 41.1262 325.331 40.8713ZM328.782 33.2461L328.804 33.1824L328.836 33.1611H330.227C330.262 33.1611 330.287 33.2001 330.301 33.278C330.315 33.3488 330.322 33.4337 330.322 33.5328C330.322 33.6249 330.319 33.7169 330.312 33.809C330.305 33.901 330.301 33.9612 330.301 33.9895C330.669 33.6921 331.076 33.4514 331.522 33.2673C331.969 33.0833 332.432 32.9912 332.914 32.9912C333.508 32.9912 334.054 33.1187 334.549 33.3735C335.052 33.6213 335.484 33.9541 335.845 34.3718C336.206 34.7896 336.486 35.2675 336.684 35.8055C336.889 36.3436 336.992 36.8959 336.992 37.4623C336.992 37.8375 336.949 38.2198 336.864 38.6093C336.779 38.9987 336.652 39.3774 336.482 39.7456C336.319 40.1138 336.117 40.4607 335.877 40.7864C335.643 41.1121 335.374 41.3953 335.07 41.636C334.772 41.8767 334.439 42.0679 334.071 42.2095C333.71 42.3511 333.324 42.4219 332.914 42.4219C332.461 42.4219 332.015 42.3652 331.576 42.252C331.137 42.1458 330.722 41.9723 330.333 41.7316V44.6946C330.333 45.0132 330.397 45.3141 330.524 45.5973V45.6504L330.471 45.7035H328.836L328.782 45.5973C328.945 45.3141 329.027 45.0132 329.027 44.6946L328.963 34.1488C328.963 33.993 328.952 33.8408 328.931 33.6921C328.91 33.5364 328.86 33.3877 328.782 33.2461ZM330.322 40.8713C330.662 41.1899 331.052 41.4271 331.491 41.5829C331.93 41.7386 332.379 41.8165 332.839 41.8165C333.3 41.8165 333.703 41.6891 334.05 41.4342C334.397 41.1722 334.684 40.8466 334.91 40.4572C335.144 40.0677 335.317 39.6465 335.431 39.1934C335.551 38.7402 335.611 38.319 335.611 37.9296C335.611 37.6393 335.586 37.3348 335.537 37.0162C335.494 36.6906 335.424 36.3719 335.324 36.0604C335.232 35.7418 335.112 35.4409 334.963 35.1577C334.815 34.8745 334.631 34.6267 334.411 34.4143C334.199 34.1948 333.951 34.0214 333.668 33.8939C333.392 33.7665 333.077 33.7028 332.723 33.7028C332.276 33.7028 331.845 33.7948 331.427 33.9789C331.016 34.163 330.641 34.3931 330.301 34.6692L330.322 40.8713ZM343.098 33.4054C342.546 33.4054 342.054 33.5399 341.622 33.809C341.19 34.0709 340.829 34.4108 340.539 34.8285C340.249 35.2462 340.026 35.7135 339.87 36.2303C339.714 36.7401 339.636 37.2393 339.636 37.7278C339.636 38.2163 339.714 38.719 339.87 39.2358C340.026 39.7456 340.245 40.2129 340.528 40.6377C340.819 41.0554 341.18 41.3953 341.612 41.6572C342.043 41.9192 342.539 42.0502 343.098 42.0502C343.651 42.0502 344.139 41.9192 344.564 41.6572C344.996 41.3882 345.357 41.0448 345.647 40.6271C345.945 40.2094 346.171 39.7456 346.327 39.2358C346.49 38.719 346.571 38.2163 346.571 37.7278C346.571 37.2393 346.49 36.7401 346.327 36.2303C346.171 35.7135 345.945 35.2462 345.647 34.8285C345.357 34.4108 344.996 34.0709 344.564 33.809C344.139 33.5399 343.651 33.4054 343.098 33.4054ZM343.098 32.9912C343.75 32.9912 344.362 33.1151 344.936 33.3629C345.516 33.6107 346.022 33.9506 346.454 34.3824C346.893 34.8073 347.237 35.3099 347.484 35.8905C347.739 36.464 347.867 37.0764 347.867 37.7278C347.867 38.3792 347.739 38.9951 347.484 39.5757C347.237 40.1492 346.897 40.6519 346.465 41.0837C346.033 41.5156 345.527 41.8555 344.946 42.1033C344.366 42.3511 343.75 42.475 343.098 42.475C342.447 42.475 341.831 42.3511 341.25 42.1033C340.67 41.8555 340.16 41.5156 339.721 41.0837C339.289 40.6519 338.946 40.1492 338.691 39.5757C338.443 39.0022 338.319 38.3862 338.319 37.7278C338.319 37.0693 338.443 36.4534 338.691 35.8799C338.946 35.3064 339.289 34.8073 339.721 34.3824C340.16 33.9506 340.67 33.6107 341.25 33.3629C341.831 33.1151 342.447 32.9912 343.098 32.9912ZM350.66 37.0481C350.724 37.0764 350.805 37.0906 350.904 37.0906C351.244 37.0906 351.538 37.0764 351.786 37.0481C352.033 37.0198 352.246 36.9561 352.423 36.8569C352.607 36.7507 352.759 36.595 352.88 36.3896C353 36.1843 353.106 35.9011 353.198 35.54C353.276 35.2214 353.365 34.9099 353.464 34.6055C353.563 34.2939 353.694 34.0178 353.857 33.7771C354.026 33.5364 354.239 33.3417 354.494 33.193C354.756 33.0443 355.085 32.97 355.481 32.97C355.694 32.97 355.903 32.9948 356.108 33.0443C356.313 33.0868 356.522 33.108 356.735 33.108C356.735 33.1222 356.735 33.1328 356.735 33.1399C356.742 33.1399 356.745 33.147 356.745 33.1611C356.745 33.3098 356.731 33.4585 356.703 33.6072C356.674 33.7488 356.65 33.8939 356.628 34.0426L356.575 34.0957C356.519 34.0815 356.462 34.0461 356.405 33.9895C356.356 33.9258 356.296 33.8585 356.225 33.7877C356.161 33.7169 356.08 33.6567 355.981 33.6072C355.889 33.5505 355.775 33.5222 355.641 33.5222C355.414 33.5222 355.234 33.5966 355.099 33.7452C354.965 33.8868 354.855 34.0603 354.77 34.2656C354.692 34.4639 354.628 34.6763 354.579 34.9028C354.529 35.1294 354.483 35.3206 354.441 35.4763C354.377 35.7029 354.278 35.9047 354.143 36.0817C354.016 36.2516 353.867 36.4073 353.697 36.549C353.527 36.6835 353.343 36.8074 353.145 36.9207C352.947 37.0339 352.752 37.1366 352.561 37.2286L357.51 42.1458L357.531 42.2095L357.457 42.252H355.354L355.28 42.1882C355.28 41.99 355.244 41.7953 355.173 41.6041C355.11 41.413 355.007 41.2466 354.865 41.105L351.297 37.6322C351.191 37.6322 351.085 37.6357 350.979 37.6428C350.872 37.6428 350.766 37.6357 350.66 37.6216V40.6696C350.66 40.7828 350.66 40.9067 350.66 41.0413C350.667 41.1687 350.674 41.2997 350.681 41.4342C350.695 41.5687 350.713 41.6997 350.734 41.8271C350.763 41.9546 350.802 42.0679 350.851 42.167V42.2307L350.83 42.252H349.301C349.293 42.252 349.283 42.2484 349.269 42.2413C349.255 42.2343 349.244 42.2307 349.237 42.2307V42.167C349.279 42.082 349.315 41.9758 349.343 41.8484C349.371 41.7139 349.389 41.5793 349.396 41.4448C349.41 41.3032 349.417 41.1652 349.417 41.0306C349.424 40.889 349.428 40.7687 349.428 40.6696V34.7117C349.428 34.6125 349.424 34.4957 349.417 34.3612C349.417 34.2267 349.41 34.0886 349.396 33.947C349.389 33.8054 349.371 33.6709 349.343 33.5435C349.315 33.4089 349.279 33.2992 349.237 33.2142V33.1399C349.251 33.1399 349.262 33.1399 349.269 33.1399C349.276 33.1328 349.286 33.1293 349.301 33.1293H350.798C350.812 33.1293 350.819 33.1328 350.819 33.1399C350.826 33.1399 350.837 33.1399 350.851 33.1399V33.2142C350.802 33.3134 350.763 33.4266 350.734 33.5541C350.713 33.6815 350.695 33.8125 350.681 33.947C350.674 34.0815 350.667 34.2161 350.66 34.3506C350.66 34.478 350.66 34.5984 350.66 34.7117V37.0481Z" fill="#3D3D3D"/>
<path d="M31.4685 230.78C31.4145 230.645 31.3335 230.46 31.2255 230.226C31.1175 229.983 30.996 229.718 30.861 229.43C30.735 229.133 30.5955 228.822 30.4425 228.498C30.2895 228.165 30.1365 227.846 29.9835 227.54C29.8395 227.234 29.7 226.946 29.565 226.676C29.43 226.406 29.313 226.185 29.214 226.014C29.097 227.049 29.0115 228.035 28.9575 228.971C28.9035 229.898 28.8585 230.825 28.8225 231.752H27.999C28.035 230.591 28.0935 229.421 28.1745 228.242C28.2645 227.063 28.377 225.906 28.512 224.772H29.4165C29.5335 224.961 29.682 225.231 29.862 225.582C30.051 225.933 30.2535 226.334 30.4695 226.784C30.6945 227.225 30.924 227.706 31.158 228.228C31.401 228.741 31.644 229.263 31.887 229.794C32.13 229.263 32.3685 228.741 32.6025 228.228C32.8455 227.706 33.075 227.225 33.291 226.784C33.516 226.334 33.7185 225.933 33.8985 225.582C34.0785 225.231 34.2315 224.961 34.3575 224.772H35.2485C35.3835 225.906 35.4915 227.063 35.5725 228.242C35.6625 229.421 35.7255 230.591 35.7615 231.752H34.9245C34.8885 230.825 34.8435 229.898 34.7895 228.971C34.7355 228.035 34.65 227.049 34.533 226.014C34.434 226.194 34.317 226.419 34.182 226.689C34.047 226.95 33.903 227.234 33.75 227.54C33.606 227.846 33.4575 228.165 33.3045 228.498C33.1515 228.822 33.0075 229.133 32.8725 229.43C32.7465 229.718 32.6295 229.983 32.5215 230.226C32.4135 230.46 32.3325 230.645 32.2785 230.78H31.4685ZM40.1174 231.117C40.4594 231.117 40.7564 231.108 41.0084 231.09C41.2694 231.063 41.4899 231.032 41.6699 230.996V228.539C41.5709 228.494 41.4134 228.449 41.1974 228.404C40.9814 228.35 40.6844 228.323 40.3064 228.323C40.0904 228.323 39.8654 228.341 39.6314 228.377C39.3974 228.404 39.1814 228.471 38.9834 228.579C38.7854 228.678 38.6234 228.818 38.4974 228.998C38.3714 229.178 38.3084 229.416 38.3084 229.713C38.3084 229.974 38.3489 230.195 38.4299 230.375C38.5199 230.555 38.6414 230.699 38.7944 230.807C38.9564 230.915 39.1454 230.996 39.3614 231.05C39.5864 231.095 39.8384 231.117 40.1174 231.117ZM40.0364 224.61C40.4954 224.61 40.8824 224.678 41.1974 224.813C41.5214 224.939 41.7824 225.119 41.9804 225.353C42.1784 225.578 42.3224 225.848 42.4124 226.163C42.5024 226.478 42.5474 226.82 42.5474 227.189V231.59C42.4574 231.617 42.3269 231.648 42.1559 231.684C41.9849 231.711 41.7869 231.743 41.5619 231.779C41.3369 231.815 41.0849 231.842 40.8059 231.86C40.5359 231.887 40.2569 231.9 39.9689 231.9C39.5999 231.9 39.2579 231.86 38.9429 231.779C38.6369 231.698 38.3669 231.572 38.1329 231.401C37.9079 231.221 37.7279 230.996 37.5929 230.726C37.4669 230.447 37.4039 230.109 37.4039 229.713C37.4039 229.335 37.4759 229.011 37.6199 228.741C37.7639 228.471 37.9664 228.251 38.2274 228.08C38.4884 227.9 38.7989 227.769 39.1589 227.688C39.5189 227.607 39.9104 227.567 40.3334 227.567C40.4594 227.567 40.5899 227.576 40.7249 227.594C40.8689 227.603 41.0039 227.621 41.1299 227.648C41.2649 227.666 41.3774 227.688 41.4674 227.715C41.5664 227.733 41.6339 227.751 41.6699 227.769V227.337C41.6699 227.094 41.6519 226.86 41.6159 226.635C41.5799 226.401 41.4989 226.194 41.3729 226.014C41.2559 225.825 41.0849 225.677 40.8599 225.569C40.6439 225.452 40.3559 225.393 39.9959 225.393C39.4829 225.393 39.1004 225.429 38.8484 225.501C38.5964 225.573 38.4119 225.632 38.2949 225.677L38.1734 224.907C38.3264 224.835 38.5604 224.768 38.8754 224.705C39.1994 224.642 39.5864 224.61 40.0364 224.61ZM48.7815 225.515H45.663V231.752H44.7855V224.772H48.7815V225.515ZM52.3517 231.117C52.6937 231.117 52.9907 231.108 53.2427 231.09C53.5037 231.063 53.7242 231.032 53.9042 230.996V228.539C53.8052 228.494 53.6477 228.449 53.4317 228.404C53.2157 228.35 52.9187 228.323 52.5407 228.323C52.3247 228.323 52.0997 228.341 51.8657 228.377C51.6317 228.404 51.4157 228.471 51.2177 228.579C51.0197 228.678 50.8577 228.818 50.7317 228.998C50.6057 229.178 50.5427 229.416 50.5427 229.713C50.5427 229.974 50.5832 230.195 50.6642 230.375C50.7542 230.555 50.8757 230.699 51.0287 230.807C51.1907 230.915 51.3797 230.996 51.5957 231.05C51.8207 231.095 52.0727 231.117 52.3517 231.117ZM52.2707 224.61C52.7297 224.61 53.1167 224.678 53.4317 224.813C53.7557 224.939 54.0167 225.119 54.2147 225.353C54.4127 225.578 54.5567 225.848 54.6467 226.163C54.7367 226.478 54.7817 226.82 54.7817 227.189V231.59C54.6917 231.617 54.5612 231.648 54.3902 231.684C54.2192 231.711 54.0212 231.743 53.7962 231.779C53.5712 231.815 53.3192 231.842 53.0402 231.86C52.7702 231.887 52.4912 231.9 52.2032 231.9C51.8342 231.9 51.4922 231.86 51.1772 231.779C50.8712 231.698 50.6012 231.572 50.3672 231.401C50.1422 231.221 49.9622 230.996 49.8272 230.726C49.7012 230.447 49.6382 230.109 49.6382 229.713C49.6382 229.335 49.7102 229.011 49.8542 228.741C49.9982 228.471 50.2007 228.251 50.4617 228.08C50.7227 227.9 51.0332 227.769 51.3932 227.688C51.7532 227.607 52.1447 227.567 52.5677 227.567C52.6937 227.567 52.8242 227.576 52.9592 227.594C53.1032 227.603 53.2382 227.621 53.3642 227.648C53.4992 227.666 53.6117 227.688 53.7017 227.715C53.8007 227.733 53.8682 227.751 53.9042 227.769V227.337C53.9042 227.094 53.8862 226.86 53.8502 226.635C53.8142 226.401 53.7332 226.194 53.6072 226.014C53.4902 225.825 53.3192 225.677 53.0942 225.569C52.8782 225.452 52.5902 225.393 52.2302 225.393C51.7172 225.393 51.3347 225.429 51.0827 225.501C50.8307 225.573 50.6462 225.632 50.5292 225.677L50.4077 224.907C50.5607 224.835 50.7947 224.768 51.1097 224.705C51.4337 224.642 51.8207 224.61 52.2707 224.61ZM58.6399 231.117C59.2699 231.117 59.7649 231.014 60.1249 230.807C60.4849 230.591 60.6649 230.271 60.6649 229.848C60.6649 229.542 60.5974 229.299 60.4624 229.119C60.3274 228.939 60.1564 228.8 59.9494 228.701C59.7514 228.602 59.5354 228.539 59.3014 228.512C59.0764 228.476 58.8694 228.458 58.6804 228.458H57.7084V227.715H58.6129C58.7749 227.715 58.9594 227.702 59.1664 227.675C59.3824 227.648 59.5804 227.594 59.7604 227.513C59.9404 227.432 60.0934 227.319 60.2194 227.175C60.3454 227.022 60.4084 226.824 60.4084 226.581C60.4084 226.347 60.3544 226.154 60.2464 226.001C60.1474 225.848 60.0124 225.726 59.8414 225.636C59.6704 225.546 59.4724 225.483 59.2474 225.447C59.0314 225.411 58.8109 225.393 58.5859 225.393C58.0729 225.393 57.6679 225.447 57.3709 225.555C57.0739 225.654 56.8714 225.731 56.7634 225.785L56.5609 225.002C56.6869 224.939 56.9254 224.862 57.2764 224.772C57.6274 224.673 58.0639 224.624 58.5859 224.624C59.4769 224.624 60.1519 224.786 60.6109 225.11C61.0699 225.434 61.2994 225.915 61.2994 226.554C61.2994 226.95 61.1824 227.274 60.9484 227.526C60.7144 227.769 60.4399 227.94 60.1249 228.039C60.5659 228.165 60.9169 228.377 61.1779 228.674C61.4389 228.971 61.5694 229.362 61.5694 229.848C61.5694 230.541 61.3219 231.059 60.8269 231.401C60.3319 231.743 59.6074 231.914 58.6534 231.914C58.0144 231.914 57.5014 231.86 57.1144 231.752C56.7274 231.644 56.4799 231.563 56.3719 231.509L56.6014 230.712C56.6284 230.73 56.6869 230.762 56.7769 230.807C56.8759 230.843 57.0109 230.888 57.1819 230.942C57.3529 230.987 57.5599 231.027 57.8029 231.063C58.0459 231.099 58.3249 231.117 58.6399 231.117ZM68.2055 225.893C67.9355 226.217 67.6205 226.626 67.2605 227.121C66.9095 227.616 66.5495 228.138 66.1805 228.687C65.8205 229.236 65.474 229.781 65.141 230.321C64.808 230.861 64.52 231.338 64.277 231.752H63.4535V224.772H64.3175V230.361C64.5335 229.974 64.799 229.529 65.114 229.025C65.438 228.512 65.78 227.999 66.14 227.486C66.5 226.964 66.86 226.464 67.22 225.987C67.589 225.51 67.931 225.105 68.246 224.772H69.0695V231.752H68.2055V225.893ZM76.9385 231.752H76.061V228.498H72.2675V231.752H71.39V224.772H72.2675V227.756H76.061V224.772H76.9385V231.752ZM86.8279 224.772V225.515H84.5329V231.752H83.6554V225.515H81.3739V224.772H86.8279ZM89.0634 230.496C89.1444 230.559 89.2434 230.627 89.3604 230.699C89.4864 230.771 89.6304 230.838 89.7924 230.901C89.9544 230.964 90.1299 231.018 90.3189 231.063C90.5079 231.099 90.7059 231.117 90.9129 231.117C91.3449 231.117 91.7049 231.045 91.9929 230.901C92.2899 230.748 92.5284 230.546 92.7084 230.294C92.8884 230.033 93.0189 229.731 93.0999 229.389C93.1809 229.038 93.2214 228.669 93.2214 228.282C93.2214 227.364 92.9919 226.662 92.5329 226.176C92.0739 225.681 91.4664 225.434 90.7104 225.434C90.2784 225.434 89.9274 225.456 89.6574 225.501C89.3964 225.537 89.1984 225.578 89.0634 225.623V230.496ZM89.0634 234.249H88.1859V225.015C88.4469 224.925 88.7799 224.84 89.1849 224.759C89.5899 224.678 90.1029 224.637 90.7239 224.637C91.2369 224.637 91.7004 224.723 92.1144 224.894C92.5374 225.056 92.8974 225.294 93.1944 225.609C93.5004 225.924 93.7344 226.307 93.8964 226.757C94.0674 227.207 94.1529 227.715 94.1529 228.282C94.1529 228.813 94.0809 229.304 93.9369 229.754C93.8019 230.195 93.5994 230.577 93.3294 230.901C93.0594 231.216 92.7264 231.464 92.3304 231.644C91.9434 231.824 91.4979 231.914 90.9939 231.914C90.5349 231.914 90.1344 231.851 89.7924 231.725C89.4594 231.59 89.2164 231.464 89.0634 231.347V234.249ZM98.257 231.117C98.599 231.117 98.896 231.108 99.148 231.09C99.409 231.063 99.6295 231.032 99.8095 230.996V228.539C99.7105 228.494 99.553 228.449 99.337 228.404C99.121 228.35 98.824 228.323 98.446 228.323C98.23 228.323 98.005 228.341 97.771 228.377C97.537 228.404 97.321 228.471 97.123 228.579C96.925 228.678 96.763 228.818 96.637 228.998C96.511 229.178 96.448 229.416 96.448 229.713C96.448 229.974 96.4885 230.195 96.5695 230.375C96.6595 230.555 96.781 230.699 96.934 230.807C97.096 230.915 97.285 230.996 97.501 231.05C97.726 231.095 97.978 231.117 98.257 231.117ZM98.176 224.61C98.635 224.61 99.022 224.678 99.337 224.813C99.661 224.939 99.922 225.119 100.12 225.353C100.318 225.578 100.462 225.848 100.552 226.163C100.642 226.478 100.687 226.82 100.687 227.189V231.59C100.597 231.617 100.467 231.648 100.296 231.684C100.125 231.711 99.9265 231.743 99.7015 231.779C99.4765 231.815 99.2245 231.842 98.9455 231.86C98.6755 231.887 98.3965 231.9 98.1085 231.9C97.7395 231.9 97.3975 231.86 97.0825 231.779C96.7765 231.698 96.5065 231.572 96.2725 231.401C96.0475 231.221 95.8675 230.996 95.7325 230.726C95.6065 230.447 95.5435 230.109 95.5435 229.713C95.5435 229.335 95.6155 229.011 95.7595 228.741C95.9035 228.471 96.106 228.251 96.367 228.08C96.628 227.9 96.9385 227.769 97.2985 227.688C97.6585 227.607 98.05 227.567 98.473 227.567C98.599 227.567 98.7295 227.576 98.8645 227.594C99.0085 227.603 99.1435 227.621 99.2695 227.648C99.4045 227.666 99.517 227.688 99.607 227.715C99.706 227.733 99.7735 227.751 99.8095 227.769V227.337C99.8095 227.094 99.7915 226.86 99.7555 226.635C99.7195 226.401 99.6385 226.194 99.5125 226.014C99.3955 225.825 99.2245 225.677 98.9995 225.569C98.7835 225.452 98.4955 225.393 98.1355 225.393C97.6225 225.393 97.24 225.429 96.988 225.501C96.736 225.573 96.5515 225.632 96.4345 225.677L96.313 224.907C96.466 224.835 96.7 224.768 97.015 224.705C97.339 224.642 97.726 224.61 98.176 224.61ZM105.18 224.624C105.45 224.624 105.751 224.642 106.084 224.678C106.426 224.705 106.746 224.781 107.043 224.907C107.34 225.024 107.587 225.213 107.785 225.474C107.992 225.726 108.096 226.073 108.096 226.514C108.096 226.856 107.997 227.162 107.799 227.432C107.601 227.693 107.331 227.886 106.989 228.012C107.493 228.147 107.857 228.363 108.082 228.66C108.307 228.957 108.42 229.322 108.42 229.754C108.42 230.222 108.325 230.6 108.136 230.888C107.947 231.167 107.695 231.383 107.38 231.536C107.074 231.68 106.723 231.774 106.327 231.819C105.94 231.864 105.544 231.887 105.139 231.887C104.653 231.887 104.226 231.855 103.857 231.792C103.497 231.729 103.186 231.662 102.925 231.59V224.921C103.15 224.849 103.447 224.781 103.816 224.718C104.185 224.655 104.64 224.624 105.18 224.624ZM103.803 227.702H105.396C105.936 227.702 106.372 227.612 106.705 227.432C107.038 227.252 107.205 226.95 107.205 226.527C107.205 226.257 107.146 226.046 107.029 225.893C106.912 225.74 106.759 225.627 106.57 225.555C106.381 225.474 106.165 225.425 105.922 225.407C105.679 225.38 105.436 225.366 105.193 225.366C104.896 225.366 104.613 225.384 104.343 225.42C104.073 225.447 103.893 225.474 103.803 225.501V227.702ZM103.803 228.431V230.996C103.848 231.014 103.92 231.032 104.019 231.05C104.127 231.059 104.244 231.072 104.37 231.09C104.505 231.099 104.644 231.108 104.788 231.117C104.941 231.126 105.085 231.131 105.22 231.131C105.526 231.131 105.819 231.113 106.098 231.077C106.377 231.041 106.62 230.973 106.827 230.874C107.034 230.766 107.2 230.627 107.326 230.456C107.452 230.276 107.515 230.042 107.515 229.754C107.515 229.502 107.461 229.29 107.353 229.119C107.254 228.948 107.11 228.813 106.921 228.714C106.741 228.615 106.525 228.543 106.273 228.498C106.03 228.453 105.765 228.431 105.477 228.431H103.803Z" fill="#3D3D3D"/>
<path d="M282.533 230.4C282.236 229.851 281.948 229.28 281.669 228.686C281.399 228.092 281.143 227.493 280.9 226.89C280.666 226.278 280.45 225.671 280.252 225.068C280.054 224.456 279.883 223.857 279.739 223.272H280.67C280.769 223.704 280.895 224.172 281.048 224.676C281.201 225.171 281.372 225.684 281.561 226.215C281.759 226.746 281.975 227.291 282.209 227.849C282.443 228.407 282.695 228.956 282.965 229.496C283.163 228.938 283.339 228.411 283.492 227.916C283.645 227.421 283.784 226.931 283.91 226.445C284.045 225.95 284.171 225.446 284.288 224.933C284.414 224.42 284.545 223.866 284.68 223.272H285.557C285.269 224.577 284.941 225.846 284.572 227.079C284.203 228.312 283.802 229.442 283.37 230.468C283.199 230.873 283.024 231.219 282.844 231.507C282.664 231.804 282.461 232.047 282.236 232.236C282.02 232.425 281.764 232.565 281.467 232.655C281.179 232.745 280.837 232.79 280.441 232.79C280.216 232.79 280.009 232.763 279.82 232.709C279.64 232.655 279.527 232.614 279.482 232.587L279.658 231.858C279.694 231.885 279.793 231.921 279.955 231.966C280.126 232.02 280.301 232.047 280.481 232.047C280.733 232.047 280.958 232.02 281.156 231.966C281.363 231.912 281.548 231.818 281.71 231.683C281.872 231.557 282.016 231.39 282.142 231.183C282.277 230.976 282.407 230.715 282.533 230.4ZM288.865 224.015V224.298C288.865 224.568 288.861 224.865 288.852 225.189C288.843 225.504 288.825 225.828 288.798 226.161C288.771 226.494 288.726 226.827 288.663 227.16C288.609 227.484 288.537 227.79 288.447 228.078C288.348 228.375 288.222 228.659 288.069 228.929C287.925 229.19 287.749 229.424 287.542 229.631C287.344 229.829 287.11 229.995 286.84 230.13C286.579 230.256 286.282 230.337 285.949 230.373L285.828 229.644C286.278 229.545 286.638 229.361 286.908 229.091C287.187 228.821 287.416 228.438 287.596 227.943C287.776 227.448 287.889 226.881 287.934 226.242C287.988 225.594 288.015 224.888 288.015 224.123V223.272H292.308V230.252H291.43V224.015H288.865ZM295.873 229.671C295.873 229.878 295.805 230.054 295.67 230.198C295.544 230.342 295.364 230.414 295.13 230.414C294.896 230.414 294.712 230.342 294.577 230.198C294.451 230.054 294.388 229.878 294.388 229.671C294.388 229.464 294.451 229.289 294.577 229.145C294.712 229.001 294.896 228.929 295.13 228.929C295.364 228.929 295.544 229.001 295.67 229.145C295.805 229.289 295.873 229.464 295.873 229.671ZM306.411 230.252H305.534V224.015H301.902V230.252H301.025V223.272H306.411V230.252ZM314.691 226.769C314.691 227.318 314.61 227.817 314.448 228.267C314.295 228.717 314.074 229.1 313.786 229.415C313.507 229.73 313.174 229.977 312.787 230.157C312.4 230.328 311.973 230.414 311.505 230.414C311.037 230.414 310.609 230.328 310.222 230.157C309.835 229.977 309.498 229.73 309.21 229.415C308.931 229.1 308.71 228.717 308.548 228.267C308.395 227.817 308.319 227.318 308.319 226.769C308.319 226.22 308.395 225.72 308.548 225.27C308.71 224.82 308.931 224.438 309.21 224.123C309.498 223.799 309.835 223.551 310.222 223.38C310.609 223.2 311.037 223.11 311.505 223.11C311.973 223.11 312.4 223.2 312.787 223.38C313.174 223.551 313.507 223.799 313.786 224.123C314.074 224.438 314.295 224.82 314.448 225.27C314.61 225.72 314.691 226.22 314.691 226.769ZM313.759 226.769C313.759 225.896 313.557 225.203 313.152 224.69C312.747 224.168 312.198 223.907 311.505 223.907C310.812 223.907 310.263 224.168 309.858 224.69C309.453 225.203 309.25 225.896 309.25 226.769C309.25 227.642 309.453 228.335 309.858 228.848C310.263 229.361 310.812 229.617 311.505 229.617C312.198 229.617 312.747 229.361 313.152 228.848C313.557 228.335 313.759 227.642 313.759 226.769ZM318.66 224.015V224.298C318.66 224.568 318.656 224.865 318.647 225.189C318.638 225.504 318.62 225.828 318.593 226.161C318.566 226.494 318.521 226.827 318.458 227.16C318.404 227.484 318.332 227.79 318.242 228.078C318.143 228.375 318.017 228.659 317.864 228.929C317.72 229.19 317.544 229.424 317.337 229.631C317.139 229.829 316.905 229.995 316.635 230.13C316.374 230.256 316.077 230.337 315.744 230.373L315.623 229.644C316.073 229.545 316.433 229.361 316.703 229.091C316.982 228.821 317.211 228.438 317.391 227.943C317.571 227.448 317.684 226.881 317.729 226.242C317.783 225.594 317.81 224.888 317.81 224.123V223.272H322.103V230.252H321.225V224.015H318.66ZM324.426 223.272H325.303V226.067C325.465 226.022 325.704 225.977 326.019 225.932C326.334 225.878 326.649 225.851 326.964 225.851C327.315 225.851 327.652 225.891 327.976 225.972C328.309 226.053 328.597 226.184 328.84 226.364C329.092 226.544 329.29 226.778 329.434 227.066C329.587 227.354 329.664 227.705 329.664 228.119C329.664 228.533 329.587 228.884 329.434 229.172C329.29 229.46 329.092 229.698 328.84 229.887C328.588 230.067 328.287 230.198 327.936 230.279C327.594 230.36 327.229 230.4 326.842 230.4C326.608 230.4 326.37 230.391 326.127 230.373C325.893 230.355 325.668 230.333 325.452 230.306C325.245 230.279 325.051 230.247 324.871 230.211C324.691 230.175 324.543 230.135 324.426 230.09V223.272ZM326.842 229.617C327.409 229.617 327.868 229.5 328.219 229.266C328.579 229.032 328.759 228.65 328.759 228.119C328.759 227.867 328.71 227.646 328.611 227.457C328.512 227.268 328.377 227.115 328.206 226.998C328.044 226.872 327.85 226.782 327.625 226.728C327.409 226.665 327.18 226.634 326.937 226.634C326.658 226.634 326.374 226.647 326.086 226.674C325.798 226.701 325.537 226.755 325.303 226.836V229.482C325.42 229.509 325.623 229.541 325.911 229.577C326.199 229.604 326.509 229.617 326.842 229.617ZM332.013 230.252H331.135V223.272H332.013V230.252ZM339.888 230.252H339.011V226.998H335.217V230.252H334.34V223.272H335.217V226.256H339.011V223.272H339.888V230.252ZM346.962 224.393C346.692 224.717 346.377 225.126 346.017 225.621C345.666 226.116 345.306 226.638 344.937 227.187C344.577 227.736 344.231 228.281 343.898 228.821C343.565 229.361 343.277 229.838 343.034 230.252H342.21V223.272H343.074V228.861C343.29 228.474 343.556 228.029 343.871 227.525C344.195 227.012 344.537 226.499 344.897 225.986C345.257 225.464 345.617 224.964 345.977 224.487C346.346 224.01 346.688 223.605 347.003 223.272H347.826V230.252H346.962V224.393ZM351.173 228.969C351.182 229.05 351.186 229.122 351.186 229.185C351.186 229.248 351.186 229.302 351.186 229.347C351.186 229.905 351.105 230.441 350.943 230.954C350.79 231.467 350.574 231.948 350.295 232.398L349.647 232.101C349.854 231.705 349.998 231.287 350.079 230.846C350.169 230.414 350.214 229.964 350.214 229.496C350.214 229.388 350.21 229.298 350.201 229.226C350.201 229.154 350.196 229.068 350.187 228.969H351.173ZM361.995 224.609C361.995 226.49 361.545 227.907 360.645 228.861C359.745 229.806 358.431 230.279 356.703 230.279L356.676 229.55C357.27 229.55 357.814 229.482 358.309 229.347C358.804 229.212 359.232 229.005 359.592 228.726C359.961 228.438 360.258 228.074 360.483 227.633C360.717 227.183 360.874 226.643 360.955 226.013C360.712 226.139 360.42 226.251 360.078 226.35C359.736 226.44 359.371 226.485 358.984 226.485C358.48 226.485 358.053 226.409 357.702 226.256C357.351 226.094 357.067 225.882 356.851 225.621C356.635 225.36 356.478 225.059 356.379 224.717C356.28 224.375 356.23 224.019 356.23 223.65C356.23 223.308 356.284 222.962 356.392 222.611C356.5 222.26 356.667 221.945 356.892 221.666C357.126 221.378 357.414 221.144 357.756 220.964C358.107 220.784 358.521 220.694 358.998 220.694C359.979 220.694 360.721 221.04 361.225 221.733C361.738 222.417 361.995 223.376 361.995 224.609ZM359.065 225.716C359.479 225.716 359.839 225.671 360.145 225.581C360.46 225.482 360.753 225.369 361.023 225.243C361.032 225.135 361.036 225.032 361.036 224.933C361.045 224.834 361.05 224.721 361.05 224.595C361.05 224.172 361.018 223.772 360.955 223.394C360.901 223.016 360.793 222.683 360.631 222.395C360.478 222.107 360.271 221.882 360.01 221.72C359.749 221.549 359.416 221.463 359.011 221.463C358.678 221.463 358.395 221.526 358.161 221.652C357.927 221.769 357.738 221.927 357.594 222.125C357.45 222.323 357.342 222.552 357.27 222.813C357.207 223.074 357.175 223.344 357.175 223.623C357.175 224.334 357.333 224.861 357.648 225.203C357.972 225.545 358.444 225.716 359.065 225.716Z" fill="#3D3D3D"/>
</svg>
