<svg width="390" height="258" viewBox="0 0 390 258" fill="none" xmlns="http://www.w3.org/2000/svg">
<path d="M8.19466 7.99052C6.73783 9.67867 2.12454 10.7036 0 11.0051C4.73469 11.7286 6.67713 12.3616 8.19466 13.8689C10.0157 15.6776 10.825 19.9482 11.2297 22.3096C11.3815 20.2497 12.1706 15.6776 14.113 13.8689C16.0555 12.0602 20.3855 11.206 22.3077 11.0051C20.3349 11.1558 15.4872 9.35542 14.113 7.99052C12.292 6.18179 11.5332 2.36335 11.078 0.00195312C10.7745 1.96141 10.0157 5.88033 8.19466 7.99052Z" fill="#3D3D3D"/>
<path d="M60.5033 7.99052C59.0464 9.67867 54.4331 10.7036 52.3086 11.0051C57.0433 11.7286 58.9857 12.3616 60.5033 13.8689C62.3243 15.6776 63.1336 19.9482 63.5383 22.3096C63.6901 20.2497 64.4792 15.6776 66.4216 13.8689C68.3641 12.0602 72.6941 11.206 74.6163 11.0051C72.6435 11.1558 67.7958 9.35542 66.4216 7.99052C64.6006 6.18179 63.8418 2.36335 63.3866 0.00195312C63.0831 1.96141 62.3243 5.88033 60.5033 7.99052Z" fill="#3D3D3D"/>
<path d="M112.812 7.99052C111.355 9.67867 106.742 10.7036 104.617 11.0051C109.352 11.7286 111.294 12.3616 112.812 13.8689C114.633 15.6776 115.442 19.9482 115.847 22.3096C115.999 20.2497 116.788 15.6776 118.73 13.8689C120.673 12.0602 125.003 11.206 126.925 11.0051C124.952 11.1558 120.104 9.35542 118.73 7.99052C116.909 6.18179 116.15 2.36335 115.695 0.00195312C115.392 1.96141 114.633 5.88033 112.812 7.99052Z" fill="#3D3D3D"/>
<path d="M165.117 7.99052C163.66 9.67867 159.046 10.7036 156.922 11.0051C161.657 11.7286 163.599 12.3616 165.117 13.8689C166.938 15.6776 167.747 19.9482 168.152 22.3096C168.303 20.2497 169.092 15.6776 171.035 13.8689C172.977 12.0602 177.307 11.206 179.23 11.0051C177.257 11.1558 172.409 9.35542 171.035 7.99052C169.214 6.18179 168.455 2.36335 168 0.00195312C167.696 1.96141 166.938 5.88033 165.117 7.99052Z" fill="#3D3D3D"/>
<path d="M217.425 7.99052C215.968 9.67867 211.355 10.7036 209.23 11.0051C213.965 11.7286 215.908 12.3616 217.425 13.8689C219.246 15.6776 220.056 19.9482 220.46 22.3096C220.612 20.2497 221.401 15.6776 223.344 13.8689C225.286 12.0602 229.616 11.206 231.538 11.0051C229.565 11.1558 224.718 9.35542 223.344 7.99052C221.522 6.18179 220.764 2.36335 220.308 0.00195312C220.005 1.96141 219.246 5.88033 217.425 7.99052Z" fill="#3D3D3D"/>
<path d="M269.73 7.99052C268.273 9.67867 263.66 10.7036 261.535 11.0051C266.27 11.7286 268.212 12.3616 269.73 13.8689C271.551 15.6776 272.36 19.9482 272.765 22.3096C272.917 20.2497 273.706 15.6776 275.648 13.8689C277.591 12.0602 281.921 11.206 283.843 11.0051C281.87 11.1558 277.022 9.35542 275.648 7.99052C273.827 6.18179 273.068 2.36335 272.613 0.00195312C272.31 1.96141 271.551 5.88033 269.73 7.99052Z" fill="#3D3D3D"/>
<path d="M322.04 7.99052C320.584 9.67867 315.97 10.7036 313.846 11.0051C318.58 11.7286 320.523 12.3616 322.04 13.8689C323.861 15.6776 324.671 19.9482 325.075 22.3096C325.227 20.2497 326.016 15.6776 327.959 13.8689C329.901 12.0602 334.231 11.206 336.153 11.0051C334.181 11.1558 329.333 9.35542 327.959 7.99052C326.138 6.18179 325.379 2.36335 324.924 0.00195312C324.62 1.96141 323.861 5.88033 322.04 7.99052Z" fill="#3D3D3D"/>
<path d="M380.472 8.19662C378.784 6.73979 377.759 2.1265 377.458 0.00195313C376.734 4.73665 376.101 6.67909 374.594 8.19662C372.785 10.0177 368.515 10.827 366.153 11.2317C368.213 11.3834 372.785 12.1725 374.594 14.115C376.403 16.0574 377.257 20.3874 377.458 22.3096C377.307 20.3369 379.107 15.4892 380.472 14.115C382.281 12.2939 386.1 11.5352 388.461 11.0799C386.501 10.7764 382.583 10.0177 380.472 8.19662Z" fill="#3D3D3D"/>
<path d="M382.011 60.5052C380.323 59.0484 379.298 54.4351 378.997 52.3105C378.273 57.0452 377.64 58.9877 376.133 60.5052C374.324 62.3262 370.054 63.1356 367.692 63.5403C369.752 63.692 374.324 64.4811 376.133 66.4236C377.942 68.366 378.796 72.696 378.997 74.6182C378.846 72.6455 380.647 67.7978 382.011 66.4236C383.82 64.6025 387.639 63.8438 390 63.3885C388.041 63.085 384.122 62.3262 382.011 60.5052Z" fill="#3D3D3D"/>
<path d="M382.011 112.81C380.323 111.353 379.298 106.74 378.997 104.615C378.273 109.35 377.64 111.292 376.133 112.81C374.324 114.631 370.054 115.44 367.692 115.845C369.752 115.997 374.324 116.786 376.133 118.728C377.942 120.671 378.796 125.001 378.997 126.923C378.846 124.95 380.647 120.102 382.011 118.728C383.82 116.907 387.639 116.148 390 115.693C388.041 115.39 384.122 114.631 382.011 112.81Z" fill="#3D3D3D"/>
<path d="M382.011 165.118C380.323 163.662 379.298 159.048 378.997 156.924C378.273 161.659 377.64 163.601 376.133 165.118C374.324 166.94 370.054 167.749 367.692 168.154C369.752 168.305 374.324 169.094 376.133 171.037C377.942 172.979 378.796 177.309 378.997 179.232C378.846 177.259 380.647 172.411 382.011 171.037C383.82 169.216 387.639 168.457 390 168.002C388.041 167.698 384.122 166.94 382.011 165.118Z" fill="#3D3D3D"/>
<path d="M382.011 217.427C380.323 215.97 379.298 211.357 378.997 209.232C378.273 213.967 377.64 215.91 376.133 217.427C374.324 219.248 370.054 220.057 367.692 220.462C369.752 220.614 374.324 221.403 376.133 223.345C377.942 225.288 378.796 229.618 378.997 231.54C378.846 229.567 380.647 224.72 382.011 223.345C383.82 221.524 387.639 220.766 390 220.31C388.041 220.007 384.122 219.248 382.011 217.427Z" fill="#3D3D3D"/>
<path d="M380.472 243.622C378.784 242.166 377.759 237.552 377.458 235.428C376.734 240.162 376.101 242.105 374.594 243.622C372.785 245.443 368.515 246.253 366.153 246.657C368.213 246.809 372.785 247.598 374.594 249.541C376.403 251.483 377.257 255.813 377.458 257.735C377.307 255.763 379.107 250.915 380.472 249.541C382.281 247.72 386.1 246.961 388.461 246.506C386.501 246.202 382.583 245.443 380.472 243.622Z" fill="#3D3D3D"/>
<path d="M328.168 243.622C326.48 242.166 325.455 237.552 325.153 235.428C324.43 240.162 323.797 242.105 322.289 243.622C320.481 245.443 316.21 246.253 313.849 246.657C315.909 246.809 320.481 247.598 322.289 249.541C324.098 251.483 324.952 255.813 325.153 257.735C325.002 255.763 326.803 250.915 328.168 249.541C329.976 247.72 333.795 246.961 336.156 246.506C334.197 246.202 330.278 245.443 328.168 243.622Z" fill="#3D3D3D"/>
<path d="M275.857 243.622C274.169 242.166 273.144 237.552 272.843 235.428C272.119 240.162 271.486 242.105 269.979 243.622C268.17 245.443 263.899 246.253 261.538 246.657C263.598 246.809 268.17 247.598 269.979 249.541C271.787 251.483 272.642 255.813 272.843 257.735C272.692 255.763 274.492 250.915 275.857 249.541C277.666 247.72 281.484 246.961 283.846 246.506C281.886 246.202 277.967 245.443 275.857 243.622Z" fill="#3D3D3D"/>
<path d="M223.55 243.622C221.862 242.166 220.837 237.552 220.536 235.428C219.812 240.162 219.179 242.105 217.672 243.622C215.863 245.443 211.593 246.253 209.231 246.657C211.291 246.809 215.863 247.598 217.672 249.541C219.481 251.483 220.335 255.813 220.536 257.735C220.385 255.763 222.186 250.915 223.55 249.541C225.359 247.72 229.178 246.961 231.539 246.506C229.58 246.202 225.661 245.443 223.55 243.622Z" fill="#3D3D3D"/>
<path d="M171.242 243.622C169.554 242.166 168.529 237.552 168.227 235.428C167.504 240.162 166.871 242.105 165.364 243.622C163.555 245.443 159.284 246.253 156.923 246.657C158.983 246.809 163.555 247.598 165.364 249.541C167.172 251.483 168.026 255.813 168.227 257.735C168.077 255.763 169.877 250.915 171.242 249.541C173.051 247.72 176.869 246.961 179.23 246.506C177.271 246.202 173.352 245.443 171.242 243.622Z" fill="#3D3D3D"/>
<path d="M118.933 243.622C117.245 242.166 116.22 237.552 115.919 235.428C115.195 240.162 114.562 242.105 113.055 243.622C111.246 245.443 106.976 246.253 104.614 246.657C106.674 246.809 111.246 247.598 113.055 249.541C114.864 251.483 115.718 255.813 115.919 257.735C115.768 255.763 117.568 250.915 118.933 249.541C120.742 247.72 124.56 246.961 126.922 246.506C124.962 246.202 121.043 245.443 118.933 243.622Z" fill="#3D3D3D"/>
<path d="M66.6286 243.622C64.9405 242.166 63.9155 237.552 63.6141 235.428C62.8906 240.162 62.2575 242.105 60.7502 243.622C58.9415 245.443 54.6709 246.253 52.3095 246.657C54.3694 246.809 58.9415 247.598 60.7502 249.541C62.559 251.483 63.4131 255.813 63.6141 257.735C63.4633 255.763 65.2637 250.915 66.6286 249.541C68.4374 247.72 72.2558 246.961 74.6172 246.506C72.6577 246.202 68.7388 245.443 66.6286 243.622Z" fill="#3D3D3D"/>
<path d="M14.1139 249.748C15.5708 248.06 20.1841 247.035 22.3086 246.733C17.5739 246.01 15.6315 245.377 14.1139 243.869C12.2929 242.061 11.4835 237.79 11.0789 235.429C10.9271 237.489 10.138 242.061 8.19556 243.869C6.25312 245.678 1.92311 246.532 0.000900269 246.733C1.97369 246.582 6.82138 248.383 8.19556 249.748C10.0166 251.556 10.7754 255.375 11.2306 257.736C11.5341 255.777 12.2929 251.858 14.1139 249.748Z" fill="#3D3D3D"/>
<path d="M14.1139 223.554C15.5708 221.866 20.1841 220.841 22.3086 220.54C17.5739 219.816 15.6315 219.183 14.1139 217.676C12.2929 215.867 11.4835 211.597 11.0789 209.235C10.9271 211.295 10.138 215.867 8.19556 217.676C6.25312 219.485 1.92311 220.339 0.000900269 220.54C1.97369 220.389 6.82138 222.19 8.19556 223.554C10.0166 225.363 10.7754 229.182 11.2306 231.543C11.5341 229.584 12.2929 225.665 14.1139 223.554Z" fill="#3D3D3D"/>
<path d="M14.1139 197.4C15.5708 195.712 20.1841 194.687 22.3086 194.386C17.5739 193.662 15.6315 193.029 14.1139 191.522C12.2929 189.713 11.4835 185.442 11.0789 183.081C10.9271 185.141 10.138 189.713 8.19556 191.522C6.25312 193.33 1.92311 194.185 0.000900269 194.386C1.97369 194.235 6.82138 196.035 8.19556 197.4C10.0166 199.209 10.7754 203.027 11.2306 205.389C11.5341 203.429 12.2929 199.51 14.1139 197.4Z" fill="#3D3D3D"/>
<path d="M14.1139 171.244C15.5708 169.556 20.1841 168.531 22.3086 168.229C17.5739 167.506 15.6315 166.873 14.1139 165.365C12.2929 163.557 11.4835 159.286 11.0789 156.925C10.9271 158.985 10.138 163.557 8.19556 165.365C6.25312 167.174 1.92311 168.028 0.000900269 168.229C1.97369 168.079 6.82138 169.879 8.19556 171.244C10.0166 173.053 10.7754 176.871 11.2306 179.232C11.5341 177.273 12.2929 173.354 14.1139 171.244Z" fill="#3D3D3D"/>
<path d="M14.1139 145.088C15.5708 143.399 20.1841 142.375 22.3086 142.073C17.5739 141.35 15.6315 140.717 14.1139 139.209C12.2929 137.4 11.4835 133.13 11.0789 130.768C10.9271 132.828 10.138 137.4 8.19556 139.209C6.25312 141.018 1.92311 141.872 0.000900269 142.073C1.97369 141.922 6.82138 143.723 8.19556 145.088C10.0166 146.896 10.7754 150.715 11.2306 153.076C11.5341 151.117 12.2929 147.198 14.1139 145.088Z" fill="#3D3D3D"/>
<path d="M14.1139 118.937C15.5708 117.249 20.1841 116.224 22.3086 115.923C17.5739 115.199 15.6315 114.566 14.1139 113.059C12.2929 111.25 11.4835 106.979 11.0789 104.618C10.9271 106.678 10.138 111.25 8.19556 113.059C6.25312 114.868 1.92311 115.722 0.000900269 115.923C1.97369 115.772 6.82138 117.572 8.19556 118.937C10.0166 120.746 10.7754 124.564 11.2306 126.926C11.5341 124.966 12.2929 121.047 14.1139 118.937Z" fill="#3D3D3D"/>
<path d="M14.1139 92.7849C15.5708 91.0967 20.1841 90.0718 22.3086 89.7703C17.5739 89.0468 15.6315 88.4138 14.1139 86.9065C12.2929 85.0978 11.4835 80.8271 11.0789 78.4657C10.9271 80.5257 10.138 85.0978 8.19556 86.9065C6.25312 88.7152 1.92311 89.5693 0.000900269 89.7703C1.97369 89.6196 6.82138 91.42 8.19556 92.7849C10.0166 94.5936 10.7754 98.412 11.2306 100.773C11.5341 98.814 12.2929 94.8951 14.1139 92.7849Z" fill="#3D3D3D"/>
<path d="M14.1139 66.6286C15.5708 64.9405 20.1841 63.9155 22.3086 63.6141C17.5739 62.8906 15.6315 62.2575 14.1139 60.7502C12.2929 58.9415 11.4835 54.6709 11.0789 52.3095C10.9271 54.3694 10.138 58.9415 8.19556 60.7502C6.25312 62.559 1.92311 63.4131 0.000900269 63.6141C1.97369 63.4633 6.82138 65.2637 8.19556 66.6286C10.0166 68.4374 10.7754 72.2558 11.2306 74.6172C11.5341 72.6577 12.2929 68.7388 14.1139 66.6286Z" fill="#3D3D3D"/>
<path d="M14.1139 40.4743C15.5708 38.7862 20.1841 37.7612 22.3086 37.4598C17.5739 36.7363 15.6315 36.1032 14.1139 34.5959C12.2929 32.7872 11.4835 28.5166 11.0789 26.1552C10.9271 28.2151 10.138 32.7872 8.19556 34.5959C6.25312 36.4047 1.92311 37.2588 0.000900269 37.4598C1.97369 37.309 6.82138 39.1094 8.19556 40.4743C10.0166 42.2831 10.7754 46.1015 11.2306 48.4629C11.5341 46.5034 12.2929 42.5845 14.1139 40.4743Z" fill="#3D3D3D"/>
<path d="M34.347 7.99052C32.8902 9.67867 28.2769 10.7036 26.1523 11.0051C30.887 11.7286 32.8295 12.3616 34.347 13.8689C36.168 15.6776 36.9774 19.9482 37.3821 22.3096C37.5338 20.2497 38.3229 15.6776 40.2654 13.8689C42.2078 12.0602 46.5378 11.206 48.46 11.0051C46.4872 11.1558 41.6396 9.35542 40.2654 7.99052C38.4443 6.18179 37.6856 2.36335 37.2303 0.00195312C36.9268 1.96141 36.168 5.88033 34.347 7.99052Z" fill="#3D3D3D"/>
<path d="M86.6556 7.99052C85.1988 9.67867 80.5855 10.7036 78.4609 11.0051C83.1956 11.7286 85.1381 12.3616 86.6556 13.8689C88.4766 15.6776 89.286 19.9482 89.6907 22.3096C89.8424 20.2497 90.6315 15.6776 92.574 13.8689C94.5164 12.0602 98.8464 11.206 100.769 11.0051C98.7958 11.1558 93.9482 9.35542 92.574 7.99052C90.7529 6.18179 89.9942 2.36335 89.5389 0.00195312C89.2354 1.96141 88.4766 5.88033 86.6556 7.99052Z" fill="#3D3D3D"/>
<path d="M138.964 7.99052C137.507 9.67867 132.894 10.7036 130.77 11.0051C135.504 11.7286 137.447 12.3616 138.964 13.8689C140.785 15.6776 141.595 19.9482 141.999 22.3096C142.151 20.2497 142.94 15.6776 144.883 13.8689C146.825 12.0602 151.155 11.206 153.077 11.0051C151.104 11.1558 146.257 9.35542 144.883 7.99052C143.062 6.18179 142.303 2.36335 141.848 0.00195312C141.544 1.96141 140.785 5.88033 138.964 7.99052Z" fill="#3D3D3D"/>
<path d="M191.273 7.99052C189.816 9.67867 185.203 10.7036 183.078 11.0051C187.813 11.7286 189.755 12.3616 191.273 13.8689C193.094 15.6776 193.903 19.9482 194.308 22.3096C194.46 20.2497 195.249 15.6776 197.191 13.8689C199.134 12.0602 203.464 11.206 205.386 11.0051C203.413 11.1558 198.565 9.35542 197.191 7.99052C195.37 6.18179 194.611 2.36335 194.156 0.00195312C193.853 1.96141 193.094 5.88033 191.273 7.99052Z" fill="#3D3D3D"/>
<path d="M243.579 7.99052C242.123 9.67867 237.509 10.7036 235.385 11.0051C240.119 11.7286 242.062 12.3616 243.579 13.8689C245.4 15.6776 246.21 19.9482 246.614 22.3096C246.766 20.2497 247.555 15.6776 249.498 13.8689C251.44 12.0602 255.77 11.206 257.692 11.0051C255.72 11.1558 250.872 9.35542 249.498 7.99052C247.677 6.18179 246.918 2.36335 246.463 0.00195312C246.159 1.96141 245.4 5.88033 243.579 7.99052Z" fill="#3D3D3D"/>
<path d="M295.886 7.99052C294.429 9.67867 289.816 10.7036 287.691 11.0051C292.426 11.7286 294.369 12.3616 295.886 13.8689C297.707 15.6776 298.516 19.9482 298.921 22.3096C299.073 20.2497 299.862 15.6776 301.804 13.8689C303.747 12.0602 308.077 11.206 309.999 11.0051C308.026 11.1558 303.179 9.35542 301.804 7.99052C299.983 6.18179 299.225 2.36335 298.769 0.00195312C298.466 1.96141 297.707 5.88033 295.886 7.99052Z" fill="#3D3D3D"/>
<path d="M348.195 7.99052C346.738 9.67867 342.125 10.7036 340 11.0051C344.735 11.7286 346.677 12.3616 348.195 13.8689C350.016 15.6776 350.825 19.9482 351.23 22.3096C351.381 20.2497 352.171 15.6776 354.113 13.8689C356.055 12.0602 360.385 11.206 362.308 11.0051C360.335 11.1558 355.487 9.35542 354.113 7.99052C352.292 6.18179 351.533 2.36335 351.078 0.00195312C350.774 1.96141 350.016 5.88033 348.195 7.99052Z" fill="#3D3D3D"/>
<path d="M382.011 34.349C380.323 32.8921 379.298 28.2788 378.997 26.1543C378.273 30.889 377.64 32.8314 376.133 34.349C374.324 36.17 370.054 36.9793 367.692 37.384C369.752 37.5358 374.324 38.3249 376.133 40.2673C377.942 42.2098 378.796 46.5398 378.997 48.462C378.846 46.4892 380.647 41.6415 382.011 40.2673C383.82 38.4463 387.639 37.6875 390 37.2323C388.041 36.9288 384.122 36.17 382.011 34.349Z" fill="#3D3D3D"/>
<path d="M382.011 86.6556C380.323 85.1988 379.298 80.5855 378.997 78.4609C378.273 83.1956 377.64 85.1381 376.133 86.6556C374.324 88.4766 370.054 89.286 367.692 89.6907C369.752 89.8424 374.324 90.6315 376.133 92.574C377.942 94.5164 378.796 98.8464 378.997 100.769C378.846 98.7958 380.647 93.9482 382.011 92.574C383.82 90.7529 387.639 89.9942 390 89.5389C388.041 89.2354 384.122 88.4766 382.011 86.6556Z" fill="#3D3D3D"/>
<path d="M382.011 138.966C380.323 137.509 379.298 132.896 378.997 130.771C378.273 135.506 377.64 137.449 376.133 138.966C374.324 140.787 370.054 141.597 367.692 142.001C369.752 142.153 374.324 142.942 376.133 144.885C377.942 146.827 378.796 151.157 378.997 153.079C378.846 151.106 380.647 146.259 382.011 144.885C383.82 143.063 387.639 142.305 390 141.849C388.041 141.546 384.122 140.787 382.011 138.966Z" fill="#3D3D3D"/>
<path d="M382.011 191.273C380.323 189.816 379.298 185.203 378.997 183.078C378.273 187.813 377.64 189.755 376.133 191.273C374.324 193.094 370.054 193.903 367.692 194.308C369.752 194.46 374.324 195.249 376.133 197.191C377.942 199.134 378.796 203.464 378.997 205.386C378.846 203.413 380.647 198.565 382.011 197.191C383.82 195.37 387.639 194.611 390 194.156C388.041 193.853 384.122 193.094 382.011 191.273Z" fill="#3D3D3D"/>
<path d="M354.32 243.622C352.632 242.166 351.607 237.552 351.305 235.428C350.582 240.162 349.949 242.105 348.442 243.622C346.633 245.443 342.362 246.253 340.001 246.657C342.061 246.809 346.633 247.598 348.442 249.541C350.25 251.483 351.105 255.813 351.305 257.735C351.155 255.763 352.955 250.915 354.32 249.541C356.129 247.72 359.947 246.961 362.309 246.506C360.349 246.202 356.43 245.443 354.32 243.622Z" fill="#3D3D3D"/>
<path d="M302.011 243.622C300.323 242.166 299.298 237.552 298.997 235.428C298.273 240.162 297.64 242.105 296.133 243.622C294.324 245.443 290.054 246.253 287.692 246.657C289.752 246.809 294.324 247.598 296.133 249.541C297.942 251.483 298.796 255.813 298.997 257.735C298.846 255.763 300.647 250.915 302.011 249.541C303.82 247.72 307.639 246.961 310 246.506C308.041 246.202 304.122 245.443 302.011 243.622Z" fill="#3D3D3D"/>
<path d="M249.703 243.622C248.015 242.166 246.99 237.552 246.688 235.428C245.965 240.162 245.332 242.105 243.824 243.622C242.016 245.443 237.745 246.253 235.384 246.657C237.444 246.809 242.016 247.598 243.824 249.541C245.633 251.483 246.487 255.813 246.688 257.735C246.538 255.763 248.338 250.915 249.703 249.541C251.512 247.72 255.33 246.961 257.691 246.506C255.732 246.202 251.813 245.443 249.703 243.622Z" fill="#3D3D3D"/>
<path d="M197.396 243.622C195.708 242.166 194.683 237.552 194.382 235.428C193.658 240.162 193.025 242.105 191.518 243.622C189.709 245.443 185.438 246.253 183.077 246.657C185.137 246.809 189.709 247.598 191.518 249.541C193.327 251.483 194.181 255.813 194.382 257.735C194.231 255.763 196.031 250.915 197.396 249.541C199.205 247.72 203.023 246.961 205.385 246.506C203.425 246.202 199.506 245.443 197.396 243.622Z" fill="#3D3D3D"/>
<path d="M145.088 243.622C143.399 242.166 142.375 237.552 142.073 235.428C141.35 240.162 140.717 242.105 139.209 243.622C137.4 245.443 133.13 246.253 130.768 246.657C132.828 246.809 137.4 247.598 139.209 249.541C141.018 251.483 141.872 255.813 142.073 257.735C141.922 255.763 143.723 250.915 145.088 249.541C146.896 247.72 150.715 246.961 153.076 246.506C151.117 246.202 147.198 245.443 145.088 243.622Z" fill="#3D3D3D"/>
<path d="M92.781 243.622C91.0928 242.166 90.0679 237.552 89.7664 235.428C89.0429 240.162 88.4099 242.105 86.9026 243.622C85.0939 245.443 80.8232 246.253 78.4618 246.657C80.5218 246.809 85.0939 247.598 86.9026 249.541C88.7113 251.483 89.5654 255.813 89.7664 257.735C89.6157 255.763 91.4161 250.915 92.781 249.541C94.5897 247.72 98.4081 246.961 100.77 246.506C98.8101 246.202 94.8912 245.443 92.781 243.622Z" fill="#3D3D3D"/>
<path d="M40.4724 243.622C38.7842 242.166 37.7593 237.552 37.4578 235.428C36.7343 240.162 36.1013 242.105 34.594 243.622C32.7853 245.443 28.5146 246.253 26.1532 246.657C28.2132 246.809 32.7853 247.598 34.594 249.541C36.4027 251.483 37.2568 255.813 37.4578 257.735C37.3071 255.763 39.1075 250.915 40.4724 249.541C42.2811 247.72 46.0995 246.961 48.4609 246.506C46.5015 246.202 42.5826 245.443 40.4724 243.622Z" fill="#3D3D3D"/>
</svg>
