<svg width="520" height="344" viewBox="0 0 520 344" fill="none" xmlns="http://www.w3.org/2000/svg">
<path d="M10.9262 10.6514C8.98378 12.9023 2.83272 14.2689 0 14.6708C6.31293 15.6355 8.90284 16.4796 10.9262 18.4893C13.3543 20.9009 14.4334 26.5951 14.973 29.7436C15.1753 26.997 16.2275 20.9009 18.8174 18.4893C21.4073 16.0776 27.1807 14.9388 29.7436 14.6708C27.1132 14.8718 20.6496 12.4713 18.8174 10.6514C16.3893 8.23978 15.3776 3.14853 14.7706 0C14.366 2.61261 13.3543 7.83784 10.9262 10.6514Z" fill="#3D3D3D"/>
<path d="M80.6704 10.6514C78.7279 12.9023 72.5769 14.2689 69.7441 14.6708C76.0571 15.6355 78.647 16.4796 80.6704 18.4893C83.0984 20.9009 84.1775 26.5951 84.7171 29.7436C84.9194 26.997 85.9716 20.9009 88.5615 18.4893C91.1514 16.0776 96.9248 14.9388 99.4877 14.6708C96.8573 14.8718 90.3938 12.4713 88.5615 10.6514C86.1335 8.23978 85.1218 3.14853 84.5148 0C84.1101 2.61261 83.0984 7.83784 80.6704 10.6514Z" fill="#3D3D3D"/>
<path d="M150.414 10.6514C148.472 12.9023 142.321 14.2689 139.488 14.6708C145.801 15.6355 148.391 16.4796 150.414 18.4893C152.843 20.9009 153.922 26.5951 154.461 29.7436C154.664 26.997 155.716 20.9009 158.306 18.4893C160.896 16.0776 166.669 14.9388 169.232 14.6708C166.601 14.8718 160.138 12.4713 158.306 10.6514C155.878 8.23978 154.866 3.14853 154.259 0C153.854 2.61261 152.843 7.83784 150.414 10.6514Z" fill="#3D3D3D"/>
<path d="M220.157 10.6514C218.214 12.9023 212.063 14.2689 209.23 14.6708C215.543 15.6355 218.133 16.4796 220.157 18.4893C222.585 20.9009 223.664 26.5951 224.203 29.7436C224.406 26.997 225.458 20.9009 228.048 18.4893C230.638 16.0776 236.411 14.9388 238.974 14.6708C236.344 14.8718 229.88 12.4713 228.048 10.6514C225.62 8.23978 224.608 3.14853 224.001 0C223.596 2.61261 222.585 7.83784 220.157 10.6514Z" fill="#3D3D3D"/>
<path d="M289.901 10.6514C287.958 12.9023 281.807 14.2689 278.975 14.6708C285.288 15.6355 287.877 16.4796 289.901 18.4893C292.329 20.9009 293.408 26.5951 293.948 29.7436C294.15 26.997 295.202 20.9009 297.792 18.4893C300.382 16.0776 306.155 14.9388 308.718 14.6708C306.088 14.8718 299.624 12.4713 297.792 10.6514C295.364 8.23978 294.352 3.14853 293.745 0C293.341 2.61261 292.329 7.83784 289.901 10.6514Z" fill="#3D3D3D"/>
<path d="M359.643 10.6514C357.701 12.9023 351.55 14.2689 348.717 14.6708C355.03 15.6355 357.62 16.4796 359.643 18.4893C362.071 20.9009 363.15 26.5951 363.69 29.7436C363.892 26.997 364.944 20.9009 367.534 18.4893C370.124 16.0776 375.897 14.9388 378.46 14.6708C375.83 14.8718 369.366 12.4713 367.534 10.6514C365.106 8.23978 364.094 3.14853 363.487 0C363.083 2.61261 362.071 7.83784 359.643 10.6514Z" fill="#3D3D3D"/>
<path d="M429.387 10.6514C427.445 12.9023 421.294 14.2689 418.461 14.6708C424.774 15.6355 427.364 16.4796 429.387 18.4893C431.815 20.9009 432.894 26.5951 433.434 29.7436C433.636 26.997 434.688 20.9009 437.278 18.4893C439.868 16.0776 445.642 14.9388 448.205 14.6708C445.574 14.8718 439.111 12.4713 437.278 10.6514C434.85 8.23978 433.839 3.14853 433.232 0C432.827 2.61261 431.815 7.83784 429.387 10.6514Z" fill="#3D3D3D"/>
<path d="M507.298 10.9262C505.047 8.98378 503.68 2.83272 503.278 0C502.314 6.31293 501.47 8.90284 499.46 10.9262C497.048 13.3543 491.354 14.4334 488.206 14.973C490.952 15.1753 497.048 16.2275 499.46 18.8174C501.872 21.4073 503.01 27.1807 503.278 29.7436C503.077 27.1132 505.478 20.6496 507.298 18.8174C509.709 16.3893 514.801 15.3776 517.949 14.7706C515.337 14.366 510.111 13.3543 507.298 10.9262Z" fill="#3D3D3D"/>
<path d="M509.349 80.6723C507.098 78.7299 505.731 72.5788 505.329 69.7461C504.365 76.059 503.52 78.6489 501.511 80.6723C499.099 83.1004 493.405 84.1795 490.256 84.7191C493.003 84.9214 499.099 85.9735 501.511 88.5635C503.922 91.1534 505.061 96.9267 505.329 99.4897C505.128 96.8593 507.529 90.3957 509.349 88.5635C511.76 86.1354 516.851 85.1237 520 84.5167C517.387 84.112 512.162 83.1004 509.349 80.6723Z" fill="#3D3D3D"/>
<path d="M509.349 150.411C507.098 148.468 505.731 142.317 505.329 139.484C504.365 145.797 503.52 148.387 501.511 150.411C499.099 152.839 493.405 153.918 490.256 154.457C493.003 154.66 499.099 155.712 501.511 158.302C503.922 160.892 505.061 166.665 505.329 169.228C505.128 166.598 507.529 160.134 509.349 158.302C511.76 155.874 516.851 154.862 520 154.255C517.387 153.85 512.162 152.839 509.349 150.411Z" fill="#3D3D3D"/>
<path d="M509.349 220.157C507.098 218.214 505.731 212.063 505.329 209.23C504.365 215.543 503.52 218.133 501.511 220.157C499.099 222.585 493.405 223.664 490.256 224.203C493.003 224.406 499.099 225.458 501.511 228.048C503.922 230.638 505.061 236.411 505.329 238.974C505.128 236.344 507.529 229.88 509.349 228.048C511.76 225.62 516.851 224.608 520 224.001C517.387 223.596 512.162 222.585 509.349 220.157Z" fill="#3D3D3D"/>
<path d="M509.349 289.901C507.098 287.958 505.731 281.807 505.329 278.975C504.365 285.288 503.52 287.877 501.511 289.901C499.099 292.329 493.405 293.408 490.256 293.948C493.003 294.15 499.099 295.202 501.511 297.792C503.922 300.382 505.061 306.155 505.329 308.718C505.128 306.088 507.529 299.624 509.349 297.792C511.76 295.364 516.851 294.352 520 293.745C517.387 293.341 512.162 292.329 509.349 289.901Z" fill="#3D3D3D"/>
<path d="M507.298 324.829C505.047 322.886 503.68 316.735 503.278 313.902C502.314 320.215 501.47 322.805 499.46 324.829C497.048 327.257 491.354 328.336 488.206 328.875C490.952 329.078 497.048 330.13 499.46 332.72C501.872 335.31 503.01 341.083 503.278 343.646C503.077 341.016 505.478 334.552 507.298 332.72C509.709 330.292 514.801 329.28 517.949 328.673C515.337 328.268 510.111 327.257 507.298 324.829Z" fill="#3D3D3D"/>
<path d="M437.554 324.829C435.303 322.886 433.936 316.735 433.534 313.902C432.57 320.215 431.726 322.805 429.716 324.829C427.304 327.257 421.61 328.336 418.461 328.875C421.208 329.078 427.304 330.13 429.716 332.72C432.127 335.31 433.266 341.083 433.534 343.646C433.333 341.016 435.734 334.552 437.554 332.72C439.965 330.292 445.057 329.28 448.205 328.673C445.592 328.268 440.367 327.257 437.554 324.829Z" fill="#3D3D3D"/>
<path d="M367.81 324.829C365.559 322.886 364.192 316.735 363.79 313.902C362.825 320.215 361.981 322.805 359.972 324.829C357.56 327.257 351.866 328.336 348.717 328.875C351.464 329.078 357.56 330.13 359.972 332.72C362.383 335.31 363.522 341.083 363.79 343.646C363.589 341.016 365.99 334.552 367.81 332.72C370.221 330.292 375.312 329.28 378.461 328.673C375.848 328.268 370.623 327.257 367.81 324.829Z" fill="#3D3D3D"/>
<path d="M298.067 324.829C295.816 322.886 294.45 316.735 294.048 313.902C293.083 320.215 292.239 322.805 290.229 324.829C287.818 327.257 282.124 328.336 278.975 328.875C281.722 329.078 287.818 330.13 290.229 332.72C292.641 335.31 293.78 341.083 294.048 343.646C293.847 341.016 296.247 334.552 298.067 332.72C300.479 330.292 305.57 329.28 308.719 328.673C306.106 328.268 300.881 327.257 298.067 324.829Z" fill="#3D3D3D"/>
<path d="M228.323 324.829C226.072 322.886 224.706 316.735 224.304 313.902C223.339 320.215 222.495 322.805 220.485 324.829C218.074 327.257 212.38 328.336 209.231 328.875C211.978 329.078 218.074 330.13 220.485 332.72C222.897 335.31 224.036 341.083 224.304 343.646C224.103 341.016 226.503 334.552 228.323 332.72C230.735 330.292 235.826 329.28 238.975 328.673C236.362 328.268 231.137 327.257 228.323 324.829Z" fill="#3D3D3D"/>
<path d="M158.579 324.829C156.328 322.886 154.962 316.735 154.56 313.902C153.595 320.215 152.751 322.805 150.741 324.829C148.33 327.257 142.635 328.336 139.487 328.875C142.233 329.078 148.33 330.13 150.741 332.72C153.153 335.31 154.292 341.083 154.56 343.646C154.359 341.016 156.759 334.552 158.579 332.72C160.991 330.292 166.082 329.28 169.23 328.673C166.618 328.268 161.393 327.257 158.579 324.829Z" fill="#3D3D3D"/>
<path d="M88.8369 324.829C86.586 322.886 85.2194 316.735 84.8175 313.902C83.8528 320.215 83.0087 322.805 80.999 324.829C78.5874 327.257 72.8932 328.336 69.7447 328.875C72.4913 329.078 78.5874 330.13 80.999 332.72C83.4107 335.31 84.5495 341.083 84.8175 343.646C84.6165 341.016 87.017 334.552 88.8369 332.72C91.2485 330.292 96.3397 329.28 99.4883 328.673C96.8757 328.268 91.6504 327.257 88.8369 324.829Z" fill="#3D3D3D"/>
<path d="M18.8179 332.995C20.7604 330.744 26.9114 329.378 29.7441 328.976C23.4312 328.011 20.8413 327.167 18.8179 325.157C16.3899 322.746 15.3107 317.051 14.7712 313.903C14.5688 316.649 13.5167 322.746 10.9268 325.157C8.33685 327.569 2.56349 328.708 0.000549316 328.976C2.63094 328.775 9.09452 331.175 10.9268 332.995C13.3548 335.407 14.3665 340.498 14.9735 343.646C15.3782 341.034 16.3899 335.809 18.8179 332.995Z" fill="#3D3D3D"/>
<path d="M18.8179 298.069C20.7604 295.818 26.9114 294.452 29.7441 294.05C23.4312 293.085 20.8413 292.241 18.8179 290.231C16.3899 287.82 15.3107 282.126 14.7712 278.977C14.5688 281.724 13.5167 287.82 10.9268 290.231C8.33685 292.643 2.56349 293.782 0.000549316 294.05C2.63094 293.849 9.09452 296.249 10.9268 298.069C13.3548 300.481 14.3665 305.572 14.9735 308.721C15.3782 306.108 16.3899 300.883 18.8179 298.069Z" fill="#3D3D3D"/>
<path d="M18.8179 263.196C20.7604 260.945 26.9114 259.579 29.7441 259.177C23.4312 258.212 20.8413 257.368 18.8179 255.358C16.3899 252.947 15.3107 247.253 14.7712 244.104C14.5688 246.851 13.5167 252.947 10.9268 255.358C8.33685 257.77 2.56349 258.909 0.000549316 259.177C2.63094 258.976 9.09452 261.376 10.9268 263.196C13.3548 265.608 14.3665 270.699 14.9735 273.848C15.3782 271.235 16.3899 266.01 18.8179 263.196Z" fill="#3D3D3D"/>
<path d="M18.8179 228.323C20.7604 226.072 26.9114 224.706 29.7441 224.304C23.4312 223.339 20.8413 222.495 18.8179 220.485C16.3899 218.074 15.3107 212.38 14.7712 209.231C14.5688 211.978 13.5167 218.074 10.9268 220.485C8.33685 222.897 2.56349 224.036 0.000549316 224.304C2.63094 224.103 9.09452 226.503 10.9268 228.323C13.3548 230.735 14.3665 235.826 14.9735 238.975C15.3782 236.362 16.3899 231.137 18.8179 228.323Z" fill="#3D3D3D"/>
<path d="M18.8179 193.448C20.7604 191.197 26.9114 189.831 29.7441 189.429C23.4312 188.464 20.8413 187.62 18.8179 185.61C16.3899 183.199 15.3107 177.505 14.7712 174.356C14.5688 177.103 13.5167 183.199 10.9268 185.61C8.33685 188.022 2.56349 189.161 0.000549316 189.429C2.63094 189.228 9.09452 191.628 10.9268 193.448C13.3548 195.86 14.3665 200.951 14.9735 204.1C15.3782 201.487 16.3899 196.262 18.8179 193.448Z" fill="#3D3D3D"/>
<path d="M18.8179 158.577C20.7604 156.326 26.9114 154.96 29.7441 154.558C23.4312 153.593 20.8413 152.749 18.8179 150.739C16.3899 148.328 15.3107 142.633 14.7712 139.485C14.5688 142.232 13.5167 148.328 10.9268 150.739C8.33685 153.151 2.56349 154.29 0.000549316 154.558C2.63094 154.357 9.09452 156.757 10.9268 158.577C13.3548 160.989 14.3665 166.08 14.9735 169.229C15.3782 166.616 16.3899 161.391 18.8179 158.577Z" fill="#3D3D3D"/>
<path d="M18.8179 123.71C20.7604 121.459 26.9114 120.092 29.7441 119.691C23.4312 118.726 20.8413 117.882 18.8179 115.872C16.3899 113.46 15.3107 107.766 14.7712 104.618C14.5688 107.364 13.5167 113.46 10.9268 115.872C8.33685 118.284 2.56349 119.423 0.000549316 119.691C2.63094 119.49 9.09452 121.89 10.9268 123.71C13.3548 126.122 14.3665 131.213 14.9735 134.361C15.3782 131.749 16.3899 126.523 18.8179 123.71Z" fill="#3D3D3D"/>
<path d="M18.8179 88.8349C20.7604 86.584 26.9114 85.2174 29.7441 84.8155C23.4312 83.8508 20.8413 83.0068 18.8179 80.9971C16.3899 78.5854 15.3107 72.8913 14.7712 69.7427C14.5688 72.4893 13.5167 78.5854 10.9268 80.9971C8.33685 83.4087 2.56349 84.5475 0.000549316 84.8155C2.63094 84.6145 9.09452 87.015 10.9268 88.8349C13.3548 91.2465 14.3665 96.3378 14.9735 99.4863C15.3782 96.8737 16.3899 91.6485 18.8179 88.8349Z" fill="#3D3D3D"/>
<path d="M18.8179 53.9638C20.7604 51.7129 26.9114 50.3463 29.7441 49.9444C23.4312 48.9798 20.8413 48.1357 18.8179 46.126C16.3899 43.7143 15.3107 38.0202 14.7712 34.8716C14.5688 37.6182 13.5167 43.7143 10.9268 46.126C8.33685 48.5376 2.56349 49.6764 0.000549316 49.9444C2.63094 49.7434 9.09452 52.144 10.9268 53.9638C13.3548 56.3755 14.3665 61.4667 14.9735 64.6152C15.3782 62.0026 16.3899 56.7774 18.8179 53.9638Z" fill="#3D3D3D"/>
<path d="M45.7973 10.6514C43.8549 12.9023 37.7038 14.2689 34.8711 14.6708C41.184 15.6355 43.7739 16.4796 45.7973 18.4893C48.2254 20.9009 49.3045 26.5951 49.8441 29.7436C50.0464 26.997 51.0985 20.9009 53.6885 18.4893C56.2784 16.0776 62.0517 14.9388 64.6147 14.6708C61.9843 14.8718 55.5207 12.4713 53.6885 10.6514C51.2604 8.23978 50.2487 3.14853 49.6417 0C49.237 2.61261 48.2254 7.83784 45.7973 10.6514Z" fill="#3D3D3D"/>
<path d="M115.541 10.6514C113.599 12.9023 107.448 14.2689 104.615 14.6708C110.928 15.6355 113.518 16.4796 115.541 18.4893C117.969 20.9009 119.049 26.5951 119.588 29.7436C119.791 26.997 120.843 20.9009 123.433 18.4893C126.023 16.0776 131.796 14.9388 134.359 14.6708C131.728 14.8718 125.265 12.4713 123.433 10.6514C121.005 8.23978 119.993 3.14853 119.386 0C118.981 2.61261 117.969 7.83784 115.541 10.6514Z" fill="#3D3D3D"/>
<path d="M185.286 10.6514C183.343 12.9023 177.192 14.2689 174.359 14.6708C180.672 15.6355 183.262 16.4796 185.286 18.4893C187.714 20.9009 188.793 26.5951 189.332 29.7436C189.535 26.997 190.587 20.9009 193.177 18.4893C195.767 16.0776 201.54 14.9388 204.103 14.6708C201.473 14.8718 195.009 12.4713 193.177 10.6514C190.749 8.23978 189.737 3.14853 189.13 0C188.725 2.61261 187.714 7.83784 185.286 10.6514Z" fill="#3D3D3D"/>
<path d="M255.03 10.6514C253.087 12.9023 246.936 14.2689 244.104 14.6708C250.416 15.6355 253.006 16.4796 255.03 18.4893C257.458 20.9009 258.537 26.5951 259.076 29.7436C259.279 26.997 260.331 20.9009 262.921 18.4893C265.511 16.0776 271.284 14.9388 273.847 14.6708C271.217 14.8718 264.753 12.4713 262.921 10.6514C260.493 8.23978 259.481 3.14853 258.874 0C258.469 2.61261 257.458 7.83784 255.03 10.6514Z" fill="#3D3D3D"/>
<path d="M324.772 10.6514C322.829 12.9023 316.678 14.2689 313.846 14.6708C320.159 15.6355 322.749 16.4796 324.772 18.4893C327.2 20.9009 328.279 26.5951 328.819 29.7436C329.021 26.997 330.073 20.9009 332.663 18.4893C335.253 16.0776 341.026 14.9388 343.589 14.6708C340.959 14.8718 334.495 12.4713 332.663 10.6514C330.235 8.23978 329.223 3.14853 328.616 0C328.212 2.61261 327.2 7.83784 324.772 10.6514Z" fill="#3D3D3D"/>
<path d="M394.516 10.6514C392.574 12.9023 386.423 14.2689 383.59 14.6708C389.903 15.6355 392.493 16.4796 394.516 18.4893C396.944 20.9009 398.023 26.5951 398.563 29.7436C398.765 26.997 399.817 20.9009 402.407 18.4893C404.997 16.0776 410.77 14.9388 413.333 14.6708C410.703 14.8718 404.239 12.4713 402.407 10.6514C399.979 8.23978 398.967 3.14853 398.36 0C397.956 2.61261 396.944 7.83784 394.516 10.6514Z" fill="#3D3D3D"/>
<path d="M464.258 10.6514C462.316 12.9023 456.165 14.2689 453.332 14.6708C459.645 15.6355 462.235 16.4796 464.258 18.4893C466.686 20.9009 467.765 26.5951 468.305 29.7436C468.507 26.997 469.559 20.9009 472.149 18.4893C474.739 16.0776 480.513 14.9388 483.076 14.6708C480.445 14.8718 473.982 12.4713 472.149 10.6514C469.721 8.23978 468.71 3.14853 468.103 0C467.698 2.61261 466.686 7.83784 464.258 10.6514Z" fill="#3D3D3D"/>
<path d="M509.349 45.7973C507.098 43.8549 505.731 37.7038 505.329 34.8711C504.365 41.184 503.52 43.7739 501.511 45.7973C499.099 48.2254 493.405 49.3045 490.256 49.8441C493.003 50.0464 499.099 51.0985 501.511 53.6885C503.922 56.2784 505.061 62.0517 505.329 64.6147C505.128 61.9843 507.529 55.5207 509.349 53.6885C511.76 51.2604 516.851 50.2487 520 49.6417C517.387 49.237 512.162 48.2254 509.349 45.7973Z" fill="#3D3D3D"/>
<path d="M509.349 115.541C507.098 113.599 505.731 107.448 505.329 104.615C504.365 110.928 503.52 113.518 501.511 115.541C499.099 117.969 493.405 119.049 490.256 119.588C493.003 119.791 499.099 120.843 501.511 123.433C503.922 126.023 505.061 131.796 505.329 134.359C505.128 131.728 507.529 125.265 509.349 123.433C511.76 121.005 516.851 119.993 520 119.386C517.387 118.981 512.162 117.969 509.349 115.541Z" fill="#3D3D3D"/>
<path d="M509.349 185.286C507.098 183.343 505.731 177.192 505.329 174.359C504.365 180.672 503.52 183.262 501.511 185.286C499.099 187.714 493.405 188.793 490.256 189.332C493.003 189.535 499.099 190.587 501.511 193.177C503.922 195.767 505.061 201.54 505.329 204.103C505.128 201.473 507.529 195.009 509.349 193.177C511.76 190.749 516.851 189.737 520 189.13C517.387 188.725 512.162 187.714 509.349 185.286Z" fill="#3D3D3D"/>
<path d="M509.349 255.028C507.098 253.085 505.731 246.934 505.329 244.102C504.365 250.414 503.52 253.004 501.511 255.028C499.099 257.456 493.405 258.535 490.256 259.075C493.003 259.277 499.099 260.329 501.511 262.919C503.922 265.509 505.061 271.282 505.329 273.845C505.128 271.215 507.529 264.751 509.349 262.919C511.76 260.491 516.851 259.479 520 258.872C517.387 258.468 512.162 257.456 509.349 255.028Z" fill="#3D3D3D"/>
<path d="M472.427 324.829C470.176 322.886 468.809 316.735 468.407 313.902C467.443 320.215 466.599 322.805 464.589 324.829C462.177 327.257 456.483 328.336 453.335 328.875C456.081 329.078 462.177 330.13 464.589 332.72C467.001 335.31 468.139 341.083 468.407 343.646C468.206 341.016 470.607 334.552 472.427 332.72C474.838 330.292 479.93 329.28 483.078 328.673C480.466 328.268 475.24 327.257 472.427 324.829Z" fill="#3D3D3D"/>
<path d="M402.683 324.829C400.432 322.886 399.065 316.735 398.663 313.902C397.699 320.215 396.854 322.805 394.845 324.829C392.433 327.257 386.739 328.336 383.59 328.875C386.337 329.078 392.433 330.13 394.845 332.72C397.256 335.31 398.395 341.083 398.663 343.646C398.462 341.016 400.863 334.552 402.683 332.72C405.094 330.292 410.185 329.28 413.334 328.673C410.721 328.268 405.496 327.257 402.683 324.829Z" fill="#3D3D3D"/>
<path d="M332.938 324.829C330.688 322.886 329.321 316.735 328.919 313.902C327.954 320.215 327.11 322.805 325.101 324.829C322.689 327.257 316.995 328.336 313.846 328.875C316.593 329.078 322.689 330.13 325.101 332.72C327.512 335.31 328.651 341.083 328.919 343.646C328.718 341.016 331.119 334.552 332.938 332.72C335.35 330.292 340.441 329.28 343.59 328.673C340.977 328.268 335.752 327.257 332.938 324.829Z" fill="#3D3D3D"/>
<path d="M263.194 324.829C260.943 322.886 259.577 316.735 259.175 313.902C258.21 320.215 257.366 322.805 255.356 324.829C252.945 327.257 247.251 328.336 244.102 328.875C246.849 329.078 252.945 330.13 255.356 332.72C257.768 335.31 258.907 341.083 259.175 343.646C258.974 341.016 261.374 334.552 263.194 332.72C265.606 330.292 270.697 329.28 273.846 328.673C271.233 328.268 266.008 327.257 263.194 324.829Z" fill="#3D3D3D"/>
<path d="M193.45 324.829C191.199 322.886 189.833 316.735 189.431 313.902C188.466 320.215 187.622 322.805 185.612 324.829C183.201 327.257 177.507 328.336 174.358 328.875C177.105 329.078 183.201 330.13 185.612 332.72C188.024 335.31 189.163 341.083 189.431 343.646C189.23 341.016 191.63 334.552 193.45 332.72C195.862 330.292 200.953 329.28 204.102 328.673C201.489 328.268 196.264 327.257 193.45 324.829Z" fill="#3D3D3D"/>
<path d="M123.708 324.829C121.457 322.886 120.09 316.735 119.689 313.902C118.724 320.215 117.88 322.805 115.87 324.829C113.458 327.257 107.764 328.336 104.616 328.875C107.362 329.078 113.458 330.13 115.87 332.72C118.282 335.31 119.421 341.083 119.689 343.646C119.488 341.016 121.888 334.552 123.708 332.72C126.12 330.292 131.211 329.28 134.359 328.673C131.747 328.268 126.522 327.257 123.708 324.829Z" fill="#3D3D3D"/>
<path d="M53.9638 324.829C51.7129 322.886 50.3463 316.735 49.9444 313.902C48.9798 320.215 48.1357 322.805 46.126 324.829C43.7143 327.257 38.0202 328.336 34.8716 328.875C37.6182 329.078 43.7143 330.13 46.126 332.72C48.5376 335.31 49.6764 341.083 49.9444 343.646C49.7434 341.016 52.144 334.552 53.9638 332.72C56.3755 330.292 61.4667 329.28 64.6152 328.673C62.0026 328.268 56.7774 327.257 53.9638 324.829Z" fill="#3D3D3D"/>
<path d="M47.4321 54.9326C47.4321 55.0648 47.4321 55.2205 47.4321 55.3999C47.4321 55.5698 47.4368 55.7492 47.4463 55.938C47.4652 56.1174 47.4888 56.292 47.5171 56.4619C47.5549 56.6224 47.6021 56.764 47.6587 56.8867V56.9717L47.6304 57H45.6479C45.6385 57 45.6196 56.9953 45.5913 56.9858C45.5724 56.9764 45.5583 56.9717 45.5488 56.9717V56.8867C45.6055 56.7734 45.6479 56.6318 45.6763 56.4619C45.714 56.292 45.7424 56.1174 45.7612 55.938C45.7896 55.7492 45.8084 55.5698 45.8179 55.3999C45.8273 55.2205 45.832 55.0648 45.832 54.9326V46.918C45.832 46.8047 45.8273 46.6536 45.8179 46.4648C45.8084 46.276 45.7896 46.0825 45.7612 45.8843C45.7424 45.686 45.714 45.4972 45.6763 45.3179C45.6385 45.1385 45.5913 45.0016 45.5347 44.9072L45.6479 44.8506H47.6021L47.687 44.9072C47.6304 44.9827 47.5832 45.1102 47.5454 45.2896C47.5171 45.4689 47.4935 45.6624 47.4746 45.8701C47.4557 46.0778 47.4416 46.2808 47.4321 46.479C47.4321 46.6678 47.4321 46.8141 47.4321 46.918V50.0049H53.8892V46.918C53.8892 46.7858 53.8844 46.63 53.875 46.4507C53.875 46.2713 53.8608 46.092 53.8325 45.9126C53.8136 45.7238 53.7853 45.5444 53.7476 45.3745C53.7098 45.2046 53.6626 45.063 53.606 44.9497V44.8789C53.6154 44.8789 53.6296 44.8742 53.6484 44.8647C53.6768 44.8553 53.6956 44.8506 53.7051 44.8506H55.645L55.7583 44.9072C55.7017 44.9922 55.6545 45.1243 55.6167 45.3037C55.5789 45.4736 55.5506 45.6624 55.5317 45.8701C55.5129 46.0778 55.4987 46.276 55.4893 46.4648C55.4893 46.6536 55.4893 46.8047 55.4893 46.918V54.9326C55.4893 55.0742 55.4893 55.2347 55.4893 55.4141C55.4987 55.584 55.5081 55.7586 55.5176 55.938C55.5365 56.1079 55.5601 56.2778 55.5884 56.4478C55.6261 56.6177 55.6733 56.764 55.73 56.8867V56.9717L55.7017 57H53.7051C53.6956 57 53.6768 56.9953 53.6484 56.9858C53.6296 56.9764 53.6154 56.9717 53.606 56.9717V56.8867C53.6626 56.764 53.7098 56.6224 53.7476 56.4619C53.7853 56.292 53.8136 56.1174 53.8325 55.938C53.8608 55.7492 53.875 55.5698 53.875 55.3999C53.8844 55.2205 53.8892 55.0648 53.8892 54.9326V50.9253H47.4321V54.9326ZM64.2827 48.0225C64.2827 47.7393 64.2544 47.4561 64.1978 47.1729C64.1411 46.8896 64.042 46.63 63.9004 46.394C63.7682 46.158 63.5889 45.9692 63.3623 45.8276C63.1357 45.6766 62.8573 45.6011 62.5269 45.6011C62.3947 45.6011 62.2578 45.6247 62.1162 45.6719C61.984 45.7096 61.8519 45.7568 61.7197 45.8135C61.5876 45.8607 61.4601 45.9079 61.3374 45.9551C61.2147 45.9928 61.0967 46.0117 60.9834 46.0117C60.8984 46.0117 60.856 45.9692 60.856 45.8843C60.856 45.8371 60.8654 45.7757 60.8843 45.7002C60.9126 45.6247 60.9456 45.5492 60.9834 45.4736C61.0212 45.3887 61.0589 45.3084 61.0967 45.2329C61.1344 45.1574 61.1628 45.096 61.1816 45.0488L61.2949 44.9922C61.4176 45.0488 61.5498 45.0771 61.6914 45.0771C61.833 45.0771 61.9699 45.063 62.1021 45.0347C62.2437 44.9969 62.3805 44.9591 62.5127 44.9214C62.6449 44.8742 62.777 44.8317 62.9092 44.7939C63.0508 44.7562 63.1924 44.7373 63.334 44.7373C63.8154 44.7373 64.2214 44.8364 64.5518 45.0347C64.8822 45.2329 65.1465 45.4925 65.3447 45.8135C65.5524 46.125 65.6987 46.4837 65.7837 46.8896C65.8781 47.2956 65.9253 47.7062 65.9253 48.1216V54.1963C65.9253 54.5645 65.9536 54.8429 66.0103 55.0317C66.0763 55.2111 66.166 55.3621 66.2793 55.4849C66.402 55.5981 66.5483 55.7114 66.7183 55.8247C66.8882 55.9285 67.0864 56.089 67.313 56.3062C67.2752 56.3439 67.2044 56.4194 67.1006 56.5327C67.0062 56.6366 66.8976 56.7451 66.7749 56.8584C66.6616 56.9717 66.5531 57.0708 66.4492 57.1558C66.3548 57.2502 66.2887 57.2974 66.251 57.2974C66.0999 57.2974 65.9395 57.2454 65.7695 57.1416C65.609 57.0472 65.4533 56.9292 65.3022 56.7876C65.1512 56.6366 65.0143 56.4808 64.8916 56.3203C64.7783 56.1598 64.6934 56.0135 64.6367 55.8813C64.0986 56.259 63.5228 56.5894 62.9092 56.8726C62.2956 57.1558 61.6489 57.2974 60.9692 57.2974C60.5256 57.2974 60.1102 57.2266 59.7231 57.085C59.3361 56.9528 58.9963 56.7593 58.7036 56.5044C58.411 56.2401 58.1797 55.9238 58.0098 55.5557C57.8398 55.1875 57.7549 54.7769 57.7549 54.3237C57.7549 53.7573 57.8493 53.2759 58.0381 52.8794C58.2269 52.4735 58.4818 52.1336 58.8027 51.8599C59.1331 51.5861 59.5155 51.369 59.9497 51.2085C60.3934 51.048 60.8654 50.9206 61.3657 50.8262C61.8944 50.7223 62.3947 50.5902 62.8667 50.4297C63.3481 50.2598 63.8201 50.0379 64.2827 49.7642V48.0225ZM64.396 55.1592C64.3299 54.8288 64.2827 54.4937 64.2544 54.1538C64.2355 53.814 64.2261 53.4741 64.2261 53.1343C64.2261 52.7189 64.2355 52.313 64.2544 51.9165C64.2733 51.5106 64.2827 51.0999 64.2827 50.6846C63.9523 50.8262 63.6077 50.9489 63.249 51.0527C62.8903 51.1566 62.5363 51.2651 62.187 51.3784C61.8472 51.4823 61.5168 51.605 61.1958 51.7466C60.8843 51.8882 60.6058 52.0675 60.3604 52.2847C60.1243 52.5018 59.9355 52.7756 59.7939 53.106C59.6523 53.4269 59.5815 53.8234 59.5815 54.2954C59.5815 54.5881 59.6287 54.8618 59.7231 55.1167C59.827 55.3716 59.9686 55.5934 60.1479 55.7822C60.3273 55.971 60.5397 56.1221 60.7852 56.2354C61.0306 56.3392 61.3044 56.3911 61.6064 56.3911C62.1068 56.3911 62.6071 56.2731 63.1074 56.0371C63.6077 55.7917 64.0373 55.499 64.396 55.1592ZM68.998 44.9922L69.0264 44.9072L69.0688 44.8789H70.9238C70.971 44.8789 71.0041 44.9308 71.0229 45.0347C71.0418 45.1291 71.0513 45.2424 71.0513 45.3745C71.0513 45.4972 71.0465 45.62 71.0371 45.7427C71.0277 45.8654 71.0229 45.9456 71.0229 45.9834C71.5138 45.5869 72.0566 45.266 72.6514 45.0205C73.2461 44.7751 73.8644 44.6523 74.5063 44.6523C75.2993 44.6523 76.0262 44.8223 76.687 45.1621C77.3573 45.4925 77.9331 45.9362 78.4146 46.4932C78.896 47.0501 79.2689 47.6873 79.5332 48.4048C79.807 49.1222 79.9438 49.8586 79.9438 50.6138C79.9438 51.1141 79.8872 51.6239 79.7739 52.1431C79.6606 52.6623 79.4907 53.1673 79.2642 53.6582C79.047 54.1491 78.778 54.6117 78.457 55.0459C78.1455 55.4801 77.7868 55.8577 77.3809 56.1787C76.9844 56.4997 76.5407 56.7546 76.0498 56.9434C75.5684 57.1322 75.0539 57.2266 74.5063 57.2266C73.9022 57.2266 73.3075 57.151 72.7222 57C72.1369 56.8584 71.5846 56.6271 71.0654 56.3062V60.2568C71.0654 60.6816 71.1504 61.0828 71.3203 61.4604V61.5312L71.2495 61.6021H69.0688L68.998 61.4604C69.2152 61.0828 69.3237 60.6816 69.3237 60.2568L69.2388 46.1958C69.2388 45.9881 69.2246 45.7852 69.1963 45.5869C69.168 45.3792 69.1019 45.181 68.998 44.9922ZM71.0513 55.1592C71.5044 55.584 72.0236 55.9002 72.6089 56.1079C73.1942 56.3156 73.7936 56.4194 74.4072 56.4194C75.0208 56.4194 75.5589 56.2495 76.0215 55.9097C76.484 55.5604 76.8664 55.1261 77.1685 54.6069C77.48 54.0877 77.7113 53.526 77.8623 52.9219C78.0228 52.3177 78.103 51.756 78.103 51.2368C78.103 50.8498 78.07 50.4438 78.0039 50.019C77.9473 49.5848 77.8529 49.16 77.7207 48.7446C77.598 48.3198 77.4375 47.9186 77.2393 47.541C77.041 47.1634 76.7956 46.833 76.5029 46.5498C76.2197 46.2572 75.8893 46.0259 75.5117 45.856C75.1436 45.686 74.7235 45.6011 74.2515 45.6011C73.6567 45.6011 73.0809 45.7238 72.5239 45.9692C71.9764 46.2147 71.4761 46.5215 71.0229 46.8896L71.0513 55.1592ZM91.6543 56.915V57H89.6294L89.6152 56.915C89.7096 56.6696 89.7852 56.4194 89.8418 56.1646C89.8984 55.9002 89.9268 55.6312 89.9268 55.3574V47.272L82.3228 57.6797L82.2803 57.708L82.2095 57.6089V46.2241C82.2095 45.9881 82.1812 45.7616 82.1245 45.5444C82.0773 45.3179 82.0537 45.0866 82.0537 44.8506C82.0726 44.8506 82.082 44.8506 82.082 44.8506C82.0915 44.8411 82.1056 44.8364 82.1245 44.8364H84.0078C84.055 44.8364 84.0881 44.8411 84.1069 44.8506V44.9497C84.0031 45.1951 83.9181 45.4453 83.8521 45.7002C83.7954 45.9551 83.7671 46.2147 83.7671 46.479V54.437L89.9551 45.771C90.125 45.5444 90.21 45.2848 90.21 44.9922L90.2949 44.9072H91.7676L91.8384 44.9497L91.3711 45.7285L91.3994 55.3574C91.3994 55.6217 91.4136 55.8861 91.4419 56.1504C91.4797 56.4147 91.5505 56.6696 91.6543 56.915ZM100.15 45.5444C99.4424 45.5444 98.8099 45.7049 98.2529 46.0259C97.696 46.3374 97.224 46.748 96.8369 47.2578C96.4593 47.7581 96.1667 48.3293 95.959 48.9712C95.7607 49.6037 95.6616 50.2456 95.6616 50.897C95.6616 51.7183 95.7891 52.4782 96.0439 53.1768C96.2988 53.8659 96.6623 54.4653 97.1343 54.9751C97.6157 55.4754 98.1916 55.8672 98.8618 56.1504C99.5415 56.4336 100.301 56.5752 101.142 56.5752C101.595 56.5752 102.038 56.5044 102.473 56.3628C102.916 56.2212 103.318 56.0088 103.676 55.7256C103.487 56.0182 103.256 56.2684 102.982 56.4761C102.718 56.6743 102.425 56.8348 102.104 56.9575C101.784 57.0802 101.453 57.1652 101.113 57.2124C100.773 57.269 100.438 57.2974 100.108 57.2974C99.2111 57.2974 98.3757 57.1416 97.6016 56.8301C96.8369 56.5186 96.1714 56.089 95.605 55.5415C95.0386 54.9845 94.5902 54.3285 94.2598 53.5732C93.9388 52.8086 93.7783 51.9779 93.7783 51.0811C93.7783 50.1654 93.9294 49.3158 94.2314 48.5322C94.5335 47.7487 94.9583 47.069 95.5059 46.4932C96.0628 45.9173 96.7236 45.4689 97.4883 45.1479C98.2624 44.8175 99.112 44.6523 100.037 44.6523C100.32 44.6523 100.599 44.6807 100.873 44.7373C101.156 44.7845 101.434 44.8411 101.708 44.9072C101.991 44.9733 102.27 45.0394 102.543 45.1055C102.817 45.1715 103.096 45.2188 103.379 45.2471L103.464 45.332C103.511 45.5492 103.544 45.7757 103.563 46.0117C103.591 46.2383 103.605 46.4648 103.605 46.6914L103.535 46.748H103.464C102.992 46.3704 102.473 46.0778 101.906 45.8701C101.34 45.653 100.755 45.5444 100.15 45.5444ZM115.033 44.9922L115.075 44.9072L115.132 44.8789H116.647L116.718 44.9214C116.652 45.1763 116.534 45.4076 116.364 45.6152C116.203 45.8135 116.066 46.0306 115.953 46.2666L109.85 58.3594C109.68 58.6898 109.482 59.0391 109.255 59.4072C109.038 59.7754 108.793 60.1388 108.519 60.4976C108.245 60.8563 107.953 61.1961 107.641 61.5171C107.33 61.8475 106.994 62.1354 106.636 62.3809C106.286 62.6357 105.918 62.834 105.531 62.9756C105.144 63.1266 104.743 63.2021 104.328 63.2021C103.95 63.2021 103.582 63.1502 103.223 63.0464C102.855 62.952 102.515 62.7962 102.204 62.5791L102.175 62.4941C102.355 62.3053 102.553 62.1449 102.77 62.0127C102.987 61.8805 103.2 61.7437 103.407 61.6021H103.464C104.002 61.9136 104.587 62.0693 105.22 62.0693C105.56 62.0693 105.89 61.9655 106.211 61.7578C106.541 61.5596 106.853 61.2952 107.146 60.9648C107.448 60.6439 107.731 60.2804 107.995 59.8745C108.269 59.4686 108.519 59.0579 108.746 58.6426C108.972 58.2272 109.175 57.8307 109.354 57.4531C109.534 57.0755 109.69 56.7546 109.822 56.4902L104.724 45.0205V44.9214L104.795 44.8789H107.146L107.188 44.9072H107.216C107.226 44.9167 107.23 44.9544 107.23 45.0205C107.23 45.0866 107.23 45.1574 107.23 45.2329C107.23 45.3084 107.226 45.384 107.216 45.4595C107.216 45.5256 107.216 45.568 107.216 45.5869C107.216 45.7191 107.226 45.856 107.245 45.9976C107.273 46.1297 107.315 46.2619 107.372 46.394L110.955 54.1963L114.849 46.3799C115 46.0872 115.075 45.7663 115.075 45.417C115.075 45.2754 115.061 45.1338 115.033 44.9922ZM127.734 56.915V57H125.709L125.695 56.915C125.79 56.6696 125.865 56.4194 125.922 56.1646C125.979 55.9002 126.007 55.6312 126.007 55.3574V47.272L118.403 57.6797L118.36 57.708L118.29 57.6089V46.2241C118.29 45.9881 118.261 45.7616 118.205 45.5444C118.157 45.3179 118.134 45.0866 118.134 44.8506C118.153 44.8506 118.162 44.8506 118.162 44.8506C118.172 44.8411 118.186 44.8364 118.205 44.8364H120.088C120.135 44.8364 120.168 44.8411 120.187 44.8506V44.9497C120.083 45.1951 119.998 45.4453 119.932 45.7002C119.875 45.9551 119.847 46.2147 119.847 46.479V54.437L126.035 45.771C126.205 45.5444 126.29 45.2848 126.29 44.9922L126.375 44.9072H127.848L127.918 44.9497L127.451 45.7285L127.479 55.3574C127.479 55.6217 127.494 55.8861 127.522 56.1504C127.56 56.4147 127.631 56.6696 127.734 56.915ZM124.478 41.3105C124.732 41.3294 124.983 41.3719 125.228 41.438C125.483 41.5041 125.733 41.5701 125.979 41.6362L126.007 41.6929C125.96 41.8911 125.832 42.1035 125.625 42.3301C125.426 42.5566 125.195 42.7643 124.931 42.9531C124.666 43.1419 124.393 43.2977 124.109 43.4204C123.836 43.5431 123.595 43.6045 123.387 43.6045C123.17 43.6045 122.92 43.5431 122.637 43.4204C122.363 43.2977 122.094 43.1419 121.83 42.9531C121.565 42.7549 121.329 42.5425 121.122 42.3159C120.923 42.0894 120.796 41.8722 120.739 41.6646L120.768 41.6079C120.994 41.5607 121.244 41.4993 121.518 41.4238C121.792 41.3389 122.037 41.2964 122.254 41.2964L122.283 41.3105C122.283 41.3294 122.278 41.353 122.269 41.3813C122.269 41.4097 122.269 41.4333 122.269 41.4521C122.269 41.6126 122.287 41.7826 122.325 41.9619C122.372 42.1413 122.438 42.3065 122.523 42.4575C122.618 42.5991 122.731 42.7218 122.863 42.8257C123.005 42.9201 123.17 42.9673 123.359 42.9673C123.557 42.9673 123.727 42.9154 123.869 42.8115C124.01 42.6982 124.124 42.5614 124.208 42.4009C124.293 42.231 124.355 42.0516 124.393 41.8628C124.43 41.6646 124.449 41.4852 124.449 41.3247L124.478 41.3105ZM148.536 55.4565L149.98 55.1592L150.065 55.1875L150.093 55.2866C150.056 55.4188 149.98 55.617 149.867 55.8813C149.763 56.1362 149.631 56.4242 149.47 56.7451C149.319 57.0661 149.154 57.3965 148.975 57.7363C148.795 58.0762 148.611 58.3924 148.422 58.6851C148.243 58.9777 148.073 59.2231 147.913 59.4214C147.752 59.6196 147.615 59.7376 147.502 59.7754C147.389 59.7188 147.285 59.6479 147.19 59.563C147.096 59.4875 147.006 59.4025 146.921 59.3081C147.148 58.9305 147.356 58.5623 147.544 58.2036C147.743 57.8449 147.865 57.4437 147.913 57C146.799 57 145.685 57.0047 144.571 57.0142C143.466 57.033 142.357 57.0425 141.243 57.0425C140.969 57.0425 140.681 57.0472 140.379 57.0566C140.077 57.0661 139.799 57.0378 139.544 56.9717V56.8867C139.601 56.7546 139.648 56.6035 139.686 56.4336C139.723 56.2542 139.752 56.0749 139.771 55.8955C139.789 55.7067 139.804 55.5226 139.813 55.3433C139.822 55.1545 139.827 54.9893 139.827 54.8477V47.0454C139.827 46.9038 139.822 46.7433 139.813 46.564C139.804 46.3752 139.789 46.1864 139.771 45.9976C139.752 45.8088 139.723 45.6294 139.686 45.4595C139.648 45.2801 139.601 45.1243 139.544 44.9922V44.9355L139.615 44.8789H141.569L141.611 44.9072H141.625V44.9922C141.569 45.1243 141.526 45.2801 141.498 45.4595C141.47 45.6388 141.446 45.8229 141.427 46.0117C141.418 46.1911 141.408 46.3752 141.399 46.564C141.399 46.7433 141.399 46.9038 141.399 47.0454V56.0371H146.964V47.0454C146.964 46.9038 146.959 46.7433 146.95 46.564C146.95 46.3752 146.94 46.1864 146.921 45.9976C146.903 45.8088 146.874 45.6294 146.836 45.4595C146.808 45.2801 146.761 45.1243 146.695 44.9922V44.9072C146.704 44.9072 146.718 44.9025 146.737 44.8931C146.756 44.8836 146.77 44.8789 146.78 44.8789H148.734L148.776 44.9072V44.9922C148.72 45.1243 148.677 45.2801 148.649 45.4595C148.621 45.6388 148.597 45.8229 148.578 46.0117C148.559 46.1911 148.545 46.3752 148.536 46.564C148.536 46.7433 148.536 46.9038 148.536 47.0454V55.4565ZM152.118 45.1338C152.505 45.1338 152.888 45.1149 153.265 45.0771C153.652 45.0299 154.039 44.978 154.426 44.9214C154.813 44.8647 155.196 44.8175 155.573 44.7798C155.96 44.7326 156.347 44.709 156.734 44.709C157.15 44.709 157.565 44.7609 157.98 44.8647C158.405 44.9591 158.783 45.1149 159.113 45.332C159.453 45.5397 159.727 45.8135 159.935 46.1533C160.152 46.4837 160.26 46.8896 160.26 47.3711C160.26 47.8242 160.152 48.216 159.935 48.5464C159.727 48.8674 159.458 49.1411 159.127 49.3677C158.806 49.5848 158.443 49.7547 158.037 49.8774C157.641 50.0002 157.254 50.0898 156.876 50.1465C157.386 50.1937 157.905 50.2881 158.434 50.4297C158.962 50.5713 159.444 50.779 159.878 51.0527C160.322 51.3265 160.68 51.6758 160.954 52.1006C161.237 52.516 161.379 53.0257 161.379 53.6299C161.379 54.1396 161.209 54.6022 160.869 55.0176C160.539 55.4329 160.128 55.7869 159.637 56.0796C159.146 56.3722 158.622 56.5988 158.065 56.7593C157.518 56.9198 157.027 57 156.593 57H152.118L152.076 56.9717L152.047 56.8867C152.161 56.5752 152.236 56.2542 152.274 55.9238C152.312 55.5934 152.331 55.263 152.331 54.9326V47.2012C152.331 46.8708 152.312 46.5404 152.274 46.21C152.236 45.8796 152.161 45.5586 152.047 45.2471V45.2329L152.118 45.1338ZM153.874 56.3203C154.119 56.3864 154.365 56.4289 154.61 56.4478C154.856 56.4572 155.101 56.4619 155.347 56.4619C155.753 56.4619 156.192 56.4053 156.664 56.292C157.136 56.1787 157.575 56.0088 157.98 55.7822C158.386 55.5557 158.722 55.2677 158.986 54.9185C159.26 54.5597 159.396 54.1396 159.396 53.6582C159.396 53.054 159.269 52.5584 159.014 52.1714C158.759 51.7749 158.429 51.4634 158.023 51.2368C157.617 51.0103 157.159 50.8545 156.649 50.7695C156.149 50.6846 155.649 50.6421 155.148 50.6421C154.931 50.6421 154.714 50.661 154.497 50.6987C154.289 50.7271 154.082 50.7837 153.874 50.8687V56.3203ZM153.874 49.9341C154.082 49.9813 154.289 50.0096 154.497 50.019C154.705 50.0285 154.912 50.0332 155.12 50.0332C155.498 50.0332 155.889 49.9954 156.295 49.9199C156.711 49.8444 157.084 49.717 157.414 49.5376C157.754 49.3582 158.032 49.1175 158.25 48.8154C158.467 48.5039 158.575 48.1121 158.575 47.6401C158.575 47.2437 158.49 46.9038 158.32 46.6206C158.15 46.328 157.929 46.0872 157.655 45.8984C157.39 45.7096 157.084 45.5728 156.734 45.4878C156.395 45.3934 156.05 45.3462 155.701 45.3462C155.078 45.3462 154.469 45.4689 153.874 45.7144V49.9341ZM164.947 48.8721C164.815 49.278 164.716 49.6934 164.65 50.1182C164.584 50.543 164.551 50.9678 164.551 51.3926C164.551 52.2611 164.674 53.021 164.919 53.6724C165.164 54.3143 165.518 54.8524 165.981 55.2866C166.453 55.7114 167.024 56.0324 167.694 56.2495C168.365 56.4572 169.12 56.561 169.96 56.561C170.526 56.561 171.079 56.4761 171.617 56.3062C172.164 56.1268 172.679 55.8861 173.16 55.584C172.518 56.207 171.82 56.6554 171.064 56.9292C170.319 57.1935 169.502 57.3257 168.615 57.3257C167.737 57.3257 166.939 57.1794 166.222 56.8867C165.504 56.5846 164.895 56.1693 164.395 55.6406C163.895 55.112 163.508 54.4842 163.234 53.7573C162.96 53.021 162.823 52.2186 162.823 51.3501C162.823 50.5099 162.984 49.6886 163.305 48.8862C163.626 48.0838 164.065 47.3711 164.622 46.748C165.179 46.1156 165.835 45.6105 166.59 45.2329C167.345 44.8459 168.162 44.6523 169.04 44.6523C169.644 44.6523 170.224 44.7515 170.781 44.9497C171.348 45.1479 171.848 45.4312 172.282 45.7993C172.716 46.1675 173.061 46.6112 173.316 47.1304C173.58 47.6496 173.712 48.2301 173.712 48.8721H164.947ZM171.843 48.1499C171.806 47.7345 171.721 47.3569 171.588 47.0171C171.456 46.6678 171.272 46.3704 171.036 46.125C170.81 45.8796 170.526 45.6908 170.187 45.5586C169.856 45.417 169.474 45.3462 169.04 45.3462C168.596 45.3462 168.176 45.4217 167.779 45.5728C167.392 45.7144 167.034 45.9126 166.703 46.1675C166.382 46.4224 166.094 46.7197 165.839 47.0596C165.584 47.3994 165.372 47.7629 165.202 48.1499H171.843ZM184.941 44.8364L185.041 44.8789C185.078 45.0677 185.13 45.2754 185.196 45.502C185.272 45.7191 185.305 45.922 185.295 46.1108L185.196 46.125C184.913 46.0212 184.62 45.9362 184.318 45.8701C184.016 45.804 183.714 45.771 183.412 45.771H180.849V54.9043C180.849 55.0365 180.849 55.1922 180.849 55.3716C180.849 55.5509 180.854 55.735 180.863 55.9238C180.882 56.1032 180.91 56.2826 180.948 56.4619C180.986 56.6318 181.038 56.7734 181.104 56.8867V56.9717L181.076 57H179.051C179.041 57 179.027 56.9953 179.008 56.9858C178.989 56.9764 178.975 56.9717 178.966 56.9717V56.8867C179.022 56.7734 179.07 56.6318 179.107 56.4619C179.155 56.292 179.188 56.1126 179.207 55.9238C179.225 55.735 179.24 55.5509 179.249 55.3716C179.258 55.1922 179.263 55.0365 179.263 54.9043V45.771H176.729C176.426 45.771 176.124 45.804 175.822 45.8701C175.53 45.9362 175.242 46.0212 174.958 46.125L174.859 46.1108L174.845 46.0117L175.114 44.8789L175.228 44.8364H184.941ZM191.455 45.2046C190.719 45.2046 190.063 45.384 189.487 45.7427C188.911 46.092 188.43 46.5451 188.042 47.1021C187.655 47.659 187.358 48.2821 187.15 48.9712C186.943 49.6509 186.839 50.3164 186.839 50.9678C186.839 51.6191 186.943 52.2894 187.15 52.9785C187.358 53.6582 187.651 54.2812 188.028 54.8477C188.415 55.4046 188.897 55.8577 189.473 56.207C190.049 56.5563 190.709 56.731 191.455 56.731C192.191 56.731 192.843 56.5563 193.409 56.207C193.985 55.8483 194.466 55.3905 194.854 54.8335C195.25 54.2765 195.552 53.6582 195.76 52.9785C195.977 52.2894 196.085 51.6191 196.085 50.9678C196.085 50.3164 195.977 49.6509 195.76 48.9712C195.552 48.2821 195.25 47.659 194.854 47.1021C194.466 46.5451 193.985 46.092 193.409 45.7427C192.843 45.384 192.191 45.2046 191.455 45.2046ZM191.455 44.6523C192.324 44.6523 193.14 44.8175 193.905 45.1479C194.679 45.4784 195.354 45.9315 195.93 46.5073C196.515 47.0737 196.973 47.744 197.303 48.5181C197.643 49.2827 197.813 50.0993 197.813 50.9678C197.813 51.8363 197.643 52.6576 197.303 53.4316C196.973 54.1963 196.52 54.8665 195.944 55.4424C195.368 56.0182 194.693 56.4714 193.919 56.8018C193.145 57.1322 192.324 57.2974 191.455 57.2974C190.587 57.2974 189.765 57.1322 188.991 56.8018C188.217 56.4714 187.537 56.0182 186.952 55.4424C186.376 54.8665 185.918 54.1963 185.579 53.4316C185.248 52.667 185.083 51.8457 185.083 50.9678C185.083 50.0898 185.248 49.2686 185.579 48.5039C185.918 47.7393 186.376 47.0737 186.952 46.5073C187.537 45.9315 188.217 45.4784 188.991 45.1479C189.765 44.8175 190.587 44.6523 191.455 44.6523ZM201.537 50.0615C201.622 50.0993 201.731 50.1182 201.863 50.1182C202.316 50.1182 202.708 50.0993 203.038 50.0615C203.368 50.0238 203.652 49.9388 203.888 49.8066C204.133 49.665 204.336 49.4574 204.497 49.1836C204.657 48.9098 204.799 48.5322 204.921 48.0508C205.025 47.626 205.143 47.2106 205.275 46.8047C205.408 46.3893 205.582 46.0212 205.799 45.7002C206.026 45.3792 206.309 45.1196 206.649 44.9214C206.998 44.7231 207.437 44.624 207.966 44.624C208.249 44.624 208.528 44.6571 208.801 44.7231C209.075 44.7798 209.354 44.8081 209.637 44.8081C209.637 44.827 209.637 44.8411 209.637 44.8506C209.646 44.8506 209.651 44.86 209.651 44.8789C209.651 45.0771 209.632 45.2754 209.594 45.4736C209.556 45.6624 209.523 45.856 209.495 46.0542L209.424 46.125C209.349 46.1061 209.273 46.0589 209.198 45.9834C209.132 45.8984 209.051 45.8088 208.957 45.7144C208.872 45.62 208.764 45.5397 208.631 45.4736C208.509 45.3981 208.358 45.3604 208.178 45.3604C207.876 45.3604 207.635 45.4595 207.456 45.6577C207.277 45.8465 207.13 46.0778 207.017 46.3516C206.913 46.6159 206.828 46.8991 206.762 47.2012C206.696 47.5033 206.635 47.7581 206.578 47.9658C206.493 48.2679 206.361 48.5369 206.182 48.7729C206.012 48.9995 205.813 49.2072 205.587 49.396C205.36 49.5754 205.115 49.7406 204.851 49.8916C204.586 50.0426 204.327 50.1795 204.072 50.3022L210.67 56.8584L210.699 56.9434L210.6 57H207.796L207.697 56.915C207.697 56.6507 207.65 56.3911 207.555 56.1362C207.47 55.8813 207.333 55.6595 207.145 55.4707L202.387 50.8403C202.245 50.8403 202.104 50.8451 201.962 50.8545C201.82 50.8545 201.679 50.8451 201.537 50.8262V54.8901C201.537 55.0412 201.537 55.2064 201.537 55.3857C201.547 55.5557 201.556 55.7303 201.565 55.9097C201.584 56.089 201.608 56.2637 201.636 56.4336C201.674 56.6035 201.726 56.7546 201.792 56.8867V56.9717L201.764 57H199.725C199.715 57 199.701 56.9953 199.682 56.9858C199.663 56.9764 199.649 56.9717 199.64 56.9717V56.8867C199.696 56.7734 199.743 56.6318 199.781 56.4619C199.819 56.2826 199.843 56.1032 199.852 55.9238C199.871 55.735 199.88 55.5509 199.88 55.3716C199.89 55.1828 199.895 55.0223 199.895 54.8901V46.9463C199.895 46.8141 199.89 46.6584 199.88 46.479C199.88 46.2996 199.871 46.1156 199.852 45.9268C199.843 45.738 199.819 45.5586 199.781 45.3887C199.743 45.2093 199.696 45.063 199.64 44.9497V44.8506C199.659 44.8506 199.673 44.8506 199.682 44.8506C199.692 44.8411 199.706 44.8364 199.725 44.8364H201.721C201.74 44.8364 201.75 44.8411 201.75 44.8506C201.759 44.8506 201.773 44.8506 201.792 44.8506V44.9497C201.726 45.0819 201.674 45.2329 201.636 45.4028C201.608 45.5728 201.584 45.7474 201.565 45.9268C201.556 46.1061 201.547 46.2855 201.537 46.4648C201.537 46.6348 201.537 46.7952 201.537 46.9463V50.0615ZM229.886 56.915V57H227.861L227.847 56.915C227.941 56.6696 228.017 56.4194 228.073 56.1646C228.13 55.9002 228.158 55.6312 228.158 55.3574V47.272L220.554 57.6797L220.512 57.708L220.441 57.6089V46.2241C220.441 45.9881 220.413 45.7616 220.356 45.5444C220.309 45.3179 220.285 45.0866 220.285 44.8506C220.304 44.8506 220.313 44.8506 220.313 44.8506C220.323 44.8411 220.337 44.8364 220.356 44.8364H222.239C222.286 44.8364 222.319 44.8411 222.338 44.8506V44.9497C222.235 45.1951 222.15 45.4453 222.083 45.7002C222.027 45.9551 221.999 46.2147 221.999 46.479V54.437L228.187 45.771C228.356 45.5444 228.441 45.2848 228.441 44.9922L228.526 44.9072H229.999L230.07 44.9497L229.603 45.7285L229.631 55.3574C229.631 55.6217 229.645 55.8861 229.673 56.1504C229.711 56.4147 229.782 56.6696 229.886 56.915ZM249.696 44.8789L249.738 44.9072V44.9922C249.682 45.1243 249.634 45.2801 249.597 45.4595C249.568 45.6294 249.545 45.8088 249.526 45.9976C249.516 46.1864 249.507 46.3752 249.498 46.564C249.498 46.7433 249.498 46.9038 249.498 47.0454V54.8477C249.498 54.9893 249.498 55.1545 249.498 55.3433C249.507 55.5226 249.521 55.7067 249.54 55.8955C249.559 56.0749 249.583 56.2542 249.611 56.4336C249.639 56.613 249.682 56.764 249.738 56.8867V56.9717L249.696 57H247.742C247.732 57 247.718 56.9953 247.699 56.9858C247.68 56.9764 247.666 56.9717 247.657 56.9717V56.8867C247.723 56.7734 247.77 56.6318 247.798 56.4619C247.836 56.2826 247.864 56.0985 247.883 55.9097C247.902 55.7114 247.912 55.5226 247.912 55.3433C247.921 55.1545 247.926 54.9893 247.926 54.8477V45.8418H242.361V54.8477C242.361 54.9893 242.361 55.1545 242.361 55.3433C242.361 55.5226 242.366 55.7067 242.375 55.8955C242.394 56.0749 242.417 56.2542 242.446 56.4336C242.484 56.6035 242.531 56.7546 242.587 56.8867V56.9717L242.573 57H240.577L240.506 56.9717V56.8867C240.562 56.7734 240.61 56.6271 240.647 56.4478C240.685 56.2684 240.714 56.0843 240.732 55.8955C240.751 55.7067 240.765 55.5179 240.775 55.3291C240.784 55.1403 240.789 54.9798 240.789 54.8477V47.0454C240.789 46.9038 240.784 46.7433 240.775 46.564C240.765 46.3752 240.751 46.1864 240.732 45.9976C240.714 45.8088 240.685 45.6294 240.647 45.4595C240.61 45.2801 240.562 45.1243 240.506 44.9922V44.9355L240.577 44.8789H249.696ZM258.574 45.2046C257.838 45.2046 257.182 45.384 256.606 45.7427C256.03 46.092 255.549 46.5451 255.162 47.1021C254.775 47.659 254.477 48.2821 254.27 48.9712C254.062 49.6509 253.958 50.3164 253.958 50.9678C253.958 51.6191 254.062 52.2894 254.27 52.9785C254.477 53.6582 254.77 54.2812 255.147 54.8477C255.535 55.4046 256.016 55.8577 256.592 56.207C257.168 56.5563 257.828 56.731 258.574 56.731C259.311 56.731 259.962 56.5563 260.528 56.207C261.104 55.8483 261.586 55.3905 261.973 54.8335C262.369 54.2765 262.671 53.6582 262.879 52.9785C263.096 52.2894 263.205 51.6191 263.205 50.9678C263.205 50.3164 263.096 49.6509 262.879 48.9712C262.671 48.2821 262.369 47.659 261.973 47.1021C261.586 46.5451 261.104 46.092 260.528 45.7427C259.962 45.384 259.311 45.2046 258.574 45.2046ZM258.574 44.6523C259.443 44.6523 260.259 44.8175 261.024 45.1479C261.798 45.4784 262.473 45.9315 263.049 46.5073C263.634 47.0737 264.092 47.744 264.422 48.5181C264.762 49.2827 264.932 50.0993 264.932 50.9678C264.932 51.8363 264.762 52.6576 264.422 53.4316C264.092 54.1963 263.639 54.8665 263.063 55.4424C262.487 56.0182 261.812 56.4714 261.038 56.8018C260.264 57.1322 259.443 57.2974 258.574 57.2974C257.706 57.2974 256.884 57.1322 256.11 56.8018C255.336 56.4714 254.657 56.0182 254.071 55.4424C253.495 54.8665 253.038 54.1963 252.698 53.4316C252.367 52.667 252.202 51.8457 252.202 50.9678C252.202 50.0898 252.367 49.2686 252.698 48.5039C253.038 47.7393 253.495 47.0737 254.071 46.5073C254.657 45.9315 255.336 45.4784 256.11 45.1479C256.884 44.8175 257.706 44.6523 258.574 44.6523ZM267.92 56.3486C268.515 56.3486 268.996 56.2118 269.364 55.938C269.742 55.6548 270.03 55.3008 270.228 54.876C270.436 54.4512 270.577 53.9839 270.653 53.4741C270.728 52.9644 270.766 52.4735 270.766 52.0015V46.9746C270.766 46.6725 270.743 46.3327 270.695 45.9551C270.658 45.568 270.577 45.2376 270.455 44.9639V44.8789L270.54 44.8364H277.903C277.922 44.8364 277.931 44.8411 277.931 44.8506C277.941 44.8506 277.955 44.8506 277.974 44.8506V44.9497C277.86 45.2518 277.79 45.5869 277.761 45.9551C277.733 46.3138 277.719 46.6536 277.719 46.9746V54.876C277.719 55.2347 277.738 55.5793 277.775 55.9097C277.823 56.2306 277.889 56.5658 277.974 56.915V56.9717L277.959 57H275.864C275.835 57 275.802 56.9906 275.765 56.9717V56.915C275.878 56.613 275.953 56.2778 275.991 55.9097C276.038 55.5415 276.062 55.1969 276.062 54.876V45.771H272.465C272.456 46.63 272.446 47.4891 272.437 48.3481C272.437 49.2072 272.437 50.0662 272.437 50.9253C272.437 51.8032 272.366 52.6151 272.225 53.3608C272.083 54.1066 271.828 54.7533 271.46 55.3008C271.092 55.8483 270.587 56.2778 269.945 56.5894C269.303 56.8914 268.482 57.0425 267.481 57.0425C267.207 57.0425 267.009 57.0236 266.886 56.9858C266.764 56.9481 266.679 56.8867 266.631 56.8018C266.584 56.7074 266.556 56.5846 266.546 56.4336C266.546 56.2826 266.528 56.0985 266.49 55.8813L266.532 55.7964H266.66C266.82 55.9663 267.009 56.1032 267.226 56.207C267.453 56.3014 267.684 56.3486 267.92 56.3486ZM283.694 40.3477H283.808V40.4185H283.694V40.3477ZM289.542 44.9922L289.585 44.9072L289.642 44.8789H291.157L291.228 44.9214C291.161 45.1763 291.043 45.4076 290.874 45.6152C290.713 45.8135 290.576 46.0306 290.463 46.2666L284.36 58.3594C284.19 58.6898 283.992 59.0391 283.765 59.4072C283.548 59.7754 283.303 60.1388 283.029 60.4976C282.755 60.8563 282.462 61.1961 282.151 61.5171C281.839 61.8475 281.504 62.1354 281.146 62.3809C280.796 62.6357 280.428 62.834 280.041 62.9756C279.654 63.1266 279.253 63.2021 278.837 63.2021C278.46 63.2021 278.092 63.1502 277.733 63.0464C277.365 62.952 277.025 62.7962 276.713 62.5791L276.685 62.4941C276.864 62.3053 277.063 62.1449 277.28 62.0127C277.497 61.8805 277.709 61.7437 277.917 61.6021H277.974C278.512 61.9136 279.097 62.0693 279.729 62.0693C280.069 62.0693 280.4 61.9655 280.721 61.7578C281.051 61.5596 281.363 61.2952 281.655 60.9648C281.957 60.6439 282.241 60.2804 282.505 59.8745C282.779 59.4686 283.029 59.0579 283.255 58.6426C283.482 58.2272 283.685 57.8307 283.864 57.4531C284.044 57.0755 284.199 56.7546 284.332 56.4902L279.234 45.0205V44.9214L279.305 44.8789H281.655L281.698 44.9072H281.726C281.736 44.9167 281.74 44.9544 281.74 45.0205C281.74 45.0866 281.74 45.1574 281.74 45.2329C281.74 45.3084 281.736 45.384 281.726 45.4595C281.726 45.5256 281.726 45.568 281.726 45.5869C281.726 45.7191 281.736 45.856 281.754 45.9976C281.783 46.1297 281.825 46.2619 281.882 46.394L285.464 54.1963L289.358 46.3799C289.509 46.0872 289.585 45.7663 289.585 45.417C289.585 45.2754 289.571 45.1338 289.542 44.9922ZM296.877 54.1821C296.32 54.1821 295.792 54.0972 295.292 53.9272C294.801 53.7479 294.362 53.4977 293.975 53.1768C293.597 52.8464 293.295 52.4499 293.068 51.9873C292.851 51.5247 292.743 51.0008 292.743 50.4155C292.743 50.0096 292.747 49.6037 292.757 49.1978C292.776 48.7918 292.785 48.3859 292.785 47.98C292.785 47.5363 292.766 47.0785 292.729 46.6064C292.691 46.125 292.587 45.6813 292.417 45.2754L292.445 45.2188L292.516 45.1621L294.399 44.7656C294.437 44.7845 294.465 44.8128 294.484 44.8506V50.4155C294.484 50.812 294.541 51.1849 294.654 51.5342C294.777 51.874 294.952 52.1761 295.178 52.4404C295.405 52.6953 295.679 52.8983 296 53.0493C296.32 53.2004 296.689 53.2759 297.104 53.2759C297.642 53.2759 298.157 53.1673 298.647 52.9502C299.148 52.7331 299.606 52.4499 300.021 52.1006V47.272C300.021 46.9321 300.002 46.597 299.964 46.2666C299.927 45.9268 299.842 45.5964 299.709 45.2754C299.719 45.2376 299.743 45.1999 299.78 45.1621L301.692 44.7656L301.72 44.7939C301.758 44.9733 301.782 45.1527 301.791 45.332C301.8 45.502 301.805 45.6813 301.805 45.8701C301.805 47.5882 301.8 49.2969 301.791 50.9961C301.782 52.6953 301.777 54.4087 301.777 56.1362C301.777 56.2684 301.8 56.4006 301.848 56.5327C301.895 56.6554 301.951 56.7734 302.018 56.8867V56.9717L301.961 57H299.823L299.78 56.9717V56.8867C299.827 56.7829 299.879 56.6602 299.936 56.5186C299.993 56.3675 300.021 56.2401 300.021 56.1362V53.1484C299.568 53.4883 299.072 53.7479 298.534 53.9272C297.996 54.0972 297.444 54.1821 296.877 54.1821ZM313.827 56.915V57H311.802L311.788 56.915C311.882 56.6696 311.958 56.4194 312.015 56.1646C312.071 55.9002 312.1 55.6312 312.1 55.3574V47.272L304.496 57.6797L304.453 57.708L304.382 57.6089V46.2241C304.382 45.9881 304.354 45.7616 304.297 45.5444C304.25 45.3179 304.227 45.0866 304.227 44.8506C304.245 44.8506 304.255 44.8506 304.255 44.8506C304.264 44.8411 304.278 44.8364 304.297 44.8364H306.181C306.228 44.8364 306.261 44.8411 306.28 44.8506V44.9497C306.176 45.1951 306.091 45.4453 306.025 45.7002C305.968 45.9551 305.94 46.2147 305.94 46.479V54.437L312.128 45.771C312.298 45.5444 312.383 45.2848 312.383 44.9922L312.468 44.9072H313.94L314.011 44.9497L313.544 45.7285L313.572 55.3574C313.572 55.6217 313.586 55.8861 313.615 56.1504C313.653 56.4147 313.723 56.6696 313.827 56.915ZM325.863 48.8721C325.731 49.278 325.632 49.6934 325.566 50.1182C325.5 50.543 325.467 50.9678 325.467 51.3926C325.467 52.2611 325.59 53.021 325.835 53.6724C326.08 54.3143 326.434 54.8524 326.897 55.2866C327.369 55.7114 327.94 56.0324 328.61 56.2495C329.281 56.4572 330.036 56.561 330.876 56.561C331.442 56.561 331.995 56.4761 332.533 56.3062C333.08 56.1268 333.595 55.8861 334.076 55.584C333.434 56.207 332.736 56.6554 331.98 56.9292C331.235 57.1935 330.418 57.3257 329.531 57.3257C328.653 57.3257 327.855 57.1794 327.138 56.8867C326.42 56.5846 325.811 56.1693 325.311 55.6406C324.811 55.112 324.424 54.4842 324.15 53.7573C323.876 53.021 323.739 52.2186 323.739 51.3501C323.739 50.5099 323.9 49.6886 324.221 48.8862C324.542 48.0838 324.981 47.3711 325.538 46.748C326.095 46.1156 326.751 45.6105 327.506 45.2329C328.261 44.8459 329.078 44.6523 329.956 44.6523C330.56 44.6523 331.14 44.7515 331.697 44.9497C332.264 45.1479 332.764 45.4312 333.198 45.7993C333.632 46.1675 333.977 46.6112 334.232 47.1304C334.496 47.6496 334.628 48.2301 334.628 48.8721H325.863ZM332.759 48.1499C332.722 47.7345 332.637 47.3569 332.504 47.0171C332.372 46.6678 332.188 46.3704 331.952 46.125C331.726 45.8796 331.442 45.6908 331.103 45.5586C330.772 45.417 330.39 45.3462 329.956 45.3462C329.512 45.3462 329.092 45.4217 328.695 45.5728C328.308 45.7144 327.95 45.9126 327.619 46.1675C327.298 46.4224 327.01 46.7197 326.755 47.0596C326.5 47.3994 326.288 47.7629 326.118 48.1499H332.759ZM336.795 46.9463C336.795 46.8141 336.79 46.6584 336.781 46.479C336.781 46.2902 336.767 46.1061 336.738 45.9268C336.719 45.738 336.691 45.5586 336.653 45.3887C336.616 45.2093 336.568 45.063 336.512 44.9497V44.8506C336.531 44.8506 336.54 44.8506 336.54 44.8506C336.549 44.8411 336.564 44.8364 336.583 44.8364H343.634L343.691 44.8789L344.257 45.9409L344.229 46.0117L344.172 46.0542C343.814 45.8937 343.436 45.7804 343.04 45.7144C342.653 45.6388 342.261 45.6011 341.864 45.6011H338.268V54.8901C338.268 55.0317 338.268 55.1922 338.268 55.3716C338.268 55.5509 338.272 55.7303 338.282 55.9097C338.301 56.089 338.324 56.2637 338.353 56.4336C338.39 56.6035 338.438 56.7546 338.494 56.8867V56.9717L338.48 57H336.611L336.54 56.9717V56.8867C336.597 56.764 336.644 56.6177 336.682 56.4478C336.719 56.2778 336.743 56.0985 336.752 55.9097C336.771 55.7209 336.781 55.5368 336.781 55.3574C336.79 55.1781 336.795 55.0223 336.795 54.8901V46.9463ZM350.757 45.2046C350.021 45.2046 349.364 45.384 348.789 45.7427C348.213 46.092 347.731 46.5451 347.344 47.1021C346.957 47.659 346.66 48.2821 346.452 48.9712C346.244 49.6509 346.141 50.3164 346.141 50.9678C346.141 51.6191 346.244 52.2894 346.452 52.9785C346.66 53.6582 346.952 54.2812 347.33 54.8477C347.717 55.4046 348.199 55.8577 348.774 56.207C349.35 56.5563 350.011 56.731 350.757 56.731C351.493 56.731 352.145 56.5563 352.711 56.207C353.287 55.8483 353.768 55.3905 354.155 54.8335C354.552 54.2765 354.854 53.6582 355.062 52.9785C355.279 52.2894 355.387 51.6191 355.387 50.9678C355.387 50.3164 355.279 49.6509 355.062 48.9712C354.854 48.2821 354.552 47.659 354.155 47.1021C353.768 46.5451 353.287 46.092 352.711 45.7427C352.145 45.384 351.493 45.2046 350.757 45.2046ZM350.757 44.6523C351.625 44.6523 352.442 44.8175 353.207 45.1479C353.981 45.4784 354.656 45.9315 355.231 46.5073C355.817 47.0737 356.275 47.744 356.605 48.5181C356.945 49.2827 357.115 50.0993 357.115 50.9678C357.115 51.8363 356.945 52.6576 356.605 53.4316C356.275 54.1963 355.821 54.8665 355.246 55.4424C354.67 56.0182 353.995 56.4714 353.221 56.8018C352.447 57.1322 351.625 57.2974 350.757 57.2974C349.888 57.2974 349.067 57.1322 348.293 56.8018C347.519 56.4714 346.839 56.0182 346.254 55.4424C345.678 54.8665 345.22 54.1963 344.88 53.4316C344.55 52.667 344.385 51.8457 344.385 50.9678C344.385 50.0898 344.55 49.2686 344.88 48.5039C345.22 47.7393 345.678 47.0737 346.254 46.5073C346.839 45.9315 347.519 45.4784 348.293 45.1479C349.067 44.8175 349.888 44.6523 350.757 44.6523ZM367.353 45.1338C367.74 45.1338 368.122 45.1149 368.5 45.0771C368.887 45.0299 369.274 44.978 369.661 44.9214C370.048 44.8647 370.43 44.8175 370.808 44.7798C371.195 44.7326 371.582 44.709 371.969 44.709C372.384 44.709 372.799 44.7609 373.215 44.8647C373.64 44.9591 374.017 45.1149 374.348 45.332C374.688 45.5397 374.961 45.8135 375.169 46.1533C375.386 46.4837 375.495 46.8896 375.495 47.3711C375.495 47.8242 375.386 48.216 375.169 48.5464C374.961 48.8674 374.692 49.1411 374.362 49.3677C374.041 49.5848 373.677 49.7547 373.271 49.8774C372.875 50.0002 372.488 50.0898 372.11 50.1465C372.62 50.1937 373.139 50.2881 373.668 50.4297C374.197 50.5713 374.678 50.779 375.112 51.0527C375.556 51.3265 375.915 51.6758 376.188 52.1006C376.472 52.516 376.613 53.0257 376.613 53.6299C376.613 54.1396 376.443 54.6022 376.104 55.0176C375.773 55.4329 375.362 55.7869 374.872 56.0796C374.381 56.3722 373.857 56.5988 373.3 56.7593C372.752 56.9198 372.261 57 371.827 57H367.353L367.31 56.9717L367.282 56.8867C367.395 56.5752 367.471 56.2542 367.508 55.9238C367.546 55.5934 367.565 55.263 367.565 54.9326V47.2012C367.565 46.8708 367.546 46.5404 367.508 46.21C367.471 45.8796 367.395 45.5586 367.282 45.2471V45.2329L367.353 45.1338ZM369.108 56.3203C369.354 56.3864 369.599 56.4289 369.845 56.4478C370.09 56.4572 370.336 56.4619 370.581 56.4619C370.987 56.4619 371.426 56.4053 371.898 56.292C372.37 56.1787 372.809 56.0088 373.215 55.7822C373.621 55.5557 373.956 55.2677 374.22 54.9185C374.494 54.5597 374.631 54.1396 374.631 53.6582C374.631 53.054 374.503 52.5584 374.249 52.1714C373.994 51.7749 373.663 51.4634 373.257 51.2368C372.851 51.0103 372.394 50.8545 371.884 50.7695C371.383 50.6846 370.883 50.6421 370.383 50.6421C370.166 50.6421 369.949 50.661 369.731 50.6987C369.524 50.7271 369.316 50.7837 369.108 50.8687V56.3203ZM369.108 49.9341C369.316 49.9813 369.524 50.0096 369.731 50.019C369.939 50.0285 370.147 50.0332 370.354 50.0332C370.732 50.0332 371.124 49.9954 371.53 49.9199C371.945 49.8444 372.318 49.717 372.648 49.5376C372.988 49.3582 373.267 49.1175 373.484 48.8154C373.701 48.5039 373.81 48.1121 373.81 47.6401C373.81 47.2437 373.725 46.9038 373.555 46.6206C373.385 46.328 373.163 46.0872 372.889 45.8984C372.625 45.7096 372.318 45.5728 371.969 45.4878C371.629 45.3934 371.284 45.3462 370.935 45.3462C370.312 45.3462 369.703 45.4689 369.108 45.7144V49.9341ZM395.999 44.8789L396.041 44.9072V44.9922C395.984 45.1243 395.937 45.2801 395.899 45.4595C395.871 45.6294 395.847 45.8088 395.829 45.9976C395.819 46.1864 395.81 46.3752 395.8 46.564C395.8 46.7433 395.8 46.9038 395.8 47.0454V54.8477C395.8 54.9893 395.8 55.1545 395.8 55.3433C395.81 55.5226 395.824 55.7067 395.843 55.8955C395.862 56.0749 395.885 56.2542 395.914 56.4336C395.942 56.613 395.984 56.764 396.041 56.8867V56.9717L395.999 57H394.044C394.035 57 394.021 56.9953 394.002 56.9858C393.983 56.9764 393.969 56.9717 393.959 56.9717V56.8867C394.026 56.7734 394.073 56.6318 394.101 56.4619C394.139 56.2826 394.167 56.0985 394.186 55.9097C394.205 55.7114 394.214 55.5226 394.214 55.3433C394.224 55.1545 394.229 54.9893 394.229 54.8477V45.8418H388.664V54.8477C388.664 54.9893 388.664 55.1545 388.664 55.3433C388.664 55.5226 388.668 55.7067 388.678 55.8955C388.697 56.0749 388.72 56.2542 388.749 56.4336C388.786 56.6035 388.833 56.7546 388.89 56.8867V56.9717L388.876 57H386.879L386.809 56.9717V56.8867C386.865 56.7734 386.912 56.6271 386.95 56.4478C386.988 56.2684 387.016 56.0843 387.035 55.8955C387.054 55.7067 387.068 55.5179 387.078 55.3291C387.087 55.1403 387.092 54.9798 387.092 54.8477V47.0454C387.092 46.9038 387.087 46.7433 387.078 46.564C387.068 46.3752 387.054 46.1864 387.035 45.9976C387.016 45.8088 386.988 45.6294 386.95 45.4595C386.912 45.2801 386.865 45.1243 386.809 44.9922V44.9355L386.879 44.8789H395.999ZM404.877 45.2046C404.141 45.2046 403.485 45.384 402.909 45.7427C402.333 46.092 401.851 46.5451 401.464 47.1021C401.077 47.659 400.78 48.2821 400.572 48.9712C400.365 49.6509 400.261 50.3164 400.261 50.9678C400.261 51.6191 400.365 52.2894 400.572 52.9785C400.78 53.6582 401.073 54.2812 401.45 54.8477C401.837 55.4046 402.319 55.8577 402.895 56.207C403.47 56.5563 404.131 56.731 404.877 56.731C405.613 56.731 406.265 56.5563 406.831 56.207C407.407 55.8483 407.888 55.3905 408.275 54.8335C408.672 54.2765 408.974 53.6582 409.182 52.9785C409.399 52.2894 409.507 51.6191 409.507 50.9678C409.507 50.3164 409.399 49.6509 409.182 48.9712C408.974 48.2821 408.672 47.659 408.275 47.1021C407.888 46.5451 407.407 46.092 406.831 45.7427C406.265 45.384 405.613 45.2046 404.877 45.2046ZM404.877 44.6523C405.745 44.6523 406.562 44.8175 407.327 45.1479C408.101 45.4784 408.776 45.9315 409.352 46.5073C409.937 47.0737 410.395 47.744 410.725 48.5181C411.065 49.2827 411.235 50.0993 411.235 50.9678C411.235 51.8363 411.065 52.6576 410.725 53.4316C410.395 54.1963 409.942 54.8665 409.366 55.4424C408.79 56.0182 408.115 56.4714 407.341 56.8018C406.567 57.1322 405.745 57.2974 404.877 57.2974C404.008 57.2974 403.187 57.1322 402.413 56.8018C401.639 56.4714 400.959 56.0182 400.374 55.4424C399.798 54.8665 399.34 54.1963 399 53.4316C398.67 52.667 398.505 51.8457 398.505 50.9678C398.505 50.0898 398.67 49.2686 399 48.5039C399.34 47.7393 399.798 47.0737 400.374 46.5073C400.959 45.9315 401.639 45.4784 402.413 45.1479C403.187 44.8175 404.008 44.6523 404.877 44.6523ZM415.044 57C415.072 57.2266 415.115 57.439 415.171 57.6372C415.237 57.8354 415.318 58.0243 415.412 58.2036C415.507 58.3924 415.61 58.5765 415.724 58.7559C415.837 58.9352 415.95 59.1193 416.063 59.3081C415.979 59.4025 415.889 59.4875 415.794 59.563C415.7 59.6479 415.596 59.7188 415.483 59.7754C415.37 59.7376 415.233 59.6196 415.072 59.4214C414.912 59.2231 414.737 58.9777 414.548 58.6851C414.369 58.3924 414.185 58.0762 413.996 57.7363C413.817 57.3965 413.652 57.0661 413.5 56.7451C413.349 56.4242 413.217 56.1362 413.104 55.8813C412.991 55.617 412.92 55.4188 412.892 55.2866L412.92 55.1875L413.005 55.1592L415.03 55.6689C415.256 55.4329 415.44 55.1686 415.582 54.876C415.724 54.5833 415.827 54.2765 415.894 53.9556C415.969 53.6346 416.016 53.3089 416.035 52.9785C416.063 52.6387 416.078 52.313 416.078 52.0015V47.0029C416.078 46.8613 416.073 46.7056 416.063 46.5356C416.054 46.3563 416.035 46.1769 416.007 45.9976C415.988 45.8088 415.96 45.6294 415.922 45.4595C415.894 45.2801 415.856 45.1243 415.809 44.9922V44.9072L415.851 44.8506H424.262L424.305 44.8789H424.319V44.9639C424.206 45.2376 424.139 45.5728 424.121 45.9692C424.102 46.3563 424.092 46.7008 424.092 47.0029L424.149 55.5273L425.876 55.1592L425.961 55.1875L425.99 55.2866C425.952 55.4188 425.876 55.617 425.763 55.8813C425.659 56.1457 425.532 56.4383 425.381 56.7593C425.23 57.0708 425.06 57.3965 424.871 57.7363C424.692 58.0856 424.512 58.4019 424.333 58.6851C424.154 58.9777 423.979 59.2231 423.809 59.4214C423.649 59.6196 423.512 59.7376 423.398 59.7754C423.285 59.7188 423.181 59.6479 423.087 59.563C422.993 59.4875 422.908 59.4025 422.832 59.3081C422.945 59.1099 423.054 58.9211 423.158 58.7417C423.271 58.5718 423.37 58.3971 423.455 58.2178C423.549 58.0384 423.625 57.8496 423.682 57.6514C423.748 57.4626 423.79 57.2454 423.809 57H415.044ZM417.777 45.686C417.777 46.564 417.772 47.4372 417.763 48.3057C417.763 49.1742 417.763 50.0474 417.763 50.9253C417.763 51.369 417.744 51.8268 417.706 52.2988C417.668 52.7614 417.593 53.2192 417.479 53.6724C417.366 54.1255 417.201 54.555 416.984 54.9609C416.776 55.3669 416.498 55.7256 416.148 56.0371H422.45V45.686H417.777ZM433.495 48.0225C433.495 47.7393 433.466 47.4561 433.41 47.1729C433.353 46.8896 433.254 46.63 433.112 46.394C432.98 46.158 432.801 45.9692 432.574 45.8276C432.348 45.6766 432.069 45.6011 431.739 45.6011C431.607 45.6011 431.47 45.6247 431.328 45.6719C431.196 45.7096 431.064 45.7568 430.932 45.8135C430.799 45.8607 430.672 45.9079 430.549 45.9551C430.427 45.9928 430.309 46.0117 430.195 46.0117C430.11 46.0117 430.068 45.9692 430.068 45.8843C430.068 45.8371 430.077 45.7757 430.096 45.7002C430.125 45.6247 430.158 45.5492 430.195 45.4736C430.233 45.3887 430.271 45.3084 430.309 45.2329C430.346 45.1574 430.375 45.096 430.394 45.0488L430.507 44.9922C430.63 45.0488 430.762 45.0771 430.903 45.0771C431.045 45.0771 431.182 45.063 431.314 45.0347C431.456 44.9969 431.592 44.9591 431.725 44.9214C431.857 44.8742 431.989 44.8317 432.121 44.7939C432.263 44.7562 432.404 44.7373 432.546 44.7373C433.027 44.7373 433.433 44.8364 433.764 45.0347C434.094 45.2329 434.358 45.4925 434.557 45.8135C434.764 46.125 434.911 46.4837 434.996 46.8896C435.09 47.2956 435.137 47.7062 435.137 48.1216V54.1963C435.137 54.5645 435.166 54.8429 435.222 55.0317C435.288 55.2111 435.378 55.3621 435.491 55.4849C435.614 55.5981 435.76 55.7114 435.93 55.8247C436.1 55.9285 436.298 56.089 436.525 56.3062C436.487 56.3439 436.416 56.4194 436.312 56.5327C436.218 56.6366 436.11 56.7451 435.987 56.8584C435.874 56.9717 435.765 57.0708 435.661 57.1558C435.567 57.2502 435.501 57.2974 435.463 57.2974C435.312 57.2974 435.151 57.2454 434.981 57.1416C434.821 57.0472 434.665 56.9292 434.514 56.7876C434.363 56.6366 434.226 56.4808 434.104 56.3203C433.99 56.1598 433.905 56.0135 433.849 55.8813C433.311 56.259 432.735 56.5894 432.121 56.8726C431.507 57.1558 430.861 57.2974 430.181 57.2974C429.737 57.2974 429.322 57.2266 428.935 57.085C428.548 56.9528 428.208 56.7593 427.916 56.5044C427.623 56.2401 427.392 55.9238 427.222 55.5557C427.052 55.1875 426.967 54.7769 426.967 54.3237C426.967 53.7573 427.061 53.2759 427.25 52.8794C427.439 52.4735 427.694 52.1336 428.015 51.8599C428.345 51.5861 428.727 51.369 429.162 51.2085C429.605 51.048 430.077 50.9206 430.578 50.8262C431.106 50.7223 431.607 50.5902 432.079 50.4297C432.56 50.2598 433.032 50.0379 433.495 49.7642V48.0225ZM433.608 55.1592C433.542 54.8288 433.495 54.4937 433.466 54.1538C433.447 53.814 433.438 53.4741 433.438 53.1343C433.438 52.7189 433.447 52.313 433.466 51.9165C433.485 51.5106 433.495 51.0999 433.495 50.6846C433.164 50.8262 432.82 50.9489 432.461 51.0527C432.102 51.1566 431.748 51.2651 431.399 51.3784C431.059 51.4823 430.729 51.605 430.408 51.7466C430.096 51.8882 429.818 52.0675 429.572 52.2847C429.336 52.5018 429.147 52.7756 429.006 53.106C428.864 53.4269 428.793 53.8234 428.793 54.2954C428.793 54.5881 428.841 54.8618 428.935 55.1167C429.039 55.3716 429.181 55.5934 429.36 55.7822C429.539 55.971 429.752 56.1221 429.997 56.2354C430.243 56.3392 430.516 56.3911 430.818 56.3911C431.319 56.3911 431.819 56.2731 432.319 56.0371C432.82 55.7917 433.249 55.499 433.608 55.1592ZM438.21 44.9922L438.238 44.9072L438.281 44.8789H440.136C440.183 44.8789 440.216 44.9308 440.235 45.0347C440.254 45.1291 440.263 45.2424 440.263 45.3745C440.263 45.4972 440.258 45.62 440.249 45.7427C440.24 45.8654 440.235 45.9456 440.235 45.9834C440.726 45.5869 441.269 45.266 441.863 45.0205C442.458 44.7751 443.076 44.6523 443.718 44.6523C444.511 44.6523 445.238 44.8223 445.899 45.1621C446.569 45.4925 447.145 45.9362 447.626 46.4932C448.108 47.0501 448.481 47.6873 448.745 48.4048C449.019 49.1222 449.156 49.8586 449.156 50.6138C449.156 51.1141 449.099 51.6239 448.986 52.1431C448.873 52.6623 448.703 53.1673 448.476 53.6582C448.259 54.1491 447.99 54.6117 447.669 55.0459C447.357 55.4801 446.999 55.8577 446.593 56.1787C446.196 56.4997 445.753 56.7546 445.262 56.9434C444.78 57.1322 444.266 57.2266 443.718 57.2266C443.114 57.2266 442.519 57.151 441.934 57C441.349 56.8584 440.797 56.6271 440.277 56.3062V60.2568C440.277 60.6816 440.362 61.0828 440.532 61.4604V61.5312L440.461 61.6021H438.281L438.21 61.4604C438.427 61.0828 438.536 60.6816 438.536 60.2568L438.451 46.1958C438.451 45.9881 438.437 45.7852 438.408 45.5869C438.38 45.3792 438.314 45.181 438.21 44.9922ZM440.263 55.1592C440.716 55.584 441.236 55.9002 441.821 56.1079C442.406 56.3156 443.006 56.4194 443.619 56.4194C444.233 56.4194 444.771 56.2495 445.233 55.9097C445.696 55.5604 446.078 55.1261 446.38 54.6069C446.692 54.0877 446.923 53.526 447.074 52.9219C447.235 52.3177 447.315 51.756 447.315 51.2368C447.315 50.8498 447.282 50.4438 447.216 50.019C447.159 49.5848 447.065 49.16 446.933 48.7446C446.81 48.3198 446.649 47.9186 446.451 47.541C446.253 47.1634 446.007 46.833 445.715 46.5498C445.432 46.2572 445.101 46.0259 444.724 45.856C444.355 45.686 443.935 45.6011 443.463 45.6011C442.869 45.6011 442.293 45.7238 441.736 45.9692C441.188 46.2147 440.688 46.5215 440.235 46.8896L440.263 55.1592ZM457.298 45.2046C456.562 45.2046 455.905 45.384 455.33 45.7427C454.754 46.092 454.272 46.5451 453.885 47.1021C453.498 47.659 453.201 48.2821 452.993 48.9712C452.785 49.6509 452.682 50.3164 452.682 50.9678C452.682 51.6191 452.785 52.2894 452.993 52.9785C453.201 53.6582 453.493 54.2812 453.871 54.8477C454.258 55.4046 454.74 55.8577 455.315 56.207C455.891 56.5563 456.552 56.731 457.298 56.731C458.034 56.731 458.686 56.5563 459.252 56.207C459.828 55.8483 460.309 55.3905 460.696 54.8335C461.093 54.2765 461.395 53.6582 461.603 52.9785C461.82 52.2894 461.928 51.6191 461.928 50.9678C461.928 50.3164 461.82 49.6509 461.603 48.9712C461.395 48.2821 461.093 47.659 460.696 47.1021C460.309 46.5451 459.828 46.092 459.252 45.7427C458.686 45.384 458.034 45.2046 457.298 45.2046ZM457.298 44.6523C458.166 44.6523 458.983 44.8175 459.748 45.1479C460.522 45.4784 461.197 45.9315 461.772 46.5073C462.358 47.0737 462.816 47.744 463.146 48.5181C463.486 49.2827 463.656 50.0993 463.656 50.9678C463.656 51.8363 463.486 52.6576 463.146 53.4316C462.816 54.1963 462.362 54.8665 461.787 55.4424C461.211 56.0182 460.536 56.4714 459.762 56.8018C458.988 57.1322 458.166 57.2974 457.298 57.2974C456.429 57.2974 455.608 57.1322 454.834 56.8018C454.06 56.4714 453.38 56.0182 452.795 55.4424C452.219 54.8665 451.761 54.1963 451.421 53.4316C451.091 52.667 450.926 51.8457 450.926 50.9678C450.926 50.0898 451.091 49.2686 451.421 48.5039C451.761 47.7393 452.219 47.0737 452.795 46.5073C453.38 45.9315 454.06 45.4784 454.834 45.1479C455.608 44.8175 456.429 44.6523 457.298 44.6523ZM467.38 50.0615C467.465 50.0993 467.573 50.1182 467.706 50.1182C468.159 50.1182 468.55 50.0993 468.881 50.0615C469.211 50.0238 469.494 49.9388 469.73 49.8066C469.976 49.665 470.179 49.4574 470.339 49.1836C470.5 48.9098 470.641 48.5322 470.764 48.0508C470.868 47.626 470.986 47.2106 471.118 46.8047C471.25 46.3893 471.425 46.0212 471.642 45.7002C471.869 45.3792 472.152 45.1196 472.492 44.9214C472.841 44.7231 473.28 44.624 473.809 44.624C474.092 44.624 474.37 44.6571 474.644 44.7231C474.918 44.7798 475.196 44.8081 475.479 44.8081C475.479 44.827 475.479 44.8411 475.479 44.8506C475.489 44.8506 475.494 44.86 475.494 44.8789C475.494 45.0771 475.475 45.2754 475.437 45.4736C475.399 45.6624 475.366 45.856 475.338 46.0542L475.267 46.125C475.192 46.1061 475.116 46.0589 475.041 45.9834C474.974 45.8984 474.894 45.8088 474.8 45.7144C474.715 45.62 474.606 45.5397 474.474 45.4736C474.351 45.3981 474.2 45.3604 474.021 45.3604C473.719 45.3604 473.478 45.4595 473.299 45.6577C473.119 45.8465 472.973 46.0778 472.86 46.3516C472.756 46.6159 472.671 46.8991 472.605 47.2012C472.539 47.5033 472.478 47.7581 472.421 47.9658C472.336 48.2679 472.204 48.5369 472.024 48.7729C471.854 48.9995 471.656 49.2072 471.43 49.396C471.203 49.5754 470.958 49.7406 470.693 49.8916C470.429 50.0426 470.169 50.1795 469.915 50.3022L476.513 56.8584L476.542 56.9434L476.442 57H473.639L473.54 56.915C473.54 56.6507 473.492 56.3911 473.398 56.1362C473.313 55.8813 473.176 55.6595 472.987 55.4707L468.229 50.8403C468.088 50.8403 467.946 50.8451 467.805 50.8545C467.663 50.8545 467.521 50.8451 467.38 50.8262V54.8901C467.38 55.0412 467.38 55.2064 467.38 55.3857C467.389 55.5557 467.399 55.7303 467.408 55.9097C467.427 56.089 467.451 56.2637 467.479 56.4336C467.517 56.6035 467.569 56.7546 467.635 56.8867V56.9717L467.606 57H465.567C465.558 57 465.544 56.9953 465.525 56.9858C465.506 56.9764 465.492 56.9717 465.482 56.9717V56.8867C465.539 56.7734 465.586 56.6318 465.624 56.4619C465.662 56.2826 465.685 56.1032 465.695 55.9238C465.714 55.735 465.723 55.5509 465.723 55.3716C465.733 55.1828 465.737 55.0223 465.737 54.8901V46.9463C465.737 46.8141 465.733 46.6584 465.723 46.479C465.723 46.2996 465.714 46.1156 465.695 45.9268C465.685 45.738 465.662 45.5586 465.624 45.3887C465.586 45.2093 465.539 45.063 465.482 44.9497V44.8506C465.501 44.8506 465.515 44.8506 465.525 44.8506C465.534 44.8411 465.549 44.8364 465.567 44.8364H467.564C467.583 44.8364 467.592 44.8411 467.592 44.8506C467.602 44.8506 467.616 44.8506 467.635 44.8506V44.9497C467.569 45.0819 467.517 45.2329 467.479 45.4028C467.451 45.5728 467.427 45.7474 467.408 45.9268C467.399 46.1061 467.389 46.2855 467.38 46.4648C467.38 46.6348 467.38 46.7952 467.38 46.9463V50.0615Z" fill="#3D3D3D"/>
<path d="M41.958 307.704C41.886 307.524 41.778 307.278 41.634 306.966C41.49 306.642 41.328 306.288 41.148 305.904C40.98 305.508 40.794 305.094 40.59 304.662C40.386 304.218 40.182 303.792 39.978 303.384C39.786 302.976 39.6 302.592 39.42 302.232C39.24 301.872 39.084 301.578 38.952 301.35C38.796 302.73 38.682 304.044 38.61 305.292C38.538 306.528 38.478 307.764 38.43 309H37.332C37.38 307.452 37.458 305.892 37.566 304.32C37.686 302.748 37.836 301.206 38.016 299.694H39.222C39.378 299.946 39.576 300.306 39.816 300.774C40.068 301.242 40.338 301.776 40.626 302.376C40.926 302.964 41.232 303.606 41.544 304.302C41.868 304.986 42.192 305.682 42.516 306.39C42.84 305.682 43.158 304.986 43.47 304.302C43.794 303.606 44.1 302.964 44.388 302.376C44.688 301.776 44.958 301.242 45.198 300.774C45.438 300.306 45.642 299.946 45.81 299.694H46.998C47.178 301.206 47.322 302.748 47.43 304.32C47.55 305.892 47.634 307.452 47.682 309H46.566C46.518 307.764 46.458 306.528 46.386 305.292C46.314 304.044 46.2 302.73 46.044 301.35C45.912 301.59 45.756 301.89 45.576 302.25C45.396 302.598 45.204 302.976 45 303.384C44.808 303.792 44.61 304.218 44.406 304.662C44.202 305.094 44.01 305.508 43.83 305.904C43.662 306.288 43.506 306.642 43.362 306.966C43.218 307.278 43.11 307.524 43.038 307.704H41.958ZM53.4898 308.154C53.9458 308.154 54.3418 308.142 54.6778 308.118C55.0258 308.082 55.3198 308.04 55.5598 307.992V304.716C55.4278 304.656 55.2178 304.596 54.9298 304.536C54.6418 304.464 54.2458 304.428 53.7418 304.428C53.4538 304.428 53.1538 304.452 52.8418 304.5C52.5298 304.536 52.2418 304.626 51.9778 304.77C51.7138 304.902 51.4978 305.088 51.3298 305.328C51.1618 305.568 51.0778 305.886 51.0778 306.282C51.0778 306.63 51.1318 306.924 51.2398 307.164C51.3598 307.404 51.5218 307.596 51.7258 307.74C51.9418 307.884 52.1938 307.992 52.4818 308.064C52.7818 308.124 53.1178 308.154 53.4898 308.154ZM53.3818 299.478C53.9938 299.478 54.5098 299.568 54.9298 299.748C55.3618 299.916 55.7098 300.156 55.9738 300.468C56.2378 300.768 56.4298 301.128 56.5498 301.548C56.6698 301.968 56.7298 302.424 56.7298 302.916V308.784C56.6098 308.82 56.4358 308.862 56.2078 308.91C55.9798 308.946 55.7158 308.988 55.4158 309.036C55.1158 309.084 54.7798 309.12 54.4078 309.144C54.0478 309.18 53.6758 309.198 53.2918 309.198C52.7998 309.198 52.3438 309.144 51.9238 309.036C51.5158 308.928 51.1558 308.76 50.8438 308.532C50.5438 308.292 50.3038 307.992 50.1238 307.632C49.9558 307.26 49.8718 306.81 49.8718 306.282C49.8718 305.778 49.9678 305.346 50.1598 304.986C50.3518 304.626 50.6218 304.332 50.9698 304.104C51.3178 303.864 51.7318 303.69 52.2118 303.582C52.6918 303.474 53.2138 303.42 53.7778 303.42C53.9458 303.42 54.1198 303.432 54.2998 303.456C54.4918 303.468 54.6718 303.492 54.8398 303.528C55.0198 303.552 55.1698 303.582 55.2898 303.618C55.4218 303.642 55.5118 303.666 55.5598 303.69V303.114C55.5598 302.79 55.5358 302.478 55.4878 302.178C55.4398 301.866 55.3318 301.59 55.1638 301.35C55.0078 301.098 54.7798 300.9 54.4798 300.756C54.1918 300.6 53.8078 300.522 53.3278 300.522C52.6438 300.522 52.1338 300.57 51.7978 300.666C51.4618 300.762 51.2158 300.84 51.0598 300.9L50.8978 299.874C51.1018 299.778 51.4138 299.688 51.8338 299.604C52.2658 299.52 52.7818 299.478 53.3818 299.478ZM65.042 300.684H60.884V309H59.714V299.694H65.042V300.684ZM69.8023 308.154C70.2583 308.154 70.6543 308.142 70.9903 308.118C71.3383 308.082 71.6323 308.04 71.8723 307.992V304.716C71.7403 304.656 71.5303 304.596 71.2423 304.536C70.9543 304.464 70.5583 304.428 70.0543 304.428C69.7663 304.428 69.4663 304.452 69.1543 304.5C68.8423 304.536 68.5543 304.626 68.2903 304.77C68.0263 304.902 67.8103 305.088 67.6423 305.328C67.4743 305.568 67.3903 305.886 67.3903 306.282C67.3903 306.63 67.4443 306.924 67.5523 307.164C67.6723 307.404 67.8343 307.596 68.0383 307.74C68.2543 307.884 68.5063 307.992 68.7943 308.064C69.0943 308.124 69.4303 308.154 69.8023 308.154ZM69.6943 299.478C70.3063 299.478 70.8223 299.568 71.2423 299.748C71.6743 299.916 72.0223 300.156 72.2863 300.468C72.5503 300.768 72.7423 301.128 72.8623 301.548C72.9823 301.968 73.0423 302.424 73.0423 302.916V308.784C72.9223 308.82 72.7483 308.862 72.5203 308.91C72.2923 308.946 72.0283 308.988 71.7283 309.036C71.4283 309.084 71.0923 309.12 70.7203 309.144C70.3603 309.18 69.9883 309.198 69.6043 309.198C69.1123 309.198 68.6563 309.144 68.2363 309.036C67.8283 308.928 67.4683 308.76 67.1563 308.532C66.8563 308.292 66.6163 307.992 66.4363 307.632C66.2683 307.26 66.1843 306.81 66.1843 306.282C66.1843 305.778 66.2803 305.346 66.4723 304.986C66.6643 304.626 66.9343 304.332 67.2823 304.104C67.6303 303.864 68.0443 303.69 68.5243 303.582C69.0043 303.474 69.5263 303.42 70.0903 303.42C70.2583 303.42 70.4323 303.432 70.6123 303.456C70.8043 303.468 70.9843 303.492 71.1523 303.528C71.3323 303.552 71.4823 303.582 71.6023 303.618C71.7343 303.642 71.8243 303.666 71.8723 303.69V303.114C71.8723 302.79 71.8483 302.478 71.8003 302.178C71.7523 301.866 71.6443 301.59 71.4763 301.35C71.3203 301.098 71.0923 300.9 70.7923 300.756C70.5043 300.6 70.1203 300.522 69.6403 300.522C68.9563 300.522 68.4463 300.57 68.1103 300.666C67.7743 300.762 67.5283 300.84 67.3723 300.9L67.2103 299.874C67.4143 299.778 67.7263 299.688 68.1463 299.604C68.5783 299.52 69.0943 299.478 69.6943 299.478ZM78.1865 308.154C79.0265 308.154 79.6865 308.016 80.1665 307.74C80.6465 307.452 80.8865 307.026 80.8865 306.462C80.8865 306.054 80.7965 305.73 80.6165 305.49C80.4365 305.25 80.2085 305.064 79.9325 304.932C79.6685 304.8 79.3805 304.716 79.0685 304.68C78.7685 304.632 78.4925 304.608 78.2405 304.608H76.9445V303.618H78.1505C78.3665 303.618 78.6125 303.6 78.8885 303.564C79.1765 303.528 79.4405 303.456 79.6805 303.348C79.9205 303.24 80.1245 303.09 80.2925 302.898C80.4605 302.694 80.5445 302.43 80.5445 302.106C80.5445 301.794 80.4725 301.536 80.3285 301.332C80.1965 301.128 80.0165 300.966 79.7885 300.846C79.5605 300.726 79.2965 300.642 78.9965 300.594C78.7085 300.546 78.4145 300.522 78.1145 300.522C77.4305 300.522 76.8905 300.594 76.4945 300.738C76.0985 300.87 75.8285 300.972 75.6845 301.044L75.4145 300C75.5825 299.916 75.9005 299.814 76.3685 299.694C76.8365 299.562 77.4185 299.496 78.1145 299.496C79.3025 299.496 80.2025 299.712 80.8145 300.144C81.4265 300.576 81.7325 301.218 81.7325 302.07C81.7325 302.598 81.5765 303.03 81.2645 303.366C80.9525 303.69 80.5865 303.918 80.1665 304.05C80.7545 304.218 81.2225 304.5 81.5705 304.896C81.9185 305.292 82.0925 305.814 82.0925 306.462C82.0925 307.386 81.7625 308.076 81.1025 308.532C80.4425 308.988 79.4765 309.216 78.2045 309.216C77.3525 309.216 76.6685 309.144 76.1525 309C75.6365 308.856 75.3065 308.748 75.1625 308.676L75.4685 307.614C75.5045 307.638 75.5825 307.68 75.7025 307.74C75.8345 307.788 76.0145 307.848 76.2425 307.92C76.4705 307.98 76.7465 308.034 77.0705 308.082C77.3945 308.13 77.7665 308.154 78.1865 308.154ZM90.9406 301.188C90.5806 301.62 90.1606 302.166 89.6806 302.826C89.2126 303.486 88.7326 304.182 88.2406 304.914C87.7606 305.646 87.2986 306.372 86.8546 307.092C86.4106 307.812 86.0266 308.448 85.7026 309H84.6046V299.694H85.7566V307.146C86.0446 306.63 86.3986 306.036 86.8186 305.364C87.2506 304.68 87.7066 303.996 88.1866 303.312C88.6666 302.616 89.1466 301.95 89.6266 301.314C90.1186 300.678 90.5746 300.138 90.9946 299.694H92.0926V309H90.9406V301.188ZM102.585 309H101.415V304.662H96.3567V309H95.1867V299.694H96.3567V303.672H101.415V299.694H102.585V309ZM115.771 299.694V300.684H112.711V309H111.541V300.684H108.499V299.694H115.771ZM118.751 307.326C118.859 307.41 118.991 307.5 119.147 307.596C119.315 307.692 119.507 307.782 119.723 307.866C119.939 307.95 120.173 308.022 120.425 308.082C120.677 308.13 120.941 308.154 121.217 308.154C121.793 308.154 122.273 308.058 122.657 307.866C123.053 307.662 123.371 307.392 123.611 307.056C123.851 306.708 124.025 306.306 124.133 305.85C124.241 305.382 124.295 304.89 124.295 304.374C124.295 303.15 123.989 302.214 123.377 301.566C122.765 300.906 121.955 300.576 120.947 300.576C120.371 300.576 119.903 300.606 119.543 300.666C119.195 300.714 118.931 300.768 118.751 300.828V307.326ZM118.751 312.33H117.581V300.018C117.929 299.898 118.373 299.784 118.913 299.676C119.453 299.568 120.137 299.514 120.965 299.514C121.649 299.514 122.267 299.628 122.819 299.856C123.383 300.072 123.863 300.39 124.259 300.81C124.667 301.23 124.979 301.74 125.195 302.34C125.423 302.94 125.537 303.618 125.537 304.374C125.537 305.082 125.441 305.736 125.249 306.336C125.069 306.924 124.799 307.434 124.439 307.866C124.079 308.286 123.635 308.616 123.107 308.856C122.591 309.096 121.997 309.216 121.325 309.216C120.713 309.216 120.179 309.132 119.723 308.964C119.279 308.784 118.955 308.616 118.751 308.46V312.33ZM131.009 308.154C131.465 308.154 131.861 308.142 132.197 308.118C132.545 308.082 132.839 308.04 133.079 307.992V304.716C132.947 304.656 132.737 304.596 132.449 304.536C132.161 304.464 131.765 304.428 131.261 304.428C130.973 304.428 130.673 304.452 130.361 304.5C130.049 304.536 129.761 304.626 129.497 304.77C129.233 304.902 129.017 305.088 128.849 305.328C128.681 305.568 128.597 305.886 128.597 306.282C128.597 306.63 128.651 306.924 128.759 307.164C128.879 307.404 129.041 307.596 129.245 307.74C129.461 307.884 129.713 307.992 130.001 308.064C130.301 308.124 130.637 308.154 131.009 308.154ZM130.901 299.478C131.513 299.478 132.029 299.568 132.449 299.748C132.881 299.916 133.229 300.156 133.493 300.468C133.757 300.768 133.949 301.128 134.069 301.548C134.189 301.968 134.249 302.424 134.249 302.916V308.784C134.129 308.82 133.955 308.862 133.727 308.91C133.499 308.946 133.235 308.988 132.935 309.036C132.635 309.084 132.299 309.12 131.927 309.144C131.567 309.18 131.195 309.198 130.811 309.198C130.319 309.198 129.863 309.144 129.443 309.036C129.035 308.928 128.675 308.76 128.363 308.532C128.063 308.292 127.823 307.992 127.643 307.632C127.475 307.26 127.391 306.81 127.391 306.282C127.391 305.778 127.487 305.346 127.679 304.986C127.871 304.626 128.141 304.332 128.489 304.104C128.837 303.864 129.251 303.69 129.731 303.582C130.211 303.474 130.733 303.42 131.297 303.42C131.465 303.42 131.639 303.432 131.819 303.456C132.011 303.468 132.191 303.492 132.359 303.528C132.539 303.552 132.689 303.582 132.809 303.618C132.941 303.642 133.031 303.666 133.079 303.69V303.114C133.079 302.79 133.055 302.478 133.007 302.178C132.959 301.866 132.851 301.59 132.683 301.35C132.527 301.098 132.299 300.9 131.999 300.756C131.711 300.6 131.327 300.522 130.847 300.522C130.163 300.522 129.653 300.57 129.317 300.666C128.981 300.762 128.735 300.84 128.579 300.9L128.417 299.874C128.621 299.778 128.933 299.688 129.353 299.604C129.785 299.52 130.301 299.478 130.901 299.478ZM140.24 299.496C140.6 299.496 141.002 299.52 141.446 299.568C141.902 299.604 142.328 299.706 142.724 299.874C143.12 300.03 143.45 300.282 143.714 300.63C143.99 300.966 144.128 301.428 144.128 302.016C144.128 302.472 143.996 302.88 143.732 303.24C143.468 303.588 143.108 303.846 142.652 304.014C143.324 304.194 143.81 304.482 144.11 304.878C144.41 305.274 144.56 305.76 144.56 306.336C144.56 306.96 144.434 307.464 144.182 307.848C143.93 308.22 143.594 308.508 143.174 308.712C142.766 308.904 142.298 309.03 141.77 309.09C141.254 309.15 140.726 309.18 140.186 309.18C139.538 309.18 138.968 309.138 138.476 309.054C137.996 308.97 137.582 308.88 137.234 308.784V299.892C137.534 299.796 137.93 299.706 138.422 299.622C138.914 299.538 139.52 299.496 140.24 299.496ZM138.404 303.6H140.528C141.248 303.6 141.83 303.48 142.274 303.24C142.718 303 142.94 302.598 142.94 302.034C142.94 301.674 142.862 301.392 142.706 301.188C142.55 300.984 142.346 300.834 142.094 300.738C141.842 300.63 141.554 300.564 141.23 300.54C140.906 300.504 140.582 300.486 140.258 300.486C139.862 300.486 139.484 300.51 139.124 300.558C138.764 300.594 138.524 300.63 138.404 300.666V303.6ZM138.404 304.572V307.992C138.464 308.016 138.56 308.04 138.692 308.064C138.836 308.076 138.992 308.094 139.16 308.118C139.34 308.13 139.526 308.142 139.718 308.154C139.922 308.166 140.114 308.172 140.294 308.172C140.702 308.172 141.092 308.148 141.464 308.1C141.836 308.052 142.16 307.962 142.436 307.83C142.712 307.686 142.934 307.5 143.102 307.272C143.27 307.032 143.354 306.72 143.354 306.336C143.354 306 143.282 305.718 143.138 305.49C143.006 305.262 142.814 305.082 142.562 304.95C142.322 304.818 142.034 304.722 141.698 304.662C141.374 304.602 141.02 304.572 140.636 304.572H138.404Z" fill="#3D3D3D"/>
<path d="M376.711 307.198C376.315 306.466 375.931 305.704 375.559 304.912C375.199 304.12 374.857 303.322 374.533 302.518C374.221 301.702 373.933 300.892 373.669 300.088C373.405 299.272 373.177 298.474 372.985 297.694H374.227C374.359 298.27 374.527 298.894 374.731 299.566C374.935 300.226 375.163 300.91 375.415 301.618C375.679 302.326 375.967 303.052 376.279 303.796C376.591 304.54 376.927 305.272 377.287 305.992C377.551 305.248 377.785 304.546 377.989 303.886C378.193 303.226 378.379 302.572 378.547 301.924C378.727 301.264 378.895 300.592 379.051 299.908C379.219 299.224 379.393 298.486 379.573 297.694H380.743C380.359 299.434 379.921 301.126 379.429 302.77C378.937 304.414 378.403 305.92 377.827 307.288C377.599 307.828 377.365 308.29 377.125 308.674C376.885 309.07 376.615 309.394 376.315 309.646C376.027 309.898 375.685 310.084 375.289 310.204C374.905 310.324 374.449 310.384 373.921 310.384C373.621 310.384 373.345 310.348 373.093 310.276C372.853 310.204 372.703 310.15 372.643 310.114L372.877 309.142C372.925 309.178 373.057 309.226 373.273 309.286C373.501 309.358 373.735 309.394 373.975 309.394C374.311 309.394 374.611 309.358 374.875 309.286C375.151 309.214 375.397 309.088 375.613 308.908C375.829 308.74 376.021 308.518 376.189 308.242C376.369 307.966 376.543 307.618 376.711 307.198ZM385.154 298.684V299.062C385.154 299.422 385.148 299.818 385.136 300.25C385.124 300.67 385.1 301.102 385.064 301.546C385.028 301.99 384.968 302.434 384.884 302.878C384.812 303.31 384.716 303.718 384.596 304.102C384.464 304.498 384.296 304.876 384.092 305.236C383.9 305.584 383.666 305.896 383.39 306.172C383.126 306.436 382.814 306.658 382.454 306.838C382.106 307.006 381.71 307.114 381.266 307.162L381.104 306.19C381.704 306.058 382.184 305.812 382.544 305.452C382.916 305.092 383.222 304.582 383.462 303.922C383.702 303.262 383.852 302.506 383.912 301.654C383.984 300.79 384.02 299.848 384.02 298.828V297.694H389.744V307H388.574V298.684H385.154ZM394.497 306.226C394.497 306.502 394.407 306.736 394.227 306.928C394.059 307.12 393.819 307.216 393.507 307.216C393.195 307.216 392.949 307.12 392.769 306.928C392.601 306.736 392.517 306.502 392.517 306.226C392.517 305.95 392.601 305.716 392.769 305.524C392.949 305.332 393.195 305.236 393.507 305.236C393.819 305.236 394.059 305.332 394.227 305.524C394.407 305.716 394.497 305.95 394.497 306.226ZM408.548 307H407.378V298.684H402.536V307H401.366V297.694H408.548V307ZM419.588 302.356C419.588 303.088 419.48 303.754 419.264 304.354C419.06 304.954 418.766 305.464 418.382 305.884C418.01 306.304 417.566 306.634 417.05 306.874C416.534 307.102 415.964 307.216 415.34 307.216C414.716 307.216 414.146 307.102 413.63 306.874C413.114 306.634 412.664 306.304 412.28 305.884C411.908 305.464 411.614 304.954 411.398 304.354C411.194 303.754 411.092 303.088 411.092 302.356C411.092 301.624 411.194 300.958 411.398 300.358C411.614 299.758 411.908 299.248 412.28 298.828C412.664 298.396 413.114 298.066 413.63 297.838C414.146 297.598 414.716 297.478 415.34 297.478C415.964 297.478 416.534 297.598 417.05 297.838C417.566 298.066 418.01 298.396 418.382 298.828C418.766 299.248 419.06 299.758 419.264 300.358C419.48 300.958 419.588 301.624 419.588 302.356ZM418.346 302.356C418.346 301.192 418.076 300.268 417.536 299.584C416.996 298.888 416.264 298.54 415.34 298.54C414.416 298.54 413.684 298.888 413.144 299.584C412.604 300.268 412.334 301.192 412.334 302.356C412.334 303.52 412.604 304.444 413.144 305.128C413.684 305.812 414.416 306.154 415.34 306.154C416.264 306.154 416.996 305.812 417.536 305.128C418.076 304.444 418.346 303.52 418.346 302.356ZM424.88 298.684V299.062C424.88 299.422 424.874 299.818 424.862 300.25C424.85 300.67 424.826 301.102 424.79 301.546C424.754 301.99 424.694 302.434 424.61 302.878C424.538 303.31 424.442 303.718 424.322 304.102C424.19 304.498 424.022 304.876 423.818 305.236C423.626 305.584 423.392 305.896 423.116 306.172C422.852 306.436 422.54 306.658 422.18 306.838C421.832 307.006 421.436 307.114 420.992 307.162L420.83 306.19C421.43 306.058 421.91 305.812 422.27 305.452C422.642 305.092 422.948 304.582 423.188 303.922C423.428 303.262 423.578 302.506 423.638 301.654C423.71 300.79 423.746 299.848 423.746 298.828V297.694H429.47V307H428.3V298.684H424.88ZM432.568 297.694H433.738V301.42C433.954 301.36 434.272 301.3 434.692 301.24C435.112 301.168 435.532 301.132 435.952 301.132C436.42 301.132 436.87 301.186 437.302 301.294C437.746 301.402 438.13 301.576 438.454 301.816C438.79 302.056 439.054 302.368 439.246 302.752C439.45 303.136 439.552 303.604 439.552 304.156C439.552 304.708 439.45 305.176 439.246 305.56C439.054 305.944 438.79 306.262 438.454 306.514C438.118 306.754 437.716 306.928 437.248 307.036C436.792 307.144 436.306 307.198 435.79 307.198C435.478 307.198 435.16 307.186 434.836 307.162C434.524 307.138 434.224 307.108 433.936 307.072C433.66 307.036 433.402 306.994 433.162 306.946C432.922 306.898 432.724 306.844 432.568 306.784V297.694ZM435.79 306.154C436.546 306.154 437.158 305.998 437.626 305.686C438.106 305.374 438.346 304.864 438.346 304.156C438.346 303.82 438.28 303.526 438.148 303.274C438.016 303.022 437.836 302.818 437.608 302.662C437.392 302.494 437.134 302.374 436.834 302.302C436.546 302.218 436.24 302.176 435.916 302.176C435.544 302.176 435.166 302.194 434.782 302.23C434.398 302.266 434.05 302.338 433.738 302.446V305.974C433.894 306.01 434.164 306.052 434.548 306.1C434.932 306.136 435.346 306.154 435.79 306.154ZM442.684 307H441.514V297.694H442.684V307ZM453.184 307H452.014V302.662H446.956V307H445.786V297.694H446.956V301.672H452.014V297.694H453.184V307ZM462.616 299.188C462.256 299.62 461.836 300.166 461.356 300.826C460.888 301.486 460.408 302.182 459.916 302.914C459.436 303.646 458.974 304.372 458.53 305.092C458.086 305.812 457.702 306.448 457.378 307H456.28V297.694H457.432V305.146C457.72 304.63 458.074 304.036 458.494 303.364C458.926 302.68 459.382 301.996 459.862 301.312C460.342 300.616 460.822 299.95 461.302 299.314C461.794 298.678 462.25 298.138 462.67 297.694H463.768V307H462.616V299.188ZM468.23 305.29C468.242 305.398 468.248 305.494 468.248 305.578C468.248 305.662 468.248 305.734 468.248 305.794C468.248 306.538 468.14 307.252 467.924 307.936C467.72 308.62 467.432 309.262 467.06 309.862L466.196 309.466C466.472 308.938 466.664 308.38 466.772 307.792C466.892 307.216 466.952 306.616 466.952 305.992C466.952 305.848 466.946 305.728 466.934 305.632C466.934 305.536 466.928 305.422 466.916 305.29H468.23ZM482.66 299.476C482.66 301.984 482.06 303.874 480.86 305.146C479.66 306.406 477.908 307.036 475.604 307.036L475.568 306.064C476.36 306.064 477.086 305.974 477.746 305.794C478.406 305.614 478.976 305.338 479.456 304.966C479.948 304.582 480.344 304.096 480.644 303.508C480.956 302.908 481.166 302.188 481.274 301.348C480.95 301.516 480.56 301.666 480.104 301.798C479.648 301.918 479.162 301.978 478.646 301.978C477.974 301.978 477.404 301.876 476.936 301.672C476.468 301.456 476.09 301.174 475.802 300.826C475.514 300.478 475.304 300.076 475.172 299.62C475.04 299.164 474.974 298.69 474.974 298.198C474.974 297.742 475.046 297.28 475.19 296.812C475.334 296.344 475.556 295.924 475.856 295.552C476.168 295.168 476.552 294.856 477.008 294.616C477.476 294.376 478.028 294.256 478.664 294.256C479.972 294.256 480.962 294.718 481.634 295.642C482.318 296.554 482.66 297.832 482.66 299.476ZM478.754 300.952C479.306 300.952 479.786 300.892 480.194 300.772C480.614 300.64 481.004 300.49 481.364 300.322C481.376 300.178 481.382 300.04 481.382 299.908C481.394 299.776 481.4 299.626 481.4 299.458C481.4 298.894 481.358 298.36 481.274 297.856C481.202 297.352 481.058 296.908 480.842 296.524C480.638 296.14 480.362 295.84 480.014 295.624C479.666 295.396 479.222 295.282 478.682 295.282C478.238 295.282 477.86 295.366 477.548 295.534C477.236 295.69 476.984 295.9 476.792 296.164C476.6 296.428 476.456 296.734 476.36 297.082C476.276 297.43 476.234 297.79 476.234 298.162C476.234 299.11 476.444 299.812 476.864 300.268C477.296 300.724 477.926 300.952 478.754 300.952Z" fill="#3D3D3D"/>
</svg>
