<svg width="351" height="265" viewBox="0 0 351 265" fill="none" xmlns="http://www.w3.org/2000/svg">
<path fill-rule="evenodd" clip-rule="evenodd" d="M56.2445 58.9003C47.2968 89.9365 44.2024 101.188 43.7737 102.934C13.5382 103.221 3.39007 131.027 1.52646 143.592C-0.337146 156.157 13.5521 157.071 10.7116 171.214C8.43927 182.528 11.857 187.41 13.8499 188.437C8.02911 201.911 -1.22322 229.882 8.33347 233.974C20.2793 239.088 7.89238 239.729 14.4106 247.509C20.9288 255.289 29.7972 249.454 28.8754 256.782C27.9535 264.11 33.9214 266.145 61.1588 263.272C82.9488 260.974 63.2158 253.668 50.6256 250.302L36.1368 238.415C44.9136 240.423 63.3664 245.162 66.9631 248.056C71.4589 251.673 75.4094 250.067 81.3476 248.965C86.0982 248.083 92.3054 254.438 94.8152 257.725C100.605 258.367 112.481 259.648 113.671 259.637C115.158 259.623 111.678 258.61 125.037 255.87C135.723 253.677 132.404 248.654 129.408 246.417C129.384 243.804 108.54 241.387 96.654 242.546C84.7677 243.704 61.8177 228.238 68.7919 231.831C75.7661 235.425 92.1433 237.361 96.6094 237.841C101.075 238.321 102.557 237.784 106.012 236.183C109.467 234.582 121.953 244.397 129.344 239.621C136.734 234.846 134.682 227.546 129.23 227.598C123.777 227.65 108.377 224.136 99.9352 222.648C91.4938 221.16 89.0799 227.979 78.636 224.418C64.3208 220.372 62.9956 213.065 64.1224 209.917C67.0799 208.147 72.8036 205.339 72.0384 208.274C70.6506 218.743 86.998 217.543 94.4331 217.472C101.868 217.401 108.857 222.563 110.344 222.549C111.831 222.535 124.744 225.082 154.46 222.13C178.232 219.769 196.443 223.448 202.577 225.584C208.101 224.894 214.257 225.222 215.463 225.211C216.501 225.201 216.04 224.775 219.419 224.184C220.408 223.993 272.757 203.232 275.702 200.067C278.646 196.902 283.603 196.855 286.101 198.923C288.599 200.99 284.644 202.073 284.679 205.733C284.713 209.392 273.333 211.591 269.372 212.152C265.412 212.712 270.448 221.029 242.204 222.343C228.747 222.969 222.493 223.645 219.419 224.184C216.04 224.775 216.501 225.201 215.463 225.211C214.257 225.222 208.101 224.894 202.577 225.584C199.016 226.028 195.717 226.896 194.178 228.55C184.784 241.605 208.845 241.829 222.05 240.31L230.437 236.048L247.786 235.883L258.135 229.511L262.096 228.951L271.474 224.679C263.272 231.031 246.175 243.741 243.399 243.767C239.929 243.8 233.5 245.429 228.559 247.045C223.617 248.66 192.919 252.611 206.342 256.666C226.994 259.816 241.393 258.773 246.011 257.858C248.3 255.222 253.866 249.732 257.823 248.858C262.77 247.766 273.7 250.276 281.11 247.591C287.038 245.444 295.04 235.434 298.3 230.698C297.165 232.975 294.904 238.468 294.939 242.232C294.984 246.937 311.361 248.873 301.478 252.103C293.571 254.688 295.916 258.081 298.077 259.455C326.361 262.323 337.216 256.992 337.196 254.901C337.18 253.228 330.187 247.648 326.693 245.067L326.623 237.749C323.411 233.597 326.2 227.994 327.996 225.711C326.866 211.083 347.679 210.363 342.182 205.71C337.784 201.987 339.252 193.016 340.536 188.995L340.278 161.811C354.504 145.992 348.452 135.07 346.945 132.993C345.438 130.916 339.881 119.99 339.846 116.331C339.812 112.671 333.283 103.846 325.288 97.125C305.877 88.9442 296.826 75.437 289.307 66.6214C281.787 57.8057 275.626 35.3818 270.624 30.7239C265.623 26.0661 277.925 16.5385 262.47 7.27462C247.015 -1.98929 231.644 -2.36619 218.925 15.5302C208.75 29.8472 188.028 33.2505 178.939 33.1625C169.681 32.7276 149.583 32.1864 143.25 33.5013C135.334 35.1449 110.297 8.71914 87.9912 8.93088C65.6849 9.14263 67.4291 20.1051 56.2445 58.9003ZM192.233 75.9071C190.434 77.8411 188.321 81.5906 194.265 81.1159C201.696 80.5226 195.668 72.2148 192.233 75.9071ZM136.271 81.6664C137.279 83.3996 139.979 85.8137 142.715 81.6053C146.135 76.3447 134.219 74.3665 136.271 81.6664Z" fill="#547629"/>
<path d="M192.233 75.9071C190.434 77.8411 188.321 81.5906 194.265 81.1159C201.696 80.5226 195.668 72.2148 192.233 75.9071Z" fill="#909090"/>
<path d="M136.271 81.6664C137.279 83.3996 139.979 85.8137 142.715 81.6053C146.135 76.3447 134.219 74.3665 136.271 81.6664Z" fill="#909090"/>
<path d="M105.423 177.705C105.166 178.071 105.349 178.302 105.423 177.705Z" fill="#3D3D3D"/>
<path d="M68.0112 77.0871C62.1254 84.5956 54.0968 100.499 65.376 107.958M269.58 72.0368C276.086 73.0207 280.081 87.0987 283.611 93.3389C285.282 96.2932 283.392 98.6954 280.941 100.683M65.376 107.958C66.2295 108.522 67.1934 109.039 68.2772 109.499C87.5367 117.681 145.094 123.408 152.074 127.525C159.053 131.641 158.978 123.8 164.936 124.789C170.894 125.778 172.922 130.464 177.864 128.848C182.805 127.233 234.767 117.852 236.219 114.178C237.672 110.505 274.833 108.584 274.808 105.97C274.795 104.594 278.215 102.895 280.941 100.683M65.376 107.958C62.6072 114.28 60.943 127.678 74.3077 134.144C74.0509 141.945 75.323 157.635 82.466 157.986C91.3947 158.424 105.406 172.407 105.451 177.112M280.941 100.683C282.376 122.628 271.621 135.801 268.429 136.876C265.237 137.952 263.854 153.127 263.884 156.264C263.914 159.4 256.989 161.034 247.15 168.97C237.311 176.906 227.858 173.336 223.476 181.742C219.971 188.467 212.462 187.772 209.146 186.584L213.196 195.433C198.375 200.802 188.918 196.709 178.479 193.671C168.04 190.633 154.32 207.494 141.303 194.024C102.82 167.678 105.104 180.259 105.423 177.705" stroke="#909090" stroke-width="0.983428"/>
<path d="M89.4839 40.372C85.7264 44.6413 81.0389 54.4862 92.3484 59.7116C93.9398 59.7787 95.5064 59.7357 97.039 59.6003C108.767 52.4063 103.585 43.1165 99.5279 39.3709C95.8841 38.9839 92.5214 39.4114 89.4839 40.372Z" fill="#3D3D3D"/>
<path d="M95.4606 34.5389C95.0084 34.5591 94.5618 34.5882 94.121 34.6259C93.2037 34.7043 92.3112 34.8197 91.4433 34.9686C90.042 35.209 88.7048 35.5368 87.4311 35.9374C76.3958 39.4074 70.1243 48.3345 68.158 53.1764L73.5194 53.1255C76.367 48.4672 81.916 42.7651 89.4839 40.372C92.5214 39.4114 95.8841 38.9839 99.5279 39.3709C105.742 40.0309 112.774 43.0597 120.405 49.8534C115.91 53.719 107.225 58.7003 97.039 59.6003C95.5064 59.7357 93.9398 59.7787 92.3484 59.7116C86.2642 59.4552 79.8173 57.5896 73.5194 53.1255L68.158 53.1764C74.2083 59.4372 80.3917 62.9418 86.3625 64.5725C87.4902 64.8805 88.6103 65.1216 89.7206 65.3018C90.6222 65.4482 91.5173 65.5544 92.4045 65.6236C93.5354 65.7118 94.6536 65.74 95.7566 65.7146C96.5902 65.6955 97.4152 65.6458 98.2304 65.5683C99.1695 65.4791 100.096 65.3531 101.007 65.1947C115.628 62.6532 126.455 51.7651 126.443 50.5026C126.426 48.7127 118.682 37.9298 104.179 35.1519C103.098 34.9448 101.98 34.7822 100.824 34.6711C100.165 34.6079 99.4944 34.5613 98.8117 34.5328C97.725 34.4873 96.6079 34.4876 95.4606 34.5389Z" fill="#909090"/>
<path d="M120.405 49.8534C112.774 43.0597 105.742 40.0309 99.5279 39.3709C103.585 43.1165 108.767 52.4063 97.039 59.6003C107.225 58.7003 115.91 53.719 120.405 49.8534Z" fill="#DFDFDF"/>
<path d="M89.4839 40.372C81.916 42.7651 76.367 48.4672 73.5194 53.1255C79.8173 57.5896 86.2642 59.4552 92.3484 59.7116C81.0389 54.4862 85.7264 44.6413 89.4839 40.372Z" fill="#DFDFDF"/>
<path d="M89.3486 26.115C86.18 31.2344 86.75 34.7963 87.4311 35.9374C88.7048 35.5368 90.042 35.209 91.4433 34.9686C88.0626 31.8576 93.3092 19.7156 89.3486 26.115Z" fill="#909090"/>
<path d="M94.121 34.6259C94.5618 34.5882 95.0084 34.5591 95.4606 34.5389C96.6079 34.4876 97.725 34.4873 98.8117 34.5328C96.7746 31.7497 102.665 16.7996 100.674 18.9391C94.3052 25.7854 93.6516 32.2496 94.121 34.6259Z" fill="#909090"/>
<path d="M109.434 23.8051C105.166 26.1076 101.916 32.0085 100.824 34.6711C101.98 34.7822 103.098 34.9448 104.179 35.1519C104.816 31.6245 114.768 20.9271 109.434 23.8051Z" fill="#909090"/>
<path d="M86.3625 64.5725C85.2581 65.9109 83.3309 69.9989 84.4569 75.6431C85.1404 77.0503 86.3936 67.8493 89.7206 65.3018C88.6103 65.1216 87.4902 64.8805 86.3625 64.5725Z" fill="#909090"/>
<path d="M92.4045 65.6236C91.5781 67.6534 90.6058 75.3963 92.7815 76.7988C92.9824 76.9283 93.2226 76.7745 93.2694 76.5401C94.4629 70.5655 94.4859 69.7965 95.7566 65.7146C94.6536 65.74 93.5354 65.7118 92.4045 65.6236Z" fill="#909090"/>
<path d="M98.2304 65.5683C97.4279 67.9481 97.036 73.4031 101.888 76.1845C103.912 77.579 99.6437 74.0016 101.007 65.1947C100.096 65.3531 99.1695 65.4791 98.2304 65.5683Z" fill="#909090"/>
<path d="M242.596 39.9866C246.434 44.1836 251.307 53.9371 240.1 59.3759C238.51 59.4732 236.943 59.4599 235.408 59.3536C223.546 52.384 228.551 42.9982 232.536 39.1765C236.171 38.7204 239.541 39.084 242.596 39.9866Z" fill="#3D3D3D"/>
<path d="M236.51 34.2684C236.963 34.2801 237.41 34.3007 237.851 34.33C238.77 34.391 239.664 34.4894 240.535 34.6218C241.94 34.8356 243.283 35.1379 244.564 35.5142C255.663 38.7738 262.102 47.5797 264.16 52.3831L258.799 52.434C255.863 47.8309 250.208 42.2356 242.596 39.9866C239.541 39.084 236.171 38.7204 232.536 39.1765C226.335 39.9542 219.363 43.1158 211.863 50.0527C216.43 53.832 225.207 58.6472 235.408 59.3536C236.943 59.4599 238.51 59.4732 240.1 59.3759C246.177 59.004 252.587 57.0165 258.799 52.434L264.16 52.3831C258.23 58.7572 252.115 62.3783 246.176 64.1219C245.055 64.4512 243.939 64.7136 242.833 64.9149C241.934 65.0783 241.041 65.2015 240.156 65.2875C239.027 65.3972 237.909 65.4465 236.806 65.4421C235.972 65.4388 235.147 65.4048 234.33 65.3428C233.39 65.2715 232.461 65.1631 231.547 65.022C216.882 62.7586 205.851 52.0788 205.839 50.8163C205.822 49.0265 213.359 38.0994 227.805 35.0468C228.882 34.8193 229.997 34.6355 231.151 34.5025C231.808 34.4267 232.478 34.3674 233.16 34.3259C234.245 34.2599 235.362 34.239 236.51 34.2684Z" fill="#909090"/>
<path d="M211.863 50.0527C219.363 43.1158 226.335 39.9542 232.536 39.1765C228.551 42.9982 223.546 52.384 235.408 59.3536C225.207 58.6472 216.43 53.832 211.863 50.0527Z" fill="#DFDFDF"/>
<path d="M242.596 39.9866C250.208 42.2356 255.863 47.8309 258.799 52.434C252.587 57.0165 246.177 59.004 240.1 59.3759C251.307 53.9371 246.434 44.1836 242.596 39.9866Z" fill="#DFDFDF"/>
<path d="M242.461 25.7306C245.726 30.7887 245.224 34.3605 244.564 35.5142C243.283 35.1379 241.94 34.8356 240.535 34.6218C243.856 31.4474 238.38 19.408 242.461 25.7306Z" fill="#909090"/>
<path d="M237.851 34.33C237.41 34.3007 236.963 34.2801 236.51 34.2684C235.362 34.239 234.245 34.2599 233.16 34.3259C235.144 31.5049 228.971 16.6703 231.002 18.7715C237.499 25.4952 238.275 31.9454 237.851 34.33Z" fill="#909090"/>
<path d="M222.337 23.8026C226.647 26.0235 230.009 31.8612 231.151 34.5025C229.997 34.6355 228.882 34.8193 227.805 35.0468C227.102 31.5323 216.949 21.0265 222.337 23.8026Z" fill="#909090"/>
<path d="M246.176 64.1219C247.306 65.4391 249.31 69.4895 248.292 75.1537C247.635 76.5735 246.207 67.3985 242.833 64.9149C243.939 64.7136 245.055 64.4512 246.176 64.1219Z" fill="#909090"/>
<path d="M240.156 65.2875C241.018 67.2944 242.132 74.9723 240.012 76.4525C239.805 76.5973 239.547 76.4401 239.493 76.193C238.192 70.2651 238.152 69.4932 236.806 65.4421C237.909 65.4465 239.027 65.3972 240.156 65.2875Z" fill="#909090"/>
<path d="M234.33 65.3428C235.178 67.7068 235.673 73.153 230.875 76.0258C228.878 77.4584 233.077 73.8008 231.547 65.022C232.461 65.1631 233.39 65.2715 234.33 65.3428Z" fill="#909090"/>
</svg>
