<svg width="357" height="269" viewBox="0 0 357 269" fill="none" xmlns="http://www.w3.org/2000/svg">
<path fill-rule="evenodd" clip-rule="evenodd" d="M57.9437 59.9829C48.8686 91.461 45.7302 102.873 45.2954 104.644C14.6294 104.935 4.33678 133.136 2.44663 145.88C0.556491 158.624 14.6435 159.551 11.7626 173.895C9.45787 185.371 12.9242 190.322 14.9455 191.364C9.04187 205.03 -0.342197 233.399 9.35056 237.549C21.4665 242.737 8.90319 243.386 15.5142 251.277C22.1253 259.168 31.1199 253.25 30.1849 260.682C29.2499 268.115 35.3029 270.178 62.9281 267.265C85.0282 264.934 65.0143 257.524 52.2448 254.11L37.5498 242.054C46.4516 244.09 65.1671 248.897 68.8149 251.832C73.3748 255.5 77.3815 253.871 83.4043 252.754C88.2225 251.86 94.5181 258.304 97.0637 261.638C102.936 262.29 114.981 263.589 116.188 263.578C117.696 263.564 114.167 262.537 127.715 259.757C138.554 257.533 135.188 252.439 132.149 250.17C132.124 247.519 110.984 245.068 98.9286 246.243C86.8731 247.418 63.5963 231.731 70.6698 235.376C77.7433 239.021 94.3537 240.984 98.8833 241.471C103.413 241.959 104.916 241.414 108.42 239.79C111.924 238.166 124.588 248.121 132.084 243.277C139.58 238.434 137.498 231.03 131.968 231.082C126.438 231.135 110.818 227.571 102.257 226.062C93.6949 224.552 91.2467 231.469 80.6541 227.858C66.135 223.754 64.791 216.343 65.9338 213.15C68.9335 211.354 74.7387 208.507 73.9625 211.483C72.5549 222.102 89.1351 220.884 96.6761 220.812C104.217 220.741 111.306 225.976 112.814 225.962C114.322 225.947 127.419 228.531 157.557 225.537C181.668 223.142 200.139 226.874 206.36 229.039C211.962 228.34 218.206 228.673 219.429 228.661C220.482 228.651 220.014 228.22 223.441 227.62C224.445 227.427 277.54 206.369 280.526 203.159C283.512 199.95 288.539 199.902 291.073 201.999C293.607 204.096 289.595 205.194 289.63 208.906C289.666 212.617 278.123 214.848 274.106 215.416C270.089 215.985 275.197 224.42 246.551 225.753C232.903 226.388 226.56 227.073 223.441 227.62C220.014 228.22 220.482 228.651 219.429 228.661C218.206 228.673 211.962 228.34 206.36 229.039C202.748 229.49 199.402 230.37 197.841 232.048C188.314 245.289 212.717 245.517 226.11 243.975L234.616 239.653L252.212 239.486L262.709 233.023L266.726 232.455L276.238 228.122C267.919 234.564 250.578 247.455 247.763 247.482C244.244 247.515 237.724 249.168 232.711 250.806C227.699 252.444 196.565 256.452 210.179 260.565C231.125 263.759 245.729 262.702 250.413 261.773C252.734 259.1 258.379 253.532 262.393 252.645C267.41 251.537 278.495 254.083 286.011 251.361C292.024 249.183 300.139 239.031 303.446 234.227C302.294 236.536 300.001 242.107 300.037 245.925C300.083 250.697 316.693 252.66 306.668 255.937C298.649 258.558 301.028 262 303.22 263.393C331.906 266.302 342.916 260.895 342.896 258.775C342.879 257.078 335.787 251.418 332.242 248.801L332.172 241.378C328.914 237.167 331.743 231.484 333.564 229.169C332.418 214.332 353.528 213.602 347.952 208.882C343.492 205.107 344.981 196.008 346.283 191.93L346.022 164.359C360.45 148.315 354.311 137.238 352.783 135.131C351.255 133.024 345.619 121.943 345.584 118.231C345.548 114.52 338.927 105.568 330.818 98.7518C311.131 90.4546 301.951 76.7551 294.324 67.8139C286.698 58.8727 280.448 36.1295 275.376 31.4054C270.303 26.6812 282.781 17.018 267.106 7.62216C251.43 -1.77365 235.841 -2.15592 222.941 15.9952C212.621 30.5162 191.604 33.9679 182.385 33.8787C172.996 33.4375 152.611 32.8887 146.188 34.2223C138.16 35.8893 112.766 9.08724 90.1425 9.302C67.5186 9.51676 69.2876 20.6353 57.9437 59.9829ZM195.869 77.2318C194.044 79.1934 191.901 82.9963 197.93 82.5148C205.466 81.913 199.353 73.487 195.869 77.2318ZM139.11 83.0732C140.132 84.831 142.871 87.2795 145.646 83.0112C149.114 77.6757 137.029 75.6694 139.11 83.0732Z" fill="#547629"/>
<path d="M195.869 77.2318C194.044 79.1934 191.901 82.9963 197.93 82.5148C205.466 81.913 199.353 73.487 195.869 77.2318Z" fill="#547629"/>
<path d="M139.11 83.0732C140.132 84.831 142.871 87.2795 145.646 83.0112C149.114 77.6757 137.029 75.6694 139.11 83.0732Z" fill="#547629"/>
<path d="M107.824 180.48C107.563 180.852 107.748 181.085 107.824 180.48Z" fill="#547629"/>
<path d="M69.8788 78.4295C63.9092 86.0448 55.7663 102.174 67.2061 109.74M274.318 73.3073C280.916 74.3051 284.969 88.5836 288.548 94.9127C290.243 97.909 288.327 100.345 285.841 102.362M67.2061 109.74C68.0717 110.312 69.0494 110.836 70.1486 111.303C89.6823 119.601 148.059 125.41 155.138 129.585C162.217 133.76 162.141 125.807 168.184 126.81C174.227 127.813 176.283 132.566 181.295 130.928C186.307 129.289 239.009 119.775 240.482 116.049C241.955 112.323 279.645 110.375 279.62 107.724C279.607 106.328 283.076 104.605 285.841 102.362M67.2061 109.74C64.3978 116.152 62.7099 129.741 76.2649 136.299C76.0045 144.211 77.2947 160.125 84.5394 160.48C93.5952 160.924 107.806 175.106 107.852 179.878M285.841 102.362C287.296 124.619 276.388 137.979 273.15 139.07C269.913 140.161 268.51 155.552 268.54 158.733C268.571 161.915 261.547 163.572 251.568 171.621C241.589 179.669 232.002 176.048 227.557 184.575C224.002 191.396 216.387 190.69 213.023 189.485L217.131 198.46C202.099 203.906 192.507 199.755 181.919 196.673C171.332 193.592 157.417 210.693 144.214 197.031C105.183 170.31 107.5 183.07 107.824 180.48" stroke="#909090" stroke-width="2"/>
<path d="M91.6574 41.1912C87.8464 45.5213 83.0921 55.5065 94.5627 60.8063C96.1768 60.8743 97.7656 60.8307 99.3201 60.6933C111.215 53.3969 105.959 43.9749 101.844 40.1759C98.1487 39.7834 94.7381 40.217 91.6574 41.1912Z" fill="#3D3D3D"/>
<path d="M97.7192 35.2751C97.2605 35.2956 96.8076 35.3251 96.3605 35.3634C95.4302 35.4429 94.525 35.5599 93.6447 35.7109C92.2234 35.9548 90.8672 36.2873 89.5754 36.6935C78.383 40.2129 72.0222 49.2671 70.0278 54.178L75.4656 54.1264C78.3538 49.4017 83.9818 43.6185 91.6574 41.1912C94.7381 40.217 98.1487 39.7834 101.844 40.1759C108.147 40.8453 115.279 43.9173 123.018 50.8077C118.46 54.7283 109.651 59.7805 99.3201 60.6933C97.7656 60.8307 96.1768 60.8743 94.5627 60.8063C88.3919 60.5462 81.8531 58.654 75.4656 54.1264L70.0278 54.178C76.1643 60.5279 82.4358 64.0824 88.4915 65.7363C89.6353 66.0487 90.7714 66.2933 91.8974 66.4761C92.8119 66.6245 93.7197 66.7323 94.6196 66.8025C95.7666 66.8919 96.9007 66.9205 98.0194 66.8948C98.8649 66.8753 99.7016 66.8249 100.528 66.7464C101.481 66.6559 102.42 66.5281 103.345 66.3674C118.174 63.7897 129.155 52.7466 129.143 51.4661C129.125 49.6507 121.271 38.7144 106.562 35.8969C105.466 35.6868 104.331 35.5219 103.159 35.4093C102.491 35.3451 101.81 35.2978 101.118 35.2689C100.016 35.2228 98.8828 35.2231 97.7192 35.2751Z" fill="#909090"/>
<path d="M123.018 50.8077C115.279 43.9173 108.147 40.8453 101.844 40.1759C105.959 43.9749 111.215 53.3969 99.3201 60.6933C109.651 59.7805 118.46 54.7283 123.018 50.8077Z" fill="#DFDFDF"/>
<path d="M91.6574 41.1912C83.9818 43.6185 78.3538 49.4017 75.4656 54.1264C81.8531 58.654 88.3919 60.5462 94.5627 60.8063C83.0921 55.5065 87.8464 45.5213 91.6574 41.1912Z" fill="#DFDFDF"/>
<path d="M91.5201 26.7313C88.3065 31.9236 88.8846 35.5362 89.5754 36.6935C90.8672 36.2873 92.2234 35.9548 93.6447 35.7109C90.2159 32.5556 95.5372 20.2408 91.5201 26.7313Z" fill="#909090"/>
<path d="M96.3605 35.3634C96.8076 35.3251 97.2605 35.2956 97.7192 35.2751C98.8828 35.2231 100.016 35.2228 101.118 35.2689C99.0519 32.4462 105.026 17.2833 103.007 19.4532C96.5473 26.397 95.8844 32.9532 96.3605 35.3634Z" fill="#909090"/>
<path d="M111.891 24.3886C107.563 26.7238 104.266 32.7087 103.159 35.4093C104.331 35.5219 105.466 35.6868 106.562 35.8969C107.208 32.3192 117.302 21.4695 111.891 24.3886Z" fill="#909090"/>
<path d="M88.4915 65.7363C87.3714 67.0939 85.4168 71.24 86.5588 76.9646C87.2521 78.3919 88.5231 69.0598 91.8974 66.4761C90.7714 66.2933 89.6353 66.0487 88.4915 65.7363Z" fill="#909090"/>
<path d="M94.6196 66.8025C93.7814 68.8611 92.7953 76.7143 95.0019 78.1367C95.2057 78.2681 95.4493 78.1121 95.4968 77.8744C96.7073 71.8147 96.7306 71.0348 98.0194 66.8948C96.9007 66.9205 95.7666 66.8919 94.6196 66.8025Z" fill="#909090"/>
<path d="M100.528 66.7464C99.7145 69.1601 99.317 74.6927 104.238 77.5137C106.291 78.9281 101.962 75.2997 103.345 66.3674C102.42 66.5281 101.481 66.6559 100.528 66.7464Z" fill="#909090"/>
<path d="M246.948 40.798C250.84 45.0547 255.783 54.9471 244.416 60.4634C242.803 60.562 241.214 60.5486 239.658 60.4408C227.627 53.3719 232.703 43.8525 236.744 39.9763C240.432 39.5138 243.85 39.8825 246.948 40.798Z" fill="#3D3D3D"/>
<path d="M240.775 34.9984C241.234 35.0102 241.688 35.0311 242.136 35.0609C243.067 35.1227 243.974 35.2225 244.857 35.3568C246.283 35.5736 247.645 35.8803 248.944 36.2619C260.201 39.568 266.732 48.4992 268.819 53.371L263.381 53.4226C260.404 48.754 254.668 43.079 246.948 40.798C243.85 39.8825 240.432 39.5138 236.744 39.9763C230.456 40.7652 223.384 43.9718 215.777 51.0074C220.409 54.8405 229.312 59.7243 239.658 60.4408C241.214 60.5486 242.803 60.562 244.416 60.4634C250.58 60.0862 257.081 58.0704 263.381 53.4226L268.819 53.371C262.804 59.8359 256.602 63.5085 250.579 65.277C249.442 65.611 248.31 65.8771 247.188 66.0812C246.277 66.247 245.371 66.3719 244.473 66.4591C243.328 66.5704 242.194 66.6204 241.076 66.616C240.23 66.6126 239.392 66.5781 238.564 66.5152C237.61 66.4429 236.669 66.3329 235.742 66.1898C220.867 63.8943 209.679 53.0623 209.667 51.7819C209.65 49.9666 217.294 38.8839 231.946 35.7879C233.039 35.5571 234.17 35.3707 235.34 35.2358C236.006 35.1589 236.686 35.0988 237.377 35.0567C238.478 34.9898 239.611 34.9686 240.775 34.9984Z" fill="#909090"/>
<path d="M215.777 51.0074C223.384 43.9718 230.456 40.7652 236.744 39.9763C232.703 43.8525 227.627 53.3719 239.658 60.4408C229.312 59.7243 220.409 54.8405 215.777 51.0074Z" fill="#DFDFDF"/>
<path d="M246.948 40.798C254.668 43.079 260.404 48.754 263.381 53.4226C257.081 58.0704 250.58 60.0862 244.416 60.4634C255.783 54.9471 250.84 45.0547 246.948 40.798Z" fill="#DFDFDF"/>
<path d="M246.811 26.339C250.122 31.4691 249.613 35.0918 248.944 36.2619C247.645 35.8803 246.283 35.5736 244.857 35.3568C248.225 32.1372 242.672 19.9264 246.811 26.339Z" fill="#909090"/>
<path d="M242.136 35.0609C241.688 35.0311 241.234 35.0102 240.775 34.9984C239.611 34.9686 238.478 34.9898 237.377 35.0567C239.389 32.1955 233.129 17.1497 235.188 19.2808C241.779 26.1003 242.566 32.6423 242.136 35.0609Z" fill="#909090"/>
<path d="M226.4 24.3836C230.772 26.6361 234.182 32.5569 235.34 35.2358C234.17 35.3707 233.039 35.5571 231.946 35.7879C231.233 32.2234 220.936 21.5679 226.4 24.3836Z" fill="#909090"/>
<path d="M250.579 65.277C251.725 66.6129 253.758 70.7209 252.725 76.4658C252.058 77.9058 250.611 68.6002 247.188 66.0812C248.31 65.8771 249.442 65.611 250.579 65.277Z" fill="#909090"/>
<path d="M244.473 66.4591C245.347 68.4946 246.477 76.2818 244.327 77.7831C244.117 77.93 243.855 77.7705 243.8 77.5199C242.481 71.5076 242.441 70.7248 241.076 66.616C242.194 66.6204 243.328 66.5704 244.473 66.4591Z" fill="#909090"/>
<path d="M238.564 66.5152C239.424 68.9129 239.926 74.4366 235.06 77.3503C233.035 78.8033 237.294 75.0937 235.742 66.1898C236.669 66.3329 237.61 66.4429 238.564 66.5152Z" fill="#909090"/>
</svg>
