<svg width="475" height="359" viewBox="0 0 475 359" fill="none" xmlns="http://www.w3.org/2000/svg">
<path fill-rule="evenodd" clip-rule="evenodd" d="M76.5956 79.6439C64.4954 121.615 60.3109 136.83 59.7311 139.191C18.8432 139.58 5.11961 177.181 2.59942 194.174C0.0792272 211.166 18.8619 212.401 15.0207 231.527C11.9477 246.828 16.5695 253.43 19.2646 254.818C11.3931 273.039 -1.11902 310.865 11.8047 316.399C27.9593 323.315 11.2082 324.181 20.0229 334.703C28.8376 345.224 40.8305 337.333 39.5838 347.243C38.3371 357.153 46.4077 359.905 83.2413 356.02C112.708 352.912 86.023 343.032 68.997 338.48L49.4036 322.405C61.2726 325.12 86.2267 331.529 91.0905 335.442C97.1703 340.334 102.513 338.162 110.543 336.672C116.967 335.479 125.361 344.072 128.755 348.518C136.585 349.386 152.645 351.119 154.254 351.104C156.265 351.085 151.56 349.715 169.624 346.009C184.076 343.044 179.587 336.252 175.536 333.227C175.503 329.692 147.316 326.424 131.242 327.991C115.168 329.558 84.1323 308.642 93.5637 313.501C102.995 318.361 125.142 320.979 131.182 321.628C137.221 322.278 139.225 321.552 143.898 319.387C148.57 317.221 165.455 330.494 175.449 324.036C185.443 317.578 182.668 307.707 175.295 307.777C167.921 307.847 147.095 303.095 135.679 301.083C124.264 299.07 121 308.292 106.876 303.477C87.5173 298.005 85.7252 288.124 87.249 283.867C91.2485 281.472 98.9888 277.675 97.9539 281.644C96.0772 295.802 118.184 294.179 128.239 294.083C138.293 293.988 147.745 300.968 149.756 300.949C151.767 300.93 169.229 304.375 209.414 300.383C241.561 297.189 266.189 302.165 274.484 305.053C281.954 304.12 290.279 304.564 291.909 304.549C293.313 304.535 292.69 303.96 297.259 303.16C298.597 302.902 369.39 274.826 373.372 270.546C377.353 266.266 384.056 266.202 387.435 268.998C390.813 271.794 385.464 273.259 385.511 278.208C385.558 283.156 370.168 286.13 364.812 286.888C359.456 287.646 366.267 298.894 328.072 300.67C309.874 301.517 301.417 302.431 297.259 303.16C292.69 303.96 293.313 304.535 291.909 304.549C290.279 304.564 281.954 304.12 274.484 305.053C269.668 305.654 265.207 306.827 263.126 309.064C250.422 326.718 282.961 327.022 300.818 324.967L312.159 319.204L335.62 318.981L349.616 310.364L354.972 309.606L367.654 303.83C356.563 312.419 333.442 329.607 329.688 329.642C324.996 329.687 316.302 331.89 309.619 334.075C302.936 336.259 261.424 341.602 279.576 347.086C307.504 351.346 326.976 349.936 333.221 348.698C336.315 345.133 343.842 337.709 349.194 336.527C355.884 335.05 370.664 338.444 380.685 334.814C388.702 331.91 399.523 318.374 403.932 311.969C402.397 315.048 399.339 322.477 399.387 327.567C399.447 333.929 421.595 336.547 408.229 340.916C397.536 344.411 400.708 349 403.63 350.858C441.878 354.737 456.558 347.527 456.531 344.699C456.51 342.437 447.053 334.891 442.327 331.401L442.233 321.504C437.89 315.889 441.661 308.312 444.09 305.225C442.561 285.443 470.708 284.469 463.274 278.177C457.327 273.143 459.312 261.01 461.048 255.573L460.699 218.812C479.937 197.419 471.752 182.65 469.715 179.841C467.677 177.033 460.162 162.257 460.115 157.308C460.068 152.36 451.24 140.424 440.428 131.336C414.179 120.273 401.938 102.007 391.77 90.0852C381.601 78.1636 373.269 47.8393 366.505 41.5405C359.742 35.2416 376.379 22.3573 355.478 9.82954C334.578 -2.6982 313.791 -3.20789 296.591 20.9937C282.831 40.3549 254.809 44.9572 242.518 44.8382C229.998 44.2501 202.819 43.5182 194.255 45.2964C183.55 47.519 149.692 11.783 119.527 12.0693C89.362 12.3557 91.7207 27.1805 76.5956 79.6439ZM260.495 102.642C258.062 105.258 255.205 110.328 263.244 109.686C273.292 108.884 265.141 97.6493 260.495 102.642ZM184.817 110.431C186.18 112.775 189.831 116.039 193.531 110.348C198.156 103.234 182.042 100.559 184.817 110.431Z" fill="#547629"/>
<path d="M260.495 102.642C258.062 105.258 255.205 110.328 263.244 109.686C273.292 108.884 265.141 97.6493 260.495 102.642Z" fill="#547629"/>
<path d="M184.817 110.431C186.18 112.775 189.831 116.039 193.531 110.348C198.156 103.234 182.042 100.559 184.817 110.431Z" fill="#547629"/>
<path d="M92.5077 104.238C84.5482 114.392 73.691 135.898 88.9441 145.985M365.093 97.4084C373.891 98.7389 379.294 117.777 384.067 126.216C386.327 130.211 383.771 133.459 380.457 136.148M88.9441 145.985C90.0982 146.749 91.4017 147.446 92.8674 148.069C118.912 159.134 196.749 166.879 206.187 172.446C215.625 178.012 215.524 167.408 223.581 168.745C231.638 170.083 234.38 176.42 241.063 174.236C247.746 172.051 318.015 159.365 319.979 154.397C321.943 149.43 372.196 146.832 372.163 143.297C372.145 141.435 376.77 139.138 380.457 136.148M88.9441 145.985C85.1997 154.534 82.9492 172.653 101.023 181.397C100.675 191.947 102.396 213.165 112.055 213.639C124.13 214.231 143.078 233.14 143.138 239.503M380.457 136.148C382.397 165.824 367.853 183.637 363.536 185.092C359.219 186.547 357.349 207.068 357.39 211.31C357.43 215.551 348.066 217.761 334.76 228.493C321.455 239.224 308.672 234.396 302.746 245.765C298.005 254.86 287.851 253.919 283.367 252.312L288.844 264.279C268.801 271.539 256.012 266.005 241.895 261.897C227.778 257.789 209.225 280.589 191.622 262.374C139.58 226.745 142.669 243.759 143.101 240.305" stroke="#909090" stroke-width="3"/>
<path d="M121.547 54.587C116.466 60.3605 110.127 73.674 125.421 80.7404C127.573 80.8311 129.691 80.7729 131.764 80.5898C147.624 70.8612 140.616 58.2985 135.13 53.2333C130.202 52.71 125.655 53.2881 121.547 54.587Z" fill="#3D3D3D"/>
<path d="M129.63 46.6988C129.018 46.7262 128.414 46.7656 127.818 46.8165C126.577 46.9225 125.371 47.0786 124.197 47.28C122.302 47.6051 120.494 48.0484 118.771 48.59C103.848 53.2826 95.3668 65.3549 92.7077 71.9027L99.958 71.8339C103.809 65.5344 111.313 57.8233 121.547 54.587C125.655 53.2881 130.202 52.71 135.13 53.2333C143.533 54.1258 153.043 58.2217 163.362 67.409C157.284 72.6364 145.539 79.3727 131.764 80.5898C129.691 80.7729 127.573 80.8311 125.421 80.7404C117.193 80.3936 108.475 77.8707 99.958 71.8339L92.7077 71.9027C100.89 80.3693 109.252 85.1086 117.326 87.3138C118.851 87.7303 120.366 88.0564 121.867 88.3001C123.086 88.4981 124.297 88.6417 125.497 88.7353C127.026 88.8546 128.538 88.8927 130.03 88.8584C131.157 88.8325 132.273 88.7652 133.375 88.6605C134.645 88.5399 135.898 88.3695 137.13 88.1553C156.902 84.7183 171.544 69.9942 171.527 68.2868C171.504 65.8663 161.033 51.2845 141.42 47.5279C139.958 47.2478 138.445 47.0279 136.882 46.8777C135.992 46.7921 135.085 46.7292 134.161 46.6906C132.692 46.6292 131.181 46.6295 129.63 46.6988Z" fill="#909090"/>
<path d="M163.362 67.409C153.043 58.2217 143.533 54.1258 135.13 53.2333C140.616 58.2985 147.624 70.8612 131.764 80.5898C145.539 79.3727 157.284 72.6364 163.362 67.409Z" fill="#DFDFDF"/>
<path d="M121.547 54.587C111.313 57.8233 103.809 65.5344 99.958 71.8339C108.475 77.8707 117.193 80.3936 125.421 80.7404C110.127 73.674 116.466 60.3605 121.547 54.587Z" fill="#DFDFDF"/>
<path d="M121.364 35.307C117.079 42.2302 117.85 47.047 118.771 48.59C120.494 48.0484 122.302 47.6051 124.197 47.28C119.625 43.0728 126.72 26.6531 121.364 35.307Z" fill="#909090"/>
<path d="M127.818 46.8165C128.414 46.7656 129.018 46.7262 129.63 46.6988C131.181 46.6295 132.692 46.6292 134.161 46.6906C131.406 42.927 139.372 22.7097 136.68 25.603C128.067 34.8614 127.183 43.603 127.818 46.8165Z" fill="#909090"/>
<path d="M148.525 32.1834C142.754 35.2971 138.359 43.277 136.882 46.8777C138.445 47.0279 139.958 47.2478 141.42 47.5279C142.281 42.7576 155.739 28.2913 148.525 32.1834Z" fill="#909090"/>
<path d="M117.326 87.3138C115.832 89.1238 113.226 94.6521 114.749 102.285C115.673 104.188 117.368 91.7451 121.867 88.3001C120.366 88.0564 118.851 87.7303 117.326 87.3138Z" fill="#909090"/>
<path d="M125.497 88.7353C124.379 91.4802 123.064 101.951 126.006 103.848C126.278 104.023 126.603 103.815 126.666 103.498C128.28 95.4183 128.311 94.3784 130.03 88.8584C128.538 88.8927 127.026 88.8546 125.497 88.7353Z" fill="#909090"/>
<path d="M133.375 88.6605C132.29 91.8788 131.76 99.2557 138.321 103.017C141.058 104.903 135.286 100.065 137.13 88.1553C135.898 88.3695 134.645 88.5399 133.375 88.6605Z" fill="#909090"/>
<path d="M328.601 54.0673C333.791 59.7429 340.381 72.9328 325.225 80.2877C323.075 80.4193 320.956 80.4013 318.881 80.2576C302.84 70.8325 309.608 58.1399 314.996 52.9717C319.913 52.355 324.47 52.8466 328.601 54.0673Z" fill="#3D3D3D"/>
<path d="M320.371 46.3345C320.983 46.3502 321.588 46.3781 322.185 46.4177C323.427 46.5002 324.636 46.6333 325.814 46.8123C327.714 47.1014 329.531 47.5103 331.263 48.0191C346.271 52.4272 354.98 64.3355 357.762 70.8313L350.513 70.9001C346.543 64.6752 338.894 57.1086 328.601 54.0673C324.47 52.8466 319.913 52.355 314.996 52.9717C306.612 54.0235 297.182 58.299 287.04 67.6798C293.216 72.7906 305.086 79.3023 318.881 80.2576C320.956 80.4013 323.075 80.4193 325.225 80.2877C333.444 79.7849 342.112 77.0971 350.513 70.9001L357.762 70.8313C349.743 79.4511 341.473 84.348 333.443 86.7059C331.926 87.1512 330.418 87.506 328.921 87.7782C327.706 87.9992 326.499 88.1658 325.301 88.2821C323.774 88.4304 322.263 88.4972 320.771 88.4912C319.644 88.4867 318.527 88.4407 317.423 88.3569C316.151 88.2604 314.896 88.1138 313.659 87.923C293.827 84.8623 278.91 70.4197 278.893 68.7125C278.87 66.2921 289.063 51.5151 308.599 47.3871C310.056 47.0794 311.564 46.8308 313.124 46.651C314.013 46.5485 314.918 46.4683 315.84 46.4122C317.308 46.3229 318.819 46.2947 320.371 46.3345Z" fill="#909090"/>
<path d="M287.04 67.6798C297.182 58.299 306.612 54.0235 314.996 52.9717C309.608 58.1399 302.84 70.8325 318.881 80.2576C305.086 79.3023 293.216 72.7906 287.04 67.6798Z" fill="#DFDFDF"/>
<path d="M328.601 54.0673C338.894 57.1086 346.543 64.6752 350.513 70.9001C342.112 77.0971 333.444 79.7849 325.225 80.2877C340.381 72.9328 333.791 59.7429 328.601 54.0673Z" fill="#DFDFDF"/>
<path d="M328.418 34.7886C332.834 41.6287 332.154 46.459 331.263 48.0191C329.531 47.5103 327.714 47.1014 325.814 46.8123C330.304 42.5195 322.899 26.2385 328.418 34.7886Z" fill="#909090"/>
<path d="M322.185 46.4177C321.588 46.3781 320.983 46.3502 320.371 46.3345C318.819 46.2947 317.308 46.3229 315.84 46.4122C318.523 42.5973 310.176 22.5362 312.922 25.3776C321.709 34.4703 322.758 43.193 322.185 46.4177Z" fill="#909090"/>
<path d="M301.204 32.1813C307.033 35.1847 311.579 43.0792 313.124 46.651C311.564 46.8308 310.056 47.0794 308.599 47.3871C307.648 42.6344 293.918 28.4272 301.204 32.1813Z" fill="#909090"/>
<path d="M333.443 86.7059C334.97 88.4871 337.681 93.9645 336.303 101.624C335.415 103.544 333.485 91.1368 328.921 87.7782C330.418 87.506 331.926 87.1512 333.443 86.7059Z" fill="#909090"/>
<path d="M325.301 88.2821C326.466 90.9961 327.974 101.379 325.107 103.381C324.827 103.577 324.478 103.364 324.404 103.03C322.645 95.0134 322.592 93.9696 320.771 88.4912C322.263 88.4972 323.774 88.4304 325.301 88.2821Z" fill="#909090"/>
<path d="M317.423 88.3569C318.569 91.5538 319.239 98.9187 312.75 102.804C310.05 104.741 315.729 99.7948 313.659 87.923C314.896 88.1138 316.151 88.2604 317.423 88.3569Z" fill="#909090"/>
</svg>
