<svg width="95" height="298" viewBox="0 0 95 298" fill="none" xmlns="http://www.w3.org/2000/svg">
<path d="M14.9726 135.106C10.7838 148.622 9.94829 162.247 14.2258 172.706C16.2597 177.68 19.4493 181.937 23.984 185.128C27.2623 187.435 31.2436 189.184 35.9993 190.242C36.4916 190.352 36.9922 190.454 37.5012 190.549C40.6738 191.138 44.1718 191.435 48.0146 191.402C49.3102 191.391 50.645 191.343 52.0197 191.256C53.5899 191.156 55.091 191.004 56.5254 190.801C59.4682 190.386 62.1308 189.763 64.5356 188.961C68.3128 187.701 71.4543 186 74.0477 183.976C78.0541 180.848 80.7526 176.948 82.4662 172.706C85.5294 165.124 85.4457 156.45 84.0604 149.144C81.4584 135.421 76.697 103.76 83.3784 43.0019C72.9255 50.4186 55.7093 59.8879 48.0146 52.7519C37.5012 43.0019 23.5332 45.2519 13.295 47.7519C17.1961 81.8045 19.7252 119.771 14.9726 135.106Z" fill="#547629"/>
<path d="M37.5012 190.549C40.6738 191.138 44.1718 191.435 48.0146 191.402C49.3102 191.391 50.645 191.343 52.0197 191.256C53.5899 191.156 55.091 191.004 56.5254 190.801M37.5012 190.549C36.9922 190.454 36.4916 190.352 35.9993 190.242C31.2436 189.184 27.2623 187.435 23.984 185.128C19.4493 181.937 16.2597 177.68 14.2258 172.706C9.94829 162.247 10.7838 148.622 14.9726 135.106C19.7252 119.771 17.1961 81.8045 13.295 47.7519M37.5012 190.549V198.776C35.3318 201.115 32.2946 206.797 37.5012 210.808M37.5012 210.808H56.5254M37.5012 210.808C37.0545 213.044 37.2057 216.104 40.505 217.884M56.5254 210.808C59.3624 209.255 63.3341 204.675 56.5254 198.776V190.801M56.5254 210.808C57.4364 212.746 57.8034 216.007 54.7636 217.884M56.5254 190.801C59.4682 190.386 62.1308 189.763 64.5356 188.961C68.3128 187.701 71.4543 186 74.0477 183.976C78.0541 180.848 80.7526 176.948 82.4662 172.706C85.5294 165.124 85.4457 156.45 84.0604 149.144C81.4584 135.421 76.697 103.76 83.3784 43.0019M40.505 217.884C42.1361 218.763 44.5366 219.33 48.0146 219.33C51.1951 219.33 53.3485 218.757 54.7636 217.884M40.505 217.884C41.6732 233.239 42.1071 266.055 34.4974 274.477C22.9828 288.013 6.68917 286.509 3.95857 289.517C-1.04758 295.032 3.70402 297.538 8.96493 296.536H91.0683C92.7371 295.366 94.8732 292.324 90.067 289.517C84.0594 286.008 59.0296 284.002 56.5254 262.946C54.522 246.101 54.5162 225.886 54.7636 217.884M13.295 47.7519C11.2786 30.1512 8.89575 13.596 6.96239 1.75195H89.0668C86.6085 16.7959 84.7517 30.5136 83.3784 43.0019M13.295 47.7519C23.5332 45.2519 37.5012 43.0019 48.0146 52.7519C55.7093 59.8879 72.9255 50.4186 83.3784 43.0019" stroke="#547629" stroke-width="2"/>
</svg>
