<svg width="125" height="397" viewBox="0 0 125 397" fill="none" xmlns="http://www.w3.org/2000/svg">
<path d="M19.2961 179.472C13.7111 197.493 12.5971 215.659 18.3005 229.605C21.0122 236.236 25.2651 241.913 31.3114 246.168C35.6825 249.243 40.9908 251.575 47.3318 252.986C47.9882 253.132 48.6557 253.269 49.3343 253.395C53.5644 254.181 58.2285 254.576 63.3521 254.533C65.0796 254.518 66.8593 254.454 68.6923 254.338C70.7859 254.205 72.7873 254.001 74.6999 253.732C78.6237 253.179 82.1737 252.347 85.3802 251.278C90.4164 249.598 94.6051 247.33 98.063 244.631C103.405 240.461 107.003 235.261 109.288 229.605C113.372 219.495 113.26 207.929 111.413 198.188C107.944 179.891 101.595 137.676 110.504 56.666C96.5667 66.5549 73.6117 79.1806 63.3521 69.666C49.3343 56.666 30.7102 59.666 17.0594 62.9993C22.2608 108.403 25.633 159.025 19.2961 179.472Z" fill="#547629"/>
<path d="M49.3343 253.395C53.5644 254.181 58.2285 254.576 63.3521 254.533C65.0796 254.518 66.8593 254.454 68.6923 254.338C70.7859 254.205 72.7873 254.001 74.6999 253.732M49.3343 253.395C48.6557 253.269 47.9882 253.132 47.3318 252.986C40.9908 251.575 35.6825 249.243 31.3114 246.168C25.2651 241.913 21.0122 236.236 18.3005 229.605C12.5971 215.659 13.7111 197.493 19.2961 179.472C25.633 159.025 22.2608 108.403 17.0594 62.9993M49.3343 253.395V264.364C46.4417 267.484 42.3922 275.059 49.3343 280.407M49.3343 280.407H74.6999M49.3343 280.407C48.7387 283.389 48.9403 287.469 53.3394 289.842M74.6999 280.407C78.4825 278.337 83.7781 272.229 74.6999 264.364V253.732M74.6999 280.407C75.9145 282.992 76.4039 287.34 72.3509 289.842M74.6999 253.732C78.6237 253.179 82.1737 252.347 85.3802 251.278C90.4164 249.598 94.6051 247.33 98.063 244.631C103.405 240.461 107.003 235.261 109.288 229.605C113.372 219.495 113.26 207.929 111.413 198.188C107.944 179.891 101.595 137.676 110.504 56.666M53.3394 289.842C55.5142 291.015 58.7148 291.771 63.3521 291.771C67.5929 291.771 70.4641 291.006 72.3509 289.842M53.3394 289.842C54.8969 310.315 55.4755 354.069 45.3292 365.299C29.9764 383.347 8.25157 381.342 4.61077 385.353C-2.06409 392.706 4.27137 396.048 11.2859 394.711H120.757C122.982 393.151 125.83 389.096 119.422 385.353C111.412 380.674 78.0389 378 74.6999 349.925C72.0287 327.465 72.0209 300.511 72.3509 289.842M17.0594 62.9993C14.3709 39.5317 11.1937 17.4581 8.61586 1.66602H118.088C114.811 21.7246 112.335 40.0148 110.504 56.666M17.0594 62.9993C30.7102 59.666 49.3343 56.666 63.3521 69.666C73.6117 79.1806 96.5667 66.5549 110.504 56.666" stroke="#547629" stroke-width="3"/>
</svg>
