<svg width="435" height="369" viewBox="0 0 435 369" fill="none" xmlns="http://www.w3.org/2000/svg">
<path d="M263.357 0C260.764 20.7786 250.625 66.5859 230.818 83.5866C230.111 86.8922 234.072 92.5119 255.576 88.5451C264.083 86.9759 269.047 86.9674 272.555 87.8237C280.13 89.6731 280.908 95.557 295.897 98.4621C314.289 98.4621 310.045 88.5451 321.363 88.5451C332.681 88.5451 334.096 98.4621 343.999 98.4621C353.902 98.4621 351.073 100.587 363.805 92.0869C373.126 85.8642 382.826 90.2706 390.686 93.0787C393.562 94.1066 396.192 94.9203 398.467 94.9203C406.955 94.9203 421.103 94.9203 434.543 81.4615C424.168 69.8916 403.701 37.4014 404.833 0H263.357Z" fill="#547629"/>
<path d="M278.92 368.348C277.593 354.674 277.689 341.56 279.604 328.679C274.189 327.735 262.934 329.104 261.237 342.138C259.539 355.172 263.805 362.681 266.15 364.806C270.637 366.925 275.128 368.017 278.92 368.348Z" fill="#547629"/>
<path d="M139.567 358.43C144.191 357.813 147.066 354.505 148.764 350.819C150.182 347.739 150.778 344.395 150.885 342.138C149.187 316.071 136.973 317.109 131.079 320.887C133.342 345.255 137.681 356.069 139.567 358.43Z" fill="#547629"/>
<path d="M33.4612 292.553C35.5833 294.442 42.5156 295.953 53.2678 286.886C65.7176 267.619 56.3208 260.913 50.0661 259.968C43.9165 272.106 38.0796 283.547 33.4612 292.553Z" fill="#547629"/>
<path d="M0.921875 221.717C1.15767 223.606 5.59056 227.242 21.4358 226.675C37.8469 215.342 34.754 205.897 31.1561 202.591L0.921875 221.717Z" fill="#547629"/>
<path d="M27.8022 162.203C28.4973 165.044 33.9232 169.874 50.0661 166.465C59.1503 161.229 74.9135 148.574 65.2932 139.839C51.687 148.046 37.4816 156.491 27.8022 162.203Z" fill="#547629"/>
<path d="M321.363 88.5451C310.045 88.5451 314.289 98.4621 295.897 98.4621C280.908 95.557 280.13 89.6731 272.555 87.8237C269.725 97.9812 253.738 117.305 212.428 113.338C171.117 109.371 134.851 108.851 121.883 109.088C119.053 108.851 113.395 108.379 104.199 115.463C95.003 122.546 83.1746 129.054 65.2932 139.839C74.9135 148.574 59.1503 161.229 50.0661 166.465C57.8443 168.775 81.7673 167.194 115.956 142.882C117.014 142.129 118.36 141.879 119.615 142.214C131.9 145.502 155.393 150.342 165.033 146.93L121.883 162.203L97.8325 170.715C95.2388 171.187 89.9099 173.548 89.344 179.215C88.7525 181.585 83.9646 191.819 77.2185 205.629C69.5925 221.24 59.4642 241.419 50.0661 259.968C56.3208 260.913 65.7176 267.619 53.2678 286.886C62.3176 288.048 86.3021 273.34 110.794 205.898C111.484 203.998 113.42 202.797 115.421 203.084L133.201 205.629C128.706 208.518 124.781 210.925 121.883 212.508C109.433 219.308 108.678 228.564 109.857 232.342L131.079 320.887C136.973 317.109 149.187 316.071 150.885 342.138C158.953 335.742 159.512 317.509 157.498 299.373C155.274 279.345 149.911 259.436 148.055 255.718C145.226 250.051 146.876 246.273 148.055 245.093C153.95 241.551 166.872 233.617 171.399 230.217C179.888 223.841 198.987 219.12 208.182 218.883C277.505 221.009 266.15 262.093 263.358 266.344C260.643 270.476 253.845 279.967 247.618 299.373C247.441 299.925 247.264 300.485 247.088 301.053C240.885 324.088 243.594 339.823 249.919 350.257C254.214 357.344 260.178 361.985 266.15 364.806C263.805 362.681 259.539 355.172 261.237 342.138C262.934 329.104 274.189 327.735 279.604 328.679C284.832 293.515 303.616 260.082 343.999 221.717C388.139 179.782 393.515 118.485 390.686 93.0787C382.826 90.2706 373.126 85.8642 363.805 92.0869C351.073 100.587 353.902 98.4621 343.999 98.4621C334.096 98.4621 332.681 88.5451 321.363 88.5451Z" fill="#3D3D3D"/>
<path d="M89.344 179.215C89.9099 173.548 95.2388 171.187 97.8325 170.715L121.883 162.203C114.809 159.365 101.369 157.256 95.003 162.203L31.1561 202.591C34.754 205.897 37.8469 215.342 21.4358 226.675C26.7923 229.645 45.4479 229.594 77.2185 205.629C83.9646 191.819 88.7525 181.585 89.344 179.215Z" fill="#3D3D3D"/>
</svg>
