<svg width="1060" height="196" viewBox="0 0 1060 196" fill="none" xmlns="http://www.w3.org/2000/svg">
<path d="M26.8198 133.321C56.2151 126.397 125.342 104.64 166.688 73.0039" stroke="#909090" stroke-width="2" stroke-linecap="round"/>
<path d="M161.533 94.048C156.599 106.127 131.106 101.353 123.563 99.1758C122.422 88.7867 128.095 71.14 134.795 72.4313C141.495 73.7225 137.542 84.8591 133.956 90.3209C142.146 85.3845 166.466 81.9694 161.533 94.048Z" fill="#3D3D3D"/>
<path d="M123.688 120.464C116.901 131.754 94.1683 118.81 86.9789 115.473C87.445 104.931 94.7323 87.3347 101.218 89.6575C107.703 91.9803 104.955 103.673 100.534 108.568C109.468 104.908 130.476 109.175 123.688 120.464Z" fill="#3D3D3D"/>
<path d="M82.1695 131.676C75.7696 141.957 58.0204 129.879 51.4596 126.709C52.0383 117.026 63.3588 103.157 69.2871 105.385C75.2155 107.612 70.6869 117.871 66.5531 122.308C75.3254 121.127 88.5693 121.396 82.1695 131.676Z" fill="#3D3D3D"/>
<path d="M184.532 68.5375C181.137 80.1613 165.944 80.4947 158.772 79.2084C159.215 70.3075 161.68 52.6428 167.989 53.1919C174.298 53.7409 170.303 64.6505 167.516 70.0366C174.603 64.6937 187.928 56.9137 184.532 68.5375Z" fill="#3D3D3D"/>
<path d="M874.421 133.321C903.817 126.397 972.944 104.64 1014.29 73.0039" stroke="#909090" stroke-width="2" stroke-linecap="round"/>
<path d="M1009.13 94.048C1004.2 106.127 978.707 101.353 971.164 99.1758C970.024 88.7867 975.696 71.14 982.397 72.4313C989.097 73.7225 985.143 84.8591 981.557 90.3209C989.747 85.3845 1014.07 81.9694 1009.13 94.048Z" fill="#3D3D3D"/>
<path d="M971.29 120.464C964.502 131.754 941.77 118.81 934.58 115.473C935.047 104.931 942.334 87.3347 948.819 89.6575C955.305 91.9803 952.557 103.673 948.136 108.568C957.069 104.908 978.077 109.175 971.29 120.464Z" fill="#3D3D3D"/>
<path d="M929.771 131.676C923.371 141.957 905.622 129.879 899.061 126.709C899.64 117.026 910.96 103.157 916.889 105.385C922.817 107.612 918.289 117.871 914.155 122.308C922.927 121.127 936.171 121.396 929.771 131.676Z" fill="#3D3D3D"/>
<path d="M1032.13 68.5375C1028.74 80.1613 1013.55 80.4947 1006.37 79.2084C1006.82 70.3075 1009.28 52.6428 1015.59 53.1919C1021.9 53.7409 1017.9 64.6505 1015.12 70.0366C1022.2 64.6937 1035.53 56.9137 1032.13 68.5375Z" fill="#547629"/>
<path d="M238.72 133.321C268.115 126.397 337.243 104.64 378.589 73.0039" stroke="#909090" stroke-width="2" stroke-linecap="round"/>
<path d="M373.433 94.048C368.499 106.127 343.006 101.353 335.463 99.1758C334.323 88.7867 339.995 71.14 346.695 72.4313C353.396 73.7225 349.442 84.8591 345.856 90.3209C354.046 85.3845 378.367 81.9694 373.433 94.048Z" fill="#3D3D3D"/>
<path d="M335.589 120.464C328.801 131.754 306.069 118.81 298.879 115.473C299.345 104.931 306.633 87.3347 313.118 89.6575C319.604 91.9803 316.856 103.673 312.435 108.568C321.368 104.908 342.376 109.175 335.589 120.464Z" fill="#3D3D3D"/>
<path d="M294.07 131.676C287.67 141.957 269.921 129.879 263.36 126.709C263.939 117.026 275.259 103.157 281.188 105.385C287.116 107.612 282.587 117.871 278.454 122.308C287.226 121.127 300.47 121.396 294.07 131.676Z" fill="#547629"/>
<path d="M396.433 68.5375C393.037 80.1613 377.844 80.4947 370.672 79.2084C371.116 70.3075 373.58 52.6428 379.889 53.1919C386.199 53.7409 382.203 64.6505 379.417 70.0366C386.503 64.6937 399.828 56.9137 396.433 68.5375Z" fill="#3D3D3D"/>
<path d="M450.621 133.321C480.016 126.397 549.143 104.64 590.489 73.0039" stroke="#909090" stroke-width="2" stroke-linecap="round"/>
<path d="M585.333 94.048C580.4 106.127 554.906 101.353 547.364 99.1758C546.223 88.7867 551.896 71.14 558.596 72.4313C565.296 73.7225 561.343 84.8591 557.756 90.3209C565.946 85.3845 590.267 81.9694 585.333 94.048Z" fill="#3D3D3D"/>
<path d="M547.489 120.464C540.702 131.754 517.969 118.81 510.78 115.473C511.246 104.931 518.533 87.3347 525.019 89.6575C531.504 91.9803 528.756 103.673 524.335 108.568C533.268 104.908 554.276 109.175 547.489 120.464Z" fill="#547629"/>
<path d="M505.97 131.676C499.57 141.957 481.821 129.879 475.26 126.709C475.839 117.026 487.16 103.157 493.088 105.385C499.016 107.612 494.488 117.871 490.354 122.308C499.126 121.127 512.37 121.396 505.97 131.676Z" fill="#3D3D3D"/>
<path d="M608.333 68.5375C604.938 80.1613 589.745 80.4947 582.573 79.2084C583.016 70.3075 585.481 52.6428 591.79 53.1919C598.099 53.7409 594.103 64.6505 591.317 70.0366C598.404 64.6937 611.728 56.9137 608.333 68.5375Z" fill="#3D3D3D"/>
<path d="M662.521 133.321C691.916 126.397 761.043 104.64 802.39 73.0039" stroke="#909090" stroke-width="2" stroke-linecap="round"/>
<path d="M797.234 94.048C792.3 106.127 766.807 101.353 759.264 99.1758C758.123 88.7867 763.796 71.14 770.496 72.4313C777.196 73.7225 773.243 84.8591 769.657 90.3209C777.847 85.3845 802.168 81.9694 797.234 94.048Z" fill="#547629"/>
<path d="M759.389 120.464C752.602 131.754 729.869 118.81 722.68 115.473C723.146 104.931 730.434 87.3347 736.919 89.6575C743.405 91.9803 740.657 103.673 736.235 108.568C745.169 104.908 766.177 109.175 759.389 120.464Z" fill="#3D3D3D"/>
<path d="M717.871 131.676C711.471 141.957 693.722 129.879 687.161 126.709C687.739 117.026 699.06 103.157 704.988 105.385C710.917 107.612 706.388 117.871 702.254 122.308C711.027 121.127 724.27 121.396 717.871 131.676Z" fill="#3D3D3D"/>
<path d="M820.233 68.5375C816.838 80.1613 801.645 80.4947 794.473 79.2084C794.917 70.3075 797.381 52.6428 803.69 53.1919C809.999 53.7409 806.004 64.6505 803.217 70.0366C810.304 64.6937 823.629 56.9137 820.233 68.5375Z" fill="#3D3D3D"/>
</svg>
