<svg width="283" height="261" viewBox="0 0 283 261" fill="none" xmlns="http://www.w3.org/2000/svg">
<path d="M36.1946 178.211C75.3883 168.979 167.558 139.97 222.686 97.789" stroke="#909090" stroke-width="3" stroke-linecap="round"/>
<path d="M215.812 125.844C209.234 141.949 175.243 135.584 165.186 132.681C163.665 118.829 171.229 95.2999 180.162 97.0216C189.096 98.7433 183.825 113.592 179.043 120.874C189.963 114.293 222.391 109.739 215.812 125.844Z" fill="#3D3D3D"/>
<path d="M165.353 161.066C156.303 176.118 125.993 158.86 116.407 154.411C117.029 140.355 126.745 116.893 135.393 119.99C144.04 123.087 140.376 138.677 134.481 145.204C146.392 140.324 174.403 146.013 165.353 161.066Z" fill="#3D3D3D"/>
<path d="M109.994 176.019C101.461 189.726 77.7954 173.623 69.0477 169.396C69.8193 156.485 84.9133 137.994 92.8177 140.964C100.722 143.934 94.6842 157.612 89.1724 163.528C100.869 161.953 118.527 162.312 109.994 176.019Z" fill="#3D3D3D"/>
<path d="M246.479 91.8325C241.952 107.331 221.695 107.775 212.132 106.06C212.723 94.1925 216.009 70.6397 224.421 71.3717C232.834 72.1037 227.506 86.6499 223.791 93.8314C233.24 86.7074 251.006 76.3341 246.479 91.8325Z" fill="#3D3D3D"/>
</svg>
