<svg width="213" height="196" viewBox="0 0 213 196" fill="none" xmlns="http://www.w3.org/2000/svg">
<path d="M27.1479 133.655C56.5432 126.731 125.67 104.974 167.017 73.3379" stroke="#909090" stroke-width="2" stroke-linecap="round"/>
<path d="M161.861 94.382C156.927 106.461 131.434 101.687 123.891 99.5098C122.75 89.1206 128.423 71.474 135.123 72.7652C141.823 74.0565 137.87 85.1931 134.284 90.6549C142.474 85.7185 166.795 82.3034 161.861 94.382Z" fill="#3D3D3D"/>
<path d="M124.016 120.798C117.229 132.088 94.4964 119.144 87.3071 115.807C87.7731 105.265 95.0605 87.6687 101.546 89.9915C108.032 92.3143 105.284 104.007 100.862 108.902C109.796 105.242 130.804 109.509 124.016 120.798Z" fill="#3D3D3D"/>
<path d="M82.4976 132.01C76.0977 142.291 58.3485 130.213 51.7877 127.043C52.3664 117.36 63.6869 103.491 69.6153 105.719C75.5436 107.946 71.0151 118.205 66.8813 122.642C75.6535 121.461 88.8974 121.73 82.4976 132.01Z" fill="#3D3D3D"/>
<path d="M184.86 68.8715C181.465 80.4953 166.272 80.8287 159.1 79.5424C159.543 70.6414 162.008 52.9768 168.317 53.5259C174.626 54.0749 170.631 64.9845 167.844 70.3706C174.931 65.0276 188.256 57.2476 184.86 68.8715Z" fill="#3D3D3D"/>
</svg>
