<svg width="392" height="290" viewBox="0 0 392 290" fill="none" xmlns="http://www.w3.org/2000/svg">
<path fill-rule="evenodd" clip-rule="evenodd" d="M387.94 79.5399V18.765C388.228 12.8433 385.692 1 373.242 1H195.998H18.7544C6.3041 1 3.76792 12.8433 4.05612 18.765V79.5399C4.05612 90.6596 6.25231 97.785 9.28788 101.98C6.39112 103.227 2.32681 106.655 2.32681 114.135C2.32681 120.68 8.091 123.796 10.1085 124.42C5.19425 159.638 -1.99619 238.49 2.32681 270.28C4.4883 286.175 10.9732 289.291 14.4318 288.98H195.998H377.564C381.023 289.291 387.508 286.175 389.669 270.28C393.992 238.49 386.802 159.638 381.888 124.42C383.905 123.796 389.669 120.68 389.669 114.135C389.669 106.655 385.605 103.227 382.708 101.98C385.744 97.785 387.94 90.6596 387.94 79.5399ZM338.657 89.8232C331.741 70.3739 240.669 67.3838 195.998 68.3199C151.327 67.3838 60.2555 70.3739 53.3387 89.8232C60.5437 91.0704 70.6307 97.6788 53.3387 114.135C41.8106 123.796 18.7544 154.901 18.7544 202.025C18.7544 216.475 20.8357 225.58 23.7219 231.01C22.3543 223.53 31.7236 207.635 47.2864 215.115C51.6094 218.231 58.3534 227.457 50.7448 239.425H195.998H341.251C333.643 227.457 340.387 218.231 344.71 215.115C360.273 207.635 369.642 223.53 368.274 231.01C371.16 225.58 373.242 216.475 373.242 202.025C373.242 154.901 350.186 123.796 338.657 114.135C321.365 97.6788 331.452 91.0704 338.657 89.8232Z" fill="#3D3D3D"/>
<path d="M373.242 89.8232C369.495 88.5765 362.694 89.0752 365.46 101.043C367.744 107.217 376.81 110.13 382.708 101.98M387.94 79.5399C387.94 53.3599 387.94 28.115 387.94 18.765M387.94 79.5399C387.94 90.6596 385.744 97.785 382.708 101.98M387.94 79.5399V18.765M387.94 18.765C388.228 12.8433 385.692 1 373.242 1M373.242 1C360.791 1 249.892 1 195.998 1M373.242 1H195.998M195.998 1C142.104 1 31.2047 1 18.7544 1M195.998 1H18.7544M382.708 101.98C385.605 103.227 389.669 106.655 389.669 114.135C389.669 120.68 383.905 123.796 381.888 124.42C386.802 159.638 393.992 238.49 389.669 270.28C387.508 286.175 381.023 289.291 377.564 288.98H195.998H14.4318C10.9732 289.291 4.4883 286.175 2.32681 270.28C-1.99619 238.49 5.19425 159.638 10.1085 124.42C8.091 123.796 2.32681 120.68 2.32681 114.135C2.32681 106.655 6.39112 103.227 9.28788 101.98M355.95 225.4C342.899 229.633 359.395 247.713 368.274 231.01M368.274 231.01C371.16 225.58 373.242 216.475 373.242 202.025C373.242 154.901 350.186 123.796 338.657 114.135C321.365 97.6788 331.452 91.0704 338.657 89.8232C331.741 70.3739 240.669 67.3838 195.998 68.3199C151.327 67.3838 60.2555 70.3739 53.3387 89.8232C60.5437 91.0704 70.6307 97.6788 53.3387 114.135C41.8106 123.796 18.7544 154.901 18.7544 202.025C18.7544 216.475 20.8357 225.58 23.7219 231.01M368.274 231.01C369.642 223.53 360.273 207.635 344.71 215.115C340.387 218.231 333.643 227.457 341.251 239.425H195.998H50.7448C58.3534 227.457 51.6094 218.231 47.2864 215.115C31.7236 207.635 22.3543 223.53 23.7219 231.01M18.7544 89.8232C22.501 88.5765 29.3026 89.0752 26.5358 101.043C24.2526 107.217 15.1859 110.13 9.28788 101.98M4.05612 79.5399C4.05612 53.3599 4.05612 28.115 4.05612 18.765M4.05612 79.5399C4.05612 90.6596 6.25231 97.785 9.28788 101.98M4.05612 79.5399V18.765M4.05612 18.765C3.76792 12.8433 6.3041 1 18.7544 1M36.0466 225.4C49.0967 229.633 32.6008 247.713 23.7219 231.01" stroke="#DFDFDF" stroke-width="2"/>
</svg>
