<svg width="524" height="388" viewBox="0 0 524 388" fill="none" xmlns="http://www.w3.org/2000/svg">
<path fill-rule="evenodd" clip-rule="evenodd" d="M517.923 106.72V25.6866C518.307 17.7911 514.925 2 498.325 2H262H25.6751C9.07477 2 5.69318 17.7911 6.07745 25.6866V106.72C6.07745 121.546 9.00568 131.047 13.0531 136.64C9.1908 138.302 3.77167 142.873 3.77167 152.846C3.77167 161.573 11.4573 165.729 14.1472 166.56C7.59497 213.517 -1.99231 318.653 3.77167 361.039C6.65369 382.233 15.3003 386.388 19.9117 385.973H262H504.088C508.7 386.388 517.346 382.233 520.228 361.039C525.992 318.653 516.405 213.517 509.853 166.56C512.543 165.729 520.228 161.573 520.228 152.846C520.228 142.873 514.809 138.302 510.947 136.64C514.994 131.047 517.923 121.546 517.923 106.72ZM452.213 120.431C442.99 94.4986 321.561 90.5117 262 91.7599C202.439 90.5117 81.0099 94.4986 71.7875 120.431C81.3942 122.094 94.8436 130.905 71.7875 152.846C56.4167 165.729 25.6751 207.201 25.6751 270.033C25.6751 289.3 28.4502 301.44 32.2985 308.68C30.475 298.706 42.9673 277.513 63.7179 287.486C69.4819 291.642 78.4738 303.942 68.3291 319.9H262H455.671C445.526 303.942 454.518 291.642 460.282 287.486C481.033 277.513 493.525 298.706 491.702 308.68C495.55 301.44 498.325 289.3 498.325 270.033C498.325 207.201 467.583 165.729 452.213 152.846C429.156 130.905 442.606 122.094 452.213 120.431Z" fill="#3D3D3D"/>
<path d="M498.325 120.431C493.329 118.769 484.261 119.434 487.95 135.391C490.994 143.623 503.083 147.507 510.947 136.64M517.923 106.72C517.923 71.8132 517.923 38.1533 517.923 25.6866M517.923 106.72C517.923 121.546 514.994 131.047 510.947 136.64M517.923 106.72V25.6866M517.923 25.6866C518.307 17.7911 514.925 2 498.325 2M498.325 2C481.725 2 333.858 2 262 2M498.325 2H262M262 2C190.142 2 42.2755 2 25.6751 2M262 2H25.6751M510.947 136.64C514.809 138.302 520.228 142.873 520.228 152.846C520.228 161.573 512.543 165.729 509.853 166.56C516.405 213.517 525.992 318.653 520.228 361.039C517.346 382.233 508.7 386.388 504.088 385.973H262H19.9117C15.3003 386.388 6.65369 382.233 3.7717 361.039C-1.9923 318.653 7.59495 213.517 14.1472 166.56C11.4573 165.729 3.7717 161.573 3.7717 152.846C3.7717 142.873 9.19078 138.302 13.0531 136.64M475.269 301.2C457.868 306.845 479.863 330.95 491.702 308.68M491.702 308.68C495.55 301.44 498.325 289.3 498.325 270.033C498.325 207.201 467.583 165.729 452.213 152.846C429.156 130.905 442.606 122.094 452.213 120.431C442.99 94.4986 321.562 90.5117 262 91.7599C202.439 90.5117 81.0099 94.4986 71.7875 120.431C81.3942 122.094 94.8436 130.905 71.7875 152.846C56.4167 165.729 25.6751 207.201 25.6751 270.033C25.6751 289.3 28.4502 301.44 32.2985 308.68M491.702 308.68C493.525 298.706 481.033 277.513 460.282 287.486C454.518 291.642 445.526 303.942 455.671 319.9H262H68.3291C78.4738 303.942 69.4819 291.642 63.7179 287.486C42.9674 277.513 30.475 298.706 32.2985 308.68M25.6751 120.431C30.6706 118.769 39.7394 119.434 36.0504 135.391C33.006 143.623 20.9171 147.507 13.0531 136.64M6.07745 106.72C6.07745 71.8132 6.07745 38.1533 6.07745 25.6866M6.07745 106.72C6.07745 121.546 9.00569 131.047 13.0531 136.64M6.07745 106.72V25.6866M6.07745 25.6866C5.69318 17.7911 9.07476 2 25.6751 2M48.7314 301.2C66.1315 306.845 44.137 330.95 32.2985 308.68" stroke="#DFDFDF" stroke-width="3"/>
</svg>
