<svg width="195" height="215" viewBox="0 0 195 215" fill="none" xmlns="http://www.w3.org/2000/svg">
<path d="M90.4712 155.612C86.4154 163.642 76.9062 175.893 71.3153 160.662C65.7243 145.431 81.7563 150.949 90.4712 155.612Z" fill="#3D3D3D"/>
<path d="M98.2272 155.144L90.4712 155.612M90.4712 155.612C86.4154 163.642 76.9062 175.893 71.3153 160.662C65.7243 145.431 81.7563 150.949 90.4712 155.612Z" stroke="#3D3D3D" stroke-width="2"/>
<path d="M62.7376 147.555C60.6814 145.733 46.5224 136.858 43.4645 150.666C40.4066 164.473 63.2062 155.311 62.7376 147.555Z" fill="#3D3D3D"/>
<path d="M105.279 143.039C91.7838 145.152 64.3825 149.013 62.7376 147.555M62.7376 147.555C60.6814 145.733 46.5224 136.858 43.4645 150.666C40.4066 164.473 63.2062 155.311 62.7376 147.555Z" stroke="#3D3D3D" stroke-width="2"/>
<path d="M46.4172 70.7001C40.7173 72.9906 33.8985 88.9714 25.088 71.9888C18.0395 58.4028 36.3706 65.4688 46.4172 70.7001Z" fill="#3D3D3D"/>
<path d="M57.2303 56.4241C53.2351 54.7194 40.5284 45.7566 41.7181 57.3613C42.6698 66.6451 52.4561 60.6047 57.2303 56.4241Z" fill="#3D3D3D"/>
<path d="M83.2586 68.474C72.8781 68.4526 50.9771 68.8677 46.4172 70.7001M46.4172 70.7001C40.7173 72.9906 33.8985 88.9714 25.088 71.9888C18.0395 58.4028 36.3706 65.4688 46.4172 70.7001ZM74.6815 55.3696C70.1961 56.2893 60.4264 57.7878 57.2303 56.4241M57.2303 56.4241C53.2351 54.7194 40.5284 45.7566 41.7181 57.3613C42.6698 66.6451 52.4561 60.6047 57.2303 56.4241Z" stroke="#3D3D3D" stroke-width="2"/>
<path d="M45.2781 13.5189C76.4477 -11.7176 150.272 44.1509 183.288 75.2397C166.944 126.826 128.135 225.308 103.648 206.548C73.0395 183.098 100.133 148.378 108.657 128.402C117.18 108.426 1.71195 162.109 6.65619 115.104C11.6004 68.0985 110.777 99.082 71.5925 62.5276C40.2448 33.2841 40.988 17.6704 45.2781 13.5189Z" fill="#547629"/>
<path d="M186.734 73.8989L163.454 139.527C152.784 143.285 150.939 136.391 151.35 132.474C152.369 127.871 152.104 119.195 142.891 121.308C133.677 123.422 133.413 114.745 134.433 110.143C136.215 107.44 137.794 101.377 129.851 98.7429C121.909 96.1091 123.332 87.4603 125.036 83.4651C126.858 81.4089 129.221 75.4278 124.099 67.9529C118.976 60.478 124.081 56.9261 127.274 56.0845C130.467 55.2428 135.572 51.6909 130.449 44.216C125.327 36.7411 131.725 33.111 135.564 32.2304L186.734 73.8989Z" fill="#909090"/>
</svg>
