<svg width="260" height="287" viewBox="0 0 260 287" fill="none" xmlns="http://www.w3.org/2000/svg">
<path d="M120.628 207.483C115.22 218.188 102.541 234.523 95.0864 214.215C87.6318 193.907 109.008 201.265 120.628 207.483Z" fill="#3D3D3D"/>
<path d="M130.969 206.858L120.628 207.483M120.628 207.483C115.22 218.188 102.541 234.523 95.0864 214.215C87.6318 193.907 109.008 201.265 120.628 207.483Z" stroke="#3D3D3D" stroke-width="3"/>
<path d="M83.652 196.739C80.9105 194.31 62.0319 182.477 57.9546 200.887C53.8774 219.297 84.2769 207.08 83.652 196.739Z" fill="#3D3D3D"/>
<path d="M140.374 190.717C122.38 193.534 85.8453 198.682 83.652 196.739M83.652 196.739C80.9105 194.31 62.0319 182.477 57.9546 200.887C53.8774 219.297 84.2769 207.08 83.652 196.739Z" stroke="#3D3D3D" stroke-width="3"/>
<path d="M61.8902 94.2674C54.2904 97.3214 45.1986 118.629 33.4513 95.9858C24.0534 77.8711 48.4948 87.2924 61.8902 94.2674Z" fill="#3D3D3D"/>
<path d="M76.3077 75.2327C70.9807 72.9598 54.0386 61.0095 55.6248 76.4824C56.8937 88.8608 69.9421 80.807 76.3077 75.2327Z" fill="#3D3D3D"/>
<path d="M111.012 91.2994C97.1714 91.2707 67.9701 91.8242 61.8902 94.2674M61.8902 94.2674C54.2904 97.3214 45.1986 118.629 33.4513 95.9858C24.0534 77.8711 48.4948 87.2924 61.8902 94.2674ZM99.5759 73.8268C93.5955 75.0531 80.5692 77.0511 76.3077 75.2327M76.3077 75.2327C70.9807 72.9598 54.0386 61.0095 55.6248 76.4824C56.8937 88.8608 69.9421 80.807 76.3077 75.2327Z" stroke="#3D3D3D" stroke-width="3"/>
<path d="M60.3714 18.0246C101.931 -15.6241 200.364 58.8672 244.385 100.319C222.593 169.1 170.847 300.41 138.198 275.397C97.3866 244.131 133.512 197.836 144.876 171.201C156.241 144.567 2.28325 216.144 8.87558 153.471C15.4679 90.7974 147.703 132.109 95.4573 83.3695C53.6604 44.3781 54.6513 23.5598 60.3714 18.0246Z" fill="#547629"/>
<path d="M248.979 98.5312L217.939 186.035C203.712 191.046 201.252 181.854 201.8 176.631C203.159 170.494 202.806 158.926 190.521 161.744C178.237 164.562 177.885 152.993 179.245 146.856C181.621 143.253 183.726 135.168 173.136 131.657C162.545 128.145 164.443 116.613 166.715 111.286C169.145 108.545 172.295 100.57 165.466 90.6032C158.636 80.6367 165.442 75.9008 169.699 74.7786C173.956 73.6565 180.763 68.9205 173.933 58.954C167.104 48.9875 175.633 44.1474 180.752 42.9732L248.979 98.5312Z" fill="#909090"/>
</svg>
