<svg width="142" height="155" viewBox="0 0 142 155" fill="none" xmlns="http://www.w3.org/2000/svg">
<path d="M37.066 40.3345C33.478 36.8485 27.8489 28.9178 34.0367 25.0827" stroke="#3D3D3D" stroke-width="3"/>
<path d="M51.7641 31.2258C50.1406 26.879 45.4056 18.8938 39.4531 21.7266" stroke="#3D3D3D" stroke-width="3"/>
<path d="M38.1937 74.9665C35.6517 75.4714 30.0143 74.8972 27.8003 68.5612" stroke="#3D3D3D" stroke-width="3"/>
<path d="M39.8801 62.1448C35.8275 62.5154 27.5216 60.1692 26.7192 47.8195" stroke="#3D3D3D" stroke-width="3"/>
<path d="M83.9334 43.4027C84.6814 41.1548 85.2926 35.9226 81.754 32.977" stroke="#3D3D3D" stroke-width="3"/>
<path d="M72.9549 39.5045C75.6056 35.7205 77.5538 27.233 64.1407 23.5558" stroke="#3D3D3D" stroke-width="3"/>
<path d="M58.9928 34.239C60.9466 36.2398 62.902 41.2373 55.0931 45.2206C49.9729 47.3234 55.343 30.0776 58.9928 34.239Z" fill="#909090"/>
<path d="M79.3768 51.5817C77.6445 50.5141 76.8711 50.9935 76.0976 51.4729C73.3872 54.0092 78.1436 59.1604 80.412 58.4341C83.9853 57.2901 81.7008 53.014 79.3768 51.5817Z" fill="#3D3D3D"/>
<path d="M89.5084 50.6552C87.7761 49.5876 87.0027 50.067 86.2292 50.5464C83.5188 53.0827 90.3015 58.0486 92.57 57.3223C96.1433 56.1783 91.8324 52.0875 89.5084 50.6552Z" fill="#3D3D3D"/>
<path d="M75.6505 42.1147C73.6695 41.6498 73.1448 41.5266 72.3713 42.006C69.6609 44.5423 76.7377 48.2553 79.0062 47.529C82.5794 46.385 78.1562 42.7029 75.6505 42.1147Z" fill="#3D3D3D"/>
<path d="M102.299 60.9279C100.318 60.4629 100.272 61.1132 99.4989 61.5925C96.7886 64.1289 102.798 69.5742 105.066 68.8479C108.64 67.7038 104.804 61.516 102.299 60.9279Z" fill="#3D3D3D"/>
<path d="M86.3822 61.1574C84.4013 60.6924 84.3559 61.3427 83.5824 61.8221C80.8721 64.3584 86.8813 69.8037 89.1497 69.0774C92.723 67.9333 88.8879 61.7456 86.3822 61.1574Z" fill="#3D3D3D"/>
<path d="M82.0032 71.3655C80.0223 70.9005 79.9769 71.5508 79.2034 72.0302C76.4931 74.5665 84.4198 83.1057 86.6883 82.3794C90.2616 81.2353 84.5089 71.9537 82.0032 71.3655Z" fill="#3D3D3D"/>
<path d="M97.1463 71.6154C95.1653 71.1504 95.1199 71.8007 94.3465 72.2801C91.6361 74.8164 98.2581 83.7733 101.831 82.6293C105.405 81.4852 99.652 72.2035 97.1463 71.6154Z" fill="#3D3D3D"/>
<path d="M111.81 71.0918C109.829 70.6268 109.784 71.2771 109.01 71.7564C106.3 74.2928 113.989 81.5175 116.31 80.0793C121.014 77.1633 114.316 71.6799 111.81 71.0918Z" fill="#3D3D3D"/>
<path d="M93.6172 86.6496C91.6363 86.1846 90.9445 86.951 90.044 87.7937C87.3336 90.33 96.3279 97.137 98.5964 96.4106C102.17 95.2666 96.123 87.2378 93.6172 86.6496Z" fill="#3D3D3D"/>
<path d="M114.436 90.8756C112.455 90.4106 110.863 92.0197 110.863 92.0197C106.702 95.6695 117.147 101.363 119.416 100.637C122.989 99.4926 116.942 91.4638 114.436 90.8756Z" fill="#3D3D3D"/>
<path d="M106.593 98.9486C104.612 98.4836 103.793 99.6133 103.793 99.6133C99.6317 103.263 108.16 105.863 110.428 105.136C114.001 103.992 109.099 99.5368 106.593 98.9486Z" fill="#3D3D3D"/>
<path d="M106.069 84.285C104.088 83.82 102.496 85.429 102.496 85.429C98.3346 89.0788 105.13 90.6109 107.399 89.8846C110.972 88.7405 108.575 84.8731 106.069 84.285Z" fill="#3D3D3D"/>
<path d="M121.8 82.0291C119.819 81.5642 118.227 83.1732 118.227 83.1732C114.066 86.823 120.861 88.355 123.13 87.6287C126.703 86.4846 124.306 82.6173 121.8 82.0291Z" fill="#3D3D3D"/>
<path d="M127.074 90.5373C123.601 89.7221 123.686 93.7077 123.686 93.7077C123.577 96.9869 126.32 98.8895 128.588 98.1632C132.162 97.0191 129.579 91.1255 127.074 90.5373Z" fill="#3D3D3D"/>
<path d="M116.801 103.328C113.328 102.512 113.413 106.498 113.413 106.498C113.304 109.777 119.326 111.789 121.595 111.062C125.168 109.918 119.307 103.916 116.801 103.328Z" fill="#3D3D3D"/>
<path d="M127.412 103.175C123.939 102.359 123.386 104.983 123.386 104.983C123.277 108.262 129.299 110.273 131.567 109.547C135.141 108.403 129.918 103.763 127.412 103.175Z" fill="#3D3D3D"/>
<path d="M41.7815 96.2943C41.5962 94.268 42.3697 93.7886 43.1432 93.3092C46.6206 92.0105 49.1174 98.5621 47.4576 100.27C44.8432 102.961 42.0301 99.0129 41.7815 96.2943Z" fill="#3D3D3D"/>
<path d="M48.1597 62.3651C47.9744 60.3387 48.7479 59.8594 49.5213 59.38C52.9987 58.0812 54.428 66.3651 52.7682 68.0734C50.1537 70.7645 48.4083 65.0837 48.1597 62.3651Z" fill="#3D3D3D"/>
<path d="M41.602 64.9754C42.067 62.9945 42.1902 62.4697 42.9637 61.9904C46.441 60.6916 46.6175 68.6814 44.9577 70.3897C42.3432 73.0807 41.0139 67.4812 41.602 64.9754Z" fill="#3D3D3D"/>
<path d="M54.3991 70.7531C54.8641 68.7722 55.4667 69.0209 56.2402 68.5415C59.7176 67.2427 61.9204 75.0472 60.2606 76.7556C57.6461 79.4466 53.811 73.2588 54.3991 70.7531Z" fill="#3D3D3D"/>
<path d="M46.4872 74.5862C46.9522 72.6053 47.5548 72.854 48.3282 72.3746C51.8056 71.0759 54.0084 78.8803 52.3486 80.5887C49.7341 83.2797 45.8991 77.0919 46.4872 74.5862Z" fill="#3D3D3D"/>
<path d="M49.6547 103.878C49.7525 101.846 52.4408 101.464 52.4408 101.464C55.9182 100.166 59.0935 111.266 57.4337 112.975C54.8192 115.666 49.4234 108.687 49.6547 103.878Z" fill="#3D3D3D"/>
<path d="M62.4314 112.402C62.8964 110.421 63.4989 110.669 64.2724 110.19C67.7498 108.891 73.3042 119.58 70.2103 121.498C67.1164 123.416 61.8432 114.907 62.4314 112.402Z" fill="#3D3D3D"/>
<path d="M71.2638 105.857C71.7288 103.876 72.3313 104.125 73.1048 103.645C76.5822 102.347 79.6309 112.448 77.3105 113.886C72.6056 116.802 70.6756 108.363 71.2638 105.857Z" fill="#3D3D3D"/>
<path d="M65.8752 90.9967C66.3402 89.0158 67.3344 88.7372 68.4897 88.3057C71.9671 87.0069 74.0611 98.0906 72.4013 99.799C69.7868 102.49 65.287 93.5024 65.8752 90.9967Z" fill="#3D3D3D"/>
<path d="M63.5391 133.127C64.0041 131.146 66.1536 130.436 66.1536 130.436C71.2738 128.333 71.725 140.221 70.0652 141.929C67.4507 144.62 62.951 135.632 63.5391 133.127Z" fill="#3D3D3D"/>
<path d="M57.8022 83.1532C58.2672 81.1723 59.6432 80.9416 59.6432 80.9416C64.7634 78.8388 63.2971 87.6326 61.6373 89.341C59.0228 92.032 57.214 85.6589 57.8022 83.1532Z" fill="#3D3D3D"/>
<path d="M58.1629 98.6052C58.6279 96.6243 60.7774 95.9142 60.7774 95.9142C65.8976 93.8114 64.246 100.579 62.5862 102.287C59.9717 104.978 57.5747 101.111 58.1629 98.6052Z" fill="#3D3D3D"/>
<path d="M56.226 126.57C56.691 124.589 58.8405 123.879 58.8405 123.879C63.9607 121.776 62.3091 128.544 60.6493 130.252C58.0348 132.943 55.6379 129.076 56.226 126.57Z" fill="#3D3D3D"/>
<path d="M73.6742 123.633C74.4894 120.16 78.0209 122.01 78.0209 122.01C81.006 123.372 81.4895 126.675 79.8297 128.383C77.2152 131.074 73.086 126.139 73.6742 123.633Z" fill="#3D3D3D"/>
<path d="M74.3072 135.018C75.1224 131.545 78.6539 133.394 78.6539 133.394C81.639 134.756 80.7609 141.044 79.1011 142.752C76.4866 145.443 73.719 137.523 74.3072 135.018Z" fill="#3D3D3D"/>
<path d="M48.1446 116.591C48.9598 113.118 51.5554 113.79 51.5554 113.79C54.5404 115.151 53.6623 121.439 52.0025 123.148C49.388 125.839 47.5564 119.097 48.1446 116.591Z" fill="#3D3D3D"/>
<path d="M71.5333 59.6547C72.4048 58.7577 73.0802 58.6959 74.8125 59.7635C77.1365 61.1958 79.9004 66.2453 76.3271 67.3894C74.0587 68.1157 68.8229 62.191 71.5333 59.6547Z" fill="#3D3D3D"/>
<path d="M64.1572 46.0263C65.0287 45.1293 66.4776 44.5882 68.2099 45.6557C70.5339 47.088 74.0713 51.6582 70.498 52.8023C68.2295 53.5286 61.4468 48.5627 64.1572 46.0263Z" fill="#3D3D3D"/>
<path d="M42.4197 78.3862C41.2286 78.7676 40.0993 79.8244 40.2846 81.8507C40.5332 84.5693 43.0521 89.7707 45.6666 87.0797C47.3264 85.3713 45.8971 77.0875 42.4197 78.3862Z" fill="#3D3D3D"/>
<path d="M49.7056 84.9596C48.5145 85.341 48.1586 85.9184 48.3439 87.9447C48.5925 90.6633 50.8174 97.1176 53.4319 94.4266C55.0917 92.7182 53.1829 83.6609 49.7056 84.9596Z" fill="#3D3D3D"/>
<path d="M37.3356 47.6618C38.2581 50.3018 41.8636 54.2765 48.9054 49.0557C53.0668 45.4059 35.2327 42.5416 37.3356 47.6618Z" fill="#909090"/>
<path fill-rule="evenodd" clip-rule="evenodd" d="M39.57 94.4534C39.625 105.482 45.5288 131.014 68.7037 144.914C84.0325 154.108 87.4334 139.22 82.6549 118.07C82.5152 117.452 82.3684 116.828 82.2148 116.199C81.4965 113.259 80.6273 110.212 79.6168 107.103C78.8649 104.79 78.0348 102.443 77.1304 100.08C76.0498 97.2565 74.8631 94.4113 73.5772 91.576C72.3271 88.8198 70.9832 86.0731 69.5516 83.3652C68.4165 81.2181 67.2262 79.0953 65.9839 77.0117C64.1045 73.8594 62.1059 70.7966 59.999 67.8741C58.1879 65.3618 56.2966 62.9532 54.3321 60.6805C53.9282 60.2132 53.5212 59.7517 53.1112 59.2962C52.2496 58.42 51.4351 57.6835 50.6653 57.0773C46.653 53.9175 43.8566 54.2955 41.9614 56.8528C37.3747 63.0419 38.066 81.9955 39.57 94.4534ZM40.2846 81.8507C40.0993 79.8244 41.2286 78.7676 42.4197 78.3862C45.8971 77.0875 47.3264 85.3713 45.6666 87.0797C43.0521 89.7707 40.5332 84.5693 40.2846 81.8507ZM48.3439 87.9447C48.1586 85.9184 48.5145 85.341 49.7056 84.9596C53.1829 83.6609 55.0917 92.7182 53.4319 94.4266C50.8174 97.1176 48.5925 90.6633 48.3439 87.9447ZM41.7815 96.2943C41.5962 94.268 42.3697 93.7886 43.1432 93.3092C46.6206 92.0105 49.1174 98.5621 47.4576 100.27C44.8432 102.961 42.0301 99.0129 41.7815 96.2943ZM48.1597 62.3651C47.9744 60.3387 48.7479 59.8594 49.5213 59.38C52.9987 58.0812 54.428 66.3651 52.7682 68.0734C50.1537 70.7645 48.4083 65.0837 48.1597 62.3651ZM41.602 64.9754C42.067 62.9945 42.1902 62.4697 42.9637 61.9904C46.441 60.6916 46.6175 68.6814 44.9577 70.3897C42.3432 73.0807 41.0139 67.4812 41.602 64.9754ZM54.3991 70.7531C54.8641 68.7722 55.4667 69.0209 56.2402 68.5415C59.7176 67.2427 61.9204 75.0472 60.2606 76.7556C57.6461 79.4466 53.811 73.2588 54.3991 70.7531ZM46.4872 74.5862C46.9522 72.6053 47.5548 72.854 48.3282 72.3746C51.8056 71.0759 54.0084 78.8803 52.3486 80.5887C49.7341 83.2797 45.8991 77.0919 46.4872 74.5862ZM49.6547 103.878C49.7525 101.846 52.4408 101.464 52.4408 101.464C55.9182 100.166 59.0935 111.266 57.4337 112.975C54.8192 115.666 49.4234 108.687 49.6547 103.878ZM62.4314 112.402C62.8964 110.421 63.4989 110.669 64.2724 110.19C67.7498 108.891 73.3042 119.58 70.2103 121.498C67.1164 123.416 61.8432 114.907 62.4314 112.402ZM71.2638 105.857C71.7288 103.876 72.3313 104.125 73.1048 103.645C76.5822 102.347 79.6309 112.448 77.3105 113.886C72.6056 116.802 70.6756 108.363 71.2638 105.857ZM65.8752 90.9967C66.3402 89.0158 67.3344 88.7372 68.4897 88.3057C71.9671 87.0069 74.0611 98.0906 72.4013 99.799C69.7868 102.49 65.287 93.5024 65.8752 90.9967ZM63.5391 133.127C64.0041 131.146 66.1536 130.436 66.1536 130.436C71.2738 128.333 71.725 140.221 70.0652 141.929C67.4507 144.62 62.951 135.632 63.5391 133.127ZM57.8022 83.1532C58.2672 81.1723 59.6432 80.9416 59.6432 80.9416C64.7634 78.8388 63.2971 87.6326 61.6373 89.341C59.0228 92.032 57.214 85.6589 57.8022 83.1532ZM58.1629 98.6052C58.6279 96.6243 60.7774 95.9142 60.7774 95.9142C65.8976 93.8114 64.246 100.579 62.5862 102.287C59.9717 104.978 57.5747 101.111 58.1629 98.6052ZM56.226 126.57C56.691 124.589 58.8405 123.879 58.8405 123.879C63.9607 121.776 62.3091 128.544 60.6493 130.252C58.0348 132.943 55.6379 129.076 56.226 126.57ZM73.6742 123.633C74.4894 120.16 78.0209 122.01 78.0209 122.01C81.006 123.372 81.4895 126.675 79.8297 128.383C77.2152 131.074 73.086 126.139 73.6742 123.633ZM74.3072 135.018C75.1224 131.545 78.6539 133.394 78.6539 133.394C81.639 134.756 80.7609 141.044 79.1011 142.752C76.4866 145.443 73.719 137.523 74.3072 135.018ZM48.1446 116.591C48.9598 113.118 51.5554 113.79 51.5554 113.79C54.5404 115.151 53.6623 121.439 52.0025 123.148C49.388 125.839 47.5564 119.097 48.1446 116.591Z" fill="#547629"/>
<path fill-rule="evenodd" clip-rule="evenodd" d="M131.619 113.417C149.703 101.138 95.7294 38.237 67.1756 38.8049C66.482 38.8943 65.8557 39.0345 65.2912 39.2192C59.9336 40.9719 60.1494 46.7262 61.4359 50.9976C61.719 51.9375 62.054 52.8057 62.3928 53.5436C62.6396 54.0874 62.8961 54.6425 63.1618 55.2079C64.3536 57.7436 65.7337 60.4883 67.2828 63.3596C68.9243 66.4021 70.7558 69.5868 72.7545 72.8154C74.0098 74.8433 75.3311 76.8885 76.7127 78.9268C78.4024 81.4196 80.1824 83.9019 82.0424 86.3295C83.9078 88.7643 85.8538 91.1439 87.8699 93.4235C89.5281 95.2984 91.2337 97.1057 92.9809 98.8204C95.2969 101.093 97.686 103.203 100.135 105.092C100.655 105.493 101.177 105.884 101.702 106.265C111.099 113.076 121.316 116.521 131.619 113.417ZM68.2099 45.6557C66.4776 44.5882 65.0287 45.1293 64.1572 46.0263C61.4468 48.5627 68.2295 53.5286 70.498 52.8023C74.0713 51.6582 70.5339 47.088 68.2099 45.6557ZM74.8125 59.7635C73.0802 58.6959 72.4048 58.7577 71.5333 59.6547C68.8229 62.191 74.0587 68.1157 76.3271 67.3894C79.9004 66.2453 77.1365 61.1958 74.8125 59.7635ZM79.3768 51.5817C77.6445 50.5141 76.8711 50.9935 76.0976 51.4729C73.3872 54.0092 78.1436 59.1604 80.412 58.4341C83.9853 57.2901 81.7008 53.014 79.3768 51.5817ZM89.5084 50.6552C87.7761 49.5876 87.0027 50.067 86.2292 50.5464C83.5188 53.0827 90.3015 58.0486 92.57 57.3223C96.1433 56.1783 91.8324 52.0875 89.5084 50.6552ZM75.6505 42.1147C73.6695 41.6498 73.1448 41.5266 72.3713 42.006C69.6609 44.5423 76.7377 48.2553 79.0062 47.529C82.5794 46.385 78.1562 42.7029 75.6505 42.1147ZM102.299 60.9279C100.318 60.4629 100.272 61.1132 99.4989 61.5925C96.7886 64.1289 102.798 69.5742 105.066 68.8479C108.64 67.7038 104.804 61.516 102.299 60.9279ZM86.3822 61.1574C84.4013 60.6924 84.3559 61.3427 83.5824 61.8221C80.8721 64.3584 86.8813 69.8037 89.1497 69.0774C92.723 67.9333 88.8879 61.7456 86.3822 61.1574ZM82.0032 71.3655C80.0223 70.9005 79.9769 71.5508 79.2034 72.0302C76.4931 74.5665 84.4198 83.1057 86.6883 82.3794C90.2616 81.2353 84.5089 71.9537 82.0032 71.3655ZM97.1463 71.6154C95.1653 71.1504 95.1199 71.8007 94.3465 72.2801C91.6361 74.8164 98.2581 83.7733 101.831 82.6293C105.405 81.4852 99.652 72.2035 97.1463 71.6154ZM111.81 71.0918C109.829 70.6268 109.784 71.2771 109.01 71.7564C106.3 74.2928 113.989 81.5175 116.31 80.0793C121.014 77.1633 114.316 71.6799 111.81 71.0918ZM93.6172 86.6496C91.6363 86.1846 90.9445 86.951 90.044 87.7937C87.3336 90.33 96.3279 97.137 98.5964 96.4106C102.17 95.2666 96.123 87.2378 93.6172 86.6496ZM114.436 90.8756C112.455 90.4106 110.863 92.0197 110.863 92.0197C106.702 95.6695 117.147 101.363 119.416 100.637C122.989 99.4926 116.942 91.4638 114.436 90.8756ZM106.593 98.9486C104.612 98.4836 103.793 99.6133 103.793 99.6133C99.6317 103.263 108.16 105.863 110.428 105.136C114.001 103.992 109.099 99.5368 106.593 98.9486ZM106.069 84.285C104.088 83.82 102.496 85.429 102.496 85.429C98.3346 89.0788 105.13 90.6109 107.399 89.8846C110.972 88.7405 108.575 84.8731 106.069 84.285ZM121.8 82.0291C119.819 81.5642 118.227 83.1732 118.227 83.1732C114.066 86.823 120.861 88.355 123.13 87.6287C126.703 86.4846 124.306 82.6173 121.8 82.0291ZM127.074 90.5373C123.601 89.7221 123.686 93.7077 123.686 93.7077C123.577 96.9869 126.32 98.8895 128.588 98.1632C132.162 97.0191 129.579 91.1255 127.074 90.5373ZM116.801 103.328C113.328 102.512 113.413 106.498 113.413 106.498C113.304 109.777 119.326 111.789 121.595 111.062C125.168 109.918 119.307 103.916 116.801 103.328ZM127.412 103.175C123.939 102.359 123.386 104.983 123.386 104.983C123.277 108.262 129.299 110.273 131.567 109.547C135.141 108.403 129.918 103.763 127.412 103.175Z" fill="#547629"/>
<path d="M50.6653 57.0773C51.4351 57.6835 52.2496 58.42 53.1112 59.2962C53.5212 59.7517 53.9282 60.2132 54.3321 60.6805C55.7035 58.7599 59.3894 54.9766 63.1618 55.2079C62.8961 54.6425 62.6396 54.0874 62.3928 53.5436C62.054 52.8057 61.719 51.9375 61.4359 50.9976C55.4227 48.7852 51.75 54.1289 50.6653 57.0773Z" fill="#909090"/>
<path d="M63.1618 55.2079C59.3894 54.9766 55.7035 58.7599 54.3321 60.6805C56.2966 62.9532 58.1879 65.3618 59.999 67.8741L67.2828 63.3596C65.7337 60.4883 64.3536 57.7436 63.1618 55.2079Z" fill="#DFDFDF"/>
<path d="M67.2828 63.3596L59.999 67.8741C62.1059 70.7966 64.1045 73.8594 65.9839 77.0117L72.7545 72.8154C70.7558 69.5868 68.9243 66.4021 67.2828 63.3596Z" fill="#909090"/>
<path d="M76.7127 78.9268L69.5516 83.3652C70.9832 86.0731 72.3271 88.8198 73.5772 91.576L82.0424 86.3295C80.1824 83.9019 78.4024 81.4196 76.7127 78.9268Z" fill="#909090"/>
<path d="M87.8699 93.4235L77.1304 100.08C78.0348 102.443 78.8649 104.79 79.6168 107.103L92.9809 98.8204C91.2337 97.1057 89.5281 95.2984 87.8699 93.4235Z" fill="#909090"/>
<path d="M82.2148 116.199C82.3684 116.828 82.5152 117.452 82.6549 118.07C83.7585 119.373 85.2119 120.902 86.8614 122.385L104.463 111.476C103.62 109.387 102.591 107.559 101.702 106.265C101.177 105.884 100.655 105.493 100.135 105.092L82.2148 116.199Z" fill="#909090"/>
<path d="M93.7553 127.246C97.3 128.985 100.849 129.367 103.403 126.622C105.291 124.594 106.055 122.126 106.126 119.579L93.7553 127.246Z" fill="#909090"/>
<path d="M72.7545 72.8154L65.9839 77.0117C67.2262 79.0953 68.4165 81.2181 69.5516 83.3652L76.7127 78.9268C75.3311 76.8885 74.0098 74.8433 72.7545 72.8154Z" fill="#DFDFDF"/>
<path d="M82.0424 86.3295L73.5772 91.576C74.8631 94.4113 76.0498 97.2565 77.1304 100.08L87.8699 93.4235C85.8538 91.1439 83.9078 88.7643 82.0424 86.3295Z" fill="#DFDFDF"/>
<path d="M92.9809 98.8204L79.6168 107.103C80.6273 110.212 81.4965 113.259 82.2148 116.199L100.135 105.092C97.686 103.203 95.2969 101.093 92.9809 98.8204Z" fill="#DFDFDF"/>
<path d="M104.463 111.476L86.8614 122.385C88.9492 124.262 91.3512 126.067 93.7553 127.246L106.126 119.579C106.203 116.817 105.465 113.962 104.463 111.476Z" fill="#DFDFDF"/>
<path fill-rule="evenodd" clip-rule="evenodd" d="M50.6653 57.0773C51.75 54.1289 55.4227 48.7852 61.4359 50.9976C60.1494 46.7262 59.9336 40.9719 65.2912 39.2192C64.9349 35.7655 62.6014 29.0064 56.1177 29.6002C49.634 30.194 48.5063 35.7446 48.753 38.4457C48.4954 38.6058 47.6707 39.1178 46.4332 39.8848C44.8863 40.8436 39.2101 36.8675 34.4605 43.023C30.6608 47.9474 37.8779 54.2947 41.9614 56.8528C43.8566 54.2955 46.653 53.9175 50.6653 57.0773ZM37.3356 47.6618C38.2581 50.3018 41.8636 54.2765 48.9054 49.0557C53.0668 45.4059 35.2327 42.5416 37.3356 47.6618ZM58.9928 34.239C60.9466 36.2398 62.902 41.2373 55.0931 45.2206C49.9729 47.3234 55.343 30.0776 58.9928 34.239Z" fill="#DFDFDF"/>
</svg>
