<svg width="121" height="114" viewBox="0 0 121 114" fill="none" xmlns="http://www.w3.org/2000/svg">
<path d="M19.3375 45.7206C-5.52316 53.5134 19.213 73.2949 34.6887 82.2115C37.1593 76.4083 46.2916 64.8011 63.0553 64.7984C79.8191 64.7957 79.7149 85.2131 77.5674 95.4221C130.242 80.5196 116.699 63.1133 109.414 66.9186C103.586 69.9628 103.761 66.0383 104.578 63.6956C115.213 41.4496 95.9978 35.9078 88.7127 39.7131C81.4275 43.5184 92.1275 24.9475 81.681 16.3095C71.2344 7.67139 68.5286 20.9539 60.8564 23.6631C53.1842 26.3724 64.7235 13.669 49.314 15.4124C33.9045 17.1558 42.2891 33.9181 34.1648 31.8562C26.0405 29.7943 21.3344 33.9215 24.3656 39.0146C26.7906 43.0891 22.0239 45.183 19.3375 45.7206Z" fill="#547629"/>
<path d="M52.4122 66.086C21.0145 80.7139 37.191 95.8418 51.1857 102.052C52.4247 102.601 53.7363 102.97 55.087 103.085C62.3268 103.701 69.4356 101.483 74.1295 99.2081C77.5423 97.5543 79.5623 94.1281 80.0977 90.3737C84.714 57.9988 59.6814 63.5217 52.4122 66.086Z" fill="#909090"/>
<path d="M31.2061 72.3474C27.6988 73.5859 30.7768 75.7862 32.7542 76.7315C34.2373 77.4405 37.1383 75.1834 37.4603 72.6043C37.7823 70.0252 35.5902 70.7993 31.2061 72.3474Z" fill="#DFDFDF"/>
<path d="M30.9199 73.7048C30.1426 73.0112 28.4649 71.2564 27.9726 69.786C27.4802 68.3156 31.0385 70.8034 32.8792 72.2311C32.2638 70.3932 31.3762 66.7661 32.7494 66.9604C34.1227 67.1547 35.2056 70.2261 35.5754 71.7375" stroke="#DFDFDF" stroke-width="0.797745"/>
<path d="M38.2735 65.9928C35.8355 64.9839 31.3336 62.7533 32.8304 61.9027C34.3271 61.052 36.6434 63.3275 37.6145 64.5716C36.4237 62.8538 34.5482 59.4899 36.5724 59.7763C38.5965 60.0627 38.7341 62.7382 38.5499 64.0402C37.4513 61.6713 36.0421 57.4436 39.1946 59.4833C42.3471 61.5229 41.1415 63.964 40.1446 64.9295" stroke="#DFDFDF" stroke-width="0.797745"/>
<path d="M39.6967 63.5363C36.3939 61.8257 36.8951 65.576 37.5586 67.6649C38.0562 69.2316 41.6872 69.8031 43.7884 68.2733C45.8897 66.7435 43.8254 65.6744 39.6967 63.5363Z" fill="#DFDFDF"/>
<path d="M50.1322 58.7495C49.0013 55.206 46.7082 58.2155 45.7029 60.1631C44.949 61.6238 47.1165 64.5924 49.6846 64.993C52.2527 65.3935 51.5458 63.1788 50.1322 58.7495Z" fill="#DFDFDF"/>
<path d="M45.8577 60.9316C43.6499 60.0356 39.6506 57.7773 41.3153 55.9117C42.9799 54.0461 45.6093 58.5619 46.7159 61.053C44.4649 58.3999 40.8212 53.2151 44.2543 53.7008C47.6874 54.1865 47.979 58.3132 47.6956 60.3158C46.9156 57.5791 45.6987 52.1542 47.072 52.3485C48.7885 52.5914 49.7765 57.9838 48.6753 59.5789" stroke="#DFDFDF" stroke-width="0.797745"/>
<path d="M57.2881 61.7074C60.4097 63.73 60.2743 59.9489 59.8164 57.8055C59.473 56.198 55.9145 55.2772 53.6748 56.5962C51.4352 57.9151 53.3862 59.1792 57.2881 61.7074Z" fill="#DFDFDF"/>
<path d="M55.0482 57.851C52.8809 56.669 49.1342 53.8627 51.4854 52.0943C53.8367 50.3259 55.4934 54.704 56.0279 57.1142C55.5743 54.132 55.158 48.4122 57.1207 49.3903C59.0834 50.3683 58.2733 55.6812 57.623 58.2153" stroke="#DFDFDF" stroke-width="0.797745"/>
<path d="M70.328 59.4308C73.2076 57.0765 69.5659 56.0502 67.3851 55.8313C65.7495 55.6671 63.7856 58.7742 64.3571 61.3097C64.9287 63.8452 66.7285 62.3737 70.328 59.4308Z" fill="#DFDFDF"/>
<path d="M66.3268 58.5761C65.1392 56.6572 63.156 52.5247 64.7235 51.3457C66.291 50.1667 66.5264 55.1026 66.4482 57.7178C66.2403 55.0622 66.3151 49.9953 68.2778 50.9734C70.2405 51.9514 68.3671 56.5303 67.185 58.6975C68.162 55.9173 70.4349 50.5772 71.711 51.4585C72.987 52.3397 69.7976 56.7324 68.0433 58.8186" stroke="#DFDFDF" stroke-width="0.797745"/>
<path d="M76.4716 66.2288C79.6677 68.1314 79.3888 64.3581 78.8498 62.2336C78.4456 60.6403 74.8547 59.8554 72.6668 61.2584C70.4789 62.6614 72.4764 63.8506 76.4716 66.2288Z" fill="#DFDFDF"/>
<path d="M74.5461 62.3662C73.847 59.0573 73.3071 52.561 76.7401 53.0467C80.1732 53.5324 77.28 59.543 75.4043 62.4876C76.4217 59.4216 79.2905 53.5826 82.6265 54.7549C85.9624 55.9273 79.7738 60.4795 76.2626 62.609" stroke="#DFDFDF" stroke-width="0.797745"/>
<path d="M81.426 69.7668C77.761 70.4014 80.4277 73.0854 82.2192 74.3481C83.5628 75.2951 86.8005 73.5548 87.5492 71.0659C88.2979 68.577 86.0072 68.9736 81.426 69.7668Z" fill="#DFDFDF"/>
<path d="M82.8907 71.4294C83.0499 68.2419 84.2265 61.9884 87.6596 62.4741C91.0926 62.9598 87.1361 68.2364 84.7287 70.814C86.5639 68.1554 90.6521 63.5979 92.3234 66.6358C93.9947 69.6737 87.8757 71.2592 84.6073 71.6722C87.711 70.3605 93.8457 68.2519 93.5542 70.3117C93.2628 72.3715 87.3872 72.6492 84.4858 72.5305" stroke="#DFDFDF" stroke-width="0.797745"/>
<path d="M88.633 80.836C92.315 80.3088 89.7278 77.548 87.974 76.2335C86.6586 75.2477 83.3715 76.8925 82.5504 79.3585C81.7293 81.8245 84.0305 81.495 88.633 80.836Z" fill="#DFDFDF"/>
<path d="M87.3152 77.301C88.7429 75.4603 92.2363 72.2193 94.7885 73.9811C97.3407 75.7429 90.7887 77.5008 87.1938 78.1595C89.9305 77.3794 95.527 76.1869 96.0193 77.6572C96.5116 79.1276 90.2598 79.1769 87.0723 79.0178C89.9737 79.1364 95.7522 79.5454 95.655 80.232C95.5336 81.0903 88.6674 80.1189 86.9509 79.876" stroke="#DFDFDF" stroke-width="0.797745"/>
<path d="M81.9514 89.9497C81.6362 93.6559 84.9085 91.7566 86.5841 90.3437C87.8408 89.2841 86.9781 85.711 84.7602 84.3558C82.5424 83.0007 82.3454 85.317 81.9514 89.9497Z" fill="#DFDFDF"/>
<path d="M86.103 85.888C86.7966 85.1107 89.0178 83.8491 92.3538 85.0214C95.6897 86.1938 88.9234 86.5787 85.1232 86.6247C88.7182 85.966 95.2961 85.2625 92.8477 87.7175C90.3992 90.1726 86.5969 88.5841 85.0018 87.483" stroke="#DFDFDF" stroke-width="0.797745"/>
</svg>
