<svg width="96" height="225" viewBox="0 0 96 225" fill="none" xmlns="http://www.w3.org/2000/svg">
<path fill-rule="evenodd" clip-rule="evenodd" d="M30.7872 41.2491V118.444C30.7872 119.995 30.5215 121.535 30.0015 122.997L2.69149 199.764C1.4512 203.251 1.59702 207.205 4.13429 209.899C10.8101 216.986 25.3593 224.8 49.7903 224.8C73.2581 224.8 85.933 216.304 91.7205 209.986C94.261 207.213 94.4113 203.22 93.1054 199.693L64.7346 123.071C64.1756 121.561 63.8894 119.964 63.8894 118.354V46.7556C63.6851 42.2688 64.1346 32.6833 67.5674 30.236C71.8585 27.1768 73.6975 14.94 60.2114 15.5519V23.5056C54.3265 24.974 41.0039 24.1174 35.0782 23.5056V15.5519C32.0132 14.94 25.7606 14.9398 25.2702 19.8345C24.6572 25.9529 25.8832 28.4005 28.9482 30.236C32.1021 32.1247 30.7872 39.4134 30.7872 41.2491ZM60.2114 34.5187H35.0782C35.0782 37.17 37.6528 42.4725 47.9513 42.4725C58.2498 42.4725 61.0287 37.17 60.2114 34.5187Z" fill="#3D3D3D"/>
<path d="M35.0782 34.5187H60.2114C61.0287 37.17 58.2498 42.4725 47.9513 42.4725C37.6528 42.4725 35.0782 37.17 35.0782 34.5187Z" fill="#547629"/>
<path d="M60.2114 15.5519L62.0504 2.70262C56.942 0.663159 44.0281 -2.19208 33.2392 2.70262L35.0782 15.5519V23.5056C41.0039 24.1174 54.3265 24.974 60.2114 23.5056V15.5519Z" fill="#547629"/>
<path d="M24.4994 159.604C23.1803 158.285 26.478 155.647 27.1376 156.306C28.298 157.466 25.8185 160.263 24.4994 159.604Z" fill="#DFDFDF"/>
<path d="M31.0949 156.306C30.8442 156.055 32.4139 154.987 32.4139 155.646C32.4139 156.306 31.7544 156.965 31.0949 156.306Z" fill="#DFDFDF"/>
<path d="M28.4567 160.923C27.1376 161.363 23.8398 162.242 23.8398 163.561C35.4479 169.365 42.5728 170.237 44.6842 169.948C44.6561 169.667 44.6329 169.404 44.6159 169.166C44.5961 168.889 44.608 168.641 44.6465 168.42C41.7428 168.34 34.9896 166.595 31.2067 160.263C30.0981 160.435 29.137 160.651 28.4567 160.923Z" fill="#909090"/>
<path d="M23.8398 163.561C23.8398 165.608 26.7779 170.517 35.7117 172.175C37.8222 172.206 42.6527 171.419 44.8042 171.022C44.7583 170.643 44.7177 170.282 44.6842 169.948C42.5728 170.237 35.4479 169.365 23.8398 163.561Z" fill="#DFDFDF"/>
<path d="M45.0174 172.65C44.9395 172.09 44.8669 171.54 44.8042 171.022C42.6527 171.419 37.8222 172.206 35.7117 172.175C38.2898 172.653 41.3672 172.86 45.0174 172.65Z" fill="#909090"/>
<path d="M45.8216 177.807H52.252C52.252 175.902 52.0112 174.158 51.6438 172.65C51.5441 172.24 51.435 171.849 51.3189 171.476C51.2248 171.174 51.1262 170.884 51.0241 170.608C50.8527 170.144 50.6716 169.717 50.4866 169.331C50.2371 168.811 49.9804 168.366 49.7308 168.005C49.575 167.779 49.4219 167.587 49.275 167.43C49.0413 167.18 48.8234 167.018 48.6349 166.956C48.4173 166.883 48.1327 166.817 47.8154 166.775C47.1963 166.694 46.4522 166.707 45.8365 166.956C45.5171 167.084 45.2323 167.277 45.0174 167.552C44.8387 167.78 44.7083 168.066 44.6465 168.42C44.608 168.641 44.5961 168.889 44.6159 169.166C44.6329 169.404 44.6561 169.667 44.6842 169.948C44.7177 170.282 44.7583 170.643 44.8042 171.022C44.8669 171.54 44.9395 172.09 45.0174 172.65C45.288 174.595 45.6217 176.647 45.8216 177.807Z" fill="#909090"/>
<path d="M44.4312 159.718C44.0199 162.975 45.1966 165.9 45.8365 166.956C46.4522 166.707 47.1963 166.694 47.8154 166.775C48.2192 165.828 48.9483 163.171 48.6349 160.12C46.8605 160 45.4592 159.83 44.4312 159.718Z" fill="#DFDFDF"/>
<path d="M42.9667 159.604C42.4476 159.604 40.6004 159.604 38.3499 159.684C40.9881 164.497 43.8941 166.935 45.0174 167.552C45.2323 167.277 45.5171 167.084 45.8365 166.956C45.1966 165.9 44.0199 162.975 44.4312 159.718C43.8042 159.65 43.6262 159.604 42.9667 159.604Z" fill="#909090"/>
<path d="M31.2067 160.263C34.9896 166.595 41.7428 168.34 44.6465 168.42C44.7083 168.066 44.8387 167.78 45.0174 167.552C43.8941 166.935 40.9881 164.497 38.3499 159.684C36.0618 159.766 33.3568 159.931 31.2067 160.263Z" fill="#DFDFDF"/>
<path d="M35.0521 157.625C34.6394 157.212 34.6564 156.306 35.7117 156.306C37.0308 156.306 38.3499 158.285 37.0308 158.285C35.9755 158.285 35.272 157.845 35.0521 157.625Z" fill="#DFDFDF"/>
<path fill-rule="evenodd" clip-rule="evenodd" d="M23.8398 163.561C23.8398 162.242 27.1376 161.363 28.4567 160.923C29.137 160.651 30.0981 160.435 31.2067 160.263C33.3568 159.931 36.0618 159.766 38.3499 159.684C40.6004 159.604 42.4476 159.604 42.9667 159.604C43.6262 159.604 43.8042 159.65 44.4312 159.718C45.4592 159.83 46.8605 160 48.6349 160.12C49.8641 160.204 51.2725 160.263 52.8599 160.263C53.1799 160.263 53.4878 160.261 53.7843 160.256C58.0864 160.19 59.9894 159.675 61.7409 159.611C61.8589 159.606 61.9762 159.604 62.0935 159.604C63.1981 159.604 65.947 160.22 68.2748 161.109C69.8551 161.713 71.2414 162.442 71.7874 163.189C71.8779 163.313 71.9453 163.437 71.9868 163.561C71.931 161.868 70.3149 159.598 69.5138 158.675C69.4735 158.782 69.4185 158.874 69.3486 158.944C68.689 159.604 66.0508 157.625 67.3699 156.965C63.1488 153.8 57.2569 152.569 54.8385 152.349C54.8385 153.668 50.2217 153.668 50.2217 151.689C46.5282 151.162 42.0873 151.53 40.3285 151.78C40.4216 151.948 40.433 152.14 40.3285 152.349C39.669 153.668 37.0308 153.668 37.0308 152.349C33.3373 152.349 28.8964 154.987 27.1376 156.306C28.298 157.466 25.8185 160.263 24.4994 159.604C23.9718 161.187 23.8398 162.902 23.8398 163.561ZM31.0949 156.306C30.8442 156.055 32.4139 154.987 32.4139 155.646C32.4139 156.306 31.7544 156.965 31.0949 156.306ZM29.1162 158.285C29.7385 158.011 31.0054 157.628 31.0949 158.285C31.2067 159.105 27.7971 158.944 29.1162 158.285ZM35.7117 156.306C34.6564 156.306 34.6394 157.212 35.0521 157.625C35.272 157.845 35.9755 158.285 37.0308 158.285C38.3499 158.285 37.0308 156.306 35.7117 156.306ZM42.3071 156.306C42.3071 155.646 42.8348 154.459 44.9453 154.987C47.5835 155.646 42.3071 158.285 42.3071 156.306ZM50.2217 156.965C51.5408 156.927 53.9152 157.138 52.8599 158.285C51.5408 159.718 48.2431 156.965 50.2217 156.965ZM57.4767 156.306C57.4767 155.646 57.8724 154.459 59.4554 154.987C61.434 155.646 57.4767 158.285 57.4767 156.306Z" fill="#547629"/>
<path d="M29.1162 158.285C29.7385 158.011 31.0054 157.628 31.0949 158.285C31.2067 159.105 27.7971 158.944 29.1162 158.285Z" fill="#DFDFDF"/>
<path d="M37.0308 152.349C37.0308 153.668 39.669 153.668 40.3285 152.349C40.433 152.14 40.4216 151.948 40.3285 151.78C39.8338 150.887 37.0308 150.684 37.0308 152.349Z" fill="#DFDFDF"/>
<path d="M42.3071 156.306C42.3071 155.646 42.8348 154.459 44.9453 154.987C47.5835 155.646 42.3071 158.285 42.3071 156.306Z" fill="#DFDFDF"/>
<path d="M50.2217 156.965C51.5408 156.927 53.9152 157.138 52.8599 158.285C51.5408 159.718 48.2431 156.965 50.2217 156.965Z" fill="#DFDFDF"/>
<path d="M50.2217 151.689C50.8813 149.71 54.8385 151.416 54.8385 152.349C54.8385 153.668 50.2217 153.668 50.2217 151.689Z" fill="#DFDFDF"/>
<path d="M57.4767 156.306C57.4767 155.646 57.8724 154.459 59.4554 154.987C61.434 155.646 57.4767 158.285 57.4767 156.306Z" fill="#DFDFDF"/>
<path d="M67.3699 156.965C66.0508 157.625 68.689 159.604 69.3486 158.944C69.4185 158.874 69.4735 158.782 69.5138 158.675C69.8535 157.77 69.1389 155.786 67.3699 156.965Z" fill="#DFDFDF"/>
<path d="M71.7874 163.189C69.5175 169.223 56.9994 170.649 51.0241 170.608C51.1262 170.884 51.2248 171.174 51.3189 171.476C53.4681 171.662 57.548 171.924 59.5153 171.764C59.8327 171.708 60.1503 171.65 60.4672 171.59C67.083 170.322 73.4172 167.852 71.9868 163.561C71.9453 163.437 71.8779 163.313 71.7874 163.189Z" fill="#909090"/>
<path d="M51.3189 171.476C51.435 171.849 51.5441 172.24 51.6438 172.65C53.8636 172.536 56.6824 172.257 59.5153 171.764C57.548 171.924 53.4681 171.662 51.3189 171.476Z" fill="#DFDFDF"/>
<path d="M68.2748 161.109C66.8882 166.535 55.8383 168.851 50.4866 169.331C50.6716 169.717 50.8527 170.144 51.0241 170.608C56.9994 170.649 69.5175 169.223 71.7874 163.189C71.2414 162.442 69.8551 161.713 68.2748 161.109Z" fill="#DFDFDF"/>
<path d="M62.0935 159.604C61.9762 159.604 61.8589 159.606 61.7409 159.611C60.9311 164.365 53.3968 167.188 49.7308 168.005C49.9804 168.366 50.2371 168.811 50.4866 169.331C55.8383 168.851 66.8882 166.535 68.2748 161.109C65.947 160.22 63.1981 159.604 62.0935 159.604Z" fill="#909090"/>
<path d="M53.7843 160.256C53.4686 162.889 50.6465 166.135 49.275 167.43C49.4219 167.587 49.575 167.779 49.7308 168.005C53.3968 167.188 60.9311 164.365 61.7409 159.611C59.9894 159.675 58.0864 160.19 53.7843 160.256Z" fill="#DFDFDF"/>
<path d="M47.8154 166.775C48.1327 166.817 48.4173 166.883 48.6349 166.956C48.8234 167.018 49.0413 167.18 49.275 167.43C50.6465 166.135 53.4686 162.889 53.7843 160.256C53.4878 160.261 53.1799 160.263 52.8599 160.263C51.2725 160.263 49.8641 160.204 48.6349 160.12C48.9483 163.171 48.2192 165.828 47.8154 166.775Z" fill="#909090"/>
<path d="M45.8216 177.807C44.4302 179.654 42.5709 183.216 46.2644 182.688C46.924 178.731 48.2431 183.348 49.5622 182.688C50.3078 182.315 51.2442 179.271 52.252 181.369C53.5195 184.007 54.8386 182.028 54.8386 181.369C54.8386 180.709 54.9417 180.181 52.252 177.807H45.8216Z" fill="#547629"/>
<path d="M44.2855 196.538C44.1125 196.597 43.9545 196.63 43.8104 196.64C41.0535 197.276 41.6473 198.093 41.6473 202.474C41.6473 207.091 45.6046 206.432 50.881 206.432C56.1574 206.432 55.4978 203.134 56.1574 200.496C56.685 198.385 55.0584 197.418 54.179 197.198C50.881 196.373 46.2642 196.099 44.2855 196.538Z" fill="#909090"/>
<path d="M52.8599 191.262C51.8028 191.262 45.6049 190.603 44.9454 190.603C43.8461 190.603 42.3072 190.913 42.3072 192.581C42.3072 194.387 42.3072 196.748 43.8104 196.64C43.9589 196.606 44.117 196.572 44.2855 196.538C46.2642 196.099 50.881 196.373 54.179 197.198C54.8385 196.538 58.1366 191.701 52.8599 191.262Z" fill="#909090"/>
<path d="M52.2004 187.305C51.1012 187.085 47.8034 186.645 46.2645 186.645C45.1652 186.645 43.6263 186.645 43.6263 187.964C43.6263 189.064 43.6263 190.603 44.9454 190.603C45.6049 190.603 51.8028 191.262 52.8599 191.262C53.5195 191.262 54.179 190.603 54.8386 189.283C55.3662 188.228 53.2996 187.525 52.2004 187.305Z" fill="#909090"/>
<path d="M49.5622 182.688C48.2431 183.348 46.924 178.731 46.2644 182.688L46.2645 186.645C47.8034 186.645 51.1012 187.085 52.2004 187.305L52.252 181.369C51.2442 179.271 50.3078 182.315 49.5622 182.688Z" fill="#909090"/>
</svg>
