<svg width="108" height="117" viewBox="0 0 108 117" fill="none" xmlns="http://www.w3.org/2000/svg">
<path d="M28.5495 30.7523C25.8585 28.1379 21.6367 22.1898 26.2775 19.3135" stroke="#547629" stroke-width="2"/>
<path d="M39.5731 23.9213C38.3555 20.6612 34.8042 14.6723 30.3398 16.7969" stroke="#547629" stroke-width="2"/>
<path d="M29.3943 56.7268C27.4878 57.1055 23.2597 56.6748 21.5992 51.9228" stroke="#547629" stroke-width="2"/>
<path d="M30.6606 47.1096C27.6211 47.3876 21.3917 45.6279 20.7899 36.3656" stroke="#547629" stroke-width="2"/>
<path d="M63.6991 33.053C64.26 31.3671 64.7185 27.443 62.0645 25.2337" stroke="#547629" stroke-width="2"/>
<path d="M55.4642 30.1313C57.4523 27.2933 58.9134 20.9277 48.8535 18.1698" stroke="#547629" stroke-width="2"/>
<path d="M44.9921 26.1797C46.4575 27.6803 47.924 31.4285 42.0674 34.4159C38.2273 35.9931 42.2548 23.0587 44.9921 26.1797Z" fill="#909090"/>
<path d="M60.2801 39.1868C58.9809 38.3861 58.4008 38.7456 57.8207 39.1052C55.788 41.0074 59.3552 44.8708 61.0566 44.3261C63.7365 43.468 62.0232 40.261 60.2801 39.1868Z" fill="#3D3D3D"/>
<path d="M67.8788 38.4919C66.5797 37.6912 65.9996 38.0508 65.4195 38.4103C63.3867 40.3125 68.4737 44.037 70.175 43.4922C72.855 42.6342 69.6219 39.5661 67.8788 38.4919Z" fill="#3D3D3D"/>
<path d="M57.4854 32.0866C55.9997 31.7378 55.6061 31.6454 55.026 32.005C52.9932 33.9072 58.3008 36.692 60.0022 36.1473C62.6821 35.2892 59.3647 32.5277 57.4854 32.0866Z" fill="#3D3D3D"/>
<path d="M77.4716 46.1964C75.9859 45.8476 75.9519 46.3354 75.3718 46.6949C73.339 48.5971 77.8459 52.6811 79.5472 52.1364C82.2272 51.2783 79.3509 46.6375 77.4716 46.1964Z" fill="#3D3D3D"/>
<path d="M65.5342 46.3685C64.0485 46.0198 64.0145 46.5075 63.4344 46.8671C61.4016 48.7693 65.9085 52.8533 67.6099 52.3085C70.2898 51.4505 67.4135 46.8097 65.5342 46.3685Z" fill="#3D3D3D"/>
<path d="M62.25 54.0246C60.7643 53.6759 60.7302 54.1636 60.1501 54.5232C58.1174 56.4254 64.0624 62.8298 65.7638 62.285C68.4437 61.427 64.1293 54.4658 62.25 54.0246Z" fill="#3D3D3D"/>
<path d="M73.6073 54.212C72.1215 53.8633 72.0875 54.351 71.5074 54.7105C69.4746 56.6128 74.4411 63.3305 77.121 62.4724C79.801 61.6144 75.4865 54.6532 73.6073 54.212Z" fill="#3D3D3D"/>
<path d="M84.605 53.8193C83.1193 53.4706 83.0852 53.9583 82.5051 54.3178C80.4724 56.2201 86.2395 61.6386 87.9798 60.56C91.5084 58.373 86.4843 54.2604 84.605 53.8193Z" fill="#3D3D3D"/>
<path d="M70.9605 65.4877C69.4748 65.139 68.9559 65.7138 68.2805 66.3458C66.2478 68.248 72.9935 73.3532 74.6949 72.8085C77.3748 71.9504 72.8398 65.9288 70.9605 65.4877Z" fill="#3D3D3D"/>
<path d="M86.5748 68.6572C85.0891 68.3085 83.8949 69.5152 83.8949 69.5152C80.7738 72.2526 88.6078 76.5227 90.3092 75.978C92.9891 75.1199 88.4541 69.0983 86.5748 68.6572Z" fill="#3D3D3D"/>
<path d="M80.6922 74.712C79.2065 74.3632 78.5924 75.2105 78.5924 75.2105C75.4713 77.9478 81.8672 79.8975 83.5685 79.3528C86.2485 78.4947 82.5715 75.1531 80.6922 74.712Z" fill="#3D3D3D"/>
<path d="M80.2995 63.7142C78.8138 63.3655 77.6196 64.5723 77.6196 64.5723C74.4985 67.3096 79.5952 68.4586 81.2965 67.9139C83.9765 67.0559 82.1788 64.1553 80.2995 63.7142Z" fill="#3D3D3D"/>
<path d="M92.0979 62.0223C90.6122 61.6736 89.418 62.8804 89.418 62.8804C86.2969 65.6177 91.3936 66.7668 93.0949 66.222C95.7749 65.364 93.9772 62.4635 92.0979 62.0223Z" fill="#3D3D3D"/>
<path d="M96.0528 68.4035C93.448 67.792 93.5119 70.7812 93.5119 70.7812C93.4303 73.2406 95.4875 74.6676 97.1888 74.1229C99.8688 73.2648 97.9321 68.8446 96.0528 68.4035Z" fill="#3D3D3D"/>
<path d="M88.3483 77.9962C85.7435 77.3848 85.8074 80.374 85.8074 80.374C85.7258 82.8334 90.2424 84.342 91.9437 83.7972C94.6237 82.9392 90.2276 78.4373 88.3483 77.9962Z" fill="#3D3D3D"/>
<path d="M96.3066 77.8814C93.7018 77.27 93.2868 79.2375 93.2868 79.2375C93.2052 81.6969 97.7218 83.2055 99.4231 82.6607C102.103 81.8027 98.1859 78.3226 96.3066 77.8814Z" fill="#3D3D3D"/>
<path d="M32.0837 72.7212C31.9447 71.2015 32.5248 70.842 33.1049 70.4824C35.713 69.5083 37.5856 74.422 36.3408 75.7033C34.3799 77.7216 32.2702 74.7602 32.0837 72.7212Z" fill="#3D3D3D"/>
<path d="M36.8673 47.2743C36.7283 45.7546 37.3084 45.395 37.8886 45.0355C40.4966 44.0614 41.5686 50.2743 40.3237 51.5556C38.3629 53.5738 37.0538 49.3132 36.8673 47.2743Z" fill="#3D3D3D"/>
<path d="M31.9491 49.2321C32.2978 47.7464 32.3902 47.3528 32.9703 46.9933C35.5783 46.0192 35.7107 52.0115 34.4658 53.2928C32.505 55.311 31.5079 51.1114 31.9491 49.2321Z" fill="#3D3D3D"/>
<path d="M41.5469 53.5653C41.8956 52.0796 42.3476 52.2661 42.9277 51.9066C45.5358 50.9325 47.1878 56.7859 45.943 58.0672C43.9821 60.0854 41.1058 55.4446 41.5469 53.5653Z" fill="#3D3D3D"/>
<path d="M35.613 56.4402C35.9617 54.9545 36.4136 55.141 36.9937 54.7815C39.6018 53.8074 41.2539 59.6607 40.009 60.942C38.0482 62.9603 35.1718 58.3195 35.613 56.4402Z" fill="#3D3D3D"/>
<path d="M37.9886 78.4093C38.0619 76.885 40.0782 76.5987 40.0782 76.5987C42.6862 75.6246 45.0677 83.9503 43.8228 85.2316C41.862 87.2499 37.8151 82.016 37.9886 78.4093Z" fill="#3D3D3D"/>
<path d="M47.5711 84.8017C47.9198 83.316 48.3718 83.5026 48.9519 83.143C51.5599 82.1689 55.7257 90.1858 53.4053 91.624C51.0849 93.0621 47.13 86.681 47.5711 84.8017Z" fill="#3D3D3D"/>
<path d="M54.1954 79.8932C54.5441 78.4075 54.996 78.594 55.5761 78.2344C58.1842 77.2604 60.4707 84.8361 58.7304 85.9147C55.2018 88.1017 53.7543 81.7724 54.1954 79.8932Z" fill="#3D3D3D"/>
<path d="M50.154 68.748C50.5027 67.2623 51.2484 67.0534 52.1149 66.7297C54.7229 65.7557 56.2934 74.0684 55.0485 75.3497C53.0877 77.368 49.7128 70.6273 50.154 68.748Z" fill="#3D3D3D"/>
<path d="M48.4019 100.346C48.7507 98.8599 50.3628 98.3273 50.3628 98.3273C54.2029 96.7502 54.5413 105.666 53.2965 106.947C51.3356 108.966 47.9608 102.225 48.4019 100.346Z" fill="#3D3D3D"/>
<path d="M44.0992 62.8654C44.4479 61.3797 45.48 61.2067 45.48 61.2067C49.3201 59.6296 48.2204 66.2249 46.9755 67.5062C45.0146 69.5245 43.6581 64.7447 44.0992 62.8654Z" fill="#3D3D3D"/>
<path d="M44.3697 74.4544C44.7185 72.9687 46.3306 72.4362 46.3306 72.4362C50.1708 70.859 48.932 75.9347 47.6872 77.216C45.7263 79.2342 43.9286 76.3337 44.3697 74.4544Z" fill="#3D3D3D"/>
<path d="M42.9171 95.4282C43.2658 93.9425 44.8779 93.41 44.8779 93.41C48.7181 91.8329 47.4794 96.9085 46.2345 98.1898C44.2736 100.208 42.4759 97.3075 42.9171 95.4282Z" fill="#3D3D3D"/>
<path d="M56.0032 93.2256C56.6146 90.6208 59.2633 92.008 59.2633 92.008C61.5021 93.0292 61.8647 95.5065 60.6198 96.7878C58.6589 98.8061 55.5621 95.1049 56.0032 93.2256Z" fill="#3D3D3D"/>
<path d="M56.478 101.764C57.0894 99.1589 59.738 100.546 59.738 100.546C61.9768 101.567 61.3182 106.283 60.0733 107.565C58.1125 109.583 56.0368 103.643 56.478 101.764Z" fill="#3D3D3D"/>
<path d="M36.856 87.9436C37.4674 85.3388 39.4141 85.8426 39.4141 85.8426C41.6529 86.8639 40.9943 91.58 39.7494 92.8612C37.7886 94.8795 36.4149 89.8229 36.856 87.9436Z" fill="#3D3D3D"/>
<path d="M54.3975 45.2415C55.0511 44.5688 55.5577 44.5224 56.8569 45.3231C58.5999 46.3973 60.6728 50.1845 57.9929 51.0425C56.2915 51.5873 52.3647 47.1438 54.3975 45.2415Z" fill="#3D3D3D"/>
<path d="M48.8655 35.0202C49.5191 34.3475 50.6058 33.9416 51.905 34.7423C53.648 35.8165 56.301 39.2441 53.6211 40.1022C51.9197 40.6469 46.8327 36.9225 48.8655 35.0202Z" fill="#3D3D3D"/>
<path d="M32.5623 59.2902C31.669 59.5762 30.822 60.3688 30.961 61.8885C31.1475 63.9275 33.0367 67.8285 34.9975 65.8103C36.2424 64.529 35.1704 58.3161 32.5623 59.2902Z" fill="#3D3D3D"/>
<path d="M38.0267 64.2202C37.1334 64.5062 36.8665 64.9393 37.0055 66.459C37.192 68.498 38.8606 73.3387 40.8214 71.3204C42.0663 70.0391 40.6348 63.2461 38.0267 64.2202Z" fill="#3D3D3D"/>
<path d="M28.7492 36.2468C29.4411 38.2268 32.1452 41.2079 37.4266 37.2922C40.5477 34.5549 27.1721 32.4067 28.7492 36.2468Z" fill="#909090"/>
<path fill-rule="evenodd" clip-rule="evenodd" d="M30.4251 71.3406C30.4663 79.612 34.8941 98.7612 52.2753 109.186C63.7719 116.082 66.3226 104.915 62.7387 89.0531C62.6339 88.5892 62.5239 88.1213 62.4086 87.6497C61.8699 85.4449 61.218 83.1596 60.4601 80.828C59.8962 79.093 59.2736 77.3324 58.5953 75.5603C57.7849 73.4429 56.8949 71.3089 55.9305 69.1825C54.9929 67.1154 53.9849 65.0553 52.9113 63.0244C52.0599 61.414 51.1672 59.822 50.2355 58.2593C48.8259 55.8951 47.327 53.598 45.7468 51.406C44.3885 49.5219 42.97 47.7154 41.4966 46.0108C41.1937 45.6604 40.8884 45.3143 40.5809 44.9727C39.9348 44.3155 39.3239 43.7632 38.7465 43.3085C35.7373 40.9386 33.64 41.2221 32.2186 43.1401C28.7786 47.7819 29.297 61.9971 30.4251 71.3406ZM30.961 61.8885C30.822 60.3688 31.669 59.5762 32.5623 59.2902C35.1704 58.3161 36.2424 64.529 34.9975 65.8103C33.0367 67.8285 31.1475 63.9275 30.961 61.8885ZM37.0055 66.459C36.8665 64.9393 37.1334 64.5062 38.0267 64.2202C40.6348 63.2461 42.0663 70.0391 40.8214 71.3204C38.8606 73.3387 37.192 68.498 37.0055 66.459ZM32.0837 72.7212C31.9447 71.2015 32.5248 70.842 33.1049 70.4824C35.713 69.5083 37.5856 74.422 36.3408 75.7033C34.3799 77.7216 32.2702 74.7602 32.0837 72.7212ZM36.8673 47.2743C36.7283 45.7546 37.3084 45.395 37.8886 45.0355C40.4966 44.0614 41.5686 50.2743 40.3237 51.5556C38.3629 53.5738 37.0538 49.3132 36.8673 47.2743ZM31.9491 49.2321C32.2978 47.7464 32.3902 47.3528 32.9703 46.9933C35.5783 46.0192 35.7107 52.0115 34.4658 53.2928C32.505 55.311 31.5079 51.1114 31.9491 49.2321ZM41.5469 53.5653C41.8956 52.0796 42.3476 52.2661 42.9277 51.9066C45.5358 50.9325 47.1878 56.7859 45.943 58.0672C43.9821 60.0854 41.1058 55.4446 41.5469 53.5653ZM35.613 56.4402C35.9617 54.9545 36.4136 55.141 36.9937 54.7815C39.6018 53.8074 41.2539 59.6607 40.009 60.942C38.0482 62.9603 35.1718 58.3195 35.613 56.4402ZM37.9886 78.4093C38.0619 76.885 40.0782 76.5987 40.0782 76.5987C42.6862 75.6246 45.0677 83.9503 43.8228 85.2316C41.862 87.2499 37.8151 82.016 37.9886 78.4093ZM47.5711 84.8017C47.9198 83.316 48.3718 83.5026 48.9519 83.143C51.5599 82.1689 55.7257 90.1858 53.4053 91.624C51.0849 93.0621 47.13 86.681 47.5711 84.8017ZM54.1954 79.8932C54.5441 78.4075 54.996 78.594 55.5761 78.2344C58.1842 77.2604 60.4707 84.8361 58.7304 85.9147C55.2018 88.1017 53.7543 81.7724 54.1954 79.8932ZM50.154 68.748C50.5027 67.2623 51.2484 67.0534 52.1149 66.7297C54.7229 65.7557 56.2934 74.0684 55.0485 75.3497C53.0877 77.368 49.7128 70.6273 50.154 68.748ZM48.4019 100.346C48.7507 98.8599 50.3628 98.3273 50.3628 98.3273C54.2029 96.7502 54.5413 105.666 53.2965 106.947C51.3356 108.966 47.9608 102.225 48.4019 100.346ZM44.0992 62.8654C44.4479 61.3797 45.48 61.2067 45.48 61.2067C49.3201 59.6296 48.2204 66.2249 46.9755 67.5062C45.0146 69.5245 43.6581 64.7447 44.0992 62.8654ZM44.3697 74.4544C44.7185 72.9687 46.3306 72.4362 46.3306 72.4362C50.1708 70.859 48.932 75.9347 47.6872 77.216C45.7263 79.2342 43.9286 76.3337 44.3697 74.4544ZM42.9171 95.4282C43.2658 93.9425 44.8779 93.41 44.8779 93.41C48.7181 91.8329 47.4794 96.9085 46.2345 98.1898C44.2736 100.208 42.4759 97.3075 42.9171 95.4282ZM56.0032 93.2256C56.6146 90.6208 59.2633 92.008 59.2633 92.008C61.5021 93.0292 61.8647 95.5065 60.6198 96.7878C58.6589 98.8061 55.5621 95.1049 56.0032 93.2256ZM56.478 101.764C57.0894 99.1589 59.738 100.546 59.738 100.546C61.9768 101.567 61.3182 106.283 60.0733 107.565C58.1125 109.583 56.0368 103.643 56.478 101.764ZM36.856 87.9436C37.4674 85.3388 39.4141 85.8426 39.4141 85.8426C41.6529 86.8639 40.9943 91.58 39.7494 92.8612C37.7886 94.8795 36.4149 89.8229 36.856 87.9436Z" fill="#547629"/>
<path fill-rule="evenodd" clip-rule="evenodd" d="M99.4616 85.5629C113.024 76.3539 72.5446 29.1782 51.1292 29.6042C50.6091 29.6712 50.1393 29.7764 49.7159 29.9149C45.6977 31.2294 45.8596 35.5451 46.8245 38.7487C47.0368 39.4536 47.288 40.1048 47.5422 40.6582C47.7273 41.066 47.9196 41.4823 48.1189 41.9064C49.0128 43.8082 50.0478 45.8667 51.2097 48.0202C52.4408 50.3021 53.8144 52.6906 55.3134 55.1121C56.2549 56.633 57.2459 58.1669 58.2821 59.6956C59.5494 61.5652 60.8844 63.4269 62.2793 65.2476C63.6784 67.0737 65.1379 68.8584 66.65 70.5681C67.8936 71.9743 69.1728 73.3298 70.4833 74.6158C72.2202 76.3204 74.012 77.9029 75.8487 79.3198C76.2385 79.6205 76.6304 79.9138 77.0242 80.1992C84.0716 85.3072 91.7349 87.8916 99.4616 85.5629ZM51.905 34.7423C50.6058 33.9416 49.5191 34.3475 48.8655 35.0202C46.8327 36.9225 51.9197 40.6469 53.6211 40.1022C56.301 39.2441 53.648 35.8165 51.905 34.7423ZM56.8569 45.3231C55.5577 44.5224 55.0511 44.5688 54.3975 45.2415C52.3647 47.1438 56.2915 51.5873 57.9929 51.0425C60.6728 50.1845 58.5999 46.3973 56.8569 45.3231ZM60.2801 39.1868C58.9809 38.3861 58.4008 38.7456 57.8207 39.1052C55.788 41.0074 59.3552 44.8708 61.0566 44.3261C63.7365 43.468 62.0232 40.261 60.2801 39.1868ZM67.8788 38.4919C66.5797 37.6912 65.9996 38.0508 65.4195 38.4103C63.3867 40.3125 68.4737 44.037 70.175 43.4922C72.855 42.6342 69.6219 39.5661 67.8788 38.4919ZM57.4854 32.0866C55.9997 31.7378 55.6061 31.6454 55.026 32.005C52.9932 33.9072 58.3008 36.692 60.0022 36.1473C62.6821 35.2892 59.3647 32.5277 57.4854 32.0866ZM77.4716 46.1964C75.9859 45.8476 75.9519 46.3354 75.3718 46.6949C73.339 48.5971 77.8459 52.6811 79.5472 52.1364C82.2272 51.2783 79.3509 46.6375 77.4716 46.1964ZM65.5342 46.3685C64.0485 46.0198 64.0145 46.5075 63.4344 46.8671C61.4016 48.7693 65.9085 52.8533 67.6099 52.3085C70.2898 51.4505 67.4135 46.8097 65.5342 46.3685ZM62.25 54.0246C60.7643 53.6759 60.7302 54.1636 60.1501 54.5232C58.1174 56.4254 64.0624 62.8298 65.7638 62.285C68.4437 61.427 64.1293 54.4658 62.25 54.0246ZM73.6073 54.212C72.1215 53.8633 72.0875 54.351 71.5074 54.7105C69.4746 56.6128 74.4411 63.3305 77.121 62.4724C79.801 61.6144 75.4865 54.6532 73.6073 54.212ZM84.605 53.8193C83.1193 53.4706 83.0852 53.9583 82.5051 54.3178C80.4724 56.2201 86.2395 61.6386 87.9798 60.56C91.5084 58.373 86.4843 54.2604 84.605 53.8193ZM70.9605 65.4877C69.4748 65.139 68.9559 65.7138 68.2805 66.3458C66.2478 68.248 72.9935 73.3532 74.6949 72.8085C77.3748 71.9504 72.8398 65.9288 70.9605 65.4877ZM86.5748 68.6572C85.0891 68.3085 83.8949 69.5152 83.8949 69.5152C80.7738 72.2526 88.6078 76.5227 90.3092 75.978C92.9891 75.1199 88.4541 69.0983 86.5748 68.6572ZM80.6922 74.712C79.2065 74.3632 78.5924 75.2105 78.5924 75.2105C75.4713 77.9478 81.8672 79.8975 83.5685 79.3528C86.2485 78.4947 82.5715 75.1531 80.6922 74.712ZM80.2995 63.7142C78.8138 63.3655 77.6196 64.5723 77.6196 64.5723C74.4985 67.3096 79.5952 68.4586 81.2965 67.9139C83.9765 67.0559 82.1788 64.1553 80.2995 63.7142ZM92.0979 62.0223C90.6122 61.6736 89.418 62.8804 89.418 62.8804C86.2969 65.6177 91.3936 66.7668 93.0949 66.222C95.7749 65.364 93.9772 62.4635 92.0979 62.0223ZM96.0528 68.4035C93.448 67.792 93.5119 70.7812 93.5119 70.7812C93.4303 73.2406 95.4875 74.6676 97.1888 74.1229C99.8688 73.2648 97.9321 68.8446 96.0528 68.4035ZM88.3483 77.9962C85.7435 77.3848 85.8074 80.374 85.8074 80.374C85.7258 82.8334 90.2424 84.342 91.9437 83.7972C94.6237 82.9392 90.2276 78.4373 88.3483 77.9962ZM96.3066 77.8814C93.7018 77.27 93.2868 79.2375 93.2868 79.2375C93.2052 81.6969 97.7218 83.2055 99.4231 82.6607C102.103 81.8027 98.1859 78.3226 96.3066 77.8814Z" fill="#547629"/>
<path d="M38.7465 43.3085C39.3239 43.7632 39.9348 44.3155 40.5809 44.9727C40.8884 45.3143 41.1937 45.6604 41.4966 46.0108C42.5252 44.5704 45.2896 41.733 48.1189 41.9064C47.9196 41.4823 47.7273 41.066 47.5422 40.6582C47.288 40.1048 47.0368 39.4536 46.8245 38.7487C42.3146 37.0894 39.5601 41.0972 38.7465 43.3085Z" fill="#909090"/>
<path d="M48.1189 41.9064C45.2896 41.733 42.5252 44.5704 41.4966 46.0108C42.97 47.7154 44.3885 49.5219 45.7468 51.406L51.2097 48.0202C50.0478 45.8667 49.0128 43.8082 48.1189 41.9064Z" fill="#DFDFDF"/>
<path d="M51.2097 48.0202L45.7468 51.406C47.327 53.598 48.8259 55.8951 50.2355 58.2593L55.3134 55.1121C53.8144 52.6906 52.4408 50.3021 51.2097 48.0202Z" fill="#909090"/>
<path d="M58.2821 59.6956L52.9113 63.0244C53.9849 65.0553 54.9929 67.1154 55.9305 69.1825L62.2793 65.2476C60.8844 63.4269 59.5494 61.5652 58.2821 59.6956Z" fill="#909090"/>
<path d="M66.65 70.5681L58.5953 75.5603C59.2736 77.3324 59.8962 79.093 60.4601 80.828L70.4833 74.6158C69.1728 73.3298 67.8936 71.9743 66.65 70.5681Z" fill="#909090"/>
<path d="M62.4086 87.6497C62.5239 88.1213 62.6339 88.5892 62.7387 89.0531C63.5664 90.0301 64.6565 91.1768 65.8936 92.2892L79.0945 84.1075C78.4629 82.5409 77.6911 81.1698 77.0242 80.1992C76.6304 79.9138 76.2385 79.6205 75.8487 79.3198L62.4086 87.6497Z" fill="#909090"/>
<path d="M71.0641 95.9352C73.7225 97.2396 76.3845 97.5255 78.3002 95.4672C79.7157 93.9461 80.2885 92.095 80.3418 90.185L71.0641 95.9352Z" fill="#909090"/>
<path d="M55.3134 55.1121L50.2355 58.2593C51.1672 59.822 52.0599 61.414 52.9113 63.0244L58.2821 59.6956C57.2459 58.1669 56.2549 56.633 55.3134 55.1121Z" fill="#DFDFDF"/>
<path d="M62.2793 65.2476L55.9305 69.1825C56.8949 71.3089 57.7849 73.4429 58.5953 75.5603L66.65 70.5681C65.1379 68.8584 63.6784 67.0737 62.2793 65.2476Z" fill="#DFDFDF"/>
<path d="M70.4833 74.6158L60.4601 80.828C61.218 83.1596 61.8699 85.4449 62.4086 87.6497L75.8487 79.3198C74.012 77.9029 72.2202 76.3204 70.4833 74.6158Z" fill="#DFDFDF"/>
<path d="M79.0945 84.1075L65.8936 92.2892C67.4595 93.6973 69.261 95.0505 71.0641 95.9352L80.3418 90.185C80.3996 88.1131 79.8463 85.9719 79.0945 84.1075Z" fill="#DFDFDF"/>
<path fill-rule="evenodd" clip-rule="evenodd" d="M38.7465 43.3085C39.5601 41.0972 42.3146 37.0894 46.8245 38.7487C45.8596 35.5451 45.6977 31.2294 49.7159 29.9149C49.4487 27.3246 47.6986 22.2553 42.8358 22.7006C37.973 23.146 37.1273 27.3089 37.3123 29.3347C37.1191 29.4548 36.5006 29.8389 35.5725 30.4141C34.4122 31.1332 30.1551 28.1511 26.5929 32.7677C23.7432 36.461 29.156 41.2215 32.2186 43.1401C33.64 41.2221 35.7373 40.9386 38.7465 43.3085ZM28.7492 36.2468C29.4411 38.2268 32.1452 41.2079 37.4266 37.2922C40.5477 34.5549 27.1721 32.4067 28.7492 36.2468ZM44.9921 26.1797C46.4575 27.6803 47.924 31.4285 42.0674 34.4159C38.2273 35.9931 42.2548 23.0587 44.9921 26.1797Z" fill="#DFDFDF"/>
</svg>
