<svg width="96" height="225" viewBox="0 0 96 225" fill="none" xmlns="http://www.w3.org/2000/svg">
<path fill-rule="evenodd" clip-rule="evenodd" d="M30.7872 41.2491V118.444C30.7872 119.995 30.5215 121.535 30.0015 122.997L2.69149 199.764C1.4512 203.251 1.59702 207.205 4.13429 209.899C10.8101 216.986 25.3593 224.8 49.7903 224.8C73.2581 224.8 85.933 216.304 91.7205 209.986C94.261 207.213 94.4113 203.22 93.1054 199.693L64.7346 123.071C64.1756 121.561 63.8894 119.964 63.8894 118.354V46.7556C63.6851 42.2688 64.1346 32.6833 67.5674 30.236C71.8585 27.1768 73.6975 14.94 60.2114 15.5519V19.5999C60.2114 21.8951 58.6421 23.8912 56.3557 24.0912C51.4026 24.5244 44.6754 24.2625 39.5686 23.8936C37.0127 23.7089 35.0782 21.5578 35.0782 18.9952V15.5519C32.0132 14.94 25.7606 14.9398 25.2702 19.8345C24.6572 25.9529 25.8832 28.4005 28.9482 30.236C32.1021 32.1247 30.7872 39.4134 30.7872 41.2491Z" fill="#3D3D3D"/>
<path d="M60.2114 15.5519L61.4931 6.59622C61.8201 4.31157 60.5429 2.08439 58.3109 1.49721C52.8824 0.0690949 44.5543 -0.950743 36.7505 1.39095C34.6219 2.02966 33.4557 4.21507 33.7705 6.41495L35.0782 15.5519V18.9952C35.0782 21.5578 37.0127 23.7089 39.5686 23.8936C44.6754 24.2625 51.4026 24.5244 56.3557 24.0912C58.6421 23.8912 60.2114 21.8951 60.2114 19.5999V15.5519Z" fill="#547629"/>
<path d="M24.4994 159.83C23.1803 158.511 26.478 155.873 27.1376 156.533C28.298 157.693 25.8185 160.49 24.4994 159.83Z" fill="#DFDFDF"/>
<path d="M31.0949 156.532C30.8442 156.282 32.4139 155.213 32.4139 155.873C32.4139 156.532 31.7544 157.192 31.0949 156.532Z" fill="#DFDFDF"/>
<path d="M28.4567 161.15C27.1376 161.589 23.8398 162.469 23.8398 163.788C35.4479 169.592 42.5728 170.464 44.6842 170.175C44.6561 169.893 44.6329 169.631 44.6159 169.393C44.5961 169.116 44.608 168.868 44.6465 168.647C41.7428 168.566 34.9896 166.822 31.2067 160.49C30.0981 160.661 29.137 160.877 28.4567 161.15Z" fill="#909090"/>
<path d="M23.8398 163.788C23.8398 165.835 26.7779 170.744 35.7117 172.401C37.8222 172.433 42.6527 171.646 44.8042 171.248C44.7583 170.87 44.7177 170.509 44.6842 170.175C42.5728 170.464 35.4479 169.592 23.8398 163.788Z" fill="#DFDFDF"/>
<path d="M45.0174 172.876C44.9395 172.317 44.8669 171.766 44.8042 171.248C42.6527 171.646 37.8222 172.433 35.7117 172.401C38.2898 172.879 41.3672 173.087 45.0174 172.876Z" fill="#909090"/>
<path d="M45.8216 178.033H52.252C52.252 176.128 52.0112 174.384 51.6438 172.876C51.5441 172.467 51.435 172.075 51.3189 171.702C51.2248 171.4 51.1262 171.111 51.0241 170.834C50.8527 170.37 50.6716 169.944 50.4866 169.558C50.2371 169.038 49.9804 168.592 49.7308 168.231C49.575 168.006 49.4219 167.813 49.275 167.656C49.0413 167.406 48.8234 167.245 48.6349 167.182C48.4173 167.11 48.1327 167.043 47.8154 167.001C47.1963 166.92 46.4522 166.934 45.8365 167.182C45.5171 167.311 45.2323 167.503 45.0174 167.778C44.8387 168.007 44.7083 168.293 44.6465 168.647C44.608 168.868 44.5961 169.116 44.6159 169.393C44.6329 169.631 44.6561 169.893 44.6842 170.175C44.7177 170.509 44.7583 170.87 44.8042 171.248C44.8669 171.766 44.9395 172.317 45.0174 172.876C45.288 174.821 45.6217 176.874 45.8216 178.033Z" fill="#909090"/>
<path d="M44.4312 159.945C44.0199 163.202 45.1966 166.127 45.8365 167.182C46.4522 166.934 47.1963 166.92 47.8154 167.001C48.2192 166.055 48.9483 163.398 48.6349 160.347C46.8605 160.226 45.4592 160.056 44.4312 159.945Z" fill="#DFDFDF"/>
<path d="M42.9667 159.83C42.4476 159.83 40.6004 159.83 38.3499 159.911C40.9881 164.724 43.8941 167.161 45.0174 167.778C45.2323 167.503 45.5171 167.311 45.8365 167.182C45.1966 166.127 44.0199 163.202 44.4312 159.945C43.8042 159.877 43.6262 159.83 42.9667 159.83Z" fill="#909090"/>
<path d="M31.2067 160.49C34.9896 166.822 41.7428 168.566 44.6465 168.647C44.7083 168.293 44.8387 168.007 45.0174 167.778C43.8941 167.161 40.9881 164.724 38.3499 159.911C36.0618 159.993 33.3568 160.157 31.2067 160.49Z" fill="#DFDFDF"/>
<path d="M35.0521 157.852C34.6394 157.439 34.6564 156.532 35.7117 156.532C37.0308 156.532 38.3499 158.511 37.0308 158.511C35.9755 158.511 35.272 158.071 35.0521 157.852Z" fill="#DFDFDF"/>
<path fill-rule="evenodd" clip-rule="evenodd" d="M23.8398 163.788C23.8398 162.469 27.1376 161.589 28.4567 161.15C29.137 160.877 30.0981 160.661 31.2067 160.49C33.3568 160.157 36.0618 159.993 38.3499 159.911C40.6004 159.83 42.4476 159.83 42.9667 159.83C43.6262 159.83 43.8042 159.877 44.4312 159.945C45.4592 160.056 46.8605 160.226 48.6349 160.347C49.8641 160.43 51.2725 160.49 52.8599 160.49C53.1799 160.49 53.4878 160.488 53.7843 160.483C58.0864 160.417 59.9894 159.902 61.7409 159.837C61.8589 159.833 61.9762 159.83 62.0935 159.83C63.1981 159.83 65.947 160.447 68.2748 161.336C69.8551 161.94 71.2414 162.669 71.7874 163.415C71.8779 163.539 71.9453 163.664 71.9867 163.788C71.931 162.095 70.3149 159.825 69.5138 158.901C69.4735 159.009 69.4185 159.101 69.3486 159.171C68.689 159.83 66.0508 157.852 67.3699 157.192C63.1488 154.026 57.2569 152.795 54.8385 152.575C54.8385 153.894 50.2217 153.895 50.2217 151.916C46.5282 151.388 42.0873 151.756 40.3285 152.006C40.4216 152.174 40.433 152.367 40.3285 152.575C39.669 153.895 37.0308 153.895 37.0308 152.575C33.3373 152.575 28.8964 155.214 27.1376 156.533C28.298 157.693 25.8185 160.49 24.4994 159.83C23.9718 161.413 23.8398 163.128 23.8398 163.788ZM31.0949 156.532C30.8442 156.282 32.4139 155.213 32.4139 155.873C32.4139 156.532 31.7544 157.192 31.0949 156.532ZM29.1162 158.511C29.7385 158.237 31.0054 157.854 31.0949 158.511C31.2067 159.332 27.7971 159.171 29.1162 158.511ZM35.7117 156.532C34.6564 156.532 34.6394 157.439 35.0521 157.852C35.272 158.071 35.9755 158.511 37.0308 158.511C38.3499 158.511 37.0308 156.532 35.7117 156.532ZM42.3071 156.532C42.3071 155.873 42.8348 154.686 44.9453 155.213C47.5835 155.873 42.3071 158.511 42.3071 156.532ZM50.2217 157.192C51.5408 157.154 53.9152 157.364 52.8599 158.511C51.5408 159.945 48.2431 157.192 50.2217 157.192ZM57.4767 156.532C57.4767 155.873 57.8724 154.686 59.4554 155.213C61.434 155.873 57.4767 158.511 57.4767 156.532Z" fill="#547629"/>
<path d="M29.1162 158.511C29.7385 158.237 31.0054 157.854 31.0949 158.511C31.2067 159.332 27.7971 159.171 29.1162 158.511Z" fill="#DFDFDF"/>
<path d="M37.0308 152.575C37.0308 153.895 39.669 153.895 40.3285 152.575C40.433 152.367 40.4216 152.174 40.3285 152.006C39.8338 151.114 37.0308 150.91 37.0308 152.575Z" fill="#DFDFDF"/>
<path d="M42.3071 156.532C42.3071 155.873 42.8348 154.686 44.9453 155.213C47.5835 155.873 42.3071 158.511 42.3071 156.532Z" fill="#DFDFDF"/>
<path d="M50.2217 157.192C51.5408 157.154 53.9152 157.364 52.8599 158.511C51.5408 159.945 48.2431 157.192 50.2217 157.192Z" fill="#DFDFDF"/>
<path d="M50.2217 151.916C50.8813 149.937 54.8385 151.643 54.8385 152.575C54.8385 153.894 50.2217 153.895 50.2217 151.916Z" fill="#DFDFDF"/>
<path d="M57.4767 156.532C57.4767 155.873 57.8724 154.686 59.4554 155.213C61.434 155.873 57.4767 158.511 57.4767 156.532Z" fill="#DFDFDF"/>
<path d="M67.3699 157.192C66.0508 157.852 68.689 159.83 69.3486 159.171C69.4185 159.101 69.4735 159.009 69.5138 158.901C69.8535 157.996 69.1389 156.013 67.3699 157.192Z" fill="#DFDFDF"/>
<path d="M71.7874 163.415C69.5175 169.449 56.9994 170.876 51.0241 170.834C51.1262 171.111 51.2248 171.4 51.3189 171.702C53.4681 171.888 57.548 172.151 59.5153 171.99C59.8327 171.935 60.1503 171.877 60.4672 171.816C67.083 170.548 73.4172 168.079 71.9867 163.788C71.9453 163.664 71.8779 163.539 71.7874 163.415Z" fill="#909090"/>
<path d="M51.3189 171.702C51.435 172.075 51.5441 172.467 51.6438 172.876C53.8636 172.763 56.6824 172.484 59.5153 171.99C57.548 172.151 53.4681 171.888 51.3189 171.702Z" fill="#DFDFDF"/>
<path d="M68.2748 161.336C66.8882 166.762 55.8383 169.078 50.4866 169.558C50.6716 169.944 50.8527 170.37 51.0241 170.834C56.9994 170.876 69.5175 169.449 71.7874 163.415C71.2414 162.669 69.8551 161.94 68.2748 161.336Z" fill="#DFDFDF"/>
<path d="M62.0935 159.83C61.9762 159.83 61.8589 159.833 61.7409 159.837C60.9311 164.591 53.3968 167.414 49.7308 168.231C49.9804 168.592 50.2371 169.038 50.4866 169.558C55.8383 169.078 66.8882 166.762 68.2748 161.336C65.947 160.447 63.1981 159.83 62.0935 159.83Z" fill="#909090"/>
<path d="M53.7843 160.483C53.4686 163.116 50.6465 166.362 49.275 167.656C49.4219 167.813 49.575 168.006 49.7308 168.231C53.3968 167.414 60.9311 164.591 61.7409 159.837C59.9894 159.902 58.0864 160.417 53.7843 160.483Z" fill="#DFDFDF"/>
<path d="M47.8154 167.001C48.1327 167.043 48.4173 167.11 48.6349 167.182C48.8234 167.245 49.0413 167.406 49.275 167.656C50.6465 166.362 53.4686 163.116 53.7843 160.483C53.4878 160.488 53.1799 160.49 52.8599 160.49C51.2725 160.49 49.8641 160.43 48.6349 160.347C48.9483 163.398 48.2192 166.055 47.8154 167.001Z" fill="#909090"/>
<path d="M45.8216 178.033C44.4302 179.88 42.5709 183.442 46.2644 182.915C46.924 178.957 48.2431 183.574 49.5622 182.915C50.3078 182.542 51.2442 179.498 52.252 181.595C53.5195 184.234 54.8386 182.255 54.8386 181.595C54.8386 180.936 54.9417 180.407 52.252 178.033H45.8216Z" fill="#547629"/>
<path d="M44.2855 196.765C44.1125 196.823 43.9545 196.856 43.8104 196.867C41.0535 197.502 41.6473 198.32 41.6473 202.701C41.6473 207.318 45.6046 206.658 50.881 206.658C56.1574 206.658 55.4978 203.36 56.1574 200.722C56.685 198.612 55.0584 197.644 54.179 197.425C50.881 196.6 46.2642 196.325 44.2855 196.765Z" fill="#909090"/>
<path d="M52.8599 191.489C51.8028 191.489 45.6049 190.829 44.9454 190.829C43.8461 190.829 42.3072 191.139 42.3072 192.808C42.3072 194.613 42.3072 196.974 43.8104 196.867C43.9589 196.832 44.117 196.799 44.2855 196.765C46.2642 196.325 50.881 196.6 54.179 197.425C54.8385 196.765 58.1366 191.928 52.8599 191.489Z" fill="#909090"/>
<path d="M52.2004 187.531C51.1012 187.312 47.8034 186.872 46.2645 186.872C45.1652 186.872 43.6263 186.872 43.6263 188.191C43.6263 189.29 43.6263 190.829 44.9454 190.829C45.6049 190.829 51.8028 191.489 52.8599 191.489C53.5195 191.489 54.179 190.829 54.8386 189.51C55.3662 188.455 53.2996 187.751 52.2004 187.531Z" fill="#909090"/>
<path d="M49.5622 182.915C48.2431 183.574 46.924 178.957 46.2644 182.915L46.2645 186.872C47.8034 186.872 51.1012 187.312 52.2004 187.531L52.252 181.595C51.2442 179.498 50.3078 182.542 49.5622 182.915Z" fill="#909090"/>
</svg>
