<svg width="126" height="300" viewBox="0 0 126 300" fill="none" xmlns="http://www.w3.org/2000/svg">
<path fill-rule="evenodd" clip-rule="evenodd" d="M40.0496 54.9987V157.925C40.0496 159.994 39.6953 162.047 39.002 163.995L2.58865 266.352C0.934934 271.001 1.12936 276.273 4.51238 279.865C13.4135 289.314 32.8125 299.734 65.3871 299.734C96.6775 299.734 113.577 288.406 121.294 279.982C124.681 276.284 124.882 270.96 123.141 266.257L85.3127 164.094C84.5674 162.081 84.1859 159.952 84.1859 157.805V62.3408C83.9134 56.3584 84.5128 43.5778 89.0899 40.3146C94.8113 36.2357 97.2633 19.92 79.2818 20.7358V31.3408C71.4354 33.2986 53.6719 32.1565 45.771 31.3408V20.7358C41.6843 19.92 33.3474 19.9198 32.6935 26.4461C31.8762 34.6039 33.5109 37.8673 37.5976 40.3146C41.8027 42.8329 40.0496 52.5511 40.0496 54.9987ZM79.2818 46.0249H45.771C45.771 49.5599 49.2038 56.6301 62.9351 56.6301C76.6664 56.6301 80.3716 49.5599 79.2818 46.0249Z" fill="#3D3D3D"/>
<path d="M45.771 46.0249H79.2818C80.3716 49.5599 76.6664 56.6301 62.9351 56.6301C49.2038 56.6301 45.771 49.5599 45.771 46.0249Z" fill="#547629"/>
<path d="M79.2818 20.7358L81.7339 3.60349C74.9227 0.884212 57.7041 -2.92278 43.3189 3.60349L45.771 20.7358V31.3408C53.6719 32.1565 71.4354 33.2986 79.2818 31.3408V20.7358Z" fill="#547629"/>
<path d="M31.6685 212.805C29.9097 211.046 34.3066 207.529 35.186 208.408C36.7333 209.955 33.4272 213.685 31.6685 212.805Z" fill="#DFDFDF"/>
<path d="M40.4624 208.408C40.1282 208.074 42.2212 206.649 42.2212 207.528C42.2212 208.408 41.3418 209.287 40.4624 208.408Z" fill="#DFDFDF"/>
<path d="M36.9448 214.564C35.186 215.15 30.7891 216.323 30.7891 218.081C46.2664 225.82 55.7663 226.983 58.5816 226.597C58.544 226.222 58.5132 225.872 58.4905 225.555C58.4641 225.185 58.4799 224.855 58.5313 224.56C54.6596 224.453 45.6554 222.127 40.6115 213.685C39.1334 213.913 37.852 214.201 36.9448 214.564Z" fill="#909090"/>
<path d="M30.7891 218.081C30.7891 220.811 34.7065 227.357 46.6182 229.566C49.4322 229.608 55.8729 228.559 58.7415 228.029C58.6803 227.525 58.6262 227.043 58.5816 226.597C55.7663 226.983 46.2664 225.82 30.7891 218.081Z" fill="#DFDFDF"/>
<path d="M59.0258 230.2C58.922 229.454 58.8251 228.72 58.7415 228.029C55.8729 228.559 49.4322 229.608 46.6182 229.566C50.0556 230.204 54.1589 230.48 59.0258 230.2Z" fill="#909090"/>
<path d="M60.0981 237.076H68.6719C68.6719 234.536 68.3509 232.21 67.861 230.2C67.728 229.654 67.5826 229.131 67.4278 228.634C67.3024 228.232 67.1709 227.846 67.0348 227.477C66.8062 226.858 66.5647 226.289 66.3181 225.775C65.9854 225.081 65.6432 224.488 65.3104 224.006C65.1026 223.706 64.8984 223.449 64.7025 223.239C64.3911 222.906 64.1004 222.691 63.8491 222.607C63.559 222.511 63.1796 222.422 62.7565 222.367C61.9309 222.258 60.9388 222.276 60.1179 222.607C59.6921 222.779 59.3124 223.035 59.0258 223.402C58.7875 223.707 58.6136 224.088 58.5313 224.56C58.4799 224.855 58.4641 225.185 58.4905 225.555C58.5132 225.872 58.544 226.222 58.5816 226.597C58.6262 227.043 58.6803 227.525 58.7415 228.029C58.8251 228.72 58.922 229.454 59.0258 230.2C59.3866 232.793 59.8315 235.529 60.0981 237.076Z" fill="#909090"/>
<path d="M58.2442 212.958C57.6957 217.301 59.2648 221.2 60.1179 222.607C60.9388 222.276 61.9309 222.258 62.7565 222.367C63.2948 221.104 64.267 217.562 63.8491 213.494C61.4832 213.333 59.6149 213.106 58.2442 212.958Z" fill="#DFDFDF"/>
<path d="M56.2915 212.805C55.5993 212.805 53.1364 212.805 50.1358 212.912C53.6533 219.33 57.5281 222.579 59.0258 223.402C59.3124 223.035 59.6921 222.779 60.1179 222.607C59.2648 221.2 57.6957 217.301 58.2442 212.958C57.4082 212.867 57.1709 212.805 56.2915 212.805Z" fill="#909090"/>
<path d="M40.6115 213.685C45.6554 222.127 54.6596 224.453 58.5313 224.56C58.6136 224.088 58.7875 223.707 59.0258 223.402C57.5281 222.579 53.6533 219.33 50.1358 212.912C47.085 213.021 43.4783 213.241 40.6115 213.685Z" fill="#DFDFDF"/>
<path d="M45.7388 210.167C45.1885 209.616 45.2111 208.408 46.6182 208.408C48.377 208.408 50.1358 211.046 48.377 211.046C46.9699 211.046 46.0319 210.46 45.7388 210.167Z" fill="#DFDFDF"/>
<path fill-rule="evenodd" clip-rule="evenodd" d="M30.7891 218.081C30.7891 216.323 35.186 215.15 36.9448 214.564C37.852 214.201 39.1334 213.913 40.6115 213.685C43.4783 213.241 47.085 213.021 50.1358 212.912C53.1364 212.805 55.5993 212.805 56.2915 212.805C57.1709 212.805 57.4082 212.867 58.2442 212.958C59.6149 213.106 61.4832 213.333 63.8491 213.494C65.4881 213.605 67.3659 213.685 69.4825 213.685C69.9092 213.685 70.3197 213.681 70.715 213.675C76.4511 213.587 78.9884 212.9 81.3237 212.814C81.4811 212.808 81.6376 212.805 81.794 212.805C83.2667 212.805 86.9319 213.627 90.0357 214.813C92.1427 215.617 93.9911 216.589 94.7192 217.585C94.8398 217.75 94.9297 217.916 94.9849 218.082C94.9106 215.824 92.7558 212.797 91.6877 211.566C91.634 211.709 91.5605 211.832 91.4673 211.925C90.588 212.805 87.0704 210.167 88.8292 209.287C83.201 205.066 75.3451 203.425 72.1206 203.132C72.1206 204.89 65.9649 204.891 65.9649 202.252C61.0403 201.549 55.119 202.04 52.7739 202.373C52.8981 202.597 52.9132 202.853 52.7739 203.132C51.8946 204.891 48.377 204.891 48.377 203.132C43.4524 203.132 37.5311 206.649 35.186 208.408C36.7333 209.955 33.4272 213.685 31.6685 212.805C30.9649 214.916 30.7891 217.202 30.7891 218.081ZM40.4624 208.408C40.1282 208.074 42.2212 206.649 42.2212 207.528C42.2212 208.408 41.3418 209.287 40.4624 208.408ZM37.8242 211.046C38.6539 210.681 40.3431 210.17 40.4624 211.046C40.6115 212.141 36.0654 211.925 37.8242 211.046ZM46.6182 208.408C45.2111 208.408 45.1885 209.616 45.7388 210.167C46.0319 210.46 46.9699 211.046 48.377 211.046C50.1358 211.046 48.377 208.408 46.6182 208.408ZM55.4121 208.408C55.4121 207.528 56.1157 205.946 58.9297 206.649C62.4473 207.528 55.4121 211.046 55.4121 208.408ZM65.9649 209.287C67.7237 209.236 70.8895 209.517 69.4825 211.046C67.7237 212.958 63.3267 209.287 65.9649 209.287ZM75.6382 208.408C75.6382 207.528 76.1659 205.946 78.2764 206.649C80.9146 207.528 75.6382 211.046 75.6382 208.408Z" fill="#547629"/>
<path d="M37.8242 211.046C38.6539 210.681 40.3431 210.17 40.4624 211.046C40.6115 212.141 36.0654 211.925 37.8242 211.046Z" fill="#DFDFDF"/>
<path d="M48.377 203.132C48.377 204.891 51.8946 204.891 52.7739 203.132C52.9132 202.853 52.8981 202.597 52.7739 202.373C52.1143 201.183 48.377 200.912 48.377 203.132Z" fill="#DFDFDF"/>
<path d="M55.4121 208.408C55.4121 207.528 56.1157 205.946 58.9297 206.649C62.4473 207.528 55.4121 211.046 55.4121 208.408Z" fill="#DFDFDF"/>
<path d="M65.9649 209.287C67.7237 209.236 70.8895 209.517 69.4825 211.046C67.7237 212.958 63.3267 209.287 65.9649 209.287Z" fill="#DFDFDF"/>
<path d="M65.9649 202.252C66.8443 199.614 72.1206 201.888 72.1206 203.132C72.1206 204.89 65.9649 204.891 65.9649 202.252Z" fill="#DFDFDF"/>
<path d="M75.6382 208.408C75.6382 207.528 76.1659 205.946 78.2764 206.649C80.9146 207.528 75.6382 211.046 75.6382 208.408Z" fill="#DFDFDF"/>
<path d="M88.8292 209.287C87.0704 210.167 90.588 212.805 91.4673 211.925C91.5605 211.832 91.634 211.709 91.6877 211.566C92.1406 210.36 91.1878 207.715 88.8292 209.287Z" fill="#DFDFDF"/>
<path d="M94.7192 217.585C91.6925 225.63 75.0018 227.532 67.0348 227.477C67.1709 227.846 67.3024 228.232 67.4278 228.634C70.2934 228.882 75.7332 229.232 78.3563 229.018C78.7795 228.945 79.2029 228.867 79.6255 228.786C88.4466 227.096 96.8922 223.803 94.9849 218.082C94.9297 217.916 94.8398 217.75 94.7192 217.585Z" fill="#909090"/>
<path d="M67.4278 228.634C67.5826 229.131 67.728 229.654 67.861 230.2C70.8208 230.048 74.5792 229.676 78.3563 229.018C75.7332 229.232 70.2934 228.882 67.4278 228.634Z" fill="#DFDFDF"/>
<path d="M90.0357 214.813C88.1869 222.047 73.4536 225.135 66.3181 225.775C66.5647 226.289 66.8062 226.858 67.0348 227.477C75.0018 227.532 91.6925 225.63 94.7192 217.585C93.9911 216.589 92.1427 215.617 90.0357 214.813Z" fill="#DFDFDF"/>
<path d="M81.794 212.805C81.6376 212.805 81.4811 212.808 81.3237 212.814C80.244 219.153 70.1983 222.917 65.3104 224.006C65.6432 224.488 65.9854 225.081 66.3181 225.775C73.4536 225.135 88.1869 222.047 90.0357 214.813C86.9319 213.627 83.2667 212.805 81.794 212.805Z" fill="#909090"/>
<path d="M70.715 213.675C70.2941 217.185 66.5313 221.514 64.7025 223.239C64.8984 223.449 65.1026 223.706 65.3104 224.006C70.1983 222.917 80.244 219.153 81.3237 212.814C78.9884 212.9 76.4511 213.587 70.715 213.675Z" fill="#DFDFDF"/>
<path d="M62.7565 222.367C63.1796 222.422 63.559 222.511 63.8491 222.607C64.1004 222.691 64.3911 222.906 64.7025 223.239C66.5313 221.514 70.2941 217.185 70.715 213.675C70.3197 213.681 69.9092 213.685 69.4825 213.685C67.3659 213.685 65.4881 213.605 63.8491 213.494C64.267 217.562 63.2948 221.104 62.7565 222.367Z" fill="#909090"/>
<path d="M60.0981 237.076C58.2429 239.538 55.7638 244.287 60.6884 243.584C61.568 238.308 63.3268 244.463 65.0856 243.584C66.0797 243.087 67.3282 239.029 68.6719 241.825C70.3619 245.343 72.1207 242.705 72.1207 241.825C72.1207 240.946 72.2582 240.241 68.6719 237.076H60.0981Z" fill="#547629"/>
<path d="M58.05 262.051C57.8192 262.129 57.6086 262.173 57.4165 262.187C53.7406 263.034 54.5324 264.125 54.5324 269.966C54.5324 276.122 59.8088 275.242 66.8439 275.242C73.8791 275.242 72.9997 270.845 73.8791 267.328C74.5826 264.514 72.4138 263.224 71.2413 262.931C66.8439 261.831 60.6882 261.465 58.05 262.051Z" fill="#909090"/>
<path d="M69.4825 255.016C68.0729 255.016 59.8092 254.137 58.9298 254.137C57.4641 254.137 55.4123 254.55 55.4122 256.775C55.4121 259.182 55.4122 262.33 57.4165 262.187C57.6144 262.141 57.8253 262.096 58.05 262.051C60.6882 261.465 66.8439 261.831 71.2413 262.931C72.1206 262.051 76.5181 255.602 69.4825 255.016Z" fill="#909090"/>
<path d="M68.6031 249.74C67.1375 249.447 62.7405 248.86 60.6886 248.86C59.2229 248.86 57.171 248.86 57.171 250.619C57.171 252.085 57.171 254.137 58.9298 254.137C59.8092 254.137 68.0729 255.016 69.4825 255.016C70.3619 255.016 71.2413 254.137 72.1207 252.378C72.8242 250.971 70.0688 250.033 68.6031 249.74Z" fill="#909090"/>
<path d="M65.0856 243.584C63.3268 244.463 61.568 238.308 60.6884 243.584L60.6886 248.86C62.7405 248.86 67.1375 249.447 68.6031 249.74L68.6719 241.825C67.3282 239.029 66.0797 243.087 65.0856 243.584Z" fill="#909090"/>
</svg>
