<svg width="300" height="351" viewBox="0 0 300 351" fill="none" xmlns="http://www.w3.org/2000/svg">
<path d="M149.895 0C67.1104 0 0 67.1104 0 149.895C0 200.836 25.4108 245.842 64.2481 272.928C88.5262 289.861 118.051 299.791 149.895 299.791C181.739 299.791 211.264 289.861 235.542 272.928C274.38 245.842 299.791 200.836 299.791 149.895C299.791 67.1104 232.68 0 149.895 0Z" fill="#3D3D3D"/>
<path d="M235.542 272.928C211.264 289.861 181.739 299.791 149.895 299.791C118.051 299.791 88.5262 289.861 64.2481 272.928L47.1918 288.781C45.0508 290.771 43.8345 293.562 43.8345 296.485V302.946C37.5231 306.102 24.1114 323.458 34.3674 331.347C130.172 371.582 256.843 339.237 267.099 328.981C275.304 320.776 261.577 306.102 253.688 299.791V296.121C253.688 293.413 252.643 290.809 250.771 288.852L235.542 272.928Z" fill="#547629"/>
<path d="M155.416 278.495C193.81 281.125 274.07 264.137 287.955 175.146C282.17 208.018 247.562 274.708 155.416 278.495Z" fill="#547629"/>
<path d="M20.5117 178.297C21.8266 191.183 26.6653 216.796 35.5012 216.165C37.0791 214.587 24.4563 198.02 20.5117 178.297Z" fill="#547629"/>
<path d="M29.1899 190.92C29.4528 194.075 31.0833 201.176 35.5012 204.331C33.1345 198.02 32.3456 197.231 29.1899 190.92Z" fill="#547629"/>
<path d="M89.1484 268.043C99.8909 275.28 112.027 278.884 117.583 275.654C116.761 270.206 104.927 274.151 89.1484 268.043Z" fill="#547629"/>
<path d="M65.363 75.1916C60.7554 80.5308 46.1647 83.7725 39.4453 84.7259C54.42 87.0141 60.5634 89.0163 65.363 93.7835C71.1225 99.5041 73.6823 113.011 74.9621 120.479C75.4421 113.964 77.9379 99.5041 84.0813 93.7835C90.2248 88.0629 103.92 85.3615 109.999 84.7259C103.76 85.2026 88.4275 79.5085 84.0813 75.1916C78.3218 69.4711 75.9221 57.3943 74.4822 49.9258C73.5223 56.1231 71.1225 68.5176 65.363 75.1916Z" fill="#547629"/>
<path d="M86.3274 220.324C83.8838 223.155 76.1456 224.874 72.582 225.38C80.5238 226.594 83.782 227.655 86.3274 230.184C89.3819 233.218 90.7395 240.381 91.4183 244.342C91.6728 240.887 92.9965 233.218 96.2546 230.184C99.5128 227.15 106.776 225.717 110 225.38C106.691 225.633 98.5596 222.613 96.2546 220.324C93.2001 217.29 91.9274 210.885 91.1637 206.924C90.6547 210.211 89.3819 216.784 86.3274 220.324Z" fill="#547629"/>
<path d="M260.65 137.121C258.401 139.726 251.28 141.309 248 141.774C255.309 142.891 258.307 143.868 260.65 146.195C263.461 148.987 264.71 155.579 265.335 159.224C265.569 156.044 266.787 148.987 269.785 146.195C272.784 143.403 279.468 142.084 282.435 141.774C279.39 142.007 271.907 139.227 269.785 137.121C266.974 134.328 265.803 128.434 265.1 124.789C264.632 127.814 263.461 133.863 260.65 137.121Z" fill="#547629"/>
</svg>
