<svg width="225" height="264" viewBox="0 0 225 264" fill="none" xmlns="http://www.w3.org/2000/svg">
<path d="M112.421 0C50.3328 0 0 50.3328 0 112.421C0 150.627 19.0581 184.381 48.1861 204.696C66.3946 217.395 88.5383 224.843 112.421 224.843C136.305 224.843 158.448 217.395 176.657 204.696C205.785 184.381 224.843 150.627 224.843 112.421C224.843 50.3328 174.51 0 112.421 0Z" fill="#3D3D3D"/>
<path d="M176.657 204.696C158.448 217.395 136.305 224.843 112.421 224.843C88.5383 224.843 66.3946 217.395 48.1861 204.696L35.3939 216.586C33.7881 218.078 32.8759 220.171 32.8759 222.364V227.21C28.1423 229.576 18.0836 242.594 25.7756 248.511C97.6292 278.687 192.633 254.428 200.325 246.736C206.478 240.582 196.183 229.576 190.266 224.843V222.091C190.266 220.06 189.482 218.107 188.078 216.639L176.657 204.696Z" fill="#547629"/>
<path d="M116.562 208.871C145.358 210.843 205.553 198.102 215.967 131.359C211.628 156.013 185.672 206.031 116.562 208.871Z" fill="#547629"/>
<path d="M15.3828 133.723C16.369 143.387 19.998 162.597 26.625 162.124C27.8083 160.94 18.3413 148.515 15.3828 133.723Z" fill="#547629"/>
<path d="M21.8914 143.19C22.0887 145.556 23.3115 150.882 26.625 153.248C24.8499 148.515 24.2582 147.923 21.8914 143.19Z" fill="#547629"/>
<path d="M66.8613 201.031C74.9182 206.459 84.0204 209.162 88.1869 206.74C87.5705 202.654 78.6952 205.612 66.8613 201.031Z" fill="#547629"/>
<path d="M49.0223 56.3947C45.5666 60.3991 34.6235 62.8303 29.584 63.5454C40.815 65.2616 45.4226 66.7632 49.0223 70.3386C53.3419 74.629 55.2617 84.7592 56.2216 90.3606C56.5816 85.4743 58.4534 74.629 63.061 70.3386C67.6686 66.0482 77.9397 64.0221 82.4993 63.5454C77.8197 63.903 66.3206 59.6323 63.061 56.3947C58.7414 52.1043 56.9415 43.0467 55.8616 37.4453C55.1417 42.0933 53.3419 51.3892 49.0223 56.3947Z" fill="#547629"/>
<path d="M64.7465 165.243C62.9138 167.367 57.1102 168.656 54.4375 169.035C60.3938 169.946 62.8375 170.742 64.7465 172.638C67.0374 174.914 68.0556 180.286 68.5647 183.257C68.7556 180.665 69.7483 174.914 72.1919 172.638C74.6356 170.363 80.0828 169.288 82.501 169.035C80.0192 169.225 73.9207 166.96 72.1919 165.243C69.901 162.968 68.9465 158.164 68.3738 155.193C67.992 157.658 67.0374 162.588 64.7465 165.243Z" fill="#547629"/>
<path d="M195.487 102.84C193.801 104.795 188.46 105.981 186 106.33C191.481 107.168 193.73 107.901 195.487 109.646C197.595 111.74 198.532 116.684 199.001 119.418C199.177 117.033 200.09 111.74 202.339 109.646C204.588 107.552 209.601 106.563 211.826 106.33C209.542 106.505 203.93 104.421 202.339 102.84C200.231 100.746 199.352 96.3257 198.825 93.5918C198.474 95.8603 197.595 100.397 195.487 102.84Z" fill="#547629"/>
</svg>
