<svg width="113" height="225" viewBox="0 0 113 225" fill="none" xmlns="http://www.w3.org/2000/svg">
<path d="M10.8155 156.836C26.9925 199.145 32.5918 225.277 46.28 224.654C59.9682 224.032 73.0342 229.01 82.367 209.722C91.6999 190.434 116.588 133.192 103.522 117.638C102.593 115.914 101.574 114.252 100.492 112.659C98.1709 109.241 95.5612 106.139 92.9443 103.419C87.6214 97.8865 82.6248 95.1917 79.6117 93.3839C76.7082 92.5543 70.6698 87.8968 71.1676 80.9283C71.7898 72.2176 74.9007 58.5294 92.9443 61.0182C110.988 63.5069 101.033 99.7788 92.9443 103.419C95.5612 106.139 98.1709 109.241 100.492 112.659C106.065 104.778 116.09 84.7848 111.61 67.8612C106.01 46.7067 92.3221 43.5957 71.1676 53.5508C70.1308 48.5729 74.6518 34.6351 83.6109 23.6846C87.5925 17.7115 76.1318 17.4627 72.0812 17.4627V20.8931C72.0812 23.2479 70.4385 25.2946 68.0982 25.5555C60.3597 26.4181 49.8186 25.9476 42.6411 25.3546C40.1023 25.1448 38.1915 23.002 38.1915 20.4546V17.4627C26.3704 18.707 23.8796 21.1958 33.8356 35.5062C40.4475 45.0099 39.6431 51.2684 38.1915 52.3053C31.9696 47.95 16.7881 42.7236 5.83756 56.6607C-7.85063 74.082 8.32632 109.095 13.3039 113.366C15.0982 110.321 17.1523 107.593 19.31 105.192C13.846 94.1992 6.19629 70.3481 19.31 62.8826C35.7022 53.5508 45.0351 70.8771 42.5463 87.148C41.0531 91.6278 35.7022 92.1277 32.5922 94.6165C28.6331 96.6934 23.7519 100.249 19.31 105.192C17.1523 107.593 15.0982 110.321 13.3039 113.366C6.9888 124.084 3.89134 138.726 10.8155 156.836Z" fill="#3D3D3D"/>
<path d="M72.3406 7.21559C72.3849 5.46622 71.5242 3.79498 69.937 3.05795C63.969 0.286571 52.8612 -2.16039 40.8909 3.08725C39.1997 3.82865 38.1915 5.5508 38.1915 7.39736V17.4627C43.3635 17.0479 57.3822 16.4672 72.0812 17.4627L72.3406 7.21559Z" fill="#547629"/>
<path d="M68.0982 25.5555C70.4385 25.2946 72.0812 23.2479 72.0812 20.8931V17.4627C57.3822 16.4672 43.3635 17.0479 38.1915 17.4627V20.4546C38.1915 23.002 40.1023 25.1448 42.6411 25.3546C49.8186 25.9476 60.3597 26.4181 68.0982 25.5555Z" fill="#547629"/>
<path d="M44.176 132.183C35.9654 136.786 44.6036 145.183 49.9491 148.805C52.0018 150.851 49.949 155.198 48.6661 157.116C48.4522 154.133 46.3568 148.933 39.6857 152.002C33.0146 155.07 40.3272 162.657 44.8173 166.066C46.314 168.197 48.666 172.459 46.1002 172.459C43.5344 172.459 41.6101 174.164 40.9686 175.017C34.2975 182.177 44.176 189.081 49.9491 191.639C48.2385 196.966 46.6134 207.493 53.7976 206.982C60.9819 206.471 62.7779 196.54 62.7779 191.639C63.2055 193.77 66.2417 195.602 74.9655 185.885C83.6892 176.167 79.028 172.033 75.6069 171.181V166.066C78.8142 166.066 91.6432 157.116 85.2287 155.198C80.0971 153.664 76.676 157.968 75.6069 160.313C75.6069 156.732 72.6135 156.264 71.1168 156.477C64.4457 157.5 66.6266 168.837 68.551 174.377C63.9325 174.889 61.9226 181.836 61.495 185.246C57.3897 181.154 53.7976 183.115 52.5147 184.606C50.3765 182.475 46.87 177.957 49.9491 176.935C53.0281 175.912 55.9359 172.673 57.0049 171.181C63.6759 159.929 56.791 161.378 52.5147 163.509V158.395C58.0739 152.854 67.7812 141.006 62.1365 137.937C56.4917 134.868 53.37 140.068 52.5147 143.052C53.1562 137.511 52.3866 127.58 44.176 132.183Z" fill="#547629"/>
</svg>
