<svg width="113" height="225" viewBox="0 0 113 225" fill="none" xmlns="http://www.w3.org/2000/svg">
<path d="M10.8155 156.836C26.9925 199.144 32.5918 225.276 46.28 224.654C59.9682 224.032 73.0342 229.01 82.367 209.722C91.6999 190.434 116.588 133.192 103.522 117.637C102.593 115.914 101.574 114.252 100.492 112.659C98.1709 109.241 95.5612 106.139 92.9443 103.419C87.6215 97.8865 82.6248 95.1917 79.6117 93.3839C76.7082 92.5543 70.6698 87.8968 71.1676 80.9282C71.7898 72.2176 74.9007 58.5294 92.9443 61.0181C110.988 63.5069 101.033 99.7788 92.9443 103.419C95.5612 106.139 98.1709 109.241 100.492 112.659C106.065 104.778 116.09 84.7847 111.61 67.8612C106.01 46.7067 92.3221 43.5957 71.1676 53.5508C70.1308 48.5729 74.6518 34.6351 83.6109 23.6846C87.5925 17.7115 76.1318 17.4627 72.0812 17.4627V24.9289C71.8502 27.8325 67.4339 45.4612 54.9901 44.8391C42.5217 44.2156 38.8133 29.0769 38.1915 24.9289V17.4627C26.3704 18.707 23.8796 21.1958 33.8356 35.5062C40.4475 45.0099 39.6431 51.2684 38.1915 52.3053C31.9696 47.95 16.7881 42.7236 5.83756 56.6607C-7.85063 74.082 8.32633 109.095 13.3039 113.366C15.0982 110.321 17.1523 107.593 19.31 105.192C13.846 94.1992 6.19629 70.348 19.31 62.8826C35.7022 53.5508 45.0351 70.8771 42.5463 87.148C41.0531 91.6278 35.7022 92.1277 32.5922 94.6164C28.6331 96.6934 23.7519 100.249 19.31 105.192C17.1523 107.593 15.0982 110.321 13.3039 113.366C6.9888 124.084 3.89134 138.726 10.8155 156.836Z" fill="#3D3D3D"/>
<path fill-rule="evenodd" clip-rule="evenodd" d="M38.1915 4.39736C53.1241 -3.56668 67.2271 1.07901 72.412 4.39736L72.0812 17.4627C57.3822 16.4672 43.3635 17.0479 38.1915 17.4627V4.39736ZM38.1915 24.9289C38.8133 29.0769 42.5217 44.2156 54.9901 44.8391C67.4339 45.4612 71.8502 27.8325 72.0812 24.9289C62.8575 26.92 45.6448 25.7585 38.1915 24.9289Z" fill="#547629"/>
<path d="M72.0812 24.9289V17.4627C57.3822 16.4672 43.3635 17.0479 38.1915 17.4627V24.9289C45.6448 25.7585 62.8575 26.92 72.0812 24.9289Z" fill="#3D3D3D"/>
<path d="M41.2301 118.212C31.5274 123.642 41.7354 133.546 48.0523 137.819C50.478 140.233 48.0523 145.36 46.5361 147.623C46.2835 144.103 43.8072 137.97 35.9238 141.59C28.0404 145.209 36.6818 154.158 41.988 158.18C43.7567 160.694 46.5361 165.721 43.504 165.721C40.4719 165.721 38.1978 167.732 37.4398 168.738C29.5564 177.184 41.23 185.328 48.0523 188.345C46.0308 194.629 44.1104 207.047 52.6002 206.444C61.0901 205.84 63.2125 194.126 63.2125 188.345C63.7179 190.859 67.3059 193.02 77.615 181.558C87.9241 170.095 82.4158 165.219 78.373 164.213V158.18C82.1631 158.18 97.3235 147.623 89.7433 145.36C83.6791 143.55 79.6363 148.628 78.373 151.393C78.373 147.17 74.8355 146.617 73.0668 146.868C65.1834 148.075 67.7607 161.448 70.0347 167.984C64.577 168.587 62.2019 176.782 61.6965 180.804C56.8452 175.977 52.6002 178.29 51.0842 180.05C48.5575 177.536 44.4136 172.207 48.0523 171C51.6909 169.794 55.1271 165.973 56.3904 164.213C64.2738 150.941 56.1377 152.65 51.0842 155.164V149.131C57.6537 142.595 69.1251 128.619 62.4545 124.999C55.7839 121.379 52.0949 127.513 51.0842 131.032C51.8423 124.497 50.9328 112.783 41.2301 118.212Z" fill="#547629"/>
</svg>
