<svg width="150" height="300" viewBox="0 0 150 300" fill="none" xmlns="http://www.w3.org/2000/svg">
<path d="M14.0893 209.114C35.6586 265.526 43.1243 300.369 61.3752 299.539C79.6262 298.709 97.0475 305.346 109.491 279.629C121.935 253.912 155.119 177.59 137.697 156.85C136.46 154.552 135.101 152.336 133.658 150.212C130.563 145.655 127.084 141.519 123.594 137.892C116.497 130.515 109.835 126.922 105.818 124.512C101.946 123.406 93.8951 117.196 94.5588 107.904C95.3883 96.2901 99.5363 78.0392 123.594 81.3575C147.652 84.6759 134.379 133.038 123.594 137.892C127.084 141.519 130.563 145.655 133.658 150.212C141.088 139.704 154.455 113.046 148.482 90.4815C141.016 62.2756 122.765 58.1276 94.5588 71.401C93.1763 64.7638 99.2043 46.1802 111.15 31.5794C116.459 23.6154 101.178 23.2835 95.7769 23.2835V33.2386C95.4689 37.11 89.5805 60.615 72.9888 59.7854C56.3643 58.9542 51.4197 38.7692 50.5906 33.2386V23.2835C34.8291 24.9427 31.5081 28.2611 44.7828 47.3416C53.5987 60.0132 52.5261 68.3578 50.5906 69.7405C42.2947 63.9333 22.0528 56.9648 7.45204 75.5476C-10.7989 98.776 10.7704 145.46 17.4071 151.155C19.7995 147.095 22.5383 143.457 25.4153 140.255C18.1299 125.599 7.93034 93.7974 25.4153 83.8434C47.2716 71.401 59.7154 94.5028 56.397 116.197C54.406 122.17 47.2716 122.837 43.1249 126.155C37.8461 128.924 31.3378 133.665 25.4153 140.255C22.5383 143.457 19.7995 147.095 17.4071 151.155C8.98702 165.445 4.85707 184.968 14.0893 209.114Z" fill="#3D3D3D"/>
<path fill-rule="evenodd" clip-rule="evenodd" d="M50.5906 5.86315C70.5007 -4.75558 89.3047 1.43868 96.2179 5.86315L95.7769 23.2835C76.1782 21.9562 57.4866 22.7305 50.5906 23.2835V5.86315ZM50.5906 33.2386C51.4197 38.7692 56.3643 58.9542 72.9888 59.7854C89.5805 60.615 95.4689 37.11 95.7769 33.2386C83.4786 35.8933 60.5284 34.3447 50.5906 33.2386Z" fill="#547629"/>
<path d="M95.7769 33.2386V23.2835C76.1782 21.9562 57.4866 22.7305 50.5906 23.2835V33.2386C60.5284 34.3447 83.4786 35.8933 95.7769 33.2386Z" fill="#3D3D3D"/>
<path d="M54.6427 157.615C41.7058 164.855 55.3165 178.06 63.739 183.758C66.9733 186.976 63.7389 193.813 61.7175 196.829C61.3805 192.136 58.0789 183.958 47.5677 188.785C37.0564 193.611 48.5784 205.543 55.6532 210.906C58.0115 214.257 61.7174 220.961 57.6746 220.961C53.6318 220.961 50.5997 223.642 49.589 224.982C39.0778 236.244 54.6427 247.103 63.739 251.125C61.0437 259.504 58.4831 276.061 69.8029 275.257C81.1227 274.453 83.9527 258.834 83.9527 251.125C84.6265 254.477 89.4104 257.359 103.156 242.076C116.901 226.792 109.557 220.29 104.167 218.95V210.906C109.22 210.906 129.434 196.829 119.327 193.812C111.241 191.399 105.851 198.169 104.167 201.856C104.167 196.225 99.45 195.488 97.0917 195.823C86.5805 197.432 90.0168 215.263 93.0489 223.977C85.7719 224.781 82.6051 235.708 81.9313 241.07C75.4628 234.635 69.8029 237.719 67.7815 240.065C64.4126 236.713 58.8875 229.608 63.739 227.999C68.5905 226.39 73.1721 221.296 74.8564 218.95C85.3676 201.253 74.5195 203.532 67.7815 206.884V198.84C76.5409 190.125 91.8361 171.49 82.942 166.664C74.0479 161.838 69.1291 170.016 67.7815 174.708C68.7923 165.994 67.5796 150.376 54.6427 157.615Z" fill="#547629"/>
</svg>
