<svg width="265" height="359" viewBox="0 0 265 359" fill="none" xmlns="http://www.w3.org/2000/svg">
<path d="M19.6815 295.051C31.7432 301.102 58.4427 314.715 68.747 320.754C81.6274 328.303 99.4202 344.839 121.887 332.558C136.266 324.698 153.08 329.124 159.69 332.32C166.034 335.386 179.216 338.836 183.149 329.28L145.449 322.994C139.86 322.733 136.764 320.424 121.468 321.115C106.172 321.807 94.8995 319.24 91.1754 317.87C82.9677 314.122 71.7014 307.422 64.297 300.583C57.6525 292.126 38.786 273.644 16.4763 267.368C7.49057 273.644 1.67177 289.772 19.6815 295.051Z" fill="#909090"/>
<path d="M183.594 328.007C183.964 326.748 184.369 325.191 184.749 323.388C181.652 323.5 175.056 323.216 166.538 321.832C161.254 320.974 155.232 319.693 148.847 317.821C148.267 317.651 147.687 317.492 147.106 317.341C139.069 315.266 130.93 315.042 123.214 315.158C112.495 315.319 102.594 316.136 94.9195 313.556C94.156 313.299 93.4145 313.009 92.6965 312.681C84.4888 308.933 73.2224 302.233 65.8181 295.394C63.0688 292.855 60.852 290.296 59.5219 287.863C56.3464 282.054 48.4188 276.031 40.2706 271.656C34.9349 268.792 29.5046 266.635 25.2521 265.708C23.5896 265.345 22.1071 265.171 20.8807 265.216C19.3878 265.634 17.8927 266.379 16.4763 267.368C38.786 273.644 57.6525 292.126 64.297 300.583C71.7014 307.422 82.9677 314.122 91.1754 317.87C94.8995 319.24 106.172 321.807 121.468 321.115C136.764 320.424 139.86 322.733 145.449 322.994L183.149 329.28C183.314 328.879 183.463 328.455 183.594 328.007Z" fill="#3D3D3D"/>
<path d="M92.6965 312.681C93.4145 313.009 94.156 313.299 94.9195 313.556C100.015 307.429 109.343 290.393 105.893 271.27C104.743 264.895 106.36 258.829 107.313 256.593C106.346 256.228 105.364 255.716 104.427 255.036C102.939 258.61 97.4697 266.536 87.5005 269.651C68.3771 273.102 65.0775 288.251 65.8181 295.394C73.2224 302.233 84.4888 308.933 92.6965 312.681Z" fill="#3D3D3D"/>
<path d="M123.214 315.158C126.306 306.36 129.46 285.182 117.336 270.851C112.591 266.441 111.366 260.124 111.347 257.517C110.583 257.463 109.798 257.321 108.994 257.085C108.447 256.97 107.882 256.807 107.313 256.593C106.36 258.829 104.743 264.895 105.893 271.27C109.343 290.393 100.015 307.429 94.9195 313.556C102.594 316.136 112.495 315.319 123.214 315.158Z" fill="#547629"/>
<path d="M147.106 317.341C150.263 304.421 151.712 277.154 132.253 271.45C123.914 269.006 118.743 260.21 117.2 256.118C115.417 257.153 113.46 257.668 111.347 257.517C111.366 260.124 112.591 266.441 117.336 270.851C129.46 285.182 126.306 306.36 123.214 315.158C130.93 315.042 139.069 315.266 147.106 317.341Z" fill="#3D3D3D"/>
<path d="M148.847 317.821C155.232 319.693 161.254 320.974 166.538 321.832C173.162 307.815 178.767 277.539 148.189 268.575C137.07 265.316 124.788 257.44 120.036 253.91C119.147 254.793 118.201 255.537 117.2 256.118C118.743 260.21 123.914 269.006 132.253 271.45C151.712 277.154 150.263 304.421 147.106 317.341C147.687 317.492 148.267 317.651 148.847 317.821Z" fill="#547629"/>
<path d="M184.749 323.388C188.561 305.295 189.779 262.355 125.574 245.114C124.119 248.638 122.258 251.704 120.036 253.91C124.788 257.44 137.07 265.316 148.189 268.575C178.767 277.539 173.162 307.815 166.538 321.832C175.056 323.216 181.652 323.5 184.749 323.388Z" fill="#3D3D3D"/>
<path d="M128.391 217.491C116.509 228.549 110.426 222.904 108.827 218.436C108.489 217.696 108.141 216.931 107.786 216.144C102.232 225.675 99.6561 233.195 98.9653 239.052C98.6178 241.998 98.7472 244.523 99.2143 246.672C99.6142 248.511 100.261 250.074 101.069 251.39C102.015 252.931 103.181 254.131 104.427 255.036C105.364 255.716 106.346 256.228 107.313 256.593C107.882 256.807 108.447 256.97 108.994 257.085C109.798 257.321 110.583 257.463 111.347 257.517C113.46 257.668 115.417 257.153 117.2 256.118C118.201 255.537 119.147 254.793 120.036 253.91C122.258 251.704 124.119 248.638 125.574 245.114C129.06 236.673 130.213 225.611 128.391 217.491Z" fill="#3D3D3D"/>
<path d="M59.5219 287.863C60.852 290.296 63.0688 292.855 65.8181 295.394C65.0775 288.251 68.3771 273.102 87.5005 269.651C97.4697 266.536 102.939 258.61 104.427 255.036C103.181 254.131 102.015 252.931 101.069 251.39C95.7274 255.979 81.5696 264.139 67.6706 260.065C53.7716 255.991 43.6127 266.095 40.2706 271.656C48.4188 276.031 56.3464 282.054 59.5219 287.863Z" fill="#547629"/>
<path d="M67.6706 260.065C81.5696 264.139 95.7274 255.979 101.069 251.39C100.261 250.074 99.6142 248.511 99.2143 246.672C98.2789 247.04 91.6791 246.759 72.7635 242.691C53.848 238.624 33.2078 256.341 25.2521 265.708C29.5046 266.635 34.9349 268.792 40.2706 271.656C43.6127 266.095 53.7716 255.991 67.6706 260.065Z" fill="#3D3D3D"/>
<path d="M98.9653 239.052C83.0026 230.599 45.0378 223.998 20.8807 265.216C22.1071 265.171 23.5896 265.345 25.2521 265.708C33.2078 256.341 53.848 238.624 72.7635 242.691C91.6791 246.759 98.2789 247.04 99.2143 246.672C98.7472 244.523 98.6178 241.998 98.9653 239.052Z" fill="#547629"/>
<path d="M130.366 215.552C130.68 215.228 130.995 214.902 131.311 214.574C126.015 214.265 116.08 211.613 118.218 203.493C117.542 205.602 114.296 209.796 105.829 211.752C106.499 213.274 107.155 214.744 107.786 216.144C108.141 216.931 108.489 217.696 108.827 218.436C110.426 222.904 116.509 228.549 128.391 217.491C129.032 216.895 129.69 216.249 130.366 215.552Z" fill="#3D3D3D"/>
<path d="M140.448 204.688C135.567 206.127 126.012 206.444 126.843 196.194C122.838 198.134 114.293 199.99 112.158 191.889C108.746 195.175 101.33 200.485 98.9659 195.44C101.193 201.018 103.594 206.677 105.829 211.752C114.296 209.796 117.542 205.602 118.218 203.493C118.243 203.4 118.269 203.307 118.296 203.212C118.276 203.301 118.25 203.395 118.218 203.493C116.08 211.613 126.015 214.265 131.311 214.574C134.368 211.397 137.498 208.035 140.448 204.688Z" fill="#909090"/>
<path d="M108.053 173.796C104.793 184.915 97.4261 184.303 94.15 182.607C95.5306 186.61 97.1932 191 98.9659 195.44C101.33 200.485 108.746 195.175 112.158 191.889C114.293 199.99 122.838 198.134 126.843 196.194C126.012 206.444 135.567 206.127 140.448 204.688C143.508 201.218 146.373 197.763 148.763 194.547C139.635 198.925 136.351 187.97 135.851 181.945C117.063 194.549 109.49 181.764 108.053 173.796Z" fill="#3D3D3D"/>
<path d="M108.592 164.333C107.411 167.053 102.696 171.112 93.2771 165.592C88.5499 162.821 90.1909 171.127 94.15 182.607C97.4261 184.303 104.793 184.915 108.053 173.796C109.49 181.764 117.063 194.549 135.851 181.945C136.351 187.97 139.635 198.925 148.763 194.547C156.33 184.365 159.129 176.575 148.2 178.243C133.758 180.448 132.716 174.854 134 171.781C130.039 174.835 122.786 178.447 118.813 176.527C112.771 173.606 110.897 166.925 108.592 164.333Z" fill="#909090"/>
<path d="M134 171.781C152.875 137.46 190.347 65.0571 189.238 50.0165C187.851 31.2157 178.616 7.81481 143.97 43.6445C116.254 72.3083 108.836 136.047 108.592 164.333C110.897 166.925 112.771 173.606 118.813 176.527C122.786 178.447 130.039 174.835 134 171.781Z" fill="#3D3D3D"/>
</svg>
