<svg width="369" height="376" viewBox="0 0 369 376" fill="none" xmlns="http://www.w3.org/2000/svg">
<path d="M219.732 337.814C220.925 347.251 199.395 347.575 198.799 342.857C197.749 334.556 216.479 331.035 219.732 337.814Z" fill="#3D3D3D"/>
<path d="M182.855 330.492C183.082 332.285 173.419 331.685 175.48 329.028C177.541 326.37 182.259 325.774 182.855 330.492Z" fill="#3D3D3D"/>
<path d="M207.911 320.135C214.599 322.485 230.633 329.247 234.755 323.932C206.124 264.277 180.145 238.499 170.734 233.067C169.968 234.29 169.241 235.42 168.566 236.432C167.78 237.609 166.959 238.57 166.113 239.34C177.559 248.739 199.315 276.869 194.771 314.199C199.773 316.972 204.32 319.105 207.911 320.135Z" fill="#909090"/>
<path d="M234.755 323.932C241.152 315.684 244.655 286.726 213.84 252.134C205.435 245.413 183.516 233.488 173.607 228.366C172.609 230.035 171.644 231.616 170.734 233.067C180.145 238.499 206.124 264.277 234.755 323.932Z" fill="#3D3D3D"/>
<path d="M177.834 221.142C176.4 223.639 174.972 226.084 173.607 228.366C183.516 233.488 205.435 245.413 213.84 252.134C204.948 242.152 193.197 231.7 177.834 221.142Z" fill="#909090"/>
<path d="M190.708 197.852L164.802 177.759C158.85 185.433 154.369 193.213 151.138 200.436C150.261 202.397 149.476 204.316 148.778 206.182C148.213 207.692 147.706 209.166 147.254 210.598C146.494 213.004 145.89 215.29 145.43 217.421C144.81 220.297 144.452 222.893 144.33 225.128C144.254 226.523 144.269 227.776 144.37 228.869C144.529 230.607 144.904 231.937 145.467 232.779C146.117 233.751 147.056 234.908 148.204 236.067C150.445 238.33 153.484 240.6 156.742 241.523C158.431 242.002 160.179 242.117 161.904 241.681C163.338 241.319 164.757 240.575 166.113 239.34C166.959 238.57 167.78 237.609 168.566 236.432C169.241 235.42 169.968 234.29 170.734 233.067C171.644 231.616 172.609 230.035 173.607 228.366C174.972 226.084 176.4 223.639 177.834 221.142C182.821 212.461 187.89 203.149 190.708 197.852Z" fill="#3D3D3D"/>
<path d="M139.788 275.072C151.623 263.235 156.022 247.774 156.742 241.523C153.484 240.6 150.445 238.33 148.204 236.067C143.619 238.621 132.38 247.045 124.109 260.317C130.881 266.347 135.995 271.411 139.788 275.072Z" fill="#3D3D3D"/>
<path d="M145.331 280.109C147.423 281.731 154.865 287.503 164.183 294.211C168.593 266.577 164.501 247.677 161.904 241.681C160.179 242.117 158.431 242.002 156.742 241.523C156.022 247.774 151.623 263.235 139.788 275.072C142.101 277.306 142.674 278.048 145.331 280.109Z" fill="#909090"/>
<path d="M194.771 314.199C199.315 276.869 177.559 248.739 166.113 239.34C164.757 240.575 163.338 241.319 161.904 241.681C164.501 247.677 168.593 266.577 164.183 294.211C173.656 301.032 185.069 308.82 194.771 314.199Z" fill="#3D3D3D"/>
<path d="M171.034 312.812C171.407 315.765 168.506 319.363 164.255 316.066C158.94 311.944 159.809 299.851 165.123 303.973C169.375 307.27 170.835 311.24 171.034 312.812Z" fill="#3D3D3D"/>
<path fill-rule="evenodd" clip-rule="evenodd" d="M234.755 323.932C230.633 329.247 214.599 322.485 207.911 320.135C204.32 319.105 199.773 316.972 194.771 314.199C185.069 308.82 173.656 301.032 164.183 294.211C154.865 287.503 147.423 281.731 145.331 280.109C142.674 278.048 142.101 277.306 139.788 275.072C135.995 271.411 130.881 266.347 124.109 260.317C119.417 256.14 113.93 251.499 107.534 246.538C106.245 245.538 104.997 244.586 103.788 243.678C86.2492 230.501 76.9733 226.63 69.7145 221.418C69.2254 221.067 68.7454 220.709 68.2727 220.343C63.8226 216.891 54.6748 205.818 48.0742 194.962C43.5934 187.593 40.2865 180.324 40.4203 175.608C40.4424 174.828 40.5593 174.116 40.7804 173.486C35.7147 180.481 35.1325 194.677 35.4749 200.9C35.9723 200.593 36.4821 200.394 36.982 200.331C41.7001 199.735 46.1461 215.95 38.7709 214.485C45.8845 240.43 65.7756 263.8 74.832 272.242C78.9532 266.928 97.5541 281.353 91.3712 289.325C104.603 302.992 123.644 315.386 131.511 319.875C131.661 318.907 132.216 318.097 133.29 317.581C140.069 314.328 150.698 322.571 146.576 327.886C161.456 339.427 187.591 342.675 198.799 342.857C197.749 334.556 216.479 331.035 219.732 337.814C226.804 333.086 232.694 326.59 234.755 323.932ZM182.855 330.492C183.082 332.285 173.419 331.685 175.48 329.028C177.541 326.37 182.259 325.774 182.855 330.492ZM197.009 328.703C193.647 327.861 187.346 325.446 189.038 322.521C191.153 318.864 204.385 330.168 197.009 328.703ZM164.255 316.066C168.506 319.363 171.407 315.765 171.034 312.812C170.835 311.24 169.375 307.27 165.123 303.973C159.809 299.851 158.94 311.944 164.255 316.066ZM137.683 295.457C135.622 298.114 129.787 301.248 122.932 292.528C114.365 281.627 143.866 287.485 137.683 295.457ZM107.858 268.069C102.424 264.101 93.5155 255.834 101.351 254.511C111.145 252.857 115.829 274.252 107.858 268.069ZM76.5677 248.056C74.5068 250.713 69.2029 254.26 64.4744 247.188C58.5637 238.348 82.7504 240.084 76.5677 248.056Z" fill="#547629"/>
<path d="M197.009 328.703C193.647 327.861 187.346 325.446 189.038 322.521C191.153 318.864 204.385 330.168 197.009 328.703Z" fill="#3D3D3D"/>
<path d="M146.576 327.886C150.698 322.571 140.069 314.328 133.29 317.581C132.216 318.097 131.661 318.907 131.511 319.875C130.715 325.017 141.373 334.595 146.576 327.886Z" fill="#3D3D3D"/>
<path d="M137.683 295.457C135.622 298.114 129.787 301.248 122.932 292.528C114.365 281.627 143.866 287.485 137.683 295.457Z" fill="#3D3D3D"/>
<path d="M107.858 268.069C102.424 264.101 93.5155 255.834 101.351 254.511C111.145 252.857 115.829 274.252 107.858 268.069Z" fill="#3D3D3D"/>
<path d="M91.3712 289.325C82.5305 295.237 71.9175 275.999 74.832 272.242C78.9532 266.928 97.5541 281.353 91.3712 289.325Z" fill="#3D3D3D"/>
<path d="M76.5677 248.056C74.5068 250.713 69.2029 254.26 64.4744 247.188C58.5637 238.348 82.7504 240.084 76.5677 248.056Z" fill="#3D3D3D"/>
<path d="M38.7709 214.485C46.1461 215.95 41.7001 199.735 36.982 200.331C36.4821 200.394 35.9723 200.593 35.4749 200.9C31.2785 203.484 27.9591 213.709 38.7709 214.485Z" fill="#3D3D3D"/>
<path d="M40.4203 175.608C68.4199 158.392 123.309 191.762 147.254 210.598C147.706 209.166 148.213 207.692 148.778 206.182C140.701 198.716 125.084 184.911 116.656 179.409C115.205 178.64 113.744 177.882 112.278 177.136C81.6624 161.571 48.4266 151.728 40.7804 173.486C40.5593 174.116 40.4424 174.828 40.4203 175.608Z" fill="#909090"/>
<path d="M148.778 206.182C149.476 204.316 150.261 202.397 151.138 200.436C141.84 193.957 129.611 186.273 116.656 179.409C125.084 184.911 140.701 198.716 148.778 206.182Z" fill="#3D3D3D"/>
<path d="M48.0742 194.962C70.6142 177.436 122.37 202.632 145.43 217.421C145.89 215.29 146.494 213.004 147.254 210.598C123.309 191.762 68.4199 158.392 40.4203 175.608C40.2865 180.324 43.5934 187.593 48.0742 194.962Z" fill="#3D3D3D"/>
<path d="M68.2727 220.343C68.7454 220.709 69.2254 221.067 69.7145 221.418C87.8323 204.795 127.007 216.965 144.33 225.128C144.452 222.893 144.81 220.297 145.43 217.421C122.37 202.632 70.6142 177.436 48.0742 194.962C54.6748 205.818 63.8226 216.891 68.2727 220.343Z" fill="#909090"/>
<path d="M103.788 243.678C113.286 234.058 134.8 229.797 144.37 228.869C144.269 227.776 144.254 226.523 144.33 225.128C127.007 216.965 87.8323 204.795 69.7145 221.418C76.9733 226.63 86.2492 230.501 103.788 243.678Z" fill="#3D3D3D"/>
<path d="M148.204 236.067C147.056 234.908 146.117 233.751 145.467 232.779C144.904 231.937 144.529 230.607 144.37 228.869C134.8 229.797 113.286 234.058 103.788 243.678C104.997 244.586 106.245 245.538 107.534 246.538C113.93 251.499 119.417 256.14 124.109 260.317C132.38 247.045 143.619 238.621 148.204 236.067Z" fill="#909090"/>
<path d="M190.708 197.852C202.085 194.759 220.706 186.219 204.177 176.803C189.154 190.685 198.266 167.963 190.891 166.498C186.722 165.671 173.438 175.007 175.932 163.408C179.069 148.819 167.572 152.668 165.511 155.326C163.451 157.983 161.383 159.791 164.802 177.759L190.708 197.852Z" fill="#547629"/>
<path d="M255.428 127.186C256.308 127.492 257.047 127.852 257.66 128.261C270.754 134.315 270.916 129.165 284.605 111.515C299.032 92.9144 281.028 83.2062 259.77 66.7189C238.513 50.2317 230.865 65.5785 219.965 74.1463C211.244 81.0006 214.775 89.9805 217.631 93.6142C228.341 107.241 246.083 122.774 255.428 127.186Z" fill="#3D3D3D"/>
<path d="M204.397 121.65C208.656 124.954 231.565 146.978 234.222 149.039C238.651 152.473 245.819 156.033 251.033 149.311C256.675 142.037 264.052 132.525 257.66 128.261C256.955 127.935 256.213 127.576 255.428 127.186C246.083 122.774 228.341 107.241 217.631 93.6142C212.912 94.2104 184.511 103.392 204.397 121.65Z" fill="#3D3D3D"/>
<path d="M194.688 139.654C198.43 143.975 210.342 156.051 216.542 160.86C220.971 164.295 227.171 169.103 231.293 163.789C234.727 159.36 239.536 153.16 234.222 149.039C231.565 146.978 208.656 124.954 204.397 121.65C201.739 119.59 197.021 120.186 190.242 123.439C184.819 126.042 190.947 135.334 194.688 139.654Z" fill="#3D3D3D"/>
<path d="M190.891 166.498C198.266 167.963 189.154 190.685 204.177 176.803L216.542 160.86C210.342 156.051 198.43 143.975 194.688 139.654L175.932 163.408C173.438 175.007 186.722 165.671 190.891 166.498Z" fill="#3D3D3D"/>
</svg>
