<svg width="369" height="398" viewBox="0 0 369 398" fill="none" xmlns="http://www.w3.org/2000/svg">
<path d="M139.699 67.4261C142.228 67.9829 148.211 68.5048 151.913 66.1387C156.541 63.1811 158.211 55.5955 141.37 59.8406C127.897 63.2367 134.642 66.3127 139.699 67.4261Z" fill="#909090"/>
<path d="M148.572 81.3098C146.902 88.8954 149.86 93.5232 168.371 81.6926C174.484 77.7864 150.243 73.7243 148.572 81.3098Z" fill="#909090"/>
<path d="M164.126 64.8513C167.322 60.0006 175.789 52.4226 184.091 60.9158C194.468 71.5322 157.828 75.3945 164.126 64.8513Z" fill="#909090"/>
<path fill-rule="evenodd" clip-rule="evenodd" d="M234.067 72.2987C164.892 25.2542 94.2218 54.8429 73.9175 81.101C50.4821 111.408 30.8516 152.085 53.1965 207.446C55.5196 202.91 58.5055 197.86 62.1501 192.488C69.1019 182.243 78.4504 170.825 90.1681 159.558C99.0892 150.98 109.384 142.49 121.039 134.672C129.145 129.235 137.909 124.123 147.327 119.532C156.945 114.844 167.246 110.7 178.224 107.308C188.008 104.286 198.33 101.861 209.187 100.183C219.839 98.5368 231.007 97.6085 242.686 97.5384C246.847 97.5134 251.072 97.5973 255.362 97.7964C252.666 89.0638 246.026 80.4315 234.067 72.2987ZM148.572 81.3098C146.902 88.8954 149.86 93.5232 168.371 81.6926C174.484 77.7864 150.243 73.7243 148.572 81.3098ZM164.126 64.8513C167.322 60.0006 175.789 52.4226 184.091 60.9158C194.468 71.5322 157.828 75.3945 164.126 64.8513ZM151.913 66.1387C148.211 68.5048 142.228 67.9829 139.699 67.4261C134.642 66.3127 127.897 63.2367 141.37 59.8406C158.211 55.5955 156.541 63.1811 151.913 66.1387Z" fill="#547629"/>
<path d="M178.224 107.308C181.374 120.396 179.379 155.729 177.987 171.759C180.679 171.906 183.274 172.453 185.738 173.282C193.524 156.217 209.114 117.706 209.187 100.183C198.33 101.861 188.008 104.286 178.224 107.308Z" fill="#3D3D3D"/>
<path d="M209.187 100.183C209.114 117.706 193.524 156.217 185.738 173.282C187.502 173.876 189.199 174.615 190.814 175.454C210.708 154.074 248.934 108.557 242.686 97.5384C231.007 97.6085 219.839 98.5368 209.187 100.183Z" fill="#909090"/>
<path d="M194.66 177.729C223.032 162.472 265.145 129.475 255.362 97.7964C251.072 97.5973 246.847 97.5134 242.686 97.5384C248.934 108.557 210.708 154.074 190.814 175.454C192.155 176.151 193.439 176.917 194.66 177.729Z" fill="#3D3D3D"/>
<path d="M147.327 119.532C155.342 135.287 171.343 167.889 171.229 172.263C173.532 171.786 175.791 171.639 177.987 171.759C179.379 155.729 181.374 120.396 178.224 107.308C167.246 110.7 156.945 114.844 147.327 119.532Z" fill="#909090"/>
<path d="M161.373 176.963C163.137 175.355 165.359 174.032 168.128 173.103C169.169 172.753 170.203 172.475 171.229 172.263C171.343 167.889 155.342 135.287 147.327 119.532C137.909 124.123 129.145 129.235 121.039 134.672C132.752 148.859 157.217 177.179 161.373 176.963Z" fill="#3D3D3D"/>
<path d="M90.1681 159.558C110.421 168.707 152.211 186.121 157.343 182.588C158.278 180.499 159.591 178.586 161.373 176.963C157.217 177.179 132.752 148.859 121.039 134.672C109.384 142.49 99.0892 150.98 90.1681 159.558Z" fill="#909090"/>
<path d="M62.1501 192.488C87.0843 194.277 140.662 196.306 155.498 190.107C155.722 187.486 156.295 184.927 157.343 182.588C152.211 186.121 110.421 168.707 90.1681 159.558C78.4504 170.825 69.1019 182.243 62.1501 192.488Z" fill="#3D3D3D"/>
<path d="M53.1965 207.446C65.2883 217.109 102.729 228.771 155.76 198.112C155.401 195.493 155.27 192.768 155.498 190.107C140.662 196.306 87.0843 194.277 62.1501 192.488C58.5055 197.86 55.5196 202.91 53.1965 207.446Z" fill="#909090"/>
<path d="M195.727 197.121C197.006 194.979 200.873 190.257 206.106 188.502C203.807 185.355 199.799 181.145 194.66 177.729C193.439 176.917 192.155 176.151 190.814 175.454C189.199 174.615 187.502 173.876 185.738 173.282C183.274 172.453 180.679 171.906 177.987 171.759C175.791 171.639 173.532 171.786 171.229 172.263C170.203 172.475 169.169 172.753 168.128 173.103C165.359 174.032 163.137 175.355 161.373 176.963C159.591 178.586 158.278 180.499 157.343 182.588C156.295 184.927 155.722 187.486 155.498 190.107C155.27 192.768 155.401 195.493 155.76 198.112C156.358 202.481 157.59 206.559 158.844 209.57C161.219 207.268 164.884 207.292 166.742 207.701C170.22 200.713 176.312 200.923 178.923 201.902C183.936 192.344 192.214 194.732 195.727 197.121Z" fill="#3D3D3D"/>
<path d="M157.381 211.698C155.439 216.116 152.267 244.092 150.925 257.528C150.808 263.56 154.647 271.433 170.94 254.666C169.636 248.015 166.97 229.311 166.742 207.701C164.884 207.292 161.219 207.268 158.844 209.57C158.264 210.131 157.762 210.831 157.381 211.698Z" fill="#547629"/>
<path d="M178.923 201.902C176.312 200.923 170.22 200.713 166.742 207.701C166.97 229.311 169.636 248.015 170.94 254.666C176.672 254.312 187.744 249.884 186.175 235C185.384 230.482 182.828 217.537 178.923 201.902Z" fill="#547629"/>
<path d="M195.727 197.121C192.214 194.732 183.936 192.344 178.923 201.902C182.828 217.537 185.384 230.482 186.175 235C196.96 237.374 218.522 237.76 218.488 220.306C219.409 215.276 203.697 202.753 195.727 197.121Z" fill="#547629"/>
<path d="M231.454 221.949C237.786 222.536 250.937 222.605 252.879 218.186C255.307 212.662 212.647 186.307 206.106 188.502C200.873 190.257 197.006 194.979 195.727 197.121C203.697 202.753 219.409 215.276 218.488 220.306L231.454 221.949Z" fill="#547629"/>
<path d="M170.94 254.666C181.457 294.944 212.72 369.758 253.642 346.782C294.564 323.807 255.901 253.987 231.454 221.949L218.488 220.306C218.522 237.76 196.96 237.374 186.175 235C187.744 249.884 176.672 254.312 170.94 254.666Z" fill="#3D3D3D"/>
</svg>
