<svg width="293" height="242" viewBox="0 0 293 242" fill="none" xmlns="http://www.w3.org/2000/svg">
<path d="M175.187 74.6183C190.148 80.472 197.345 63.9138 199.074 54.903C184.439 50.209 170.12 59.4596 160.767 68.9761L175.187 74.6183Z" fill="#547629"/>
<path d="M257.839 136.287C250.76 126.629 237.882 107.259 231.905 91.6098C231.526 90.6186 231.126 89.6447 230.707 88.6886C222.838 93.5518 207.873 106.815 210.963 120.963C219.42 154.461 245.737 145.136 257.839 136.287Z" fill="#547629"/>
<path d="M201.303 190.334C196.257 183.743 182.833 173.569 169.498 185.603C156.164 197.637 160.984 204.728 165.06 206.769C178.299 203.652 191.52 196.006 201.303 190.334Z" fill="#547629"/>
<path d="M153.686 77.4293L127.243 149.208C122.888 161.739 116.617 186.442 133.314 200.859C142.501 208.791 153.787 209.422 165.06 206.769C160.984 204.728 156.164 197.637 169.498 185.603C182.833 173.569 196.257 183.743 201.303 190.334L201.422 190.266C202.192 189.819 202.941 189.385 203.667 188.966C220.636 179.181 239.091 178.189 258.041 167.536C273.202 159.014 265.349 144.663 259.527 138.553C259.012 137.875 258.447 137.117 257.839 136.287C245.737 145.136 219.42 154.461 210.963 120.963C207.873 106.815 222.838 93.5518 230.707 88.6886C223.939 73.2523 212.233 62.4646 206.946 58.8489C204.329 57.0333 201.697 55.7442 199.074 54.903C197.345 63.9138 190.148 80.472 175.187 74.6183L160.767 68.9761C157.892 71.9011 155.487 74.8513 153.686 77.4293Z" fill="#3D3D3D"/>
<path d="M153.686 77.4293C146.398 65.2704 132.133 44.3591 127.489 68.8216C128.108 75.6343 133.706 87.3527 127.365 90.1265C121.131 92.0671 108.501 97.1992 107.857 102.203C107.052 108.458 110.831 119.791 112.007 125.179C103.048 129.886 86.9629 141.332 94.2958 149.457C101.629 157.582 119.316 152.677 127.243 149.208L153.686 77.4293Z" fill="#547629"/>
<path d="M127.365 90.1265C118.034 83.1905 97.3527 65.2435 89.2765 48.9435C79.1812 28.5686 48.7733 26.525 37.6263 55.0141C32.6105 67.8333 18.7883 95.6035 26.4186 113.043C35.9566 134.842 64.3208 129.516 83.5811 122.269C98.9894 116.472 108.952 121.794 112.007 125.179C110.831 119.791 107.052 108.458 107.857 102.203C108.501 97.1992 121.131 92.0671 127.365 90.1265Z" fill="#3D3D3D"/>
<path d="M185.521 146.304C188.958 150.113 192.407 160.902 180.615 164.172C165.876 168.26 178.646 138.687 185.521 146.304Z" fill="#547629"/>
<path d="M140.871 174.827C145.144 176.499 149.545 186.241 140.281 193.128C128.7 201.737 131.457 169.501 140.871 174.827Z" fill="#547629"/>
<path d="M151.389 129.739C158.717 134.796 168.618 146.992 149.593 155.316C125.812 165.721 129.403 114.567 151.389 129.739Z" fill="#547629"/>
<path d="M173.618 102.297C167.632 99.4067 156.476 96.5747 159.746 108.366C163.834 123.106 183.032 107.622 173.618 102.297Z" fill="#547629"/>
<path d="M129.334 106.328C120.88 104.835 114.632 115.357 127.167 120.262C142.836 126.393 138.789 107.997 129.334 106.328Z" fill="#547629"/>
<path d="M220.783 156.742C224.21 159.178 226.368 165.192 214.578 168.459C199.84 172.543 215.642 153.089 220.783 156.742Z" fill="#547629"/>
</svg>
