<svg width="277" height="299" viewBox="0 0 277 299" fill="none" xmlns="http://www.w3.org/2000/svg">
<path d="M104.775 50.5691C106.671 50.9867 111.158 51.3781 113.935 49.6036C117.406 47.3853 118.658 41.6962 106.027 44.88C95.9224 47.427 100.982 49.734 104.775 50.5691Z" fill="#909090"/>
<path d="M111.429 60.9819C110.177 66.671 112.395 70.142 126.279 61.269C130.863 58.3393 112.682 55.2927 111.429 60.9819Z" fill="#909090"/>
<path d="M123.095 48.638C125.492 45 131.842 39.3165 138.068 45.6863C145.851 53.6487 118.371 56.5454 123.095 48.638Z" fill="#909090"/>
<path fill-rule="evenodd" clip-rule="evenodd" d="M175.55 54.2236C123.669 18.9402 70.6663 41.1317 55.4381 60.8252C37.8616 83.5557 23.1387 114.063 39.8974 155.584C41.6397 152.182 43.8791 148.395 46.6126 144.366C51.8264 136.681 58.8378 128.118 67.6261 119.668C74.3169 113.235 82.0377 106.867 90.7792 101.004C96.8584 96.926 103.431 93.0919 110.495 89.6489C117.709 86.1326 125.434 83.0242 133.668 80.4806C141.006 78.2138 148.747 76.3956 156.89 75.137C164.879 73.9021 173.255 73.2059 182.015 73.1533C185.135 73.1346 188.304 73.1975 191.522 73.3468C189.499 66.7974 184.519 60.3232 175.55 54.2236ZM111.429 60.9819C110.177 66.671 112.395 70.142 126.279 61.269C130.863 58.3393 112.682 55.2927 111.429 60.9819ZM123.095 48.638C125.492 45 131.842 39.3165 138.068 45.6863C145.851 53.6487 118.371 56.5454 123.095 48.638ZM113.935 49.6036C111.158 51.3781 106.671 50.9867 104.775 50.5691C100.982 49.734 95.9224 47.427 106.027 44.88C118.658 41.6962 117.406 47.3853 113.935 49.6036Z" fill="#547629"/>
<path d="M133.668 80.4806C136.03 90.2965 134.534 116.796 133.49 128.819C135.509 128.929 137.456 129.339 139.303 129.961C145.143 117.162 156.836 88.2791 156.89 75.137C148.747 76.3956 141.006 78.2138 133.668 80.4806Z" fill="#3D3D3D"/>
<path d="M156.89 75.137C156.836 88.2791 145.143 117.162 139.303 129.961C140.627 130.407 141.899 130.961 143.111 131.59C158.031 115.555 186.7 81.4174 182.015 73.1533C173.255 73.2059 164.879 73.9021 156.89 75.137Z" fill="#909090"/>
<path d="M145.995 133.296C167.274 121.854 198.859 97.1057 191.522 73.3468C188.304 73.1975 185.135 73.1346 182.015 73.1533C186.7 81.4174 158.031 115.555 143.111 131.59C144.116 132.113 145.079 132.688 145.995 133.296Z" fill="#3D3D3D"/>
<path d="M110.495 89.6489C116.506 101.465 128.507 125.917 128.421 129.197C130.149 128.839 131.843 128.729 133.49 128.819C134.534 116.796 136.03 90.2965 133.668 80.4806C125.434 83.0242 117.709 86.1326 110.495 89.6489Z" fill="#909090"/>
<path d="M121.029 132.721C122.352 131.516 124.02 130.523 126.096 129.827C126.877 129.565 127.652 129.356 128.421 129.197C128.507 125.917 116.506 101.465 110.495 89.6489C103.431 93.0919 96.8584 96.926 90.7792 101.004C99.564 111.644 117.913 132.883 121.029 132.721Z" fill="#3D3D3D"/>
<path d="M67.6261 119.668C82.816 126.53 114.158 139.591 118.007 136.94C118.708 135.374 119.694 133.939 121.029 132.721C117.913 132.883 99.564 111.644 90.7792 101.004C82.0377 106.867 74.3169 113.235 67.6261 119.668Z" fill="#909090"/>
<path d="M46.6126 144.366C65.3132 145.708 105.496 147.229 116.623 142.579C116.792 140.614 117.222 138.695 118.007 136.94C114.158 139.591 82.816 126.53 67.6261 119.668C58.8378 128.118 51.8264 136.681 46.6126 144.366Z" fill="#3D3D3D"/>
<path d="M39.8974 155.584C48.9662 162.832 77.047 171.578 116.82 148.584C116.551 146.619 116.452 144.576 116.623 142.579C105.496 147.229 65.3132 145.708 46.6126 144.366C43.8791 148.395 41.6397 152.182 39.8974 155.584Z" fill="#909090"/>
<path d="M146.795 147.84C147.754 146.234 150.654 142.692 154.579 141.376C152.855 139.015 149.849 135.858 145.995 133.296C145.079 132.688 144.116 132.113 143.111 131.59C141.899 130.961 140.627 130.407 139.303 129.961C137.456 129.339 135.509 128.929 133.49 128.819C131.843 128.729 130.149 128.839 128.421 129.197C127.652 129.356 126.877 129.565 126.096 129.827C124.02 130.523 122.352 131.516 121.029 132.721C119.694 133.939 118.708 135.374 118.007 136.94C117.222 138.695 116.792 140.614 116.623 142.579C116.452 144.576 116.551 146.619 116.82 148.584C117.269 151.86 118.192 154.919 119.133 157.177C120.914 155.45 123.663 155.468 125.057 155.775C127.665 150.534 132.234 150.692 134.193 151.426C137.952 144.257 144.161 146.048 146.795 147.84Z" fill="#3D3D3D"/>
<path d="M118.036 158.773C116.579 162.087 114.201 183.069 113.193 193.145C113.106 197.67 115.986 203.574 128.205 190.999C127.227 186.011 125.227 171.983 125.057 155.775C123.663 155.468 120.914 155.45 119.133 157.177C118.698 157.598 118.321 158.123 118.036 158.773Z" fill="#547629"/>
<path d="M134.193 151.426C132.234 150.692 127.665 150.534 125.057 155.775C125.227 171.983 127.227 186.011 128.205 190.999C132.504 190.734 140.808 187.413 139.631 176.249C139.038 172.861 137.121 163.152 134.193 151.426Z" fill="#547629"/>
<path d="M146.795 147.84C144.161 146.048 137.952 144.257 134.193 151.426C137.121 163.152 139.038 172.861 139.631 176.249C147.72 178.03 163.892 178.32 163.866 165.229C164.557 161.457 152.773 152.065 146.795 147.84Z" fill="#547629"/>
<path d="M173.59 166.462C178.34 166.902 188.203 166.953 189.659 163.639C191.48 159.496 159.485 139.73 154.579 141.376C150.654 142.692 147.754 146.234 146.795 147.84C152.773 152.065 164.557 161.457 163.866 165.229L173.59 166.462Z" fill="#547629"/>
<path d="M128.205 190.999C136.092 221.208 159.54 277.318 190.232 260.086C220.923 242.855 191.925 190.49 173.59 166.462L163.866 165.229C163.892 178.32 147.72 178.03 139.631 176.249C140.808 187.413 132.504 190.734 128.205 190.999Z" fill="#3D3D3D"/>
</svg>
