<svg width="390" height="323" viewBox="0 0 390 323" fill="none" xmlns="http://www.w3.org/2000/svg">
<path d="M233.583 99.4904C253.53 107.295 263.127 85.2178 265.432 73.2033C245.919 66.9447 226.826 79.2788 214.356 91.9675L233.583 99.4904Z" fill="#547629"/>
<path d="M343.785 181.715C334.346 168.838 317.176 143.011 309.206 122.146C308.701 120.824 308.168 119.526 307.609 118.251C297.117 124.735 277.165 142.42 281.285 161.283C292.561 205.947 327.65 193.514 343.785 181.715Z" fill="#547629"/>
<path d="M268.404 253.779C261.677 244.99 243.777 231.425 225.998 247.47C208.219 263.515 214.645 272.97 220.08 275.691C237.732 271.536 255.359 261.341 268.404 253.779Z" fill="#547629"/>
<path d="M204.914 103.238L169.657 198.944C163.85 215.651 155.489 248.588 177.752 267.811C190.001 278.388 205.049 279.229 220.08 275.691C214.645 272.97 208.219 263.515 225.998 247.47C243.777 231.425 261.677 244.99 268.404 253.779L268.563 253.687C269.59 253.091 270.589 252.512 271.556 251.954C294.181 238.907 318.788 237.585 344.055 223.381C364.269 212.018 353.798 192.883 346.036 184.736C345.35 183.832 344.596 182.821 343.785 181.715C327.65 193.514 292.561 205.947 281.285 161.283C277.165 142.42 297.117 124.735 307.609 118.251C298.585 97.669 282.978 83.2854 275.927 78.4646C272.439 76.0437 268.929 74.325 265.432 73.2033C263.127 85.2178 253.53 107.295 233.583 99.4904L214.356 91.9675C210.523 95.8675 207.316 99.801 204.914 103.238Z" fill="#3D3D3D"/>
<path d="M204.914 103.238C195.198 87.0266 176.177 59.1448 169.985 91.7615C170.811 100.845 178.275 116.47 169.82 120.168C161.508 122.755 144.668 129.598 143.81 136.27C142.737 144.61 147.774 159.721 149.343 166.905C137.398 173.181 115.951 188.442 125.728 199.275C135.505 210.109 159.088 203.568 169.657 198.944L204.914 103.238Z" fill="#547629"/>
<path d="M169.82 120.168C157.379 110.92 129.804 86.9907 119.035 65.2574C105.575 38.0908 65.0311 35.366 50.1684 73.3516C43.4807 90.4437 25.0511 127.471 35.2249 150.723C47.9421 179.789 85.7611 172.687 111.441 163.025C131.986 155.295 145.269 162.391 149.343 166.905C147.774 159.721 142.737 144.61 143.81 136.27C144.668 129.598 161.508 122.755 169.82 120.168Z" fill="#3D3D3D"/>
<path d="M247.358 195.068C251.941 200.146 256.539 214.532 240.817 218.892C221.165 224.343 238.192 184.912 247.358 195.068Z" fill="#547629"/>
<path d="M154.397 230.566C160.094 232.795 165.963 245.785 153.61 254.968C138.169 266.446 141.844 223.465 154.397 230.566Z" fill="#547629"/>
<path d="M201.848 172.983C211.62 179.727 224.821 195.988 199.455 207.087C167.746 220.96 172.534 152.754 201.848 172.983Z" fill="#547629"/>
<path d="M231.491 136.394C223.509 132.541 208.634 128.765 212.995 144.487C218.445 164.14 244.043 143.495 231.491 136.394Z" fill="#547629"/>
<path d="M172.446 141.768C161.175 139.778 152.843 153.808 169.556 160.347C190.448 168.522 185.053 143.994 172.446 141.768Z" fill="#547629"/>
<path d="M294.378 208.99C298.948 212.237 301.824 220.256 286.104 224.612C266.454 230.057 287.523 204.119 294.378 208.99Z" fill="#547629"/>
</svg>
