<svg width="199" height="269" viewBox="0 0 199 269" fill="none" xmlns="http://www.w3.org/2000/svg">
<path d="M14.7606 221.289C23.8069 225.827 43.8315 236.036 51.5598 240.566C61.2201 246.228 74.5646 258.63 91.4147 249.419C102.199 243.524 114.81 246.844 119.767 249.24C124.525 251.54 134.412 254.127 137.361 246.961L109.086 242.246C104.895 242.051 102.572 240.319 91.1004 240.837C79.6284 241.355 71.1742 239.43 68.3811 238.403C62.2253 235.592 53.7755 230.567 48.2223 225.438C43.2389 219.095 29.089 205.234 12.3568 200.527C5.61744 205.234 1.25334 217.329 14.7606 221.289Z" fill="#909090"/>
<path d="M137.695 246.006C137.972 245.061 138.276 243.894 138.561 242.542C136.239 242.626 131.291 242.412 124.903 241.375C120.94 240.731 116.423 239.77 111.635 238.366C111.2 238.239 110.764 238.119 110.329 238.007C104.301 236.45 98.1967 236.282 92.4101 236.369C84.3711 236.49 76.9451 237.103 71.1892 235.168C70.6165 234.975 70.0604 234.757 69.5219 234.511C63.3661 231.7 54.9163 226.675 49.3631 221.546C47.3011 219.642 45.6385 217.723 44.6409 215.898C42.2593 211.541 36.3136 207.023 30.2025 203.743C26.2007 201.594 22.128 199.976 18.9386 199.281C17.6917 199.009 16.5799 198.879 15.66 198.912C14.5404 199.226 13.4191 199.785 12.3568 200.527C29.089 205.234 43.2389 219.095 48.2223 225.438C53.7755 230.567 62.2253 235.592 68.3811 238.403C71.1742 239.43 79.6284 241.355 91.1004 240.837C102.572 240.319 104.895 242.051 109.086 242.246L137.361 246.961C137.485 246.66 137.597 246.342 137.695 246.006Z" fill="#3D3D3D"/>
<path d="M69.5219 234.511C70.0604 234.757 70.6165 234.975 71.1892 235.168C75.0107 230.572 82.0068 217.795 79.4192 203.453C78.5566 198.672 79.7696 194.122 80.484 192.445C79.7588 192.172 79.0225 191.787 78.3198 191.277C77.2035 193.958 73.1018 199.903 65.6249 202.239C51.2823 204.827 48.8076 216.189 49.3631 221.546C54.9163 226.675 63.3661 231.7 69.5219 234.511Z" fill="#3D3D3D"/>
<path d="M92.4101 236.369C94.7293 229.771 97.0945 213.887 88.0013 203.138C84.4427 199.831 83.5241 195.094 83.5095 193.139C82.9365 193.098 82.3481 192.991 81.7449 192.814C81.3346 192.728 80.9112 192.606 80.484 192.445C79.7696 194.122 78.5566 198.672 79.4192 203.453C82.0068 217.795 75.0107 230.572 71.1892 235.168C76.9451 237.103 84.3711 236.49 92.4101 236.369Z" fill="#547629"/>
<path d="M110.329 238.007C112.696 228.316 113.783 207.866 99.1895 203.588C92.9349 201.755 89.0568 195.158 87.8995 192.089C86.562 192.865 85.0944 193.252 83.5095 193.139C83.5241 195.094 84.4427 199.831 88.0013 203.138C97.0945 213.887 94.7293 229.771 92.4101 236.369C98.1967 236.282 104.301 236.45 110.329 238.007Z" fill="#3D3D3D"/>
<path d="M111.635 238.366C116.423 239.77 120.94 240.731 124.903 241.375C129.871 230.861 134.075 208.154 111.142 201.432C102.802 198.987 93.5902 193.081 90.0266 190.433C89.36 191.095 88.6503 191.653 87.8995 192.089C89.0568 195.158 92.9349 201.755 99.1895 203.588C113.783 207.866 112.696 228.316 110.329 238.007C110.764 238.119 111.2 238.239 111.635 238.366Z" fill="#547629"/>
<path d="M138.561 242.542C141.42 228.972 142.334 196.767 94.18 183.836C93.0888 186.479 91.6926 188.779 90.0266 190.433C93.5902 193.081 102.802 198.987 111.142 201.432C134.075 208.154 129.871 230.861 124.903 241.375C131.291 242.412 136.239 242.626 138.561 242.542Z" fill="#3D3D3D"/>
<path d="M96.2929 163.119C87.3816 171.412 82.8189 167.178 81.6197 163.827C81.366 163.273 81.1054 162.699 80.839 162.108C76.6733 169.257 74.7416 174.897 74.2235 179.289C73.9629 181.499 74.0599 183.393 74.4103 185.004C74.7101 186.384 75.1956 187.556 75.8012 188.543C76.5109 189.699 77.3856 190.599 78.3198 191.277C79.0225 191.787 79.7588 192.172 80.484 192.445C80.9112 192.606 81.3346 192.728 81.7449 192.814C82.3481 192.991 82.9365 193.098 83.5095 193.139C85.0944 193.252 86.562 192.865 87.8995 192.089C88.6503 191.653 89.36 191.095 90.0266 190.433C91.6926 188.779 93.0888 186.479 94.18 183.836C96.7944 177.505 97.659 169.209 96.2929 163.119Z" fill="#3D3D3D"/>
<path d="M44.6409 215.898C45.6385 217.723 47.3011 219.642 49.3631 221.546C48.8076 216.189 51.2823 204.827 65.6249 202.239C73.1018 199.903 77.2035 193.958 78.3198 191.277C77.3856 190.599 76.5109 189.699 75.8012 188.543C71.7951 191.985 61.1767 198.105 50.7525 195.049C40.3282 191.994 32.709 199.572 30.2025 203.743C36.3136 207.023 42.2593 211.541 44.6409 215.898Z" fill="#547629"/>
<path d="M50.7525 195.049C61.1767 198.105 71.7951 191.985 75.8012 188.543C75.1956 187.556 74.7101 186.384 74.4103 185.004C73.7087 185.28 68.7588 185.07 54.5722 182.019C40.3855 178.968 24.9054 192.256 18.9386 199.281C22.128 199.976 26.2007 201.594 30.2025 203.743C32.709 199.572 40.3282 191.994 50.7525 195.049Z" fill="#3D3D3D"/>
<path d="M74.2235 179.289C62.2514 172.95 33.7779 167.999 15.66 198.912C16.5799 198.879 17.6917 199.009 18.9386 199.281C24.9054 192.256 40.3855 178.968 54.5722 182.019C68.7588 185.07 73.7087 185.28 74.4103 185.004C74.0599 183.393 73.9629 181.499 74.2235 179.289Z" fill="#547629"/>
<path d="M97.7738 161.665C98.0093 161.422 98.2456 161.177 98.4825 160.931C94.5104 160.699 87.0594 158.71 88.6632 152.62C88.1557 154.202 85.7212 157.348 79.3711 158.814C79.874 159.956 80.3655 161.059 80.839 162.108C81.1054 162.699 81.366 163.273 81.6197 163.827C82.8189 167.178 87.3816 171.412 96.2929 163.119C96.7738 162.671 97.2674 162.187 97.7738 161.665Z" fill="#3D3D3D"/>
<path d="M105.336 153.517C101.675 154.596 94.5085 154.833 95.1321 147.146C92.1278 148.601 85.719 149.993 84.1182 143.918C81.559 146.382 75.9972 150.365 74.2239 146.58C75.8944 150.764 77.6953 155.009 79.3711 158.814C85.7212 157.348 88.1557 154.202 88.6632 152.62C88.6816 152.551 88.7011 152.48 88.7219 152.41C88.7064 152.476 88.6869 152.547 88.6632 152.62C87.0594 158.71 94.5104 160.699 98.4825 160.931C100.775 158.548 103.123 156.027 105.336 153.517Z" fill="#909090"/>
<path d="M81.0391 130.348C78.5945 138.687 73.0691 138.228 70.612 136.956C71.6475 139.958 72.8944 143.25 74.2239 146.58C75.9972 150.365 81.559 146.382 84.1182 143.918C85.719 149.993 92.1278 148.601 95.1321 147.146C94.5085 154.833 101.675 154.596 105.336 153.517C107.63 150.914 109.779 148.323 111.572 145.911C104.725 149.194 102.263 140.978 101.888 136.459C87.7965 145.912 82.1173 136.324 81.0391 130.348Z" fill="#3D3D3D"/>
<path d="M81.4432 123.25C80.5578 125.29 77.0212 128.335 69.9573 124.194C66.4119 122.117 67.6427 128.346 70.612 136.956C73.0691 138.228 78.5945 138.687 81.0391 130.348C82.1173 136.324 87.7965 145.912 101.888 136.459C102.263 140.978 104.725 149.194 111.572 145.911C117.247 138.274 119.346 132.432 111.15 133.683C100.318 135.336 99.5364 131.141 100.499 128.836C97.5286 131.127 92.089 133.836 89.1092 132.395C84.578 130.205 83.1726 125.194 81.4432 123.25Z" fill="#909090"/>
<path d="M100.499 128.836C114.656 103.095 142.76 48.7933 141.928 37.5128C140.888 23.4123 133.961 5.8616 107.977 32.7339C87.1897 54.2317 81.6264 102.036 81.4432 123.25C83.1726 125.194 84.578 130.205 89.1092 132.395C92.089 133.836 97.5286 131.127 100.499 128.836Z" fill="#3D3D3D"/>
</svg>
