<svg width="277" height="282" viewBox="0 0 277 282" fill="none" xmlns="http://www.w3.org/2000/svg">
<path d="M164.799 253.36C165.694 260.437 149.547 260.68 149.099 257.142C148.312 250.917 162.359 248.276 164.799 253.36Z" fill="#3D3D3D"/>
<path d="M137.141 247.869C137.311 249.213 130.064 248.763 131.61 246.77C133.156 244.777 136.694 244.33 137.141 247.869Z" fill="#3D3D3D"/>
<path d="M155.933 240.1C160.949 241.863 172.975 246.934 176.066 242.949C154.593 198.208 135.109 178.874 128.051 174.8C127.476 175.717 126.931 176.564 126.424 177.323C125.835 178.207 125.219 178.927 124.585 179.505C133.169 186.554 149.486 207.651 146.078 235.649C149.83 237.729 153.24 239.328 155.933 240.1Z" fill="#909090"/>
<path d="M176.066 242.949C180.864 236.762 183.491 215.044 160.38 189.1C154.077 184.059 137.637 175.116 130.205 171.274C129.457 172.526 128.733 173.712 128.051 174.8C135.109 178.874 154.593 198.208 176.066 242.949Z" fill="#3D3D3D"/>
<path d="M133.376 165.856C132.3 167.729 131.229 169.563 130.205 171.274C137.637 175.116 154.077 184.059 160.38 189.1C153.711 181.613 144.898 173.775 133.376 165.856Z" fill="#909090"/>
<path d="M143.031 148.389L123.601 133.319C119.137 139.075 115.777 144.91 113.353 150.327C112.695 151.797 112.107 153.237 111.584 154.636C111.16 155.768 110.78 156.874 110.44 157.948C109.871 159.753 109.418 161.467 109.073 163.065C108.608 165.222 108.339 167.17 108.248 168.845C108.19 169.891 108.202 170.832 108.277 171.651C108.397 172.954 108.678 173.952 109.101 174.584C109.588 175.313 110.292 176.181 111.153 177.05C112.833 178.747 115.113 180.45 117.556 181.142C118.823 181.501 120.134 181.588 121.428 181.261C122.503 180.989 123.567 180.431 124.585 179.505C125.219 178.927 125.835 178.207 126.424 177.323C126.931 176.564 127.476 175.717 128.051 174.8C128.733 173.712 129.457 172.526 130.205 171.274C131.229 169.563 132.3 167.729 133.376 165.856C137.116 159.345 140.918 152.361 143.031 148.389Z" fill="#3D3D3D"/>
<path d="M104.841 206.304C113.717 197.426 117.016 185.83 117.556 181.142C115.113 180.45 112.833 178.747 111.153 177.05C107.714 178.965 99.2852 185.283 93.0815 195.237C98.1607 199.76 101.996 203.558 104.841 206.304Z" fill="#3D3D3D"/>
<path d="M108.998 210.081C110.567 211.298 116.148 215.627 123.137 220.658C126.445 199.932 123.376 185.757 121.428 181.261C120.134 181.588 118.823 181.501 117.556 181.142C117.016 185.83 113.717 197.426 104.841 206.304C106.576 207.979 107.005 208.536 108.998 210.081Z" fill="#909090"/>
<path d="M146.078 235.649C149.486 207.651 133.169 186.554 124.585 179.505C123.567 180.431 122.503 180.989 121.428 181.261C123.376 185.757 126.445 199.932 123.137 220.658C130.242 225.773 138.802 231.614 146.078 235.649Z" fill="#3D3D3D"/>
<path d="M128.275 234.609C128.555 236.823 126.38 239.522 123.191 237.049C119.205 233.958 119.857 224.888 123.842 227.979C127.031 230.452 128.126 233.429 128.275 234.609Z" fill="#3D3D3D"/>
<path fill-rule="evenodd" clip-rule="evenodd" d="M176.066 242.949C172.975 246.934 160.949 241.863 155.933 240.1C153.24 239.328 149.83 237.729 146.078 235.649C138.802 231.614 130.242 225.773 123.137 220.658C116.148 215.627 110.567 211.298 108.998 210.081C107.005 208.536 106.576 207.979 104.841 206.304C101.996 203.558 98.1607 199.76 93.0815 195.237C89.5628 192.104 85.4473 188.623 80.6507 184.903C79.6837 184.153 78.7476 183.439 77.841 182.758C64.6869 172.876 57.73 169.972 52.2859 166.063C51.9191 165.8 51.5591 165.532 51.2045 165.257C47.867 162.668 41.0061 154.363 36.0557 146.221C32.6951 140.694 30.2149 135.242 30.3152 131.706C30.3318 131.12 30.4195 130.586 30.5853 130.114C26.7861 135.361 26.3494 146.007 26.6062 150.674C26.9793 150.444 27.3616 150.295 27.7365 150.248C31.2751 149.801 34.6096 161.962 29.0782 160.863C34.4134 180.322 49.3317 197.849 56.124 204.181C59.2149 200.195 73.1656 211.015 68.5284 216.993C78.452 227.244 92.7332 236.539 98.6334 239.906C98.7457 239.18 99.1623 238.572 99.9675 238.186C105.052 235.746 113.023 241.928 109.932 245.914C121.092 254.57 140.694 257.006 149.099 257.142C148.312 250.917 162.359 248.276 164.799 253.36C170.103 249.814 174.52 244.942 176.066 242.949ZM137.141 247.869C137.311 249.213 130.064 248.763 131.61 246.77C133.156 244.777 136.694 244.33 137.141 247.869ZM147.757 246.527C145.235 245.896 140.51 244.084 141.778 241.89C143.364 239.147 153.288 247.626 147.757 246.527ZM123.191 237.049C126.38 239.522 128.555 236.823 128.275 234.609C128.126 233.429 127.031 230.452 123.842 227.979C119.857 224.888 119.205 233.958 123.191 237.049ZM103.262 221.592C101.717 223.585 97.34 225.936 92.1993 219.395C85.7734 211.22 107.899 215.613 103.262 221.592ZM80.8933 201.051C76.818 198.075 70.1366 191.875 76.0131 190.883C83.3586 189.642 86.8719 205.688 80.8933 201.051ZM57.4258 186.042C55.8801 188.034 51.9022 190.694 48.3558 185.39C43.9228 178.76 62.0628 180.063 57.4258 186.042Z" fill="#547629"/>
<path d="M147.757 246.527C145.235 245.896 140.51 244.084 141.778 241.89C143.364 239.147 153.288 247.626 147.757 246.527Z" fill="#3D3D3D"/>
<path d="M109.932 245.914C113.023 241.928 105.052 235.746 99.9675 238.186C99.1623 238.572 98.7457 239.18 98.6334 239.906C98.0366 243.762 106.029 250.946 109.932 245.914Z" fill="#3D3D3D"/>
<path d="M103.262 221.592C101.717 223.585 97.34 225.936 92.1993 219.395C85.7734 211.22 107.899 215.613 103.262 221.592Z" fill="#3D3D3D"/>
<path d="M80.8933 201.051C76.818 198.075 70.1366 191.875 76.0131 190.883C83.3586 189.642 86.8719 205.688 80.8933 201.051Z" fill="#3D3D3D"/>
<path d="M68.5284 216.993C61.8979 221.427 53.9382 206.999 56.124 204.181C59.2149 200.195 73.1656 211.015 68.5284 216.993Z" fill="#3D3D3D"/>
<path d="M57.4258 186.042C55.8801 188.034 51.9022 190.694 48.3558 185.39C43.9228 178.76 62.0628 180.063 57.4258 186.042Z" fill="#3D3D3D"/>
<path d="M29.0782 160.863C34.6096 161.962 31.2751 149.801 27.7365 150.248C27.3616 150.295 26.9793 150.444 26.6062 150.674C23.4589 152.613 20.9693 160.281 29.0782 160.863Z" fill="#3D3D3D"/>
<path d="M30.3152 131.706C51.3149 118.794 92.4819 143.821 110.44 157.948C110.78 156.874 111.16 155.768 111.584 154.636C105.525 149.036 93.8126 138.683 87.4923 134.557C86.4037 133.98 85.3082 133.411 84.2082 132.852C61.2468 121.178 36.3199 113.795 30.5853 130.114C30.4195 130.586 30.3318 131.12 30.3152 131.706Z" fill="#909090"/>
<path d="M111.584 154.636C112.107 153.237 112.695 151.797 113.353 150.327C106.38 145.467 97.2085 139.705 87.4923 134.557C93.8126 138.683 105.525 149.036 111.584 154.636Z" fill="#3D3D3D"/>
<path d="M36.0557 146.221C52.9607 133.077 91.7775 151.974 109.073 163.065C109.418 161.467 109.871 159.753 110.44 157.948C92.4819 143.821 51.3149 118.794 30.3152 131.706C30.2149 135.242 32.6951 140.694 36.0557 146.221Z" fill="#3D3D3D"/>
<path d="M51.2045 165.257C51.5591 165.532 51.9191 165.8 52.2859 166.063C65.8742 153.596 95.2555 162.723 108.248 168.845C108.339 167.17 108.608 165.222 109.073 163.065C91.7775 151.974 52.9607 133.077 36.0557 146.221C41.0061 154.363 47.867 162.668 51.2045 165.257Z" fill="#909090"/>
<path d="M77.841 182.758C84.9647 175.543 101.1 172.347 108.277 171.651C108.202 170.832 108.19 169.891 108.248 168.845C95.2555 162.723 65.8742 153.596 52.2859 166.063C57.73 169.972 64.6869 172.876 77.841 182.758Z" fill="#3D3D3D"/>
<path d="M111.153 177.05C110.292 176.181 109.588 175.313 109.101 174.584C108.678 173.952 108.397 172.954 108.277 171.651C101.1 172.347 84.9647 175.543 77.841 182.758C78.7476 183.439 79.6837 184.153 80.6507 184.903C85.4473 188.623 89.5628 192.104 93.0815 195.237C99.2852 185.283 107.714 178.965 111.153 177.05Z" fill="#909090"/>
<path d="M143.031 148.389C151.564 146.069 165.53 139.663 153.133 132.602C141.866 143.013 148.7 125.972 143.168 124.873C140.041 124.252 130.079 131.255 131.949 122.556C134.302 111.613 125.679 114.501 124.134 116.494C122.588 118.487 121.037 119.843 123.601 133.319L143.031 148.389Z" fill="#547629"/>
<path d="M191.571 95.3888C192.231 95.6182 192.786 95.8886 193.245 96.1952C203.065 100.736 203.187 96.8731 213.454 83.6356C224.274 69.6854 210.771 62.4042 194.828 50.0387C178.885 37.6733 173.149 49.1834 164.973 55.6092C158.433 60.7499 161.081 67.4849 163.223 70.2101C171.256 80.4305 184.562 92.0804 191.571 95.3888Z" fill="#3D3D3D"/>
<path d="M153.297 91.2374C156.492 93.715 173.674 110.233 175.666 111.778C178.988 114.355 184.365 117.024 188.275 111.982C192.507 106.527 198.039 99.3934 193.245 96.1952C192.716 95.9507 192.159 95.6819 191.571 95.3888C184.562 92.0804 171.256 80.4305 163.223 70.2101C159.684 70.6573 138.383 77.5435 153.297 91.2374Z" fill="#3D3D3D"/>
<path d="M146.016 104.74C148.823 107.981 157.756 117.038 162.407 120.644C165.728 123.221 170.378 126.827 173.469 122.841C176.046 119.52 179.652 114.87 175.666 111.778C173.674 110.233 156.492 93.715 153.297 91.2374C151.305 89.6917 147.766 90.1389 142.682 92.579C138.614 94.5311 143.21 101.5 146.016 104.74Z" fill="#3D3D3D"/>
<path d="M143.168 124.873C148.7 125.972 141.866 143.013 153.133 132.602L162.407 120.644C157.756 117.038 148.823 107.981 146.016 104.74L131.949 122.556C130.079 131.255 140.041 124.252 143.168 124.873Z" fill="#3D3D3D"/>
</svg>
