<svg width="1002" height="522" viewBox="0 0 1002 522" fill="none" xmlns="http://www.w3.org/2000/svg">
<path d="M125.255 16.0371C145.693 7.10709 147.454 55.1096 145.78 80.2271C161.145 63.8846 195.675 35.5905 210.87 53.1551C226.065 70.7197 183.044 105.139 159.635 120.153C189.973 119.433 247.362 125.411 234.21 155.087C221.058 184.763 172.72 155.972 147.433 145.824C164.63 169.534 198.998 222.635 174.628 234.278C130.72 255.257 137.156 181.766 122.785 150.44C120.854 174.188 123.436 224.305 96.8368 227.585C70.2376 230.865 94.6675 170.588 94.5444 147.225C79.6482 169.857 45.5955 208.267 28.5541 180.843C11.5127 153.419 51.1586 131.254 73.1118 123.599C49.6637 119.486 5.92612 107.692 18.561 93.4199C31.196 79.1479 59.3415 87.9096 71.8349 94.0744C60.1569 77.1262 23.7308 52.9072 45.9173 35.1458C68.1038 17.3843 97.4319 56.681 109.323 78.5495C110.353 61.348 104.816 24.967 125.255 16.0371Z" fill="#3D3D3D"/>
<path d="M133.449 116.55C143.308 114.703 144.06 120.232 143.203 123.227C142.903 125.409 140.249 130.158 132.033 131.697C121.763 133.62 121.125 118.857 133.449 116.55Z" fill="#547629"/>
<path d="M127.789 106.981C131.923 106.207 132.394 109.358 132.113 111.031C132.046 112.258 131.05 114.874 127.605 115.52C123.299 116.326 122.621 107.949 127.789 106.981Z" fill="#547629"/>
<path d="M121.367 121.704C117.477 123.304 116.374 120.315 116.308 118.62C116.124 117.405 116.566 114.641 119.808 113.307C123.859 111.64 126.229 119.704 121.367 121.704Z" fill="#547629"/>
<path d="M114.269 107.607C111.722 104.26 114.326 102.425 115.947 101.925C117.074 101.434 119.859 101.15 121.982 103.939C124.635 107.426 117.453 111.791 114.269 107.607Z" fill="#547629"/>
<path d="M100.206 105.827C96.4621 100.908 100.29 98.2099 102.673 97.4759C104.329 96.7546 108.422 96.3369 111.542 100.436C115.442 105.56 104.885 111.976 100.206 105.827Z" fill="#547629"/>
<path d="M115.335 114.99C115.857 119.163 112.683 119.442 111.03 119.06C109.809 118.918 107.258 117.765 106.824 114.287C106.28 109.94 114.683 109.773 115.335 114.99Z" fill="#547629"/>
<path d="M125.255 277.037C145.693 268.107 147.454 316.11 145.78 341.227C161.145 324.885 195.675 296.591 210.87 314.155C226.065 331.72 183.044 366.139 159.635 381.153C189.973 380.433 247.362 386.411 234.21 416.087C221.058 445.763 172.72 416.972 147.433 406.824C164.63 430.534 198.998 483.635 174.628 495.278C130.72 516.257 137.156 442.766 122.785 411.44C120.854 435.188 123.436 485.305 96.8368 488.585C70.2376 491.865 94.6675 431.588 94.5444 408.225C79.6482 430.857 45.5955 469.267 28.5541 441.843C11.5127 414.419 51.1586 392.254 73.1118 384.599C49.6637 380.486 5.92612 368.692 18.561 354.42C31.196 340.148 59.3415 348.91 71.8349 355.074C60.1569 338.126 23.7308 313.907 45.9173 296.146C68.1038 278.384 97.4319 317.681 109.323 339.549C110.353 322.348 104.816 285.967 125.255 277.037Z" fill="#3D3D3D"/>
<path d="M133.449 377.55C143.308 375.703 144.06 381.232 143.203 384.227C142.903 386.409 140.249 391.158 132.033 392.697C121.763 394.62 121.125 379.857 133.449 377.55Z" fill="#547629"/>
<path d="M127.789 367.981C131.923 367.207 132.394 370.358 132.113 372.031C132.046 373.258 131.05 375.874 127.605 376.52C123.299 377.326 122.621 368.949 127.789 367.981Z" fill="white"/>
<path d="M121.367 382.704C117.477 384.304 116.374 381.315 116.308 379.62C116.124 378.405 116.566 375.641 119.808 374.307C123.859 372.64 126.229 380.704 121.367 382.704Z" fill="white"/>
<path d="M114.269 368.607C111.722 365.26 114.326 363.425 115.947 362.925C117.074 362.434 119.859 362.15 121.982 364.939C124.635 368.426 117.453 372.791 114.269 368.607Z" fill="white"/>
<path d="M100.206 366.827C96.4621 361.908 100.29 359.21 102.673 358.476C104.329 357.755 108.422 357.337 111.542 361.436C115.442 366.56 104.885 372.976 100.206 366.827Z" fill="white"/>
<path d="M115.335 375.99C115.857 380.163 112.683 380.442 111.03 380.06C109.809 379.918 107.258 378.765 106.824 375.287C106.28 370.94 114.683 370.773 115.335 375.99Z" fill="white"/>
<path d="M626.255 16.0371C646.693 7.10709 648.454 55.1096 646.78 80.2271C662.145 63.8846 696.675 35.5905 711.87 53.1551C727.065 70.7197 684.044 105.139 660.635 120.153C690.973 119.433 748.362 125.411 735.21 155.087C722.058 184.763 673.72 155.972 648.433 145.824C665.63 169.534 699.998 222.635 675.628 234.278C631.72 255.257 638.156 181.766 623.785 150.44C621.854 174.188 624.436 224.305 597.837 227.585C571.238 230.865 595.667 170.588 595.544 147.225C580.648 169.857 546.596 208.267 529.554 180.843C512.513 153.419 552.159 131.254 574.112 123.599C550.664 119.486 506.926 107.692 519.561 93.4199C532.196 79.1479 560.342 87.9096 572.835 94.0744C561.157 77.1262 524.731 52.9072 546.917 35.1458C569.104 17.3843 598.432 56.681 610.323 78.5495C611.353 61.348 605.816 24.967 626.255 16.0371Z" fill="#3D3D3D"/>
<path d="M634.449 116.55C644.308 114.703 645.06 120.232 644.203 123.227C643.903 125.409 641.249 130.158 633.033 131.697C622.763 133.62 622.125 118.857 634.449 116.55Z" fill="#547629"/>
<path d="M628.789 106.981C632.923 106.207 633.394 109.358 633.113 111.031C633.046 112.258 632.05 114.874 628.605 115.52C624.299 116.326 623.621 107.949 628.789 106.981Z" fill="#547629"/>
<path d="M622.367 121.704C618.477 123.304 617.374 120.315 617.308 118.62C617.124 117.405 617.566 114.641 620.808 113.307C624.859 111.64 627.229 119.704 622.367 121.704Z" fill="white"/>
<path d="M615.269 107.607C612.722 104.26 615.326 102.425 616.947 101.925C618.074 101.434 620.859 101.15 622.982 103.939C625.635 107.426 618.453 111.791 615.269 107.607Z" fill="white"/>
<path d="M601.206 105.827C597.462 100.908 601.29 98.2099 603.673 97.4759C605.329 96.7546 609.422 96.3369 612.542 100.436C616.442 105.56 605.885 111.976 601.206 105.827Z" fill="#547629"/>
<path d="M616.335 114.99C616.857 119.163 613.683 119.442 612.03 119.06C610.809 118.918 608.258 117.765 607.824 114.287C607.28 109.94 615.683 109.773 616.335 114.99Z" fill="#547629"/>
<path d="M626.255 277.037C646.693 268.107 648.454 316.11 646.78 341.227C662.145 324.885 696.675 296.591 711.87 314.155C727.065 331.72 684.044 366.139 660.635 381.153C690.973 380.433 748.362 386.411 735.21 416.087C722.058 445.763 673.72 416.972 648.433 406.824C665.63 430.534 699.998 483.635 675.628 495.278C631.72 516.257 638.156 442.766 623.785 411.44C621.854 435.188 624.436 485.305 597.837 488.585C571.238 491.865 595.667 431.588 595.544 408.225C580.648 430.857 546.596 469.267 529.554 441.843C512.513 414.419 552.159 392.254 574.112 384.599C550.664 380.486 506.926 368.692 519.561 354.42C532.196 340.148 560.342 348.91 572.835 355.074C561.157 338.126 524.731 313.907 546.917 296.146C569.104 278.384 598.432 317.681 610.323 339.549C611.353 322.348 605.816 285.967 626.255 277.037Z" fill="#3D3D3D"/>
<path d="M634.449 377.55C644.308 375.703 645.06 381.232 644.203 384.227C643.903 386.409 641.249 391.158 633.033 392.697C622.763 394.62 622.125 379.857 634.449 377.55Z" fill="#547629"/>
<path d="M628.789 367.981C632.923 367.207 633.394 370.358 633.113 372.031C633.046 373.258 632.05 375.874 628.605 376.52C624.299 377.326 623.621 368.949 628.789 367.981Z" fill="#547629"/>
<path d="M622.367 382.704C618.477 384.304 617.374 381.315 617.308 379.62C617.124 378.405 617.566 375.641 620.808 374.307C624.859 372.64 627.229 380.704 622.367 382.704Z" fill="white"/>
<path d="M615.269 368.607C612.722 365.26 615.326 363.425 616.947 362.925C618.074 362.434 620.859 362.15 622.982 364.939C625.635 368.426 618.453 372.791 615.269 368.607Z" fill="white"/>
<path d="M601.206 366.827C597.462 361.908 601.29 359.21 603.673 358.476C605.329 357.755 609.422 357.337 612.542 361.436C616.442 366.56 605.885 372.976 601.206 366.827Z" fill="#547629"/>
<path d="M616.335 375.99C616.857 380.163 613.683 380.442 612.03 380.06C610.809 379.918 608.258 378.765 607.824 375.287C607.28 370.94 615.683 370.773 616.335 375.99Z" fill="white"/>
<path d="M876.255 16.0371C896.693 7.10709 898.454 55.1096 896.78 80.2271C912.145 63.8846 946.675 35.5905 961.87 53.1551C977.065 70.7197 934.044 105.139 910.635 120.153C940.973 119.433 998.362 125.411 985.21 155.087C972.058 184.763 923.72 155.972 898.433 145.824C915.63 169.534 949.998 222.635 925.628 234.278C881.72 255.257 888.156 181.766 873.785 150.44C871.854 174.188 874.436 224.305 847.837 227.585C821.238 230.865 845.667 170.588 845.544 147.225C830.648 169.857 796.596 208.267 779.554 180.843C762.513 153.419 802.159 131.254 824.112 123.599C800.664 119.486 756.926 107.692 769.561 93.4199C782.196 79.1479 810.342 87.9096 822.835 94.0744C811.157 77.1262 774.731 52.9072 796.917 35.1458C819.104 17.3843 848.432 56.681 860.323 78.5495C861.353 61.348 855.816 24.967 876.255 16.0371Z" fill="#3D3D3D"/>
<path d="M884.449 116.55C894.308 114.703 895.06 120.232 894.203 123.227C893.903 125.409 891.249 130.158 883.033 131.697C872.763 133.62 872.125 118.857 884.449 116.55Z" fill="white"/>
<path d="M878.789 106.981C882.923 106.207 883.394 109.358 883.113 111.031C883.046 112.258 882.05 114.874 878.605 115.52C874.299 116.326 873.621 107.949 878.789 106.981Z" fill="#547629"/>
<path d="M872.367 121.704C868.477 123.304 867.374 120.315 867.308 118.62C867.124 117.405 867.566 114.641 870.808 113.307C874.859 111.64 877.229 119.704 872.367 121.704Z" fill="#547629"/>
<path d="M865.269 107.607C862.722 104.26 865.326 102.425 866.947 101.925C868.074 101.434 870.859 101.15 872.982 103.939C875.635 107.426 868.453 111.791 865.269 107.607Z" fill="white"/>
<path d="M851.206 105.827C847.462 100.908 851.29 98.2099 853.673 97.4759C855.329 96.7546 859.422 96.3369 862.542 100.436C866.442 105.56 855.885 111.976 851.206 105.827Z" fill="#547629"/>
<path d="M866.335 114.99C866.857 119.163 863.683 119.442 862.03 119.06C860.809 118.918 858.258 117.765 857.824 114.287C857.28 109.94 865.683 109.773 866.335 114.99Z" fill="white"/>
<path d="M876.255 277.037C896.693 268.107 898.454 316.11 896.78 341.227C912.145 324.885 946.675 296.591 961.87 314.155C977.065 331.72 934.044 366.139 910.635 381.153C940.973 380.433 998.362 386.411 985.21 416.087C972.058 445.763 923.72 416.972 898.433 406.824C915.63 430.534 949.998 483.635 925.628 495.278C881.72 516.257 888.156 442.766 873.785 411.44C871.854 435.188 874.436 485.305 847.837 488.585C821.238 491.865 845.667 431.588 845.544 408.225C830.648 430.857 796.596 469.267 779.554 441.843C762.513 414.419 802.159 392.254 824.112 384.599C800.664 380.486 756.926 368.692 769.561 354.42C782.196 340.148 810.342 348.91 822.835 355.074C811.157 338.126 774.731 313.907 796.917 296.146C819.104 278.384 848.432 317.681 860.323 339.549C861.353 322.348 855.816 285.967 876.255 277.037Z" fill="#3D3D3D"/>
<path d="M884.449 377.55C894.308 375.703 895.06 381.232 894.203 384.227C893.903 386.409 891.249 391.158 883.033 392.697C872.763 394.62 872.125 379.857 884.449 377.55Z" fill="white"/>
<path d="M878.789 367.981C882.923 367.207 883.394 370.358 883.113 372.031C883.046 373.258 882.05 375.874 878.605 376.52C874.299 377.326 873.621 368.949 878.789 367.981Z" fill="#547629"/>
<path d="M872.367 382.704C868.477 384.304 867.374 381.315 867.308 379.62C867.124 378.405 867.566 375.641 870.808 374.307C874.859 372.64 877.229 380.704 872.367 382.704Z" fill="#547629"/>
<path d="M865.269 368.607C862.722 365.26 865.326 363.425 866.947 362.925C868.074 362.434 870.859 362.15 872.982 364.939C875.635 368.426 868.453 372.791 865.269 368.607Z" fill="white"/>
<path d="M851.206 366.827C847.462 361.908 851.29 359.21 853.673 358.476C855.329 357.755 859.422 357.337 862.542 361.436C866.442 366.56 855.885 372.976 851.206 366.827Z" fill="#547629"/>
<path d="M866.335 375.99C866.857 380.163 863.683 380.442 862.03 380.06C860.809 379.918 858.258 378.765 857.824 375.287C857.28 370.94 865.683 370.773 866.335 375.99Z" fill="#547629"/>
<path d="M375.644 16.0371C396.082 7.10709 397.843 55.1096 396.168 80.2271C411.534 63.8846 446.063 35.5905 461.258 53.1551C476.453 70.7197 433.433 105.139 410.023 120.153C440.362 119.433 497.751 125.411 484.599 155.087C471.447 184.763 423.109 155.972 397.822 145.824C415.018 169.534 449.386 222.635 425.017 234.278C381.109 255.257 387.544 181.766 373.174 150.44C371.243 174.188 373.825 224.305 347.225 227.585C320.626 230.865 345.056 170.588 344.933 147.225C330.037 169.857 295.984 208.267 278.943 180.843C261.901 153.419 301.547 131.254 323.5 123.599C300.052 119.486 256.315 107.692 268.95 93.4199C281.585 79.1479 309.73 87.9096 322.224 94.0744C310.546 77.1262 274.119 52.9072 296.306 35.1458C318.492 17.3843 347.821 56.681 359.711 78.5495C360.742 61.348 355.205 24.967 375.644 16.0371Z" fill="#3D3D3D"/>
<path d="M383.837 116.55C393.697 114.703 394.448 120.232 393.592 123.227C393.292 125.409 390.638 130.158 382.422 131.697C372.152 133.62 371.513 118.857 383.837 116.55Z" fill="white"/>
<path d="M378.178 106.981C382.312 106.207 382.783 109.358 382.502 111.031C382.435 112.258 381.439 114.874 377.994 115.52C373.687 116.326 373.01 107.949 378.178 106.981Z" fill="#547629"/>
<path d="M371.756 121.704C367.866 123.304 366.763 120.315 366.697 118.62C366.513 117.405 366.955 114.641 370.196 113.307C374.248 111.64 376.618 119.704 371.756 121.704Z" fill="#547629"/>
<path d="M364.658 107.607C362.11 104.26 364.715 102.425 366.336 101.925C367.463 101.434 370.248 101.15 372.371 103.939C375.024 107.426 367.841 111.791 364.658 107.607Z" fill="#547629"/>
<path d="M350.594 105.827C346.851 100.908 350.679 98.2099 353.061 97.4759C354.718 96.7546 358.811 96.3369 361.931 100.436C365.83 105.56 355.274 111.976 350.594 105.827Z" fill="white"/>
<path d="M365.724 114.99C366.245 119.163 363.071 119.442 361.419 119.06C360.198 118.918 357.647 117.765 357.212 114.287C356.669 109.94 365.072 109.773 365.724 114.99Z" fill="#547629"/>
<path d="M375.644 277.037C396.082 268.107 397.843 316.11 396.168 341.227C411.534 324.885 446.063 296.591 461.258 314.155C476.453 331.72 433.433 366.139 410.023 381.153C440.362 380.433 497.751 386.411 484.599 416.087C471.447 445.763 423.109 416.972 397.822 406.824C415.018 430.534 449.386 483.635 425.017 495.278C381.109 516.257 387.544 442.766 373.174 411.44C371.243 435.188 373.825 485.305 347.225 488.585C320.626 491.865 345.056 431.588 344.933 408.225C330.037 430.857 295.984 469.267 278.943 441.843C261.901 414.419 301.547 392.254 323.5 384.599C300.052 380.486 256.315 368.692 268.95 354.42C281.585 340.148 309.73 348.91 322.224 355.074C310.546 338.126 274.119 313.907 296.306 296.146C318.492 278.384 347.821 317.681 359.711 339.549C360.742 322.348 355.205 285.967 375.644 277.037Z" fill="#3D3D3D"/>
<path d="M383.837 377.55C393.697 375.703 394.448 381.232 393.592 384.227C393.292 386.409 390.638 391.158 382.422 392.697C372.152 394.62 371.513 379.857 383.837 377.55Z" fill="white"/>
<path d="M378.178 367.981C382.312 367.207 382.783 370.358 382.502 372.031C382.435 373.258 381.439 375.874 377.994 376.52C373.687 377.326 373.01 368.949 378.178 367.981Z" fill="white"/>
<path d="M371.756 382.704C367.866 384.304 366.763 381.315 366.697 379.62C366.513 378.405 366.955 375.641 370.196 374.307C374.248 372.64 376.618 380.704 371.756 382.704Z" fill="white"/>
<path d="M364.658 368.607C362.11 365.26 364.715 363.425 366.336 362.925C367.463 362.434 370.248 362.15 372.371 364.939C375.024 368.426 367.841 372.791 364.658 368.607Z" fill="#547629"/>
<path d="M350.594 366.827C346.851 361.908 350.679 359.21 353.061 358.476C354.718 357.755 358.811 357.337 361.931 361.436C365.83 366.56 355.274 372.976 350.594 366.827Z" fill="white"/>
<path d="M365.724 375.99C366.245 380.163 363.071 380.442 361.419 380.06C360.198 379.918 357.647 378.765 357.212 375.287C356.669 370.94 365.072 370.773 365.724 375.99Z" fill="#547629"/>
</svg>
