<svg width="404" height="421" viewBox="0 0 404 421" fill="none" xmlns="http://www.w3.org/2000/svg">
<path d="M201.855 25.8446C234.793 11.4535 237.63 88.8121 234.931 129.29C259.694 102.953 315.34 57.3561 339.828 85.6623C364.315 113.969 294.985 169.437 257.259 193.633C306.151 192.472 398.637 202.106 377.442 249.931C356.247 297.756 278.348 251.356 237.597 235.004C265.309 273.213 320.695 358.787 281.422 377.552C210.663 411.36 221.033 292.926 197.875 242.442C194.763 280.714 198.923 361.479 156.057 366.766C113.191 372.052 152.561 274.912 152.363 237.26C128.357 273.734 73.4795 335.633 46.0163 291.438C18.5531 247.243 82.4447 211.523 117.823 199.187C80.0355 192.559 9.55006 173.551 29.9119 150.551C50.2738 127.551 95.6318 141.671 115.766 151.606C96.9459 124.293 38.2432 85.2629 73.9979 56.6393C109.753 28.0157 157.016 91.3444 176.179 126.587C177.84 98.8656 168.917 40.2357 201.855 25.8446Z" fill="#909090"/>
<path d="M215.064 187.828C230.952 184.852 232.164 193.762 230.784 198.589C230.3 202.106 226.023 209.759 212.782 212.239C196.232 215.338 195.203 191.547 215.064 187.828Z" fill="#547629"/>
<path d="M205.936 172.409C212.598 171.161 213.358 176.24 212.904 178.935C212.796 180.913 211.191 185.13 205.639 186.169C198.699 187.469 197.608 173.968 205.936 172.409Z" fill="#547629"/>
<path d="M195.591 196.134C189.323 198.713 187.545 193.895 187.439 191.164C187.142 189.206 187.855 184.751 193.078 182.602C199.608 179.916 203.427 192.911 195.591 196.134Z" fill="#547629"/>
<path d="M184.149 173.416C180.045 168.022 184.242 165.064 186.854 164.259C188.671 163.468 193.159 163.01 196.579 167.505C200.855 173.124 189.28 180.158 184.149 173.416Z" fill="#547629"/>
<path d="M161.484 170.546C155.451 162.618 161.62 158.271 165.459 157.088C168.129 155.925 174.725 155.252 179.753 161.859C186.037 170.116 169.025 180.455 161.484 170.546Z" fill="#547629"/>
<path d="M185.869 185.314C186.71 192.04 181.594 192.489 178.931 191.873C176.964 191.645 172.853 189.787 172.152 184.182C171.277 177.176 184.819 176.907 185.869 185.314Z" fill="#547629"/>
</svg>
