<svg width="303" height="316" viewBox="0 0 303 316" fill="none" xmlns="http://www.w3.org/2000/svg">
<path d="M151.39 19.3834C176.094 8.59009 178.222 66.6091 176.198 96.9678C194.769 77.215 236.504 43.0171 254.87 64.2468C273.236 85.4765 221.238 127.078 192.944 145.225C229.613 144.354 298.977 151.579 283.08 187.448C267.184 223.317 208.76 188.517 178.197 176.253C198.981 204.91 240.52 269.091 211.066 283.164C157.996 308.52 165.774 219.694 148.405 181.832C146.071 210.535 149.192 271.11 117.042 275.074C84.8926 279.039 114.42 206.184 114.271 177.945C96.2669 205.301 55.1086 251.725 34.5113 218.578C13.9139 185.432 61.8326 158.642 88.3666 149.39C60.0256 144.419 7.16155 130.163 22.433 112.913C37.7044 95.6634 71.7229 106.253 86.8232 113.704C72.7084 93.2198 28.6814 63.9471 55.4975 42.4795C82.3135 21.0118 117.761 68.5083 132.133 94.94C133.379 74.1492 126.687 30.1768 151.39 19.3834Z" fill="#909090"/>
<path d="M161.296 140.87C173.213 138.639 174.122 145.321 173.086 148.941C172.724 151.579 169.516 157.319 159.585 159.179C147.172 161.503 146.401 143.66 161.296 140.87Z" fill="#547629"/>
<path d="M154.451 129.307C159.448 128.371 160.017 132.18 159.677 134.201C159.596 135.685 158.392 138.847 154.229 139.627C149.024 140.602 148.205 130.476 154.451 129.307Z" fill="#547629"/>
<path d="M146.692 147.102C141.991 149.036 140.657 145.423 140.578 143.374C140.356 141.905 140.89 138.564 144.808 136.952C149.705 134.938 152.569 144.684 146.692 147.102Z" fill="#547629"/>
<path d="M138.111 130.062C135.032 126.017 138.18 123.799 140.139 123.195C141.501 122.602 144.868 122.258 147.433 125.629C150.64 129.843 141.959 135.119 138.111 130.062Z" fill="#547629"/>
<path d="M121.113 127.909C116.588 121.963 121.215 118.702 124.094 117.815C126.097 116.944 131.044 116.439 134.815 121.393C139.528 127.587 126.769 135.341 121.113 127.909Z" fill="#547629"/>
<path d="M139.401 138.986C140.031 144.03 136.195 144.367 134.198 143.905C132.722 143.734 129.638 142.341 129.113 138.137C128.457 132.882 138.613 132.681 139.401 138.986Z" fill="#547629"/>
</svg>
