<svg width="239" height="37" viewBox="0 0 239 37" fill="none" xmlns="http://www.w3.org/2000/svg">
<path d="M11.3359 15.2102L13.1081 20.5364L10.4449 21.4224L10.0019 20.0909C9.87885 19.721 9.51533 19.4928 8.91136 19.4061C8.70428 19.3764 8.49596 19.3677 8.2864 19.3799L12.0669 30.7425L9.40384 31.6286L5.62329 20.266C5.45065 20.3891 5.29279 20.5197 5.14972 20.6577C4.71064 21.0914 4.55141 21.4894 4.67201 21.8519L5.11873 23.1946L2.45563 24.0806L0.683499 18.7544L11.3359 15.2102Z" fill="#3D3D3D"/>
<path d="M16.6982 19.4625C16.907 20.2056 17.349 20.7697 18.0242 21.155C18.7047 21.5306 19.4165 21.614 20.1595 21.4052C20.9026 21.1964 21.463 20.7555 21.8407 20.0824C22.2238 19.3998 22.311 18.6869 22.1022 17.9439C21.8934 17.2009 21.4487 16.6415 20.7682 16.2659C20.093 15.8806 19.3839 15.7924 18.6409 16.0012C17.8978 16.2101 17.3348 16.6558 16.9516 17.3384C16.5739 18.0115 16.4894 18.7195 16.6982 19.4625ZM12.4776 14.8179L23.2855 11.7806L24.8042 17.1846C25.2239 18.6782 25.0533 20.1028 24.2925 21.4585C23.537 22.8045 22.4124 23.6874 20.9188 24.1072C19.9206 24.3877 18.9535 24.4044 18.0175 24.1572L19.2293 28.4691L16.5273 29.2284L12.4776 14.8179Z" fill="#3D3D3D"/>
<path d="M31.4129 12.6753C30.6613 12.8508 30.0683 13.2255 29.6339 13.7993C29.2053 14.3638 29.0645 14.9611 29.2117 15.5912C29.3589 16.2213 29.7505 16.6983 30.3865 17.0221C31.0284 17.3366 31.7251 17.406 32.4767 17.2305C33.2283 17.055 33.8184 16.685 34.247 16.1205C34.6814 15.5467 34.8251 14.9447 34.6779 14.3146C34.5307 13.6845 34.1362 13.2122 33.4944 12.8977C32.8583 12.5739 32.1645 12.4998 31.4129 12.6753ZM25.3084 11.2188L36.2408 8.66563L37.411 13.6763C37.7337 15.058 37.4742 16.3636 36.6324 17.593C35.7983 18.8205 34.6258 19.6107 33.115 19.9636C32.1053 20.1994 31.1428 20.192 30.2277 19.9414L30.4883 21.0574C30.5769 21.437 30.918 21.6976 31.5115 21.8392C32.1126 21.979 32.7889 21.9612 33.5405 21.7856L39.0067 20.5091L39.645 23.2422L28.7126 25.7953L25.3084 11.2188Z" fill="#3D3D3D"/>
<path d="M37.8693 8.28303L43.3826 7.22851C44.1407 7.08352 44.7621 6.82575 45.2469 6.45522C45.7393 6.08323 45.9489 5.70579 45.8757 5.32292L45.612 3.94458L48.3687 3.41733L49.4232 8.93067L43.9099 9.98519C43.1518 10.1302 42.5265 10.3887 42.0341 10.7607C41.5494 11.1312 41.3436 11.5079 41.4168 11.8908L41.6321 13.0164C42.3665 12.4156 43.2429 12.0178 44.2614 11.823C45.7852 11.5315 47.1776 11.7772 48.4386 12.5599C49.7072 13.3412 50.4748 14.4287 50.7414 15.8224L51.708 20.8763L40.6813 22.9853L37.8693 8.28303ZM42.4691 17.3926L42.4735 17.4156C42.5936 18.0435 42.968 18.5275 43.5966 18.8677C44.2191 19.217 44.9093 19.3191 45.6674 19.1741C46.4255 19.0291 47.0301 18.6833 47.4811 18.1366C47.9384 17.5808 48.1062 16.9852 47.9847 16.3496C47.8631 15.714 47.488 15.2262 46.8594 14.886C46.237 14.5368 45.5467 14.4346 44.7886 14.5796C44.0305 14.7246 43.426 15.0705 42.9749 15.6171C42.5176 16.1729 42.349 16.7647 42.4691 17.3926Z" fill="#3D3D3D"/>
<path d="M64.6032 18.8548L53.5026 20.5324L53.0832 17.7573L58.6335 16.9185C59.3966 16.8031 60.0315 16.5692 60.538 16.2167C61.0369 15.8653 61.2577 15.5008 61.2007 15.1231L61.0276 13.9783C60.2704 14.5501 59.3791 14.9134 58.3539 15.0684C56.8198 15.3002 55.4342 15.0011 54.197 14.1709C52.9675 13.3396 52.2467 12.2225 52.0347 10.8195L51.2658 5.73175L54.0409 5.31234L54.8098 10.4001C54.9065 11.0399 55.259 11.5464 55.8674 11.9197C56.4823 12.2841 57.1713 12.4086 57.9345 12.2933C58.6976 12.1779 59.3152 11.8559 59.7873 11.3273C60.2658 10.7897 60.4568 10.2011 60.3601 9.56124L59.5912 4.47351L62.3663 4.05409L64.6032 18.8548Z" fill="#3D3D3D"/>
<path d="M69.9936 5.94912C69.2268 6.0369 68.5946 6.34076 68.0969 6.8607C67.6062 7.37201 67.3976 7.94911 67.4712 8.592C67.5448 9.23489 67.8788 9.7538 68.4733 10.1487C69.0747 10.535 69.7588 10.6843 70.5256 10.5965C71.2924 10.5087 71.9212 10.2092 72.412 9.69789C72.9096 9.17794 73.1216 8.59653 73.048 7.95364C72.9744 7.31075 72.637 6.79615 72.0356 6.40986C71.4411 6.01493 70.7604 5.86135 69.9936 5.94912ZM64.0976 3.79905L75.2513 2.52233L75.8365 7.63445C75.9978 9.04416 75.5896 10.3111 74.6119 11.4353C73.6419 12.5586 72.3861 13.2085 70.8448 13.3849C69.8146 13.5029 68.8594 13.3846 67.9792 13.0303L68.1095 14.1689C68.1539 14.5562 68.4626 14.8543 69.0359 15.0633C69.6168 15.2715 70.2907 15.3317 71.0576 15.2439L76.6344 14.6055L76.9536 17.394L65.7999 18.6707L64.0976 3.79905Z" fill="#3D3D3D"/>
<path d="M87.3752 1.49648L87.8265 7.09159L85.029 7.31724L84.9162 5.91846C84.8848 5.52991 84.5862 5.22158 84.0203 4.99347C83.8263 4.91527 83.626 4.85711 83.4196 4.81901L84.3824 16.7553L81.5848 16.9809L80.622 5.04466C80.425 5.12312 80.2406 5.21231 80.0687 5.3122C79.5389 5.62869 79.2894 5.97732 79.3201 6.3581L79.4339 7.76854L76.6363 7.99419L76.185 2.39907L87.3752 1.49648Z" fill="#3D3D3D"/>
<path d="M90.2371 1.28059L101.452 0.769003L101.708 6.37646L98.904 6.50435C98.8689 5.73333 98.5624 5.08784 97.9845 4.5679C97.4142 4.03981 96.7434 3.79335 95.9724 3.82852C95.2014 3.86369 94.552 4.17037 94.0243 4.74855C93.504 5.31859 93.2614 5.98912 93.2966 6.76014L93.4671 10.4984C93.5023 11.2695 93.8051 11.919 94.3755 12.4471C94.9533 12.9671 95.6277 13.2095 96.3987 13.1743C97.1698 13.1391 97.8154 12.8365 98.3357 12.2665C98.8635 11.6883 99.1097 11.0137 99.0746 10.2427L101.878 10.1148L102.134 15.7222L90.9192 16.2338L90.2371 1.28059Z" fill="#3D3D3D"/>
<path d="M114.61 0.547875L114.801 15.5154L111.995 15.5512L111.938 11.0726C111.11 11.5744 110.177 11.8319 109.141 11.8451L109.035 11.8464L108.253 15.5989L105.446 15.6347L106.372 11.1787C105.94 10.9347 105.535 10.6241 105.156 10.2469C104.042 9.16949 103.476 7.85514 103.456 6.30382L103.385 0.690987L114.61 0.547875ZM111.875 6.19648C111.866 5.42472 111.58 4.76952 111.02 4.23088C110.467 3.68435 109.805 3.41601 109.033 3.42585C108.261 3.43568 107.602 3.72088 107.056 4.28142C106.517 4.83407 106.253 5.49627 106.263 6.26804C106.272 7.0398 106.554 7.69895 107.107 8.24548C107.667 8.78412 108.333 9.04851 109.105 9.03868C109.877 9.02884 110.532 8.74759 111.071 8.19494C111.617 7.6344 111.885 6.96825 111.875 6.19648Z" fill="#3D3D3D"/>
<path d="M133.905 1.00762L133.359 15.9664L130.555 15.8642L130.947 5.11251C130.961 4.72295 130.696 4.38175 130.153 4.08889C129.618 3.79632 128.964 3.63597 128.193 3.60784C127.422 3.57971 126.758 3.69205 126.203 3.94485C125.64 4.19737 125.351 4.51451 125.338 4.89627L124.945 15.6596L122.14 15.5573L122.686 0.598508L133.905 1.00762Z" fill="#3D3D3D"/>
<path d="M137.919 6.84822C137.866 7.61819 138.092 8.2982 138.598 8.88826C139.112 9.47108 139.754 9.78926 140.524 9.8428C141.294 9.89634 141.97 9.66983 142.553 9.16327C143.143 8.64946 143.465 8.00758 143.519 7.23761C143.572 6.46765 143.342 5.79125 142.828 5.20843C142.322 4.61838 141.684 4.29658 140.914 4.24304C140.144 4.1895 139.463 4.41963 138.873 4.93343C138.291 5.43999 137.973 6.07826 137.919 6.84822ZM135.509 1.05377L146.708 1.83254L146.319 7.43231C146.211 8.98002 145.571 10.2641 144.398 11.2844C143.233 12.2976 141.877 12.7503 140.33 12.6427C139.295 12.5708 138.379 12.2609 137.581 11.713L137.27 16.1812L134.47 15.9865L135.509 1.05377Z" fill="#3D3D3D"/>
<path d="M160.36 3.18366L158.797 18.0706L156.005 17.7775L157.047 7.85677L150.423 17.1913L147.631 16.8983L149.194 2.01133L151.986 2.30441L150.944 12.2252L157.568 2.89058L160.36 3.18366Z" fill="#3D3D3D"/>
<path d="M164.449 7.94438C164.394 8.33035 164.618 8.69663 165.12 9.0432C165.63 9.39086 166.267 9.61871 167.031 9.72674C167.795 9.83478 168.467 9.7919 169.045 9.5981C169.632 9.4054 169.952 9.11606 170.007 8.73009C170.061 8.34412 169.834 7.9773 169.324 7.62964C168.822 7.28307 168.188 7.05576 167.424 6.94773C166.66 6.83969 165.985 6.88203 165.398 7.07473C164.82 7.26852 164.503 7.55841 164.449 7.94438ZM160.164 18.2044L162.259 3.38301L173.375 4.95443L172.786 9.12295C172.63 10.2268 171.994 11.1054 170.878 11.7586C171.757 12.7805 172.109 13.909 171.935 15.1441L171.28 19.7758L160.164 18.2044ZM166.115 16.2111C166.879 16.3191 167.557 16.2299 168.148 15.9435C168.748 15.6582 169.083 15.2608 169.156 14.7513C169.228 14.2418 169.015 13.7669 168.518 13.3266C168.029 12.8874 167.403 12.6138 166.638 12.5058C165.874 12.3977 165.196 12.4869 164.605 12.7733C164.013 13.0598 163.678 13.4533 163.599 13.954L163.596 13.9772C163.533 14.48 163.746 14.951 164.235 15.3902C164.724 15.8294 165.35 16.1031 166.115 16.2111Z" fill="#3D3D3D"/>
<path d="M181.622 13.973C181.85 12.6991 181.772 11.5644 181.388 10.569C181.012 9.57494 180.444 9.00991 179.684 8.87389C178.924 8.73787 178.192 9.07003 177.486 9.87037C176.788 10.6721 176.325 11.7099 176.097 12.9838C175.869 14.2577 175.943 15.3917 176.32 16.3858C176.704 17.3812 177.276 17.9469 178.035 18.0829C178.795 18.219 179.524 17.8861 180.222 17.0844C180.928 16.2841 181.394 15.2469 181.622 13.973ZM183.066 21.8349L172.015 19.8564L173.334 12.4892C173.698 10.4555 174.546 8.81734 175.877 7.57461C177.218 6.32557 178.651 5.83776 180.179 6.11117C181.706 6.38458 182.877 7.33883 183.694 8.97393C184.519 10.6027 184.749 12.434 184.385 14.4676L183.066 21.8349Z" fill="#3D3D3D"/>
<path d="M189.114 13.5139C188.947 14.2676 189.071 14.9735 189.485 15.6316C189.908 16.2838 190.496 16.693 191.25 16.8592C192.004 17.0255 192.706 16.9009 193.356 16.4856C194.016 16.0643 194.429 15.4768 194.595 14.7231C194.762 13.9694 194.633 13.2664 194.21 12.6143C193.796 11.9562 193.213 11.544 192.459 11.3777C191.705 11.2115 190.999 11.339 190.339 11.7603C189.688 12.1756 189.28 12.7602 189.114 13.5139ZM187.582 7.42779L198.545 9.84617L197.336 15.3277C197.002 16.8427 196.18 18.0185 194.869 18.8552C193.568 19.6859 192.16 19.9342 190.645 19.6C189.633 19.3766 188.772 18.9353 188.063 18.2759L187.098 22.6497L184.358 22.0451L187.582 7.42779Z" fill="#3D3D3D"/>
<path d="M207.052 19.7647C207.386 18.5143 207.403 17.3771 207.104 16.353C206.812 15.3309 206.293 14.7203 205.547 14.5212C204.802 14.322 204.044 14.5916 203.274 15.3301C202.511 16.0705 201.963 17.0659 201.629 18.3163C201.295 19.5666 201.274 20.7028 201.566 21.7249C201.865 22.749 202.388 23.3607 203.133 23.5598C203.879 23.759 204.633 23.4883 205.396 22.7479C206.166 22.0094 206.718 21.015 207.052 19.7647ZM207.832 27.7198L196.986 24.823L198.917 17.5921C199.45 15.596 200.432 14.0346 201.863 12.9077C203.303 11.7753 204.773 11.4092 206.272 11.8096C207.771 12.2099 208.858 13.2589 209.534 14.9566C210.22 16.6488 210.297 18.4929 209.764 20.4889L207.832 27.7198Z" fill="#3D3D3D"/>
<path d="M223.822 17.0196L222.124 22.3698L219.449 21.5206L219.873 20.1831C219.991 19.8116 219.832 19.4132 219.394 18.988C219.244 18.8422 219.081 18.7126 218.904 18.5993L215.281 30.013L212.606 29.1638L216.229 17.7501C216.017 17.7482 215.812 17.761 215.615 17.7885C215.005 17.8811 214.642 18.1094 214.527 18.4736L214.099 19.8223L211.424 18.9731L213.122 13.6229L223.822 17.0196Z" fill="#3D3D3D"/>
<path d="M224.664 33.2079L225.658 30.583L228.283 31.5768L227.289 34.2016L224.664 33.2079ZM228.096 21.5024L227.433 23.2523L224.808 22.2585L226.465 17.8838L236.964 21.8589L235.473 25.7961C235.062 26.8825 234.201 27.6152 232.89 27.9943C231.842 28.2976 230.755 28.307 229.629 28.0224L228.946 29.8269L226.321 28.8332L227.977 24.4585L229.727 25.121C230.449 25.3943 231.113 25.4999 231.72 25.438C232.334 25.3788 232.711 25.1669 232.849 24.8023C232.987 24.4378 232.845 24.0299 232.424 23.5787C232.01 23.1303 231.442 22.7694 230.721 22.4962L228.096 21.5024Z" fill="#3D3D3D"/>
</svg>
