<svg width="326" height="452" viewBox="0 0 326 452" fill="none" xmlns="http://www.w3.org/2000/svg">
<path d="M279.608 241.811C283.487 240.882 284.562 241.727 284.812 242.77C289.955 244.104 286.507 247.012 283.943 248.419C285.074 247.853 286.877 247.526 286.558 250.067C286.333 251.863 284.716 252.495 283.142 252.626C283.398 252.928 283.621 253.382 283.779 254.04C284.377 256.542 278.088 257.974 274.868 258.377C275.344 258.631 276.394 259.555 276.793 261.223C277.193 262.891 273.99 263.364 272.338 263.392C272.937 265.894 267.883 265.561 265.281 265.081C266.149 265.241 267.748 266.034 267.206 267.927C266.831 269.238 264.612 269.652 262.576 269.707C262.995 269.946 263.216 270.385 263.001 271.139C262.603 272.528 257.603 273.515 253.199 274.076C253.869 274.286 253.719 274.9 251.786 276.237C247.518 279.19 239.814 279.908 236.495 279.897C226.875 286.076 216.588 292.331 206.12 298.461C211.014 296.394 223.276 292.207 233.171 291.985C240.201 291.828 236.769 293.41 231.805 294.929C234.199 294.488 236.756 294.279 238.796 294.702C241.594 295.282 238.918 297.123 235.474 298.8C237.466 298.321 240.051 297.957 243.292 297.902C250.848 297.774 246.266 301.066 242.61 302.961C244.792 301.943 249.653 300.569 255.375 301.623C259.219 302.332 257.287 303.671 254.002 304.891C258.788 303.808 263.859 303.433 265.105 305.908C266.819 309.309 260.452 309.791 256.084 309.575C261.412 310.019 270.212 311.655 271.129 315.489C272.128 319.659 265.557 316.455 262.148 314.332C266.116 317.057 273.682 323.035 272.199 325.154C270.717 327.272 262.243 321.658 258.192 318.586C259.867 320.39 262.562 324.374 259.939 325.884C257.76 327.138 253.801 322.785 251.219 319.27C252.391 321.198 253.338 323.525 252.133 324.445C250.761 325.493 246.923 321.311 244.207 317.864C244.527 319.026 244.026 320.375 241.476 321.485C237.962 323.014 236.344 318.768 235.741 314.923C235.513 315.708 235.083 316.629 234.347 317.68C232.633 320.129 229.792 316.43 227.763 312.782C227.38 313.194 226.82 313.651 226.043 314.156C222.602 316.389 220.055 312.401 218.703 308.757C218.344 308.887 217.907 309.015 217.381 309.141C212.676 310.267 207.913 302.49 206.12 298.461C202.131 300.796 198.116 303.113 194.102 305.4C184.075 311.114 174.053 316.642 164.454 321.81C172.637 318.589 176.929 320.245 178.053 321.475C181.254 320.996 188.512 320.494 191.934 322.321C195.356 324.147 186.968 327.551 182.347 329.025C186.66 327.992 196.19 326.593 199.811 329.253C202.657 331.344 198.396 333.048 194.308 334.015C199.241 333.241 205.706 333.097 206.512 336.468C207.125 339.027 204.189 339.806 200.826 339.842C205.437 340.444 210.208 341.517 210.612 343.203C210.991 344.787 208.722 345.031 206.225 344.811C208.867 345.637 211.6 347.331 212.358 350.501C213.556 355.505 209.103 354.219 206.727 352.951C208.01 354.848 209.971 359.229 207.547 361.573C205.506 363.547 202.108 358.131 199.972 353.785C200.418 355.539 199.958 357.372 196.641 357.57C191.737 357.862 191.199 350.421 191.544 346.665L187.837 351.961C186.355 354.079 184.772 346.081 184.165 341.817C184.023 342.953 183.317 345.547 181.635 346.832C180.117 347.991 178.27 342.701 177.314 339.105C177.146 339.701 176.624 340.551 175.433 341.702C173.176 343.885 171.588 337.748 170.958 333.731C171.042 335.158 170.538 336.985 168.055 336.855C165.033 336.696 164.395 326.759 164.454 321.81C161.088 323.622 157.774 325.39 154.53 327.106C150.348 329.317 146.283 331.443 142.373 333.466C138.946 326.075 133.082 311.275 137.045 311.209C142 311.125 137.069 306.111 141.227 302.701C142.896 301.333 143.831 300.91 144.322 300.936C141.944 295.691 139.175 286.448 144.493 285.175C147.295 284.505 148.832 284.861 149.613 285.583C148.425 279.756 147.385 271.601 149.981 271.737C153.003 271.895 154.876 273.137 155.434 273.738C153.402 268.713 150.615 258.798 155.719 259.34C160.822 259.882 162.598 262.103 162.847 263.145C162.966 260.178 163.909 254.073 166.731 253.397C169.554 252.722 170.07 262.151 169.976 266.951C171.52 264.744 174.758 260.956 175.357 263.458C175.956 265.96 172.566 272.577 170.796 275.573C172.732 273.272 176.855 269.713 177.853 273.883C178.727 277.534 170.652 283.608 164.96 287.175C168.744 285.056 173.813 282.983 174.468 285.717C175.266 289.053 166.888 295.614 162.6 298.478C165.178 297.126 170.533 295.256 171.332 298.592C172.13 301.929 163.919 309.185 159.714 312.396C162.208 310.697 167.348 307.924 167.947 310.426C168.546 312.928 159.251 322.588 154.53 327.106C157.774 325.39 161.088 323.622 164.454 321.81C174.053 316.642 184.075 311.114 194.102 305.4C190.357 300.146 184.419 289.885 190.625 290.877C198.383 292.117 180.776 280.9 189.259 279.972C197.741 279.043 182.058 270.672 190.791 270.786C199.523 270.901 187.119 260.642 193 259.235C198.88 257.827 192.678 252.698 197.383 251.572C202.088 250.446 197.489 241.626 201.517 242.866C205.545 244.107 209.893 251.884 205.26 258.505C200.627 265.125 211.996 250.278 212.567 257.858C213.056 264.355 204.405 265.323 205.154 268.451C207.649 266.751 212.553 264.034 212.211 266.761C211.783 270.171 209.004 274.143 202.196 276.875C195.389 279.606 216.31 273.496 207.899 279.919C201.17 285.057 199.987 288.426 200.237 289.469C203.183 286.192 209.04 280.528 208.897 284.089C208.755 287.65 198.974 299.781 194.102 305.4C198.116 303.113 202.131 300.796 206.12 298.461C216.588 292.331 226.875 286.076 236.495 279.897C232.712 276.562 237.192 274.149 239.905 273.36C236.483 271.534 240.166 269.256 242.435 268.345C240.895 266.068 245.381 265.068 247.817 264.852C246.077 261.741 249.563 260.025 251.523 259.556C250.525 255.386 254.529 254.795 256.655 255.021C256.598 250.625 260.053 250.166 261.787 250.485C261.73 246.09 265.185 245.63 266.92 245.95C268.203 242.997 271.208 243.086 272.551 243.5C277.683 238.964 277.255 242.374 279.608 241.811Z" fill="#3D3D3D"/>
<path d="M129.338 157.863C130.163 218.957 131.743 263.118 122.127 324.706C121.041 331.663 119.969 338.537 118.93 345.307M125.648 450.621C112.756 402.785 114.402 374.801 118.93 345.307M118.93 345.307C125.683 341.991 133.641 337.984 142.373 333.466M284.812 242.77C284.562 241.727 283.487 240.882 279.608 241.811C277.255 242.374 277.683 238.964 272.551 243.5C271.208 243.086 268.203 242.997 266.92 245.95C265.185 245.63 261.73 246.09 261.787 250.485C260.053 250.166 256.598 250.625 256.655 255.021C254.529 254.795 250.525 255.386 251.523 259.556C249.563 260.025 246.077 261.741 247.817 264.852C245.381 265.068 240.895 266.068 242.435 268.345C240.166 269.256 236.483 271.534 239.905 273.36C237.192 274.149 232.712 276.562 236.495 279.897M284.812 242.77C275.198 253.381 257.425 266.456 236.495 279.897M284.812 242.77C290.115 244.146 286.285 247.194 283.707 248.545C284.8 247.916 286.9 247.34 286.558 250.067C286.216 252.795 282.662 252.837 280.927 252.518C281.628 251.983 283.18 251.538 283.779 254.04C284.377 256.542 278.088 257.974 274.868 258.377C275.344 258.631 276.394 259.555 276.793 261.223C277.193 262.891 273.99 263.364 272.338 263.392C272.937 265.894 267.883 265.561 265.281 265.081C266.149 265.241 267.748 266.034 267.206 267.927C266.664 269.821 262.276 269.842 260.149 269.617C261.325 269.335 263.542 269.245 263.001 271.139C262.459 273.032 253.366 274.18 248.887 274.517C251.631 273.86 256.053 273.284 251.786 276.237C247.518 279.19 239.814 279.908 236.495 279.897M236.495 279.897C226.875 286.076 216.588 292.331 206.12 298.461M142.373 333.466C138.946 326.075 133.082 311.275 137.045 311.209C142 311.125 137.069 306.111 141.227 302.701C144.553 299.974 144.965 301.002 144.755 301.857C142.315 296.859 138.847 286.527 144.493 285.175C150.138 283.824 150.647 286.642 150.196 288.22C148.865 282.659 146.959 271.578 149.981 271.737C153.003 271.895 154.876 273.137 155.434 273.738C153.402 268.713 150.615 258.798 155.719 259.34C160.822 259.882 162.598 262.103 162.847 263.145C162.966 260.178 163.909 254.073 166.731 253.397C169.554 252.722 170.07 262.151 169.976 266.951C171.52 264.744 174.758 260.956 175.357 263.458C175.956 265.96 172.566 272.577 170.796 275.573C172.732 273.272 176.855 269.713 177.853 273.883C178.851 278.054 168.171 285.387 162.706 288.532C166.294 286.203 173.669 282.38 174.468 285.717C175.266 289.053 166.888 295.614 162.6 298.478C165.178 297.126 170.533 295.256 171.332 298.592C172.13 301.929 163.919 309.185 159.714 312.396C162.208 310.697 167.348 307.924 167.947 310.426C168.546 312.928 159.251 322.588 154.53 327.106M142.373 333.466C146.283 331.443 150.348 329.317 154.53 327.106M154.53 327.106C157.774 325.39 161.088 323.622 164.454 321.81M194.102 305.4C190.357 300.146 184.419 289.885 190.625 290.877C198.383 292.117 180.776 280.9 189.259 279.972C197.741 279.043 182.058 270.672 190.791 270.786C199.523 270.901 187.119 260.642 193 259.235C198.88 257.827 192.678 252.698 197.383 251.572C202.088 250.446 197.489 241.626 201.517 242.866C205.545 244.107 209.893 251.884 205.26 258.505C200.627 265.125 211.996 250.278 212.567 257.858C213.056 264.355 204.405 265.323 205.154 268.451C207.649 266.751 212.553 264.034 212.211 266.761C211.783 270.171 209.004 274.143 202.196 276.875C195.389 279.606 216.31 273.496 207.899 279.919C201.17 285.057 199.987 288.426 200.237 289.469C203.183 286.192 209.04 280.528 208.897 284.089C208.755 287.65 198.974 299.781 194.102 305.4ZM194.102 305.4C184.075 311.114 174.053 316.642 164.454 321.81M194.102 305.4C198.116 303.113 202.131 300.796 206.12 298.461M164.454 321.81C164.395 326.759 165.033 336.696 168.055 336.855C171.078 337.013 171.168 334.273 170.835 332.882C171.358 336.799 173.01 344.046 175.433 341.702C177.857 339.359 177.512 338.265 177.037 338.012C177.869 341.487 179.953 348.116 181.635 346.832C183.317 345.547 184.023 342.953 184.165 341.817C184.772 346.081 186.355 354.079 187.837 351.961C189.32 349.842 190.926 347.547 191.544 346.665C191.199 350.421 191.737 357.862 196.641 357.57C201.545 357.278 200.205 353.41 198.922 351.512C200.787 355.842 205.124 363.916 207.547 361.573C209.971 359.229 208.01 354.848 206.727 352.951C209.103 354.219 213.556 355.505 212.358 350.501C211.161 345.496 205.04 344.169 202.129 344.131C205.206 344.864 211.211 345.705 210.612 343.203C210.013 340.7 199.788 339.547 194.751 339.283C199.087 340.082 207.511 340.638 206.512 336.468C205.514 332.297 195.855 333.507 191.151 334.633C195.547 333.949 203.433 331.914 199.811 329.253C196.19 326.593 186.66 327.992 182.347 329.025C186.968 327.551 195.356 324.147 191.934 322.321C188.512 320.494 181.254 320.996 178.053 321.475C176.929 320.245 172.637 318.589 164.454 321.81ZM206.12 298.461C207.913 302.49 212.676 310.267 217.381 309.141C222.086 308.015 219.698 306.698 217.916 306.181C218.831 310.003 221.737 316.95 226.043 314.156C230.348 311.362 227.955 310.024 226.221 309.704C228.003 313.687 232.124 320.858 234.347 317.68C236.571 314.502 236.01 312.505 235.452 311.904C235.583 315.914 236.971 323.445 241.476 321.485C245.981 319.525 244.089 316.818 242.58 315.709C245.064 319.156 250.451 325.73 252.133 324.445C253.815 323.161 251.303 319.132 249.837 317.279C252.111 320.776 257.315 327.394 259.939 325.884C262.562 324.374 259.867 320.39 258.192 318.586C262.243 321.658 270.717 327.272 272.199 325.154C273.682 323.035 266.116 317.057 262.148 314.332C265.557 316.455 272.128 319.659 271.129 315.489C270.131 311.319 259.807 309.748 254.77 309.484C259.005 309.86 267.001 309.671 265.105 305.908C263.21 302.145 252.473 304.97 247.342 306.853C252.621 305.589 261.619 302.774 255.375 301.623C249.131 300.473 243.91 302.214 242.08 303.229C245.787 301.397 251.219 297.768 243.292 297.902C235.366 298.036 231.364 300.022 230.355 300.999C234.913 299.262 242.983 295.57 238.796 294.702C234.609 293.834 228.239 295.626 225.578 296.631C232.232 294.99 243.067 291.764 233.171 291.985C223.276 292.207 211.014 296.394 206.12 298.461Z" stroke="#3D3D3D" stroke-width="2"/>
<path fill-rule="evenodd" clip-rule="evenodd" d="M60.9702 117.053C59.6878 115.764 58.4959 114.389 57.4911 112.873C46.1277 95.7308 35.4 67.3534 74.1223 75.4831C124.712 86.1042 71.7542 51.3412 93.6687 44.5963C115.583 37.8513 135.396 44.2992 131.316 88.2535C127.236 132.208 154.952 64.1268 170.612 55.0298C185.923 46.1358 232.089 52.3959 208.337 109.668C200.405 126.562 179.253 158.193 158.107 149.558C131.676 138.765 179.859 173.702 182.484 180.132C186.954 191.082 167.486 232.949 83.798 200.601C77.5877 198.58 71.322 188.79 92.3568 165.558C95.1472 162.477 99.1069 158.298 96.7023 154.906C95.5959 153.346 93.0272 152.688 87.862 154.451C74.7164 158.937 50.716 181.203 46.0883 148.159C42.3861 121.724 59.0825 122.399 67.8934 126.041C69.267 126.716 69.6051 125.735 60.9702 117.053ZM112.051 158.671C97.9464 157.362 92.0354 123.673 102.844 99.4375C107.143 86.2293 151.347 125.447 151.394 132.036C151.441 138.624 134.028 160.711 112.051 158.671Z" fill="#DFDFDF"/>
<path d="M102.844 99.4375C92.0354 123.673 97.9464 157.362 112.051 158.671C134.028 160.711 151.441 138.624 151.394 132.036C151.347 125.447 107.143 86.2293 102.844 99.4375Z" fill="#3D3D3D"/>
<path fill-rule="evenodd" clip-rule="evenodd" d="M69.6205 60.1411C82.8083 61.5678 75.1054 28.476 89.1357 24.8621C106.674 20.3447 117.842 46.6203 152.699 6.83947C161.111 -0.982747 180.97 -6.16565 195.26 32.718C196.358 35.7067 197.651 38.7309 200.003 40.8768C204.516 44.9929 212.649 48.5599 229.846 45.8231C253.714 44.6387 248.986 81.2663 228.04 100.742C213.488 113.292 191.012 144.053 217.529 166.705C239.626 185.582 192.535 234.528 143.266 224.337C136.667 222.919 125.684 222.705 134.544 233.184C145.355 245.97 61.9922 259.427 57.6497 208.99C57.4344 206.489 58.3481 203.585 56.8414 201.577C55.4516 199.726 51.9316 198.634 44.2674 200.882C28.9256 205.384 0.219317 183.626 24.1893 157.1C25.643 155.626 28.4878 143.892 17.554 150.559C4.42803 158.562 -20.062 111.294 43.6576 115.233C48.0551 115.933 54.196 114.718 43.5795 104.252C30.3088 91.1688 12.4738 53.959 69.6205 60.1411ZM74.1223 75.4831C35.4 67.3534 46.1277 95.7308 57.4911 112.873C58.4959 114.389 59.6878 115.764 60.9702 117.053C69.6051 125.735 69.267 126.716 67.8934 126.041C59.0825 122.399 42.3861 121.724 46.0883 148.159C50.716 181.203 74.7164 158.937 87.862 154.451C93.0272 152.688 95.5959 153.346 96.7023 154.906C99.1069 158.298 95.1472 162.477 92.3568 165.558C71.322 188.79 77.5877 198.58 83.798 200.601C167.486 232.949 186.954 191.082 182.484 180.132C179.859 173.702 131.676 138.765 158.107 149.558C179.253 158.193 200.405 126.562 208.337 109.668C232.089 52.3959 185.923 46.1358 170.612 55.0298C154.952 64.1268 127.236 132.208 131.316 88.2535C135.396 44.2992 115.583 37.8513 93.6687 44.5963C71.7542 51.3412 124.712 86.1042 74.1223 75.4831Z" fill="#909090"/>
<path d="M116.152 157.627C111.059 162.056 102.212 173.979 107.57 186.24" stroke="#3D3D3D" stroke-width="2"/>
<path d="M127.119 155.346L127.26 175.111" stroke="#3D3D3D" stroke-width="2.25"/>
<path d="M133.658 148.719C142.474 153.049 158.819 166.11 153.674 183.716" stroke="#3D3D3D" stroke-width="2"/>
<path d="M102.869 142.348C96.3013 145.323 80.0821 149.977 67.7461 144.794" stroke="#3D3D3D" stroke-width="2"/>
<path d="M100.608 133.58L78.6621 135.932" stroke="#3D3D3D" stroke-width="2"/>
<path d="M98.3006 118.218C88.7787 117.554 68.3923 112.721 63.0215 98.7031" stroke="#3D3D3D" stroke-width="2"/>
<path d="M102.619 107.207C98.9222 102.109 89.7718 91.9246 82.7441 91.9746" stroke="#3D3D3D" stroke-width="2"/>
<path d="M113.565 102.739C116.425 93.2013 120.364 70.625 113.299 65.4043" stroke="#3D3D3D" stroke-width="2"/>
<path d="M146.695 128.862C158.398 127.315 182.223 121.581 183.905 111.027" stroke="#3D3D3D" stroke-width="2"/>
<path d="M170.215 85.1719C168.813 86.5107 166.856 89.1824 170.243 89.1583C174.477 89.1281 172.565 83.1646 170.215 85.1719Z" fill="#3D3D3D" stroke="#3D3D3D" stroke-width="2"/>
<path d="M112.961 63.6153C111.559 64.9541 109.602 67.6258 112.989 67.6016C117.223 67.5715 115.311 61.608 112.961 63.6153Z" fill="#3D3D3D" stroke="#3D3D3D" stroke-width="2"/>
<path d="M84.1857 90.8684C82.3585 90.221 79.0915 89.6791 80.6405 92.6915C82.5768 96.4569 87.0369 92.0603 84.1857 90.8684Z" fill="#3D3D3D" stroke="#3D3D3D" stroke-width="2"/>
<path d="M59.8966 97.9807C61.5 99.07 64.5232 100.422 63.788 97.1155C62.8691 92.9823 57.4405 96.1052 59.8966 97.9807Z" fill="#3D3D3D" stroke="#3D3D3D" stroke-width="2"/>
<path d="M78.1996 134.745C77.2809 136.452 76.2468 139.598 79.4603 138.527C83.4771 137.188 79.8126 132.109 78.1996 134.745Z" fill="#3D3D3D" stroke="#3D3D3D" stroke-width="2"/>
<path d="M65.4293 147.065C67.3356 146.713 70.4365 145.55 67.5897 143.715C64.0311 141.42 62.364 147.457 65.4293 147.065Z" fill="#3D3D3D" stroke="#3D3D3D" stroke-width="2"/>
<path d="M104.417 184.602C105.194 186.378 107.033 189.132 108.172 185.942C109.595 181.954 103.338 181.706 104.417 184.602Z" fill="#3D3D3D" stroke="#3D3D3D" stroke-width="2"/>
<path d="M127.04 177.349C128.97 177.168 132.162 176.286 129.49 174.204C126.15 171.602 123.952 177.466 127.04 177.349Z" fill="#3D3D3D" stroke="#3D3D3D" stroke-width="2"/>
<path d="M156.378 184.406C155.156 182.901 152.65 180.736 152.403 184.114C152.093 188.337 158.191 186.909 156.378 184.406Z" fill="#3D3D3D" stroke="#3D3D3D" stroke-width="2"/>
<path d="M185.314 110.587C185.965 108.761 186.513 105.495 183.497 107.038C179.729 108.968 184.117 113.436 185.314 110.587Z" fill="#3D3D3D" stroke="#3D3D3D" stroke-width="2"/>
<path d="M156.04 109.383C157.143 110.977 159.476 113.327 159.982 109.978C160.614 105.791 154.424 106.749 156.04 109.383Z" fill="#3D3D3D" stroke="#3D3D3D" stroke-width="2"/>
<path d="M137.818 115.745C145.071 106.176 161.773 87.0233 170.557 86.9608M142.258 122.302L157.537 109.016" stroke="#3D3D3D" stroke-width="2"/>
</svg>
