<svg width="434" height="603" viewBox="0 0 434 603" fill="none" xmlns="http://www.w3.org/2000/svg">
<path d="M372.144 322.746C377.316 321.507 378.749 322.634 379.082 324.024C385.941 325.804 381.343 329.68 377.924 331.556C379.433 330.802 381.836 330.366 381.411 333.755C381.111 336.149 378.954 336.991 376.856 337.166C377.197 337.569 377.495 338.174 377.705 339.051C378.503 342.387 370.117 344.297 365.825 344.834C366.458 345.172 367.859 346.405 368.391 348.629C368.923 350.853 364.653 351.484 362.451 351.521C363.249 354.857 356.511 354.412 353.042 353.773C354.198 353.986 356.33 355.043 355.608 357.568C355.108 359.316 352.149 359.867 349.434 359.941C349.993 360.259 350.288 360.845 350.001 361.849C349.471 363.701 342.804 365.018 336.932 365.766C337.825 366.046 337.625 366.864 335.047 368.648C329.358 372.585 319.085 373.542 314.661 373.528C301.833 381.766 288.117 390.107 274.159 398.279C280.685 395.524 297.035 389.941 310.228 389.645C319.601 389.435 315.025 391.545 308.407 393.569C311.599 392.982 315.009 392.704 317.728 393.268C321.459 394.041 317.89 396.496 313.298 398.731C315.955 398.093 319.401 397.607 323.723 397.534C333.798 397.364 327.688 401.753 322.813 404.279C325.722 402.922 332.205 401.09 339.833 402.496C344.958 403.441 342.383 405.226 338.003 406.852C344.384 405.409 351.145 404.909 352.807 408.209C355.091 412.743 346.602 413.386 340.779 413.097C347.883 413.69 359.616 415.872 360.839 420.983C362.17 426.544 353.41 422.272 348.864 419.441C354.155 423.073 364.242 431.045 362.266 433.87C360.289 436.694 348.991 429.209 343.589 425.113C345.823 427.517 349.416 432.83 345.918 434.843C343.013 436.515 337.734 430.712 334.292 426.025C335.855 428.596 337.117 431.699 335.511 432.925C333.681 434.322 328.564 428.747 324.943 424.15C325.369 425.7 324.701 427.498 321.301 428.978C316.616 431.016 314.459 425.356 313.654 420.229C313.351 421.275 312.777 422.504 311.797 423.904C309.511 427.17 305.723 422.238 303.018 417.374C302.506 417.924 301.761 418.533 300.724 419.206C296.136 422.184 292.74 416.866 290.938 412.008C290.459 412.18 289.876 412.351 289.175 412.519C282.902 414.021 276.551 403.651 274.159 398.279C268.841 401.393 263.488 404.482 258.136 407.532C244.767 415.149 231.404 422.521 218.605 429.411C229.515 425.117 235.239 427.324 236.737 428.965C241.006 428.326 250.683 427.657 255.246 430.092C259.808 432.527 248.624 437.066 242.463 439.031C248.213 437.654 260.92 435.788 265.748 439.336C269.543 442.124 263.862 444.396 258.41 445.684C264.988 444.653 273.607 444.461 274.683 448.955C275.5 452.368 271.585 453.407 267.102 453.454C273.25 454.256 279.611 455.688 280.149 457.935C280.654 460.048 277.629 460.373 274.3 460.079C277.823 461.181 281.467 463.44 282.478 467.665C284.075 474.338 278.138 472.623 274.97 470.932C276.681 473.462 279.295 479.303 276.063 482.428C273.342 485.06 268.81 477.839 265.962 472.045C266.558 474.383 265.944 476.827 261.521 477.091C254.982 477.48 254.266 467.56 254.725 462.551L249.783 469.613C247.806 472.437 245.695 461.773 244.887 456.087C244.697 457.602 243.756 461.061 241.514 462.774C239.489 464.32 237.027 457.266 235.751 452.471C235.529 453.266 234.832 454.399 233.244 455.935C230.235 458.845 228.118 450.662 227.278 445.307C227.389 447.209 226.718 449.644 223.407 449.471C219.377 449.26 218.527 436.01 218.605 429.411C214.117 431.827 209.698 434.184 205.373 436.472C199.797 439.421 194.377 442.255 189.164 444.953C184.594 435.098 176.776 415.365 182.06 415.276C188.666 415.165 182.092 408.479 187.636 403.933C189.861 402.109 191.108 401.544 191.763 401.579C188.592 394.586 184.9 382.263 191.991 380.565C195.727 379.671 197.775 380.146 198.818 381.109C197.233 373.339 195.847 362.465 199.308 362.647C203.338 362.858 205.834 364.514 206.579 365.316C203.87 358.615 200.153 345.396 206.958 346.118C213.763 346.841 216.13 349.802 216.463 351.192C216.621 347.235 217.878 339.095 221.642 338.194C225.406 337.293 226.094 349.866 225.967 356.265C228.027 353.323 232.344 348.272 233.143 351.608C233.942 354.945 229.421 363.767 227.061 367.761C229.643 364.694 235.139 359.949 236.47 365.509C237.635 370.376 226.87 378.475 219.28 383.231C224.325 380.406 231.084 377.642 231.957 381.287C233.022 385.735 221.851 394.484 216.133 398.302C219.57 396.499 226.711 394.006 227.776 398.455C228.841 402.903 217.892 412.578 212.285 416.86C215.611 414.594 222.464 410.896 223.262 414.232C224.061 417.568 211.669 430.449 205.373 436.472C209.698 434.184 214.117 431.827 218.605 429.411C231.404 422.521 244.767 415.149 258.136 407.532C253.143 400.526 245.225 386.845 253.5 388.167C263.845 389.821 240.368 374.864 251.678 373.627C262.988 372.389 242.078 361.228 253.721 361.38C265.364 361.533 248.825 347.855 256.666 345.978C264.507 344.101 256.238 337.262 262.511 335.76C268.784 334.259 262.653 322.499 268.023 324.153C273.393 325.807 279.191 336.177 273.014 345.004C266.836 353.831 281.995 334.036 282.756 344.142C283.408 352.804 271.874 354.095 272.872 358.266C276.198 356 282.737 352.377 282.281 356.013C281.711 360.559 278.005 365.855 268.928 369.498C259.852 373.14 287.747 364.993 276.532 373.556C267.56 380.407 265.983 384.9 266.316 386.29C270.244 381.92 278.053 374.368 277.863 379.117C277.673 383.865 264.632 400.039 258.136 407.532C263.488 404.482 268.841 401.393 274.159 398.279C288.117 390.107 301.833 381.766 314.661 373.528C309.617 369.08 315.59 365.864 319.206 364.811C314.644 362.376 319.555 359.339 322.58 358.125C320.527 355.089 326.508 353.755 329.756 353.468C327.436 349.32 332.084 347.032 334.698 346.406C333.367 340.846 338.705 340.058 341.54 340.359C341.464 334.498 346.071 333.886 348.383 334.312C348.307 328.451 352.913 327.839 355.226 328.265C356.937 324.328 360.944 324.446 362.734 324.998C369.577 318.951 369.007 323.496 372.144 322.746Z" fill="#3D3D3D"/>
<path d="M171.784 210.815C172.885 292.275 174.99 351.156 162.17 433.273C160.722 442.549 159.292 451.714 157.906 460.74M166.864 601.159C149.674 537.378 151.869 500.066 157.906 460.74M157.906 460.74C166.911 456.32 177.522 450.977 189.164 444.953M379.082 324.024C378.749 322.634 377.316 321.507 372.144 322.746C369.007 323.496 369.577 318.951 362.734 324.998C360.944 324.446 356.937 324.328 355.226 328.265C352.913 327.839 348.307 328.451 348.383 334.312C346.071 333.886 341.464 334.498 341.54 340.359C338.705 340.058 333.367 340.846 334.698 346.406C332.084 347.032 327.436 349.32 329.756 353.468C326.508 353.755 320.527 355.089 322.58 358.125C319.555 359.339 314.644 362.376 319.206 364.811C315.59 365.864 309.617 369.08 314.661 373.528M379.082 324.024C366.264 338.173 342.566 355.607 314.661 373.528M379.082 324.024C386.153 325.859 381.047 329.923 377.609 331.725C379.067 330.887 381.867 330.118 381.411 333.755C380.955 337.391 376.216 337.448 373.903 337.022C374.837 336.308 376.906 335.715 377.705 339.051C378.503 342.387 370.117 344.297 365.825 344.834C366.458 345.172 367.859 346.405 368.391 348.629C368.923 350.853 364.653 351.484 362.451 351.521C363.249 354.857 356.511 354.412 353.042 353.773C354.198 353.986 356.33 355.043 355.608 357.568C354.886 360.092 349.034 360.121 346.199 359.82C347.767 359.445 350.723 359.325 350.001 361.849C349.278 364.374 337.154 365.904 331.182 366.354C334.841 365.478 340.737 364.711 335.047 368.648C329.358 372.585 319.085 373.542 314.661 373.528M314.661 373.528C301.833 381.766 288.117 390.107 274.159 398.279M189.164 444.953C184.594 435.098 176.776 415.365 182.06 415.276C188.666 415.165 182.092 408.479 187.636 403.933C192.071 400.296 192.62 401.667 192.34 402.807C189.087 396.144 184.463 382.367 191.991 380.565C199.518 378.763 200.196 382.52 199.594 384.624C197.82 377.21 195.278 362.436 199.308 362.647C203.338 362.858 205.834 364.514 206.579 365.316C203.87 358.615 200.153 345.396 206.958 346.118C213.763 346.841 216.13 349.802 216.463 351.192C216.621 347.235 217.878 339.095 221.642 338.194C225.406 337.293 226.094 349.866 225.967 356.265C228.027 353.323 232.344 348.272 233.143 351.608C233.942 354.945 229.421 363.767 227.061 367.761C229.643 364.694 235.139 359.949 236.47 365.509C237.801 371.069 223.561 380.847 216.275 385.041C221.058 381.936 230.892 376.839 231.957 381.287C233.022 385.735 221.851 394.484 216.133 398.302C219.57 396.499 226.711 394.006 227.776 398.455C228.841 402.903 217.892 412.578 212.285 416.86C215.611 414.594 222.464 410.896 223.262 414.232C224.061 417.568 211.669 430.449 205.373 436.472M189.164 444.953C194.377 442.255 199.797 439.421 205.373 436.472M205.373 436.472C209.698 434.184 214.117 431.827 218.605 429.411M258.136 407.532C253.143 400.526 245.225 386.845 253.5 388.167C263.845 389.821 240.368 374.864 251.678 373.627C262.988 372.389 242.078 361.227 253.721 361.38C265.364 361.533 248.825 347.855 256.666 345.978C264.507 344.101 256.238 337.262 262.511 335.76C268.784 334.259 262.653 322.499 268.023 324.153C273.393 325.807 279.191 336.177 273.014 345.004C266.836 353.831 281.995 334.036 282.756 344.142C283.408 352.804 271.874 354.095 272.872 358.266C276.198 356 282.737 352.377 282.281 356.013C281.711 360.559 278.005 365.855 268.928 369.498C259.852 373.14 287.747 364.993 276.532 373.556C267.56 380.407 265.983 384.9 266.316 386.29C270.244 381.92 278.053 374.368 277.863 379.117C277.673 383.865 264.632 400.039 258.136 407.532ZM258.136 407.532C244.767 415.149 231.404 422.521 218.605 429.411M258.136 407.532C263.488 404.482 268.841 401.393 274.159 398.279M218.605 429.411C218.527 436.01 219.377 449.26 223.407 449.471C227.437 449.682 227.557 446.028 227.113 444.175C227.811 449.397 230.013 459.06 233.244 455.935C236.476 452.81 236.016 451.352 235.382 451.014C236.492 455.647 239.271 464.486 241.514 462.774C243.756 461.061 244.697 457.602 244.887 456.087C245.695 461.773 247.806 472.437 249.783 469.613C251.76 466.788 253.901 463.728 254.725 462.551C254.266 467.56 254.982 477.48 261.521 477.091C268.06 476.701 266.273 471.544 264.562 469.014C267.05 474.788 272.832 485.553 276.063 482.428C279.295 479.303 276.681 473.462 274.97 470.932C278.138 472.623 284.075 474.338 282.478 467.665C280.881 460.993 272.72 459.223 268.839 459.172C272.941 460.15 280.947 461.271 280.149 457.935C279.35 454.599 265.718 453.061 259.001 452.709C264.783 453.774 276.014 454.515 274.683 448.955C273.352 443.395 260.474 445.008 254.201 446.509C260.062 445.596 270.577 442.883 265.748 439.336C260.92 435.788 248.213 437.654 242.463 439.031C248.625 437.066 259.808 432.527 255.246 430.092C250.683 427.657 241.006 428.326 236.737 428.965C235.239 427.324 229.515 425.117 218.605 429.411ZM274.159 398.279C276.551 403.651 282.902 414.021 289.175 412.519C295.447 411.018 292.264 409.262 289.888 408.572C291.108 413.669 294.983 422.932 300.724 419.206C306.464 415.481 303.274 413.697 300.961 413.27C303.337 418.581 308.831 428.141 311.797 423.904C314.762 419.667 314.014 417.005 313.269 416.203C313.444 421.55 315.295 431.591 321.301 428.978C327.308 426.364 324.786 422.755 322.774 421.277C326.085 425.873 333.268 434.638 335.511 432.925C337.754 431.213 334.405 425.841 332.45 423.37C335.482 428.033 342.421 436.856 345.918 434.843C349.416 432.83 345.823 427.517 343.589 425.113C348.991 429.209 360.289 436.694 362.266 433.87C364.242 431.045 354.155 423.073 348.864 419.441C353.41 422.272 362.17 426.544 360.839 420.983C359.508 415.423 345.743 413.329 339.026 412.977C344.673 413.478 355.335 413.226 352.807 408.209C350.28 403.192 335.964 406.959 329.122 409.469C336.162 407.784 348.159 404.03 339.833 402.496C331.507 400.962 324.547 403.283 322.107 404.636C327.049 402.194 334.292 397.356 323.723 397.534C313.154 397.712 307.819 400.361 306.473 401.663C312.551 399.347 323.31 394.425 317.728 393.268C312.145 392.11 303.653 394.5 300.104 395.839C308.976 393.651 323.422 389.349 310.228 389.645C297.035 389.941 280.685 395.524 274.159 398.279Z" stroke="#3D3D3D" stroke-width="3"/>
<path fill-rule="evenodd" clip-rule="evenodd" d="M80.6276 156.403C78.9177 154.684 77.3285 152.85 75.9888 150.829C60.8376 127.973 46.534 90.1366 98.1637 100.976C165.616 115.138 95.0062 68.787 124.226 59.7937C153.445 50.8005 179.861 59.3977 174.422 118.003C168.982 176.609 205.937 85.8344 226.817 73.7051C247.231 61.8464 308.786 70.1933 277.117 146.556C266.54 169.082 238.338 211.255 210.144 199.743C174.901 185.352 239.146 231.935 242.646 240.508C248.607 255.107 222.649 310.931 111.065 267.8C102.784 265.105 94.43 252.053 122.476 221.077C126.197 216.967 131.477 211.395 128.27 206.873C126.795 204.793 123.37 203.916 116.483 206.266C98.9558 212.248 66.9554 241.936 60.785 197.878C55.8488 162.631 78.1106 163.531 89.8586 168.387C91.69 169.287 92.1408 167.978 80.6276 156.403ZM148.735 211.893C129.929 210.148 122.048 165.23 136.46 132.915C142.191 115.304 201.13 167.595 201.193 176.38C201.255 185.164 178.038 214.613 148.735 211.893Z" fill="#DFDFDF"/>
<path d="M136.46 132.915C122.048 165.23 129.929 210.148 148.735 211.893C178.038 214.613 201.255 185.164 201.193 176.38C201.13 167.595 142.191 115.304 136.46 132.915Z" fill="#3D3D3D"/>
<path fill-rule="evenodd" clip-rule="evenodd" d="M92.1614 80.5202C109.745 82.4224 99.4745 38.3 118.182 33.4814C141.566 27.4583 156.457 62.4924 202.933 9.45133C214.149 -0.978298 240.627 -7.88883 259.681 43.956C261.145 47.941 262.869 51.9732 266.005 54.8344C272.021 60.3225 282.866 65.0786 305.795 61.4295C337.619 59.8503 331.315 108.687 303.388 134.655C283.985 151.387 254.017 192.402 289.372 222.605C318.835 247.775 256.047 313.036 190.355 299.447C181.557 297.558 166.913 297.272 178.726 311.244C193.14 328.292 81.9902 346.235 76.2003 278.985C75.9132 275.65 77.1315 271.778 75.1226 269.102C73.2695 266.633 68.5761 265.177 58.3571 268.175C37.9014 274.178 -0.373594 245.167 31.5864 209.799C33.5247 207.833 37.3178 192.188 22.7393 201.077C5.23802 211.748 -27.4153 148.724 57.5441 153.976C63.4075 154.91 71.5953 153.29 57.4399 139.335C39.7457 121.89 15.9657 72.2774 92.1614 80.5202ZM98.1637 100.976C46.534 90.1366 60.8376 127.973 75.9888 150.829C77.3285 152.85 78.9177 154.684 80.6276 156.403C92.1408 167.978 91.69 169.287 89.8586 168.387C78.1106 163.531 55.8488 162.631 60.785 197.878C66.9554 241.936 98.9558 212.248 116.483 206.266C123.37 203.916 126.795 204.793 128.27 206.873C131.477 211.395 126.197 216.967 122.476 221.077C94.43 252.053 102.784 265.105 111.065 267.8C222.649 310.931 248.607 255.107 242.646 240.508C239.146 231.935 174.901 185.352 210.144 199.743C238.338 211.255 266.54 169.082 277.117 146.556C308.786 70.1933 247.231 61.8464 226.817 73.7051C205.937 85.8344 168.982 176.609 174.422 118.003C179.861 59.3977 153.445 50.8005 124.226 59.7937C95.0062 68.787 165.616 115.138 98.1637 100.976Z" fill="#909090"/>
<path d="M154.206 210.505C147.415 216.41 135.62 232.307 142.764 248.655" stroke="#3D3D3D" stroke-width="3"/>
<path d="M168.826 207.463L169.014 233.817" stroke="#3D3D3D" stroke-width="3"/>
<path d="M177.545 198.623C189.299 204.396 211.093 221.811 204.232 245.287" stroke="#3D3D3D" stroke-width="3"/>
<path d="M136.492 190.129C127.735 194.096 106.109 200.302 89.6615 193.391" stroke="#3D3D3D" stroke-width="3"/>
<path d="M133.477 178.44L104.216 181.577" stroke="#3D3D3D" stroke-width="3"/>
<path d="M130.402 157.956C117.706 157.07 90.5244 150.626 83.3633 131.936" stroke="#3D3D3D" stroke-width="3"/>
<path d="M136.16 143.275C131.231 136.477 119.03 122.898 109.66 122.965" stroke="#3D3D3D" stroke-width="3"/>
<path d="M150.757 137.316C154.571 124.6 159.823 94.4981 150.402 87.5371" stroke="#3D3D3D" stroke-width="3"/>
<path d="M194.928 172.148C210.532 170.085 242.299 162.44 244.541 148.368" stroke="#3D3D3D" stroke-width="3"/>
<path d="M226.289 113.895C224.419 115.68 221.81 119.242 226.326 119.21C231.972 119.17 229.421 111.218 226.289 113.895Z" fill="#3D3D3D" stroke="#3D3D3D" stroke-width="3"/>
<path d="M149.949 85.1524C148.08 86.9375 145.47 90.4997 149.987 90.4676C155.632 90.4274 153.081 82.476 149.949 85.1524Z" fill="#3D3D3D" stroke="#3D3D3D" stroke-width="3"/>
<path d="M111.581 121.491C109.145 120.627 104.789 119.905 106.854 123.921C109.436 128.942 115.383 123.08 111.581 121.491Z" fill="#3D3D3D" stroke="#3D3D3D" stroke-width="3"/>
<path d="M79.1961 130.974C81.334 132.426 85.3649 134.229 84.3847 129.82C83.1594 124.309 75.9213 128.473 79.1961 130.974Z" fill="#3D3D3D" stroke="#3D3D3D" stroke-width="3"/>
<path d="M103.603 179.992C102.378 182.268 101 186.463 105.284 185.035C110.64 183.249 105.754 176.478 103.603 179.992Z" fill="#3D3D3D" stroke="#3D3D3D" stroke-width="3"/>
<path d="M86.5725 196.418C89.1142 195.949 93.2486 194.399 89.4529 191.951C84.7082 188.892 82.4854 196.941 86.5725 196.418Z" fill="#3D3D3D" stroke="#3D3D3D" stroke-width="3"/>
<path d="M138.557 246.468C139.593 248.836 142.044 252.509 143.563 248.255C145.461 242.939 137.117 242.608 138.557 246.468Z" fill="#3D3D3D" stroke="#3D3D3D" stroke-width="3"/>
<path d="M168.719 236.796C171.292 236.555 175.549 235.379 171.986 232.603C167.533 229.133 164.602 236.953 168.719 236.796Z" fill="#3D3D3D" stroke="#3D3D3D" stroke-width="3"/>
<path d="M207.838 246.205C206.209 244.199 202.868 241.312 202.537 245.817C202.125 251.447 210.255 249.543 207.838 246.205Z" fill="#3D3D3D" stroke="#3D3D3D" stroke-width="3"/>
<path d="M246.416 147.782C247.284 145.347 248.014 140.992 243.994 143.05C238.969 145.623 244.821 151.58 246.416 147.782Z" fill="#3D3D3D" stroke="#3D3D3D" stroke-width="3"/>
<path d="M207.388 146.175C208.859 148.301 211.97 151.434 212.644 146.969C213.486 141.386 205.234 142.663 207.388 146.175Z" fill="#3D3D3D" stroke="#3D3D3D" stroke-width="3"/>
<path d="M183.093 154.658C192.764 141.9 215.032 116.362 226.745 116.279M189.012 163.401L209.385 145.686" stroke="#3D3D3D" stroke-width="3"/>
</svg>
