<svg width="212" height="225" viewBox="0 0 212 225" fill="none" xmlns="http://www.w3.org/2000/svg">
<path d="M27.9543 177.114C25.8496 186.999 23.6703 207.087 32.0888 208.358C40.5073 209.629 48.299 195.825 51.1052 188.764C58.8792 192.475 78.0762 200.211 92.6715 201.474C93.3731 209.24 96.806 224.668 105.225 224.245C113.643 223.821 116.449 208.887 116.8 201.474C124.342 201.059 143.213 197.937 158.366 188.764C161.172 196.884 168.889 212.171 177.308 208.358C185.726 204.545 183.973 185.94 182.043 177.114C210.945 162.961 213.378 118.614 210.982 98.2093C210.982 87.7658 201.16 53.6112 196.25 37.8394C200.985 36.7415 207.825 28.8367 200.985 19.8343C192.836 9.10961 123.114 -7.70281 49.9781 3.94752C-8.53049 13.2678 2.79936 30.4255 15.7779 37.8394C8.58387 55.0669 -1.22411 88.6095 0.64679 118.463C0.872629 122.066 1.26864 125.616 1.85997 129.077C3.29675 137.486 4.41412 144.002 8.91419 152.502C11.6541 157.678 17.186 170.803 27.9543 177.114Z" fill="#3D3D3D"/>
<path d="M21.41 35.2054C46.5624 41.512 137.574 48.1051 191.685 35.2054C196.153 34.3139 202.606 27.8953 196.153 20.5856C188.464 11.8773 122.681 -1.77408 53.6779 7.68578C-1.52486 15.2537 9.16484 29.1855 21.41 35.2054Z" fill="#909090"/>
<path d="M27.9543 177.114C25.8496 186.999 23.6703 207.087 32.0888 208.358C40.5073 209.629 48.299 195.825 51.1052 188.764C58.8792 192.475 78.0762 200.211 92.6715 201.474C93.3731 209.24 96.806 224.668 105.225 224.245C113.643 223.821 116.449 208.887 116.8 201.474C124.342 201.059 143.213 197.937 158.366 188.764C161.172 196.884 168.889 212.171 177.308 208.358C185.726 204.545 183.973 185.94 182.043 177.114C210.945 162.961 213.378 118.614 210.982 98.2093C210.982 87.7658 201.16 53.6112 196.25 37.8394C200.985 36.7415 207.825 28.8367 200.985 19.8343C192.836 9.10961 123.114 -7.70281 49.9781 3.94752C-8.53049 13.2678 2.79936 30.4255 15.7779 37.8394C8.58387 55.0669 -1.22411 88.6095 0.64679 118.463C0.872629 122.066 1.26864 125.616 1.85997 129.077C3.29675 137.486 4.41412 144.002 8.91419 152.502C11.6541 157.678 17.186 170.803 27.9543 177.114Z" fill="#3D3D3D"/>
<path d="M21.41 35.2054C46.5624 41.512 137.574 48.1051 191.685 35.2054C196.153 34.3139 202.606 27.8953 196.153 20.5856C188.464 11.8773 122.681 -1.77408 53.6779 7.68578C-1.52486 15.2537 9.16484 29.1855 21.41 35.2054Z" fill="#909090"/>
</svg>
