<svg width="233" height="225" viewBox="0 0 233 225" fill="none" xmlns="http://www.w3.org/2000/svg">
<path fill-rule="evenodd" clip-rule="evenodd" d="M24.5864 37.8408C17.3926 55.068 7.5847 88.6102 9.45558 118.463C11.3042 119.565 13.6769 120.324 16.6942 120.451C26.7962 120.875 27.2171 129.574 21.4296 129.983C18.2372 130.208 14.2721 130.031 10.6687 129.077C12.1055 137.486 14.7701 145.37 18.8735 152.224C19.2243 148.341 20.3468 140.892 22.0305 142.163C29.3966 148.517 31.5012 144.81 32.0273 133.16C32.5535 121.51 27.8181 121.51 32.5535 123.099C36.3417 124.37 39.3934 132.454 40.4457 136.338C40.9719 141.986 42.9712 153.283 46.7595 153.283C50.5478 153.283 49.741 144.104 48.8641 139.515C49.5656 140.044 51.7053 142.798 54.6517 149.576C58.3348 158.049 58.8609 155.402 58.8609 135.808C58.8609 120.133 70.787 113.39 76.75 111.978C74.47 115.155 70.4362 123.522 72.5408 131.572C74.6454 139.621 79.3807 135.632 81.4853 132.631C79.7315 136.161 77.2761 144.493 81.4853 149.576C86.7468 155.931 85.1684 170.759 86.7468 165.993C88.0096 162.18 91.8329 159.108 93.5867 158.049C91.3068 161.05 88.3253 166.84 94.639 165.993C100.953 165.145 103.233 151.871 103.584 145.34C107.793 149.753 114.212 161.544 106.214 173.406C98.2169 185.268 99.7252 197.06 101.479 201.473C102.181 209.239 105.613 224.667 114.032 224.243C122.45 223.82 125.256 208.886 125.607 201.473C125.958 197.766 126.988 189.384 126.659 185.586C125.607 173.406 108.244 158.049 118.241 163.345C128.238 168.64 124.029 160.168 124.555 155.402C125.081 150.636 116.663 131.572 122.45 138.456C128.238 145.34 131.921 146.929 126.659 129.983C122.45 116.426 128.413 108.095 131.921 105.624C131.57 110.213 129.816 122.04 136.13 127.865C150.336 138.456 147.179 150.106 151.915 150.636C155.703 151.059 154.896 141.28 154.019 136.338C157.702 136.338 157.176 153.283 161.385 153.283C165.594 153.283 160.859 116.215 163.49 118.333C165.594 120.027 171.031 131.042 173.487 136.338C176.012 129.559 177.345 130.336 177.696 131.572C184.536 135.279 186.114 160.697 189.271 153.283C191.797 136.761 197.339 129.453 199.794 127.865C200.145 137.22 201.688 155.19 205.056 152.224C208.423 149.259 211.369 150.989 212.422 152.224C214.946 143.981 219.953 124.249 219.788 111.264C213.315 112.961 210.455 116.722 209.791 118.862C208.388 113.92 208.423 102.87 219.788 98.2098C219.788 87.7664 209.966 53.6124 205.056 37.8408C147.705 53.7273 51.2447 45.6076 24.5864 37.8408ZM49.8415 94.5029C44.2293 86.0301 45.1062 83.0293 48.2631 80.205C48.2631 81.2641 48.9997 84.2296 51.9461 87.6187C58.6808 93.5497 55.4538 98.9159 52.9984 100.858C52.9984 100.328 52.367 98.3157 49.8415 94.5029ZM106.14 96.6211C99.405 100.858 103.333 108.624 106.14 111.978C120.03 99.2689 114.032 89.3839 109.296 86.0301C111.05 87.7953 112.874 92.3847 106.14 96.6211ZM183.483 108.801C178.853 111.343 181.554 118.686 183.483 122.04C183.659 119.921 186.114 116.214 189.797 112.508C194.006 105.729 189.797 102.27 187.166 101.387C187.868 102.799 188.114 106.259 183.483 108.801Z" fill="#3D3D3D"/>
<path d="M125.607 201.473C131.921 199.884 144.548 195.118 144.548 188.763C148.582 190.705 158.754 193.423 167.173 188.763C173.066 178.596 185.413 176.76 190.85 177.113C195.936 175.171 206.529 169.699 208.212 163.345C209.896 156.99 211.72 153.283 212.422 152.224C211.369 150.989 208.423 149.259 205.056 152.224C201.688 155.19 200.145 137.22 199.794 127.865C197.339 129.453 191.797 136.761 189.271 153.283C186.114 160.697 184.536 135.279 177.696 131.572C177.345 130.336 176.012 129.559 173.487 136.338C171.031 131.042 165.594 120.027 163.49 118.333C160.859 116.215 165.594 153.283 161.385 153.283C157.176 153.283 157.702 136.338 154.019 136.338C154.896 141.28 155.703 151.059 151.915 150.636C147.179 150.106 150.336 138.456 136.13 127.865C129.816 122.04 131.57 110.213 131.921 105.624C128.413 108.095 122.45 116.426 126.659 129.983C131.921 146.929 128.238 145.34 122.45 138.456C116.663 131.572 125.081 150.636 124.555 155.402C124.029 160.168 128.238 168.64 118.241 163.345C108.244 158.049 125.607 173.406 126.659 185.586C126.988 189.384 125.958 197.766 125.607 201.473Z" fill="#547629"/>
<path d="M219.788 98.2098C208.423 102.87 208.388 113.92 209.791 118.862C210.455 116.722 213.315 112.961 219.788 111.264C221.858 110.721 224.298 110.39 227.154 110.39C238.203 108.801 230.486 92.3847 226.101 88.1483C225.926 90.6195 224.418 96.0916 219.788 98.2098Z" fill="#547629"/>
<path d="M183.483 122.04C181.554 118.686 178.853 111.343 183.483 108.801C188.114 106.259 187.868 102.799 187.166 101.387C189.797 102.27 194.006 105.729 189.797 112.508C186.114 116.214 183.659 119.921 183.483 122.04Z" fill="#547629"/>
<path d="M106.14 111.978C103.333 108.624 99.405 100.858 106.14 96.6211C112.874 92.3847 111.05 87.7953 109.296 86.0301C114.032 89.3839 120.03 99.2689 106.14 111.978Z" fill="#547629"/>
<path d="M48.2631 80.205C45.1062 83.0293 44.2293 86.0301 49.8415 94.5029C52.367 98.3157 52.9984 100.328 52.9984 100.858C55.4538 98.9159 58.6808 93.5497 51.9461 87.6187C48.9997 84.2296 48.2631 81.2641 48.2631 80.205Z" fill="#547629"/>
<path d="M21.4296 129.983C27.2171 129.574 26.7962 120.875 16.6942 120.451C13.6769 120.324 11.3042 119.565 9.45558 118.463C9.68142 122.067 10.0774 125.616 10.6687 129.077C14.2721 130.031 18.2372 130.208 21.4296 129.983Z" fill="#547629"/>
<path d="M3.54055 108.801C-3.04899 121.489 2.98834 127.045 10.6687 129.077C10.0774 125.616 9.68142 122.067 9.45558 118.463C5.11491 115.876 3.66352 111.401 3.54055 108.801Z" fill="#547629"/>
<path d="M18.8735 152.224C17.8213 158.402 19.9259 172.029 36.7627 177.113C51.074 178.808 58.1594 185.586 59.9132 188.763C64.1224 190.352 74.2245 193.529 80.9592 193.529C87.6939 193.529 97.4452 198.825 101.479 201.473C99.7252 197.06 98.2169 185.268 106.214 173.406C114.212 161.544 107.793 149.753 103.584 145.34C103.233 151.871 100.953 165.145 94.639 165.993C88.3253 166.84 91.3068 161.05 93.5867 158.049C91.8329 159.108 88.0096 162.18 86.7468 165.993C85.1684 170.759 86.7468 155.931 81.4853 149.576C77.2761 144.493 79.7315 136.161 81.4853 132.631C79.3807 135.632 74.6454 139.621 72.5408 131.572C70.4362 123.522 74.47 115.155 76.75 111.978C70.787 113.39 58.8609 120.133 58.8609 135.808C58.8609 155.402 58.3348 158.049 54.6517 149.576C51.7053 142.798 49.5656 140.044 48.8641 139.515C49.741 144.104 50.5478 153.283 46.7595 153.283C42.9712 153.283 40.9719 141.986 40.4457 136.338C39.3934 132.454 36.3417 124.37 32.5535 123.099C27.8181 121.51 32.5535 121.51 32.0273 133.16C31.5012 144.81 29.3966 148.517 22.0305 142.163C20.3468 140.892 19.2243 148.341 18.8735 152.224Z" fill="#547629"/>
<path d="M36.7627 177.113C34.6581 186.998 32.4787 207.086 40.8971 208.357C49.3155 209.628 57.1071 195.824 59.9132 188.763C58.1594 185.586 51.074 178.808 36.7627 177.113Z" fill="#547629"/>
<path d="M167.173 188.763C169.979 196.883 177.696 212.17 186.114 208.357C194.533 204.544 192.779 185.939 190.85 177.113C185.413 176.76 173.066 178.596 167.173 188.763Z" fill="#547629"/>
<path d="M24.5864 37.8408C51.2447 45.6076 147.705 53.7273 205.056 37.8408C209.791 36.7429 216.631 28.8382 209.791 19.836C201.642 9.11143 131.921 -7.70075 58.7862 3.94941C0.278431 13.2695 11.6081 30.4271 24.5864 37.8408Z" fill="#3D3D3D"/>
<path d="M30.2204 35.2069C55.3725 41.5134 146.383 48.1064 200.493 35.2069C204.96 34.3154 211.414 27.897 204.96 20.5873C197.272 11.8792 131.49 -1.77203 62.4878 7.68769C7.28588 15.2555 17.9754 29.1871 30.2204 35.2069Z" fill="#909090"/>
</svg>
