<svg width="310" height="299" viewBox="0 0 310 299" fill="none" xmlns="http://www.w3.org/2000/svg">
<path fill-rule="evenodd" clip-rule="evenodd" d="M32.1172 50.4518C22.5254 73.4214 9.44822 118.144 11.9427 157.948C14.4076 159.417 17.5711 160.43 21.5942 160.599C35.0636 161.164 35.6248 172.763 27.9081 173.308C23.6516 173.609 18.3648 173.372 13.5603 172.1C15.476 183.312 19.0287 193.824 24.5 202.963C24.9677 197.785 26.4644 187.853 28.7093 189.548C38.5307 198.021 41.3369 193.078 42.0384 177.544C42.7399 162.011 36.4261 162.011 42.7399 164.129C47.791 165.824 51.8598 176.603 53.2629 181.781C53.9644 189.312 56.6303 204.375 61.6813 204.375C66.7323 204.375 65.6566 192.137 64.4874 186.017C65.4228 186.723 68.2757 190.395 72.2043 199.433C77.115 210.73 77.8165 207.199 77.8165 181.075C77.8165 160.175 93.7179 151.184 101.669 149.302C98.6286 153.538 93.2502 164.694 96.0563 175.426C98.8625 186.159 105.176 180.839 107.982 176.838C105.644 181.546 102.37 192.654 107.982 199.433C114.998 207.906 112.893 227.675 114.998 221.321C116.681 216.237 121.779 212.142 124.118 210.73C121.078 214.731 117.102 222.451 125.521 221.321C133.939 220.191 136.979 202.492 137.447 193.784C143.059 199.668 151.618 215.39 140.954 231.206C130.291 247.022 132.302 262.744 134.641 268.628C135.576 278.983 140.153 299.553 151.378 298.989C162.602 298.424 166.344 278.513 166.811 268.628C167.279 263.685 168.652 252.51 168.214 247.445C166.811 231.206 143.661 210.73 156.99 217.79C170.319 224.851 164.707 213.554 165.408 207.199C166.11 200.845 154.885 175.426 162.602 184.605C170.319 193.784 175.23 195.902 168.214 173.308C162.602 155.233 170.553 144.124 175.23 140.829C174.762 146.948 172.423 162.717 180.842 170.484C199.783 184.605 195.574 200.139 201.888 200.845C206.939 201.41 205.863 188.371 204.694 181.781C209.605 181.781 208.903 204.375 214.516 204.375C220.128 204.375 213.814 154.95 217.322 157.774C220.128 160.034 227.377 174.72 230.651 181.781C234.018 172.743 235.795 173.779 236.263 175.426C245.383 180.369 247.488 214.26 251.697 204.375C255.064 182.346 262.454 172.602 265.727 170.484C266.195 182.958 268.253 206.917 272.743 202.963C277.233 199.009 281.161 201.316 282.564 202.963C285.93 191.972 292.606 165.663 292.385 148.349C283.755 150.612 279.942 155.627 279.056 158.481C277.186 151.891 277.232 137.157 292.385 130.944C292.385 117.019 279.29 71.4806 272.743 50.4518C196.276 71.6337 67.6616 60.8075 32.1172 50.4518ZM65.7907 126.001C58.3077 114.704 59.4769 110.703 63.6861 106.937C63.6861 108.35 64.6682 112.304 68.5968 116.822C77.5764 124.73 73.2737 131.885 69.9999 134.474C69.9999 133.768 69.158 131.085 65.7907 126.001ZM140.855 128.826C131.875 134.474 137.113 144.83 140.855 149.302C159.375 132.356 151.378 119.176 145.064 114.704C147.402 117.058 149.834 123.177 140.855 128.826ZM243.98 145.065C237.806 148.454 241.407 158.245 243.98 162.717C244.214 159.893 247.487 154.95 252.398 150.008C258.01 140.97 252.398 136.357 248.89 135.18C249.826 137.063 250.153 141.676 243.98 145.065Z" fill="#3D3D3D"/>
<path d="M166.811 268.628C175.23 266.509 192.067 260.155 192.067 251.682C197.445 254.271 211.008 257.895 222.232 251.682C230.09 238.125 246.552 235.678 253.801 236.148C260.583 233.559 274.707 226.263 276.952 217.79C279.197 209.318 281.629 204.375 282.564 202.963C281.161 201.316 277.233 199.009 272.743 202.963C268.253 206.917 266.195 182.958 265.727 170.484C262.454 172.602 255.064 182.346 251.697 204.375C247.488 214.26 245.383 180.369 236.263 175.426C235.795 173.779 234.018 172.743 230.651 181.781C227.377 174.72 220.128 160.034 217.322 157.774C213.814 154.95 220.128 204.375 214.516 204.375C208.903 204.375 209.605 181.781 204.694 181.781C205.863 188.371 206.939 201.41 201.888 200.845C195.574 200.139 199.783 184.605 180.842 170.484C172.423 162.717 174.762 146.948 175.23 140.829C170.553 144.124 162.602 155.233 168.214 173.308C175.23 195.902 170.319 193.784 162.602 184.605C154.885 175.426 166.11 200.845 165.408 207.199C164.707 213.554 170.319 224.851 156.99 217.79C143.661 210.73 166.811 231.206 168.214 247.445C168.652 252.51 167.279 263.685 166.811 268.628Z" fill="#547629"/>
<path d="M292.385 130.944C277.232 137.157 277.186 151.891 279.056 158.481C279.942 155.627 283.755 150.612 292.385 148.349C295.146 147.626 298.399 147.183 302.207 147.183C316.939 145.065 306.65 123.177 300.804 117.528C300.57 120.823 298.559 128.12 292.385 130.944Z" fill="#547629"/>
<path d="M243.98 162.717C241.407 158.245 237.806 148.454 243.98 145.065C250.153 141.676 249.826 137.063 248.89 135.18C252.398 136.357 258.01 140.97 252.398 150.008C247.487 154.95 244.214 159.893 243.98 162.717Z" fill="#547629"/>
<path d="M140.855 149.302C137.113 144.83 131.875 134.474 140.855 128.826C149.834 123.177 147.402 117.058 145.064 114.704C151.378 119.176 159.375 132.356 140.855 149.302Z" fill="#547629"/>
<path d="M63.6861 106.937C59.4769 110.703 58.3077 114.704 65.7907 126.001C69.158 131.085 69.9999 133.768 69.9999 134.474C73.2737 131.885 77.5764 124.73 68.5968 116.822C64.6682 112.304 63.6861 108.35 63.6861 106.937Z" fill="#547629"/>
<path d="M27.9081 173.308C35.6248 172.763 35.0636 161.164 21.5942 160.599C17.5711 160.43 14.4076 159.417 11.9427 157.948C12.2438 162.753 12.7719 167.486 13.5603 172.1C18.3648 173.372 23.6516 173.609 27.9081 173.308Z" fill="#547629"/>
<path d="M4.05602 145.065C-4.73004 161.982 3.31974 169.391 13.5603 172.1C12.7719 167.486 12.2438 162.753 11.9427 157.948C6.15516 154.498 4.21998 148.531 4.05602 145.065Z" fill="#547629"/>
<path d="M24.5 202.963C23.097 211.201 25.9032 229.37 48.3522 236.148C67.4339 238.408 76.8812 247.445 79.2196 251.682C84.8318 253.8 98.3012 258.036 107.281 258.036C116.26 258.036 129.262 265.097 134.641 268.628C132.302 262.744 130.291 247.022 140.954 231.206C151.618 215.39 143.059 199.668 137.447 193.784C136.979 202.492 133.939 220.191 125.521 221.321C117.102 222.451 121.078 214.731 124.118 210.73C121.779 212.142 116.681 216.237 114.998 221.321C112.893 227.675 114.998 207.906 107.982 199.433C102.37 192.654 105.644 181.546 107.982 176.838C105.176 180.839 98.8625 186.159 96.0563 175.426C93.2502 164.694 98.6286 153.538 101.669 149.302C93.7179 151.184 77.8165 160.175 77.8165 181.075C77.8165 207.199 77.115 210.73 72.2043 199.433C68.2757 190.395 65.4228 186.723 64.4874 186.017C65.6566 192.137 66.7323 204.375 61.6813 204.375C56.6303 204.375 53.9644 189.312 53.2629 181.781C51.8598 176.603 47.791 165.824 42.7399 164.129C36.4261 162.011 42.7399 162.011 42.0384 177.544C41.3369 193.078 38.5307 198.021 28.7093 189.548C26.4644 187.853 24.9677 197.785 24.5 202.963Z" fill="#547629"/>
<path d="M48.3522 236.148C45.546 249.328 42.6403 276.112 53.8648 277.806C65.0893 279.501 75.4781 261.096 79.2196 251.682C76.8812 247.445 67.4339 238.408 48.3522 236.148Z" fill="#547629"/>
<path d="M222.232 251.682C225.974 262.508 236.263 282.89 247.488 277.806C258.712 272.723 256.374 247.916 253.801 236.148C246.552 235.678 230.09 238.125 222.232 251.682Z" fill="#547629"/>
<path d="M32.1172 50.4518C67.6616 60.8075 196.276 71.6337 272.743 50.4518C279.056 48.9879 288.176 38.4484 279.056 26.4454C268.192 12.146 175.23 -10.2703 77.7169 5.26328C-0.293472 17.6901 14.8128 40.5668 32.1172 50.4518Z" fill="#3D3D3D"/>
<path d="M39.6305 46.9386C73.1665 55.3473 194.514 64.138 266.66 46.9386C272.617 45.75 281.222 37.192 272.617 27.4458C262.366 15.835 174.657 -2.36662 82.6537 10.2463C9.05109 20.3367 23.3038 38.9122 39.6305 46.9386Z" fill="#909090"/>
</svg>
