<svg width="397" height="451" viewBox="0 0 397 451" fill="none" xmlns="http://www.w3.org/2000/svg">
<path d="M17.4653 1.52344C16.188 31.0508 6.28958 35.2232 1.5 33.6184V417.154C14.2722 419.721 17.9974 439.62 18.2635 449.249H379.078C379.078 422.289 389.722 416.619 395.044 417.154V35.2232C380.994 33.9394 378.546 13.2916 379.078 3.12819L17.4653 1.52344Z" stroke="#3D3D3D" stroke-width="2"/>
<path d="M24.8143 13.2129C23.589 41.1984 14.0929 45.1529 9.49805 43.6319V407.139C21.7511 409.573 25.3249 428.432 25.5801 437.558H371.728C371.728 412.006 381.939 406.632 387.044 407.139V45.1529C373.566 43.9361 371.217 24.3665 371.728 14.7338L24.8143 13.2129Z" stroke="#3D3D3D" stroke-width="2"/>
</svg>
