<svg width="529" height="601" viewBox="0 0 529 601" fill="none" xmlns="http://www.w3.org/2000/svg">
<path d="M23.287 2.0332C21.5841 41.4031 8.38611 46.9662 2 44.8265V556.207C19.0296 559.63 23.9966 586.162 24.3514 599H505.438C505.438 563.054 519.629 555.493 526.725 556.207V46.9662C507.992 45.2545 504.728 17.7241 505.438 4.17287L23.287 2.0332Z" stroke="#3D3D3D" stroke-width="3"/>
<path d="M33.0858 17.6191C31.452 54.9331 18.7906 60.2058 12.6641 58.1778V542.854C29.0014 546.099 33.7665 571.245 34.1068 583.413H495.637C495.637 549.343 509.252 542.178 516.059 542.854V60.2058C498.088 58.5834 494.956 32.4907 495.637 19.6471L33.0858 17.6191Z" stroke="#3D3D3D" stroke-width="3"/>
</svg>
