<svg width="143" height="155" viewBox="0 0 143 155" fill="none" xmlns="http://www.w3.org/2000/svg">
<path d="M89.8025 30.5946C91.3277 25.8302 95.9251 17.26 102.113 21.0948" stroke="#3D3D3D" stroke-width="3"/>
<path d="M104.499 39.7031C107.669 36.315 112.713 28.5213 107.527 24.4512" stroke="#3D3D3D" stroke-width="3"/>
<path d="M59.2887 47.0148C57.7054 44.963 55.711 39.659 60.3999 34.8568" stroke="#3D3D3D" stroke-width="3"/>
<path d="M71.5223 42.8196C69.387 39.3553 67.7921 30.873 78.4946 24.6589" stroke="#3D3D3D" stroke-width="3"/>
<path d="M107.909 73.9303C110.255 73.5998 115.212 71.819 116.276 67.3393" stroke="#3D3D3D" stroke-width="3"/>
<path d="M106.515 62.3644C111.083 63.0543 119.551 61.0222 116.875 47.3739" stroke="#3D3D3D" stroke-width="3"/>
<path d="M105.018 47.5178C104.095 50.1579 100.49 54.1328 93.4478 48.9123C89.2862 45.2627 107.12 42.3975 105.018 47.5178Z" fill="#909090"/>
<path d="M98.5572 73.4898C98.7424 71.4634 97.9689 70.9841 97.1954 70.5047C93.718 69.2061 91.2214 75.7579 92.8813 77.4662C95.4959 80.157 98.3087 76.2084 98.5572 73.4898Z" fill="#3D3D3D"/>
<path d="M103.895 82.1507C104.081 80.1244 103.307 79.645 102.534 79.1657C99.0562 77.8671 97.6272 86.151 99.2871 87.8593C101.902 90.5502 103.647 84.8693 103.895 82.1507Z" fill="#3D3D3D"/>
<path d="M105.377 65.94C104.912 63.9591 104.789 63.4344 104.015 62.955C100.538 61.6564 100.362 69.6462 102.022 71.3545C104.636 74.0454 105.965 68.4457 105.377 65.94Z" fill="#3D3D3D"/>
<path d="M100.387 98.1762C99.9223 96.1952 99.3198 96.444 98.5463 95.9646C95.0689 94.666 92.8664 102.471 94.5263 104.179C97.1409 106.87 100.976 100.682 100.387 98.1762Z" fill="#3D3D3D"/>
<path d="M93.0992 84.0245C92.6341 82.0436 92.0315 82.2923 91.2581 81.813C87.7806 80.5144 85.5782 88.3189 87.2381 90.0272C89.8527 92.7181 93.6875 86.5302 93.0992 84.0245Z" fill="#3D3D3D"/>
<path d="M82.0088 84.6455C81.5437 82.6646 80.9412 82.9133 80.1677 82.4339C76.6902 81.1353 72.5704 92.0339 74.2303 93.7422C76.8449 96.4331 82.5971 87.1512 82.0088 84.6455Z" fill="#3D3D3D"/>
<path d="M88.5236 98.3178C88.0585 96.3369 87.4559 96.5856 86.6825 96.1062C83.205 94.8076 78.1305 104.724 80.7451 107.414C83.3597 110.105 89.1119 100.823 88.5236 98.3178Z" fill="#3D3D3D"/>
<path d="M95.5177 111.217C95.0526 109.236 94.45 109.484 93.6766 109.005C90.1991 107.706 87.1509 117.808 89.4714 119.246C94.1763 122.161 96.106 113.722 95.5177 111.217Z" fill="#3D3D3D"/>
<path d="M73.4895 101.848C73.0244 99.8666 72.0302 99.5881 70.8749 99.1566C67.3974 97.858 65.3039 108.942 66.9638 110.65C69.5784 113.341 74.0778 104.353 73.4895 101.848Z" fill="#3D3D3D"/>
<path d="M78.9693 122.372C78.5042 120.391 76.3547 119.681 76.3547 119.681C71.2344 117.579 70.7837 129.467 72.4436 131.175C75.0582 133.866 79.5576 124.878 78.9693 122.372Z" fill="#3D3D3D"/>
<path d="M68.2493 118.941C67.7843 116.96 66.4082 116.729 66.4082 116.729C61.2879 114.626 62.7547 123.42 64.4146 125.129C67.0292 127.819 68.8376 121.446 68.2493 118.941Z" fill="#3D3D3D"/>
<path d="M81.1482 111.946C80.6831 109.966 78.5335 109.256 78.5335 109.256C73.4132 107.153 75.0652 113.92 76.7251 115.629C79.3397 118.32 81.7364 114.452 81.1482 111.946Z" fill="#3D3D3D"/>
<path d="M90.1685 125.03C89.7035 123.05 87.554 122.34 87.554 122.34C82.4337 120.237 84.0856 127.004 85.7455 128.713C88.3601 131.404 90.7568 127.536 90.1685 125.03Z" fill="#3D3D3D"/>
<path d="M84.8957 133.539C84.0803 130.066 80.5489 131.916 80.5489 131.916C77.5639 133.277 77.0806 136.581 78.7405 138.289C81.3551 140.98 85.484 136.045 84.8957 133.539Z" fill="#3D3D3D"/>
<path d="M68.8703 130.031C68.0549 126.558 64.5235 128.408 64.5235 128.408C61.5385 129.769 62.4169 136.058 64.0768 137.766C66.6914 140.457 69.4586 132.537 68.8703 130.031Z" fill="#3D3D3D"/>
<path d="M73.7291 139.465C72.9137 135.992 70.3182 136.664 70.3182 136.664C67.3332 138.026 68.2117 144.314 69.8716 146.022C72.4862 148.713 74.3174 141.971 73.7291 139.465Z" fill="#3D3D3D"/>
<path d="M41.786 59.7186C43.5182 58.6509 44.2916 59.1303 45.0651 59.6096C47.7756 62.1458 43.0195 67.2973 40.751 66.5711C37.1777 65.4272 39.462 61.151 41.786 59.7186Z" fill="#3D3D3D"/>
<path d="M75.009 50.3323C76.7412 49.2646 77.5147 49.744 78.2882 50.2233C80.9987 52.7595 74.2162 57.7257 71.9477 56.9995C68.3744 55.8556 72.685 51.7646 75.009 50.3323Z" fill="#3D3D3D"/>
<path d="M69.7532 45.6212C71.7342 45.1561 72.2589 45.0329 73.0324 45.5123C75.7429 48.0485 68.6663 51.7619 66.3978 51.0357C62.8245 49.8918 67.2476 46.2095 69.7532 45.6212Z" fill="#3D3D3D"/>
<path d="M70.2737 59.6525C72.2546 59.1874 72.3001 59.8377 73.0736 60.3171C75.7841 62.8533 69.7751 68.2989 67.5066 67.5727C63.9333 66.4288 67.768 60.2408 70.2737 59.6525Z" fill="#3D3D3D"/>
<path d="M63.3203 54.2728C65.3012 53.8077 65.3466 54.458 66.1201 54.9374C68.8306 57.4735 62.8217 62.9191 60.5532 62.1929C56.9798 61.049 60.8146 54.8611 63.3203 54.2728Z" fill="#3D3D3D"/>
<path d="M38.4976 70.1442C40.3612 69.3273 41.8993 71.5649 41.8993 71.5649C44.6098 74.1011 36.0815 81.8845 33.813 81.1583C30.2397 80.0144 34.0881 72.077 38.4976 70.1442Z" fill="#3D3D3D"/>
<path d="M36.5502 85.3789C38.5311 84.9138 38.5766 85.564 39.3501 86.0434C42.0606 88.5796 34.9597 98.3103 31.8657 96.3929C28.7717 94.4756 34.0446 85.9671 36.5502 85.3789Z" fill="#3D3D3D"/>
<path d="M46.3416 90.3762C48.3225 89.9111 48.368 90.5614 49.1415 91.0408C51.8519 93.577 44.1628 100.802 41.8423 99.364C37.1373 96.4482 43.836 90.9645 46.3416 90.3762Z" fill="#3D3D3D"/>
<path d="M57.2516 78.9379C59.2325 78.4728 59.9244 79.2392 60.825 80.0819C63.5355 82.618 54.5414 89.4254 52.2729 88.6992C48.6996 87.5553 54.7459 79.5262 57.2516 78.9379Z" fill="#3D3D3D"/>
<path d="M18.4831 95.5934C20.464 95.1283 22.0564 96.7373 22.0564 96.7373C26.218 100.387 15.7729 106.081 13.5044 105.355C9.93111 104.211 15.9774 96.1817 18.4831 95.5934Z" fill="#3D3D3D"/>
<path d="M60.6833 68.218C62.6642 67.7529 63.4831 68.8825 63.4831 68.8825C67.6447 72.5321 59.117 75.1321 56.8485 74.4059C53.2752 73.262 58.1776 68.8063 60.6833 68.218Z" fill="#3D3D3D"/>
<path d="M47.006 75.417C48.9869 74.9519 50.5793 76.5609 50.5793 76.5609C54.7409 80.2105 47.9454 81.7429 45.6769 81.0167C42.1036 79.8728 44.5003 76.0053 47.006 75.417Z" fill="#3D3D3D"/>
<path d="M21.1004 86.1266C23.0813 85.6616 24.6737 87.2705 24.6737 87.2705C28.8353 90.9201 22.0398 92.4525 19.7713 91.7263C16.1979 90.5824 18.5947 86.7149 21.1004 86.1266Z" fill="#3D3D3D"/>
<path d="M31.4947 100.445C34.9677 99.6298 34.8828 103.615 34.8828 103.615C34.9917 106.895 32.2489 108.797 29.9804 108.071C26.4071 106.927 28.989 101.034 31.4947 100.445Z" fill="#3D3D3D"/>
<path d="M21.5815 106.078C25.0545 105.263 24.9696 109.248 24.9696 109.248C25.0786 112.527 19.0565 114.539 16.788 113.813C13.2147 112.669 19.0758 106.666 21.5815 106.078Z" fill="#3D3D3D"/>
<path d="M26.4412 74.4487C29.9142 73.6333 30.4676 76.2566 30.4676 76.2566C30.5766 79.5357 24.5546 81.5475 22.2861 80.8213C18.7127 79.6774 23.9355 75.037 26.4412 74.4487Z" fill="#3D3D3D"/>
<path d="M87.8373 70.0581C89.0284 70.4394 89.3843 71.0168 89.199 73.0431C88.9506 75.7617 85.6584 80.4839 83.0438 77.793C81.3839 76.0847 84.3598 68.7595 87.8373 70.0581Z" fill="#3D3D3D"/>
<path d="M96.7597 57.388C97.9508 57.7693 99.0802 58.8261 98.895 60.8524C98.6465 63.571 96.1278 68.7725 93.5132 66.0817C91.8533 64.3734 93.2822 56.0894 96.7597 57.388Z" fill="#3D3D3D"/>
<path d="M58.1073 52.3212C57.2357 51.4242 55.7868 50.8831 54.0546 51.9508C51.7306 53.3832 48.1935 57.9535 51.7668 59.0974C54.0353 59.8236 60.8178 54.8574 58.1073 52.3212Z" fill="#3D3D3D"/>
<path d="M55.4627 61.771C54.5912 60.874 53.9157 60.8123 52.1835 61.8799C49.8595 63.3123 45.0696 68.1768 48.6429 69.3207C50.9114 70.0469 58.1732 64.3072 55.4627 61.771Z" fill="#3D3D3D"/>
<path d="M83.3597 34.0961C81.406 36.097 79.4509 41.0946 87.2599 45.0775C92.3802 47.1801 87.0093 29.9345 83.3597 34.0961Z" fill="#909090"/>
<path fill-rule="evenodd" clip-rule="evenodd" d="M42.4504 56.9189C32.5984 61.8758 12.3605 78.5244 10.2252 105.464C8.8128 123.282 23.6594 119.703 40.4732 106.012C40.9649 105.612 41.4583 105.203 41.953 104.785C44.266 102.834 46.608 100.7 48.9424 98.4113C50.6794 96.7086 52.4123 94.9205 54.1259 93.0592C56.1733 90.8352 58.1933 88.5064 60.1601 86.0931C62.0721 83.7472 63.9339 81.3214 65.7218 78.8343C67.1396 76.8623 68.5109 74.8518 69.824 72.8121C71.8107 69.7263 73.6642 66.5736 75.3439 63.3862C76.7878 60.6464 78.1032 57.8809 79.2643 55.1102C79.503 54.5406 79.7352 53.9708 79.9606 53.4009C80.362 52.2394 80.659 51.1823 80.8594 50.2232C81.9037 45.2238 80.3208 42.8878 77.1873 42.3286C69.6037 40.9751 52.9377 50.0283 42.4504 56.9189ZM54.0546 51.9508C55.7868 50.8831 57.2357 51.4242 58.1073 52.3212C60.8178 54.8574 54.0353 59.8236 51.7668 59.0974C48.1935 57.9535 51.7306 53.3832 54.0546 51.9508ZM52.1835 61.8799C53.9157 60.8123 54.5912 60.874 55.4627 61.771C58.1732 64.3072 50.9114 70.0469 48.6429 69.3207C45.0696 68.1768 49.8595 63.3123 52.1835 61.8799ZM41.786 59.7186C43.5182 58.6509 44.2916 59.1303 45.0651 59.6096C47.7756 62.1458 43.0195 67.2973 40.751 66.5711C37.1777 65.4272 39.462 61.151 41.786 59.7186ZM75.009 50.3323C76.7412 49.2646 77.5147 49.744 78.2882 50.2233C80.9987 52.7595 74.2162 57.7257 71.9477 56.9995C68.3744 55.8556 72.685 51.7646 75.009 50.3323ZM69.7532 45.6212C71.7342 45.1561 72.2589 45.0329 73.0324 45.5123C75.7429 48.0485 68.6663 51.7619 66.3978 51.0357C62.8245 49.8918 67.2476 46.2095 69.7532 45.6212ZM70.2737 59.6525C72.2546 59.1874 72.3001 59.8377 73.0736 60.3171C75.7841 62.8533 69.7751 68.2989 67.5066 67.5727C63.9333 66.4288 67.768 60.2408 70.2737 59.6525ZM63.3203 54.2728C65.3012 53.8077 65.3466 54.458 66.1201 54.9374C68.8306 57.4735 62.8217 62.9191 60.5532 62.1929C56.9798 61.049 60.8146 54.8611 63.3203 54.2728ZM38.4976 70.1442C40.3612 69.3273 41.8993 71.5649 41.8993 71.5649C44.6098 74.1011 36.0815 81.8845 33.813 81.1583C30.2397 80.0144 34.0881 72.077 38.4976 70.1442ZM36.5502 85.3789C38.5311 84.9138 38.5766 85.564 39.3501 86.0434C42.0606 88.5796 34.9597 98.3103 31.8657 96.3929C28.7717 94.4756 34.0446 85.9671 36.5502 85.3789ZM46.3416 90.3762C48.3225 89.9111 48.368 90.5614 49.1415 91.0408C51.8519 93.577 44.1628 100.802 41.8423 99.364C37.1373 96.4482 43.836 90.9645 46.3416 90.3762ZM57.2516 78.9379C59.2325 78.4728 59.9244 79.2392 60.825 80.0819C63.5355 82.618 54.5414 89.4254 52.2729 88.6992C48.6996 87.5553 54.7459 79.5262 57.2516 78.9379ZM18.4831 95.5934C20.464 95.1283 22.0564 96.7373 22.0564 96.7373C26.218 100.387 15.7729 106.081 13.5044 105.355C9.93111 104.211 15.9774 96.1817 18.4831 95.5934ZM60.6833 68.218C62.6642 67.7529 63.4831 68.8825 63.4831 68.8825C67.6447 72.5321 59.117 75.1321 56.8485 74.4059C53.2752 73.262 58.1776 68.8063 60.6833 68.218ZM47.006 75.417C48.9869 74.9519 50.5793 76.5609 50.5793 76.5609C54.7409 80.2105 47.9454 81.7429 45.6769 81.0167C42.1036 79.8728 44.5003 76.0053 47.006 75.417ZM21.1004 86.1266C23.0813 85.6616 24.6737 87.2705 24.6737 87.2705C28.8353 90.9201 22.0398 92.4525 19.7713 91.7263C16.1979 90.5824 18.5947 86.7149 21.1004 86.1266ZM31.4947 100.445C34.9677 99.6298 34.8828 103.615 34.8828 103.615C34.9917 106.895 32.2489 108.797 29.9804 108.071C26.4071 106.927 28.989 101.034 31.4947 100.445ZM21.5815 106.078C25.0545 105.263 24.9696 109.248 24.9696 109.248C25.0786 112.527 19.0565 114.539 16.788 113.813C13.2147 112.669 19.0758 106.666 21.5815 106.078ZM26.4412 74.4487C29.9142 73.6333 30.4676 76.2566 30.4676 76.2566C30.5766 79.5357 24.5546 81.5475 22.2861 80.8213C18.7127 79.6774 23.9355 75.037 26.4412 74.4487Z" fill="#547629"/>
<path fill-rule="evenodd" clip-rule="evenodd" d="M66.429 147.79C85.4722 158.521 117.785 82.1959 104.57 56.8776C104.181 56.2963 103.777 55.7978 103.36 55.3744C99.4066 51.3564 94.3495 54.1103 91.0968 57.1631C90.381 57.8349 89.7526 58.5213 89.2425 59.1531C88.8654 59.6161 88.4824 60.0927 88.0943 60.5824C86.3539 62.778 84.51 65.2352 82.628 67.9003C80.6338 70.7242 78.5968 73.7814 76.5948 77.0081C75.3374 79.0346 74.0938 81.128 72.8832 83.2724C71.4028 85.8948 69.9718 88.5934 68.6255 91.3393C67.2752 94.0934 66.0101 96.895 64.8657 99.7149C63.9245 102.034 63.065 104.366 62.307 106.694C61.3022 109.779 60.4757 112.857 59.8736 115.891C59.7458 116.535 59.6281 117.177 59.5209 117.816C57.6032 129.262 59.0641 139.946 66.429 147.79ZM98.895 60.8524C99.0802 58.8261 97.9508 57.7693 96.7597 57.388C93.2822 56.0894 91.8533 64.3734 93.5132 66.0817C96.1278 68.7725 98.6465 63.571 98.895 60.8524ZM89.199 73.0431C89.3843 71.0168 89.0284 70.4394 87.8373 70.0581C84.3598 68.7595 81.3839 76.0847 83.0438 77.793C85.6584 80.4839 88.9506 75.7617 89.199 73.0431ZM98.5572 73.4898C98.7424 71.4634 97.9689 70.9841 97.1954 70.5047C93.718 69.2061 91.2214 75.7579 92.8813 77.4662C95.4959 80.157 98.3087 76.2084 98.5572 73.4898ZM103.895 82.1507C104.081 80.1244 103.307 79.645 102.534 79.1657C99.0562 77.8671 97.6272 86.151 99.2871 87.8593C101.902 90.5502 103.647 84.8693 103.895 82.1507ZM105.377 65.94C104.912 63.9591 104.789 63.4344 104.015 62.955C100.538 61.6564 100.362 69.6462 102.022 71.3545C104.636 74.0454 105.965 68.4457 105.377 65.94ZM100.387 98.1762C99.9223 96.1952 99.3198 96.444 98.5463 95.9646C95.0689 94.666 92.8664 102.471 94.5263 104.179C97.1409 106.87 100.976 100.682 100.387 98.1762ZM93.0992 84.0245C92.6341 82.0436 92.0315 82.2923 91.2581 81.813C87.7806 80.5144 85.5782 88.3189 87.2381 90.0272C89.8527 92.7181 93.6875 86.5302 93.0992 84.0245ZM82.0088 84.6455C81.5437 82.6646 80.9412 82.9133 80.1677 82.4339C76.6902 81.1353 72.5704 92.0339 74.2303 93.7422C76.8449 96.4331 82.5971 87.1512 82.0088 84.6455ZM88.5236 98.3178C88.0585 96.3369 87.4559 96.5856 86.6825 96.1062C83.205 94.8076 78.1305 104.724 80.7451 107.414C83.3597 110.105 89.1119 100.823 88.5236 98.3178ZM95.5177 111.217C95.0526 109.236 94.45 109.484 93.6766 109.005C90.1991 107.706 87.1509 117.808 89.4714 119.246C94.1763 122.161 96.106 113.722 95.5177 111.217ZM73.4895 101.848C73.0244 99.8666 72.0302 99.5881 70.8749 99.1566C67.3974 97.858 65.3039 108.942 66.9638 110.65C69.5784 113.341 74.0778 104.353 73.4895 101.848ZM78.9693 122.372C78.5042 120.391 76.3547 119.681 76.3547 119.681C71.2344 117.579 70.7837 129.467 72.4436 131.175C75.0582 133.866 79.5576 124.878 78.9693 122.372ZM68.2493 118.941C67.7843 116.96 66.4082 116.729 66.4082 116.729C61.2879 114.626 62.7547 123.42 64.4146 125.129C67.0292 127.819 68.8376 121.446 68.2493 118.941ZM81.1482 111.946C80.6831 109.966 78.5335 109.256 78.5335 109.256C73.4132 107.153 75.0652 113.92 76.7251 115.629C79.3397 118.32 81.7364 114.452 81.1482 111.946ZM90.1685 125.03C89.7035 123.05 87.554 122.34 87.554 122.34C82.4337 120.237 84.0856 127.004 85.7455 128.713C88.3601 131.404 90.7568 127.536 90.1685 125.03ZM84.8957 133.539C84.0803 130.066 80.5489 131.916 80.5489 131.916C77.5639 133.277 77.0806 136.581 78.7405 138.289C81.3551 140.98 85.484 136.045 84.8957 133.539ZM68.8703 130.031C68.0549 126.558 64.5235 128.408 64.5235 128.408C61.5385 129.769 62.4169 136.058 64.0768 137.766C66.6914 140.457 69.4586 132.537 68.8703 130.031ZM73.7291 139.465C72.9137 135.992 70.3182 136.664 70.3182 136.664C67.3332 138.026 68.2117 144.314 69.8716 146.022C72.4862 148.713 74.3174 141.971 73.7291 139.465Z" fill="#547629"/>
<path d="M80.8594 50.2232C80.659 51.1823 80.362 52.2394 79.9606 53.4009C79.7352 53.9708 79.503 54.5406 79.2643 55.1102C81.5945 55.4837 86.6227 57.1011 88.0943 60.5824C88.4824 60.0927 88.8654 59.6161 89.2425 59.1531C89.7526 58.5213 90.381 57.8349 91.0968 57.1631C90.4023 50.7936 83.9825 49.8825 80.8594 50.2232Z" fill="#909090"/>
<path d="M88.0943 60.5824C86.6227 57.1011 81.5945 55.4837 79.2643 55.1102C78.1032 57.8809 76.7878 60.6464 75.3439 63.3862L82.628 67.9003C84.51 65.2352 86.3539 62.778 88.0943 60.5824Z" fill="#DFDFDF"/>
<path d="M82.628 67.9003L75.3439 63.3862C73.6642 66.5736 71.8107 69.7263 69.824 72.8121L76.5948 77.0081C78.5968 73.7814 80.6338 70.7242 82.628 67.9003Z" fill="#909090"/>
<path d="M72.8832 83.2724L65.7218 78.8343C63.9339 81.3214 62.0721 83.7472 60.1601 86.0931L68.6255 91.3393C69.9718 88.5934 71.4028 85.8948 72.8832 83.2724Z" fill="#909090"/>
<path d="M64.8657 99.7149L54.1259 93.0592C52.4123 94.9205 50.6794 96.7086 48.9424 98.4113L62.307 106.694C63.065 104.366 63.9245 102.034 64.8657 99.7149Z" fill="#909090"/>
<path d="M41.953 104.785C41.4583 105.203 40.9649 105.612 40.4732 106.012C39.7977 107.58 39.0752 109.562 38.4809 111.699L56.0827 122.607C57.5785 120.924 58.7578 119.189 59.5209 117.816C59.6281 117.177 59.7458 116.535 59.8736 115.891L41.953 104.785Z" fill="#909090"/>
<path d="M37.1952 120.036C37.215 123.985 38.4531 127.333 42.0474 128.399C44.7035 129.187 47.2536 128.772 49.5659 127.703L37.1952 120.036Z" fill="#909090"/>
<path d="M76.5948 77.0081L69.824 72.8121C68.5109 74.8518 67.1396 76.8623 65.7218 78.8343L72.8832 83.2724C74.0938 81.128 75.3374 79.0346 76.5948 77.0081Z" fill="#DFDFDF"/>
<path d="M68.6255 91.3393L60.1601 86.0931C58.1933 88.5064 56.1733 90.8352 54.1259 93.0592L64.8657 99.7149C66.0101 96.895 67.2752 94.0934 68.6255 91.3393Z" fill="#DFDFDF"/>
<path d="M62.307 106.694L48.9424 98.4113C46.608 100.7 44.266 102.834 41.953 104.785L59.8736 115.891C60.4757 112.857 61.3022 109.779 62.307 106.694Z" fill="#DFDFDF"/>
<path d="M56.0827 122.607L38.4809 111.699C37.7287 114.404 37.1818 117.358 37.1952 120.036L49.5659 127.703C52.0741 126.542 54.3025 124.611 56.0827 122.607Z" fill="#DFDFDF"/>
<path fill-rule="evenodd" clip-rule="evenodd" d="M80.8594 50.2232C83.9825 49.8825 90.4023 50.7936 91.0968 57.1631C94.3495 54.1103 99.4066 51.3564 103.36 55.3744C106.295 53.5185 111.309 48.4211 107.892 42.8789C104.475 37.3367 99.0029 38.7968 96.6937 40.2197C96.4357 40.0602 95.6102 39.5496 94.3726 38.7827C92.8256 37.824 93.8605 30.9714 86.2345 29.4571C80.1338 28.2457 77.661 37.5333 77.1873 42.3286C80.3208 42.8878 81.9037 45.2238 80.8594 50.2232ZM83.3597 34.0961C81.406 36.097 79.4509 41.0946 87.2599 45.0775C92.3802 47.1801 87.0093 29.9345 83.3597 34.0961ZM105.018 47.5178C104.095 50.1579 100.49 54.1328 93.4478 48.9123C89.2862 45.2627 107.12 42.3975 105.018 47.5178Z" fill="#DFDFDF"/>
</svg>
