<svg width="107" height="117" viewBox="0 0 107 117" fill="none" xmlns="http://www.w3.org/2000/svg">
<path d="M67.3533 23.444C68.4972 19.8707 71.9453 13.4431 76.5862 16.3191" stroke="#3D3D3D" stroke-width="2"/>
<path d="M78.3731 30.2769C80.7507 27.7358 84.5338 21.8905 80.6445 18.8379" stroke="#3D3D3D" stroke-width="2"/>
<path d="M44.465 35.7582C43.2776 34.2194 41.7818 30.2413 45.2984 26.6397" stroke="#3D3D3D" stroke-width="2"/>
<path d="M53.6408 32.6142C52.0393 30.016 50.8431 23.6542 58.87 18.9937" stroke="#3D3D3D" stroke-width="2"/>
<path d="M80.9301 55.9477C82.6896 55.6999 86.4078 54.3642 87.2052 51.0045" stroke="#3D3D3D" stroke-width="2"/>
<path d="M79.886 47.2704C83.3122 47.7878 89.663 46.2637 87.6563 36.0275" stroke="#3D3D3D" stroke-width="2"/>
<path d="M78.7627 36.1355C78.0709 38.1155 75.3669 41.0967 70.0854 37.1813C66.9642 34.4441 80.3396 32.2952 78.7627 36.1355Z" fill="#909090"/>
<path d="M73.9174 55.6144C74.0563 54.0946 73.4762 53.7351 72.8961 53.3756C70.288 52.4017 68.4156 57.3155 69.6605 58.5967C71.6215 60.6149 73.7311 57.6534 73.9174 55.6144Z" fill="#3D3D3D"/>
<path d="M77.9211 62.1101C78.06 60.5904 77.4798 60.2308 76.8997 59.8713C74.2916 58.8974 73.2199 65.1103 74.4649 66.3915C76.4258 68.4097 77.7347 64.1491 77.9211 62.1101Z" fill="#3D3D3D"/>
<path d="M79.0323 49.9521C78.6835 48.4664 78.5911 48.0728 78.011 47.7133C75.4029 46.7394 75.2708 52.7317 76.5157 54.0129C78.4767 56.0311 79.4735 51.8314 79.0323 49.9521Z" fill="#3D3D3D"/>
<path d="M75.2901 74.1292C74.9413 72.6435 74.4894 72.8301 73.9092 72.4705C71.3012 71.4966 69.6493 77.35 70.8942 78.6312C72.8552 80.6494 75.7313 76.0085 75.2901 74.1292Z" fill="#3D3D3D"/>
<path d="M69.8239 63.5155C69.4751 62.0298 69.0232 62.2163 68.4431 61.8568C65.835 60.8829 64.1832 66.7363 65.4281 68.0175C67.389 70.0357 70.2651 65.3947 69.8239 63.5155Z" fill="#3D3D3D"/>
<path d="M61.5061 63.9812C61.1573 62.4955 60.7054 62.682 60.1253 62.3225C57.5172 61.3486 54.4273 69.5225 55.6723 70.8037C57.6332 72.8219 61.9473 65.8604 61.5061 63.9812Z" fill="#3D3D3D"/>
<path d="M66.3922 74.2354C66.0434 72.7497 65.5915 72.9363 65.0114 72.5768C62.4033 71.6028 58.5974 79.0398 60.5583 81.0579C62.5193 83.0761 66.8334 76.1147 66.3922 74.2354Z" fill="#3D3D3D"/>
<path d="M71.6378 83.9095C71.289 82.4238 70.837 82.6104 70.2569 82.2509C67.6488 81.2769 65.3627 88.8528 67.103 89.9313C70.6318 92.1181 72.079 85.7888 71.6378 83.9095Z" fill="#3D3D3D"/>
<path d="M55.1166 76.8827C54.7678 75.397 54.0222 75.1881 53.1557 74.8645C50.5476 73.8906 48.9775 82.2034 50.2224 83.4846C52.1834 85.5028 55.5579 78.762 55.1166 76.8827Z" fill="#3D3D3D"/>
<path d="M59.2265 92.2763C58.8777 90.7906 57.2655 90.2581 57.2655 90.2581C53.4253 88.6812 53.0873 97.597 54.3322 98.8782C56.2932 100.896 59.6677 94.1556 59.2265 92.2763Z" fill="#3D3D3D"/>
<path d="M51.1865 89.7025C50.8377 88.2168 49.8057 88.0439 49.8057 88.0439C45.9655 86.4669 47.0655 93.0623 48.3104 94.3435C50.2714 96.3616 51.6277 91.5818 51.1865 89.7025Z" fill="#3D3D3D"/>
<path d="M60.8606 84.4569C60.5118 82.9713 58.8997 82.4388 58.8997 82.4388C55.0594 80.8618 56.2984 85.9374 57.5433 87.2186C59.5043 89.2368 61.3019 86.3362 60.8606 84.4569Z" fill="#3D3D3D"/>
<path d="M67.6259 94.2699C67.2771 92.7843 65.665 92.2518 65.665 92.2518C61.8248 90.6748 63.0637 95.7504 64.3086 97.0316C66.2696 99.0498 68.0671 96.1492 67.6259 94.2699Z" fill="#3D3D3D"/>
<path d="M63.6713 100.651C63.0598 98.0465 60.4112 99.4338 60.4112 99.4338C58.1725 100.455 57.81 102.932 59.0549 104.214C61.0158 106.232 64.1125 102.531 63.6713 100.651Z" fill="#3D3D3D"/>
<path d="M51.6522 98.0203C51.0407 95.4155 48.3921 96.8029 48.3921 96.8029C46.1534 97.8242 46.8122 102.54 48.0571 103.821C50.0181 105.84 52.0935 99.8996 51.6522 98.0203Z" fill="#3D3D3D"/>
<path d="M55.2964 105.096C54.6848 102.491 52.7382 102.995 52.7382 102.995C50.4994 104.017 51.1583 108.733 52.4032 110.014C54.3641 112.032 55.7376 106.975 55.2964 105.096Z" fill="#3D3D3D"/>
<path d="M31.339 45.286C32.6381 44.4853 33.2182 44.8448 33.7984 45.2043C35.8312 47.1064 32.2641 50.97 30.5628 50.4254C27.8828 49.5675 29.596 46.3603 31.339 45.286Z" fill="#3D3D3D"/>
<path d="M56.2563 38.2463C57.5554 37.4455 58.1355 37.8051 58.7157 38.1646C60.7485 40.0667 55.6617 43.7914 53.9603 43.2467C51.2803 42.3888 54.5133 39.3206 56.2563 38.2463Z" fill="#3D3D3D"/>
<path d="M52.3144 34.713C53.8001 34.3642 54.1937 34.2718 54.7738 34.6313C56.8067 36.5334 51.4992 39.3185 49.7979 38.7738C47.1179 37.9159 50.4352 35.1542 52.3144 34.713Z" fill="#3D3D3D"/>
<path d="M52.7048 45.2365C54.1905 44.8876 54.2246 45.3754 54.8047 45.7349C56.8376 47.637 52.3308 51.7212 50.6294 51.1766C47.9495 50.3186 50.8255 45.6777 52.7048 45.2365Z" fill="#3D3D3D"/>
<path d="M47.4897 41.2017C48.9754 40.8529 49.0095 41.3406 49.5896 41.7001C51.6225 43.6022 47.1158 47.6864 45.4144 47.1418C42.7344 46.2838 45.6105 41.6429 47.4897 41.2017Z" fill="#3D3D3D"/>
<path d="M28.8727 53.1052C30.2704 52.4926 31.424 54.1708 31.424 54.1708C33.4569 56.0729 27.0607 61.9104 25.3593 61.3658C22.6793 60.5079 25.5656 54.5548 28.8727 53.1052Z" fill="#3D3D3D"/>
<path d="M27.4122 64.5312C28.8979 64.1824 28.9319 64.6701 29.5121 65.0296C31.5449 66.9318 26.2193 74.2298 23.8988 72.7918C21.5783 71.3537 25.5329 64.9724 27.4122 64.5312Z" fill="#3D3D3D"/>
<path d="M34.7557 68.2792C36.2414 67.9304 36.2755 68.4181 36.8556 68.7776C38.8885 70.6798 33.1216 76.0986 31.3812 75.0201C27.8525 72.8332 32.8765 68.7204 34.7557 68.2792Z" fill="#3D3D3D"/>
<path d="M42.9382 59.7005C44.4239 59.3517 44.9428 59.9265 45.6182 60.5585C47.6511 62.4606 40.9056 67.5661 39.2042 67.0215C36.5242 66.1635 41.059 60.1417 42.9382 59.7005Z" fill="#3D3D3D"/>
<path d="M13.8618 72.1921C15.3475 71.8433 16.5418 73.05 16.5418 73.05C19.663 75.7872 11.8292 80.0577 10.1278 79.513C7.44784 78.6551 11.9826 72.6333 13.8618 72.1921Z" fill="#3D3D3D"/>
<path d="M45.512 51.6606C46.9977 51.3117 47.6119 52.159 47.6119 52.159C50.7331 54.8962 44.3373 56.8462 42.6359 56.3015C39.9559 55.4436 43.6327 52.1018 45.512 51.6606Z" fill="#3D3D3D"/>
<path d="M35.254 57.0598C36.7397 56.711 37.934 57.9178 37.934 57.9178C41.0552 60.655 35.9586 61.8042 34.2572 61.2596C31.5772 60.4016 33.3747 57.5011 35.254 57.0598Z" fill="#3D3D3D"/>
<path d="M15.8248 65.0921C17.3105 64.7432 18.5048 65.95 18.5048 65.95C21.626 68.6872 16.5293 69.8364 14.828 69.2918C12.148 68.4339 13.9455 65.5333 15.8248 65.0921Z" fill="#3D3D3D"/>
<path d="M23.6205 75.831C26.2253 75.2194 26.1616 78.2087 26.1616 78.2087C26.2433 80.6681 24.1862 82.0951 22.4848 81.5505C19.8048 80.6926 21.7413 76.2722 23.6205 75.831Z" fill="#3D3D3D"/>
<path d="M16.1856 80.0555C18.7904 79.444 18.7267 82.4332 18.7267 82.4332C18.8084 84.8926 14.2919 86.4014 12.5905 85.8567C9.91054 84.9988 14.3064 80.4967 16.1856 80.0555Z" fill="#3D3D3D"/>
<path d="M19.8304 56.3336C22.4352 55.722 22.8502 57.6895 22.8502 57.6895C22.9319 60.1489 18.4154 61.6577 16.7141 61.113C14.0341 60.2551 17.9511 56.7748 19.8304 56.3336Z" fill="#3D3D3D"/>
<path d="M65.8775 53.0406C66.7708 53.3266 67.0377 53.7596 66.8988 55.2794C66.7124 57.3183 64.2433 60.86 62.2824 58.8418C61.0374 57.5606 63.2694 52.0667 65.8775 53.0406Z" fill="#3D3D3D"/>
<path d="M72.5693 43.5381C73.4626 43.8241 74.3096 44.6166 74.1707 46.1364C73.9844 48.1753 72.0954 52.0765 70.1344 50.0583C68.8895 48.7771 69.9612 42.5642 72.5693 43.5381Z" fill="#3D3D3D"/>
<path d="M43.58 39.738C42.9263 39.0652 41.8396 38.6594 40.5405 39.4602C38.7975 40.5344 36.1446 43.9622 38.8246 44.8201C40.526 45.3648 45.6128 41.6401 43.58 39.738Z" fill="#3D3D3D"/>
<path d="M41.5965 46.8253C40.9429 46.1526 40.4363 46.1063 39.1372 46.907C37.3942 47.9813 33.8017 51.6297 36.4817 52.4876C38.1831 53.0323 43.6294 48.7275 41.5965 46.8253Z" fill="#3D3D3D"/>
<path d="M62.5193 26.0691C61.054 27.5698 59.5877 31.318 65.4444 34.3052C69.2847 35.8822 65.2565 22.9479 62.5193 26.0691Z" fill="#909090"/>
<path fill-rule="evenodd" clip-rule="evenodd" d="M31.8373 43.1863C24.4483 46.9039 9.26986 59.3904 7.66839 79.5949C6.60911 92.9589 17.744 90.2742 30.3544 80.0062C30.7232 79.7059 31.0932 79.3991 31.4643 79.0861C33.199 77.6225 34.9555 76.0218 36.7063 74.3055C38.0091 73.0285 39.3087 71.6875 40.5939 70.2914C42.1295 68.6234 43.6445 66.8769 45.1196 65.0669C46.5536 63.3074 47.9499 61.4881 49.2909 59.6228C50.3542 58.1438 51.3827 56.6359 52.3675 55.1061C53.8575 52.7918 55.2477 50.4273 56.5074 48.0367C57.5903 45.9819 58.5769 43.9078 59.4477 41.8297C59.6268 41.4025 59.8009 40.9751 59.97 40.5477C60.271 39.6766 60.4938 38.8838 60.644 38.1644C61.4273 34.4149 60.2401 32.663 57.89 32.2435C52.2023 31.2284 39.7028 38.0183 31.8373 43.1863ZM40.5405 39.4602C41.8396 38.6594 42.9263 39.0652 43.58 39.738C45.6128 41.6401 40.526 45.3648 38.8246 44.8201C36.1446 43.9622 38.7975 40.5344 40.5405 39.4602ZM39.1372 46.907C40.4363 46.1063 40.9429 46.1526 41.5965 46.8253C43.6294 48.7275 38.1831 53.0323 36.4817 52.4876C33.8017 51.6297 37.3942 47.9813 39.1372 46.907ZM31.339 45.286C32.6381 44.4853 33.2182 44.8448 33.7984 45.2043C35.8312 47.1064 32.2641 50.97 30.5628 50.4254C27.8828 49.5675 29.596 46.3603 31.339 45.286ZM56.2563 38.2463C57.5554 37.4455 58.1355 37.8051 58.7157 38.1646C60.7485 40.0667 55.6617 43.7914 53.9603 43.2467C51.2803 42.3888 54.5133 39.3206 56.2563 38.2463ZM52.3144 34.713C53.8001 34.3642 54.1937 34.2718 54.7738 34.6313C56.8067 36.5334 51.4992 39.3185 49.7979 38.7738C47.1179 37.9159 50.4352 35.1542 52.3144 34.713ZM52.7048 45.2365C54.1905 44.8876 54.2246 45.3754 54.8047 45.7349C56.8376 47.637 52.3308 51.7212 50.6294 51.1766C47.9495 50.3186 50.8255 45.6777 52.7048 45.2365ZM47.4897 41.2017C48.9754 40.8529 49.0095 41.3406 49.5896 41.7001C51.6225 43.6022 47.1158 47.6864 45.4144 47.1418C42.7344 46.2838 45.6105 41.6429 47.4897 41.2017ZM28.8727 53.1052C30.2704 52.4926 31.424 54.1708 31.424 54.1708C33.4569 56.0729 27.0607 61.9104 25.3593 61.3658C22.6793 60.5079 25.5656 54.5548 28.8727 53.1052ZM27.4122 64.5312C28.8979 64.1824 28.9319 64.6701 29.5121 65.0296C31.5449 66.9318 26.2193 74.2298 23.8988 72.7918C21.5783 71.3537 25.5329 64.9724 27.4122 64.5312ZM34.7557 68.2792C36.2414 67.9304 36.2755 68.4181 36.8556 68.7776C38.8885 70.6798 33.1216 76.0986 31.3812 75.0201C27.8525 72.8332 32.8765 68.7204 34.7557 68.2792ZM42.9382 59.7005C44.4239 59.3517 44.9428 59.9265 45.6182 60.5585C47.6511 62.4606 40.9056 67.5661 39.2042 67.0215C36.5242 66.1635 41.059 60.1417 42.9382 59.7005ZM13.8618 72.1921C15.3475 71.8433 16.5418 73.05 16.5418 73.05C19.663 75.7872 11.8292 80.0577 10.1278 79.513C7.44784 78.6551 11.9826 72.6333 13.8618 72.1921ZM45.512 51.6606C46.9977 51.3117 47.6119 52.159 47.6119 52.159C50.7331 54.8962 44.3373 56.8462 42.6359 56.3015C39.9559 55.4436 43.6327 52.1018 45.512 51.6606ZM35.254 57.0598C36.7397 56.711 37.934 57.9178 37.934 57.9178C41.0552 60.655 35.9586 61.8042 34.2572 61.2596C31.5772 60.4016 33.3747 57.5011 35.254 57.0598ZM15.8248 65.0921C17.3105 64.7432 18.5048 65.95 18.5048 65.95C21.626 68.6872 16.5293 69.8364 14.828 69.2918C12.148 68.4339 13.9455 65.5333 15.8248 65.0921ZM23.6205 75.831C26.2253 75.2194 26.1616 78.2087 26.1616 78.2087C26.2433 80.6681 24.1862 82.0951 22.4848 81.5505C19.8048 80.6926 21.7413 76.2722 23.6205 75.831ZM16.1856 80.0555C18.7904 79.444 18.7267 82.4332 18.7267 82.4332C18.8084 84.8926 14.2919 86.4014 12.5905 85.8567C9.91054 84.9988 14.3064 80.4967 16.1856 80.0555ZM19.8304 56.3336C22.4352 55.722 22.8502 57.6895 22.8502 57.6895C22.9319 60.1489 18.4154 61.6577 16.7141 61.113C14.0341 60.2551 17.9511 56.7748 19.8304 56.3336Z" fill="#547629"/>
<path fill-rule="evenodd" clip-rule="evenodd" d="M49.8213 111.34C64.1036 119.388 88.338 62.144 78.4269 43.1553C78.1354 42.7193 77.8322 42.3454 77.5198 42.0279C74.5545 39.0144 70.7616 41.0798 68.3221 43.3694C67.7853 43.8733 67.3139 44.388 66.9314 44.8619C66.6486 45.2091 66.3613 45.5666 66.0702 45.9339C64.7649 47.5806 63.382 49.4235 61.9705 51.4223C60.4748 53.5402 58.9471 55.8332 57.4456 58.2531C56.5025 59.773 55.5698 61.3431 54.6619 62.9513C53.5516 64.9182 52.4784 66.9421 51.4686 69.0016C50.4559 71.0671 49.5071 73.1683 48.6488 75.2832C47.9429 77.0227 47.2983 78.7714 46.7297 80.5172C45.9762 82.8312 45.3563 85.1401 44.9047 87.4154C44.8089 87.8983 44.7206 88.3798 44.6402 88.8594C43.2019 97.4437 44.2976 105.456 49.8213 111.34ZM74.1707 46.1364C74.3096 44.6166 73.4626 43.8241 72.5693 43.5381C69.9612 42.5642 68.8895 48.7771 70.1344 50.0583C72.0954 52.0765 73.9844 48.1753 74.1707 46.1364ZM66.8988 55.2794C67.0377 53.7596 66.7708 53.3266 65.8775 53.0406C63.2694 52.0667 61.0374 57.5606 62.2824 58.8418C64.2433 60.86 66.7124 57.3183 66.8988 55.2794ZM73.9174 55.6144C74.0563 54.0946 73.4762 53.7351 72.8961 53.3756C70.288 52.4017 68.4156 57.3155 69.6605 58.5967C71.6215 60.6149 73.7311 57.6534 73.9174 55.6144ZM77.9211 62.1101C78.06 60.5904 77.4798 60.2308 76.8997 59.8713C74.2916 58.8974 73.2199 65.1103 74.4649 66.3915C76.4258 68.4097 77.7347 64.1491 77.9211 62.1101ZM79.0323 49.9521C78.6835 48.4664 78.5911 48.0728 78.011 47.7133C75.4029 46.7394 75.2708 52.7317 76.5157 54.0129C78.4767 56.0311 79.4735 51.8314 79.0323 49.9521ZM75.2901 74.1292C74.9413 72.6435 74.4894 72.8301 73.9092 72.4705C71.3012 71.4966 69.6493 77.35 70.8942 78.6312C72.8552 80.6494 75.7313 76.0085 75.2901 74.1292ZM69.8239 63.5155C69.4751 62.0298 69.0232 62.2163 68.4431 61.8568C65.835 60.8829 64.1832 66.7363 65.4281 68.0175C67.389 70.0357 70.2651 65.3947 69.8239 63.5155ZM61.5061 63.9812C61.1573 62.4955 60.7054 62.682 60.1253 62.3225C57.5172 61.3486 54.4273 69.5225 55.6723 70.8037C57.6332 72.8219 61.9473 65.8604 61.5061 63.9812ZM66.3922 74.2354C66.0434 72.7497 65.5915 72.9363 65.0114 72.5768C62.4033 71.6028 58.5974 79.0398 60.5583 81.0579C62.5193 83.0761 66.8334 76.1147 66.3922 74.2354ZM71.6378 83.9095C71.289 82.4238 70.837 82.6104 70.2569 82.2509C67.6488 81.2769 65.3627 88.8528 67.103 89.9313C70.6318 92.1181 72.079 85.7888 71.6378 83.9095ZM55.1166 76.8827C54.7678 75.397 54.0222 75.1881 53.1557 74.8645C50.5476 73.8906 48.9775 82.2034 50.2224 83.4846C52.1834 85.5028 55.5579 78.762 55.1166 76.8827ZM59.2265 92.2763C58.8777 90.7906 57.2655 90.2581 57.2655 90.2581C53.4253 88.6812 53.0873 97.597 54.3322 98.8782C56.2932 100.896 59.6677 94.1556 59.2265 92.2763ZM51.1865 89.7025C50.8377 88.2168 49.8057 88.0439 49.8057 88.0439C45.9655 86.4669 47.0655 93.0623 48.3104 94.3435C50.2714 96.3616 51.6277 91.5818 51.1865 89.7025ZM60.8606 84.4569C60.5118 82.9713 58.8997 82.4388 58.8997 82.4388C55.0594 80.8618 56.2984 85.9374 57.5433 87.2186C59.5043 89.2368 61.3019 86.3362 60.8606 84.4569ZM67.6259 94.2699C67.2771 92.7843 65.665 92.2518 65.665 92.2518C61.8248 90.6748 63.0637 95.7504 64.3086 97.0316C66.2696 99.0498 68.0671 96.1492 67.6259 94.2699ZM63.6713 100.651C63.0598 98.0465 60.4112 99.4338 60.4112 99.4338C58.1725 100.455 57.81 102.932 59.0549 104.214C61.0158 106.232 64.1125 102.531 63.6713 100.651ZM51.6522 98.0203C51.0407 95.4155 48.3921 96.8029 48.3921 96.8029C46.1534 97.8242 46.8122 102.54 48.0571 103.821C50.0181 105.84 52.0935 99.8996 51.6522 98.0203ZM55.2964 105.096C54.6848 102.491 52.7382 102.995 52.7382 102.995C50.4994 104.017 51.1583 108.733 52.4032 110.014C54.3641 112.032 55.7376 106.975 55.2964 105.096Z" fill="#547629"/>
<path d="M60.644 38.1644C60.4938 38.8838 60.271 39.6766 59.97 40.5477C59.8009 40.9751 59.6268 41.4025 59.4477 41.8297C61.1954 42.1099 64.9666 43.3229 66.0702 45.9339C66.3613 45.5666 66.6486 45.2091 66.9314 44.8619C67.3139 44.388 67.7853 43.8733 68.3221 43.3694C67.8012 38.5923 62.9864 37.909 60.644 38.1644Z" fill="#909090"/>
<path d="M66.0702 45.9339C64.9666 43.3229 61.1954 42.1099 59.4477 41.8297C58.5769 43.9078 57.5903 45.9819 56.5074 48.0367L61.9705 51.4223C63.382 49.4235 64.7649 47.5806 66.0702 45.9339Z" fill="#DFDFDF"/>
<path d="M61.9705 51.4223L56.5074 48.0367C55.2477 50.4273 53.8575 52.7918 52.3675 55.1061L57.4456 58.2531C58.9471 55.8332 60.4748 53.5402 61.9705 51.4223Z" fill="#909090"/>
<path d="M54.6619 62.9513L49.2909 59.6228C47.9499 61.4881 46.5536 63.3074 45.1196 65.0669L51.4686 69.0016C52.4784 66.9421 53.5516 64.9182 54.6619 62.9513Z" fill="#909090"/>
<path d="M48.6488 75.2832L40.5939 70.2914C39.3087 71.6875 38.0091 73.0285 36.7063 74.3055L46.7297 80.5172C47.2983 78.7714 47.9429 77.0227 48.6488 75.2832Z" fill="#909090"/>
<path d="M31.4643 79.0861C31.0932 79.3991 30.7232 79.7059 30.3544 80.0062C29.8478 81.1822 29.3059 82.6686 28.8602 84.2715L42.0615 92.4526C43.1834 91.1898 44.0679 89.8886 44.6402 88.8594C44.7206 88.3798 44.8089 87.8983 44.9047 87.4154L31.4643 79.0861Z" fill="#909090"/>
<path d="M27.8959 90.5243C27.9108 93.4855 28.8393 95.9966 31.535 96.7962C33.5271 97.387 35.4397 97.0762 37.1739 96.274L27.8959 90.5243Z" fill="#909090"/>
<path d="M57.4456 58.2531L52.3675 55.1061C51.3827 56.6359 50.3542 58.1438 49.2909 59.6228L54.6619 62.9513C55.5698 61.3431 56.5025 59.773 57.4456 58.2531Z" fill="#DFDFDF"/>
<path d="M51.4686 69.0016L45.1196 65.0669C43.6445 66.8769 42.1295 68.6234 40.5939 70.2914L48.6488 75.2832C49.5071 73.1683 50.4559 71.0671 51.4686 69.0016Z" fill="#DFDFDF"/>
<path d="M46.7297 80.5172L36.7063 74.3055C34.9555 76.0218 33.199 77.6225 31.4643 79.0861L44.9047 87.4154C45.3563 85.1401 45.9762 82.8312 46.7297 80.5172Z" fill="#DFDFDF"/>
<path d="M42.0615 92.4526L28.8602 84.2715C28.296 86.3004 27.8858 88.5159 27.8959 90.5243L37.1739 96.274C39.0551 95.4039 40.7264 93.9555 42.0615 92.4526Z" fill="#DFDFDF"/>
<path fill-rule="evenodd" clip-rule="evenodd" d="M60.644 38.1644C62.9864 37.909 67.8012 38.5923 68.3221 43.3694C70.7616 41.0798 74.5545 39.0144 77.5198 42.0279C79.7206 40.636 83.4815 36.8129 80.9188 32.6563C78.3561 28.4996 74.2517 29.5947 72.5198 30.6618C72.3263 30.5423 71.7072 30.1593 70.779 29.5841C69.6187 28.865 70.3949 23.7256 64.6754 22.5899C60.0998 21.6813 58.2453 28.6471 57.89 32.2435C60.2401 32.663 61.4273 34.4149 60.644 38.1644ZM62.5193 26.0691C61.054 27.5698 59.5877 31.318 65.4444 34.3052C69.2847 35.8822 65.2565 22.9479 62.5193 26.0691ZM78.7627 36.1355C78.0709 38.1155 75.3669 41.0967 70.0854 37.1813C66.9642 34.4441 80.3396 32.2952 78.7627 36.1355Z" fill="#DFDFDF"/>
</svg>
