<svg width="56" height="225" viewBox="0 0 56 225" fill="none" xmlns="http://www.w3.org/2000/svg">
<path d="M36.4144 5.04756C36.4144 3.15377 35.3583 1.36456 33.5462 0.814399C29.1663 -0.51532 24.9482 -0.00816629 22.0278 0.856408C20.2573 1.38057 19.2437 3.1109 19.2437 4.95739V18.5767V18.7716C19.2437 21.2159 21.011 23.3265 23.4462 23.5367C26.9648 23.8404 30.089 23.768 32.4794 23.5653C34.7995 23.3686 36.4144 21.3581 36.4144 19.0296V18.5767V5.04756Z" fill="#547629"/>
<path d="M36.4144 19.0296C36.4144 21.3581 34.7995 23.3686 32.4794 23.5653C30.089 23.768 26.9648 23.8404 23.4462 23.5367C21.011 23.3265 19.2437 21.2159 19.2437 18.7716V18.5767C16.4742 18.5767 11.6313 19.6846 10.9261 23.5622C10.5433 25.6666 12.6242 27.4934 15.9107 28.7966C16.1098 48.8404 16.397 89.8143 15.9539 93.3596C15.5107 96.9048 12.6302 98.899 10.9684 100.007C2.65916 105.546 1.55126 111.64 1.55126 114.964V130C1.55126 134.432 0.954098 188.085 0.400114 214.12C0.0308155 217.074 2.28353 223.205 14.2488 224.091C29.2054 225.199 55.7948 225.753 55.2408 214.12C54.7977 204.814 53.3943 145.246 53.579 114.964C53.579 111.64 52.4711 105.546 44.1619 100.007C42.5 98.899 39.6195 96.9048 39.1764 93.3596C38.7332 89.8143 39.0205 48.8404 39.2195 28.7966C40.0237 28.4049 40.7561 27.9538 41.3985 27.4399C48.0453 22.122 40.8456 19.6846 36.4144 18.5767V19.0296Z" fill="#3D3D3D"/>
<path d="M33.9617 155.717C34.2771 156.033 35.0971 156.663 35.854 156.663C36.8002 156.663 37.7463 155.717 34.9079 154.771C32.6371 154.014 33.331 155.086 33.9617 155.717Z" fill="#DFDFDF"/>
<path d="M33.9617 158.556C33.0156 159.502 33.0156 160.448 36.8002 160.448C38.0497 160.448 34.9079 157.61 33.9617 158.556Z" fill="#DFDFDF"/>
<path d="M37.7463 157.61C38.6602 157.202 40.5922 156.887 41.0094 158.89C41.5308 161.394 35.854 158.556 37.7463 157.61Z" fill="#DFDFDF"/>
<path fill-rule="evenodd" clip-rule="evenodd" d="M47.2077 165.179C41.5308 151.933 28.5277 149.672 23.1446 151.6C16.9313 153.825 10.3083 157.908 8.41602 168.017C9.17408 167.574 10.0759 167.118 11.1033 166.677C13.0629 165.834 15.4791 165.044 18.2251 164.496C20.3158 164.078 22.5977 163.801 25.0148 163.747C26.6957 163.71 28.4421 163.781 30.2351 163.988C32.0661 164.2 33.9458 164.554 35.854 165.08C37.5545 165.549 39.2777 166.155 41.0094 166.918C42.7084 167.668 44.4155 168.569 46.1174 169.642C46.7236 170.024 47.3292 170.429 47.9334 170.855C48.3521 169.338 48.189 167.469 47.2077 165.179ZM33.9617 158.556C33.0156 159.502 33.0156 160.448 36.8002 160.448C38.0497 160.448 34.9079 157.61 33.9617 158.556ZM37.7463 157.61C38.6602 157.202 40.5922 156.887 41.0094 158.89C41.5308 161.394 35.854 158.556 37.7463 157.61ZM35.854 156.663C35.0971 156.663 34.2771 156.033 33.9617 155.717C33.331 155.086 32.6371 154.014 34.9079 154.771C37.7463 155.717 36.8002 156.663 35.854 156.663Z" fill="#547629"/>
<path d="M35.854 165.08C35.0971 167.272 31.5297 172.216 29.8407 174.414C30.2177 174.685 30.5437 175.005 30.8244 175.354C33.5377 173.599 39.3733 169.455 41.0094 166.918C39.2777 166.155 37.5545 165.549 35.854 165.08Z" fill="#DFDFDF"/>
<path d="M41.0094 166.918C39.3733 169.455 33.5377 173.599 30.8244 175.354C31.0254 175.604 31.2032 175.868 31.3598 176.14C36.2309 174.882 46.002 171.821 46.1174 169.642C44.4155 168.569 42.7084 167.668 41.0094 166.918Z" fill="#909090"/>
<path d="M31.707 176.827C37.2407 177.244 46.4147 176.361 47.9334 170.855C47.3292 170.429 46.7236 170.024 46.1174 169.642C46.002 171.821 36.2309 174.882 31.3598 176.14C31.4897 176.365 31.6051 176.596 31.707 176.827Z" fill="#DFDFDF"/>
<path d="M30.2351 163.988C29.937 167.019 29.2352 173.236 28.8129 173.86C29.1915 174.004 29.533 174.193 29.8407 174.414C31.5297 172.216 35.0971 167.272 35.854 165.08C33.9458 164.554 32.0661 164.2 30.2351 163.988Z" fill="#909090"/>
<path d="M26.9463 173.628C27.3514 173.558 27.7969 173.572 28.2849 173.694C28.4684 173.74 28.6443 173.795 28.8129 173.86C29.2352 173.236 29.937 167.019 30.2351 163.988C28.4421 163.781 26.6957 163.71 25.0148 163.747C25.3989 166.893 26.323 173.273 26.9463 173.628Z" fill="#DFDFDF"/>
<path d="M18.2251 164.496C20.3163 167.703 24.7668 174.107 25.8394 174.07C26.169 173.854 26.5371 173.698 26.9463 173.628C26.323 173.273 25.3989 166.893 25.0148 163.747C22.5977 163.801 20.3158 164.078 18.2251 164.496Z" fill="#909090"/>
<path d="M11.1033 166.677C14.5567 169.249 22.1455 174.514 24.8741 174.991C25.1498 174.631 25.4705 174.313 25.8394 174.07C24.7668 174.107 20.3163 167.703 18.2251 164.496C15.4791 165.044 13.0629 165.834 11.1033 166.677Z" fill="#DFDFDF"/>
<path d="M8.41602 168.017C9.27478 170.542 13.6277 175.708 24.1695 176.177C24.3604 175.763 24.5941 175.356 24.8741 174.991C22.1455 174.514 14.5567 169.249 11.1033 166.677C10.0759 167.118 9.17408 167.574 8.41602 168.017Z" fill="#909090"/>
<path d="M30.0629 179.741C30.4473 179.548 31.4466 179.222 32.369 179.452C32.3273 178.782 32.1361 177.799 31.707 176.827C31.6051 176.596 31.4897 176.365 31.3598 176.14C31.2032 175.868 31.0254 175.604 30.8244 175.354C30.5437 175.005 30.2177 174.685 29.8407 174.414C29.533 174.193 29.1915 174.004 28.8129 173.86C28.6443 173.795 28.4684 173.74 28.2849 173.694C27.7969 173.572 27.3514 173.558 26.9463 173.628C26.5371 173.698 26.169 173.854 25.8394 174.07C25.4705 174.313 25.1498 174.631 24.8741 174.991C24.5941 175.356 24.3604 175.763 24.1695 176.177C23.8511 176.867 23.6516 177.573 23.5542 178.126C24.1126 178.012 24.6424 178.356 24.8741 178.588C26.0272 177.896 26.892 178.492 27.1803 178.876C28.7945 177.953 29.7746 179.068 30.0629 179.741Z" fill="#909090"/>
<path d="M23.1446 178.299C22.4527 178.761 19.3971 182.527 17.9558 184.353C17.3792 185.218 17.2062 186.717 21.1267 185.794C21.5543 184.708 22.9024 181.746 24.8741 178.588C24.6424 178.356 24.1126 178.012 23.5542 178.126C23.4181 178.154 23.2802 178.209 23.1446 178.299Z" fill="#547629"/>
<path d="M27.1803 178.876C26.892 178.492 26.0272 177.896 24.8741 178.588C22.9024 181.746 21.5543 184.708 21.1267 185.794C21.9915 186.275 24.0094 186.659 25.1625 184.353C25.4668 183.624 26.2966 181.508 27.1803 178.876Z" fill="#547629"/>
<path d="M30.0629 179.741C29.7746 179.068 28.7945 177.953 27.1803 178.876C26.2966 181.508 25.4668 183.624 25.1625 184.353C26.5077 185.698 29.6017 187.754 31.216 185.218C31.8162 184.573 30.6974 181.298 30.0629 179.741Z" fill="#547629"/>
<path d="M32.9456 186.659C33.8104 187.332 35.7129 188.562 36.4047 188.1C37.2695 187.524 33.5221 179.741 32.369 179.452C31.4466 179.222 30.4473 179.548 30.0629 179.741C30.6974 181.298 31.8162 184.573 31.216 185.218L32.9456 186.659Z" fill="#547629"/>
<path d="M21.1267 185.794C18.9166 192.616 16.5144 206.376 24.5858 206.838C32.6573 207.299 33.5221 193.577 32.9456 186.659L31.216 185.218C29.6017 187.754 26.5077 185.698 25.1625 184.353C24.0094 186.659 21.9915 186.275 21.1267 185.794Z" fill="#DFDFDF"/>
</svg>
