<svg width="91" height="98" viewBox="0 0 91 98" fill="none" xmlns="http://www.w3.org/2000/svg">
<path d="M58.1877 32.767C54.6296 29.8284 50.0668 28.063 45.0918 28.063C46.9626 13.0962 46.0272 -2.80608 61.9294 0.935632C70.2662 2.89722 68.8817 11.9365 65.0941 20.5698C62.0176 24.2845 59.5732 29.1607 58.1877 32.767Z" fill="#909090"/>
<path d="M39.4792 0C46.2143 0 46.0272 18.7087 45.0918 28.063C42.0276 28.063 39.1199 28.7327 36.5069 29.9337C35.9229 26.6239 34.9188 22.4236 33.5264 18.4724C29.7453 1.96271 32.4385 0 39.4792 0Z" fill="#909090"/>
<path d="M36.5069 29.9337C35.2405 30.5157 34.0434 31.2226 32.9312 32.0385C30.41 29.3422 26.4542 25.8876 22.3188 23.7142C15.7719 18.2229 12.2484 13.1736 19.8353 7.48342C25.9268 2.91477 30.59 10.1399 33.5264 18.4724C34.2665 21.704 35.2547 25.493 36.5069 29.9337Z" fill="#909090"/>
<path d="M32.9312 32.0385C27.8264 35.7835 24.5124 41.8259 24.5124 48.6424C24.5124 51.5216 25.1036 54.2627 26.1714 56.7509C23.5609 57.2032 20.3925 57.9862 17.3287 59.1126C9.89651 60.335 1.74545 59.6367 0.191284 52.3839C-2.05374 41.9071 16.0936 41.1588 25.4478 42.0942C17.3408 40.2234 2.6234 34.2366 8.61013 25.2565C11.9076 20.3104 17.2482 21.0493 22.3188 23.7142C25.4583 26.3475 29.293 29.0825 32.9312 32.0385Z" fill="#909090"/>
<path d="M26.1714 56.7509C27.0425 58.7809 28.2307 60.6426 29.6738 62.2736C26.9837 65.8275 23.6662 70.8364 21.3803 75.6106C17.1489 80.0473 12.1685 81.8976 7.67471 75.7696C1.68245 67.5983 9.13101 62.1264 17.3287 59.1126C20.6325 58.5692 23.7943 57.6463 26.1714 56.7509Z" fill="#909090"/>
<path d="M29.6738 62.2736C31.375 64.1963 33.4303 65.7984 35.7375 66.9779C35.0243 70.9482 34.311 76.4048 34.1161 81.596C32.405 86.4266 29.2066 90.1763 23.577 89.801C16.8524 89.3527 17.9649 82.7437 21.3803 75.6106C24.9 71.9201 27.9014 66.4402 29.6738 62.2736Z" fill="#909090"/>
<path d="M35.7375 66.9779C38.544 68.4126 41.7234 69.2218 45.0918 69.2218C46.0437 69.2218 46.9805 69.1572 47.8981 69.0321C47.426 71.8882 47.1505 75.879 47.5583 79.8175C46.7603 88.1551 44.5533 96.777 39.4792 97.2844C34.8488 97.7475 33.7998 90.0214 34.1161 81.596C35.8169 76.7947 36.0484 70.9256 35.7375 66.9779Z" fill="#909090"/>
<path d="M47.8981 69.0321C50.9724 68.6129 53.8307 67.5147 56.3169 65.8937C56.9815 68.5031 58.2127 71.8506 59.9938 74.8141C63.3157 84.2623 65.0443 94.6559 57.2523 93.5427C50.7407 92.6125 48.2281 86.2854 47.5583 79.8175C47.9372 75.8585 47.9985 71.9637 47.8981 69.0321Z" fill="#909090"/>
<path d="M56.3169 65.8937C58.0821 64.7427 59.6598 63.3282 60.9941 61.7058C62.6865 62.6416 64.7089 63.6215 66.8882 64.4981C75.1564 68.915 83.4215 75.649 75.0255 80.4467C68.2705 84.3067 63.2265 80.1929 59.9938 74.8141C58.8492 71.5586 57.5155 68.4153 56.3169 65.8937Z" fill="#909090"/>
<path d="M60.9941 61.7058C62.361 60.0438 63.4724 58.1637 64.2683 56.1256C68.548 54.7186 74.146 52.465 79.028 49.723C85.4965 48.2613 90.8345 49.5748 89.9923 57.9965C88.7758 70.162 76.3523 68.3046 66.8882 64.4981C64.8392 63.4034 62.7899 62.4511 60.9941 61.7058Z" fill="#909090"/>
<path d="M65.4242 45.4445C64.6315 40.364 61.9803 35.8991 58.1877 32.767C60.4448 29.5396 63.1019 25.1108 65.0941 20.5698C68.9414 15.9243 73.7773 13.0953 78.7673 16.8377C83.3465 20.2721 81.9154 25.8927 78.3271 31.4691C72.9605 33.8197 67.9954 40.6794 65.4242 45.4445Z" fill="#909090"/>
<path d="M65.4242 45.4445C69.4375 42.1467 74.8785 36.8283 78.3271 31.4691C72.9605 33.8197 67.9954 40.6794 65.4242 45.4445Z" fill="#909090"/>
<path d="M64.2683 56.1256C65.174 53.8063 65.6712 51.2824 65.6712 48.6424C65.6712 47.5547 65.5868 46.4866 65.4242 45.4445C69.4375 42.1467 74.8785 36.8283 78.3271 31.4691C81.5929 30.0387 85.0073 30.2781 88.1215 33.6754C93.2578 39.2786 87.1286 45.1732 79.028 49.723C74.0008 50.859 68.2908 53.6712 64.2683 56.1256Z" fill="#909090"/>
<path d="M64.2683 56.1256C68.548 54.7186 74.146 52.465 79.028 49.723C74.0008 50.859 68.2908 53.6712 64.2683 56.1256Z" fill="#909090"/>
<path d="M60.9941 61.7058C62.6865 62.6416 64.7089 63.6215 66.8882 64.4981C64.8392 63.4034 62.7899 62.4511 60.9941 61.7058Z" fill="#909090"/>
<path d="M56.3169 65.8937C56.9815 68.5031 58.2127 71.8506 59.9938 74.8141C58.8492 71.5586 57.5155 68.4153 56.3169 65.8937Z" fill="#909090"/>
<path d="M47.8981 69.0321C47.426 71.8882 47.1505 75.879 47.5583 79.8175C47.9372 75.8585 47.9985 71.9637 47.8981 69.0321Z" fill="#909090"/>
<path d="M35.7375 66.9779C35.0243 70.9482 34.311 76.4048 34.1161 81.596C35.8169 76.7947 36.0484 70.9256 35.7375 66.9779Z" fill="#909090"/>
<path d="M29.6738 62.2736C26.9837 65.8275 23.6662 70.8364 21.3803 75.6106C24.9 71.9201 27.9014 66.4402 29.6738 62.2736Z" fill="#909090"/>
<path d="M26.1714 56.7509C23.5609 57.2032 20.3925 57.9862 17.3287 59.1126C20.6325 58.5692 23.7943 57.6463 26.1714 56.7509Z" fill="#909090"/>
<path d="M32.9312 32.0385C30.41 29.3422 26.4542 25.8876 22.3188 23.7142C25.4583 26.3475 29.293 29.0825 32.9312 32.0385Z" fill="#909090"/>
<path d="M36.5069 29.9337C35.9229 26.6239 34.9188 22.4236 33.5264 18.4724C34.2665 21.704 35.2547 25.493 36.5069 29.9337Z" fill="#909090"/>
<path d="M65.0941 20.5698C62.0176 24.2845 59.5732 29.1607 58.1877 32.767C60.4448 29.5396 63.1019 25.1108 65.0941 20.5698Z" fill="#909090"/>
<path d="M50.7058 39.2881L56.3184 31.8047" stroke="#3D3D3D" stroke-width="0.673211"/>
<path d="M52.9935 40.9879L60.0605 34.8594" stroke="#3D3D3D" stroke-width="0.673211"/>
<path d="M54.083 42.5698L61.9316 37.4805" stroke="#3D3D3D" stroke-width="0.673211"/>
<path d="M48.8364 38.3524L52.5781 29.9336" stroke="#3D3D3D" stroke-width="0.673211"/>
<path d="M46.9651 37.4168L48.8359 28.0625" stroke="#3D3D3D" stroke-width="0.673211"/>
<path d="M45.0938 37.4168V28.0625" stroke="#3D3D3D" stroke-width="0.673211"/>
<path d="M43.4222 37.6487L41.3652 28.5234" stroke="#3D3D3D" stroke-width="0.673211"/>
<path d="M41.4962 38.465L37.6113 28.998" stroke="#3D3D3D" stroke-width="0.673211"/>
<path d="M39.5697 39.2851L33.6621 31.7949" stroke="#3D3D3D" stroke-width="0.673211"/>
<path d="M37.4126 41.9351L29.4707 36.6504" stroke="#3D3D3D" stroke-width="0.673211"/>
<path d="M38.3591 40.7086L31.2383 34.6426" stroke="#3D3D3D" stroke-width="0.673211"/>
<path d="M36.0542 43.0727L27.2852 38.7773" stroke="#3D3D3D" stroke-width="0.673211"/>
<path d="M35.3601 45.078L26.3848 42.0996" stroke="#3D3D3D" stroke-width="0.673211"/>
<path d="M34.6634 47.0786L24.5059 46.791" stroke="#3D3D3D" stroke-width="0.673211"/>
<path d="M34.961 48.926L25.0957 50.4863" stroke="#3D3D3D" stroke-width="0.673211"/>
<path d="M34.8598 51.834L26.1055 54.623" stroke="#3D3D3D" stroke-width="0.673211"/>
<path d="M35.8816 53.6448L28.1484 58.2461" stroke="#3D3D3D" stroke-width="0.673211"/>
<path d="M36.9014 55.4557L30.1895 61.8691" stroke="#3D3D3D" stroke-width="0.673211"/>
<path d="M38.441 56.5241L33.2676 64.002" stroke="#3D3D3D" stroke-width="0.673211"/>
<path d="M40.6503 57.5396L37.1719 66.4531" stroke="#3D3D3D" stroke-width="0.673211"/>
<path d="M42.7011 58.0073L41.2773 67.3867" stroke="#3D3D3D" stroke-width="0.673211"/>
<path d="M44.7579 58.4691L45.3887 68.3145" stroke="#3D3D3D" stroke-width="0.673211"/>
<path d="M46.5705 57.9973L49.0117 67.3711" stroke="#3D3D3D" stroke-width="0.673211"/>
<path d="M49.0259 57.3988L53.4199 65.8984" stroke="#3D3D3D" stroke-width="0.673211"/>
<path d="M50.731 56.1629L56.832 63.4277" stroke="#3D3D3D" stroke-width="0.673211"/>
<path d="M52.442 54.9288L60.25 60.959" stroke="#3D3D3D" stroke-width="0.673211"/>
<path d="M53.2816 52.703L61.9316 57.0625" stroke="#3D3D3D" stroke-width="0.673211"/>
<path d="M54.6673 50.6655L63.9414 53.0195" stroke="#3D3D3D" stroke-width="0.673211"/>
<path d="M54.8779 48.5685L64.3613 48.8262" stroke="#3D3D3D" stroke-width="0.673211"/>
<path d="M55.0867 46.4754L64.7793 44.6367" stroke="#3D3D3D" stroke-width="0.673211"/>
<path d="M54.3908 44.7335L63.3926 41.1562" stroke="#3D3D3D" stroke-width="0.673211"/>
<ellipse cx="1.87085" cy="3.32594" rx="1.87085" ry="3.32594" transform="matrix(-0.930677 -0.365843 -0.365843 0.930677 56.457 24.5156)" fill="#3D3D3D"/>
<ellipse cx="1.41528" cy="2.83342" rx="1.41528" ry="2.83342" transform="matrix(-0.971119 -0.238596 -0.238596 0.971119 51.5625 23.1777)" fill="#3D3D3D"/>
<ellipse cx="1.73982" cy="3.0221" rx="1.73982" ry="3.0221" transform="matrix(-0.999362 -0.0357271 -0.0357271 0.999362 46.9141 22.1523)" fill="#3D3D3D"/>
<ellipse cx="1.73982" cy="3.26654" rx="1.73982" ry="3.26654" transform="matrix(-0.952295 0.305178 0.305178 0.952295 41.2285 21.9238)" fill="#3D3D3D"/>
<ellipse cx="1.73982" cy="3.64772" rx="1.73982" ry="3.64772" transform="matrix(-0.883135 0.469119 0.469119 0.883135 36.0566 22.4531)" fill="#3D3D3D"/>
<ellipse cx="1.94473" cy="3.64772" rx="1.94473" ry="3.64772" transform="matrix(-0.750183 0.661231 0.661231 0.750183 31.2227 25.918)" fill="#3D3D3D"/>
<ellipse cx="1.49784" cy="3.64772" rx="1.49784" ry="3.64772" transform="matrix(-0.612357 0.790581 0.790581 0.612357 28.1016 29.9355)" fill="#3D3D3D"/>
<ellipse cx="1.19978" cy="3.64772" rx="1.19978" ry="3.64772" transform="matrix(-0.498246 0.867036 0.867036 0.498246 25.5938 33.1816)" fill="#3D3D3D"/>
<ellipse cx="1.19978" cy="3.64772" rx="1.19978" ry="3.64772" transform="matrix(-0.346914 0.937897 0.937897 0.346914 23.3613 36.0117)" fill="#3D3D3D"/>
<ellipse cx="1.64413" cy="3.64772" rx="1.64413" ry="3.64772" transform="matrix(-0.173385 0.984854 0.984854 0.173385 21.0293 39.5234)" fill="#3D3D3D"/>
<ellipse cx="1.57743" cy="3.64772" rx="1.57743" ry="3.64772" transform="matrix(-0.00713438 0.999975 0.999975 0.00713438 20.9609 44.8984)" fill="#3D3D3D"/>
<ellipse cx="1.40691" cy="3.64772" rx="1.40691" ry="3.64772" transform="matrix(0.0454504 0.998967 0.998967 -0.0454504 20.8379 48.9746)" fill="#3D3D3D"/>
<ellipse cx="1.45935" cy="3.64772" rx="1.45935" ry="3.64772" transform="matrix(0.163523 0.98654 0.98654 -0.163523 20.6797 53.5742)" fill="#3D3D3D"/>
<ellipse cx="1.45935" cy="3.64772" rx="1.45935" ry="3.64772" transform="matrix(0.367434 0.93005 0.93005 -0.367434 22.2695 58.8027)" fill="#3D3D3D"/>
<ellipse cx="1.45935" cy="3.64772" rx="1.45935" ry="3.64772" transform="matrix(0.566407 0.824126 0.824126 -0.566407 24.332 63.9961)" fill="#3D3D3D"/>
<ellipse cx="1.45935" cy="3.64772" rx="1.45935" ry="3.64772" transform="matrix(0.759629 0.650357 0.650357 -0.759629 28.7754 67.2812)" fill="#3D3D3D"/>
<ellipse cx="1.45935" cy="3.64772" rx="1.45935" ry="3.64772" transform="matrix(0.948983 0.315327 0.315327 -0.948983 34.4141 70.5332)" fill="#3D3D3D"/>
<ellipse cx="1.45935" cy="3.64772" rx="1.45935" ry="3.64772" transform="matrix(0.984839 0.173474 0.173474 -0.984839 38.6172 72.7422)" fill="#3D3D3D"/>
<ellipse cx="1.45935" cy="3.64772" rx="1.45935" ry="3.64772" transform="matrix(0.999792 -0.0203926 -0.0203926 -0.999792 44.0449 72.834)" fill="#3D3D3D"/>
<ellipse cx="1.45935" cy="3.64772" rx="1.45935" ry="3.64772" transform="matrix(0.984021 -0.178054 -0.178054 -0.984021 48.3828 73.0039)" fill="#3D3D3D"/>
<ellipse cx="1.54279" cy="3.64772" rx="1.54279" ry="3.64772" transform="matrix(0.913168 -0.407584 -0.407584 -0.913168 54.0664 71.2754)" fill="#3D3D3D"/>
<ellipse cx="1.54279" cy="3.64772" rx="1.54279" ry="3.64772" transform="matrix(0.773909 -0.633297 -0.633297 -0.773909 58.2793 67.623)" fill="#3D3D3D"/>
<ellipse cx="1.5002" cy="3.64772" rx="1.5002" ry="3.64772" transform="matrix(0.622492 -0.782626 -0.782626 -0.622492 62.2344 64.5059)" fill="#3D3D3D"/>
<ellipse cx="1.7367" cy="3.64772" rx="1.7367" ry="3.64772" transform="matrix(0.46111 -0.887343 -0.887343 -0.46111 64.25 60.3594)" fill="#3D3D3D"/>
<ellipse cx="1.54279" cy="3.64772" rx="1.54279" ry="3.64772" transform="matrix(0.241887 -0.970305 -0.970305 -0.241887 66.7598 55.5078)" fill="#3D3D3D"/>
<ellipse cx="1.29366" cy="3.64772" rx="1.29366" ry="3.64772" transform="matrix(0.0320126 -0.999487 -0.999487 -0.0320126 69.3184 50.0879)" fill="#3D3D3D"/>
<ellipse cx="1.29366" cy="3.64772" rx="1.29366" ry="3.64772" transform="matrix(-0.103252 -0.994655 -0.994655 0.103252 71.3574 45.3555)" fill="#3D3D3D"/>
<ellipse cx="1.29366" cy="3.64772" rx="1.29366" ry="3.64772" transform="matrix(-0.217321 -0.9761 -0.9761 0.217321 69.4902 41.4219)" fill="#3D3D3D"/>
<ellipse cx="1.29366" cy="3.64772" rx="1.29366" ry="3.64772" transform="matrix(-0.4387 -0.898634 -0.898634 0.4387 67.541 36)" fill="#3D3D3D"/>
<ellipse cx="1.73227" cy="3.64772" rx="1.73227" ry="3.64772" transform="matrix(-0.680503 -0.732746 -0.732746 0.680503 65.6719 31.8301)" fill="#3D3D3D"/>
<ellipse cx="1.7336" cy="3.25644" rx="1.7336" ry="3.25644" transform="matrix(-0.742542 -0.669799 -0.669799 0.742542 61.5879 28.6621)" fill="#3D3D3D"/>
<circle cx="11.2251" cy="11.2251" r="11.2251" transform="matrix(-1 0 0 1 56.3184 37.4199)" fill="#547629"/>
</svg>
