<svg width="56" height="225" viewBox="0 0 56 225" fill="none" xmlns="http://www.w3.org/2000/svg">
<path d="M19.2437 39.0728V29.842C18.0433 29.5477 16.9201 29.1968 15.9107 28.7966V93.3596C15.9107 95.2061 14.214 99.3989 8.70943 103.331C0.954014 108.87 2.06207 124.935 2.06207 130.474C2.06207 134.906 0.954098 188.085 0.400114 214.12C0.0308155 217.074 2.28353 223.205 14.2488 224.091C29.2054 225.199 55.7948 225.753 55.2408 214.12C54.7977 204.814 53.3943 145.246 53.579 114.964C53.579 111.64 52.4711 105.546 44.1619 100.007C42.5001 98.8991 39.6195 96.9048 39.1764 93.3596C38.7332 89.8143 39.0205 48.8404 39.2195 28.7966C38.3715 29.2096 37.4438 29.5567 36.4577 29.842C36.501 39.9994 38.0686 42.9504 28.6515 43.5043C21.1178 43.9475 19.2406 40.7346 19.2437 39.0728Z" fill="#3D3D3D"/>
<path d="M36.4144 23.0075C34.0142 23.5612 27.2198 24.3364 19.2437 23.0075V18.5767C16.4742 18.5767 11.6313 19.6846 10.9261 23.5622C10.5433 25.6666 12.6242 27.4934 15.9107 28.7966C16.9201 29.1968 18.0433 29.5477 19.2437 29.842C24.5199 31.1357 31.2894 31.3374 36.4577 29.842C37.4438 29.5567 38.3715 29.2096 39.2195 28.7966C40.0237 28.4049 40.7561 27.9538 41.3985 27.4399C48.0453 22.122 40.8456 19.6846 36.4144 18.5767V23.0075Z" fill="#3D3D3D"/>
<path d="M36.4144 1.95752C29.3246 -1.58774 22.0132 0.48033 19.2437 1.95752V18.5767V23.0075C27.2198 24.3364 34.0142 23.5612 36.4144 23.0075V18.5767V1.95752Z" fill="#547629"/>
<path d="M19.2437 29.842V39.0728C19.2406 40.7346 21.1178 43.9475 28.6515 43.5043C38.0686 42.9504 36.501 39.9994 36.4577 29.842C31.2894 31.3374 24.5199 31.1357 19.2437 29.842Z" fill="#547629"/>
<path d="M33.9617 155.491C34.2771 155.806 35.0971 156.437 35.854 156.437C36.8002 156.437 37.7463 155.491 34.9079 154.545C32.6371 153.788 33.331 154.86 33.9617 155.491Z" fill="#DFDFDF"/>
<path d="M33.9617 158.329C33.0156 159.275 33.0156 160.221 36.8002 160.221C38.0497 160.221 34.9079 157.383 33.9617 158.329Z" fill="#DFDFDF"/>
<path d="M37.7463 157.383C38.6602 156.975 40.5922 156.661 41.0094 158.664C41.5308 161.168 35.854 158.329 37.7463 157.383Z" fill="#DFDFDF"/>
<path fill-rule="evenodd" clip-rule="evenodd" d="M47.2077 164.952C41.5308 151.706 28.5277 149.445 23.1446 151.373C16.9313 153.598 10.3083 157.682 8.41602 167.791C9.17408 167.348 10.0759 166.892 11.1033 166.45C13.0629 165.608 15.4791 164.818 18.2251 164.269C20.3158 163.852 22.5977 163.574 25.0148 163.521C26.6957 163.483 28.4421 163.554 30.2351 163.762C32.0661 163.973 33.9458 164.327 35.854 164.854C37.5545 165.323 39.2777 165.928 41.0094 166.692C42.7084 167.441 44.4155 168.342 46.1174 169.416C46.7236 169.798 47.3292 170.202 47.9334 170.629C48.3521 169.111 48.189 167.242 47.2077 164.952ZM33.9617 158.329C33.0156 159.275 33.0156 160.221 36.8002 160.221C38.0497 160.221 34.9079 157.383 33.9617 158.329ZM37.7463 157.383C38.6602 156.975 40.5922 156.661 41.0094 158.664C41.5308 161.168 35.854 158.329 37.7463 157.383ZM35.854 156.437C35.0971 156.437 34.2771 155.806 33.9617 155.491C33.331 154.86 32.6371 153.788 34.9079 154.545C37.7463 155.491 36.8002 156.437 35.854 156.437Z" fill="#547629"/>
<path d="M35.854 164.854C35.0971 167.046 31.5297 171.989 29.8407 174.187C30.2177 174.458 30.5437 174.778 30.8244 175.127C33.5377 173.372 39.3733 169.229 41.0094 166.692C39.2777 165.928 37.5545 165.323 35.854 164.854Z" fill="#DFDFDF"/>
<path d="M41.0094 166.692C39.3733 169.229 33.5377 173.372 30.8244 175.127C31.0254 175.377 31.2032 175.642 31.3598 175.913C36.2309 174.655 46.002 171.595 46.1174 169.416C44.4155 168.342 42.7084 167.441 41.0094 166.692Z" fill="#909090"/>
<path d="M31.707 176.6C37.2407 177.018 46.4147 176.135 47.9334 170.629C47.3292 170.202 46.7236 169.798 46.1174 169.416C46.002 171.595 36.2309 174.655 31.3598 175.913C31.4897 176.139 31.6051 176.369 31.707 176.6Z" fill="#DFDFDF"/>
<path d="M30.2351 163.762C29.937 166.792 29.2352 173.009 28.8129 173.633C29.1915 173.778 29.533 173.966 29.8407 174.187C31.5297 171.989 35.0971 167.046 35.854 164.854C33.9458 164.327 32.0661 163.973 30.2351 163.762Z" fill="#909090"/>
<path d="M26.9463 173.401C27.3514 173.331 27.7969 173.345 28.2849 173.467C28.4684 173.513 28.6443 173.569 28.8129 173.633C29.2352 173.009 29.937 166.792 30.2351 163.762C28.4421 163.554 26.6957 163.483 25.0148 163.521C25.3989 166.667 26.323 173.047 26.9463 173.401Z" fill="#DFDFDF"/>
<path d="M18.2251 164.269C20.3163 167.476 24.7667 173.881 25.8394 173.844C26.169 173.627 26.5371 173.471 26.9463 173.401C26.323 173.047 25.3989 166.667 25.0148 163.521C22.5977 163.574 20.3158 163.852 18.2251 164.269Z" fill="#909090"/>
<path d="M11.1033 166.45C14.5567 169.023 22.1455 174.287 24.8741 174.764C25.1498 174.404 25.4705 174.086 25.8394 173.844C24.7667 173.881 20.3163 167.476 18.2251 164.269C15.4791 164.818 13.0629 165.608 11.1033 166.45Z" fill="#DFDFDF"/>
<path d="M8.41602 167.791C9.27478 170.315 13.6277 175.481 24.1695 175.95C24.3604 175.537 24.5941 175.129 24.8741 174.764C22.1455 174.287 14.5567 169.023 11.1033 166.45C10.0759 166.892 9.17408 167.348 8.41602 167.791Z" fill="#909090"/>
<path d="M30.0629 179.514C30.4473 179.322 31.4466 178.995 32.369 179.226C32.3273 178.556 32.1361 177.573 31.707 176.6C31.6051 176.369 31.4897 176.139 31.3598 175.913C31.2032 175.642 31.0254 175.377 30.8244 175.127C30.5437 174.778 30.2177 174.458 29.8407 174.187C29.533 173.966 29.1915 173.778 28.8129 173.633C28.6443 173.569 28.4684 173.513 28.2849 173.467C27.7969 173.345 27.3514 173.331 26.9463 173.401C26.5371 173.471 26.169 173.627 25.8394 173.844C25.4705 174.086 25.1498 174.404 24.8741 174.764C24.5941 175.129 24.3604 175.537 24.1695 175.95C23.8511 176.64 23.6516 177.346 23.5542 177.9C24.1126 177.786 24.6424 178.129 24.8741 178.361C26.0272 177.669 26.892 178.265 27.1803 178.649C28.7945 177.727 29.7746 178.841 30.0629 179.514Z" fill="#909090"/>
<path d="M23.1446 178.073C22.4527 178.534 19.3971 182.301 17.9558 184.126C17.3792 184.991 17.2062 186.49 21.1267 185.568C21.5543 184.481 22.9024 181.519 24.8741 178.361C24.6424 178.129 24.1126 177.786 23.5542 177.9C23.4181 177.927 23.2802 177.982 23.1446 178.073Z" fill="#547629"/>
<path d="M27.1803 178.649C26.892 178.265 26.0272 177.669 24.8741 178.361C22.9024 181.519 21.5543 184.481 21.1267 185.568C21.9915 186.048 24.0094 186.432 25.1625 184.126C25.4668 183.397 26.2966 181.281 27.1803 178.649Z" fill="#547629"/>
<path d="M30.0629 179.514C29.7746 178.841 28.7945 177.727 27.1803 178.649C26.2966 181.281 25.4668 183.397 25.1625 184.126C26.5077 185.472 29.6017 187.528 31.216 184.991C31.8162 184.346 30.6974 181.071 30.0629 179.514Z" fill="#547629"/>
<path d="M32.9456 186.432C33.8104 187.105 35.7129 188.335 36.4047 187.874C37.2695 187.297 33.5221 179.514 32.369 179.226C31.4466 178.995 30.4473 179.322 30.0629 179.514C30.6974 181.071 31.8162 184.346 31.216 184.991L32.9456 186.432Z" fill="#547629"/>
<path d="M21.1267 185.568C18.9166 192.39 16.5144 206.15 24.5858 206.611C32.6573 207.072 33.5221 193.351 32.9456 186.432L31.216 184.991C29.6017 187.528 26.5077 185.472 25.1625 184.126C24.0094 186.432 21.9915 186.048 21.1267 185.568Z" fill="#DFDFDF"/>
</svg>
