<svg width="74" height="300" viewBox="0 0 74 300" fill="none" xmlns="http://www.w3.org/2000/svg">
<path d="M25.9923 52.097V39.7893C24.3917 39.3969 22.8942 38.9291 21.5483 38.3954V124.479C21.5483 126.941 19.286 132.532 11.9466 137.774C1.606 145.16 3.08341 166.579 3.08341 173.965C3.08341 179.874 1.60611 250.779 0.867469 285.493C0.375072 289.433 3.3787 297.606 19.3324 298.788C39.2745 300.265 74.727 301.004 73.9884 285.493C73.3976 273.085 71.5264 193.661 71.7726 153.285C71.7726 148.853 70.2955 140.729 59.2165 133.343C57.0007 131.865 53.16 129.206 52.5691 124.479C51.9783 119.752 52.3613 65.1205 52.6267 38.3954C51.496 38.9462 50.259 39.4089 48.9443 39.7893C49.002 53.3325 51.0922 57.2672 38.536 58.0058C28.4911 58.5966 25.9881 54.3128 25.9923 52.097Z" fill="#3D3D3D"/>
<path d="M48.8866 30.6767C45.6863 31.4149 36.627 32.4485 25.9923 30.6767V24.7689C22.2996 24.7689 15.8423 26.2462 14.9021 31.4163C14.3918 34.2221 17.1662 36.6579 21.5483 38.3954C22.8942 38.9291 24.3917 39.3969 25.9923 39.7893C33.0272 41.5142 42.0531 41.7832 48.9443 39.7893C50.259 39.4089 51.496 38.9462 52.6267 38.3954C53.6989 37.8732 54.6755 37.2718 55.532 36.5865C64.3944 29.496 54.7948 26.2461 48.8866 24.7689V30.6767Z" fill="#3D3D3D"/>
<path d="M48.8866 2.61003C39.4334 -2.11699 29.6849 0.64044 25.9923 2.61003V24.7689V30.6767C36.627 32.4485 45.6863 31.4149 48.8866 30.6767V24.7689V2.61003Z" fill="#547629"/>
<path d="M25.9923 39.7893V52.097C25.9881 54.3128 28.4911 58.5966 38.536 58.0058C51.0922 57.2672 49.002 53.3325 48.9443 39.7893C42.0531 41.7832 33.0272 41.5142 25.9923 39.7893Z" fill="#547629"/>
<path d="M45.6176 207.321C46.0381 207.741 47.1314 208.582 48.1406 208.582C49.4022 208.582 50.6637 207.321 46.8791 206.059C43.8515 205.05 44.7766 206.48 45.6176 207.321Z" fill="#DFDFDF"/>
<path d="M45.6176 211.105C44.3561 212.367 44.3561 213.628 49.4022 213.628C51.0683 213.628 46.8791 209.844 45.6176 211.105Z" fill="#DFDFDF"/>
<path d="M50.6637 209.844C51.8822 209.3 54.4583 208.881 55.0145 211.552C55.7097 214.89 48.1406 211.105 50.6637 209.844Z" fill="#DFDFDF"/>
<path fill-rule="evenodd" clip-rule="evenodd" d="M63.2788 219.936C55.7097 202.275 38.3723 199.26 31.1947 201.831C22.9103 204.798 14.0797 210.242 11.5566 223.721C12.5674 223.13 13.7699 222.522 15.1397 221.933C17.7524 220.81 20.9741 219.757 24.6355 219.026C27.423 218.469 30.4655 218.099 33.6883 218.028C35.9296 217.978 38.2581 218.073 40.6487 218.349C43.0901 218.631 45.5964 219.103 48.1406 219.805C50.408 220.43 52.7056 221.238 55.0145 222.256C57.2798 223.255 59.5559 224.456 61.8251 225.887C62.6334 226.397 63.4408 226.936 64.2465 227.505C64.8048 225.482 64.5874 222.99 63.2788 219.936ZM45.6176 211.105C44.3561 212.367 44.3561 213.628 49.4022 213.628C51.0683 213.628 46.8791 209.844 45.6176 211.105ZM50.6637 209.844C51.8822 209.3 54.4583 208.881 55.0145 211.552C55.7097 214.89 48.1406 211.105 50.6637 209.844ZM48.1406 208.582C47.1314 208.582 46.0381 207.741 45.6176 207.321C44.7766 206.48 43.8515 205.05 46.8791 206.059C50.6637 207.321 49.4022 208.582 48.1406 208.582Z" fill="#547629"/>
<path d="M48.1406 219.805C47.1314 222.727 42.3749 229.319 40.1228 232.249C40.6255 232.611 41.0602 233.038 41.4344 233.503C45.0522 231.163 52.8331 225.638 55.0145 222.256C52.7056 221.238 50.408 220.43 48.1406 219.805Z" fill="#DFDFDF"/>
<path d="M55.0145 222.256C52.8331 225.638 45.0522 231.163 41.4344 233.503C41.7025 233.836 41.9396 234.189 42.1484 234.551C48.6432 232.874 61.6713 228.793 61.8251 225.887C59.5559 224.456 57.2798 223.255 55.0145 222.256Z" fill="#909090"/>
<path d="M42.6112 235.467C49.9896 236.024 62.2215 234.846 64.2465 227.505C63.4408 226.936 62.6334 226.397 61.8251 225.887C61.6713 228.793 48.6432 232.874 42.1484 234.551C42.3216 234.852 42.4754 235.159 42.6112 235.467Z" fill="#DFDFDF"/>
<path d="M40.6487 218.349C40.2513 222.39 39.3156 230.679 38.7524 231.511C39.2572 231.703 39.7127 231.955 40.1228 232.249C42.3749 229.319 47.1314 222.727 48.1406 219.805C45.5964 219.103 43.0901 218.631 40.6487 218.349Z" fill="#909090"/>
<path d="M36.2636 231.201C36.8039 231.108 37.3978 231.127 38.0485 231.29C38.2932 231.351 38.5277 231.425 38.7524 231.511C39.3156 230.679 40.2513 222.39 40.6487 218.349C38.2581 218.073 35.9296 217.978 33.6883 218.028C34.2005 222.222 35.4326 230.729 36.2636 231.201Z" fill="#DFDFDF"/>
<path d="M24.6355 219.026C27.4237 223.301 33.3576 231.841 34.7879 231.792C35.2273 231.503 35.7181 231.295 36.2636 231.201C35.4326 230.729 34.2005 222.222 33.6883 218.028C30.4655 218.099 27.423 218.469 24.6355 219.026Z" fill="#909090"/>
<path d="M15.1397 221.933C19.7442 225.364 29.8627 232.383 33.5008 233.019C33.8684 232.539 34.2959 232.115 34.7879 231.792C33.3576 231.841 27.4237 223.301 24.6355 219.026C20.9741 219.757 17.7524 220.81 15.1397 221.933Z" fill="#DFDFDF"/>
<path d="M11.5566 223.721C12.7017 227.087 18.5056 233.975 32.5613 234.6C32.8158 234.049 33.1274 233.506 33.5008 233.019C29.8627 232.383 19.7442 225.364 15.1397 221.933C13.7699 222.522 12.5674 223.13 11.5566 223.721Z" fill="#909090"/>
<path d="M40.4192 239.352C40.9316 239.096 42.2641 238.66 43.494 238.968C43.4384 238.074 43.1835 236.764 42.6112 235.467C42.4754 235.159 42.3216 234.852 42.1484 234.551C41.9396 234.189 41.7025 233.836 41.4344 233.503C41.0602 233.038 40.6255 232.611 40.1228 232.249C39.7127 231.955 39.2572 231.703 38.7524 231.511C38.5277 231.425 38.2932 231.351 38.0485 231.29C37.3978 231.127 36.8039 231.108 36.2636 231.201C35.7181 231.295 35.2273 231.503 34.7879 231.792C34.2959 232.115 33.8684 232.539 33.5008 233.019C33.1274 233.506 32.8158 234.049 32.5613 234.6C32.1367 235.52 31.8707 236.462 31.7409 237.199C32.4854 237.048 33.1918 237.506 33.5008 237.815C35.0382 236.892 36.1913 237.687 36.5756 238.199C38.728 236.969 40.0348 238.455 40.4192 239.352Z" fill="#909090"/>
<path d="M31.1947 237.43C30.2723 238.045 26.1981 243.068 24.2763 245.502C23.5076 246.655 23.2769 248.653 28.5042 247.423C29.0743 245.975 30.8719 242.025 33.5008 237.815C33.1918 237.506 32.4854 237.048 31.7409 237.199C31.5594 237.236 31.3756 237.31 31.1947 237.43Z" fill="#547629"/>
<path d="M36.5756 238.199C36.1913 237.687 35.0382 236.892 33.5008 237.815C30.8719 242.025 29.0743 245.975 28.5042 247.423C29.6573 248.064 32.3478 248.577 33.8852 245.502C34.2911 244.53 35.3974 241.708 36.5756 238.199Z" fill="#547629"/>
<path d="M40.4192 239.352C40.0348 238.455 38.728 236.969 36.5756 238.199C35.3974 241.708 34.2911 244.53 33.8852 245.502C35.6789 247.295 39.8043 250.037 41.9566 246.655C42.7569 245.795 41.2651 241.428 40.4192 239.352Z" fill="#547629"/>
<path d="M44.2627 248.577C45.4158 249.473 47.9525 251.113 48.8749 250.498C50.028 249.73 45.0314 239.352 43.494 238.968C42.2641 238.66 40.9316 239.096 40.4192 239.352C41.2651 241.428 42.7569 245.795 41.9566 246.655L44.2627 248.577Z" fill="#547629"/>
<path d="M28.5042 247.423C25.5575 256.52 22.3545 274.866 33.1164 275.481C43.8783 276.096 45.0314 257.801 44.2627 248.577L41.9566 246.655C39.8043 250.037 35.6789 247.295 33.8852 245.502C32.3478 248.577 29.6573 248.064 28.5042 247.423Z" fill="#DFDFDF"/>
</svg>
