<svg width="280" height="277" viewBox="0 0 280 277" fill="none" xmlns="http://www.w3.org/2000/svg">
<path d="M222.827 36.9798C205.62 -20.9529 174.627 2.86679 161.281 22.0183C128.929 -9.91307 103.018 3.17514 94.1062 13.7107C62.1651 -13.3077 45.9124 16.7027 41.7788 35.0852C-2.64493 36.3194 -2.5726 59.4015 3.01653 70.7882C20.8336 106.407 39.6134 89.3786 46.7761 76.4122C75.5451 109.88 91.259 72.1839 95.5199 49.1525C114.152 64.9132 135.271 56.1414 143.501 49.7854C107.578 78.7579 126.408 98.1097 140.312 104.164C99.7814 122.389 109.612 143.832 119.593 152.275C109.052 159.34 91.8318 171.6 84.5395 176.847C61.4095 196.094 95.1239 217.192 114.872 225.335C66.437 242.108 86.0817 264.995 101.958 274.341C156.109 285.9 151.726 246.996 142.766 226.099C196.406 246.359 176.539 198.543 159.901 172.102C215.482 171.173 195.592 136.656 178.7 119.513C205.928 119.714 209.403 92.2129 207.737 78.4374C211.735 111.499 232.097 117.117 241.778 115.794C229.84 133.282 215.507 167.77 253.687 165.82C291.866 163.87 279.568 123.977 268.646 104.275C291.055 61.5878 247.437 41.6252 222.827 36.9798Z" fill="#909090"/>
</svg>
