<svg width="210" height="208" viewBox="0 0 210 208" fill="none" xmlns="http://www.w3.org/2000/svg">
<path d="M167.372 27.7339C154.466 -15.7157 131.221 2.14912 121.212 16.5127C96.9479 -7.43579 77.5144 2.38038 70.8306 10.282C46.8748 -9.98176 34.6853 12.5261 31.585 26.313C-1.73274 27.2386 -1.67849 44.5501 2.51338 53.0902C15.8762 79.804 29.961 67.033 35.333 57.3082C56.9098 82.4089 68.6952 54.137 71.8909 36.8634C85.8651 48.6839 101.704 42.1051 107.877 37.3381C80.9347 59.0674 95.0566 73.5813 105.485 78.122C75.087 91.7911 82.4598 107.873 89.946 114.206C82.0398 119.504 69.1248 128.699 63.6556 132.634C46.3081 147.069 71.5939 162.893 86.4053 169C50.0788 181.58 64.8122 198.745 76.7198 205.755C117.333 214.424 114.045 185.246 107.325 169.573C147.555 184.768 132.655 148.906 120.177 129.076C161.863 128.379 146.945 102.491 134.276 89.6337C154.697 89.7844 157.303 69.1587 156.054 58.827C159.052 83.6231 174.324 87.8369 181.585 86.8443C172.631 99.9602 161.881 125.826 190.516 124.364C219.151 122.901 209.927 92.9818 201.735 78.2049C218.542 46.1899 185.829 31.218 167.372 27.7339Z" fill="#909090"/>
</svg>
