<svg width="520" height="329" viewBox="0 0 520 329" fill="none" xmlns="http://www.w3.org/2000/svg">
<path d="M18.3399 135.399C14.0249 119.988 21.5767 102.376 26.9706 74.8563C30.051 59.1399 23.7344 44.0346 14.0249 36.3292C11.148 51.74 11.2199 87.4052 34.5228 106.779C42.0747 77.0579 48.1161 16.7354 11.8672 13.2129C13.3056 29.3576 33.4439 56.5835 102.49 36.3292C92.0608 26.7891 63.8672 9.69041 34.5228 17.616C39.5574 26.0553 59.3361 38.5307 98.1742 20.9183C113.278 15.4144 114.357 18.7168 125.145 19.8175" stroke="#3D3D3D" stroke-width="3"/>
<path d="M17.2617 192.638C12.9467 208.049 20.4986 225.661 25.8924 253.181C28.9729 268.897 22.6563 284.002 12.9467 291.708C10.0698 276.297 10.1418 240.632 33.4447 221.258C40.9965 250.979 47.038 311.302 10.7891 314.824C12.2275 298.68 32.3658 271.454 101.411 291.708C90.9827 301.248 62.7891 318.347 33.4447 310.421C38.4792 301.982 58.2579 289.506 97.0961 307.119C112.2 312.623 113.279 309.32 124.067 308.22" stroke="#3D3D3D" stroke-width="3"/>
<path d="M501.66 192.638C505.975 208.049 498.423 225.661 493.029 253.181C489.949 268.897 496.266 284.002 505.975 291.708C508.852 276.297 508.78 240.632 485.477 221.258C477.925 250.979 471.884 311.302 508.133 314.824C506.694 298.68 486.556 271.454 417.51 291.708C427.939 301.248 456.133 318.347 485.477 310.421C480.443 301.982 460.664 289.506 421.826 307.119C406.722 312.623 405.643 309.32 394.855 308.22" stroke="#3D3D3D" stroke-width="3"/>
<path d="M501.66 136.501C505.975 121.09 498.423 103.477 493.029 75.9579C489.949 60.2415 496.266 45.1362 505.975 37.4307C508.852 52.8416 508.78 88.5067 485.477 107.88C477.925 78.1595 471.884 17.8369 508.133 14.3145C506.694 30.4592 486.556 57.685 417.51 37.4307C427.939 27.8907 456.133 10.792 485.477 18.7176C480.443 27.1568 460.664 39.6323 421.826 22.0199C406.722 16.516 405.643 19.8183 394.855 20.9191" stroke="#3D3D3D" stroke-width="3"/>
<path d="M110.041 298.312H409.958" stroke="#3D3D3D" stroke-width="3"/>
<path d="M159.67 307.119H359.255" stroke="#3D3D3D" stroke-width="3"/>
<path d="M25.8926 106.777V221.258" stroke="#3D3D3D" stroke-width="3"/>
<path d="M494.107 106.777V221.258" stroke="#3D3D3D" stroke-width="3"/>
<rect x="1.5" y="1.5" width="517" height="325.031" stroke="#3D3D3D" stroke-width="3"/>
</svg>
