<svg width="390" height="247" viewBox="0 0 390 247" fill="none" xmlns="http://www.w3.org/2000/svg">
<path d="M13.7549 102.05C10.5187 90.4916 16.1825 77.2823 20.2279 56.6427C22.5382 44.8554 17.8008 33.5264 10.5187 27.7474C8.36097 39.3055 8.41492 66.0544 25.8921 80.5846C31.556 58.2939 36.0871 13.052 8.90039 10.4102C9.97923 22.5187 25.083 42.9381 76.8672 27.7474C69.0456 20.5923 47.9004 7.76829 25.8921 13.7125C29.668 20.0419 44.502 29.3985 73.6307 16.1892C84.9585 12.0613 85.7676 14.5381 93.8589 15.3636" stroke="#3D3D3D" stroke-width="2"/>
<path d="M12.9463 144.98C9.71006 156.538 15.374 169.747 19.4193 190.387C21.7297 202.174 16.9922 213.503 9.71006 219.282C7.55238 207.724 7.60632 180.975 25.0835 166.445C30.7474 188.735 35.2785 233.977 8.0918 236.619C9.17063 224.511 24.2744 204.091 76.0586 219.282C68.237 226.437 47.0918 239.261 25.0835 233.317C28.8594 226.987 43.6935 217.631 72.8221 230.84C84.1499 234.968 84.959 232.491 93.0503 231.666" stroke="#3D3D3D" stroke-width="2"/>
<path d="M376.245 144.98C379.481 156.538 373.817 169.747 369.772 190.387C367.462 202.174 372.199 213.503 379.481 219.282C381.639 207.724 381.585 180.975 364.108 166.445C358.444 188.735 353.913 233.977 381.1 236.619C380.021 224.511 364.917 204.091 313.133 219.282C320.954 226.437 342.1 239.261 364.108 233.317C360.332 226.987 345.498 217.631 316.369 230.84C305.042 234.968 304.232 232.491 296.141 231.666" stroke="#3D3D3D" stroke-width="2"/>
<path d="M376.245 102.876C379.481 91.3178 373.817 78.1085 369.772 57.4689C367.462 45.6816 372.199 34.3526 379.481 28.5735C381.639 40.1317 381.585 66.8805 364.108 81.4108C358.444 59.1201 353.913 13.8782 381.1 11.2363C380.021 23.3449 364.917 43.7643 313.133 28.5735C320.954 21.4185 342.1 8.59447 364.108 14.5387C360.332 20.8681 345.498 30.2247 316.369 17.0154C305.042 12.8875 304.232 15.3642 296.141 16.1898" stroke="#3D3D3D" stroke-width="2"/>
<path d="M82.5312 224.234H307.469" stroke="#3D3D3D" stroke-width="2"/>
<path d="M119.752 230.84H269.441" stroke="#3D3D3D" stroke-width="2"/>
<path d="M19.4219 80.584V166.445" stroke="#3D3D3D" stroke-width="2"/>
<path d="M370.578 80.584V166.445" stroke="#3D3D3D" stroke-width="2"/>
<rect x="1" y="1.5" width="388" height="244.023" stroke="#3D3D3D" stroke-width="2"/>
</svg>
