<svg width="144" height="89" viewBox="0 0 144 89" fill="none" xmlns="http://www.w3.org/2000/svg">
<path d="M32.0827 72.6398C30.5121 74.4598 25.5385 75.5648 23.248 75.8898C28.3525 76.6698 30.4466 77.3522 32.0827 78.9772C34.0459 80.9272 34.9185 85.5314 35.3548 88.0772C35.5184 85.8563 36.3691 80.9272 38.4632 78.9772C40.5574 77.0272 45.2255 76.1064 47.2979 75.8898C45.171 76.0523 39.9447 74.1113 38.4632 72.6398C36.5 70.6898 35.682 66.5732 35.1912 64.0273C34.8639 66.1398 34.0459 70.3648 32.0827 72.6398Z" fill="#547629"/>
<path d="M118.835 68.6124C117.264 70.4324 112.29 71.5374 110 71.8624C115.104 72.6424 117.199 73.3249 118.835 74.9499C120.798 76.8999 121.67 81.504 122.107 84.0498C122.27 81.829 123.121 76.8999 125.215 74.9499C127.309 72.9999 131.978 72.0791 134.05 71.8624C131.923 72.0249 126.697 70.0839 125.215 68.6124C123.252 66.6625 122.434 62.5458 121.943 60C121.616 62.1125 120.798 66.3375 118.835 68.6124Z" fill="#547629"/>
<path d="M121.835 22.6124C120.264 24.4324 115.29 25.5374 113 25.8624C118.104 26.6424 120.199 27.3249 121.835 28.9499C123.798 30.8999 124.67 35.504 125.107 38.0498C125.27 35.829 126.121 30.8999 128.215 28.9499C130.309 26.9999 134.978 26.0791 137.05 25.8624C134.923 26.0249 129.697 24.0839 128.215 22.6124C126.252 20.6625 125.434 16.5458 124.943 14C124.616 16.1125 123.798 20.3375 121.835 22.6124Z" fill="#547629"/>
<path d="M14.8346 22.6124C13.264 24.4324 8.29046 25.5374 6 25.8624C11.1045 26.6424 13.1986 27.3249 14.8346 28.9499C16.7979 30.8999 17.6704 35.504 18.1067 38.0498C18.2703 35.829 19.1211 30.8999 21.2152 28.9499C23.3093 26.9999 27.9775 26.0791 30.0498 25.8624C27.923 26.0249 22.6967 24.0839 21.2152 22.6124C19.2519 20.6625 18.4339 16.5458 17.9431 14C17.6159 16.1125 16.7979 20.3375 14.8346 22.6124Z" fill="#547629"/>
<path d="M4.10496 54.3352C3.37519 55.2513 1.06425 55.8075 0 55.9711C2.37175 56.3637 3.34478 56.7073 4.10496 57.5252C5.01717 58.5068 5.4226 60.8243 5.62531 62.1058C5.70133 60.9879 6.09662 58.5068 7.06965 57.5252C8.04267 56.5437 10.2117 56.0802 11.1746 55.9711C10.1864 56.0529 7.75802 55.0759 7.06965 54.3352C6.15743 53.3536 5.77735 51.2815 5.54929 50C5.39726 51.0633 5.01717 53.19 4.10496 54.3352Z" fill="#547629"/>
<path d="M135.447 45.3352C134.656 46.2513 132.153 46.8075 131 46.9711C133.569 47.3637 134.624 47.7073 135.447 48.5252C136.435 49.5068 136.874 51.8243 137.094 53.1058C137.176 51.9879 137.605 49.5068 138.659 48.5252C139.713 47.5437 142.063 47.0802 143.106 46.9711C142.035 47.0529 139.405 46.0759 138.659 45.3352C137.671 44.3536 137.259 42.2815 137.012 41C136.847 42.0633 136.435 44.19 135.447 45.3352Z" fill="#547629"/>
<path d="M82.6384 80.468C81.8479 81.3841 79.3443 81.9403 78.1914 82.1039C80.7608 82.4965 81.8149 82.8401 82.6384 83.6581C83.6267 84.6396 84.0659 86.9572 84.2855 88.2386C84.3678 87.1208 84.7961 84.6396 85.8502 83.6581C86.9043 82.6765 89.2541 82.213 90.2972 82.1039C89.2266 82.1857 86.5959 81.2087 85.8502 80.468C84.862 79.4865 84.4502 77.4143 84.2031 76.1328C84.0384 77.1962 83.6267 79.3229 82.6384 80.468Z" fill="#547629"/>
<path d="M45.447 4.33519C44.6565 5.25131 42.1529 5.80752 41 5.97111C43.5694 6.36374 44.6235 6.70728 45.447 7.52524C46.4353 8.50679 46.8745 10.8243 47.0941 12.1058C47.1764 10.9879 47.6047 8.50679 48.6588 7.52524C49.7129 6.54369 52.0627 6.08018 53.1058 5.97111C52.0352 6.05291 49.4045 5.07589 48.6588 4.33519C47.6706 3.35364 47.2588 1.28147 47.0117 0C46.847 1.06335 46.4353 3.19005 45.447 4.33519Z" fill="#547629"/>
<path d="M47.447 42.3352C46.6565 43.2513 44.1529 43.8075 43 43.9711C45.5694 44.3637 46.6235 44.7073 47.447 45.5252C48.4353 46.5068 48.8745 48.8243 49.0941 50.1058C49.1764 48.9879 49.6047 46.5068 50.6588 45.5252C51.7129 44.5437 54.0627 44.0802 55.1058 43.9711C54.0352 44.0529 51.4045 43.0759 50.6588 42.3352C49.6706 41.3536 49.2588 39.2815 49.0117 38C48.847 39.0633 48.4353 41.19 47.447 42.3352Z" fill="#547629"/>
<path d="M79.447 33.3352C78.6565 34.2513 76.1529 34.8075 75 34.9711C77.5694 35.3637 78.6235 35.7073 79.447 36.5252C80.4353 37.5068 80.8745 39.8243 81.0941 41.1058C81.1764 39.9879 81.6047 37.5068 82.6588 36.5252C83.7129 35.5437 86.0627 35.0802 87.1058 34.9711C86.0352 35.0529 83.4045 34.0759 82.6588 33.3352C81.6706 32.3536 81.2588 30.2815 81.0117 29C80.847 30.0633 80.4353 32.19 79.447 33.3352Z" fill="#547629"/>
<path d="M94.447 10.3352C93.6565 11.2513 91.1529 11.8075 90 11.9711C92.5694 12.3637 93.6235 12.7073 94.447 13.5252C95.4353 14.5068 95.8745 16.8243 96.0941 18.1058C96.1764 16.9879 96.6047 14.5068 97.6588 13.5252C98.7129 12.5437 101.063 12.0802 102.106 11.9711C101.035 12.0529 98.4045 11.0759 97.6588 10.3352C96.6706 9.35364 96.2588 7.28147 96.0117 6C95.847 7.06335 95.4353 9.19005 94.447 10.3352Z" fill="#547629"/>
<path d="M99.447 48.3352C98.6565 49.2513 96.1529 49.8075 95 49.9711C97.5694 50.3637 98.6235 50.7073 99.447 51.5252C100.435 52.5068 100.874 54.8243 101.094 56.1058C101.176 54.9879 101.605 52.5068 102.659 51.5252C103.713 50.5437 106.063 50.0802 107.106 49.9711C106.035 50.0529 103.405 49.0759 102.659 48.3352C101.671 47.3536 101.259 45.2815 101.012 44C100.847 45.0633 100.435 47.19 99.447 48.3352Z" fill="#547629"/>
</svg>
