<svg width="223" height="232" viewBox="0 0 223 232" fill="none" xmlns="http://www.w3.org/2000/svg">
<path d="M111.11 14.226C129.241 6.3045 130.803 48.8862 129.317 71.1673C142.947 56.6702 173.578 31.5714 187.057 47.1524C200.536 62.7335 162.374 93.2659 141.607 106.584C168.52 105.945 219.428 111.248 207.761 137.573C196.095 163.898 153.215 138.358 130.784 129.357C146.039 150.389 176.525 197.493 154.908 207.822C115.959 226.431 121.667 161.24 108.919 133.451C107.207 154.518 109.497 198.975 85.9014 201.885C62.306 204.794 83.977 151.324 83.8678 130.599C70.6539 150.676 40.4467 184.748 25.3297 160.421C10.2128 136.094 45.3816 116.432 64.8556 109.642C44.0554 105.993 5.25705 95.5305 16.4651 82.8702C27.6732 70.2099 52.6403 77.9821 63.7229 83.4508C53.3637 68.4166 21.051 46.9325 40.7321 31.1768C60.4131 15.4211 86.4292 50.2801 96.9772 69.6791C97.8917 54.4201 92.9797 22.1476 111.11 14.226Z" fill="#3D3D3D"/>
<path d="M118.379 103.388C127.125 101.751 127.792 106.655 127.032 109.312C126.766 111.248 124.411 115.46 117.123 116.825C108.013 118.531 107.446 105.436 118.379 103.388Z" fill="#547629"/>
<path d="M113.357 94.9C117.025 94.2132 117.443 97.0088 117.193 98.4924C117.134 99.5813 116.25 101.902 113.194 102.474C109.374 103.19 108.773 95.7584 113.357 94.9Z" fill="#547629"/>
<path d="M107.661 107.961C104.211 109.381 103.232 106.729 103.174 105.226C103.011 104.147 103.403 101.695 106.278 100.513C109.872 99.034 111.974 106.187 107.661 107.961Z" fill="#547629"/>
<path d="M101.364 95.4548C99.1049 92.4858 101.415 90.8576 102.853 90.4147C103.853 89.9793 106.323 89.7272 108.206 92.2014C110.56 95.294 104.189 99.166 101.364 95.4548Z" fill="#547629"/>
<path d="M88.8901 93.8755C85.5692 89.5118 88.9652 87.1187 91.0783 86.4677C92.5478 85.8278 96.1788 85.4573 98.9462 89.0937C102.405 93.6392 93.0412 99.3301 88.8901 93.8755Z" fill="#547629"/>
<path d="M102.31 102.004C102.773 105.706 99.9572 105.953 98.4915 105.614C97.4083 105.488 95.1454 104.466 94.7599 101.381C94.278 97.5241 101.732 97.3759 102.31 102.004Z" fill="#547629"/>
</svg>
