<svg width="520" height="842" viewBox="0 0 520 842" fill="none" xmlns="http://www.w3.org/2000/svg">
<rect x="520" width="842" height="520" rx="20" transform="rotate(90 520 0)" fill="#547629"/>
<path d="M28.6988 68.8429C63.8273 67.3645 74.4469 45.4688 75.7112 27.7671C76.1515 21.6021 80.8279 16 87.0086 16H181.8C187.323 16 191.8 20.4771 191.8 26V58.6897C191.8 64.2125 196.277 68.6897 201.8 68.6897H316C321.523 68.6897 326 64.2125 326 58.6897V26C326 20.4772 330.477 16 336 16H432.991C439.172 16 443.848 21.6021 444.289 27.7671C445.553 45.4688 456.173 67.3645 491.301 68.8429C497.077 69.086 502 73.588 502 79.3692V716.631C502 722.412 497.077 726.914 491.301 727.157C456.173 728.635 445.553 750.531 444.289 768.233C443.848 774.398 439.172 780 432.991 780H87.0087C80.8279 780 76.1516 774.398 75.7113 768.233C74.4469 750.531 63.8273 728.635 28.6988 727.157C22.9227 726.914 18 722.412 18 716.631V79.3692C18 73.588 22.9227 69.086 28.6988 68.8429Z" fill="#DFDFDF"/>
<path d="M48.1689 33.2653C44.6122 30.1959 42.4527 20.4762 41.8176 16C40.2932 25.9755 38.9595 30.068 35.7838 33.2653C31.973 37.102 22.9752 38.8073 18 39.6599C22.3401 39.9796 31.973 41.6422 35.7838 45.7347C39.5946 49.8272 41.3941 58.9501 41.8176 63C41.5 58.8435 45.2932 48.63 48.1689 45.7347C51.9797 41.898 60.0248 40.2993 65 39.3401C60.8716 38.7007 52.6149 37.102 48.1689 33.2653Z" fill="#DFDFDF"/>
<path d="M485.169 33.2653C481.612 30.1959 479.453 20.4762 478.818 16C477.293 25.9755 475.959 30.068 472.784 33.2653C468.973 37.102 459.975 38.8073 455 39.6599C459.34 39.9796 468.973 41.6422 472.784 45.7347C476.595 49.8272 478.394 58.9501 478.818 63C478.5 58.8435 482.293 48.63 485.169 45.7347C488.98 41.898 497.025 40.2993 502 39.3401C497.872 38.7007 489.615 37.102 485.169 33.2653Z" fill="#DFDFDF"/>
<path d="M485.169 750.265C481.612 747.196 479.453 737.476 478.818 733C477.293 742.976 475.959 747.068 472.784 750.265C468.973 754.102 459.975 755.807 455 756.66C459.34 756.98 468.973 758.642 472.784 762.735C476.595 766.827 478.394 775.95 478.818 780C478.5 775.844 482.293 765.63 485.169 762.735C488.98 758.898 497.025 757.299 502 756.34C497.872 755.701 489.615 754.102 485.169 750.265Z" fill="#DFDFDF"/>
<path d="M48.1689 750.265C44.6122 747.196 42.4527 737.476 41.8176 733C40.2932 742.976 38.9595 747.068 35.7838 750.265C31.973 754.102 22.9752 755.807 18 756.66C22.3401 756.98 31.973 758.642 35.7838 762.735C39.5946 766.827 41.3941 775.95 41.8176 780C41.5 775.844 45.2932 765.63 48.1689 762.735C51.9797 758.898 60.0248 757.299 65 756.34C60.8716 755.701 52.6149 754.102 48.1689 750.265Z" fill="#DFDFDF"/>
</svg>
