<svg width="2133" height="1010" viewBox="0 0 2133 1010" fill="none" xmlns="http://www.w3.org/2000/svg">
<path d="M128.863 330.639C143.779 327.523 173.906 314.402 175.087 286.842C176.268 259.282 144.763 304.557 128.863 330.639Z" fill="#3D3D3D"/>
<path d="M133.486 369.383C120.167 364.173 91.9802 348.026 85.7832 325.12C79.5863 302.214 115.003 345.085 133.486 369.383Z" fill="#3D3D3D"/>
<path d="M125.627 232.953C124.883 253.357 125.174 290.494 128.863 330.639M128.863 330.639C143.779 327.523 173.906 314.402 175.087 286.842C176.268 259.282 144.763 304.557 128.863 330.639ZM128.863 330.639C130.036 343.397 131.552 356.458 133.486 369.383M133.486 369.383C136.225 387.678 139.803 405.7 144.436 422.2C151.603 446.366 170.59 487.874 170.59 492.139M133.486 369.383C120.167 364.173 91.9802 348.026 85.7832 325.12C79.5863 302.214 115.003 345.085 133.486 369.383Z" stroke="#3D3D3D" stroke-width="1.99713"/>
<path fill-rule="evenodd" clip-rule="evenodd" d="M75.8617 141.461C73.3992 139.366 71.039 137.135 69.0631 134.577C55.8805 117.505 43.8782 90.5365 84.1514 95.1884C138.391 101.453 79.3194 70.026 101.715 60.8066C124.11 51.5872 145.573 56.4476 145.545 103.073C145.517 149.699 168.066 75.4053 183.654 64.3186C198.895 53.4792 248.059 55.5864 228.632 118.127C221.927 136.666 202.747 171.985 179.669 164.954C150.822 156.166 204.888 188.24 208.273 194.748C214.037 205.831 197.621 251.754 106.462 225.847C100.057 224.396 92.9157 215.545 109.393 191.853C113.613 185.786 118.759 174.469 111.417 175.323C110.049 175.483 108.352 175.977 106.261 176.913C92.8695 182.906 69.7857 208.653 61.7138 174.347C55.2562 146.902 72.8827 145.993 82.5031 148.969C83.9321 149.514 84.2421 148.59 75.8617 141.461ZM132.111 179.006C117.15 178.997 107.666 144.137 116.684 117.598C119.924 103.289 170.221 140.251 170.909 147.176C171.597 154.101 155.424 179.02 132.111 179.006Z" fill="#DFDFDF"/>
<path d="M116.684 117.598C107.666 144.137 117.15 178.997 132.111 179.006C155.424 179.02 171.597 154.101 170.909 147.176C170.221 140.251 119.924 103.289 116.684 117.598Z" fill="#3D3D3D"/>
<path fill-rule="evenodd" clip-rule="evenodd" d="M77.9288 79.4886C91.9377 79.7102 80.6268 45.6518 95.0332 40.4901C113.041 34.038 127.336 60.5911 160.14 15.37C168.011 6.57094 187.522 -0.650871 205.89 35.3644C208.461 40.4072 211.097 45.8242 216.123 48.4298C221.574 51.2563 230.227 52.6751 245.062 48.8908C270.051 45.3304 268.63 84.3131 248.489 106.829C234.4 121.439 213.744 155.973 243.83 177.227C268.902 194.938 224.119 250.985 171.311 245.044C164.233 244.194 152.661 245.033 162.995 255.195C175.387 267.381 92.196 289.066 80.3333 239.875C79.2872 235.537 80.1895 229.295 75.8779 228.145C73.6873 227.562 70.2256 227.87 64.9116 229.976C49.2119 236.199 16.9091 216.098 39.5479 185.874C40.9339 184.182 42.7881 171.565 31.9346 179.637C18.9051 189.328 -11.437 141.987 55.9641 139.951C60.6573 140.261 66.9983 138.388 54.817 128.409C39.5903 115.935 17.2233 78.5283 77.9288 79.4886ZM84.1514 95.1884C43.8782 90.5365 55.8805 117.505 69.0631 134.577C71.039 137.135 73.3992 139.366 75.8617 141.461C84.2421 148.59 83.9321 149.514 82.5031 148.969C72.8827 145.993 55.2562 146.902 61.7138 174.347C69.7857 208.653 92.8695 182.906 106.261 176.913C108.352 175.977 110.049 175.483 111.417 175.323C118.759 174.469 113.613 185.786 109.393 191.853C92.9157 215.545 100.057 224.396 106.462 225.847C197.621 251.754 214.037 205.831 208.273 194.748C204.888 188.24 150.822 156.166 179.669 164.954C202.747 171.985 221.927 136.666 228.632 118.127C248.059 55.5864 198.895 53.4792 183.654 64.3186C168.066 75.4053 145.517 149.699 145.545 103.073C145.573 56.4476 124.11 51.5872 101.715 60.8066C79.3194 70.026 138.391 101.453 84.1514 95.1884Z" fill="#909090"/>
<path d="M136.327 177.512C131.4 182.664 123.251 196.062 130.076 208.438" stroke="#3D3D3D" stroke-width="1.99713"/>
<path d="M147.637 174.051L149.702 194.826" stroke="#3D3D3D" stroke-width="1.99713"/>
<path d="M153.875 166.445C163.567 170.144 182.026 182.297 178.321 201.314" stroke="#3D3D3D" stroke-width="1.99713"/>
<path d="M120.871 162.728C114.252 166.494 97.6443 172.962 84.1669 168.707" stroke="#3D3D3D" stroke-width="1.99713"/>
<path d="M117.642 153.729L94.788 158.332" stroke="#3D3D3D" stroke-width="1.99713"/>
<path d="M113.729 137.792C103.65 138.017 81.7388 134.91 74.7305 120.688" stroke="#3D3D3D" stroke-width="1.99713"/>
<path d="M117.199 125.793C112.817 120.789 102.205 110.965 94.8184 111.699" stroke="#3D3D3D" stroke-width="1.99713"/>
<path d="M128.283 120.031C130.367 109.722 132.32 85.595 124.383 80.7891" stroke="#3D3D3D" stroke-width="1.99713"/>
<path d="M165.658 144.295C177.816 141.532 202.319 133.192 203.064 121.928" stroke="#3D3D3D" stroke-width="1.99713"/>
<path d="M186.163 96.0594C184.818 97.6035 183.019 100.603 186.579 100.249C191.029 99.8071 188.439 93.7203 186.163 96.0594Z" fill="#3D3D3D" stroke="#3D3D3D" stroke-width="1.99713"/>
<path d="M123.852 78.9383C122.507 80.4824 120.708 83.4822 124.268 83.1284C128.719 82.686 126.129 76.5992 123.852 78.9383Z" fill="#3D3D3D" stroke="#3D3D3D" stroke-width="1.99713"/>
<path d="M96.2285 110.393C94.2439 109.889 90.7551 109.636 92.6765 112.654C95.0782 116.427 99.3429 111.37 96.2285 110.393Z" fill="#3D3D3D" stroke="#3D3D3D" stroke-width="1.99713"/>
<path d="M71.3687 120.23C73.1608 121.22 76.4716 122.349 75.3777 118.943C74.0104 114.685 68.6035 118.496 71.3687 120.23Z" fill="#3D3D3D" stroke="#3D3D3D" stroke-width="1.99713"/>
<path d="M94.1902 157.126C93.3895 159.01 92.607 162.42 95.883 160.981C99.9779 159.183 95.6311 154.197 94.1902 157.126Z" fill="#3D3D3D" stroke="#3D3D3D" stroke-width="1.99713"/>
<path d="M81.9467 171.316C83.9176 170.761 87.0662 169.237 83.894 167.582C79.9287 165.514 78.7607 172.025 81.9467 171.316Z" fill="#3D3D3D" stroke="#3D3D3D" stroke-width="1.99713"/>
<path d="M126.597 207.021C127.587 208.814 129.788 211.532 130.676 208.067C131.787 203.735 125.181 204.08 126.597 207.021Z" fill="#3D3D3D" stroke="#3D3D3D" stroke-width="1.99713"/>
<path d="M149.687 197.194C151.7 196.817 154.972 195.58 151.959 193.649C148.194 191.236 146.451 197.617 149.687 197.194Z" fill="#3D3D3D" stroke="#3D3D3D" stroke-width="1.99713"/>
<path d="M181.231 201.772C179.8 200.308 176.954 198.274 177.021 201.851C177.105 206.323 183.38 204.229 181.231 201.772Z" fill="#3D3D3D" stroke="#3D3D3D" stroke-width="1.99713"/>
<path d="M204.502 121.325C205.01 119.341 205.269 115.853 202.247 117.769C198.471 120.164 203.52 124.437 204.502 121.325Z" fill="#3D3D3D" stroke="#3D3D3D" stroke-width="1.99713"/>
<path d="M173.601 122.896C174.916 124.466 177.598 126.712 177.804 123.14C178.063 118.675 171.646 120.282 173.601 122.896Z" fill="#3D3D3D" stroke="#3D3D3D" stroke-width="1.99713"/>
<path d="M155.001 132.031C161.701 121.264 177.463 98.8279 186.697 97.9102M160.359 137.826L175.141 122.37" stroke="#3D3D3D" stroke-width="1.99713"/>
<path d="M433.496 330.639C448.412 327.523 478.538 314.402 479.72 286.842C480.901 259.282 449.396 304.557 433.496 330.639Z" fill="#3D3D3D"/>
<path d="M438.119 369.383C424.8 364.173 396.613 348.026 390.416 325.12C384.219 302.214 419.636 345.085 438.119 369.383Z" fill="#3D3D3D"/>
<path d="M430.26 232.953C429.515 253.357 429.807 290.494 433.496 330.639M433.496 330.639C448.412 327.523 478.538 314.402 479.72 286.842C480.901 259.282 449.396 304.557 433.496 330.639ZM433.496 330.639C434.669 343.397 436.184 356.458 438.119 369.383M438.119 369.383C440.858 387.678 444.436 405.7 449.069 422.2C456.236 446.366 475.223 487.874 475.223 492.139M438.119 369.383C424.8 364.173 396.613 348.026 390.416 325.12C384.219 302.214 419.636 345.085 438.119 369.383Z" stroke="#3D3D3D" stroke-width="1.99713"/>
<path fill-rule="evenodd" clip-rule="evenodd" d="M380.495 141.461C378.032 139.366 375.672 137.135 373.696 134.577C360.513 117.505 348.511 90.5365 388.784 95.1883C443.023 101.453 383.952 70.026 406.348 60.8066C428.743 51.5872 450.206 56.4476 450.178 103.073C450.15 149.699 472.698 75.4053 488.287 64.3186C503.528 53.4792 552.691 55.5864 533.265 118.127C526.559 136.666 507.38 171.985 484.302 164.954C455.455 156.166 509.521 188.239 512.906 194.748C518.67 205.831 502.253 251.754 411.095 225.847C404.689 224.396 397.548 215.545 414.026 191.853C418.246 185.786 423.391 174.469 416.05 175.323C414.682 175.483 412.985 175.977 410.894 176.913C397.502 182.906 374.419 208.653 366.347 174.347C359.889 146.902 377.515 145.993 387.136 148.969C388.565 149.514 388.875 148.59 380.495 141.461ZM436.744 179.006C421.783 178.997 412.298 144.137 421.316 117.598C424.557 103.289 474.853 140.251 475.542 147.176C476.23 154.101 460.057 179.02 436.744 179.006Z" fill="#DFDFDF"/>
<path d="M421.316 117.598C412.298 144.137 421.783 178.997 436.744 179.006C460.057 179.02 476.23 154.101 475.542 147.176C474.853 140.251 424.557 103.289 421.316 117.598Z" fill="#3D3D3D"/>
<path fill-rule="evenodd" clip-rule="evenodd" d="M382.562 79.4886C396.571 79.7102 385.26 45.6518 399.666 40.4901C417.674 34.038 431.969 60.5911 464.773 15.37C472.644 6.57094 492.155 -0.650871 510.522 35.3644C513.094 40.4072 515.73 45.8242 520.755 48.4298C526.207 51.2563 534.86 52.6751 549.695 48.8908C574.684 45.3304 573.263 84.3131 553.122 106.829C539.033 121.439 518.377 155.973 548.463 177.227C573.535 194.938 528.752 250.985 475.944 245.044C468.866 244.194 457.294 245.033 467.628 255.195C480.02 267.381 396.829 289.066 384.966 239.875C383.92 235.537 384.822 229.295 380.511 228.145C378.32 227.562 374.858 227.87 369.544 229.976C353.845 236.199 321.542 216.098 344.181 185.874C345.567 184.182 347.421 171.565 336.567 179.637C323.538 189.328 293.196 141.987 360.597 139.951C365.29 140.261 371.631 138.388 359.45 128.409C344.223 115.935 321.856 78.5283 382.562 79.4886ZM388.784 95.1883C348.511 90.5365 360.513 117.505 373.696 134.577C375.672 137.135 378.032 139.366 380.495 141.461C388.875 148.59 388.565 149.514 387.136 148.969C377.515 145.993 359.889 146.902 366.347 174.347C374.419 208.653 397.502 182.906 410.894 176.913C412.985 175.977 414.682 175.483 416.05 175.323C423.391 174.469 418.246 185.786 414.026 191.853C397.548 215.545 404.689 224.396 411.095 225.847C502.253 251.754 518.67 205.831 512.906 194.748C509.521 188.239 455.455 156.166 484.302 164.954C507.38 171.985 526.559 136.666 533.265 118.127C552.691 55.5864 503.528 53.4792 488.287 64.3186C472.698 75.4053 450.15 149.699 450.178 103.073C450.206 56.4476 428.743 51.5872 406.348 60.8066C383.952 70.026 443.023 101.453 388.784 95.1883Z" fill="#909090"/>
<path d="M440.958 177.512C436.031 182.664 427.31 196.171 434.134 208.547" stroke="#3D3D3D" stroke-width="1.99713"/>
<path d="M452.27 174.051L454.634 195.047" stroke="#3D3D3D" stroke-width="1.99713"/>
<path d="M458.508 166.445C468.2 170.144 487.339 182.529 483.635 201.547" stroke="#3D3D3D" stroke-width="1.99713"/>
<path d="M425.505 162.726C418.886 166.492 402.113 172.302 388.636 168.047" stroke="#3D3D3D" stroke-width="1.99713"/>
<path d="M422.275 153.728L399.634 159.047" stroke="#3D3D3D" stroke-width="1.99713"/>
<path d="M418.361 137.792C408.281 138.017 386.643 134.77 379.635 120.547" stroke="#3D3D3D" stroke-width="1.99713"/>
<path d="M421.832 125.793C417.45 120.789 406.521 110.813 399.135 111.547" stroke="#3D3D3D" stroke-width="1.99713"/>
<path d="M432.916 120.031C434.999 109.722 436.572 86.3528 428.635 81.5469" stroke="#3D3D3D" stroke-width="1.99713"/>
<path d="M470.289 144.294C482.448 141.531 506.888 132.811 507.634 121.548" stroke="#3D3D3D" stroke-width="1.99713"/>
<path d="M490.793 97.0594C489.449 98.6035 487.65 101.603 491.21 101.249C495.66 100.807 493.07 94.7203 490.793 97.0594Z" fill="#3D3D3D" stroke="#3D3D3D" stroke-width="1.99713"/>
<path d="M427.485 78.9383C426.14 80.4824 424.341 83.4822 427.901 83.1284C432.352 82.686 429.761 76.5992 427.485 78.9383Z" fill="#3D3D3D" stroke="#3D3D3D" stroke-width="1.99713"/>
<path d="M400.861 109.393C398.877 108.889 395.388 108.636 397.309 111.654C399.711 115.427 403.976 110.37 400.861 109.393Z" fill="#3D3D3D" stroke="#3D3D3D" stroke-width="1.99713"/>
<path d="M377.001 120.23C378.794 121.22 382.104 122.349 381.011 118.943C379.643 114.685 374.236 118.496 377.001 120.23Z" fill="#3D3D3D" stroke="#3D3D3D" stroke-width="1.99713"/>
<path d="M397.823 157.122C397.022 159.006 396.24 162.416 399.516 160.977C403.611 159.179 399.264 154.193 397.823 157.122Z" fill="#3D3D3D" stroke="#3D3D3D" stroke-width="1.99713"/>
<path d="M386.58 170.316C388.55 169.761 391.699 168.237 388.527 166.582C384.561 164.514 383.393 171.025 386.58 170.316Z" fill="#3D3D3D" stroke="#3D3D3D" stroke-width="1.99713"/>
<path d="M431.541 207.232C432.53 209.025 434.731 211.743 435.619 208.278C436.73 203.945 430.124 204.291 431.541 207.232Z" fill="#3D3D3D" stroke="#3D3D3D" stroke-width="1.99713"/>
<path d="M454.32 198.194C456.333 197.817 459.604 196.58 456.592 194.649C452.827 192.236 451.084 198.617 454.32 198.194Z" fill="#3D3D3D" stroke="#3D3D3D" stroke-width="1.99713"/>
<path d="M484.862 201.772C483.431 200.308 480.585 198.274 480.652 201.851C480.736 206.323 487.011 204.229 484.862 201.772Z" fill="#3D3D3D" stroke="#3D3D3D" stroke-width="1.99713"/>
<path d="M509.135 120.325C509.643 118.341 509.902 114.853 506.88 116.769C503.103 119.164 508.153 123.437 509.135 120.325Z" fill="#3D3D3D" stroke="#3D3D3D" stroke-width="1.99713"/>
<path d="M479.232 122.896C480.547 124.466 483.229 126.712 483.435 123.14C483.694 118.675 477.277 120.282 479.232 122.896Z" fill="#3D3D3D" stroke="#3D3D3D" stroke-width="1.99713"/>
<path d="M459.134 132.547C465.835 121.779 481.902 99.467 491.135 98.5494M464.991 137.826L480.135 122.547" stroke="#3D3D3D" stroke-width="1.99713"/>
<path d="M738.129 330.639C753.045 327.523 783.171 314.402 784.352 286.842C785.534 259.282 754.029 304.557 738.129 330.639Z" fill="#3D3D3D"/>
<path d="M742.752 369.383C729.433 364.173 701.246 348.026 695.049 325.12C688.852 302.214 724.269 345.085 742.752 369.383Z" fill="#3D3D3D"/>
<path d="M734.893 232.953C734.148 253.357 734.439 290.494 738.129 330.639M738.129 330.639C753.045 327.523 783.171 314.402 784.352 286.842C785.534 259.282 754.029 304.557 738.129 330.639ZM738.129 330.639C739.302 343.397 740.817 356.458 742.752 369.383M742.752 369.383C745.491 387.678 749.069 405.7 753.701 422.2C760.868 446.366 779.856 487.874 779.856 492.139M742.752 369.383C729.433 364.173 701.246 348.026 695.049 325.12C688.852 302.214 724.269 345.085 742.752 369.383Z" stroke="#3D3D3D" stroke-width="1.99713"/>
<path fill-rule="evenodd" clip-rule="evenodd" d="M685.127 141.461C682.665 139.366 680.305 137.135 678.329 134.577C665.146 117.505 653.144 90.5365 693.417 95.1884C747.656 101.453 688.585 70.026 710.98 60.8066C733.376 51.5872 754.839 56.4476 754.811 103.073C754.783 149.699 777.331 75.4053 792.92 64.3186C808.161 53.4792 857.324 55.5864 837.897 118.127C831.192 136.666 812.013 171.985 788.935 164.954C760.087 156.166 814.154 188.24 817.539 194.748C823.302 205.831 806.886 251.754 715.728 225.847C709.322 224.396 702.181 215.545 718.659 191.853C722.879 185.786 728.024 174.469 720.683 175.323C719.315 175.483 717.618 175.977 715.526 176.913C702.135 182.906 679.051 208.653 670.979 174.347C664.522 146.902 682.148 145.993 691.769 148.969C693.198 149.514 693.508 148.59 685.127 141.461ZM741.377 179.006C726.415 178.997 716.931 144.137 725.949 117.598C729.189 103.289 779.486 140.251 780.174 147.176C780.863 154.101 764.69 179.02 741.377 179.006Z" fill="#DFDFDF"/>
<path d="M725.949 117.598C716.931 144.137 726.415 178.997 741.377 179.006C764.69 179.02 780.863 154.101 780.174 147.176C779.486 140.251 729.189 103.289 725.949 117.598Z" fill="#3D3D3D"/>
<path fill-rule="evenodd" clip-rule="evenodd" d="M687.194 79.4886C701.203 79.7102 689.892 45.6518 704.299 40.4901C722.307 34.038 736.602 60.5911 769.406 15.37C777.277 6.57094 796.788 -0.650871 815.155 35.3644C817.727 40.4072 820.363 45.8242 825.388 48.4298C830.839 51.2563 839.493 52.6751 854.328 48.8908C879.317 45.3304 877.896 84.3131 857.755 106.829C843.666 121.439 823.01 155.973 853.096 177.227C878.168 194.938 833.385 250.985 780.577 245.044C773.499 244.194 761.926 245.033 772.261 255.195C784.653 267.381 701.462 289.066 689.599 239.875C688.553 235.537 689.455 229.295 685.143 228.145C682.953 227.562 679.491 227.87 674.177 229.976C658.478 236.199 626.175 216.098 648.814 185.874C650.2 184.182 652.054 171.565 641.2 179.637C628.171 189.328 597.829 141.987 665.23 139.951C669.923 140.261 676.264 138.388 664.083 128.409C648.856 115.935 626.489 78.5283 687.194 79.4886ZM693.417 95.1884C653.144 90.5365 665.146 117.505 678.329 134.577C680.305 137.135 682.665 139.366 685.127 141.461C693.508 148.59 693.198 149.514 691.769 148.969C682.148 145.993 664.522 146.902 670.979 174.347C679.051 208.653 702.135 182.906 715.526 176.913C717.618 175.977 719.315 175.483 720.683 175.323C728.024 174.469 722.879 185.786 718.659 191.853C702.181 215.545 709.322 224.396 715.728 225.847C806.886 251.754 823.302 205.831 817.539 194.748C814.154 188.24 760.087 156.166 788.935 164.954C812.013 171.985 831.192 136.666 837.897 118.127C857.324 55.5864 808.161 53.4792 792.92 64.3186C777.331 75.4053 754.783 149.699 754.811 103.073C754.839 56.4476 733.376 51.5872 710.98 60.8066C688.585 70.026 747.656 101.453 693.417 95.1884Z" fill="#909090"/>
<path d="M745.592 177.512C740.664 182.664 731.268 196.5 738.768 208.547" stroke="#3D3D3D" stroke-width="1.99713"/>
<path d="M756.902 174.051L759.767 195" stroke="#3D3D3D" stroke-width="1.99713"/>
<path d="M763.141 166.445C772.833 170.144 791.472 182.483 787.768 201.5" stroke="#3D3D3D" stroke-width="1.99713"/>
<path d="M730.138 162.726C723.518 166.492 706.769 173 693.269 168.047" stroke="#3D3D3D" stroke-width="1.99713"/>
<path d="M726.909 153.727L704.269 159.5" stroke="#3D3D3D" stroke-width="1.99713"/>
<path d="M722.994 137.792C712.914 138.017 690.268 134.5 684.268 120.547" stroke="#3D3D3D" stroke-width="1.99713"/>
<path d="M726.465 125.792C722.083 120.788 712.267 110.499 703.768 111.546" stroke="#3D3D3D" stroke-width="1.99713"/>
<path d="M737.549 120.031C739.632 109.722 740.705 87.3059 732.768 82.5" stroke="#3D3D3D" stroke-width="1.99713"/>
<path d="M774.924 144.294C787.082 141.531 812.023 132.765 812.768 121.502" stroke="#3D3D3D" stroke-width="1.99713"/>
<path d="M795.428 98.0594C794.084 99.6035 792.284 102.603 795.845 102.249C800.295 101.807 797.705 95.7203 795.428 98.0594Z" fill="#3D3D3D" stroke="#3D3D3D" stroke-width="1.99713"/>
<path d="M732.118 79.9383C730.773 81.4824 728.974 84.4822 732.534 84.1284C736.984 83.686 734.394 77.5992 732.118 79.9383Z" fill="#3D3D3D" stroke="#3D3D3D" stroke-width="1.99713"/>
<path d="M705.494 110.393C703.51 109.889 700.021 109.636 701.942 112.654C704.344 116.427 708.609 111.37 705.494 110.393Z" fill="#3D3D3D" stroke="#3D3D3D" stroke-width="1.99713"/>
<path d="M682.634 120.23C684.426 121.22 687.737 122.349 686.643 118.943C685.276 114.685 679.869 118.496 682.634 120.23Z" fill="#3D3D3D" stroke="#3D3D3D" stroke-width="1.99713"/>
<path d="M701.456 157.122C700.655 159.006 699.873 162.416 703.149 160.977C707.244 159.179 702.897 154.193 701.456 157.122Z" fill="#3D3D3D" stroke="#3D3D3D" stroke-width="1.99713"/>
<path d="M692.214 170.316C694.185 169.761 697.334 168.237 694.162 166.582C690.196 164.514 689.028 171.025 692.214 170.316Z" fill="#3D3D3D" stroke="#3D3D3D" stroke-width="1.99713"/>
<path d="M735.174 207.232C736.163 209.025 738.364 211.743 739.252 208.278C740.363 203.945 733.757 204.291 735.174 207.232Z" fill="#3D3D3D" stroke="#3D3D3D" stroke-width="1.99713"/>
<path d="M759.953 198.194C761.965 197.817 765.237 196.58 762.225 194.649C758.46 192.236 756.716 198.617 759.953 198.194Z" fill="#3D3D3D" stroke="#3D3D3D" stroke-width="1.99713"/>
<path d="M788.497 201.772C787.066 200.308 784.22 198.274 784.287 201.851C784.371 206.323 790.646 204.229 788.497 201.772Z" fill="#3D3D3D" stroke="#3D3D3D" stroke-width="1.99713"/>
<path d="M814.768 120.325C815.275 118.341 815.535 114.853 812.513 116.769C808.736 119.164 813.785 123.437 814.768 120.325Z" fill="#3D3D3D" stroke="#3D3D3D" stroke-width="1.99713"/>
<path d="M784.866 122.896C786.181 124.466 788.863 126.712 789.07 123.14C789.329 118.675 782.912 120.282 784.866 122.896Z" fill="#3D3D3D" stroke="#3D3D3D" stroke-width="1.99713"/>
<path d="M762.767 133C769.468 122.232 786.534 100.416 795.767 99.4988M769.623 137.824L785.267 122.999" stroke="#3D3D3D" stroke-width="1.99713"/>
<path d="M1042.76 330.639C1057.68 327.523 1087.8 314.402 1088.99 286.842C1090.17 259.282 1058.66 304.557 1042.76 330.639Z" fill="#3D3D3D"/>
<path d="M1047.38 369.383C1034.07 364.173 1005.88 348.026 999.682 325.12C993.485 302.214 1028.9 345.085 1047.38 369.383Z" fill="#3D3D3D"/>
<path d="M1039.53 232.953C1038.78 253.357 1039.07 290.494 1042.76 330.639M1042.76 330.639C1057.68 327.523 1087.8 314.402 1088.99 286.842C1090.17 259.282 1058.66 304.557 1042.76 330.639ZM1042.76 330.639C1043.93 343.397 1045.45 356.458 1047.38 369.383M1047.38 369.383C1050.12 387.678 1053.7 405.7 1058.33 422.2C1065.5 446.366 1084.49 487.874 1084.49 492.139M1047.38 369.383C1034.07 364.173 1005.88 348.026 999.682 325.12C993.485 302.214 1028.9 345.085 1047.38 369.383Z" stroke="#3D3D3D" stroke-width="1.99713"/>
<path fill-rule="evenodd" clip-rule="evenodd" d="M989.76 141.461C987.298 139.366 984.937 137.135 982.961 134.577C969.779 117.505 957.777 90.5365 998.05 95.1884C1052.29 101.453 993.218 70.026 1015.61 60.8066C1038.01 51.5872 1059.47 56.4476 1059.44 103.073C1059.42 149.699 1081.96 75.4053 1097.55 64.3186C1112.79 53.4792 1161.96 55.5864 1142.53 118.127C1135.83 136.666 1116.65 171.985 1093.57 164.954C1064.72 156.166 1118.79 188.24 1122.17 194.748C1127.94 205.831 1111.52 251.754 1020.36 225.847C1013.96 224.396 1006.81 215.545 1023.29 191.853C1027.51 185.786 1032.66 174.469 1025.32 175.323C1023.95 175.483 1022.25 175.977 1020.16 176.913C1006.77 182.906 983.684 208.653 975.612 174.347C969.155 146.902 986.781 145.993 996.402 148.969C997.831 149.514 998.141 148.59 989.76 141.461ZM1046.01 179.006C1031.05 178.997 1021.56 144.137 1030.58 117.598C1033.82 103.289 1084.12 140.251 1084.81 147.176C1085.5 154.101 1069.32 179.02 1046.01 179.006Z" fill="#DFDFDF"/>
<path d="M1030.58 117.598C1021.56 144.137 1031.05 178.997 1046.01 179.006C1069.32 179.02 1085.5 154.101 1084.81 147.176C1084.12 140.251 1033.82 103.289 1030.58 117.598Z" fill="#3D3D3D"/>
<path fill-rule="evenodd" clip-rule="evenodd" d="M991.827 79.4886C1005.84 79.7102 994.525 45.6518 1008.93 40.4901C1026.94 34.038 1041.23 60.5911 1074.04 15.37C1081.91 6.57094 1101.42 -0.650871 1119.79 35.3644C1122.36 40.4072 1125 45.8242 1130.02 48.4298C1135.47 51.2563 1144.13 52.6751 1158.96 48.8908C1183.95 45.3304 1182.53 84.3131 1162.39 106.829C1148.3 121.439 1127.64 155.973 1157.73 177.227C1182.8 194.938 1138.02 250.985 1085.21 245.044C1078.13 244.194 1066.56 245.033 1076.89 255.195C1089.29 267.381 1006.09 289.066 994.232 239.875C993.186 235.537 994.088 229.295 989.776 228.145C987.586 227.562 984.124 227.87 978.81 229.976C963.11 236.199 930.808 216.098 953.446 185.874C954.832 184.182 956.687 171.565 945.833 179.637C932.804 189.328 902.461 141.987 969.863 139.951C974.556 140.261 980.897 138.388 968.715 128.409C953.489 115.935 931.122 78.5283 991.827 79.4886ZM998.05 95.1884C957.777 90.5365 969.779 117.505 982.961 134.577C984.937 137.135 987.298 139.366 989.76 141.461C998.141 148.59 997.831 149.514 996.402 148.969C986.781 145.993 969.155 146.902 975.612 174.347C983.684 208.653 1006.77 182.906 1020.16 176.913C1022.25 175.977 1023.95 175.483 1025.32 175.323C1032.66 174.469 1027.51 185.786 1023.29 191.853C1006.81 215.545 1013.96 224.396 1020.36 225.847C1111.52 251.754 1127.94 205.831 1122.17 194.748C1118.79 188.24 1064.72 156.166 1093.57 164.954C1116.65 171.985 1135.83 136.666 1142.53 118.127C1161.96 55.5864 1112.79 53.4792 1097.55 64.3186C1081.96 75.4053 1059.42 149.699 1059.44 103.073C1059.47 56.4476 1038.01 51.5872 1015.61 60.8066C993.218 70.026 1052.29 101.453 998.05 95.1884Z" fill="#909090"/>
<path d="M1050.22 177.513C1045.3 182.665 1034.9 197 1043.4 208.548" stroke="#3D3D3D" stroke-width="1.99713"/>
<path d="M1061.54 174.051L1064.9 195.5" stroke="#3D3D3D" stroke-width="1.99713"/>
<path d="M1067.77 166.445C1077.47 170.144 1095.9 183.5 1092.4 201.5" stroke="#3D3D3D" stroke-width="1.99713"/>
<path d="M1034.77 162.726C1028.15 166.492 1011.4 174 997.901 168.047" stroke="#3D3D3D" stroke-width="1.99713"/>
<path d="M1031.54 153.729L1008.9 160.5" stroke="#3D3D3D" stroke-width="1.99713"/>
<path d="M1027.63 137.792C1017.55 138.017 993.9 135 988.9 120.547" stroke="#3D3D3D" stroke-width="1.99713"/>
<path d="M1031.1 125.794C1026.72 120.79 1017.9 110.5 1008.4 111.548" stroke="#3D3D3D" stroke-width="1.99713"/>
<path d="M1042.18 120.031C1044.27 109.722 1045.34 87.3059 1037.4 82.5" stroke="#3D3D3D" stroke-width="1.99713"/>
<path d="M1079.56 144.294C1091.71 141.531 1117.9 132 1117.4 121.502" stroke="#3D3D3D" stroke-width="1.99713"/>
<path d="M1100.06 99.0594C1098.71 100.604 1096.92 103.603 1100.48 103.249C1104.93 102.807 1102.34 96.7203 1100.06 99.0594Z" fill="#3D3D3D" stroke="#3D3D3D" stroke-width="1.99713"/>
<path d="M1036.75 79.9383C1035.41 81.4824 1033.61 84.4822 1037.17 84.1284C1041.62 83.686 1039.03 77.5992 1036.75 79.9383Z" fill="#3D3D3D" stroke="#3D3D3D" stroke-width="1.99713"/>
<path d="M1009.12 110.393C1007.14 109.889 1003.65 109.636 1005.57 112.654C1007.97 116.427 1012.24 111.37 1009.12 110.393Z" fill="#3D3D3D" stroke="#3D3D3D" stroke-width="1.99713"/>
<path d="M987.269 121.23C989.061 122.22 992.372 123.349 991.278 119.943C989.911 115.685 984.504 119.496 987.269 121.23Z" fill="#3D3D3D" stroke="#3D3D3D" stroke-width="1.99713"/>
<path d="M1007.09 157.122C1006.29 159.006 1005.51 162.416 1008.78 160.977C1012.88 159.179 1008.53 154.193 1007.09 157.122Z" fill="#3D3D3D" stroke="#3D3D3D" stroke-width="1.99713"/>
<path d="M997.845 170.316C999.816 169.761 1002.96 168.237 999.792 166.582C995.827 164.514 994.659 171.025 997.845 170.316Z" fill="#3D3D3D" stroke="#3D3D3D" stroke-width="1.99713"/>
<path d="M1040.81 207.232C1041.8 209.025 1044 211.743 1044.89 208.278C1046 203.945 1039.39 204.291 1040.81 207.232Z" fill="#3D3D3D" stroke="#3D3D3D" stroke-width="1.99713"/>
<path d="M1065.59 198.194C1067.6 197.817 1070.87 196.58 1067.86 194.649C1064.09 192.236 1062.35 198.617 1065.59 198.194Z" fill="#3D3D3D" stroke="#3D3D3D" stroke-width="1.99713"/>
<path d="M1092.13 201.772C1090.7 200.308 1087.85 198.274 1087.92 201.851C1088 206.323 1094.28 204.229 1092.13 201.772Z" fill="#3D3D3D" stroke="#3D3D3D" stroke-width="1.99713"/>
<path d="M1118.4 120.325C1118.91 118.341 1119.17 114.853 1116.15 116.769C1112.37 119.164 1117.42 123.437 1118.4 120.325Z" fill="#3D3D3D" stroke="#3D3D3D" stroke-width="1.99713"/>
<path d="M1090.5 122.896C1091.81 124.466 1094.5 126.712 1094.7 123.14C1094.96 118.675 1088.54 120.282 1090.5 122.896Z" fill="#3D3D3D" stroke="#3D3D3D" stroke-width="1.99713"/>
<path d="M1068.4 132C1075.1 121.232 1090.9 99.5007 1100.4 99.5021M1074.26 137.827L1090.4 123.001" stroke="#3D3D3D" stroke-width="1.99713"/>
<path d="M1347.39 330.639C1362.31 327.523 1392.44 314.402 1393.62 286.842C1394.8 259.282 1363.29 304.557 1347.39 330.639Z" fill="#3D3D3D"/>
<path d="M1352.02 369.383C1338.7 364.173 1310.51 348.026 1304.31 325.12C1298.12 302.214 1333.53 345.085 1352.02 369.383Z" fill="#3D3D3D"/>
<path d="M1344.16 232.953C1343.41 253.357 1343.7 290.494 1347.39 330.639M1347.39 330.639C1362.31 327.523 1392.44 314.402 1393.62 286.842C1394.8 259.282 1363.29 304.557 1347.39 330.639ZM1347.39 330.639C1348.57 343.397 1350.08 356.458 1352.02 369.383M1352.02 369.383C1354.76 387.678 1358.33 405.7 1362.97 422.2C1370.13 446.366 1389.12 487.874 1389.12 492.139M1352.02 369.383C1338.7 364.173 1310.51 348.026 1304.31 325.12C1298.12 302.214 1333.53 345.085 1352.02 369.383Z" stroke="#3D3D3D" stroke-width="1.99713"/>
<path fill-rule="evenodd" clip-rule="evenodd" d="M1294.39 141.461C1291.93 139.366 1289.57 137.135 1287.59 134.577C1274.41 117.505 1262.41 90.5365 1302.68 95.1884C1356.92 101.453 1297.85 70.026 1320.25 60.8066C1342.64 51.5872 1364.1 56.4476 1364.08 103.073C1364.05 149.699 1386.6 75.4053 1402.19 64.3186C1417.43 53.4792 1466.59 55.5864 1447.16 118.127C1440.46 136.666 1421.28 171.985 1398.2 164.954C1369.35 156.166 1423.42 188.24 1426.8 194.748C1432.57 205.831 1416.15 251.754 1324.99 225.847C1318.59 224.396 1311.45 215.545 1327.92 191.853C1332.14 185.786 1337.29 174.469 1329.95 175.323C1328.58 175.483 1326.88 175.977 1324.79 176.913C1311.4 182.906 1288.32 208.653 1280.25 174.347C1273.79 146.902 1291.41 145.993 1301.03 148.969C1302.46 149.514 1302.77 148.59 1294.39 141.461ZM1350.64 179.006C1335.68 178.997 1326.2 144.137 1335.21 117.598C1338.46 103.289 1388.75 140.251 1389.44 147.176C1390.13 154.101 1373.96 179.02 1350.64 179.006Z" fill="#DFDFDF"/>
<path d="M1335.21 117.598C1326.2 144.137 1335.68 178.997 1350.64 179.006C1373.96 179.02 1390.13 154.101 1389.44 147.176C1388.75 140.251 1338.46 103.289 1335.21 117.598Z" fill="#3D3D3D"/>
<path fill-rule="evenodd" clip-rule="evenodd" d="M1296.46 79.4886C1310.47 79.7102 1299.16 45.6518 1313.56 40.4901C1331.57 34.038 1345.87 60.5911 1378.67 15.37C1386.54 6.57094 1406.05 -0.650871 1424.42 35.3644C1426.99 40.4072 1429.63 45.8242 1434.65 48.4298C1440.1 51.2563 1448.76 52.6751 1463.59 48.8908C1488.58 45.3304 1487.16 84.3131 1467.02 106.829C1452.93 121.439 1432.28 155.973 1462.36 177.227C1487.43 194.938 1442.65 250.985 1389.84 245.044C1382.76 244.194 1371.19 245.033 1381.53 255.195C1393.92 267.381 1310.73 289.066 1298.86 239.875C1297.82 235.537 1298.72 229.295 1294.41 228.145C1292.22 227.562 1288.76 227.87 1283.44 229.976C1267.74 236.199 1235.44 216.098 1258.08 185.874C1259.47 184.182 1261.32 171.565 1250.47 179.637C1237.44 189.328 1207.09 141.987 1274.5 139.951C1279.19 140.261 1285.53 138.388 1273.35 128.409C1258.12 115.935 1235.75 78.5283 1296.46 79.4886ZM1302.68 95.1884C1262.41 90.5365 1274.41 117.505 1287.59 134.577C1289.57 137.135 1291.93 139.366 1294.39 141.461C1302.77 148.59 1302.46 149.514 1301.03 148.969C1291.41 145.993 1273.79 146.902 1280.25 174.347C1288.32 208.653 1311.4 182.906 1324.79 176.913C1326.88 175.977 1328.58 175.483 1329.95 175.323C1337.29 174.469 1332.14 185.786 1327.92 191.853C1311.45 215.545 1318.59 224.396 1324.99 225.847C1416.15 251.754 1432.57 205.831 1426.8 194.748C1423.42 188.24 1369.35 156.166 1398.2 164.954C1421.28 171.985 1440.46 136.666 1447.16 118.127C1466.59 55.5864 1417.43 53.4792 1402.19 64.3186C1386.6 75.4053 1364.05 149.699 1364.08 103.073C1364.1 56.4476 1342.64 51.5872 1320.25 60.8066C1297.85 70.026 1356.92 101.453 1302.68 95.1884Z" fill="#909090"/>
<path d="M1354.86 177.512C1349.93 182.664 1338.53 196 1348.03 208.547" stroke="#3D3D3D" stroke-width="1.99713"/>
<path d="M1366.17 174.051L1370.53 195.5" stroke="#3D3D3D" stroke-width="1.99713"/>
<path d="M1372.41 166.445C1382.1 170.144 1399.53 183.5 1397.03 201.5" stroke="#3D3D3D" stroke-width="1.99713"/>
<path d="M1339.4 162.726C1332.78 166.492 1315.53 175 1302.53 168.047" stroke="#3D3D3D" stroke-width="1.99713"/>
<path d="M1336.17 153.729L1312.53 160" stroke="#3D3D3D" stroke-width="1.99713"/>
<path d="M1332.26 137.792C1322.18 138.017 1297.53 135 1293.53 120.547" stroke="#3D3D3D" stroke-width="1.99713"/>
<path d="M1335.73 125.793C1331.35 120.789 1323.53 110.5 1313.03 111.547" stroke="#3D3D3D" stroke-width="1.99713"/>
<path d="M1346.81 120.031C1348.9 109.722 1350.03 86 1342.03 82.5" stroke="#3D3D3D" stroke-width="1.99713"/>
<path d="M1384.19 144.294C1396.35 141.531 1422.53 133 1422.03 121.502" stroke="#3D3D3D" stroke-width="1.99713"/>
<path d="M1404.69 98.0594C1403.35 99.6035 1401.55 102.603 1405.11 102.249C1409.56 101.807 1406.97 95.7203 1404.69 98.0594Z" fill="#3D3D3D" stroke="#3D3D3D" stroke-width="1.99713"/>
<path d="M1341.38 80.9383C1340.04 82.4824 1338.24 85.4822 1341.8 85.1284C1346.25 84.686 1343.66 78.5992 1341.38 80.9383Z" fill="#3D3D3D" stroke="#3D3D3D" stroke-width="1.99713"/>
<path d="M1313.76 110.393C1311.77 109.889 1308.28 109.636 1310.21 112.654C1312.61 116.427 1316.87 111.37 1313.76 110.393Z" fill="#3D3D3D" stroke="#3D3D3D" stroke-width="1.99713"/>
<path d="M1291.9 121.23C1293.69 122.22 1297 123.349 1295.91 119.943C1294.54 115.685 1289.14 119.496 1291.9 121.23Z" fill="#3D3D3D" stroke="#3D3D3D" stroke-width="1.99713"/>
<path d="M1311.72 157.122C1310.92 159.006 1310.14 162.416 1313.41 160.977C1317.51 159.179 1313.16 154.193 1311.72 157.122Z" fill="#3D3D3D" stroke="#3D3D3D" stroke-width="1.99713"/>
<path d="M1302.48 170.316C1304.45 169.761 1307.6 168.237 1304.43 166.582C1300.46 164.514 1299.29 171.025 1302.48 170.316Z" fill="#3D3D3D" stroke="#3D3D3D" stroke-width="1.99713"/>
<path d="M1345.44 206.232C1346.43 208.025 1348.63 210.743 1349.52 207.278C1350.63 202.945 1344.02 203.291 1345.44 206.232Z" fill="#3D3D3D" stroke="#3D3D3D" stroke-width="1.99713"/>
<path d="M1371.22 198.194C1373.23 197.817 1376.5 196.58 1373.49 194.649C1369.73 192.236 1367.98 198.617 1371.22 198.194Z" fill="#3D3D3D" stroke="#3D3D3D" stroke-width="1.99713"/>
<path d="M1397.76 201.772C1396.33 200.308 1393.49 198.274 1393.55 201.851C1393.64 206.323 1399.91 204.229 1397.76 201.772Z" fill="#3D3D3D" stroke="#3D3D3D" stroke-width="1.99713"/>
<path d="M1423.03 120.325C1423.54 118.341 1423.8 114.853 1420.78 116.769C1417 119.164 1422.05 123.437 1423.03 120.325Z" fill="#3D3D3D" stroke="#3D3D3D" stroke-width="1.99713"/>
<path d="M1394.13 122.896C1395.45 124.466 1398.13 126.712 1398.34 123.14C1398.59 118.675 1392.18 120.282 1394.13 122.896Z" fill="#3D3D3D" stroke="#3D3D3D" stroke-width="1.99713"/>
<path d="M1373.03 132C1379.73 121.232 1394.53 99.5018 1405.03 99.5009M1378.89 137.826L1395.53 123.501" stroke="#3D3D3D" stroke-width="1.99713"/>
<path d="M1652.03 330.639C1666.94 327.523 1697.07 314.402 1698.25 286.842C1699.43 259.282 1667.93 304.557 1652.03 330.639Z" fill="#3D3D3D"/>
<path d="M1656.65 369.383C1643.33 364.173 1615.14 348.026 1608.95 325.12C1602.75 302.214 1638.17 345.085 1656.65 369.383Z" fill="#3D3D3D"/>
<path d="M1648.79 232.953C1648.05 253.357 1648.34 290.494 1652.03 330.639M1652.03 330.639C1666.94 327.523 1697.07 314.402 1698.25 286.842C1699.43 259.282 1667.93 304.557 1652.03 330.639ZM1652.03 330.639C1653.2 343.397 1654.72 356.458 1656.65 369.383M1656.65 369.383C1659.39 387.678 1662.97 405.7 1667.6 422.2C1674.77 446.366 1693.75 487.874 1693.75 492.139M1656.65 369.383C1643.33 364.173 1615.14 348.026 1608.95 325.12C1602.75 302.214 1638.17 345.085 1656.65 369.383Z" stroke="#3D3D3D" stroke-width="1.99713"/>
<path fill-rule="evenodd" clip-rule="evenodd" d="M1599.03 141.461C1596.56 139.366 1594.2 137.135 1592.23 134.577C1579.04 117.505 1567.04 90.5365 1607.32 95.1884C1661.55 101.453 1602.48 70.026 1624.88 60.8066C1647.27 51.5872 1668.74 56.4476 1668.71 103.073C1668.68 149.699 1691.23 75.4053 1706.82 64.3186C1722.06 53.4792 1771.22 55.5864 1751.8 118.127C1745.09 136.666 1725.91 171.985 1702.83 164.954C1673.99 156.166 1728.05 188.24 1731.44 194.748C1737.2 205.831 1720.78 251.754 1629.63 225.847C1623.22 224.396 1616.08 215.545 1632.56 191.853C1636.78 185.786 1641.92 174.469 1634.58 175.323C1633.21 175.483 1631.52 175.977 1629.42 176.913C1616.03 182.906 1592.95 208.653 1584.88 174.347C1578.42 146.902 1596.05 145.993 1605.67 148.969C1607.1 149.514 1607.41 148.59 1599.03 141.461ZM1655.28 179.006C1640.31 178.997 1630.83 144.137 1639.85 117.598C1643.09 103.289 1693.38 140.251 1694.07 147.176C1694.76 154.101 1678.59 179.02 1655.28 179.006Z" fill="#DFDFDF"/>
<path d="M1639.85 117.598C1630.83 144.137 1640.31 178.997 1655.28 179.006C1678.59 179.02 1694.76 154.101 1694.07 147.176C1693.38 140.251 1643.09 103.289 1639.85 117.598Z" fill="#3D3D3D"/>
<path fill-rule="evenodd" clip-rule="evenodd" d="M1601.09 79.4886C1615.1 79.7102 1603.79 45.6518 1618.2 40.4901C1636.21 34.038 1650.5 60.5911 1683.3 15.37C1691.18 6.57094 1710.69 -0.650871 1729.05 35.3644C1731.63 40.4072 1734.26 45.8242 1739.29 48.4298C1744.74 51.2563 1753.39 52.6751 1768.23 48.8908C1793.22 45.3304 1791.79 84.3131 1771.65 106.829C1757.56 121.439 1736.91 155.973 1766.99 177.227C1792.07 194.938 1747.28 250.985 1694.48 245.044C1687.4 244.194 1675.82 245.033 1686.16 255.195C1698.55 267.381 1615.36 289.066 1603.5 239.875C1602.45 235.537 1603.35 229.295 1599.04 228.145C1596.85 227.562 1593.39 227.87 1588.08 229.976C1572.38 236.199 1540.07 216.098 1562.71 185.874C1564.1 184.182 1565.95 171.565 1555.1 179.637C1542.07 189.328 1511.73 141.987 1579.13 139.951C1583.82 140.261 1590.16 138.388 1577.98 128.409C1562.75 115.935 1540.39 78.5283 1601.09 79.4886ZM1607.32 95.1884C1567.04 90.5365 1579.04 117.505 1592.23 134.577C1594.2 137.135 1596.56 139.366 1599.03 141.461C1607.41 148.59 1607.1 149.514 1605.67 148.969C1596.05 145.993 1578.42 146.902 1584.88 174.347C1592.95 208.653 1616.03 182.906 1629.42 176.913C1631.52 175.977 1633.21 175.483 1634.58 175.323C1641.92 174.469 1636.78 185.786 1632.56 191.853C1616.08 215.545 1623.22 224.396 1629.63 225.847C1720.78 251.754 1737.2 205.831 1731.44 194.748C1728.05 188.24 1673.99 156.166 1702.83 164.954C1725.91 171.985 1745.09 136.666 1751.8 118.127C1771.22 55.5864 1722.06 53.4792 1706.82 64.3186C1691.23 75.4053 1668.68 149.699 1668.71 103.073C1668.74 56.4476 1647.27 51.5872 1624.88 60.8066C1602.48 70.026 1661.55 101.453 1607.32 95.1884Z" fill="#909090"/>
<path d="M1659.49 177.514C1654.56 182.666 1642.17 197 1652.67 208.549" stroke="#3D3D3D" stroke-width="1.99713"/>
<path d="M1670.8 174.051L1675.17 195.5" stroke="#3D3D3D" stroke-width="1.99713"/>
<path d="M1677.04 166.445C1686.73 170.144 1703.17 183.5 1701.67 201.5" stroke="#3D3D3D" stroke-width="1.99713"/>
<path d="M1644.04 162.726C1637.42 166.492 1621.17 176 1607.17 168.047" stroke="#3D3D3D" stroke-width="1.99713"/>
<path d="M1640.81 153.729L1617.17 160" stroke="#3D3D3D" stroke-width="1.99713"/>
<path d="M1636.89 137.792C1626.81 138.017 1601.17 134.5 1598.17 120.547" stroke="#3D3D3D" stroke-width="1.99713"/>
<path d="M1640.36 125.793C1635.98 120.789 1628.17 110.5 1617.67 111.547" stroke="#3D3D3D" stroke-width="1.99713"/>
<path d="M1651.45 120.031C1653.53 109.722 1654.67 87 1646.67 82.5" stroke="#3D3D3D" stroke-width="1.99713"/>
<path d="M1688.82 144.294C1700.98 141.531 1728.17 133 1726.67 121.502" stroke="#3D3D3D" stroke-width="1.99713"/>
<path d="M1709.32 99.0594C1707.98 100.604 1706.18 103.603 1709.74 103.249C1714.19 102.807 1711.6 96.7203 1709.32 99.0594Z" fill="#3D3D3D" stroke="#3D3D3D" stroke-width="1.99713"/>
<path d="M1645.02 80.9383C1643.67 82.4824 1641.87 85.4822 1645.43 85.1284C1649.88 84.686 1647.29 78.5992 1645.02 80.9383Z" fill="#3D3D3D" stroke="#3D3D3D" stroke-width="1.99713"/>
<path d="M1619.39 110.393C1617.41 109.889 1613.92 109.636 1615.84 112.654C1618.24 116.427 1622.51 111.37 1619.39 110.393Z" fill="#3D3D3D" stroke="#3D3D3D" stroke-width="1.99713"/>
<path d="M1596.53 121.23C1598.33 122.22 1601.64 123.349 1600.54 119.943C1599.18 115.685 1593.77 119.496 1596.53 121.23Z" fill="#3D3D3D" stroke="#3D3D3D" stroke-width="1.99713"/>
<path d="M1614.35 157.122C1613.55 159.006 1612.77 162.416 1616.05 160.977C1620.14 159.179 1615.8 154.193 1614.35 157.122Z" fill="#3D3D3D" stroke="#3D3D3D" stroke-width="1.99713"/>
<path d="M1607.11 170.316C1609.08 169.761 1612.23 168.237 1609.06 166.582C1605.09 164.514 1603.92 171.025 1607.11 170.316Z" fill="#3D3D3D" stroke="#3D3D3D" stroke-width="1.99713"/>
<path d="M1650.07 206.232C1651.06 208.025 1653.26 210.743 1654.15 207.278C1655.26 202.945 1648.66 203.291 1650.07 206.232Z" fill="#3D3D3D" stroke="#3D3D3D" stroke-width="1.99713"/>
<path d="M1675.85 197.194C1677.86 196.817 1681.14 195.58 1678.12 193.649C1674.36 191.236 1672.61 197.617 1675.85 197.194Z" fill="#3D3D3D" stroke="#3D3D3D" stroke-width="1.99713"/>
<path d="M1702.4 201.772C1700.96 200.308 1698.12 198.274 1698.19 201.851C1698.27 206.323 1704.54 204.229 1702.4 201.772Z" fill="#3D3D3D" stroke="#3D3D3D" stroke-width="1.99713"/>
<path d="M1727.67 120.325C1728.17 118.341 1728.43 114.853 1725.41 116.769C1721.63 119.164 1726.68 123.437 1727.67 120.325Z" fill="#3D3D3D" stroke="#3D3D3D" stroke-width="1.99713"/>
<path d="M1698.76 122.896C1700.08 124.466 1702.76 126.712 1702.97 123.14C1703.23 118.675 1696.81 120.282 1698.76 122.896Z" fill="#3D3D3D" stroke="#3D3D3D" stroke-width="1.99713"/>
<path d="M1677.67 132C1684.37 121.232 1700.17 99.4973 1709.67 99.4982M1683.52 137.823L1701.17 122.997" stroke="#3D3D3D" stroke-width="1.99713"/>
<path d="M1956.66 330.639C1971.58 327.523 2001.7 314.402 2002.88 286.842C2004.06 259.282 1972.56 304.557 1956.66 330.639Z" fill="#3D3D3D"/>
<path d="M1961.28 369.383C1947.96 364.173 1919.78 348.026 1913.58 325.12C1907.38 302.214 1942.8 345.085 1961.28 369.383Z" fill="#3D3D3D"/>
<path d="M1953.42 232.953C1952.68 253.357 1952.97 290.494 1956.66 330.639M1956.66 330.639C1971.58 327.523 2001.7 314.402 2002.88 286.842C2004.06 259.282 1972.56 304.557 1956.66 330.639ZM1956.66 330.639C1957.83 343.397 1959.35 356.458 1961.28 369.383M1961.28 369.383C1964.02 387.678 1967.6 405.7 1972.23 422.2C1979.4 446.366 1998.39 487.874 1998.39 492.139M1961.28 369.383C1947.96 364.173 1919.78 348.026 1913.58 325.12C1907.38 302.214 1942.8 345.085 1961.28 369.383Z" stroke="#3D3D3D" stroke-width="1.99713"/>
<path fill-rule="evenodd" clip-rule="evenodd" d="M1903.66 141.461C1901.2 139.366 1898.84 137.135 1896.86 134.577C1883.68 117.505 1871.68 90.5365 1911.95 95.1884C1966.19 101.453 1907.12 70.026 1929.51 60.8066C1951.91 51.5872 1973.37 56.4476 1973.34 103.073C1973.31 149.699 1995.86 75.4053 2011.45 64.3186C2026.69 53.4792 2075.86 55.5864 2056.43 118.127C2049.72 136.666 2030.54 171.985 2007.47 164.954C1978.62 156.166 2032.69 188.24 2036.07 194.748C2041.83 205.831 2025.42 251.754 1934.26 225.847C1927.85 224.396 1920.71 215.545 1937.19 191.853C1941.41 185.786 1946.56 174.469 1939.21 175.323C1937.85 175.483 1936.15 175.977 1934.06 176.913C1920.67 182.906 1897.58 208.653 1889.51 174.347C1883.05 146.902 1900.68 145.993 1910.3 148.969C1911.73 149.514 1912.04 148.59 1903.66 141.461ZM1959.91 179.006C1944.95 178.997 1935.46 144.137 1944.48 117.598C1947.72 103.289 1998.02 140.251 1998.71 147.176C1999.39 154.101 1983.22 179.02 1959.91 179.006Z" fill="#DFDFDF"/>
<path d="M1944.48 117.598C1935.46 144.137 1944.95 178.997 1959.91 179.006C1983.22 179.02 1999.39 154.101 1998.71 147.176C1998.02 140.251 1947.72 103.289 1944.48 117.598Z" fill="#3D3D3D"/>
<path fill-rule="evenodd" clip-rule="evenodd" d="M1905.73 79.4886C1919.73 79.7102 1908.42 45.6518 1922.83 40.4901C1940.84 34.038 1955.13 60.5911 1987.94 15.37C1995.81 6.57094 2015.32 -0.650871 2033.69 35.3644C2036.26 40.4072 2038.89 45.8242 2043.92 48.4298C2049.37 51.2563 2058.02 52.6751 2072.86 48.8908C2097.85 45.3304 2096.43 84.3131 2076.29 106.829C2062.2 121.439 2041.54 155.973 2071.63 177.227C2096.7 194.938 2051.92 250.985 1999.11 245.044C1992.03 244.194 1980.46 245.033 1990.79 255.195C2003.18 267.381 1919.99 289.066 1908.13 239.875C1907.08 235.537 1907.99 229.295 1903.67 228.145C1901.48 227.562 1898.02 227.87 1892.71 229.976C1877.01 236.199 1844.71 216.098 1867.34 185.874C1868.73 184.182 1870.58 171.565 1859.73 179.637C1846.7 189.328 1816.36 141.987 1883.76 139.951C1888.45 140.261 1894.8 138.388 1882.61 128.409C1867.39 115.935 1845.02 78.5283 1905.73 79.4886ZM1911.95 95.1884C1871.68 90.5365 1883.68 117.505 1896.86 134.577C1898.84 137.135 1901.2 139.366 1903.66 141.461C1912.04 148.59 1911.73 149.514 1910.3 148.969C1900.68 145.993 1883.05 146.902 1889.51 174.347C1897.58 208.653 1920.67 182.906 1934.06 176.913C1936.15 175.977 1937.85 175.483 1939.21 175.323C1946.56 174.469 1941.41 185.786 1937.19 191.853C1920.71 215.545 1927.85 224.396 1934.26 225.847C2025.42 251.754 2041.83 205.831 2036.07 194.748C2032.69 188.24 1978.62 156.166 2007.47 164.954C2030.54 171.985 2049.72 136.666 2056.43 118.127C2075.86 55.5864 2026.69 53.4792 2011.45 64.3186C1995.86 75.4053 1973.31 149.699 1973.34 103.073C1973.37 56.4476 1951.91 51.5872 1929.51 60.8066C1907.12 70.026 1966.19 101.453 1911.95 95.1884Z" fill="#909090"/>
<path d="M1964.12 177.512C1959.2 182.664 1945.8 196 1957.3 208.547" stroke="#3D3D3D" stroke-width="1.99713"/>
<path d="M1975.43 174.051L1979.8 195.5" stroke="#3D3D3D" stroke-width="1.99713"/>
<path d="M1981.67 166.445C1991.36 170.144 2006.8 183.5 2006.3 201.5" stroke="#3D3D3D" stroke-width="1.99713"/>
<path d="M1948.67 162.726C1942.05 166.492 1926.8 177 1911.8 168.047" stroke="#3D3D3D" stroke-width="1.99713"/>
<path d="M1945.44 153.727L1920.8 160.5" stroke="#3D3D3D" stroke-width="1.99713"/>
<path d="M1941.52 137.792C1931.45 138.017 1905.8 135.5 1902.8 120.547" stroke="#3D3D3D" stroke-width="1.99713"/>
<path d="M1945 125.793C1940.61 120.789 1932.8 110.5 1922.3 111.547" stroke="#3D3D3D" stroke-width="1.99713"/>
<path d="M1956.08 120.031C1958.16 109.722 1958.8 88 1951.3 82.5" stroke="#3D3D3D" stroke-width="1.99713"/>
<path d="M1993.45 144.294C2005.61 141.531 2033.8 133 2031.3 121.502" stroke="#3D3D3D" stroke-width="1.99713"/>
<path d="M2013.96 99.0594C2012.61 100.604 2010.81 103.603 2014.37 103.249C2018.82 102.807 2016.23 96.7203 2013.96 99.0594Z" fill="#3D3D3D" stroke="#3D3D3D" stroke-width="1.99713"/>
<path d="M1948.65 80.9383C1947.3 82.4824 1945.51 85.4822 1949.07 85.1284C1953.52 84.686 1950.93 78.5992 1948.65 80.9383Z" fill="#3D3D3D" stroke="#3D3D3D" stroke-width="1.99713"/>
<path d="M1925.03 110.393C1923.04 109.889 1919.55 109.636 1921.47 112.654C1923.88 116.427 1928.14 111.37 1925.03 110.393Z" fill="#3D3D3D" stroke="#3D3D3D" stroke-width="1.99713"/>
<path d="M1901.17 121.23C1902.96 122.22 1906.27 123.349 1905.18 119.943C1903.81 115.685 1898.4 119.496 1901.17 121.23Z" fill="#3D3D3D" stroke="#3D3D3D" stroke-width="1.99713"/>
<path d="M1918.99 158.122C1918.19 160.006 1917.4 163.416 1920.68 161.977C1924.77 160.179 1920.43 155.193 1918.99 158.122Z" fill="#3D3D3D" stroke="#3D3D3D" stroke-width="1.99713"/>
<path d="M1911.74 170.316C1913.71 169.761 1916.86 168.237 1913.69 166.582C1909.73 164.514 1908.56 171.025 1911.74 170.316Z" fill="#3D3D3D" stroke="#3D3D3D" stroke-width="1.99713"/>
<path d="M1954.7 206.232C1955.69 208.025 1957.89 210.743 1958.78 207.278C1959.89 202.945 1953.29 203.291 1954.7 206.232Z" fill="#3D3D3D" stroke="#3D3D3D" stroke-width="1.99713"/>
<path d="M1979.48 197.194C1981.5 196.817 1984.77 195.58 1981.76 193.649C1977.99 191.236 1976.25 197.617 1979.48 197.194Z" fill="#3D3D3D" stroke="#3D3D3D" stroke-width="1.99713"/>
<path d="M2007.03 201.772C2005.6 200.308 2002.75 198.274 2002.82 201.851C2002.9 206.323 2009.18 204.229 2007.03 201.772Z" fill="#3D3D3D" stroke="#3D3D3D" stroke-width="1.99713"/>
<path d="M2032.3 120.325C2032.81 118.341 2033.07 114.853 2030.04 116.769C2026.27 119.164 2031.32 123.437 2032.3 120.325Z" fill="#3D3D3D" stroke="#3D3D3D" stroke-width="1.99713"/>
<path d="M2003.4 123.896C2004.71 125.466 2007.39 127.712 2007.6 124.14C2007.86 119.675 2001.44 121.282 2003.4 123.896Z" fill="#3D3D3D" stroke="#3D3D3D" stroke-width="1.99713"/>
<path d="M1982.3 132C1989 121.232 2005.8 100 2014.3 99.4982M1988.15 137.823L2006.8 124" stroke="#3D3D3D" stroke-width="1.99713"/>
<path d="M128.861 835.003C143.777 831.887 173.904 818.765 175.085 791.205C176.266 763.645 144.761 808.92 128.861 835.003Z" fill="#3D3D3D"/>
<path d="M133.484 873.746C120.165 868.536 91.9782 852.39 85.7813 829.483C79.5844 806.577 115.001 849.448 133.484 873.746Z" fill="#3D3D3D"/>
<path d="M125.625 737.316C124.881 757.721 125.172 794.857 128.861 835.003M128.861 835.003C143.777 831.887 173.904 818.765 175.085 791.205C176.266 763.645 144.761 808.92 128.861 835.003ZM128.861 835.003C130.034 847.76 131.55 860.822 133.484 873.746M133.484 873.746C136.223 892.042 139.801 910.063 144.434 926.563C151.601 950.729 170.588 992.237 170.588 996.502M133.484 873.746C120.165 868.536 91.9782 852.39 85.7813 829.483C79.5844 806.577 115.001 849.448 133.484 873.746Z" stroke="#3D3D3D" stroke-width="1.99713"/>
<path fill-rule="evenodd" clip-rule="evenodd" d="M75.8597 645.824C73.3972 643.729 71.037 641.499 69.0611 638.94C55.8785 621.868 43.8763 594.9 84.1495 599.552C138.389 605.817 79.3175 574.389 101.713 565.17C124.108 555.95 145.571 560.811 145.543 607.437C145.515 654.063 168.064 579.769 183.652 568.682C198.893 557.842 248.057 559.95 228.63 622.491C221.925 641.029 202.745 676.349 179.667 669.318C150.82 660.529 204.886 692.603 208.271 699.111C214.035 710.194 197.619 756.117 106.46 730.21C100.055 728.76 92.9137 719.908 109.391 696.217C113.611 690.149 118.757 678.832 111.415 679.687C110.047 679.846 108.35 680.34 106.259 681.276C92.8675 687.269 69.7838 713.016 61.7118 678.71C55.2543 651.265 72.8807 650.356 82.5011 653.332C83.9301 653.877 84.2401 652.953 75.8597 645.824ZM132.11 683.369C117.148 683.36 107.664 648.5 116.682 621.961C119.922 607.652 170.219 644.614 170.907 651.539C171.595 658.464 155.422 683.383 132.11 683.369Z" fill="#DFDFDF"/>
<path d="M116.682 621.961C107.664 648.5 117.148 683.36 132.11 683.369C155.422 683.383 171.595 658.464 170.907 651.539C170.219 644.614 119.922 607.652 116.682 621.961Z" fill="#3D3D3D"/>
<path fill-rule="evenodd" clip-rule="evenodd" d="M77.9268 583.852C91.9358 584.073 80.6248 550.015 95.0312 544.853C113.039 538.401 127.334 564.954 160.138 519.733C168.009 510.934 187.521 503.712 205.888 539.728C208.459 544.77 211.095 550.187 216.121 552.793C221.572 555.62 230.225 557.038 245.06 553.254C270.049 549.694 268.629 588.676 248.487 611.192C234.398 625.802 213.742 660.336 243.828 681.59C268.9 699.302 224.117 755.349 171.309 749.408C164.231 748.557 152.659 749.396 162.993 759.559C175.385 771.744 92.194 793.429 80.3314 744.238C79.2853 739.9 80.1876 733.658 75.8759 732.509C73.6854 731.925 70.2236 732.233 64.9096 734.34C49.21 740.562 16.9072 720.461 39.546 690.237C40.9319 688.546 42.7862 675.928 31.9327 684.001C18.9032 693.691 -11.439 646.35 55.9621 644.314C60.6553 644.625 66.9964 642.751 54.815 632.772C39.5884 620.299 17.2213 582.892 77.9268 583.852ZM84.1495 599.552C43.8763 594.9 55.8785 621.868 69.0611 638.94C71.037 641.499 73.3972 643.729 75.8597 645.824C84.2401 652.953 83.9301 653.877 82.5011 653.332C72.8807 650.356 55.2543 651.265 61.7118 678.71C69.7838 713.016 92.8675 687.269 106.259 681.276C108.35 680.34 110.047 679.846 111.415 679.687C118.757 678.832 113.611 690.149 109.391 696.217C92.9137 719.908 100.055 728.76 106.46 730.21C197.619 756.117 214.035 710.194 208.271 699.111C204.886 692.603 150.82 660.529 179.667 669.318C202.745 676.349 221.925 641.029 228.63 622.491C248.057 559.95 198.893 557.842 183.652 568.682C168.064 579.769 145.515 654.063 145.543 607.437C145.571 560.811 124.108 555.95 101.713 565.17C79.3175 574.389 138.389 605.817 84.1495 599.552Z" fill="#909090"/>
<path d="M136.324 681.877C131.397 687.029 117 699.363 129.501 712.912" stroke="#3D3D3D" stroke-width="1.99713"/>
<path d="M147.635 678.414L151.999 699.863" stroke="#3D3D3D" stroke-width="1.99713"/>
<path d="M153.873 670.809C163.565 674.508 178 687.863 177.5 705.863" stroke="#3D3D3D" stroke-width="1.99713"/>
<path d="M120.87 667.092C114.251 670.858 100.001 682.316 85.0007 673.363" stroke="#3D3D3D" stroke-width="1.99713"/>
<path d="M117.64 658.092L93.999 664.363" stroke="#3D3D3D" stroke-width="1.99713"/>
<path d="M113.726 642.155C103.647 642.38 78 641.316 75 626.363" stroke="#3D3D3D" stroke-width="1.99713"/>
<path d="M117.198 630.156C112.815 625.153 105 614.863 94.5 615.91" stroke="#3D3D3D" stroke-width="1.99713"/>
<path d="M128.281 624.394C130.365 614.086 131 593.363 123.5 586.863" stroke="#3D3D3D" stroke-width="1.99713"/>
<path d="M165.656 648.657C177.814 645.895 207.001 638.363 203.501 625.865" stroke="#3D3D3D" stroke-width="1.99713"/>
<path d="M186.159 603.423C184.814 604.967 183.015 607.967 186.575 607.613C191.025 607.17 188.435 601.084 186.159 603.423Z" fill="#3D3D3D" stroke="#3D3D3D" stroke-width="1.99713"/>
<path d="M120.85 585.302C119.505 586.846 117.706 589.845 121.266 589.492C125.717 589.049 123.127 582.963 120.85 585.302Z" fill="#3D3D3D" stroke="#3D3D3D" stroke-width="1.99713"/>
<path d="M96.2266 614.756C94.242 614.252 90.7532 613.999 92.6746 617.017C95.0763 620.79 99.3409 615.733 96.2266 614.756Z" fill="#3D3D3D" stroke="#3D3D3D" stroke-width="1.99713"/>
<path d="M73.3687 625.593C75.1608 626.584 78.4716 627.713 77.3777 624.306C76.0104 620.048 70.6035 623.859 73.3687 625.593Z" fill="#3D3D3D" stroke="#3D3D3D" stroke-width="1.99713"/>
<path d="M91.1882 662.485C90.3875 664.37 89.605 667.779 92.881 666.341C96.976 664.543 92.6291 659.556 91.1882 662.485Z" fill="#3D3D3D" stroke="#3D3D3D" stroke-width="1.99713"/>
<path d="M83.9448 674.679C85.9156 674.124 89.0643 672.6 85.892 670.946C81.9267 668.877 80.7587 675.388 83.9448 674.679Z" fill="#3D3D3D" stroke="#3D3D3D" stroke-width="1.99713"/>
<path d="M126.906 710.595C127.895 712.388 130.096 715.107 130.985 711.641C132.095 707.309 125.489 707.655 126.906 710.595Z" fill="#3D3D3D" stroke="#3D3D3D" stroke-width="1.99713"/>
<path d="M151.685 700.557C153.698 700.18 156.97 698.943 153.957 697.012C150.192 694.599 148.449 700.98 151.685 700.557Z" fill="#3D3D3D" stroke="#3D3D3D" stroke-width="1.99713"/>
<path d="M179.229 706.136C177.798 704.671 174.952 702.637 175.02 706.215C175.103 710.686 181.378 708.592 179.229 706.136Z" fill="#3D3D3D" stroke="#3D3D3D" stroke-width="1.99713"/>
<path d="M204.5 624.688C205.008 622.704 205.267 619.216 202.246 621.132C198.469 623.527 203.518 627.801 204.5 624.688Z" fill="#3D3D3D" stroke="#3D3D3D" stroke-width="1.99713"/>
<path d="M175.599 628.26C176.914 629.829 179.596 632.075 179.803 628.503C180.061 624.038 173.644 625.645 175.599 628.26Z" fill="#3D3D3D" stroke="#3D3D3D" stroke-width="1.99713"/>
<path d="M154.499 636.365C161.2 625.597 178.999 604.363 186.499 603.863M160.355 642.188L177.999 628.863" stroke="#3D3D3D" stroke-width="1.99713"/>
<path d="M433.494 835.003C448.41 831.887 478.536 818.765 479.718 791.205C480.899 763.645 449.394 808.92 433.494 835.003Z" fill="#3D3D3D"/>
<path d="M438.117 873.746C424.798 868.536 396.611 852.39 390.414 829.483C384.217 806.577 419.634 849.448 438.117 873.746Z" fill="#3D3D3D"/>
<path d="M430.258 737.316C429.513 757.721 429.805 794.857 433.494 835.003M433.494 835.003C448.41 831.887 478.536 818.765 479.718 791.205C480.899 763.645 449.394 808.92 433.494 835.003ZM433.494 835.003C434.667 847.76 436.182 860.822 438.117 873.746M438.117 873.746C440.856 892.042 444.434 910.063 449.067 926.563C456.234 950.729 475.221 992.237 475.221 996.502M438.117 873.746C424.798 868.536 396.611 852.39 390.414 829.483C384.217 806.577 419.634 849.448 438.117 873.746Z" stroke="#3D3D3D" stroke-width="1.99713"/>
<path fill-rule="evenodd" clip-rule="evenodd" d="M380.493 645.824C378.03 643.729 375.67 641.499 373.694 638.94C360.511 621.868 348.509 594.9 388.782 599.552C443.022 605.817 383.95 574.389 406.346 565.17C428.741 555.95 450.204 560.811 450.176 607.437C450.148 654.063 472.696 579.769 488.285 568.682C503.526 557.842 552.689 559.95 533.263 622.491C526.558 641.029 507.378 676.349 484.3 669.318C455.453 660.529 509.519 692.603 512.904 699.111C518.668 710.194 502.252 756.117 411.093 730.21C404.687 728.76 397.547 719.908 414.024 696.217C418.244 690.149 423.39 678.832 416.048 679.687C414.68 679.846 412.983 680.34 410.892 681.276C397.5 687.269 374.417 713.016 366.345 678.71C359.887 651.265 377.514 650.356 387.134 653.332C388.563 653.877 388.873 652.953 380.493 645.824ZM436.742 683.369C421.781 683.36 412.296 648.5 421.315 621.961C424.555 607.652 474.851 644.614 475.54 651.539C476.228 658.464 460.055 683.383 436.742 683.369Z" fill="#DFDFDF"/>
<path d="M421.315 621.961C412.296 648.5 421.781 683.36 436.742 683.369C460.055 683.383 476.228 658.464 475.54 651.539C474.851 644.614 424.555 607.652 421.315 621.961Z" fill="#3D3D3D"/>
<path fill-rule="evenodd" clip-rule="evenodd" d="M382.56 583.852C396.569 584.073 385.258 550.015 399.664 544.853C417.672 538.401 431.967 564.954 464.771 519.733C472.642 510.934 492.153 503.712 510.52 539.728C513.092 544.77 515.728 550.187 520.753 552.793C526.205 555.62 534.858 557.038 549.693 553.254C574.682 549.694 573.261 588.676 553.12 611.192C539.031 625.802 518.375 660.336 548.461 681.59C573.533 699.302 528.75 755.349 475.942 749.408C468.864 748.557 457.292 749.396 467.626 759.559C480.018 771.744 396.827 793.429 384.964 744.238C383.918 739.9 384.82 733.658 380.509 732.509C378.318 731.925 374.856 732.233 369.542 734.34C353.843 740.562 321.54 720.461 344.179 690.237C345.565 688.546 347.419 675.928 336.565 684.001C323.536 693.691 293.194 646.35 360.595 644.314C365.288 644.625 371.629 642.751 359.448 632.772C344.221 620.299 321.854 582.892 382.56 583.852ZM388.782 599.552C348.509 594.9 360.511 621.868 373.694 638.94C375.67 641.499 378.03 643.729 380.493 645.824C388.873 652.953 388.563 653.877 387.134 653.332C377.514 650.356 359.887 651.265 366.345 678.71C374.417 713.016 397.5 687.269 410.892 681.276C412.983 680.34 414.68 679.846 416.048 679.687C423.39 678.832 418.244 690.149 414.024 696.217C397.547 719.908 404.687 728.76 411.093 730.21C502.252 756.117 518.668 710.194 512.904 699.111C509.519 692.603 455.453 660.529 484.3 669.318C507.378 676.349 526.558 641.029 533.263 622.491C552.689 559.95 503.526 557.842 488.285 568.682C472.696 579.769 450.148 654.063 450.176 607.437C450.204 560.811 428.741 555.95 406.346 565.17C383.95 574.389 443.022 605.817 388.782 599.552Z" fill="#909090"/>
<path d="M440.958 681.876C436.03 687.028 420.633 698.814 433.133 712.363" stroke="#3D3D3D" stroke-width="1.99713"/>
<path d="M452.268 678.414L456.632 699.863" stroke="#3D3D3D" stroke-width="1.99713"/>
<path d="M458.506 670.809C468.198 674.508 481.633 687.863 481.133 705.863" stroke="#3D3D3D" stroke-width="1.99713"/>
<path d="M425.503 667.089C418.884 670.855 405.134 683.316 390.134 674.363" stroke="#3D3D3D" stroke-width="1.99713"/>
<path d="M422.273 658.092L398.632 664.363" stroke="#3D3D3D" stroke-width="1.99713"/>
<path d="M418.359 642.155C408.279 642.38 381.633 641.363 379.633 626.363" stroke="#3D3D3D" stroke-width="1.99713"/>
<path d="M421.83 630.156C417.448 625.153 409.633 614.863 399.133 615.91" stroke="#3D3D3D" stroke-width="1.99713"/>
<path d="M432.914 624.394C434.997 614.086 434.633 593.863 427.133 587.363" stroke="#3D3D3D" stroke-width="1.99713"/>
<path d="M470.289 648.654C482.447 645.892 511.634 638.86 508.134 626.362" stroke="#3D3D3D" stroke-width="1.99713"/>
<path d="M490.791 603.423C489.447 604.967 487.648 607.967 491.208 607.613C495.658 607.17 493.068 601.084 490.791 603.423Z" fill="#3D3D3D" stroke="#3D3D3D" stroke-width="1.99713"/>
<path d="M425.483 585.302C424.138 586.846 422.339 589.845 425.899 589.492C430.35 589.049 427.759 582.963 425.483 585.302Z" fill="#3D3D3D" stroke="#3D3D3D" stroke-width="1.99713"/>
<path d="M401.859 614.756C399.875 614.252 396.386 613.999 398.307 617.017C400.709 620.79 404.974 615.733 401.859 614.756Z" fill="#3D3D3D" stroke="#3D3D3D" stroke-width="1.99713"/>
<path d="M378.001 625.593C379.794 626.584 383.104 627.713 382.011 624.306C380.643 620.048 375.236 623.859 378.001 625.593Z" fill="#3D3D3D" stroke="#3D3D3D" stroke-width="1.99713"/>
<path d="M396.821 662.485C396.02 664.37 395.238 667.779 398.514 666.341C402.609 664.543 398.262 659.556 396.821 662.485Z" fill="#3D3D3D" stroke="#3D3D3D" stroke-width="1.99713"/>
<path d="M388.578 674.679C390.548 674.124 393.697 672.6 390.525 670.946C386.56 668.877 385.392 675.388 388.578 674.679Z" fill="#3D3D3D" stroke="#3D3D3D" stroke-width="1.99713"/>
<path d="M431.539 710.595C432.528 712.388 434.729 715.107 435.618 711.641C436.728 707.309 430.122 707.655 431.539 710.595Z" fill="#3D3D3D" stroke="#3D3D3D" stroke-width="1.99713"/>
<path d="M456.318 699.557C458.331 699.18 461.603 697.943 458.59 696.012C454.825 693.599 453.082 699.98 456.318 699.557Z" fill="#3D3D3D" stroke="#3D3D3D" stroke-width="1.99713"/>
<path d="M483.862 706.136C482.431 704.671 479.585 702.637 479.652 706.215C479.736 710.686 486.011 708.592 483.862 706.136Z" fill="#3D3D3D" stroke="#3D3D3D" stroke-width="1.99713"/>
<path d="M509.133 625.688C509.641 623.704 509.9 620.216 506.878 622.132C503.101 624.527 508.151 628.801 509.133 625.688Z" fill="#3D3D3D" stroke="#3D3D3D" stroke-width="1.99713"/>
<path d="M480.232 628.26C481.547 629.829 484.229 632.075 484.435 628.503C484.694 624.038 478.277 625.645 480.232 628.26Z" fill="#3D3D3D" stroke="#3D3D3D" stroke-width="1.99713"/>
<path d="M459.133 636.367C465.834 625.599 483.633 605.365 491.134 604.865M464.989 642.19L481.633 627.863" stroke="#3D3D3D" stroke-width="1.99713"/>
<path d="M738.127 836.003C753.043 832.887 783.169 819.765 784.351 792.205C785.532 764.645 754.027 809.92 738.127 836.003Z" fill="#3D3D3D"/>
<path d="M742.75 874.746C729.431 869.536 701.244 853.39 695.047 830.483C688.85 807.577 724.267 850.448 742.75 874.746Z" fill="#3D3D3D"/>
<path d="M734.891 738.316C734.146 758.721 734.437 795.857 738.127 836.003M738.127 836.003C753.043 832.887 783.169 819.765 784.351 792.205C785.532 764.645 754.027 809.92 738.127 836.003ZM738.127 836.003C739.3 848.76 740.815 861.822 742.75 874.746M742.75 874.746C745.489 893.042 749.067 911.063 753.699 927.563C760.866 951.729 779.854 993.237 779.854 997.502M742.75 874.746C729.431 869.536 701.244 853.39 695.047 830.483C688.85 807.577 724.267 850.448 742.75 874.746Z" stroke="#3D3D3D" stroke-width="1.99713"/>
<path fill-rule="evenodd" clip-rule="evenodd" d="M685.125 646.824C682.663 644.729 680.303 642.499 678.327 639.94C665.144 622.868 653.142 595.9 693.415 600.552C747.654 606.817 688.583 575.389 710.978 566.17C733.374 556.95 754.837 561.811 754.809 608.437C754.781 655.063 777.329 580.769 792.918 569.682C808.159 558.842 857.322 560.95 837.895 623.491C831.19 642.029 812.011 677.349 788.933 670.318C760.086 661.529 814.152 693.603 817.537 700.111C823.301 711.194 806.884 757.117 715.726 731.21C709.32 729.76 702.179 720.908 718.657 697.217C722.877 691.149 728.022 679.832 720.681 680.687C719.313 680.846 717.616 681.34 715.524 682.276C702.133 688.269 679.049 714.016 670.977 679.71C664.52 652.265 682.146 651.356 691.767 654.332C693.196 654.877 693.506 653.953 685.125 646.824ZM741.375 684.369C726.413 684.36 716.929 649.5 725.947 622.961C729.188 608.652 779.484 645.614 780.172 652.539C780.861 659.464 764.688 684.383 741.375 684.369Z" fill="#DFDFDF"/>
<path d="M725.947 622.961C716.929 649.5 726.413 684.36 741.375 684.369C764.688 684.383 780.861 659.464 780.172 652.539C779.484 645.614 729.188 608.652 725.947 622.961Z" fill="#3D3D3D"/>
<path fill-rule="evenodd" clip-rule="evenodd" d="M687.192 584.852C701.201 585.073 689.89 551.015 704.297 545.853C722.305 539.401 736.6 565.954 769.404 520.733C777.275 511.934 796.786 504.712 815.153 540.728C817.725 545.77 820.361 551.187 825.386 553.793C830.837 556.62 839.491 558.038 854.326 554.254C879.315 550.694 877.894 589.676 857.753 612.192C843.664 626.802 823.008 661.336 853.094 682.59C878.166 700.302 833.383 756.349 780.575 750.408C773.497 749.557 761.924 750.396 772.259 760.559C784.651 772.744 701.46 794.429 689.597 745.238C688.551 740.9 689.453 734.658 685.142 733.509C682.951 732.925 679.489 733.233 674.175 735.34C658.476 741.562 626.173 721.461 648.812 691.237C650.198 689.546 652.052 676.928 641.198 685.001C628.169 694.691 597.827 647.35 665.228 645.314C669.921 645.625 676.262 643.751 664.081 633.772C648.854 621.299 626.487 583.892 687.192 584.852ZM693.415 600.552C653.142 595.9 665.144 622.868 678.327 639.94C680.303 642.499 682.663 644.729 685.125 646.824C693.506 653.953 693.196 654.877 691.767 654.332C682.146 651.356 664.52 652.265 670.977 679.71C679.049 714.016 702.133 688.269 715.524 682.276C717.616 681.34 719.313 680.846 720.681 680.687C728.022 679.832 722.877 691.149 718.657 697.217C702.179 720.908 709.32 729.76 715.726 731.21C806.884 757.117 823.301 711.194 817.537 700.111C814.152 693.603 760.086 661.529 788.933 670.318C812.011 677.349 831.19 642.029 837.895 623.491C857.322 560.95 808.159 558.842 792.918 569.682C777.329 580.769 754.781 655.063 754.809 608.437C754.837 561.811 733.374 556.95 710.978 566.17C688.583 575.389 747.654 606.817 693.415 600.552Z" fill="#909090"/>
<path d="M745.591 682.875C740.663 688.028 725.766 699.314 738.267 712.863" stroke="#3D3D3D" stroke-width="1.99713"/>
<path d="M756.9 679.414L761.265 700.863" stroke="#3D3D3D" stroke-width="1.99713"/>
<path d="M763.139 671.809C772.831 675.508 785.266 688.863 785.766 706.863" stroke="#3D3D3D" stroke-width="1.99713"/>
<path d="M730.136 668.089C723.517 671.855 708.766 683.816 693.766 674.863" stroke="#3D3D3D" stroke-width="1.99713"/>
<path d="M726.906 659.092L703.265 665.363" stroke="#3D3D3D" stroke-width="1.99713"/>
<path d="M722.992 643.155C712.912 643.38 686.266 641.363 684.266 626.363" stroke="#3D3D3D" stroke-width="1.99713"/>
<path d="M726.463 631.156C722.081 626.153 714.266 615.863 703.766 616.91" stroke="#3D3D3D" stroke-width="1.99713"/>
<path d="M737.547 625.394C739.63 615.086 740.266 594.363 731.766 588.363" stroke="#3D3D3D" stroke-width="1.99713"/>
<path d="M774.921 649.654C787.08 646.892 817.267 639.363 812.766 627.362" stroke="#3D3D3D" stroke-width="1.99713"/>
<path d="M795.424 604.423C794.08 605.967 792.28 608.967 795.841 608.613C800.291 608.17 797.701 602.084 795.424 604.423Z" fill="#3D3D3D" stroke="#3D3D3D" stroke-width="1.99713"/>
<path d="M730.116 586.302C728.771 587.846 726.972 590.845 730.532 590.492C734.982 590.049 732.392 583.963 730.116 586.302Z" fill="#3D3D3D" stroke="#3D3D3D" stroke-width="1.99713"/>
<path d="M707.49 615.756C705.506 615.252 702.017 614.999 703.938 618.017C706.34 621.79 710.605 616.733 707.49 615.756Z" fill="#3D3D3D" stroke="#3D3D3D" stroke-width="1.99713"/>
<path d="M682.634 626.593C684.426 627.584 687.737 628.713 686.643 625.306C685.276 621.048 679.869 624.859 682.634 626.593Z" fill="#3D3D3D" stroke="#3D3D3D" stroke-width="1.99713"/>
<path d="M702.454 663.485C701.653 665.37 700.871 668.779 704.147 667.341C708.242 665.543 703.895 660.556 702.454 663.485Z" fill="#3D3D3D" stroke="#3D3D3D" stroke-width="1.99713"/>
<path d="M693.21 675.679C695.181 675.124 698.33 673.6 695.158 671.946C691.192 669.877 690.024 676.388 693.21 675.679Z" fill="#3D3D3D" stroke="#3D3D3D" stroke-width="1.99713"/>
<path d="M736.172 711.595C737.161 713.388 739.362 716.107 740.25 712.641C741.361 708.309 734.755 708.655 736.172 711.595Z" fill="#3D3D3D" stroke="#3D3D3D" stroke-width="1.99713"/>
<path d="M760.951 700.557C762.963 700.18 766.235 698.943 763.223 697.012C759.458 694.599 757.714 700.98 760.951 700.557Z" fill="#3D3D3D" stroke="#3D3D3D" stroke-width="1.99713"/>
<path d="M788.495 707.136C787.064 705.671 784.218 703.637 784.285 707.215C784.369 711.686 790.644 709.592 788.495 707.136Z" fill="#3D3D3D" stroke="#3D3D3D" stroke-width="1.99713"/>
<path d="M813.766 626.688C814.273 624.704 814.533 621.216 811.511 623.132C807.734 625.527 812.784 629.801 813.766 626.688Z" fill="#3D3D3D" stroke="#3D3D3D" stroke-width="1.99713"/>
<path d="M784.864 629.26C786.18 630.829 788.861 633.075 789.068 629.503C789.327 625.038 782.91 626.645 784.864 629.26Z" fill="#3D3D3D" stroke="#3D3D3D" stroke-width="1.99713"/>
<path d="M763.764 637.365C770.465 626.597 787.265 606.363 795.765 605.864M770.265 643.863L786.909 629.537" stroke="#3D3D3D" stroke-width="1.99713"/>
<path d="M1042.76 836.003C1057.68 832.887 1087.8 819.765 1088.98 792.205C1090.16 764.645 1058.66 809.92 1042.76 836.003Z" fill="#3D3D3D"/>
<path d="M1047.38 874.746C1034.06 869.536 1005.88 853.39 999.68 830.483C993.483 807.577 1028.9 850.448 1047.38 874.746Z" fill="#3D3D3D"/>
<path d="M1039.52 738.316C1038.78 758.721 1039.07 795.857 1042.76 836.003M1042.76 836.003C1057.68 832.887 1087.8 819.765 1088.98 792.205C1090.16 764.645 1058.66 809.92 1042.76 836.003ZM1042.76 836.003C1043.93 848.76 1045.45 861.822 1047.38 874.746M1047.38 874.746C1050.12 893.042 1053.7 911.063 1058.33 927.563C1065.5 951.729 1084.49 993.237 1084.49 997.502M1047.38 874.746C1034.06 869.536 1005.88 853.39 999.68 830.483C993.483 807.577 1028.9 850.448 1047.38 874.746Z" stroke="#3D3D3D" stroke-width="1.99713"/>
<path fill-rule="evenodd" clip-rule="evenodd" d="M989.758 646.824C987.296 644.729 984.935 642.499 982.96 639.94C969.777 622.868 957.775 595.9 998.048 600.552C1052.29 606.817 993.216 575.389 1015.61 566.17C1038.01 556.95 1059.47 561.811 1059.44 608.437C1059.41 655.063 1081.96 580.769 1097.55 569.682C1112.79 558.842 1161.96 560.95 1142.53 623.491C1135.82 642.029 1116.64 677.349 1093.57 670.318C1064.72 661.529 1118.78 693.603 1122.17 700.111C1127.93 711.194 1111.52 757.117 1020.36 731.21C1013.95 729.76 1006.81 720.908 1023.29 697.217C1027.51 691.149 1032.66 679.832 1025.31 680.687C1023.95 680.846 1022.25 681.34 1020.16 682.276C1006.77 688.269 983.682 714.016 975.61 679.71C969.153 652.265 986.779 651.356 996.4 654.332C997.829 654.877 998.139 653.953 989.758 646.824ZM1046.01 684.369C1031.05 684.36 1021.56 649.5 1030.58 622.961C1033.82 608.652 1084.12 645.614 1084.81 652.539C1085.49 659.464 1069.32 684.383 1046.01 684.369Z" fill="#DFDFDF"/>
<path d="M1030.58 622.961C1021.56 649.5 1031.05 684.36 1046.01 684.369C1069.32 684.383 1085.49 659.464 1084.81 652.539C1084.12 645.614 1033.82 608.652 1030.58 622.961Z" fill="#3D3D3D"/>
<path fill-rule="evenodd" clip-rule="evenodd" d="M991.825 584.852C1005.83 585.073 994.523 551.015 1008.93 545.853C1026.94 539.401 1041.23 565.954 1074.04 520.733C1081.91 511.934 1101.42 504.712 1119.79 540.728C1122.36 545.77 1124.99 551.187 1130.02 553.793C1135.47 556.62 1144.12 558.038 1158.96 554.254C1183.95 550.694 1182.53 589.676 1162.39 612.192C1148.3 626.802 1127.64 661.336 1157.73 682.59C1182.8 700.302 1138.02 756.349 1085.21 750.408C1078.13 749.557 1066.56 750.396 1076.89 760.559C1089.28 772.744 1006.09 794.429 994.23 745.238C993.184 740.9 994.086 734.658 989.774 733.509C987.584 732.925 984.122 733.233 978.808 735.34C963.108 741.562 930.806 721.461 953.444 691.237C954.83 689.546 956.685 676.928 945.831 685.001C932.802 694.691 902.459 647.35 969.861 645.314C974.554 645.625 980.895 643.751 968.713 633.772C953.487 621.299 931.12 583.892 991.825 584.852ZM998.048 600.552C957.775 595.9 969.777 622.868 982.96 639.94C984.935 642.499 987.296 644.729 989.758 646.824C998.139 653.953 997.829 654.877 996.4 654.332C986.779 651.356 969.153 652.265 975.61 679.71C983.682 714.016 1006.77 688.269 1020.16 682.276C1022.25 681.34 1023.95 680.846 1025.31 680.687C1032.66 679.832 1027.51 691.149 1023.29 697.217C1006.81 720.908 1013.95 729.76 1020.36 731.21C1111.52 757.117 1127.93 711.194 1122.17 700.111C1118.78 693.603 1064.72 661.529 1093.57 670.318C1116.64 677.349 1135.82 642.029 1142.53 623.491C1161.96 560.95 1112.79 558.842 1097.55 569.682C1081.96 580.769 1059.41 655.063 1059.44 608.437C1059.47 561.811 1038.01 556.95 1015.61 566.17C993.216 575.389 1052.29 606.817 998.048 600.552Z" fill="#909090"/>
<path d="M1050.22 682.876C1045.29 688.028 1029.9 698.863 1042.9 712.864" stroke="#3D3D3D" stroke-width="1.99713"/>
<path d="M1061.53 679.414L1065.9 700.863" stroke="#3D3D3D" stroke-width="1.99713"/>
<path d="M1067.77 671.809C1077.46 675.508 1089.9 687.863 1090.4 706.863" stroke="#3D3D3D" stroke-width="1.99713"/>
<path d="M1034.77 668.089C1028.15 671.855 1013.9 684.363 998.399 674.863" stroke="#3D3D3D" stroke-width="1.99713"/>
<path d="M1031.54 659.092L1007.9 665.363" stroke="#3D3D3D" stroke-width="1.99713"/>
<path d="M1027.63 643.155C1017.55 643.379 989.899 641.363 988.899 626.363" stroke="#3D3D3D" stroke-width="1.99713"/>
<path d="M1031.1 631.156C1026.71 626.153 1018.9 615.863 1008.4 616.91" stroke="#3D3D3D" stroke-width="1.99713"/>
<path d="M1042.18 625.394C1044.26 615.086 1045.9 593.363 1036.4 588.363" stroke="#3D3D3D" stroke-width="1.99713"/>
<path d="M1079.55 649.657C1091.71 646.895 1120.9 639.364 1116.4 627.363" stroke="#3D3D3D" stroke-width="1.99713"/>
<path d="M1099.06 604.423C1097.71 605.967 1095.91 608.967 1099.47 608.613C1103.92 608.17 1101.33 602.084 1099.06 604.423Z" fill="#3D3D3D" stroke="#3D3D3D" stroke-width="1.99713"/>
<path d="M1034.75 586.302C1033.4 587.846 1031.6 590.845 1035.16 590.492C1039.62 590.049 1037.03 583.963 1034.75 586.302Z" fill="#3D3D3D" stroke="#3D3D3D" stroke-width="1.99713"/>
<path d="M1013.12 615.756C1011.14 615.252 1007.65 614.999 1009.57 618.017C1011.97 621.79 1016.24 616.733 1013.12 615.756Z" fill="#3D3D3D" stroke="#3D3D3D" stroke-width="1.99713"/>
<path d="M987.267 626.593C989.059 627.584 992.37 628.713 991.276 625.306C989.909 621.048 984.502 624.859 987.267 626.593Z" fill="#3D3D3D" stroke="#3D3D3D" stroke-width="1.99713"/>
<path d="M1008.09 663.485C1007.29 665.37 1006.5 668.779 1009.78 667.341C1013.87 665.543 1009.53 660.556 1008.09 663.485Z" fill="#3D3D3D" stroke="#3D3D3D" stroke-width="1.99713"/>
<path d="M997.845 676.679C999.816 676.124 1002.96 674.6 999.792 672.946C995.827 670.877 994.659 677.388 997.845 676.679Z" fill="#3D3D3D" stroke="#3D3D3D" stroke-width="1.99713"/>
<path d="M1040.8 711.595C1041.79 713.388 1043.99 716.107 1044.88 712.641C1045.99 708.309 1039.39 708.655 1040.8 711.595Z" fill="#3D3D3D" stroke="#3D3D3D" stroke-width="1.99713"/>
<path d="M1064.58 700.557C1066.6 700.18 1069.87 698.943 1066.86 697.012C1063.09 694.599 1061.35 700.98 1064.58 700.557Z" fill="#3D3D3D" stroke="#3D3D3D" stroke-width="1.99713"/>
<path d="M1093.13 707.136C1091.7 705.671 1088.85 703.637 1088.92 707.215C1089 711.686 1095.28 709.592 1093.13 707.136Z" fill="#3D3D3D" stroke="#3D3D3D" stroke-width="1.99713"/>
<path d="M1118.4 626.688C1118.91 624.704 1119.17 621.216 1116.14 623.132C1112.37 625.527 1117.42 629.801 1118.4 626.688Z" fill="#3D3D3D" stroke="#3D3D3D" stroke-width="1.99713"/>
<path d="M1089.5 630.26C1090.81 631.829 1093.49 634.075 1093.7 630.503C1093.96 626.038 1087.54 627.645 1089.5 630.26Z" fill="#3D3D3D" stroke="#3D3D3D" stroke-width="1.99713"/>
<path d="M1068.4 637.363C1075.1 626.596 1091.9 607.362 1100.4 606.862M1074.9 643.862L1091.54 629.535" stroke="#3D3D3D" stroke-width="1.99713"/>
<path d="M1347.39 836.003C1362.31 832.887 1392.43 819.765 1393.62 792.205C1394.8 764.645 1363.29 809.92 1347.39 836.003Z" fill="#3D3D3D"/>
<path d="M1352.02 874.746C1338.7 869.536 1310.51 853.39 1304.31 830.483C1298.12 807.577 1333.53 850.448 1352.02 874.746Z" fill="#3D3D3D"/>
<path d="M1344.16 738.316C1343.41 758.721 1343.7 795.857 1347.39 836.003M1347.39 836.003C1362.31 832.887 1392.43 819.765 1393.62 792.205C1394.8 764.645 1363.29 809.92 1347.39 836.003ZM1347.39 836.003C1348.57 848.76 1350.08 861.822 1352.02 874.746M1352.02 874.746C1354.75 893.042 1358.33 911.063 1362.97 927.563C1370.13 951.729 1389.12 993.237 1389.12 997.502M1352.02 874.746C1338.7 869.536 1310.51 853.39 1304.31 830.483C1298.12 807.577 1333.53 850.448 1352.02 874.746Z" stroke="#3D3D3D" stroke-width="1.99713"/>
<path fill-rule="evenodd" clip-rule="evenodd" d="M1294.39 646.824C1291.93 644.729 1289.57 642.499 1287.59 639.94C1274.41 622.868 1262.41 595.9 1302.68 600.552C1356.92 606.817 1297.85 575.389 1320.24 566.17C1342.64 556.95 1364.1 561.811 1364.07 608.437C1364.05 655.063 1386.59 580.769 1402.18 569.682C1417.42 558.842 1466.59 560.95 1447.16 623.491C1440.46 642.029 1421.28 677.349 1398.2 670.318C1369.35 661.529 1423.42 693.603 1426.8 700.111C1432.57 711.194 1416.15 757.117 1324.99 731.21C1318.59 729.76 1311.44 720.908 1327.92 697.217C1332.14 691.149 1337.29 679.832 1329.95 680.687C1328.58 680.846 1326.88 681.34 1324.79 682.276C1311.4 688.269 1288.32 714.016 1280.24 679.71C1273.79 652.265 1291.41 651.356 1301.03 654.332C1302.46 654.877 1302.77 653.953 1294.39 646.824ZM1350.64 684.369C1335.68 684.36 1326.19 649.5 1335.21 622.961C1338.45 608.652 1388.75 645.614 1389.44 652.539C1390.13 659.464 1373.95 684.383 1350.64 684.369Z" fill="#DFDFDF"/>
<path d="M1335.21 622.961C1326.19 649.5 1335.68 684.36 1350.64 684.369C1373.95 684.383 1390.13 659.464 1389.44 652.539C1388.75 645.614 1338.45 608.652 1335.21 622.961Z" fill="#3D3D3D"/>
<path fill-rule="evenodd" clip-rule="evenodd" d="M1296.46 584.852C1310.47 585.073 1299.16 551.015 1313.56 545.853C1331.57 539.401 1345.87 565.954 1378.67 520.733C1386.54 511.934 1406.05 504.712 1424.42 540.728C1426.99 545.77 1429.63 551.187 1434.65 553.793C1440.1 556.62 1448.76 558.038 1463.59 554.254C1488.58 550.694 1487.16 589.676 1467.02 612.192C1452.93 626.802 1432.27 661.336 1462.36 682.59C1487.43 700.302 1442.65 756.349 1389.84 750.408C1382.76 749.557 1371.19 750.396 1381.52 760.559C1393.92 772.744 1310.73 794.429 1298.86 745.238C1297.82 740.9 1298.72 734.658 1294.41 733.509C1292.22 732.925 1288.75 733.233 1283.44 735.34C1267.74 741.562 1235.44 721.461 1258.08 691.237C1259.46 689.546 1261.32 676.928 1250.46 685.001C1237.43 694.691 1207.09 647.35 1274.49 645.314C1279.19 645.625 1285.53 643.751 1273.35 633.772C1258.12 621.299 1235.75 583.892 1296.46 584.852ZM1302.68 600.552C1262.41 595.9 1274.41 622.868 1287.59 639.94C1289.57 642.499 1291.93 644.729 1294.39 646.824C1302.77 653.953 1302.46 654.877 1301.03 654.332C1291.41 651.356 1273.79 652.265 1280.24 679.71C1288.32 714.016 1311.4 688.269 1324.79 682.276C1326.88 681.34 1328.58 680.846 1329.95 680.687C1337.29 679.832 1332.14 691.149 1327.92 697.217C1311.44 720.908 1318.59 729.76 1324.99 731.21C1416.15 757.117 1432.57 711.194 1426.8 700.111C1423.42 693.603 1369.35 661.529 1398.2 670.318C1421.28 677.349 1440.46 642.029 1447.16 623.491C1466.59 560.95 1417.42 558.842 1402.18 569.682C1386.59 580.769 1364.05 655.063 1364.07 608.437C1364.1 561.811 1342.64 556.95 1320.24 566.17C1297.85 575.389 1356.92 606.817 1302.68 600.552Z" fill="#909090"/>
<path d="M1354.86 682.877C1349.93 688.029 1334.53 697.863 1347.53 711.863" stroke="#3D3D3D" stroke-width="1.99713"/>
<path d="M1366.17 679.414L1370.53 700.863" stroke="#3D3D3D" stroke-width="1.99713"/>
<path d="M1372.4 671.809C1382.1 675.508 1395.03 688.363 1395.53 707.363" stroke="#3D3D3D" stroke-width="1.99713"/>
<path d="M1339.4 668.09C1332.78 671.856 1319.03 684.863 1303.53 675.363" stroke="#3D3D3D" stroke-width="1.99713"/>
<path d="M1336.17 659.092L1312.53 665.363" stroke="#3D3D3D" stroke-width="1.99713"/>
<path d="M1332.26 643.156C1322.18 643.381 1293.53 641.367 1292.53 626.367" stroke="#3D3D3D" stroke-width="1.99713"/>
<path d="M1335.73 631.156C1331.35 626.153 1323.53 615.863 1313.03 616.91" stroke="#3D3D3D" stroke-width="1.99713"/>
<path d="M1346.81 625.394C1348.9 615.086 1349.03 593.363 1339.53 588.363" stroke="#3D3D3D" stroke-width="1.99713"/>
<path d="M1384.19 649.657C1396.34 646.895 1426.03 638.864 1421.53 626.863" stroke="#3D3D3D" stroke-width="1.99713"/>
<path d="M1403.69 604.423C1402.35 605.967 1400.55 608.967 1404.11 608.613C1408.56 608.17 1405.97 602.084 1403.69 604.423Z" fill="#3D3D3D" stroke="#3D3D3D" stroke-width="1.99713"/>
<path d="M1339.38 586.302C1338.04 587.846 1336.24 590.845 1339.8 590.492C1344.25 590.049 1341.66 583.963 1339.38 586.302Z" fill="#3D3D3D" stroke="#3D3D3D" stroke-width="1.99713"/>
<path d="M1317.76 615.756C1315.77 615.252 1312.28 614.999 1314.21 618.017C1316.61 621.79 1320.87 616.733 1317.76 615.756Z" fill="#3D3D3D" stroke="#3D3D3D" stroke-width="1.99713"/>
<path d="M1291.9 626.593C1293.69 627.584 1297 628.713 1295.91 625.306C1294.54 621.048 1289.13 624.859 1291.9 626.593Z" fill="#3D3D3D" stroke="#3D3D3D" stroke-width="1.99713"/>
<path d="M1313.72 663.485C1312.92 665.37 1312.14 668.779 1315.41 667.341C1319.51 665.543 1315.16 660.556 1313.72 663.485Z" fill="#3D3D3D" stroke="#3D3D3D" stroke-width="1.99713"/>
<path d="M1302.48 676.679C1304.45 676.124 1307.6 674.6 1304.43 672.946C1300.46 670.877 1299.29 677.388 1302.48 676.679Z" fill="#3D3D3D" stroke="#3D3D3D" stroke-width="1.99713"/>
<path d="M1345.44 711.595C1346.43 713.388 1348.63 716.107 1349.52 712.641C1350.63 708.309 1344.02 708.655 1345.44 711.595Z" fill="#3D3D3D" stroke="#3D3D3D" stroke-width="1.99713"/>
<path d="M1369.22 700.557C1371.23 700.18 1374.5 698.943 1371.49 697.012C1367.72 694.599 1365.98 700.98 1369.22 700.557Z" fill="#3D3D3D" stroke="#3D3D3D" stroke-width="1.99713"/>
<path d="M1397.76 707.136C1396.33 705.671 1393.48 703.637 1393.55 707.215C1393.63 711.686 1399.91 709.592 1397.76 707.136Z" fill="#3D3D3D" stroke="#3D3D3D" stroke-width="1.99713"/>
<path d="M1423.03 626.688C1423.54 624.704 1423.8 621.216 1420.78 623.132C1417 625.527 1422.05 629.801 1423.03 626.688Z" fill="#3D3D3D" stroke="#3D3D3D" stroke-width="1.99713"/>
<path d="M1394.13 630.26C1395.45 631.829 1398.13 634.075 1398.33 630.503C1398.59 626.038 1392.18 627.645 1394.13 630.26Z" fill="#3D3D3D" stroke="#3D3D3D" stroke-width="1.99713"/>
<path d="M1373.03 637.367C1379.73 626.599 1395.03 607.365 1403.53 606.865M1379.53 643.865L1396.03 630.363" stroke="#3D3D3D" stroke-width="1.99713"/>
<path d="M1652.03 836.003C1666.94 832.887 1697.07 819.765 1698.25 792.205C1699.43 764.645 1667.93 809.92 1652.03 836.003Z" fill="#3D3D3D"/>
<path d="M1656.65 874.746C1643.33 869.536 1615.14 853.39 1608.95 830.483C1602.75 807.577 1638.17 850.448 1656.65 874.746Z" fill="#3D3D3D"/>
<path d="M1648.79 738.316C1648.04 758.721 1648.34 795.857 1652.03 836.003M1652.03 836.003C1666.94 832.887 1697.07 819.765 1698.25 792.205C1699.43 764.645 1667.93 809.92 1652.03 836.003ZM1652.03 836.003C1653.2 848.76 1654.71 861.822 1656.65 874.746M1656.65 874.746C1659.39 893.042 1662.97 911.063 1667.6 927.563C1674.76 951.729 1693.75 993.237 1693.75 997.502M1656.65 874.746C1643.33 869.536 1615.14 853.39 1608.95 830.483C1602.75 807.577 1638.17 850.448 1656.65 874.746Z" stroke="#3D3D3D" stroke-width="1.99713"/>
<path fill-rule="evenodd" clip-rule="evenodd" d="M1599.02 646.824C1596.56 644.729 1594.2 642.499 1592.23 639.94C1579.04 622.868 1567.04 595.9 1607.31 600.552C1661.55 606.817 1602.48 575.389 1624.88 566.17C1647.27 556.95 1668.74 561.811 1668.71 608.437C1668.68 655.063 1691.23 580.769 1706.82 569.682C1722.06 558.842 1771.22 560.95 1751.79 623.491C1745.09 642.029 1725.91 677.349 1702.83 670.318C1673.98 661.529 1728.05 693.603 1731.44 700.111C1737.2 711.194 1720.78 757.117 1629.62 731.21C1623.22 729.76 1616.08 720.908 1632.55 697.217C1636.78 691.149 1641.92 679.832 1634.58 680.687C1633.21 680.846 1631.51 681.34 1629.42 682.276C1616.03 688.269 1592.95 714.016 1584.88 679.71C1578.42 652.265 1596.04 651.356 1605.67 654.332C1607.09 654.877 1607.4 653.953 1599.02 646.824ZM1655.27 684.369C1640.31 684.36 1630.83 649.5 1639.85 622.961C1643.09 608.652 1693.38 645.614 1694.07 652.539C1694.76 659.464 1678.59 684.383 1655.27 684.369Z" fill="#DFDFDF"/>
<path d="M1639.85 622.961C1630.83 649.5 1640.31 684.36 1655.27 684.369C1678.59 684.383 1694.76 659.464 1694.07 652.539C1693.38 645.614 1643.09 608.652 1639.85 622.961Z" fill="#3D3D3D"/>
<path fill-rule="evenodd" clip-rule="evenodd" d="M1601.09 584.852C1615.1 585.073 1603.79 551.015 1618.2 545.853C1636.2 539.401 1650.5 565.954 1683.3 520.733C1691.17 511.934 1710.68 504.712 1729.05 540.728C1731.62 545.77 1734.26 551.187 1739.28 553.793C1744.74 556.62 1753.39 558.038 1768.22 554.254C1793.21 550.694 1791.79 589.676 1771.65 612.192C1757.56 626.802 1736.91 661.336 1766.99 682.59C1792.06 700.302 1747.28 756.349 1694.47 750.408C1687.4 749.557 1675.82 750.396 1686.16 760.559C1698.55 772.744 1615.36 794.429 1603.5 745.238C1602.45 740.9 1603.35 734.658 1599.04 733.509C1596.85 732.925 1593.39 733.233 1588.07 735.34C1572.37 741.562 1540.07 721.461 1562.71 691.237C1564.1 689.546 1565.95 676.928 1555.1 685.001C1542.07 694.691 1511.73 647.35 1579.13 645.314C1583.82 645.625 1590.16 643.751 1577.98 633.772C1562.75 621.299 1540.39 583.892 1601.09 584.852ZM1607.31 600.552C1567.04 595.9 1579.04 622.868 1592.23 639.94C1594.2 642.499 1596.56 644.729 1599.02 646.824C1607.4 653.953 1607.09 654.877 1605.67 654.332C1596.04 651.356 1578.42 652.265 1584.88 679.71C1592.95 714.016 1616.03 688.269 1629.42 682.276C1631.51 681.34 1633.21 680.846 1634.58 680.687C1641.92 679.832 1636.78 691.149 1632.55 697.217C1616.08 720.908 1623.22 729.76 1629.62 731.21C1720.78 757.117 1737.2 711.194 1731.44 700.111C1728.05 693.603 1673.98 661.529 1702.83 670.318C1725.91 677.349 1745.09 642.029 1751.79 623.491C1771.22 560.95 1722.06 558.842 1706.82 569.682C1691.23 580.769 1668.68 655.063 1668.71 608.437C1668.74 561.811 1647.27 556.95 1624.88 566.17C1602.48 575.389 1661.55 606.817 1607.31 600.552Z" fill="#909090"/>
<path d="M1659.49 682.877C1654.56 688.029 1639.16 697.863 1652.17 711.863" stroke="#3D3D3D" stroke-width="1.99713"/>
<path d="M1670.8 679.414L1675.16 697.363" stroke="#3D3D3D" stroke-width="1.99713"/>
<path d="M1677.04 671.809C1686.73 675.508 1699.66 688.363 1700.16 707.363" stroke="#3D3D3D" stroke-width="1.99713"/>
<path d="M1644.03 668.092C1637.42 671.858 1623.16 684.863 1607.66 675.363" stroke="#3D3D3D" stroke-width="1.99713"/>
<path d="M1640.81 659.093L1617.66 666.363" stroke="#3D3D3D" stroke-width="1.99713"/>
<path d="M1636.89 643.156C1626.81 643.38 1599.17 641.367 1598.16 626.367" stroke="#3D3D3D" stroke-width="1.99713"/>
<path d="M1640.36 631.156C1635.98 626.153 1631.16 616.316 1620.66 617.363" stroke="#3D3D3D" stroke-width="1.99713"/>
<path d="M1651.45 625.394C1653.53 615.086 1654.66 592.363 1644.16 588.363" stroke="#3D3D3D" stroke-width="1.99713"/>
<path d="M1688.82 649.658C1700.98 646.895 1731.16 639.863 1726.16 626.863" stroke="#3D3D3D" stroke-width="1.99713"/>
<path d="M1707.32 604.423C1705.98 605.967 1704.18 608.967 1707.74 608.613C1712.19 608.17 1709.6 602.084 1707.32 604.423Z" fill="#3D3D3D" stroke="#3D3D3D" stroke-width="1.99713"/>
<path d="M1644.01 586.302C1642.67 587.846 1640.87 590.845 1644.43 590.492C1648.88 590.049 1646.29 583.963 1644.01 586.302Z" fill="#3D3D3D" stroke="#3D3D3D" stroke-width="1.99713"/>
<path d="M1623.39 615.756C1621.4 615.252 1617.92 614.999 1619.84 618.017C1622.24 621.79 1626.5 616.733 1623.39 615.756Z" fill="#3D3D3D" stroke="#3D3D3D" stroke-width="1.99713"/>
<path d="M1596.53 626.593C1598.32 627.584 1601.64 628.713 1600.54 625.306C1599.17 621.048 1593.77 624.859 1596.53 626.593Z" fill="#3D3D3D" stroke="#3D3D3D" stroke-width="1.99713"/>
<path d="M1618.35 663.485C1617.55 665.37 1616.77 668.779 1620.05 667.341C1624.14 665.543 1619.79 660.556 1618.35 663.485Z" fill="#3D3D3D" stroke="#3D3D3D" stroke-width="1.99713"/>
<path d="M1607.11 676.679C1609.08 676.124 1612.23 674.6 1609.06 672.946C1605.09 670.877 1603.92 677.388 1607.11 676.679Z" fill="#3D3D3D" stroke="#3D3D3D" stroke-width="1.99713"/>
<path d="M1649.07 711.595C1650.06 713.388 1652.26 716.107 1653.15 712.641C1654.26 708.309 1647.65 708.655 1649.07 711.595Z" fill="#3D3D3D" stroke="#3D3D3D" stroke-width="1.99713"/>
<path d="M1673.85 698.557C1675.86 698.18 1679.13 696.943 1676.12 695.012C1672.36 692.599 1670.61 698.98 1673.85 698.557Z" fill="#3D3D3D" stroke="#3D3D3D" stroke-width="1.99713"/>
<path d="M1702.39 706.136C1700.96 704.671 1698.12 702.637 1698.18 706.215C1698.27 710.686 1704.54 708.592 1702.39 706.136Z" fill="#3D3D3D" stroke="#3D3D3D" stroke-width="1.99713"/>
<path d="M1727.66 626.688C1728.17 624.704 1728.43 621.216 1725.41 623.132C1721.63 625.527 1726.68 629.801 1727.66 626.688Z" fill="#3D3D3D" stroke="#3D3D3D" stroke-width="1.99713"/>
<path d="M1698.76 630.26C1700.08 631.829 1702.76 634.075 1702.97 630.503C1703.23 626.038 1696.81 627.645 1698.76 630.26Z" fill="#3D3D3D" stroke="#3D3D3D" stroke-width="1.99713"/>
<path d="M1677.66 637.367C1684.36 626.599 1699.66 607.365 1708.16 606.865M1684.16 643.865L1699.66 630.363" stroke="#3D3D3D" stroke-width="1.99713"/>
<path d="M1956.66 836.003C1971.57 832.887 2001.7 819.765 2002.88 792.205C2004.06 764.645 1972.56 809.92 1956.66 836.003Z" fill="#3D3D3D"/>
<path d="M1961.28 874.746C1947.96 869.536 1919.78 853.39 1913.58 830.483C1907.38 807.577 1942.8 850.448 1961.28 874.746Z" fill="#3D3D3D"/>
<path d="M1953.42 738.316C1952.68 758.721 1952.97 795.857 1956.66 836.003M1956.66 836.003C1971.57 832.887 2001.7 819.765 2002.88 792.205C2004.06 764.645 1972.56 809.92 1956.66 836.003ZM1956.66 836.003C1957.83 848.76 1959.35 861.822 1961.28 874.746M1961.28 874.746C1964.02 893.042 1967.6 911.063 1972.23 927.563C1979.4 951.729 1998.38 993.237 1998.38 997.502M1961.28 874.746C1947.96 869.536 1919.78 853.39 1913.58 830.483C1907.38 807.577 1942.8 850.448 1961.28 874.746Z" stroke="#3D3D3D" stroke-width="1.99713"/>
<path fill-rule="evenodd" clip-rule="evenodd" d="M1903.66 646.824C1901.19 644.729 1898.83 642.499 1896.86 639.94C1883.68 622.868 1871.67 595.9 1911.95 600.552C1966.19 606.817 1907.11 575.389 1929.51 566.17C1951.9 556.95 1973.37 561.811 1973.34 608.437C1973.31 655.063 1995.86 580.769 2011.45 569.682C2026.69 558.842 2075.85 560.95 2056.43 623.491C2049.72 642.029 2030.54 677.349 2007.46 670.318C1978.62 661.529 2032.68 693.603 2036.07 700.111C2041.83 711.194 2025.42 757.117 1934.26 731.21C1927.85 729.76 1920.71 720.908 1937.19 697.217C1941.41 691.149 1946.55 679.832 1939.21 680.687C1937.84 680.846 1936.15 681.34 1934.06 682.276C1920.66 688.269 1897.58 714.016 1889.51 679.71C1883.05 652.265 1900.68 651.356 1910.3 654.332C1911.73 654.877 1912.04 653.953 1903.66 646.824ZM1959.91 684.369C1944.94 684.36 1935.46 649.5 1944.48 622.961C1947.72 608.652 1998.02 645.614 1998.7 652.539C1999.39 659.464 1983.22 684.383 1959.91 684.369Z" fill="#DFDFDF"/>
<path d="M1944.48 622.961C1935.46 649.5 1944.94 684.36 1959.91 684.369C1983.22 684.383 1999.39 659.464 1998.7 652.539C1998.02 645.614 1947.72 608.652 1944.48 622.961Z" fill="#3D3D3D"/>
<path fill-rule="evenodd" clip-rule="evenodd" d="M1905.72 584.852C1919.73 585.073 1908.42 551.015 1922.83 545.853C1940.84 539.401 1955.13 565.954 1987.93 520.733C1995.81 511.934 2015.32 504.712 2033.68 540.728C2036.26 545.77 2038.89 551.187 2043.92 553.793C2049.37 556.62 2058.02 558.038 2072.86 554.254C2097.85 550.694 2096.43 589.676 2076.28 612.192C2062.2 626.802 2041.54 661.336 2071.63 682.59C2096.7 700.302 2051.91 756.349 1999.11 750.408C1992.03 749.557 1980.46 750.396 1990.79 760.559C2003.18 772.744 1919.99 794.429 1908.13 745.238C1907.08 740.9 1907.98 734.658 1903.67 733.509C1901.48 732.925 1898.02 733.233 1892.71 735.34C1877.01 741.562 1844.7 721.461 1867.34 691.237C1868.73 689.546 1870.58 676.928 1859.73 685.001C1846.7 694.691 1816.36 647.35 1883.76 645.314C1888.45 645.625 1894.79 643.751 1882.61 633.772C1867.39 621.299 1845.02 583.892 1905.72 584.852ZM1911.95 600.552C1871.67 595.9 1883.68 622.868 1896.86 639.94C1898.83 642.499 1901.19 644.729 1903.66 646.824C1912.04 653.953 1911.73 654.877 1910.3 654.332C1900.68 651.356 1883.05 652.265 1889.51 679.71C1897.58 714.016 1920.66 688.269 1934.06 682.276C1936.15 681.34 1937.84 680.846 1939.21 680.687C1946.55 679.832 1941.41 691.149 1937.19 697.217C1920.71 720.908 1927.85 729.76 1934.26 731.21C2025.42 757.117 2041.83 711.194 2036.07 700.111C2032.68 693.603 1978.62 661.529 2007.46 670.318C2030.54 677.349 2049.72 642.029 2056.43 623.491C2075.85 560.95 2026.69 558.842 2011.45 569.682C1995.86 580.769 1973.31 655.063 1973.34 608.437C1973.37 561.811 1951.9 556.95 1929.51 566.17C1907.11 575.389 1966.19 606.817 1911.95 600.552Z" fill="#909090"/>
<path d="M1964.12 682.876C1959.19 688.028 1942.8 696.863 1955.8 710.863" stroke="#3D3D3D" stroke-width="1.99713"/>
<path d="M1975.43 679.414L1980.8 696.363" stroke="#3D3D3D" stroke-width="1.99713"/>
<path d="M1981.67 671.809C1991.36 675.508 2004.3 687.363 2004.8 706.363" stroke="#3D3D3D" stroke-width="1.99713"/>
<path d="M1948.67 668.09C1942.05 671.856 1927.8 683.863 1912.3 674.363" stroke="#3D3D3D" stroke-width="1.99713"/>
<path d="M1945.44 659.09L1923.3 666.363" stroke="#3D3D3D" stroke-width="1.99713"/>
<path d="M1941.52 643.154C1931.44 643.379 1903.8 640.363 1902.8 625.363" stroke="#3D3D3D" stroke-width="1.99713"/>
<path d="M1944.99 631.156C1940.61 626.153 1935.8 616.316 1925.3 617.363" stroke="#3D3D3D" stroke-width="1.99713"/>
<path d="M1956.08 625.394C1958.16 615.086 1959.3 593.363 1948.8 589.363" stroke="#3D3D3D" stroke-width="1.99713"/>
<path d="M1993.45 649.655C2005.61 646.892 2035.8 638.861 2030.8 625.861" stroke="#3D3D3D" stroke-width="1.99713"/>
<path d="M2011.96 604.423C2010.61 605.967 2008.81 608.967 2012.37 608.613C2016.82 608.17 2014.23 602.084 2011.96 604.423Z" fill="#3D3D3D" stroke="#3D3D3D" stroke-width="1.99713"/>
<path d="M1948.65 586.302C1947.3 587.846 1945.5 590.845 1949.06 590.492C1953.51 590.049 1950.92 583.963 1948.65 586.302Z" fill="#3D3D3D" stroke="#3D3D3D" stroke-width="1.99713"/>
<path d="M1927.02 615.756C1925.04 615.252 1921.55 614.999 1923.47 618.017C1925.87 621.79 1930.14 616.733 1927.02 615.756Z" fill="#3D3D3D" stroke="#3D3D3D" stroke-width="1.99713"/>
<path d="M1901.17 626.593C1902.96 627.584 1906.27 628.713 1905.17 625.306C1903.81 621.048 1898.4 624.859 1901.17 626.593Z" fill="#3D3D3D" stroke="#3D3D3D" stroke-width="1.99713"/>
<path d="M1922.99 663.485C1922.18 665.37 1921.4 668.779 1924.68 667.341C1928.77 665.543 1924.43 660.556 1922.99 663.485Z" fill="#3D3D3D" stroke="#3D3D3D" stroke-width="1.99713"/>
<path d="M1911.74 676.679C1913.71 676.124 1916.86 674.6 1913.69 672.946C1909.73 670.877 1908.56 677.388 1911.74 676.679Z" fill="#3D3D3D" stroke="#3D3D3D" stroke-width="1.99713"/>
<path d="M1953.7 711.595C1954.69 713.388 1956.89 716.107 1957.78 712.641C1958.89 708.309 1952.29 708.655 1953.7 711.595Z" fill="#3D3D3D" stroke="#3D3D3D" stroke-width="1.99713"/>
<path d="M1978.48 698.557C1980.49 698.18 1983.77 696.943 1980.75 695.012C1976.99 692.599 1975.25 698.98 1978.48 698.557Z" fill="#3D3D3D" stroke="#3D3D3D" stroke-width="1.99713"/>
<path d="M2007.03 706.136C2005.6 704.671 2002.75 702.637 2002.82 706.215C2002.9 710.686 2009.18 708.592 2007.03 706.136Z" fill="#3D3D3D" stroke="#3D3D3D" stroke-width="1.99713"/>
<path d="M2032.3 626.688C2032.8 624.704 2033.06 621.216 2030.04 623.132C2026.27 625.527 2031.31 629.801 2032.3 626.688Z" fill="#3D3D3D" stroke="#3D3D3D" stroke-width="1.99713"/>
<path d="M2003.4 630.26C2004.71 631.829 2007.39 634.075 2007.6 630.503C2007.86 626.038 2001.44 627.645 2003.4 630.26Z" fill="#3D3D3D" stroke="#3D3D3D" stroke-width="1.99713"/>
<path d="M1982.3 637.365C1989 626.597 2003.3 606.864 2011.8 606.365M1988.8 643.863L2004.8 630.363" stroke="#3D3D3D" stroke-width="1.99713"/>
</svg>
