<svg width="390" height="632" viewBox="0 0 390 632" fill="none" xmlns="http://www.w3.org/2000/svg">
<rect x="390" width="631.5" height="390" rx="15" transform="rotate(90 390 0)" fill="#547629"/>
<path d="M21.5241 51.6322C47.8705 50.5234 55.8352 34.1016 56.7834 20.8254C57.1137 16.2016 60.6209 12 65.2565 12H136.35C140.492 12 143.85 15.3579 143.85 19.5V44.0172C143.85 48.1594 147.208 51.5172 151.35 51.5172H237C241.142 51.5172 244.5 48.1594 244.5 44.0172V19.5C244.5 15.3579 247.858 12 252 12H324.743C329.379 12 332.886 16.2016 333.217 20.8254C334.165 34.1016 342.13 50.5234 368.476 51.6322C372.808 51.8145 376.5 55.191 376.5 59.5269V537.473C376.5 541.809 372.808 545.186 368.476 545.368C342.13 546.477 334.165 562.898 333.217 576.175C332.886 580.798 329.379 585 324.743 585H65.2565C60.6209 585 57.1137 580.798 56.7834 576.175C55.8352 562.898 47.8705 546.477 21.5241 545.368C17.192 545.186 13.5 541.809 13.5 537.473V59.5269C13.5 55.191 17.192 51.8145 21.5241 51.6322Z" fill="#DFDFDF"/>
<path d="M36.1286 24.949C33.4611 22.6469 31.8415 15.3571 31.3651 12C30.2219 19.4816 29.2215 22.551 26.8398 24.949C23.9817 27.8265 17.2334 29.1054 13.502 29.7449C16.757 29.9847 23.9817 31.2316 26.8398 34.301C29.6979 37.3704 31.0476 44.2126 31.3651 47.25C31.127 44.1327 33.9719 36.4725 36.1286 34.301C38.9868 31.4235 45.0205 30.2245 48.752 29.5051C45.6557 29.0255 39.4631 27.8265 36.1286 24.949Z" fill="#DFDFDF"/>
<path d="M363.877 24.949C361.209 22.6469 359.59 15.3571 359.113 12C357.97 19.4816 356.97 22.551 354.588 24.949C351.73 27.8265 344.981 29.1054 341.25 29.7449C344.505 29.9847 351.73 31.2316 354.588 34.301C357.446 37.3704 358.796 44.2126 359.113 47.25C358.875 44.1327 361.72 36.4725 363.877 34.301C366.735 31.4235 372.769 30.2245 376.5 29.5051C373.404 29.0255 367.211 27.8265 363.877 24.949Z" fill="#DFDFDF"/>
<path d="M363.877 562.699C361.209 560.397 359.59 553.107 359.113 549.75C357.97 557.232 356.97 560.301 354.588 562.699C351.73 565.577 344.981 566.855 341.25 567.495C344.505 567.735 351.73 568.982 354.588 572.051C357.446 575.12 358.796 581.963 359.113 585C358.875 581.883 361.72 574.222 363.877 572.051C366.735 569.173 372.769 567.974 376.5 567.255C373.404 566.776 367.211 565.577 363.877 562.699Z" fill="#DFDFDF"/>
<path d="M36.1286 562.699C33.4611 560.397 31.8415 553.107 31.3651 549.75C30.2219 557.232 29.2215 560.301 26.8398 562.699C23.9817 565.577 17.2334 566.855 13.502 567.495C16.757 567.735 23.9817 568.982 26.8398 572.051C29.6979 575.12 31.0476 581.963 31.3651 585C31.127 581.883 33.9719 574.222 36.1286 572.051C38.9868 569.173 45.0205 567.974 48.752 567.255C45.6557 566.776 39.4631 565.577 36.1286 562.699Z" fill="#DFDFDF"/>
</svg>
