<svg width="390" height="632" viewBox="0 0 390 632" fill="none" xmlns="http://www.w3.org/2000/svg">
<rect x="389.998" y="0.5" width="631.5" height="390" rx="15" transform="rotate(90 389.998 0.5)" fill="#547629"/>
<path d="M21.5221 52.1322C47.8685 51.0234 55.8332 34.6016 56.7815 21.3254C57.1117 16.7016 60.619 12.5 65.2545 12.5H136.348C140.49 12.5 143.848 15.8579 143.848 20V44.5172C143.848 48.6594 147.206 52.0172 151.348 52.0172H236.998C241.14 52.0172 244.498 48.6594 244.498 44.5172V20C244.498 15.8579 247.856 12.5 251.998 12.5H324.742C329.377 12.5 332.884 16.7016 333.215 21.3254C334.163 34.6016 342.128 51.0234 368.474 52.1322C372.806 52.3145 376.498 55.691 376.498 60.0269V537.973C376.498 542.309 372.806 545.686 368.474 545.868C342.128 546.977 334.163 563.398 333.215 576.675C332.884 581.298 329.377 585.5 324.742 585.5H65.2546C60.619 585.5 57.1117 581.298 56.7815 576.675C55.8332 563.398 47.8685 546.977 21.5221 545.868C17.1901 545.686 13.498 542.309 13.498 537.973V60.0269C13.498 55.691 17.1901 52.3145 21.5221 52.1322Z" fill="#DFDFDF"/>
<path d="M36.1267 25.449C33.4591 23.1469 31.8395 15.8571 31.3632 12.5C30.2199 19.9816 29.2196 23.051 26.8378 25.449C23.9797 28.3265 17.2314 29.6054 13.5 30.2449C16.7551 30.4847 23.9797 31.7316 26.8378 34.801C29.6959 37.8704 31.0456 44.7126 31.3632 47.75C31.125 44.6327 33.9699 36.9725 36.1267 34.801C38.9848 31.9235 45.0186 30.7245 48.75 30.0051C45.6537 29.5255 39.4611 28.3265 36.1267 25.449Z" fill="#DFDFDF"/>
<path d="M363.875 25.449C361.207 23.1469 359.588 15.8571 359.111 12.5C357.968 19.9816 356.968 23.051 354.586 25.449C351.728 28.3265 344.979 29.6054 341.248 30.2449C344.503 30.4847 351.728 31.7316 354.586 34.801C357.444 37.8704 358.794 44.7126 359.111 47.75C358.873 44.6327 361.718 36.9725 363.875 34.801C366.733 31.9235 372.767 30.7245 376.498 30.0051C373.402 29.5255 367.209 28.3265 363.875 25.449Z" fill="#DFDFDF"/>
<path d="M363.875 563.199C361.207 560.897 359.588 553.607 359.111 550.25C357.968 557.732 356.968 560.801 354.586 563.199C351.728 566.077 344.979 567.355 341.248 567.995C344.503 568.235 351.728 569.482 354.586 572.551C357.444 575.62 358.794 582.463 359.111 585.5C358.873 582.383 361.718 574.722 363.875 572.551C366.733 569.673 372.767 568.474 376.498 567.755C373.402 567.276 367.209 566.077 363.875 563.199Z" fill="#DFDFDF"/>
<path d="M36.1267 563.199C33.4591 560.897 31.8395 553.607 31.3632 550.25C30.2199 557.732 29.2196 560.801 26.8378 563.199C23.9797 566.077 17.2314 567.355 13.5 567.995C16.7551 568.235 23.9797 569.482 26.8378 572.551C29.6959 575.62 31.0456 582.463 31.3632 585.5C31.125 582.383 33.9699 574.722 36.1267 572.551C38.9848 569.673 45.0186 568.474 48.75 567.755C45.6537 567.276 39.4611 566.077 36.1267 563.199Z" fill="#DFDFDF"/>
</svg>
