<svg width="299" height="299" viewBox="0 0 299 299" fill="none" xmlns="http://www.w3.org/2000/svg">
<path d="M59.5703 296.503C103.475 309.771 103.934 251.027 98.6744 219.997C98.9622 205.866 121.201 198.371 132.285 196.39C122.493 207.234 111.237 232.183 144.545 245.234C177.852 258.285 179.927 206.937 176.801 179.632C179.263 167.166 186.35 144.487 195.002 153.499C203.654 162.511 216.15 163.503 221.316 162.873C269.041 162.083 260.061 104.029 249.605 75.1016C274.146 63.0878 316.72 33.1844 290.693 9.68067C264.666 -13.8231 223.618 13.4614 206.347 30.0416C212.414 21.3308 208.634 4.467 144.977 6.69797C81.3199 8.92894 82.4697 39.2859 91.0017 54.1856L72.98 71.4867C62.1653 60.2216 -12.6313 45.4381 2.2399 74.4562C14.1369 97.6707 40.8408 95.125 52.7056 90.9504C40.0904 103.061 48.5321 115.161 54.3298 119.697C80.4287 139.669 113.023 93.6575 126.058 68.1556C143.433 82.6473 174.689 66.2061 188.146 56.174C187.571 84.4343 206.592 90.4191 216.174 89.879C215.875 104.598 211.78 132.197 197.793 124.842C183.806 117.487 162.588 118.232 153.727 119.523C91.5845 134.154 119.906 153.435 141.835 161.246L123.813 178.547C85.5441 177.764 11.0614 183.749 19.2822 213.956C27.503 244.163 56.3519 237.538 69.7488 230.45C48.0622 246.939 15.6653 283.235 59.5703 296.503Z" fill="#3D3D3D"/>
</svg>
