<svg width="225" height="225" viewBox="0 0 225 225" fill="none" xmlns="http://www.w3.org/2000/svg">
<path d="M45.4268 222.627C78.3556 232.578 78.6992 188.521 74.7549 165.248C74.9707 154.65 91.6501 149.029 99.9628 147.543C92.619 155.675 84.1768 174.387 109.157 184.175C134.138 193.963 135.694 155.453 133.35 134.974C135.196 125.624 140.512 108.615 147.001 115.374C153.489 122.133 162.861 122.878 166.736 122.405C202.53 121.812 195.795 78.2721 187.953 56.5762C206.358 47.5659 238.289 25.1383 218.769 7.51052C199.249 -10.1173 168.462 10.3461 155.509 22.7812C160.06 16.2481 157.225 3.60026 109.482 5.27349C61.739 6.94672 62.6013 29.7145 69.0003 40.8892L55.484 53.865C47.373 45.4162 -8.72444 34.3285 2.42896 56.0921C11.3517 73.503 31.3796 71.5938 40.2782 68.4628C30.8168 77.5459 37.1481 86.6209 41.4964 90.023C61.0705 105.001 85.5161 70.4932 95.2922 51.3667C108.324 62.2355 131.766 49.9046 141.858 42.3805C141.427 63.5757 155.693 68.0643 162.88 67.6592C162.655 78.6984 159.584 99.3977 149.094 93.8817C138.604 88.3656 122.69 88.9238 116.044 89.8924C69.4374 100.866 90.6786 115.326 107.125 121.184L93.6088 134.16C64.9071 133.573 9.04512 138.062 15.2107 160.717C21.3763 183.373 43.013 178.404 53.0606 173.087C36.7957 185.454 12.498 212.677 45.4268 222.627Z" fill="#3D3D3D"/>
</svg>
