<svg width="326" height="542" viewBox="0 0 326 542" fill="none" xmlns="http://www.w3.org/2000/svg">
<path d="M118.973 379.106C114.784 392.622 113.948 406.247 118.226 416.706C120.26 421.68 123.449 425.937 127.984 429.128C131.262 431.435 135.244 433.184 139.999 434.242C140.492 434.352 140.992 434.454 141.501 434.549C144.674 435.138 148.172 435.435 152.015 435.402C153.31 435.391 154.645 435.343 156.02 435.256C157.59 435.156 159.091 435.004 160.525 434.801C163.468 434.386 166.131 433.763 168.536 432.961C172.313 431.701 175.454 430 178.048 427.976C182.054 424.848 184.753 420.948 186.466 416.706C189.529 409.124 189.446 400.45 188.06 393.144C185.458 379.421 180.697 347.76 187.378 287.002C176.926 294.419 159.709 303.888 152.015 296.752C141.501 287.002 127.533 289.252 117.295 291.752C121.196 325.805 123.725 363.771 118.973 379.106Z" fill="#547629"/>
<path d="M141.501 434.549C144.674 435.138 148.172 435.435 152.015 435.402C153.31 435.391 154.645 435.343 156.02 435.256C157.59 435.156 159.091 435.004 160.525 434.801M141.501 434.549C140.992 434.454 140.492 434.352 139.999 434.242C135.244 433.184 131.262 431.435 127.984 429.128C123.449 425.937 120.26 421.68 118.226 416.706C113.948 406.247 114.784 392.622 118.973 379.106C123.725 363.771 121.196 325.805 117.295 291.752M141.501 434.549V442.776C139.332 445.115 136.295 450.797 141.501 454.808M141.501 454.808H160.525M141.501 454.808C141.055 457.044 141.206 460.104 144.505 461.884M160.525 454.808C163.362 453.255 167.334 448.675 160.525 442.776V434.801M160.525 454.808C161.436 456.746 161.803 460.007 158.764 461.884M160.525 434.801C163.468 434.386 166.131 433.763 168.536 432.961C172.313 431.701 175.454 430 178.048 427.976C182.054 424.848 184.753 420.948 186.466 416.706C189.529 409.124 189.446 400.45 188.06 393.144C185.458 379.421 180.697 347.76 187.378 287.002M144.505 461.884C146.136 462.763 148.537 463.33 152.015 463.33C155.195 463.33 157.349 462.757 158.764 461.884M144.505 461.884C145.673 477.239 146.107 510.055 138.497 518.477C126.983 532.013 110.689 530.509 107.959 533.517C102.952 539.032 107.704 541.538 112.965 540.536H195.068C196.737 539.366 198.873 536.324 194.067 533.517C188.059 530.008 163.03 528.002 160.525 506.946C158.522 490.101 158.516 469.886 158.764 461.884M117.295 291.752C115.279 274.151 112.896 257.596 110.962 245.752H193.067C190.608 260.796 188.752 274.514 187.378 287.002M117.295 291.752C127.533 289.252 141.501 287.002 152.015 296.752C159.709 303.888 176.926 294.419 187.378 287.002" stroke="#547629" stroke-width="2"/>
<path d="M197.018 0.75C195.073 16.3339 187.468 50.6894 172.613 63.4399C172.083 65.9192 175.054 70.1339 191.182 67.1588C197.562 65.9819 201.285 65.9756 203.916 66.6177C209.598 68.0048 210.181 72.4177 221.423 74.5966C235.217 74.5966 232.034 67.1588 240.522 67.1588C249.011 67.1588 250.072 74.5966 257.499 74.5966C264.927 74.5966 262.804 76.1904 272.354 69.8152C279.345 65.1482 286.62 68.453 292.514 70.5591C294.672 71.3299 296.644 71.9403 298.35 71.9403C304.716 71.9403 315.327 71.9402 325.407 61.8461C317.626 53.1687 302.276 28.8011 303.125 0.75H197.018Z" fill="#547629"/>
<path d="M208.69 277.011C207.694 266.755 207.766 256.92 209.203 247.26C205.142 246.551 196.701 247.578 195.427 257.354C194.154 267.129 197.354 272.76 199.112 274.354C202.477 275.944 205.846 276.763 208.69 277.011Z" fill="#547629"/>
<path d="M104.175 269.573C107.644 269.11 109.8 266.629 111.073 263.864C112.136 261.554 112.583 259.047 112.664 257.354C111.39 237.803 102.23 238.582 97.809 241.416C99.5067 259.691 102.761 267.802 104.175 269.573Z" fill="#547629"/>
<path d="M24.5959 220.165C26.1875 221.581 31.3867 222.715 39.4508 215.915C48.7882 201.464 41.7406 196.435 37.0496 195.726C32.4374 204.83 28.0597 213.41 24.5959 220.165Z" fill="#547629"/>
<path d="M0.191406 167.038C0.36825 168.454 3.69292 171.182 15.5769 170.757C27.8852 162.256 25.5655 155.173 22.8671 152.693L0.191406 167.038Z" fill="#547629"/>
<path d="M20.3516 122.402C20.873 124.533 24.9424 128.156 37.0496 125.599C43.8627 121.672 55.6851 112.18 48.4699 105.63C38.2653 111.784 27.6112 118.118 20.3516 122.402Z" fill="#547629"/>
<path d="M240.522 67.1588C232.034 67.1588 235.217 74.5966 221.423 74.5966C210.181 72.4177 209.598 68.0048 203.916 66.6177C201.794 74.2359 189.804 88.7284 158.821 85.7533C127.838 82.7782 100.639 82.3886 90.912 82.5657C88.7901 82.3886 84.5461 82.0344 77.6492 87.3471C70.7522 92.6598 61.881 97.5408 48.4699 105.63C55.6851 112.18 43.8627 121.672 37.0496 125.599C42.8832 127.331 60.8255 126.145 86.4666 107.911C87.2606 107.347 88.2703 107.159 89.2114 107.411C98.4252 109.877 116.045 113.506 123.275 110.947L90.912 122.402L72.8744 128.786C70.9291 129.14 66.9324 130.911 66.508 135.161C66.0643 136.938 62.4735 144.615 57.4139 154.972C51.6944 166.68 44.0981 181.814 37.0496 195.726C41.7406 196.435 48.7882 201.464 39.4508 215.915C46.2382 216.786 64.2266 205.755 82.5952 155.174C83.1128 153.749 84.5648 152.848 86.0658 153.063L99.401 154.972C96.0294 157.139 93.0855 158.944 90.912 160.131C81.5747 165.231 81.0088 172.173 81.893 175.007L97.809 241.416C102.23 238.582 111.39 237.803 112.664 257.354C118.715 252.557 119.134 238.882 117.624 225.28C115.956 210.259 111.934 195.327 110.542 192.539C108.419 188.288 109.657 185.455 110.542 184.57C114.963 181.913 124.654 175.963 128.049 173.413C134.416 168.631 148.74 165.09 155.637 164.913C207.629 166.506 199.112 197.32 197.018 200.508C194.982 203.607 189.883 210.725 185.213 225.28C185.081 225.694 184.948 226.114 184.816 226.54C180.164 243.816 182.196 255.617 186.939 263.442C190.161 268.758 194.633 272.239 199.112 274.354C197.354 272.76 194.154 267.129 195.427 257.354C196.701 247.578 205.142 246.551 209.203 247.26C213.124 220.886 227.212 195.812 257.499 167.038C290.604 135.586 294.636 89.6139 292.514 70.5591C286.62 68.453 279.345 65.1482 272.354 69.8152C262.804 76.1904 264.927 74.5966 257.499 74.5966C250.072 74.5966 249.011 67.1588 240.522 67.1588Z" fill="#3D3D3D"/>
<path d="M66.508 135.161C66.9324 130.911 70.9291 129.14 72.8744 128.786L90.912 122.402C85.6069 120.274 75.527 118.692 70.7522 122.402L22.8671 152.693C25.5655 155.173 27.8852 162.256 15.5769 170.757C19.5942 172.984 33.586 172.945 57.4139 154.972C62.4735 144.615 66.0643 136.938 66.508 135.161Z" fill="#3D3D3D"/>
</svg>
